<?xml version='1.0' encoding='utf-8'?>
<svg xmlns="http://www.w3.org/2000/svg" version="1.1" width="498" height="118" viewBox="0 0 498.0 118.0">
<path d="M 2.878906 78.319336 L 2.878906 71.412109 L 6.729980 71.412109 L 6.729980 72.335938 L 3.738281 72.335938 L 3.738281 78.319336 Z " fill="black" fill-opacity="1.000000"/>
<path d="M 2.878906 91.319336 L 2.878906 84.412109 L 6.729980 84.412109 L 6.729980 85.335938 L 3.738281 85.335938 L 3.738281 91.319336 Z " fill="black" fill-opacity="1.000000"/>
<path d="M 2.878906 104.319336 L 2.878906 90.300781 L 3.738281 90.300781 L 3.738281 104.319336 Z " fill="black" fill-opacity="1.000000"/>
<path d="M 2.878906 111.335938 L 2.878906 103.300781 L 3.738281 103.300781 L 3.738281 110.412109 L 6.729980 110.412109 L 6.729980 111.335938 Z " fill="black" fill-opacity="1.000000"/>
<path d="M 6.892578 111.335938 L 6.892578 110.412109 L 13.729980 110.412109 L 13.729980 111.335938 Z " fill="black" fill-opacity="1.000000"/>
<path d="M 13.892578 111.335938 L 13.892578 110.412109 L 20.729980 110.412109 L 20.729980 111.335938 Z " fill="black" fill-opacity="1.000000"/>
<path d="M 20.892578 111.335938 L 20.892578 110.412109 L 27.729980 110.412109 L 27.729980 111.335938 Z " fill="black" fill-opacity="1.000000"/>
<path d="M 27.892578 111.335938 L 27.892578 110.412109 L 34.729980 110.412109 L 34.729980 111.335938 Z " fill="black" fill-opacity="1.000000"/>
<path d="M 34.892578 111.335938 L 34.892578 110.412109 L 41.729980 110.412109 L 41.729980 111.335938 Z " fill="black" fill-opacity="1.000000"/>
<path d="M 41.892578 111.335938 L 41.892578 110.412109 L 48.729980 110.412109 L 48.729980 111.335938 Z " fill="black" fill-opacity="1.000000"/>
<path d="M 48.892578 111.335938 L 48.892578 110.412109 L 51.878906 110.412109 L 51.878906 103.300781 L 52.738281 103.300781 L 52.738281 110.412109 L 55.729980 110.412109 L 55.729980 111.335938 Z " fill="black" fill-opacity="1.000000"/>
<path d="M 55.892578 111.335938 L 55.892578 110.412109 L 62.729980 110.412109 L 62.729980 111.335938 Z " fill="black" fill-opacity="1.000000"/>
<path d="M 62.892578 111.335938 L 62.892578 110.412109 L 69.729980 110.412109 L 69.729980 111.335938 Z " fill="black" fill-opacity="1.000000"/>
<path d="M 69.892578 111.335938 L 69.892578 110.412109 L 76.729980 110.412109 L 76.729980 111.335938 Z " fill="black" fill-opacity="1.000000"/>
<path d="M 76.892578 111.335938 L 76.892578 110.412109 L 83.729980 110.412109 L 83.729980 111.335938 Z " fill="black" fill-opacity="1.000000"/>
<path d="M 83.892578 111.335938 L 83.892578 110.412109 L 90.729980 110.412109 L 90.729980 111.335938 Z " fill="black" fill-opacity="1.000000"/>
<path d="M 90.892578 111.335938 L 90.892578 110.412109 L 97.729980 110.412109 L 97.729980 111.335938 Z " fill="black" fill-opacity="1.000000"/>
<path d="M 97.892578 111.335938 L 97.892578 110.412109 L 104.729980 110.412109 L 104.729980 111.335938 Z " fill="black" fill-opacity="1.000000"/>
<path d="M 104.892578 111.335938 L 104.892578 110.412109 L 111.729980 110.412109 L 111.729980 111.335938 Z " fill="black" fill-opacity="1.000000"/>
<path d="M 111.892578 111.335938 L 111.892578 110.412109 L 118.729980 110.412109 L 118.729980 111.335938 Z " fill="black" fill-opacity="1.000000"/>
<path d="M 118.892578 111.335938 L 118.892578 110.412109 L 125.729980 110.412109 L 125.729980 111.335938 Z " fill="black" fill-opacity="1.000000"/>
<path d="M 125.892578 111.335938 L 125.892578 110.412109 L 132.729980 110.412109 L 132.729980 111.335938 Z " fill="black" fill-opacity="1.000000"/>
<path d="M 132.892578 111.335938 L 132.892578 110.412109 L 135.878906 110.412109 L 135.878906 103.300781 L 136.738281 103.300781 L 136.738281 110.412109 L 139.729980 110.412109 L 139.729980 111.335938 Z " fill="black" fill-opacity="1.000000"/>
<path d="M 139.892578 111.335938 L 139.892578 110.412109 L 146.729980 110.412109 L 146.729980 111.335938 Z " fill="black" fill-opacity="1.000000"/>
<path d="M 146.892578 111.335938 L 146.892578 110.412109 L 153.729980 110.412109 L 153.729980 111.335938 Z " fill="black" fill-opacity="1.000000"/>
<path d="M 153.892578 111.335938 L 153.892578 110.412109 L 160.729980 110.412109 L 160.729980 111.335938 Z " fill="black" fill-opacity="1.000000"/>
<path d="M 160.892578 111.335938 L 160.892578 110.412109 L 167.729980 110.412109 L 167.729980 111.335938 Z " fill="black" fill-opacity="1.000000"/>
<path d="M 167.892578 111.335938 L 167.892578 110.412109 L 174.729980 110.412109 L 174.729980 111.335938 Z " fill="black" fill-opacity="1.000000"/>
<path d="M 174.892578 111.335938 L 174.892578 110.412109 L 181.729980 110.412109 L 181.729980 111.335938 Z " fill="black" fill-opacity="1.000000"/>
<path d="M 181.892578 111.335938 L 181.892578 110.412109 L 188.729980 110.412109 L 188.729980 111.335938 Z " fill="black" fill-opacity="1.000000"/>
<path d="M 188.892578 111.335938 L 188.892578 110.412109 L 195.729980 110.412109 L 195.729980 111.335938 Z " fill="black" fill-opacity="1.000000"/>
<path d="M 195.892578 111.335938 L 195.892578 110.412109 L 202.729980 110.412109 L 202.729980 111.335938 Z " fill="black" fill-opacity="1.000000"/>
<path d="M 202.892578 111.335938 L 202.892578 110.412109 L 205.878906 110.412109 L 205.878906 103.300781 L 206.738281 103.300781 L 206.738281 110.412109 L 209.729980 110.412109 L 209.729980 111.335938 Z " fill="black" fill-opacity="1.000000"/>
<path d="M 209.892578 111.335938 L 209.892578 110.412109 L 216.729980 110.412109 L 216.729980 111.335938 Z " fill="black" fill-opacity="1.000000"/>
<path d="M 216.892578 111.335938 L 216.892578 110.412109 L 223.729980 110.412109 L 223.729980 111.335938 Z " fill="black" fill-opacity="1.000000"/>
<path d="M 223.892578 111.335938 L 223.892578 110.412109 L 230.729980 110.412109 L 230.729980 111.335938 Z " fill="black" fill-opacity="1.000000"/>
<path d="M 230.892578 111.335938 L 230.892578 110.412109 L 237.729980 110.412109 L 237.729980 111.335938 Z " fill="black" fill-opacity="1.000000"/>
<path d="M 237.892578 111.335938 L 237.892578 110.412109 L 244.729980 110.412109 L 244.729980 111.335938 Z " fill="black" fill-opacity="1.000000"/>
<path d="M 244.892578 111.335938 L 244.892578 110.412109 L 251.729980 110.412109 L 251.729980 111.335938 Z " fill="black" fill-opacity="1.000000"/>
<path d="M 251.892578 111.335938 L 251.892578 110.412109 L 258.729980 110.412109 L 258.729980 111.335938 Z " fill="black" fill-opacity="1.000000"/>
<path d="M 258.892578 111.335938 L 258.892578 110.412109 L 265.729980 110.412109 L 265.729980 111.335938 Z " fill="black" fill-opacity="1.000000"/>
<path d="M 265.892578 111.335938 L 265.892578 110.412109 L 272.729980 110.412109 L 272.729980 111.335938 Z " fill="black" fill-opacity="1.000000"/>
<path d="M 272.892578 111.335938 L 272.892578 110.412109 L 279.729980 110.412109 L 279.729980 111.335938 Z " fill="black" fill-opacity="1.000000"/>
<path d="M 279.892578 111.335938 L 279.892578 110.412109 L 286.729980 110.412109 L 286.729980 111.335938 Z " fill="black" fill-opacity="1.000000"/>
<path d="M 286.892578 111.335938 L 286.892578 110.412109 L 293.729980 110.412109 L 293.729980 111.335938 Z " fill="black" fill-opacity="1.000000"/>
<path d="M 293.892578 111.335938 L 293.892578 110.412109 L 300.729980 110.412109 L 300.729980 111.335938 Z " fill="black" fill-opacity="1.000000"/>
<path d="M 300.892578 111.335938 L 300.892578 110.412109 L 303.878906 110.412109 L 303.878906 103.300781 L 304.738281 103.300781 L 304.738281 110.412109 L 307.729980 110.412109 L 307.729980 111.335938 Z " fill="black" fill-opacity="1.000000"/>
<path d="M 307.892578 111.335938 L 307.892578 110.412109 L 314.729980 110.412109 L 314.729980 111.335938 Z " fill="black" fill-opacity="1.000000"/>
<path d="M 314.892578 111.335938 L 314.892578 110.412109 L 321.729980 110.412109 L 321.729980 111.335938 Z " fill="black" fill-opacity="1.000000"/>
<path d="M 321.892578 111.335938 L 321.892578 110.412109 L 328.729980 110.412109 L 328.729980 111.335938 Z " fill="black" fill-opacity="1.000000"/>
<path d="M 328.892578 111.335938 L 328.892578 110.412109 L 331.878906 110.412109 L 331.878906 103.300781 L 332.738281 103.300781 L 332.738281 110.412109 L 335.729980 110.412109 L 335.729980 111.335938 Z " fill="black" fill-opacity="1.000000"/>
<path d="M 335.892578 111.335938 L 335.892578 110.412109 L 342.729980 110.412109 L 342.729980 111.335938 Z " fill="black" fill-opacity="1.000000"/>
<path d="M 342.892578 111.335938 L 342.892578 110.412109 L 349.729980 110.412109 L 349.729980 111.335938 Z " fill="black" fill-opacity="1.000000"/>
<path d="M 349.892578 111.335938 L 349.892578 110.412109 L 356.729980 110.412109 L 356.729980 111.335938 Z " fill="black" fill-opacity="1.000000"/>
<path d="M 356.892578 111.335938 L 356.892578 110.412109 L 363.729980 110.412109 L 363.729980 111.335938 Z " fill="black" fill-opacity="1.000000"/>
<path d="M 363.892578 111.335938 L 363.892578 110.412109 L 370.729980 110.412109 L 370.729980 111.335938 Z " fill="black" fill-opacity="1.000000"/>
<path d="M 370.892578 111.335938 L 370.892578 110.412109 L 377.729980 110.412109 L 377.729980 111.335938 Z " fill="black" fill-opacity="1.000000"/>
<path d="M 377.892578 111.335938 L 377.892578 110.412109 L 384.729980 110.412109 L 384.729980 111.335938 Z " fill="black" fill-opacity="1.000000"/>
<path d="M 384.892578 111.335938 L 384.892578 110.412109 L 391.729980 110.412109 L 391.729980 111.335938 Z " fill="black" fill-opacity="1.000000"/>
<path d="M 391.892578 111.335938 L 391.892578 110.412109 L 398.729980 110.412109 L 398.729980 111.335938 Z " fill="black" fill-opacity="1.000000"/>
<path d="M 398.892578 111.335938 L 398.892578 110.412109 L 405.729980 110.412109 L 405.729980 111.335938 Z " fill="black" fill-opacity="1.000000"/>
<path d="M 405.892578 111.335938 L 405.892578 110.412109 L 412.729980 110.412109 L 412.729980 111.335938 Z " fill="black" fill-opacity="1.000000"/>
<path d="M 412.892578 111.335938 L 412.892578 110.412109 L 419.729980 110.412109 L 419.729980 111.335938 Z " fill="black" fill-opacity="1.000000"/>
<path d="M 419.892578 111.335938 L 419.892578 110.412109 L 426.729980 110.412109 L 426.729980 111.335938 Z " fill="black" fill-opacity="1.000000"/>
<path d="M 426.892578 111.335938 L 426.892578 110.412109 L 429.878906 110.412109 L 429.878906 103.300781 L 430.738281 103.300781 L 430.738281 110.412109 L 433.729980 110.412109 L 433.729980 111.335938 Z " fill="black" fill-opacity="1.000000"/>
<path d="M 433.892578 111.335938 L 433.892578 110.412109 L 440.729980 110.412109 L 440.729980 111.335938 Z " fill="black" fill-opacity="1.000000"/>
<path d="M 440.892578 111.335938 L 440.892578 110.412109 L 447.729980 110.412109 L 447.729980 111.335938 Z " fill="black" fill-opacity="1.000000"/>
<path d="M 447.892578 111.335938 L 447.892578 110.412109 L 454.729980 110.412109 L 454.729980 111.335938 Z " fill="black" fill-opacity="1.000000"/>
<path d="M 454.892578 111.335938 L 454.892578 110.412109 L 457.878906 110.412109 L 457.878906 103.300781 L 458.738281 103.300781 L 458.738281 110.412109 L 461.729980 110.412109 L 461.729980 111.335938 Z " fill="black" fill-opacity="1.000000"/>
<path d="M 461.892578 111.335938 L 461.892578 110.412109 L 468.729980 110.412109 L 468.729980 111.335938 Z " fill="black" fill-opacity="1.000000"/>
<path d="M 468.892578 111.335938 L 468.892578 110.412109 L 475.729980 110.412109 L 475.729980 111.335938 Z " fill="black" fill-opacity="1.000000"/>
<path d="M 475.892578 111.335938 L 475.892578 110.412109 L 482.729980 110.412109 L 482.729980 111.335938 Z " fill="black" fill-opacity="1.000000"/>
<path d="M 482.892578 111.335938 L 482.892578 110.412109 L 489.729980 110.412109 L 489.729980 111.335938 Z " fill="black" fill-opacity="1.000000"/>
<path d="M 489.892578 111.335938 L 489.892578 110.412109 L 492.878906 110.412109 L 492.878906 103.300781 L 493.738281 103.300781 L 493.738281 111.335938 Z " fill="black" fill-opacity="1.000000"/>
<path d="M 8.079590 92.980957 L 12.532227 92.980957 L 12.532227 93.894043 L 10.851074 93.894043 L 10.851074 100.086914 L 12.532227 100.086914 L 12.532227 101.000000 L 8.079590 101.000000 L 8.079590 100.086914 L 9.760742 100.086914 L 9.760742 93.894043 L 8.079590 93.894043 Z " fill="black" fill-opacity="1.000000"/>
<path d="M 19.435547 93.254883 L 19.435547 94.355957 Q 18.941406 94.039062 18.444580 93.877930 Q 17.947754 93.716797 17.442871 93.716797 Q 16.674805 93.716797 16.229004 94.073975 Q 15.783203 94.431152 15.783203 95.038086 Q 15.783203 95.569824 16.075928 95.849121 Q 16.368652 96.128418 17.168945 96.316406 L 17.738281 96.445312 Q 18.866211 96.708496 19.381836 97.272461 Q 19.897461 97.836426 19.897461 98.808594 Q 19.897461 99.952637 19.188477 100.554199 Q 18.479492 101.155762 17.125977 101.155762 Q 16.562012 101.155762 15.992676 101.034912 Q 15.423340 100.914062 14.848633 100.672363 L 14.848633 99.517578 Q 15.466309 99.909668 16.016846 100.092285 Q 16.567383 100.274902 17.125977 100.274902 Q 17.947754 100.274902 18.404297 99.906982 Q 18.860840 99.539062 18.860840 98.878418 Q 18.860840 98.276855 18.546631 97.959961 Q 18.232422 97.643066 17.453613 97.471191 L 16.873535 97.336914 Q 15.756348 97.084473 15.251465 96.574219 Q 14.746582 96.063965 14.746582 95.204590 Q 14.746582 94.130371 15.468994 93.483154 Q 16.191406 92.835938 17.389160 92.835938 Q 17.851074 92.835938 18.361328 92.940674 Q 18.871582 93.045410 19.435547 93.254883 Z " fill="black" fill-opacity="1.000000"/>
<path d="M 23.341797 100.108398 Q 24.711426 100.108398 25.253906 99.434326 Q 25.796387 98.760254 25.796387 96.998535 Q 25.796387 95.220703 25.256592 94.546631 Q 24.716797 93.872559 23.341797 93.872559 L 22.826172 93.872559 L 22.826172 100.108398 Z M 23.363281 92.980957 Q 25.200195 92.980957 26.070312 93.958496 Q 26.940430 94.936035 26.940430 96.998535 Q 26.940430 99.050293 26.070312 100.025146 Q 25.200195 101.000000 23.363281 101.000000 L 21.735840 101.000000 L 21.735840 92.980957 Z " fill="black" fill-opacity="1.000000"/>
<path d="M 28.547852 97.111328 L 34.241211 97.111328 L 34.241211 98.019043 L 28.547852 98.019043 Z " fill="black" fill-opacity="1.000000"/>
<path d="M 38.308594 93.937012 L 37.164551 98.040527 L 39.452637 98.040527 Z M 37.653320 92.980957 L 38.969238 92.980957 L 41.423828 101.000000 L 40.301270 101.000000 L 39.710449 98.910645 L 36.901367 98.910645 L 36.321289 101.000000 L 35.198730 101.000000 Z " fill="black" fill-opacity="1.000000"/>
<path d="M 47.435547 93.254883 L 47.435547 94.355957 Q 46.941406 94.039062 46.444580 93.877930 Q 45.947754 93.716797 45.442871 93.716797 Q 44.674805 93.716797 44.229004 94.073975 Q 43.783203 94.431152 43.783203 95.038086 Q 43.783203 95.569824 44.075928 95.849121 Q 44.368652 96.128418 45.168945 96.316406 L 45.738281 96.445312 Q 46.866211 96.708496 47.381836 97.272461 Q 47.897461 97.836426 47.897461 98.808594 Q 47.897461 99.952637 47.188477 100.554199 Q 46.479492 101.155762 45.125977 101.155762 Q 44.562012 101.155762 43.992676 101.034912 Q 43.423340 100.914062 42.848633 100.672363 L 42.848633 99.517578 Q 43.466309 99.909668 44.016846 100.092285 Q 44.567383 100.274902 45.125977 100.274902 Q 45.947754 100.274902 46.404297 99.906982 Q 46.860840 99.539062 46.860840 98.878418 Q 46.860840 98.276855 46.546631 97.959961 Q 46.232422 97.643066 45.453613 97.471191 L 44.873535 97.336914 Q 43.756348 97.084473 43.251465 96.574219 Q 42.746582 96.063965 42.746582 95.204590 Q 42.746582 94.130371 43.468994 93.483154 Q 44.191406 92.835938 45.389160 92.835938 Q 45.851074 92.835938 46.361328 92.940674 Q 46.871582 93.045410 47.435547 93.254883 Z " fill="black" fill-opacity="1.000000"/>
<path d="M 51.878906 104.319336 L 51.878906 90.300781 L 52.738281 90.300781 L 52.738281 104.319336 Z " fill="black" fill-opacity="1.000000"/>
<path d="M 56.102051 93.007812 L 57.584473 93.007812 L 60.721191 99.587402 L 60.721191 93.007812 L 61.875977 93.007812 L 61.875977 101.000000 L 60.393555 101.000000 L 57.256836 94.420410 L 57.256836 101.000000 L 56.102051 101.000000 Z " fill="black" fill-opacity="1.000000"/>
<path d="M 69.015625 97.498047 L 69.015625 97.981445 L 64.734863 97.981445 L 64.734863 98.013672 Q 64.691895 99.243652 65.204834 99.780762 Q 65.717773 100.317871 66.652344 100.317871 Q 67.125000 100.317871 67.640625 100.167480 Q 68.156250 100.017090 68.741699 99.710938 L 68.741699 100.693848 Q 68.177734 100.924805 67.654053 101.040283 Q 67.130371 101.155762 66.641602 101.155762 Q 65.239746 101.155762 64.450195 100.315186 Q 63.660645 99.474609 63.660645 97.997559 Q 63.660645 96.558105 64.434082 95.698730 Q 65.207520 94.839355 66.496582 94.839355 Q 67.645996 94.839355 68.309326 95.618164 Q 68.972656 96.396973 69.015625 97.498047 Z M 68.027344 97.208008 Q 67.962891 96.584961 67.573486 96.131104 Q 67.184082 95.677246 66.453613 95.677246 Q 65.739258 95.677246 65.277344 96.149902 Q 64.815430 96.622559 64.772461 97.213379 Z " fill="black" fill-opacity="1.000000"/>
<path d="M 76.004883 94.984375 L 73.851074 97.863281 L 76.214355 101.000000 L 75.070312 101.000000 L 73.308594 98.588379 L 71.552246 101.000000 L 70.408203 101.000000 L 72.771484 97.863281 L 70.617676 94.984375 L 71.713379 94.984375 L 73.308594 97.159668 L 74.893066 94.984375 Z " fill="black" fill-opacity="1.000000"/>
<path d="M 80.297852 93.276367 L 80.297852 94.984375 L 82.542969 94.984375 L 82.542969 95.752441 L 80.297852 95.752441 L 80.297852 99.018066 Q 80.297852 99.684082 80.550293 99.947266 Q 80.802734 100.210449 81.431152 100.210449 L 82.542969 100.210449 L 82.542969 101.000000 L 81.334473 101.000000 Q 80.222656 101.000000 79.766113 100.554199 Q 79.309570 100.108398 79.309570 99.018066 L 79.309570 95.752441 L 77.703613 95.752441 L 77.703613 94.984375 L 79.309570 94.984375 L 79.309570 93.276367 Z " fill="black" fill-opacity="1.000000"/>
<path d="M 92.079590 92.980957 L 96.532227 92.980957 L 96.532227 93.894043 L 94.851074 93.894043 L 94.851074 100.086914 L 96.532227 100.086914 L 96.532227 101.000000 L 92.079590 101.000000 L 92.079590 100.086914 L 93.760742 100.086914 L 93.760742 93.894043 L 92.079590 93.894043 Z " fill="black" fill-opacity="1.000000"/>
<path d="M 103.435547 93.254883 L 103.435547 94.355957 Q 102.941406 94.039062 102.444580 93.877930 Q 101.947754 93.716797 101.442871 93.716797 Q 100.674805 93.716797 100.229004 94.073975 Q 99.783203 94.431152 99.783203 95.038086 Q 99.783203 95.569824 100.075928 95.849121 Q 100.368652 96.128418 101.168945 96.316406 L 101.738281 96.445312 Q 102.866211 96.708496 103.381836 97.272461 Q 103.897461 97.836426 103.897461 98.808594 Q 103.897461 99.952637 103.188477 100.554199 Q 102.479492 101.155762 101.125977 101.155762 Q 100.562012 101.155762 99.992676 101.034912 Q 99.423340 100.914062 98.848633 100.672363 L 98.848633 99.517578 Q 99.466309 99.909668 100.016846 100.092285 Q 100.567383 100.274902 101.125977 100.274902 Q 101.947754 100.274902 102.404297 99.906982 Q 102.860840 99.539062 102.860840 98.878418 Q 102.860840 98.276855 102.546631 97.959961 Q 102.232422 97.643066 101.453613 97.471191 L 100.873535 97.336914 Q 99.756348 97.084473 99.251465 96.574219 Q 98.746582 96.063965 98.746582 95.204590 Q 98.746582 94.130371 99.468994 93.483154 Q 100.191406 92.835938 101.389160 92.835938 Q 101.851074 92.835938 102.361328 92.940674 Q 102.871582 93.045410 103.435547 93.254883 Z " fill="black" fill-opacity="1.000000"/>
<path d="M 107.341797 100.108398 Q 108.711426 100.108398 109.253906 99.434326 Q 109.796387 98.760254 109.796387 96.998535 Q 109.796387 95.220703 109.256592 94.546631 Q 108.716797 93.872559 107.341797 93.872559 L 106.826172 93.872559 L 106.826172 100.108398 Z M 107.363281 92.980957 Q 109.200195 92.980957 110.070312 93.958496 Q 110.940430 94.936035 110.940430 96.998535 Q 110.940430 99.050293 110.070312 100.025146 Q 109.200195 101.000000 107.363281 101.000000 L 105.735840 101.000000 L 105.735840 92.980957 Z " fill="black" fill-opacity="1.000000"/>
<path d="M 112.547852 97.111328 L 118.241211 97.111328 L 118.241211 98.019043 L 112.547852 98.019043 Z " fill="black" fill-opacity="1.000000"/>
<path d="M 122.308594 93.937012 L 121.164551 98.040527 L 123.452637 98.040527 Z M 121.653320 92.980957 L 122.969238 92.980957 L 125.423828 101.000000 L 124.301270 101.000000 L 123.710449 98.910645 L 120.901367 98.910645 L 120.321289 101.000000 L 119.198730 101.000000 Z " fill="black" fill-opacity="1.000000"/>
<path d="M 131.435547 93.254883 L 131.435547 94.355957 Q 130.941406 94.039062 130.444580 93.877930 Q 129.947754 93.716797 129.442871 93.716797 Q 128.674805 93.716797 128.229004 94.073975 Q 127.783203 94.431152 127.783203 95.038086 Q 127.783203 95.569824 128.075928 95.849121 Q 128.368652 96.128418 129.168945 96.316406 L 129.738281 96.445312 Q 130.866211 96.708496 131.381836 97.272461 Q 131.897461 97.836426 131.897461 98.808594 Q 131.897461 99.952637 131.188477 100.554199 Q 130.479492 101.155762 129.125977 101.155762 Q 128.562012 101.155762 127.992676 101.034912 Q 127.423340 100.914062 126.848633 100.672363 L 126.848633 99.517578 Q 127.466309 99.909668 128.016846 100.092285 Q 128.567383 100.274902 129.125977 100.274902 Q 129.947754 100.274902 130.404297 99.906982 Q 130.860840 99.539062 130.860840 98.878418 Q 130.860840 98.276855 130.546631 97.959961 Q 130.232422 97.643066 129.453613 97.471191 L 128.873535 97.336914 Q 127.756348 97.084473 127.251465 96.574219 Q 126.746582 96.063965 126.746582 95.204590 Q 126.746582 94.130371 127.468994 93.483154 Q 128.191406 92.835938 129.389160 92.835938 Q 129.851074 92.835938 130.361328 92.940674 Q 130.871582 93.045410 131.435547 93.254883 Z " fill="black" fill-opacity="1.000000"/>
<path d="M 135.878906 104.319336 L 135.878906 90.300781 L 136.738281 90.300781 L 136.738281 104.319336 Z " fill="black" fill-opacity="1.000000"/>
<path d="M 140.735840 92.980957 L 141.826172 92.980957 L 141.826172 96.053223 L 144.796387 96.053223 L 144.796387 92.980957 L 145.886719 92.980957 L 145.886719 101.000000 L 144.796387 101.000000 L 144.796387 96.966309 L 141.826172 96.966309 L 141.826172 101.000000 L 140.735840 101.000000 Z " fill="black" fill-opacity="1.000000"/>
<path d="M 150.308594 95.677246 Q 149.556641 95.677246 149.169922 96.262695 Q 148.783203 96.848145 148.783203 97.997559 Q 148.783203 99.141602 149.169922 99.729736 Q 149.556641 100.317871 150.308594 100.317871 Q 151.065918 100.317871 151.452637 99.729736 Q 151.839355 99.141602 151.839355 97.997559 Q 151.839355 96.848145 151.452637 96.262695 Q 151.065918 95.677246 150.308594 95.677246 Z M 150.308594 94.839355 Q 151.560059 94.839355 152.223389 95.650391 Q 152.886719 96.461426 152.886719 97.997559 Q 152.886719 99.539062 152.226074 100.347412 Q 151.565430 101.155762 150.308594 101.155762 Q 149.057129 101.155762 148.396484 100.347412 Q 147.735840 99.539062 147.735840 97.997559 Q 147.735840 96.461426 148.396484 95.650391 Q 149.057129 94.839355 150.308594 94.839355 Z " fill="black" fill-opacity="1.000000"/>
<path d="M 156.014160 100.242676 L 156.014160 103.288086 L 155.020508 103.288086 L 155.020508 94.984375 L 156.014160 94.984375 L 156.014160 95.752441 Q 156.261230 95.306641 156.672119 95.072998 Q 157.083008 94.839355 157.620117 94.839355 Q 158.710449 94.839355 159.330811 95.682617 Q 159.951172 96.525879 159.951172 98.019043 Q 159.951172 99.485352 159.328125 100.320557 Q 158.705078 101.155762 157.620117 101.155762 Q 157.072266 101.155762 156.661377 100.922119 Q 156.250488 100.688477 156.014160 100.242676 Z M 158.914551 97.997559 Q 158.914551 96.848145 158.552002 96.262695 Q 158.189453 95.677246 157.475098 95.677246 Q 156.755371 95.677246 156.384766 96.265381 Q 156.014160 96.853516 156.014160 97.997559 Q 156.014160 99.136230 156.384766 99.727051 Q 156.755371 100.317871 157.475098 100.317871 Q 158.189453 100.317871 158.552002 99.732422 Q 158.914551 99.146973 158.914551 97.997559 Z " fill="black" fill-opacity="1.000000"/>
<path d="M 169.058105 92.980957 L 173.816895 92.980957 L 173.816895 93.894043 L 170.143066 93.894043 L 170.143066 96.053223 L 173.655762 96.053223 L 173.655762 96.966309 L 170.143066 96.966309 L 170.143066 100.086914 L 173.918945 100.086914 L 173.918945 101.000000 L 169.058105 101.000000 Z " fill="black" fill-opacity="1.000000"/>
<path d="M 180.645020 97.272461 L 180.645020 101.000000 L 179.651367 101.000000 L 179.651367 97.272461 Q 179.651367 96.461426 179.366699 96.080078 Q 179.082031 95.698730 178.475098 95.698730 Q 177.782227 95.698730 177.408936 96.190186 Q 177.035645 96.681641 177.035645 97.600098 L 177.035645 101.000000 L 176.047363 101.000000 L 176.047363 94.984375 L 177.035645 94.984375 L 177.035645 95.886719 Q 177.298828 95.371094 177.750000 95.105225 Q 178.201172 94.839355 178.818848 94.839355 Q 179.737305 94.839355 180.191162 95.443604 Q 180.645020 96.047852 180.645020 97.272461 Z " fill="black" fill-opacity="1.000000"/>
<path d="M 185.297852 93.276367 L 185.297852 94.984375 L 187.542969 94.984375 L 187.542969 95.752441 L 185.297852 95.752441 L 185.297852 99.018066 Q 185.297852 99.684082 185.550293 99.947266 Q 185.802734 100.210449 186.431152 100.210449 L 187.542969 100.210449 L 187.542969 101.000000 L 186.334473 101.000000 Q 185.222656 101.000000 184.766113 100.554199 Q 184.309570 100.108398 184.309570 99.018066 L 184.309570 95.752441 L 182.703613 95.752441 L 182.703613 94.984375 L 184.309570 94.984375 L 184.309570 93.276367 Z " fill="black" fill-opacity="1.000000"/>
<path d="M 195.203613 96.225098 Q 194.886719 95.978027 194.559082 95.865234 Q 194.231445 95.752441 193.839355 95.752441 Q 192.915527 95.752441 192.426758 96.332520 Q 191.937988 96.912598 191.937988 98.008301 L 191.937988 101.000000 L 190.944336 101.000000 L 190.944336 94.984375 L 191.937988 94.984375 L 191.937988 96.160645 Q 192.185059 95.521484 192.697998 95.180420 Q 193.210938 94.839355 193.914551 94.839355 Q 194.279785 94.839355 194.596680 94.930664 Q 194.913574 95.021973 195.203613 95.215332 Z " fill="black" fill-opacity="1.000000"/>
<path d="M 200.608398 99.066406 Q 200.361328 99.694824 199.979980 100.720703 Q 199.448242 102.138672 199.265625 102.450195 Q 199.018555 102.869141 198.647949 103.078613 Q 198.277344 103.288086 197.783203 103.288086 L 196.988281 103.288086 L 196.988281 102.460938 L 197.573730 102.460938 Q 198.008789 102.460938 198.255859 102.208496 Q 198.502930 101.956055 198.884277 100.903320 L 196.558594 94.984375 L 197.605957 94.984375 L 199.389160 99.689453 L 201.145508 94.984375 L 202.192871 94.984375 Z " fill="black" fill-opacity="1.000000"/>
<path d="M 205.878906 104.319336 L 205.878906 90.300781 L 206.738281 90.300781 L 206.738281 104.319336 Z " fill="black" fill-opacity="1.000000"/>
<path d="M 212.143066 93.872559 L 212.143066 96.885742 L 213.399902 96.885742 Q 214.151855 96.885742 214.573486 96.488281 Q 214.995117 96.090820 214.995117 95.376465 Q 214.995117 94.662109 214.576172 94.267334 Q 214.157227 93.872559 213.399902 93.872559 Z M 211.058105 92.980957 L 213.399902 92.980957 Q 214.742676 92.980957 215.435547 93.590576 Q 216.128418 94.200195 216.128418 95.376465 Q 216.128418 96.563477 215.438232 97.170410 Q 214.748047 97.777344 213.399902 97.777344 L 212.143066 97.777344 L 212.143066 101.000000 L 211.058105 101.000000 Z " fill="black" fill-opacity="1.000000"/>
<path d="M 223.015625 97.498047 L 223.015625 97.981445 L 218.734863 97.981445 L 218.734863 98.013672 Q 218.691895 99.243652 219.204834 99.780762 Q 219.717773 100.317871 220.652344 100.317871 Q 221.125000 100.317871 221.640625 100.167480 Q 222.156250 100.017090 222.741699 99.710938 L 222.741699 100.693848 Q 222.177734 100.924805 221.654053 101.040283 Q 221.130371 101.155762 220.641602 101.155762 Q 219.239746 101.155762 218.450195 100.315186 Q 217.660645 99.474609 217.660645 97.997559 Q 217.660645 96.558105 218.434082 95.698730 Q 219.207520 94.839355 220.496582 94.839355 Q 221.645996 94.839355 222.309326 95.618164 Q 222.972656 96.396973 223.015625 97.498047 Z M 222.027344 97.208008 Q 221.962891 96.584961 221.573486 96.131104 Q 221.184082 95.677246 220.453613 95.677246 Q 219.739258 95.677246 219.277344 96.149902 Q 218.815430 96.622559 218.772461 97.213379 Z " fill="black" fill-opacity="1.000000"/>
<path d="M 230.015625 97.498047 L 230.015625 97.981445 L 225.734863 97.981445 L 225.734863 98.013672 Q 225.691895 99.243652 226.204834 99.780762 Q 226.717773 100.317871 227.652344 100.317871 Q 228.125000 100.317871 228.640625 100.167480 Q 229.156250 100.017090 229.741699 99.710938 L 229.741699 100.693848 Q 229.177734 100.924805 228.654053 101.040283 Q 228.130371 101.155762 227.641602 101.155762 Q 226.239746 101.155762 225.450195 100.315186 Q 224.660645 99.474609 224.660645 97.997559 Q 224.660645 96.558105 225.434082 95.698730 Q 226.207520 94.839355 227.496582 94.839355 Q 228.645996 94.839355 229.309326 95.618164 Q 229.972656 96.396973 230.015625 97.498047 Z M 229.027344 97.208008 Q 228.962891 96.584961 228.573486 96.131104 Q 228.184082 95.677246 227.453613 95.677246 Q 226.739258 95.677246 226.277344 96.149902 Q 225.815430 96.622559 225.772461 97.213379 Z " fill="black" fill-opacity="1.000000"/>
<path d="M 237.203613 96.225098 Q 236.886719 95.978027 236.559082 95.865234 Q 236.231445 95.752441 235.839355 95.752441 Q 234.915527 95.752441 234.426758 96.332520 Q 233.937988 96.912598 233.937988 98.008301 L 233.937988 101.000000 L 232.944336 101.000000 L 232.944336 94.984375 L 233.937988 94.984375 L 233.937988 96.160645 Q 234.185059 95.521484 234.697998 95.180420 Q 235.210938 94.839355 235.914551 94.839355 Q 236.279785 94.839355 236.596680 94.930664 Q 236.913574 95.021973 237.203613 95.215332 Z " fill="black" fill-opacity="1.000000"/>
<path d="M 246.058105 92.980957 L 250.816895 92.980957 L 250.816895 93.894043 L 247.143066 93.894043 L 247.143066 96.053223 L 250.655762 96.053223 L 250.655762 96.966309 L 247.143066 96.966309 L 247.143066 100.086914 L 250.918945 100.086914 L 250.918945 101.000000 L 246.058105 101.000000 Z " fill="black" fill-opacity="1.000000"/>
<path d="M 257.645020 97.272461 L 257.645020 101.000000 L 256.651367 101.000000 L 256.651367 97.272461 Q 256.651367 96.461426 256.366699 96.080078 Q 256.082031 95.698730 255.475098 95.698730 Q 254.782227 95.698730 254.408936 96.190186 Q 254.035645 96.681641 254.035645 97.600098 L 254.035645 101.000000 L 253.047363 101.000000 L 253.047363 94.984375 L 254.035645 94.984375 L 254.035645 95.886719 Q 254.298828 95.371094 254.750000 95.105225 Q 255.201172 94.839355 255.818848 94.839355 Q 256.737305 94.839355 257.191162 95.443604 Q 257.645020 96.047852 257.645020 97.272461 Z " fill="black" fill-opacity="1.000000"/>
<path d="M 262.297852 93.276367 L 262.297852 94.984375 L 264.542969 94.984375 L 264.542969 95.752441 L 262.297852 95.752441 L 262.297852 99.018066 Q 262.297852 99.684082 262.550293 99.947266 Q 262.802734 100.210449 263.431152 100.210449 L 264.542969 100.210449 L 264.542969 101.000000 L 263.334473 101.000000 Q 262.222656 101.000000 261.766113 100.554199 Q 261.309570 100.108398 261.309570 99.018066 L 261.309570 95.752441 L 259.703613 95.752441 L 259.703613 94.984375 L 261.309570 94.984375 L 261.309570 93.276367 Z " fill="black" fill-opacity="1.000000"/>
<path d="M 272.203613 96.225098 Q 271.886719 95.978027 271.559082 95.865234 Q 271.231445 95.752441 270.839355 95.752441 Q 269.915527 95.752441 269.426758 96.332520 Q 268.937988 96.912598 268.937988 98.008301 L 268.937988 101.000000 L 267.944336 101.000000 L 267.944336 94.984375 L 268.937988 94.984375 L 268.937988 96.160645 Q 269.185059 95.521484 269.697998 95.180420 Q 270.210938 94.839355 270.914551 94.839355 Q 271.279785 94.839355 271.596680 94.930664 Q 271.913574 95.021973 272.203613 95.215332 Z " fill="black" fill-opacity="1.000000"/>
<path d="M 277.608398 99.066406 Q 277.361328 99.694824 276.979980 100.720703 Q 276.448242 102.138672 276.265625 102.450195 Q 276.018555 102.869141 275.647949 103.078613 Q 275.277344 103.288086 274.783203 103.288086 L 273.988281 103.288086 L 273.988281 102.460938 L 274.573730 102.460938 Q 275.008789 102.460938 275.255859 102.208496 Q 275.502930 101.956055 275.884277 100.903320 L 273.558594 94.984375 L 274.605957 94.984375 L 276.389160 99.689453 L 278.145508 94.984375 L 279.192871 94.984375 Z " fill="black" fill-opacity="1.000000"/>
<path d="M 290.308594 92.862793 Q 291.592285 92.862793 292.250244 93.910156 Q 292.908203 94.957520 292.908203 97.009277 Q 292.908203 99.061035 292.250244 100.108398 Q 291.592285 101.155762 290.308594 101.155762 Q 289.024902 101.155762 288.369629 100.108398 Q 287.714355 99.061035 287.714355 97.009277 Q 287.714355 94.957520 288.369629 93.910156 Q 289.024902 92.862793 290.308594 92.862793 Z M 290.308594 100.296387 Q 291.071289 100.296387 291.444580 99.485352 Q 291.817871 98.674316 291.817871 97.009277 Q 291.817871 96.123047 291.710449 95.408691 L 289.153809 99.410156 Q 289.556641 100.296387 290.308594 100.296387 Z M 290.308594 93.722168 Q 289.551270 93.722168 289.177979 94.533203 Q 288.804688 95.344238 288.804688 97.009277 Q 288.804688 97.766602 288.906738 98.427246 L 291.409668 94.436523 Q 291.001465 93.722168 290.308594 93.722168 Z " fill="black" fill-opacity="1.000000"/>
<path d="M 304.985352 92.594238 L 304.985352 103.594238 L 304.061523 103.594238 L 304.061523 92.594238 Z " fill="black" fill-opacity="1.000000"/>
<path d="M 310.089355 98.830078 L 311.979980 98.830078 L 311.979980 101.000000 L 310.089355 101.000000 Z " fill="black" fill-opacity="1.000000"/>
<path d="M 317.089355 98.830078 L 318.979980 98.830078 L 318.979980 101.000000 L 317.089355 101.000000 Z " fill="black" fill-opacity="1.000000"/>
<path d="M 324.089355 98.830078 L 325.979980 98.830078 L 325.979980 101.000000 L 324.089355 101.000000 Z " fill="black" fill-opacity="1.000000"/>
<path d="M 332.985352 92.594238 L 332.985352 103.594238 L 332.061523 103.594238 L 332.061523 92.594238 Z " fill="black" fill-opacity="1.000000"/>
<path d="M 338.143066 93.872559 L 338.143066 96.885742 L 339.399902 96.885742 Q 340.151855 96.885742 340.573486 96.488281 Q 340.995117 96.090820 340.995117 95.376465 Q 340.995117 94.662109 340.576172 94.267334 Q 340.157227 93.872559 339.399902 93.872559 Z M 337.058105 92.980957 L 339.399902 92.980957 Q 340.742676 92.980957 341.435547 93.590576 Q 342.128418 94.200195 342.128418 95.376465 Q 342.128418 96.563477 341.438232 97.170410 Q 340.748047 97.777344 339.399902 97.777344 L 338.143066 97.777344 L 338.143066 101.000000 L 337.058105 101.000000 Z " fill="black" fill-opacity="1.000000"/>
<path d="M 349.015625 97.498047 L 349.015625 97.981445 L 344.734863 97.981445 L 344.734863 98.013672 Q 344.691895 99.243652 345.204834 99.780762 Q 345.717773 100.317871 346.652344 100.317871 Q 347.125000 100.317871 347.640625 100.167480 Q 348.156250 100.017090 348.741699 99.710938 L 348.741699 100.693848 Q 348.177734 100.924805 347.654053 101.040283 Q 347.130371 101.155762 346.641602 101.155762 Q 345.239746 101.155762 344.450195 100.315186 Q 343.660645 99.474609 343.660645 97.997559 Q 343.660645 96.558105 344.434082 95.698730 Q 345.207520 94.839355 346.496582 94.839355 Q 347.645996 94.839355 348.309326 95.618164 Q 348.972656 96.396973 349.015625 97.498047 Z M 348.027344 97.208008 Q 347.962891 96.584961 347.573486 96.131104 Q 347.184082 95.677246 346.453613 95.677246 Q 345.739258 95.677246 345.277344 96.149902 Q 344.815430 96.622559 344.772461 97.213379 Z " fill="black" fill-opacity="1.000000"/>
<path d="M 356.015625 97.498047 L 356.015625 97.981445 L 351.734863 97.981445 L 351.734863 98.013672 Q 351.691895 99.243652 352.204834 99.780762 Q 352.717773 100.317871 353.652344 100.317871 Q 354.125000 100.317871 354.640625 100.167480 Q 355.156250 100.017090 355.741699 99.710938 L 355.741699 100.693848 Q 355.177734 100.924805 354.654053 101.040283 Q 354.130371 101.155762 353.641602 101.155762 Q 352.239746 101.155762 351.450195 100.315186 Q 350.660645 99.474609 350.660645 97.997559 Q 350.660645 96.558105 351.434082 95.698730 Q 352.207520 94.839355 353.496582 94.839355 Q 354.645996 94.839355 355.309326 95.618164 Q 355.972656 96.396973 356.015625 97.498047 Z M 355.027344 97.208008 Q 354.962891 96.584961 354.573486 96.131104 Q 354.184082 95.677246 353.453613 95.677246 Q 352.739258 95.677246 352.277344 96.149902 Q 351.815430 96.622559 351.772461 97.213379 Z " fill="black" fill-opacity="1.000000"/>
<path d="M 363.203613 96.225098 Q 362.886719 95.978027 362.559082 95.865234 Q 362.231445 95.752441 361.839355 95.752441 Q 360.915527 95.752441 360.426758 96.332520 Q 359.937988 96.912598 359.937988 98.008301 L 359.937988 101.000000 L 358.944336 101.000000 L 358.944336 94.984375 L 359.937988 94.984375 L 359.937988 96.160645 Q 360.185059 95.521484 360.697998 95.180420 Q 361.210938 94.839355 361.914551 94.839355 Q 362.279785 94.839355 362.596680 94.930664 Q 362.913574 95.021973 363.203613 95.215332 Z " fill="black" fill-opacity="1.000000"/>
<path d="M 372.058105 92.980957 L 376.816895 92.980957 L 376.816895 93.894043 L 373.143066 93.894043 L 373.143066 96.053223 L 376.655762 96.053223 L 376.655762 96.966309 L 373.143066 96.966309 L 373.143066 100.086914 L 376.918945 100.086914 L 376.918945 101.000000 L 372.058105 101.000000 Z " fill="black" fill-opacity="1.000000"/>
<path d="M 383.645020 97.272461 L 383.645020 101.000000 L 382.651367 101.000000 L 382.651367 97.272461 Q 382.651367 96.461426 382.366699 96.080078 Q 382.082031 95.698730 381.475098 95.698730 Q 380.782227 95.698730 380.408936 96.190186 Q 380.035645 96.681641 380.035645 97.600098 L 380.035645 101.000000 L 379.047363 101.000000 L 379.047363 94.984375 L 380.035645 94.984375 L 380.035645 95.886719 Q 380.298828 95.371094 380.750000 95.105225 Q 381.201172 94.839355 381.818848 94.839355 Q 382.737305 94.839355 383.191162 95.443604 Q 383.645020 96.047852 383.645020 97.272461 Z " fill="black" fill-opacity="1.000000"/>
<path d="M 388.297852 93.276367 L 388.297852 94.984375 L 390.542969 94.984375 L 390.542969 95.752441 L 388.297852 95.752441 L 388.297852 99.018066 Q 388.297852 99.684082 388.550293 99.947266 Q 388.802734 100.210449 389.431152 100.210449 L 390.542969 100.210449 L 390.542969 101.000000 L 389.334473 101.000000 Q 388.222656 101.000000 387.766113 100.554199 Q 387.309570 100.108398 387.309570 99.018066 L 387.309570 95.752441 L 385.703613 95.752441 L 385.703613 94.984375 L 387.309570 94.984375 L 387.309570 93.276367 Z " fill="black" fill-opacity="1.000000"/>
<path d="M 398.203613 96.225098 Q 397.886719 95.978027 397.559082 95.865234 Q 397.231445 95.752441 396.839355 95.752441 Q 395.915527 95.752441 395.426758 96.332520 Q 394.937988 96.912598 394.937988 98.008301 L 394.937988 101.000000 L 393.944336 101.000000 L 393.944336 94.984375 L 394.937988 94.984375 L 394.937988 96.160645 Q 395.185059 95.521484 395.697998 95.180420 Q 396.210938 94.839355 396.914551 94.839355 Q 397.279785 94.839355 397.596680 94.930664 Q 397.913574 95.021973 398.203613 95.215332 Z " fill="black" fill-opacity="1.000000"/>
<path d="M 403.608398 99.066406 Q 403.361328 99.694824 402.979980 100.720703 Q 402.448242 102.138672 402.265625 102.450195 Q 402.018555 102.869141 401.647949 103.078613 Q 401.277344 103.288086 400.783203 103.288086 L 399.988281 103.288086 L 399.988281 102.460938 L 400.573730 102.460938 Q 401.008789 102.460938 401.255859 102.208496 Q 401.502930 101.956055 401.884277 100.903320 L 399.558594 94.984375 L 400.605957 94.984375 L 402.389160 99.689453 L 404.145508 94.984375 L 405.192871 94.984375 Z " fill="black" fill-opacity="1.000000"/>
<path d="M 413.102051 93.007812 L 414.584473 93.007812 L 417.721191 99.587402 L 417.721191 93.007812 L 418.875977 93.007812 L 418.875977 101.000000 L 417.393555 101.000000 L 414.256836 94.420410 L 414.256836 101.000000 L 413.102051 101.000000 Z " fill="black" fill-opacity="1.000000"/>
<path d="M 429.878906 104.319336 L 429.878906 90.300781 L 430.738281 90.300781 L 430.738281 104.319336 Z " fill="black" fill-opacity="1.000000"/>
<path d="M 434.193359 93.007812 L 435.643555 93.007812 L 437.029297 97.079102 L 438.425781 93.007812 L 439.881348 93.007812 L 439.881348 101.000000 L 438.876953 101.000000 L 438.876953 93.937012 L 437.448242 98.147949 L 436.626465 98.147949 L 435.192383 93.937012 L 435.192383 101.000000 L 434.193359 101.000000 Z " fill="black" fill-opacity="1.000000"/>
<path d="M 441.252441 92.980957 L 447.370117 92.980957 L 447.370117 93.894043 L 444.861816 93.894043 L 444.861816 101.000000 L 443.771484 101.000000 L 443.771484 93.894043 L 441.252441 93.894043 Z " fill="black" fill-opacity="1.000000"/>
<path d="M 448.789551 97.922363 L 448.789551 92.980957 L 449.879883 92.980957 L 449.879883 98.416504 Q 449.879883 99.001953 449.912109 99.251709 Q 449.944336 99.501465 450.024902 99.635742 Q 450.196777 99.952637 450.521729 100.113770 Q 450.846680 100.274902 451.308594 100.274902 Q 451.775879 100.274902 452.098145 100.113770 Q 452.420410 99.952637 452.597656 99.635742 Q 452.678223 99.501465 452.710449 99.254395 Q 452.742676 99.007324 452.742676 98.427246 L 452.742676 92.980957 L 453.827637 92.980957 L 453.827637 97.922363 Q 453.827637 99.152344 453.674561 99.670654 Q 453.521484 100.188965 453.145508 100.527344 Q 452.791016 100.844238 452.334473 101.000000 Q 451.877930 101.155762 451.308594 101.155762 Q 450.744629 101.155762 450.288086 101.000000 Q 449.831543 100.844238 449.471680 100.527344 Q 449.101074 100.194336 448.945312 99.665283 Q 448.789551 99.136230 448.789551 97.922363 Z " fill="black" fill-opacity="1.000000"/>
<path d="M 457.878906 104.319336 L 457.878906 90.300781 L 458.738281 90.300781 L 458.738281 104.319336 Z " fill="black" fill-opacity="1.000000"/>
<path d="M 463.058105 92.980957 L 467.816895 92.980957 L 467.816895 93.894043 L 464.143066 93.894043 L 464.143066 96.053223 L 467.655762 96.053223 L 467.655762 96.966309 L 464.143066 96.966309 L 464.143066 100.086914 L 467.918945 100.086914 L 467.918945 101.000000 L 463.058105 101.000000 Z " fill="black" fill-opacity="1.000000"/>
<path d="M 475.004883 94.984375 L 472.851074 97.863281 L 475.214355 101.000000 L 474.070312 101.000000 L 472.308594 98.588379 L 470.552246 101.000000 L 469.408203 101.000000 L 471.771484 97.863281 L 469.617676 94.984375 L 470.713379 94.984375 L 472.308594 97.159668 L 473.893066 94.984375 Z " fill="black" fill-opacity="1.000000"/>
<path d="M 479.297852 93.276367 L 479.297852 94.984375 L 481.542969 94.984375 L 481.542969 95.752441 L 479.297852 95.752441 L 479.297852 99.018066 Q 479.297852 99.684082 479.550293 99.947266 Q 479.802734 100.210449 480.431152 100.210449 L 481.542969 100.210449 L 481.542969 101.000000 L 480.334473 101.000000 Q 479.222656 101.000000 478.766113 100.554199 Q 478.309570 100.108398 478.309570 99.018066 L 478.309570 95.752441 L 476.703613 95.752441 L 476.703613 94.984375 L 478.309570 94.984375 L 478.309570 93.276367 Z " fill="black" fill-opacity="1.000000"/>
<path d="M 485.089355 98.830078 L 486.979980 98.830078 L 486.979980 101.000000 L 485.089355 101.000000 Z " fill="black" fill-opacity="1.000000"/>
<path d="M 492.878906 104.319336 L 492.878906 90.300781 L 493.738281 90.300781 L 493.738281 104.319336 Z " fill="black" fill-opacity="1.000000"/>
<path d="M 6.892578 72.335938 L 6.892578 71.412109 L 13.729980 71.412109 L 13.729980 72.335938 Z " fill="black" fill-opacity="1.000000"/>
<path d="M 13.892578 72.335938 L 13.892578 71.412109 L 20.729980 71.412109 L 20.729980 72.335938 Z " fill="black" fill-opacity="1.000000"/>
<path d="M 20.892578 72.335938 L 20.892578 71.412109 L 27.729980 71.412109 L 27.729980 72.335938 Z " fill="black" fill-opacity="1.000000"/>
<path d="M 27.892578 72.335938 L 27.892578 71.412109 L 34.729980 71.412109 L 34.729980 72.335938 Z " fill="black" fill-opacity="1.000000"/>
<path d="M 34.892578 72.335938 L 34.892578 71.412109 L 41.729980 71.412109 L 41.729980 72.335938 Z " fill="black" fill-opacity="1.000000"/>
<path d="M 41.892578 72.335938 L 41.892578 71.412109 L 48.729980 71.412109 L 48.729980 72.335938 Z " fill="black" fill-opacity="1.000000"/>
<path d="M 48.892578 72.335938 L 48.892578 71.412109 L 55.729980 71.412109 L 55.729980 72.335938 Z " fill="black" fill-opacity="1.000000"/>
<path d="M 55.892578 72.335938 L 55.892578 71.412109 L 62.729980 71.412109 L 62.729980 72.335938 Z " fill="black" fill-opacity="1.000000"/>
<path d="M 62.892578 72.335938 L 62.892578 71.412109 L 69.729980 71.412109 L 69.729980 72.335938 Z " fill="black" fill-opacity="1.000000"/>
<path d="M 69.892578 72.335938 L 69.892578 71.412109 L 76.729980 71.412109 L 76.729980 72.335938 Z " fill="black" fill-opacity="1.000000"/>
<path d="M 76.892578 72.335938 L 76.892578 71.412109 L 83.729980 71.412109 L 83.729980 72.335938 Z " fill="black" fill-opacity="1.000000"/>
<path d="M 83.892578 72.335938 L 83.892578 71.412109 L 90.729980 71.412109 L 90.729980 72.335938 Z " fill="black" fill-opacity="1.000000"/>
<path d="M 90.892578 72.335938 L 90.892578 71.412109 L 97.729980 71.412109 L 97.729980 72.335938 Z " fill="black" fill-opacity="1.000000"/>
<path d="M 97.892578 72.335938 L 97.892578 71.412109 L 104.729980 71.412109 L 104.729980 72.335938 Z " fill="black" fill-opacity="1.000000"/>
<path d="M 104.892578 72.335938 L 104.892578 71.412109 L 111.729980 71.412109 L 111.729980 72.335938 Z " fill="black" fill-opacity="1.000000"/>
<path d="M 111.892578 72.335938 L 111.892578 71.412109 L 118.729980 71.412109 L 118.729980 72.335938 Z " fill="black" fill-opacity="1.000000"/>
<path d="M 118.892578 72.335938 L 118.892578 71.412109 L 125.729980 71.412109 L 125.729980 72.335938 Z " fill="black" fill-opacity="1.000000"/>
<path d="M 125.892578 72.335938 L 125.892578 71.412109 L 132.729980 71.412109 L 132.729980 72.335938 Z " fill="black" fill-opacity="1.000000"/>
<path d="M 132.892578 72.335938 L 132.892578 71.412109 L 139.729980 71.412109 L 139.729980 72.335938 Z " fill="black" fill-opacity="1.000000"/>
<path d="M 139.892578 72.335938 L 139.892578 71.412109 L 146.729980 71.412109 L 146.729980 72.335938 Z " fill="black" fill-opacity="1.000000"/>
<path d="M 146.892578 72.335938 L 146.892578 71.412109 L 153.729980 71.412109 L 153.729980 72.335938 Z " fill="black" fill-opacity="1.000000"/>
<path d="M 153.892578 72.335938 L 153.892578 71.412109 L 160.729980 71.412109 L 160.729980 72.335938 Z " fill="black" fill-opacity="1.000000"/>
<path d="M 160.892578 72.335938 L 160.892578 71.412109 L 167.729980 71.412109 L 167.729980 72.335938 Z " fill="black" fill-opacity="1.000000"/>
<path d="M 167.892578 72.335938 L 167.892578 71.412109 L 174.729980 71.412109 L 174.729980 72.335938 Z " fill="black" fill-opacity="1.000000"/>
<path d="M 174.892578 72.335938 L 174.892578 71.412109 L 181.729980 71.412109 L 181.729980 72.335938 Z " fill="black" fill-opacity="1.000000"/>
<path d="M 181.892578 72.335938 L 181.892578 71.412109 L 188.729980 71.412109 L 188.729980 72.335938 Z " fill="black" fill-opacity="1.000000"/>
<path d="M 188.892578 72.335938 L 188.892578 71.412109 L 195.729980 71.412109 L 195.729980 72.335938 Z " fill="black" fill-opacity="1.000000"/>
<path d="M 195.892578 72.335938 L 195.892578 71.412109 L 202.729980 71.412109 L 202.729980 72.335938 Z " fill="black" fill-opacity="1.000000"/>
<path d="M 202.892578 72.335938 L 202.892578 71.412109 L 209.729980 71.412109 L 209.729980 72.335938 Z " fill="black" fill-opacity="1.000000"/>
<path d="M 209.892578 72.335938 L 209.892578 71.412109 L 216.729980 71.412109 L 216.729980 72.335938 Z " fill="black" fill-opacity="1.000000"/>
<path d="M 216.892578 72.335938 L 216.892578 71.412109 L 223.729980 71.412109 L 223.729980 72.335938 Z " fill="black" fill-opacity="1.000000"/>
<path d="M 223.892578 72.335938 L 223.892578 71.412109 L 230.729980 71.412109 L 230.729980 72.335938 Z " fill="black" fill-opacity="1.000000"/>
<path d="M 230.892578 72.335938 L 230.892578 71.412109 L 237.729980 71.412109 L 237.729980 72.335938 Z " fill="black" fill-opacity="1.000000"/>
<path d="M 237.892578 72.335938 L 237.892578 71.412109 L 244.729980 71.412109 L 244.729980 72.335938 Z " fill="black" fill-opacity="1.000000"/>
<path d="M 244.892578 72.335938 L 244.892578 71.412109 L 251.729980 71.412109 L 251.729980 72.335938 Z " fill="black" fill-opacity="1.000000"/>
<path d="M 251.892578 72.335938 L 251.892578 71.412109 L 258.729980 71.412109 L 258.729980 72.335938 Z " fill="black" fill-opacity="1.000000"/>
<path d="M 258.892578 72.335938 L 258.892578 71.412109 L 265.729980 71.412109 L 265.729980 72.335938 Z " fill="black" fill-opacity="1.000000"/>
<path d="M 265.892578 72.335938 L 265.892578 71.412109 L 272.729980 71.412109 L 272.729980 72.335938 Z " fill="black" fill-opacity="1.000000"/>
<path d="M 272.892578 72.335938 L 272.892578 71.412109 L 279.729980 71.412109 L 279.729980 72.335938 Z " fill="black" fill-opacity="1.000000"/>
<path d="M 279.892578 72.335938 L 279.892578 71.412109 L 286.729980 71.412109 L 286.729980 72.335938 Z " fill="black" fill-opacity="1.000000"/>
<path d="M 286.892578 72.335938 L 286.892578 71.412109 L 293.729980 71.412109 L 293.729980 72.335938 Z " fill="black" fill-opacity="1.000000"/>
<path d="M 293.892578 72.335938 L 293.892578 71.412109 L 300.729980 71.412109 L 300.729980 72.335938 Z " fill="black" fill-opacity="1.000000"/>
<path d="M 300.892578 72.335938 L 300.892578 71.412109 L 307.729980 71.412109 L 307.729980 72.335938 Z " fill="black" fill-opacity="1.000000"/>
<path d="M 307.892578 72.335938 L 307.892578 71.412109 L 314.729980 71.412109 L 314.729980 72.335938 Z " fill="black" fill-opacity="1.000000"/>
<path d="M 314.892578 72.335938 L 314.892578 71.412109 L 321.729980 71.412109 L 321.729980 72.335938 Z " fill="black" fill-opacity="1.000000"/>
<path d="M 321.892578 72.335938 L 321.892578 71.412109 L 328.729980 71.412109 L 328.729980 72.335938 Z " fill="black" fill-opacity="1.000000"/>
<path d="M 328.892578 72.335938 L 328.892578 71.412109 L 335.729980 71.412109 L 335.729980 72.335938 Z " fill="black" fill-opacity="1.000000"/>
<path d="M 335.892578 72.335938 L 335.892578 71.412109 L 342.729980 71.412109 L 342.729980 72.335938 Z " fill="black" fill-opacity="1.000000"/>
<path d="M 342.892578 72.335938 L 342.892578 71.412109 L 349.729980 71.412109 L 349.729980 72.335938 Z " fill="black" fill-opacity="1.000000"/>
<path d="M 349.892578 72.335938 L 349.892578 71.412109 L 356.729980 71.412109 L 356.729980 72.335938 Z " fill="black" fill-opacity="1.000000"/>
<path d="M 356.892578 72.335938 L 356.892578 71.412109 L 363.729980 71.412109 L 363.729980 72.335938 Z " fill="black" fill-opacity="1.000000"/>
<path d="M 363.892578 72.335938 L 363.892578 71.412109 L 370.729980 71.412109 L 370.729980 72.335938 Z " fill="black" fill-opacity="1.000000"/>
<path d="M 370.892578 72.335938 L 370.892578 71.412109 L 377.729980 71.412109 L 377.729980 72.335938 Z " fill="black" fill-opacity="1.000000"/>
<path d="M 377.892578 72.335938 L 377.892578 71.412109 L 384.729980 71.412109 L 384.729980 72.335938 Z " fill="black" fill-opacity="1.000000"/>
<path d="M 384.892578 72.335938 L 384.892578 71.412109 L 391.729980 71.412109 L 391.729980 72.335938 Z " fill="black" fill-opacity="1.000000"/>
<path d="M 391.892578 72.335938 L 391.892578 71.412109 L 398.729980 71.412109 L 398.729980 72.335938 Z " fill="black" fill-opacity="1.000000"/>
<path d="M 398.892578 72.335938 L 398.892578 71.412109 L 405.729980 71.412109 L 405.729980 72.335938 Z " fill="black" fill-opacity="1.000000"/>
<path d="M 405.892578 72.335938 L 405.892578 71.412109 L 412.729980 71.412109 L 412.729980 72.335938 Z " fill="black" fill-opacity="1.000000"/>
<path d="M 412.892578 72.335938 L 412.892578 71.412109 L 419.729980 71.412109 L 419.729980 72.335938 Z " fill="black" fill-opacity="1.000000"/>
<path d="M 419.892578 72.335938 L 419.892578 71.412109 L 426.729980 71.412109 L 426.729980 72.335938 Z " fill="black" fill-opacity="1.000000"/>
<path d="M 426.892578 72.335938 L 426.892578 71.412109 L 433.729980 71.412109 L 433.729980 72.335938 Z " fill="black" fill-opacity="1.000000"/>
<path d="M 433.892578 72.335938 L 433.892578 71.412109 L 440.729980 71.412109 L 440.729980 72.335938 Z " fill="black" fill-opacity="1.000000"/>
<path d="M 440.892578 72.335938 L 440.892578 71.412109 L 447.729980 71.412109 L 447.729980 72.335938 Z " fill="black" fill-opacity="1.000000"/>
<path d="M 447.892578 72.335938 L 447.892578 71.412109 L 454.729980 71.412109 L 454.729980 72.335938 Z " fill="black" fill-opacity="1.000000"/>
<path d="M 454.892578 72.335938 L 454.892578 71.412109 L 461.729980 71.412109 L 461.729980 72.335938 Z " fill="black" fill-opacity="1.000000"/>
<path d="M 461.892578 72.335938 L 461.892578 71.412109 L 468.729980 71.412109 L 468.729980 72.335938 Z " fill="black" fill-opacity="1.000000"/>
<path d="M 468.892578 72.335938 L 468.892578 71.412109 L 475.729980 71.412109 L 475.729980 72.335938 Z " fill="black" fill-opacity="1.000000"/>
<path d="M 475.892578 72.335938 L 475.892578 71.412109 L 482.729980 71.412109 L 482.729980 72.335938 Z " fill="black" fill-opacity="1.000000"/>
<path d="M 482.892578 72.335938 L 482.892578 71.412109 L 489.729980 71.412109 L 489.729980 72.335938 Z " fill="black" fill-opacity="1.000000"/>
<path d="M 6.892578 85.335938 L 6.892578 84.412109 L 13.729980 84.412109 L 13.729980 85.335938 Z " fill="black" fill-opacity="1.000000"/>
<path d="M 13.892578 85.335938 L 13.892578 84.412109 L 20.729980 84.412109 L 20.729980 85.335938 Z " fill="black" fill-opacity="1.000000"/>
<path d="M 20.892578 85.335938 L 20.892578 84.412109 L 27.729980 84.412109 L 27.729980 85.335938 Z " fill="black" fill-opacity="1.000000"/>
<path d="M 27.892578 85.335938 L 27.892578 84.412109 L 34.729980 84.412109 L 34.729980 85.335938 Z " fill="black" fill-opacity="1.000000"/>
<path d="M 34.892578 85.335938 L 34.892578 84.412109 L 41.729980 84.412109 L 41.729980 85.335938 Z " fill="black" fill-opacity="1.000000"/>
<path d="M 41.892578 85.335938 L 41.892578 84.412109 L 48.729980 84.412109 L 48.729980 85.335938 Z " fill="black" fill-opacity="1.000000"/>
<path d="M 51.878906 91.319336 L 51.878906 85.335938 L 48.892578 85.335938 L 48.892578 84.412109 L 55.729980 84.412109 L 55.729980 85.335938 L 52.738281 85.335938 L 52.738281 91.319336 Z " fill="black" fill-opacity="1.000000"/>
<path d="M 55.892578 85.335938 L 55.892578 84.412109 L 62.729980 84.412109 L 62.729980 85.335938 Z " fill="black" fill-opacity="1.000000"/>
<path d="M 62.892578 85.335938 L 62.892578 84.412109 L 69.729980 84.412109 L 69.729980 85.335938 Z " fill="black" fill-opacity="1.000000"/>
<path d="M 69.892578 85.335938 L 69.892578 84.412109 L 76.729980 84.412109 L 76.729980 85.335938 Z " fill="black" fill-opacity="1.000000"/>
<path d="M 76.892578 85.335938 L 76.892578 84.412109 L 83.729980 84.412109 L 83.729980 85.335938 Z " fill="black" fill-opacity="1.000000"/>
<path d="M 83.892578 85.335938 L 83.892578 84.412109 L 90.729980 84.412109 L 90.729980 85.335938 Z " fill="black" fill-opacity="1.000000"/>
<path d="M 90.892578 85.335938 L 90.892578 84.412109 L 97.729980 84.412109 L 97.729980 85.335938 Z " fill="black" fill-opacity="1.000000"/>
<path d="M 97.892578 85.335938 L 97.892578 84.412109 L 104.729980 84.412109 L 104.729980 85.335938 Z " fill="black" fill-opacity="1.000000"/>
<path d="M 104.892578 85.335938 L 104.892578 84.412109 L 111.729980 84.412109 L 111.729980 85.335938 Z " fill="black" fill-opacity="1.000000"/>
<path d="M 111.892578 85.335938 L 111.892578 84.412109 L 118.729980 84.412109 L 118.729980 85.335938 Z " fill="black" fill-opacity="1.000000"/>
<path d="M 118.892578 85.335938 L 118.892578 84.412109 L 125.729980 84.412109 L 125.729980 85.335938 Z " fill="black" fill-opacity="1.000000"/>
<path d="M 125.892578 85.335938 L 125.892578 84.412109 L 132.729980 84.412109 L 132.729980 85.335938 Z " fill="black" fill-opacity="1.000000"/>
<path d="M 135.878906 91.319336 L 135.878906 85.335938 L 132.892578 85.335938 L 132.892578 84.412109 L 139.729980 84.412109 L 139.729980 85.335938 L 136.738281 85.335938 L 136.738281 91.319336 Z " fill="black" fill-opacity="1.000000"/>
<path d="M 139.892578 85.335938 L 139.892578 84.412109 L 146.729980 84.412109 L 146.729980 85.335938 Z " fill="black" fill-opacity="1.000000"/>
<path d="M 146.892578 85.335938 L 146.892578 84.412109 L 153.729980 84.412109 L 153.729980 85.335938 Z " fill="black" fill-opacity="1.000000"/>
<path d="M 153.892578 85.335938 L 153.892578 84.412109 L 160.729980 84.412109 L 160.729980 85.335938 Z " fill="black" fill-opacity="1.000000"/>
<path d="M 160.892578 85.335938 L 160.892578 84.412109 L 167.729980 84.412109 L 167.729980 85.335938 Z " fill="black" fill-opacity="1.000000"/>
<path d="M 167.892578 85.335938 L 167.892578 84.412109 L 174.729980 84.412109 L 174.729980 85.335938 Z " fill="black" fill-opacity="1.000000"/>
<path d="M 174.892578 85.335938 L 174.892578 84.412109 L 181.729980 84.412109 L 181.729980 85.335938 Z " fill="black" fill-opacity="1.000000"/>
<path d="M 181.892578 85.335938 L 181.892578 84.412109 L 188.729980 84.412109 L 188.729980 85.335938 Z " fill="black" fill-opacity="1.000000"/>
<path d="M 188.892578 85.335938 L 188.892578 84.412109 L 195.729980 84.412109 L 195.729980 85.335938 Z " fill="black" fill-opacity="1.000000"/>
<path d="M 195.892578 85.335938 L 195.892578 84.412109 L 202.729980 84.412109 L 202.729980 85.335938 Z " fill="black" fill-opacity="1.000000"/>
<path d="M 205.878906 91.319336 L 205.878906 85.335938 L 202.892578 85.335938 L 202.892578 84.412109 L 209.729980 84.412109 L 209.729980 85.335938 L 206.738281 85.335938 L 206.738281 91.319336 Z " fill="black" fill-opacity="1.000000"/>
<path d="M 209.892578 85.335938 L 209.892578 84.412109 L 216.729980 84.412109 L 216.729980 85.335938 Z " fill="black" fill-opacity="1.000000"/>
<path d="M 216.892578 85.335938 L 216.892578 84.412109 L 223.729980 84.412109 L 223.729980 85.335938 Z " fill="black" fill-opacity="1.000000"/>
<path d="M 223.892578 85.335938 L 223.892578 84.412109 L 230.729980 84.412109 L 230.729980 85.335938 Z " fill="black" fill-opacity="1.000000"/>
<path d="M 230.892578 85.335938 L 230.892578 84.412109 L 237.729980 84.412109 L 237.729980 85.335938 Z " fill="black" fill-opacity="1.000000"/>
<path d="M 237.892578 85.335938 L 237.892578 84.412109 L 244.729980 84.412109 L 244.729980 85.335938 Z " fill="black" fill-opacity="1.000000"/>
<path d="M 244.892578 85.335938 L 244.892578 84.412109 L 251.729980 84.412109 L 251.729980 85.335938 Z " fill="black" fill-opacity="1.000000"/>
<path d="M 251.892578 85.335938 L 251.892578 84.412109 L 258.729980 84.412109 L 258.729980 85.335938 Z " fill="black" fill-opacity="1.000000"/>
<path d="M 258.892578 85.335938 L 258.892578 84.412109 L 265.729980 84.412109 L 265.729980 85.335938 Z " fill="black" fill-opacity="1.000000"/>
<path d="M 265.892578 85.335938 L 265.892578 84.412109 L 272.729980 84.412109 L 272.729980 85.335938 Z " fill="black" fill-opacity="1.000000"/>
<path d="M 272.892578 85.335938 L 272.892578 84.412109 L 279.729980 84.412109 L 279.729980 85.335938 Z " fill="black" fill-opacity="1.000000"/>
<path d="M 279.892578 85.335938 L 279.892578 84.412109 L 286.729980 84.412109 L 286.729980 85.335938 Z " fill="black" fill-opacity="1.000000"/>
<path d="M 286.892578 85.335938 L 286.892578 84.412109 L 293.729980 84.412109 L 293.729980 85.335938 Z " fill="black" fill-opacity="1.000000"/>
<path d="M 293.892578 85.335938 L 293.892578 84.412109 L 300.729980 84.412109 L 300.729980 85.335938 Z " fill="black" fill-opacity="1.000000"/>
<path d="M 303.878906 91.319336 L 303.878906 85.335938 L 300.892578 85.335938 L 300.892578 84.412109 L 307.729980 84.412109 L 307.729980 85.335938 L 304.738281 85.335938 L 304.738281 91.319336 Z " fill="black" fill-opacity="1.000000"/>
<path d="M 307.892578 85.335938 L 307.892578 84.412109 L 314.729980 84.412109 L 314.729980 85.335938 Z " fill="black" fill-opacity="1.000000"/>
<path d="M 314.892578 85.335938 L 314.892578 84.412109 L 321.729980 84.412109 L 321.729980 85.335938 Z " fill="black" fill-opacity="1.000000"/>
<path d="M 321.892578 85.335938 L 321.892578 84.412109 L 328.729980 84.412109 L 328.729980 85.335938 Z " fill="black" fill-opacity="1.000000"/>
<path d="M 331.878906 91.319336 L 331.878906 85.335938 L 328.892578 85.335938 L 328.892578 84.412109 L 335.729980 84.412109 L 335.729980 85.335938 L 332.738281 85.335938 L 332.738281 91.319336 Z " fill="black" fill-opacity="1.000000"/>
<path d="M 335.892578 85.335938 L 335.892578 84.412109 L 342.729980 84.412109 L 342.729980 85.335938 Z " fill="black" fill-opacity="1.000000"/>
<path d="M 342.892578 85.335938 L 342.892578 84.412109 L 349.729980 84.412109 L 349.729980 85.335938 Z " fill="black" fill-opacity="1.000000"/>
<path d="M 349.892578 85.335938 L 349.892578 84.412109 L 356.729980 84.412109 L 356.729980 85.335938 Z " fill="black" fill-opacity="1.000000"/>
<path d="M 356.892578 85.335938 L 356.892578 84.412109 L 363.729980 84.412109 L 363.729980 85.335938 Z " fill="black" fill-opacity="1.000000"/>
<path d="M 363.892578 85.335938 L 363.892578 84.412109 L 370.729980 84.412109 L 370.729980 85.335938 Z " fill="black" fill-opacity="1.000000"/>
<path d="M 370.892578 85.335938 L 370.892578 84.412109 L 377.729980 84.412109 L 377.729980 85.335938 Z " fill="black" fill-opacity="1.000000"/>
<path d="M 377.892578 85.335938 L 377.892578 84.412109 L 384.729980 84.412109 L 384.729980 85.335938 Z " fill="black" fill-opacity="1.000000"/>
<path d="M 384.892578 85.335938 L 384.892578 84.412109 L 391.729980 84.412109 L 391.729980 85.335938 Z " fill="black" fill-opacity="1.000000"/>
<path d="M 391.892578 85.335938 L 391.892578 84.412109 L 398.729980 84.412109 L 398.729980 85.335938 Z " fill="black" fill-opacity="1.000000"/>
<path d="M 398.892578 85.335938 L 398.892578 84.412109 L 405.729980 84.412109 L 405.729980 85.335938 Z " fill="black" fill-opacity="1.000000"/>
<path d="M 405.892578 85.335938 L 405.892578 84.412109 L 412.729980 84.412109 L 412.729980 85.335938 Z " fill="black" fill-opacity="1.000000"/>
<path d="M 412.892578 85.335938 L 412.892578 84.412109 L 419.729980 84.412109 L 419.729980 85.335938 Z " fill="black" fill-opacity="1.000000"/>
<path d="M 419.892578 85.335938 L 419.892578 84.412109 L 426.729980 84.412109 L 426.729980 85.335938 Z " fill="black" fill-opacity="1.000000"/>
<path d="M 429.878906 91.319336 L 429.878906 85.335938 L 426.892578 85.335938 L 426.892578 84.412109 L 433.729980 84.412109 L 433.729980 85.335938 L 430.738281 85.335938 L 430.738281 91.319336 Z " fill="black" fill-opacity="1.000000"/>
<path d="M 433.892578 85.335938 L 433.892578 84.412109 L 440.729980 84.412109 L 440.729980 85.335938 Z " fill="black" fill-opacity="1.000000"/>
<path d="M 440.892578 85.335938 L 440.892578 84.412109 L 447.729980 84.412109 L 447.729980 85.335938 Z " fill="black" fill-opacity="1.000000"/>
<path d="M 447.892578 85.335938 L 447.892578 84.412109 L 454.729980 84.412109 L 454.729980 85.335938 Z " fill="black" fill-opacity="1.000000"/>
<path d="M 457.878906 91.319336 L 457.878906 85.335938 L 454.892578 85.335938 L 454.892578 84.412109 L 461.729980 84.412109 L 461.729980 85.335938 L 458.738281 85.335938 L 458.738281 91.319336 Z " fill="black" fill-opacity="1.000000"/>
<path d="M 461.892578 85.335938 L 461.892578 84.412109 L 468.729980 84.412109 L 468.729980 85.335938 Z " fill="black" fill-opacity="1.000000"/>
<path d="M 468.892578 85.335938 L 468.892578 84.412109 L 475.729980 84.412109 L 475.729980 85.335938 Z " fill="black" fill-opacity="1.000000"/>
<path d="M 475.892578 85.335938 L 475.892578 84.412109 L 482.729980 84.412109 L 482.729980 85.335938 Z " fill="black" fill-opacity="1.000000"/>
<path d="M 482.892578 85.335938 L 482.892578 84.412109 L 489.729980 84.412109 L 489.729980 85.335938 Z " fill="black" fill-opacity="1.000000"/>
<path d="M 492.878906 91.319336 L 492.878906 85.335938 L 489.892578 85.335938 L 489.892578 84.412109 L 493.738281 84.412109 L 493.738281 91.319336 Z " fill="black" fill-opacity="1.000000"/>
<path d="M 492.878906 78.319336 L 492.878906 72.335938 L 489.892578 72.335938 L 489.892578 71.412109 L 493.738281 71.412109 L 493.738281 78.319336 Z " fill="black" fill-opacity="1.000000"/>
<path d="M 114.878906 13.319336 L 114.878906 6.412109 L 118.729980 6.412109 L 118.729980 7.335938 L 115.738281 7.335938 L 115.738281 13.319336 Z " fill="black" fill-opacity="1.000000"/>
<path d="M 114.878906 26.319336 L 114.878906 12.300781 L 115.738281 12.300781 L 115.738281 26.319336 Z " fill="black" fill-opacity="1.000000"/>
<path d="M 114.878906 33.335938 L 114.878906 25.300781 L 115.738281 25.300781 L 115.738281 32.412109 L 118.729980 32.412109 L 118.729980 33.335938 Z " fill="black" fill-opacity="1.000000"/>
<path d="M 114.878906 46.335938 L 114.878906 38.300781 L 115.738281 38.300781 L 115.738281 45.412109 L 118.729980 45.412109 L 118.729980 46.335938 Z " fill="black" fill-opacity="1.000000"/>
<path d="M 255.308594 62.418945 L 252.032227 55.866211 L 258.590332 55.866211 Z " fill="black" fill-opacity="1.000000"/>
<path d="M 118.892578 33.335938 L 118.892578 32.412109 L 125.729980 32.412109 L 125.729980 33.335938 Z " fill="black" fill-opacity="1.000000"/>
<path d="M 125.892578 33.335938 L 125.892578 32.412109 L 132.729980 32.412109 L 132.729980 33.335938 Z " fill="black" fill-opacity="1.000000"/>
<path d="M 132.892578 33.335938 L 132.892578 32.412109 L 139.729980 32.412109 L 139.729980 33.335938 Z " fill="black" fill-opacity="1.000000"/>
<path d="M 139.892578 33.335938 L 139.892578 32.412109 L 146.729980 32.412109 L 146.729980 33.335938 Z " fill="black" fill-opacity="1.000000"/>
<path d="M 146.892578 33.335938 L 146.892578 32.412109 L 153.729980 32.412109 L 153.729980 33.335938 Z " fill="black" fill-opacity="1.000000"/>
<path d="M 153.892578 33.335938 L 153.892578 32.412109 L 160.729980 32.412109 L 160.729980 33.335938 Z " fill="black" fill-opacity="1.000000"/>
<path d="M 160.892578 33.335938 L 160.892578 32.412109 L 167.729980 32.412109 L 167.729980 33.335938 Z " fill="black" fill-opacity="1.000000"/>
<path d="M 167.892578 33.335938 L 167.892578 32.412109 L 174.729980 32.412109 L 174.729980 33.335938 Z " fill="black" fill-opacity="1.000000"/>
<path d="M 174.892578 33.335938 L 174.892578 32.412109 L 181.729980 32.412109 L 181.729980 33.335938 Z " fill="black" fill-opacity="1.000000"/>
<path d="M 181.892578 33.335938 L 181.892578 32.412109 L 188.729980 32.412109 L 188.729980 33.335938 Z " fill="black" fill-opacity="1.000000"/>
<path d="M 188.892578 33.335938 L 188.892578 32.412109 L 195.729980 32.412109 L 195.729980 33.335938 Z " fill="black" fill-opacity="1.000000"/>
<path d="M 195.892578 33.335938 L 195.892578 32.412109 L 202.729980 32.412109 L 202.729980 33.335938 Z " fill="black" fill-opacity="1.000000"/>
<path d="M 202.892578 33.335938 L 202.892578 32.412109 L 209.729980 32.412109 L 209.729980 33.335938 Z " fill="black" fill-opacity="1.000000"/>
<path d="M 209.892578 33.335938 L 209.892578 32.412109 L 216.729980 32.412109 L 216.729980 33.335938 Z " fill="black" fill-opacity="1.000000"/>
<path d="M 216.892578 33.335938 L 216.892578 32.412109 L 223.729980 32.412109 L 223.729980 33.335938 Z " fill="black" fill-opacity="1.000000"/>
<path d="M 223.892578 33.335938 L 223.892578 32.412109 L 230.729980 32.412109 L 230.729980 33.335938 Z " fill="black" fill-opacity="1.000000"/>
<path d="M 230.892578 33.335938 L 230.892578 32.412109 L 237.729980 32.412109 L 237.729980 33.335938 Z " fill="black" fill-opacity="1.000000"/>
<path d="M 237.892578 33.335938 L 237.892578 32.412109 L 244.729980 32.412109 L 244.729980 33.335938 Z " fill="black" fill-opacity="1.000000"/>
<path d="M 244.892578 33.335938 L 244.892578 32.412109 L 251.729980 32.412109 L 251.729980 33.335938 Z " fill="black" fill-opacity="1.000000"/>
<path d="M 251.892578 33.335938 L 251.892578 32.412109 L 258.729980 32.412109 L 258.729980 33.335938 Z " fill="black" fill-opacity="1.000000"/>
<path d="M 258.892578 33.335938 L 258.892578 32.412109 L 265.729980 32.412109 L 265.729980 33.335938 Z " fill="black" fill-opacity="1.000000"/>
<path d="M 265.892578 33.335938 L 265.892578 32.412109 L 272.729980 32.412109 L 272.729980 33.335938 Z " fill="black" fill-opacity="1.000000"/>
<path d="M 272.892578 33.335938 L 272.892578 32.412109 L 279.729980 32.412109 L 279.729980 33.335938 Z " fill="black" fill-opacity="1.000000"/>
<path d="M 279.892578 33.335938 L 279.892578 32.412109 L 286.729980 32.412109 L 286.729980 33.335938 Z " fill="black" fill-opacity="1.000000"/>
<path d="M 286.892578 33.335938 L 286.892578 32.412109 L 293.729980 32.412109 L 293.729980 33.335938 Z " fill="black" fill-opacity="1.000000"/>
<path d="M 293.892578 33.335938 L 293.892578 32.412109 L 300.729980 32.412109 L 300.729980 33.335938 Z " fill="black" fill-opacity="1.000000"/>
<path d="M 300.892578 33.335938 L 300.892578 32.412109 L 307.729980 32.412109 L 307.729980 33.335938 Z " fill="black" fill-opacity="1.000000"/>
<path d="M 307.892578 33.335938 L 307.892578 32.412109 L 314.729980 32.412109 L 314.729980 33.335938 Z " fill="black" fill-opacity="1.000000"/>
<path d="M 314.892578 33.335938 L 314.892578 32.412109 L 321.729980 32.412109 L 321.729980 33.335938 Z " fill="black" fill-opacity="1.000000"/>
<path d="M 321.892578 33.335938 L 321.892578 32.412109 L 328.729980 32.412109 L 328.729980 33.335938 Z " fill="black" fill-opacity="1.000000"/>
<path d="M 328.892578 33.335938 L 328.892578 32.412109 L 335.729980 32.412109 L 335.729980 33.335938 Z " fill="black" fill-opacity="1.000000"/>
<path d="M 335.892578 33.335938 L 335.892578 32.412109 L 342.729980 32.412109 L 342.729980 33.335938 Z " fill="black" fill-opacity="1.000000"/>
<path d="M 342.892578 33.335938 L 342.892578 32.412109 L 349.729980 32.412109 L 349.729980 33.335938 Z " fill="black" fill-opacity="1.000000"/>
<path d="M 349.892578 33.335938 L 349.892578 32.412109 L 356.729980 32.412109 L 356.729980 33.335938 Z " fill="black" fill-opacity="1.000000"/>
<path d="M 356.892578 33.335938 L 356.892578 32.412109 L 363.729980 32.412109 L 363.729980 33.335938 Z " fill="black" fill-opacity="1.000000"/>
<path d="M 363.892578 33.335938 L 363.892578 32.412109 L 370.729980 32.412109 L 370.729980 33.335938 Z " fill="black" fill-opacity="1.000000"/>
<path d="M 370.892578 33.335938 L 370.892578 32.412109 L 377.729980 32.412109 L 377.729980 33.335938 Z " fill="black" fill-opacity="1.000000"/>
<path d="M 377.892578 33.335938 L 377.892578 32.412109 L 384.729980 32.412109 L 384.729980 33.335938 Z " fill="black" fill-opacity="1.000000"/>
<path d="M 118.892578 46.335938 L 118.892578 45.412109 L 125.729980 45.412109 L 125.729980 46.335938 Z " fill="black" fill-opacity="1.000000"/>
<path d="M 125.892578 46.335938 L 125.892578 45.412109 L 132.729980 45.412109 L 132.729980 46.335938 Z " fill="black" fill-opacity="1.000000"/>
<path d="M 132.892578 46.335938 L 132.892578 45.412109 L 139.729980 45.412109 L 139.729980 46.335938 Z " fill="black" fill-opacity="1.000000"/>
<path d="M 139.892578 46.335938 L 139.892578 45.412109 L 146.729980 45.412109 L 146.729980 46.335938 Z " fill="black" fill-opacity="1.000000"/>
<path d="M 146.892578 46.335938 L 146.892578 45.412109 L 153.729980 45.412109 L 153.729980 46.335938 Z " fill="black" fill-opacity="1.000000"/>
<path d="M 153.892578 46.335938 L 153.892578 45.412109 L 160.729980 45.412109 L 160.729980 46.335938 Z " fill="black" fill-opacity="1.000000"/>
<path d="M 160.892578 46.335938 L 160.892578 45.412109 L 167.729980 45.412109 L 167.729980 46.335938 Z " fill="black" fill-opacity="1.000000"/>
<path d="M 167.892578 46.335938 L 167.892578 45.412109 L 174.729980 45.412109 L 174.729980 46.335938 Z " fill="black" fill-opacity="1.000000"/>
<path d="M 174.892578 46.335938 L 174.892578 45.412109 L 181.729980 45.412109 L 181.729980 46.335938 Z " fill="black" fill-opacity="1.000000"/>
<path d="M 181.892578 46.335938 L 181.892578 45.412109 L 188.729980 45.412109 L 188.729980 46.335938 Z " fill="black" fill-opacity="1.000000"/>
<path d="M 188.892578 46.335938 L 188.892578 45.412109 L 195.729980 45.412109 L 195.729980 46.335938 Z " fill="black" fill-opacity="1.000000"/>
<path d="M 195.892578 46.335938 L 195.892578 45.412109 L 202.729980 45.412109 L 202.729980 46.335938 Z " fill="black" fill-opacity="1.000000"/>
<path d="M 202.892578 46.335938 L 202.892578 45.412109 L 209.729980 45.412109 L 209.729980 46.335938 Z " fill="black" fill-opacity="1.000000"/>
<path d="M 209.892578 46.335938 L 209.892578 45.412109 L 216.729980 45.412109 L 216.729980 46.335938 Z " fill="black" fill-opacity="1.000000"/>
<path d="M 216.892578 46.335938 L 216.892578 45.412109 L 223.729980 45.412109 L 223.729980 46.335938 Z " fill="black" fill-opacity="1.000000"/>
<path d="M 223.892578 46.335938 L 223.892578 45.412109 L 230.729980 45.412109 L 230.729980 46.335938 Z " fill="black" fill-opacity="1.000000"/>
<path d="M 230.892578 46.335938 L 230.892578 45.412109 L 237.729980 45.412109 L 237.729980 46.335938 Z " fill="black" fill-opacity="1.000000"/>
<path d="M 237.892578 46.335938 L 237.892578 45.412109 L 244.729980 45.412109 L 244.729980 46.335938 Z " fill="black" fill-opacity="1.000000"/>
<path d="M 244.892578 46.335938 L 244.892578 45.412109 L 251.729980 45.412109 L 251.729980 46.335938 Z " fill="black" fill-opacity="1.000000"/>
<path d="M 254.878906 52.319336 L 254.878906 46.335938 L 251.892578 46.335938 L 251.892578 45.412109 L 258.729980 45.412109 L 258.729980 46.335938 L 255.738281 46.335938 L 255.738281 52.319336 Z " fill="black" fill-opacity="1.000000"/>
<path d="M 258.892578 46.335938 L 258.892578 45.412109 L 265.729980 45.412109 L 265.729980 46.335938 Z " fill="black" fill-opacity="1.000000"/>
<path d="M 265.892578 46.335938 L 265.892578 45.412109 L 272.729980 45.412109 L 272.729980 46.335938 Z " fill="black" fill-opacity="1.000000"/>
<path d="M 272.892578 46.335938 L 272.892578 45.412109 L 279.729980 45.412109 L 279.729980 46.335938 Z " fill="black" fill-opacity="1.000000"/>
<path d="M 279.892578 46.335938 L 279.892578 45.412109 L 286.729980 45.412109 L 286.729980 46.335938 Z " fill="black" fill-opacity="1.000000"/>
<path d="M 286.892578 46.335938 L 286.892578 45.412109 L 293.729980 45.412109 L 293.729980 46.335938 Z " fill="black" fill-opacity="1.000000"/>
<path d="M 293.892578 46.335938 L 293.892578 45.412109 L 300.729980 45.412109 L 300.729980 46.335938 Z " fill="black" fill-opacity="1.000000"/>
<path d="M 300.892578 46.335938 L 300.892578 45.412109 L 307.729980 45.412109 L 307.729980 46.335938 Z " fill="black" fill-opacity="1.000000"/>
<path d="M 307.892578 46.335938 L 307.892578 45.412109 L 314.729980 45.412109 L 314.729980 46.335938 Z " fill="black" fill-opacity="1.000000"/>
<path d="M 314.892578 46.335938 L 314.892578 45.412109 L 321.729980 45.412109 L 321.729980 46.335938 Z " fill="black" fill-opacity="1.000000"/>
<path d="M 321.892578 46.335938 L 321.892578 45.412109 L 328.729980 45.412109 L 328.729980 46.335938 Z " fill="black" fill-opacity="1.000000"/>
<path d="M 328.892578 46.335938 L 328.892578 45.412109 L 335.729980 45.412109 L 335.729980 46.335938 Z " fill="black" fill-opacity="1.000000"/>
<path d="M 335.892578 46.335938 L 335.892578 45.412109 L 342.729980 45.412109 L 342.729980 46.335938 Z " fill="black" fill-opacity="1.000000"/>
<path d="M 342.892578 46.335938 L 342.892578 45.412109 L 349.729980 45.412109 L 349.729980 46.335938 Z " fill="black" fill-opacity="1.000000"/>
<path d="M 349.892578 46.335938 L 349.892578 45.412109 L 356.729980 45.412109 L 356.729980 46.335938 Z " fill="black" fill-opacity="1.000000"/>
<path d="M 356.892578 46.335938 L 356.892578 45.412109 L 363.729980 45.412109 L 363.729980 46.335938 Z " fill="black" fill-opacity="1.000000"/>
<path d="M 363.892578 46.335938 L 363.892578 45.412109 L 370.729980 45.412109 L 370.729980 46.335938 Z " fill="black" fill-opacity="1.000000"/>
<path d="M 370.892578 46.335938 L 370.892578 45.412109 L 377.729980 45.412109 L 377.729980 46.335938 Z " fill="black" fill-opacity="1.000000"/>
<path d="M 377.892578 46.335938 L 377.892578 45.412109 L 384.729980 45.412109 L 384.729980 46.335938 Z " fill="black" fill-opacity="1.000000"/>
<path d="M 384.892578 46.335938 L 384.892578 45.412109 L 387.878906 45.412109 L 387.878906 38.300781 L 388.738281 38.300781 L 388.738281 46.335938 Z " fill="black" fill-opacity="1.000000"/>
<path d="M 384.892578 33.335938 L 384.892578 32.412109 L 387.878906 32.412109 L 387.878906 25.300781 L 388.738281 25.300781 L 388.738281 33.335938 Z " fill="black" fill-opacity="1.000000"/>
<path d="M 239.981934 18.955566 L 239.981934 22.108398 L 241.265625 22.108398 Q 242.210938 22.108398 242.613770 21.778076 Q 243.016602 21.447754 243.016602 20.690430 Q 243.016602 19.691406 242.592285 19.323486 Q 242.167969 18.955566 241.265625 18.955566 Z M 239.981934 15.872559 L 239.981934 18.074707 L 241.244141 18.074707 Q 242.028320 18.074707 242.380127 17.773926 Q 242.731934 17.473145 242.731934 17.016602 Q 242.731934 16.409668 242.385498 16.141113 Q 242.039062 15.872559 241.244141 15.872559 Z M 238.891602 14.980957 L 241.265625 14.980957 Q 242.495605 14.980957 243.161621 15.512695 Q 243.827637 16.044434 243.827637 17.016602 Q 243.827637 17.537598 243.475830 17.961914 Q 243.124023 18.386230 242.420410 18.493652 Q 243.209961 18.611816 243.658447 19.167725 Q 244.106934 19.723633 244.106934 20.797852 Q 244.106934 21.888184 243.392578 22.444092 Q 242.678223 23.000000 241.265625 23.000000 L 238.891602 23.000000 Z " fill="black" fill-opacity="1.000000"/>
<path d="M 248.308594 17.677246 Q 247.556641 17.677246 247.169922 18.262695 Q 246.783203 18.848145 246.783203 19.997559 Q 246.783203 21.141602 247.169922 21.729736 Q 247.556641 22.317871 248.308594 22.317871 Q 249.065918 22.317871 249.452637 21.729736 Q 249.839355 21.141602 249.839355 19.997559 Q 249.839355 18.848145 249.452637 18.262695 Q 249.065918 17.677246 248.308594 17.677246 Z M 248.308594 16.839355 Q 249.560059 16.839355 250.223389 17.650391 Q 250.886719 18.461426 250.886719 19.997559 Q 250.886719 21.539062 250.226074 22.347412 Q 249.565430 23.155762 248.308594 23.155762 Q 247.057129 23.155762 246.396484 22.347412 Q 245.735840 21.539062 245.735840 19.997559 Q 245.735840 18.461426 246.396484 17.650391 Q 247.057129 16.839355 248.308594 16.839355 Z " fill="black" fill-opacity="1.000000"/>
<path d="M 256.608398 17.752441 L 256.608398 14.642578 L 257.596680 14.642578 L 257.596680 23.000000 L 256.608398 23.000000 L 256.608398 22.242676 Q 256.361328 22.688477 255.950439 22.922119 Q 255.539551 23.155762 255.002441 23.155762 Q 253.912109 23.155762 253.286377 22.309814 Q 252.660645 21.463867 252.660645 19.976074 Q 252.660645 18.509766 253.289062 17.674561 Q 253.917480 16.839355 255.002441 16.839355 Q 255.544922 16.839355 255.958496 17.072998 Q 256.372070 17.306641 256.608398 17.752441 Z M 253.702637 19.997559 Q 253.702637 21.146973 254.067871 21.732422 Q 254.433105 22.317871 255.147461 22.317871 Q 255.861816 22.317871 256.235107 21.727051 Q 256.608398 21.136230 256.608398 19.997559 Q 256.608398 18.853516 256.235107 18.265381 Q 255.861816 17.677246 255.147461 17.677246 Q 254.433105 17.677246 254.067871 18.262695 Q 253.702637 18.848145 253.702637 19.997559 Z " fill="black" fill-opacity="1.000000"/>
<path d="M 263.608398 21.066406 Q 263.361328 21.694824 262.979980 22.720703 Q 262.448242 24.138672 262.265625 24.450195 Q 262.018555 24.869141 261.647949 25.078613 Q 261.277344 25.288086 260.783203 25.288086 L 259.988281 25.288086 L 259.988281 24.460938 L 260.573730 24.460938 Q 261.008789 24.460938 261.255859 24.208496 Q 261.502930 23.956055 261.884277 22.903320 L 259.558594 16.984375 L 260.605957 16.984375 L 262.389160 21.689453 L 264.145508 16.984375 L 265.192871 16.984375 Z " fill="black" fill-opacity="1.000000"/>
<path d="M 387.878906 26.319336 L 387.878906 12.300781 L 388.738281 12.300781 L 388.738281 26.319336 Z " fill="black" fill-opacity="1.000000"/>
<path d="M 118.892578 7.335938 L 118.892578 6.412109 L 125.729980 6.412109 L 125.729980 7.335938 Z " fill="black" fill-opacity="1.000000"/>
<path d="M 125.892578 7.335938 L 125.892578 6.412109 L 132.729980 6.412109 L 132.729980 7.335938 Z " fill="black" fill-opacity="1.000000"/>
<path d="M 132.892578 7.335938 L 132.892578 6.412109 L 139.729980 6.412109 L 139.729980 7.335938 Z " fill="black" fill-opacity="1.000000"/>
<path d="M 139.892578 7.335938 L 139.892578 6.412109 L 146.729980 6.412109 L 146.729980 7.335938 Z " fill="black" fill-opacity="1.000000"/>
<path d="M 146.892578 7.335938 L 146.892578 6.412109 L 153.729980 6.412109 L 153.729980 7.335938 Z " fill="black" fill-opacity="1.000000"/>
<path d="M 153.892578 7.335938 L 153.892578 6.412109 L 160.729980 6.412109 L 160.729980 7.335938 Z " fill="black" fill-opacity="1.000000"/>
<path d="M 160.892578 7.335938 L 160.892578 6.412109 L 167.729980 6.412109 L 167.729980 7.335938 Z " fill="black" fill-opacity="1.000000"/>
<path d="M 167.892578 7.335938 L 167.892578 6.412109 L 174.729980 6.412109 L 174.729980 7.335938 Z " fill="black" fill-opacity="1.000000"/>
<path d="M 174.892578 7.335938 L 174.892578 6.412109 L 181.729980 6.412109 L 181.729980 7.335938 Z " fill="black" fill-opacity="1.000000"/>
<path d="M 181.892578 7.335938 L 181.892578 6.412109 L 188.729980 6.412109 L 188.729980 7.335938 Z " fill="black" fill-opacity="1.000000"/>
<path d="M 188.892578 7.335938 L 188.892578 6.412109 L 195.729980 6.412109 L 195.729980 7.335938 Z " fill="black" fill-opacity="1.000000"/>
<path d="M 195.892578 7.335938 L 195.892578 6.412109 L 202.729980 6.412109 L 202.729980 7.335938 Z " fill="black" fill-opacity="1.000000"/>
<path d="M 202.892578 7.335938 L 202.892578 6.412109 L 209.729980 6.412109 L 209.729980 7.335938 Z " fill="black" fill-opacity="1.000000"/>
<path d="M 209.892578 7.335938 L 209.892578 6.412109 L 216.729980 6.412109 L 216.729980 7.335938 Z " fill="black" fill-opacity="1.000000"/>
<path d="M 216.892578 7.335938 L 216.892578 6.412109 L 223.729980 6.412109 L 223.729980 7.335938 Z " fill="black" fill-opacity="1.000000"/>
<path d="M 223.892578 7.335938 L 223.892578 6.412109 L 230.729980 6.412109 L 230.729980 7.335938 Z " fill="black" fill-opacity="1.000000"/>
<path d="M 230.892578 7.335938 L 230.892578 6.412109 L 237.729980 6.412109 L 237.729980 7.335938 Z " fill="black" fill-opacity="1.000000"/>
<path d="M 237.892578 7.335938 L 237.892578 6.412109 L 244.729980 6.412109 L 244.729980 7.335938 Z " fill="black" fill-opacity="1.000000"/>
<path d="M 244.892578 7.335938 L 244.892578 6.412109 L 251.729980 6.412109 L 251.729980 7.335938 Z " fill="black" fill-opacity="1.000000"/>
<path d="M 251.892578 7.335938 L 251.892578 6.412109 L 258.729980 6.412109 L 258.729980 7.335938 Z " fill="black" fill-opacity="1.000000"/>
<path d="M 258.892578 7.335938 L 258.892578 6.412109 L 265.729980 6.412109 L 265.729980 7.335938 Z " fill="black" fill-opacity="1.000000"/>
<path d="M 265.892578 7.335938 L 265.892578 6.412109 L 272.729980 6.412109 L 272.729980 7.335938 Z " fill="black" fill-opacity="1.000000"/>
<path d="M 272.892578 7.335938 L 272.892578 6.412109 L 279.729980 6.412109 L 279.729980 7.335938 Z " fill="black" fill-opacity="1.000000"/>
<path d="M 279.892578 7.335938 L 279.892578 6.412109 L 286.729980 6.412109 L 286.729980 7.335938 Z " fill="black" fill-opacity="1.000000"/>
<path d="M 286.892578 7.335938 L 286.892578 6.412109 L 293.729980 6.412109 L 293.729980 7.335938 Z " fill="black" fill-opacity="1.000000"/>
<path d="M 293.892578 7.335938 L 293.892578 6.412109 L 300.729980 6.412109 L 300.729980 7.335938 Z " fill="black" fill-opacity="1.000000"/>
<path d="M 300.892578 7.335938 L 300.892578 6.412109 L 307.729980 6.412109 L 307.729980 7.335938 Z " fill="black" fill-opacity="1.000000"/>
<path d="M 307.892578 7.335938 L 307.892578 6.412109 L 314.729980 6.412109 L 314.729980 7.335938 Z " fill="black" fill-opacity="1.000000"/>
<path d="M 314.892578 7.335938 L 314.892578 6.412109 L 321.729980 6.412109 L 321.729980 7.335938 Z " fill="black" fill-opacity="1.000000"/>
<path d="M 321.892578 7.335938 L 321.892578 6.412109 L 328.729980 6.412109 L 328.729980 7.335938 Z " fill="black" fill-opacity="1.000000"/>
<path d="M 328.892578 7.335938 L 328.892578 6.412109 L 335.729980 6.412109 L 335.729980 7.335938 Z " fill="black" fill-opacity="1.000000"/>
<path d="M 335.892578 7.335938 L 335.892578 6.412109 L 342.729980 6.412109 L 342.729980 7.335938 Z " fill="black" fill-opacity="1.000000"/>
<path d="M 342.892578 7.335938 L 342.892578 6.412109 L 349.729980 6.412109 L 349.729980 7.335938 Z " fill="black" fill-opacity="1.000000"/>
<path d="M 349.892578 7.335938 L 349.892578 6.412109 L 356.729980 6.412109 L 356.729980 7.335938 Z " fill="black" fill-opacity="1.000000"/>
<path d="M 356.892578 7.335938 L 356.892578 6.412109 L 363.729980 6.412109 L 363.729980 7.335938 Z " fill="black" fill-opacity="1.000000"/>
<path d="M 363.892578 7.335938 L 363.892578 6.412109 L 370.729980 6.412109 L 370.729980 7.335938 Z " fill="black" fill-opacity="1.000000"/>
<path d="M 370.892578 7.335938 L 370.892578 6.412109 L 377.729980 6.412109 L 377.729980 7.335938 Z " fill="black" fill-opacity="1.000000"/>
<path d="M 377.892578 7.335938 L 377.892578 6.412109 L 384.729980 6.412109 L 384.729980 7.335938 Z " fill="black" fill-opacity="1.000000"/>
<path d="M 387.878906 13.319336 L 387.878906 7.335938 L 384.892578 7.335938 L 384.892578 6.412109 L 388.738281 6.412109 L 388.738281 13.319336 Z " fill="black" fill-opacity="1.000000"/>
</svg>
