<?xml version='1.0' encoding='utf-8'?>
<svg xmlns="http://www.w3.org/2000/svg" version="1.1" width="498" height="118" viewBox="0 0 498.0 118.0">
<path d="M 2.878906 78.319336 L 2.878906 71.412109 L 6.729980 71.412109 L 6.729980 72.335938 L 3.738281 72.335938 L 3.738281 78.319336 Z " fill="black" fill-opacity="1.000000"/>
<path d="M 2.878906 91.319336 L 2.878906 84.412109 L 6.729980 84.412109 L 6.729980 85.335938 L 3.738281 85.335938 L 3.738281 91.319336 Z " fill="black" fill-opacity="1.000000"/>
<path d="M 2.878906 104.319336 L 2.878906 90.300781 L 3.738281 90.300781 L 3.738281 104.319336 Z " fill="black" fill-opacity="1.000000"/>
<path d="M 2.878906 111.335938 L 2.878906 103.300781 L 3.738281 103.300781 L 3.738281 110.412109 L 6.729980 110.412109 L 6.729980 111.335938 Z " fill="black" fill-opacity="1.000000"/>
<path d="M 6.892578 111.335938 L 6.892578 110.412109 L 13.729980 110.412109 L 13.729980 111.335938 Z " fill="black" fill-opacity="1.000000"/>
<path d="M 13.892578 111.335938 L 13.892578 110.412109 L 20.729980 110.412109 L 20.729980 111.335938 Z " fill="black" fill-opacity="1.000000"/>
<path d="M 20.892578 111.335938 L 20.892578 110.412109 L 27.729980 110.412109 L 27.729980 111.335938 Z " fill="black" fill-opacity="1.000000"/>
<path d="M 27.892578 111.335938 L 27.892578 110.412109 L 34.729980 110.412109 L 34.729980 111.335938 Z " fill="black" fill-opacity="1.000000"/>
<path d="M 34.892578 111.335938 L 34.892578 110.412109 L 41.729980 110.412109 L 41.729980 111.335938 Z " fill="black" fill-opacity="1.000000"/>
<path d="M 41.892578 111.335938 L 41.892578 110.412109 L 48.729980 110.412109 L 48.729980 111.335938 Z " fill="black" fill-opacity="1.000000"/>
<path d="M 48.892578 111.335938 L 48.892578 110.412109 L 55.729980 110.412109 L 55.729980 111.335938 Z " fill="black" fill-opacity="1.000000"/>
<path d="M 55.892578 111.335938 L 55.892578 110.412109 L 62.729980 110.412109 L 62.729980 111.335938 Z " fill="black" fill-opacity="1.000000"/>
<path d="M 62.892578 111.335938 L 62.892578 110.412109 L 69.729980 110.412109 L 69.729980 111.335938 Z " fill="black" fill-opacity="1.000000"/>
<path d="M 69.892578 111.335938 L 69.892578 110.412109 L 76.729980 110.412109 L 76.729980 111.335938 Z " fill="black" fill-opacity="1.000000"/>
<path d="M 76.892578 111.335938 L 76.892578 110.412109 L 83.729980 110.412109 L 83.729980 111.335938 Z " fill="black" fill-opacity="1.000000"/>
<path d="M 83.892578 111.335938 L 83.892578 110.412109 L 90.729980 110.412109 L 90.729980 111.335938 Z " fill="black" fill-opacity="1.000000"/>
<path d="M 90.892578 111.335938 L 90.892578 110.412109 L 97.729980 110.412109 L 97.729980 111.335938 Z " fill="black" fill-opacity="1.000000"/>
<path d="M 97.892578 111.335938 L 97.892578 110.412109 L 104.729980 110.412109 L 104.729980 111.335938 Z " fill="black" fill-opacity="1.000000"/>
<path d="M 104.892578 111.335938 L 104.892578 110.412109 L 111.729980 110.412109 L 111.729980 111.335938 Z " fill="black" fill-opacity="1.000000"/>
<path d="M 111.892578 111.335938 L 111.892578 110.412109 L 118.729980 110.412109 L 118.729980 111.335938 Z " fill="black" fill-opacity="1.000000"/>
<path d="M 118.892578 111.335938 L 118.892578 110.412109 L 125.729980 110.412109 L 125.729980 111.335938 Z " fill="black" fill-opacity="1.000000"/>
<path d="M 125.892578 111.335938 L 125.892578 110.412109 L 132.729980 110.412109 L 132.729980 111.335938 Z " fill="black" fill-opacity="1.000000"/>
<path d="M 132.892578 111.335938 L 132.892578 110.412109 L 139.729980 110.412109 L 139.729980 111.335938 Z " fill="black" fill-opacity="1.000000"/>
<path d="M 139.892578 111.335938 L 139.892578 110.412109 L 146.729980 110.412109 L 146.729980 111.335938 Z " fill="black" fill-opacity="1.000000"/>
<path d="M 146.892578 111.335938 L 146.892578 110.412109 L 149.878906 110.412109 L 149.878906 103.300781 L 150.738281 103.300781 L 150.738281 110.412109 L 153.729980 110.412109 L 153.729980 111.335938 Z " fill="black" fill-opacity="1.000000"/>
<path d="M 154.547852 110.111328 L 160.241211 110.111328 L 160.241211 111.019043 L 154.547852 111.019043 Z " fill="black" fill-opacity="1.000000"/>
<path d="M 160.892578 111.335938 L 160.892578 110.412109 L 167.729980 110.412109 L 167.729980 111.335938 Z " fill="black" fill-opacity="1.000000"/>
<path d="M 167.892578 111.335938 L 167.892578 110.412109 L 174.729980 110.412109 L 174.729980 111.335938 Z " fill="black" fill-opacity="1.000000"/>
<path d="M 174.892578 111.335938 L 174.892578 110.412109 L 181.729980 110.412109 L 181.729980 111.335938 Z " fill="black" fill-opacity="1.000000"/>
<path d="M 181.892578 111.335938 L 181.892578 110.412109 L 188.729980 110.412109 L 188.729980 111.335938 Z " fill="black" fill-opacity="1.000000"/>
<path d="M 188.892578 111.335938 L 188.892578 110.412109 L 195.729980 110.412109 L 195.729980 111.335938 Z " fill="black" fill-opacity="1.000000"/>
<path d="M 195.892578 111.335938 L 195.892578 110.412109 L 202.729980 110.412109 L 202.729980 111.335938 Z " fill="black" fill-opacity="1.000000"/>
<path d="M 202.892578 111.335938 L 202.892578 110.412109 L 209.729980 110.412109 L 209.729980 111.335938 Z " fill="black" fill-opacity="1.000000"/>
<path d="M 209.892578 111.335938 L 209.892578 110.412109 L 216.729980 110.412109 L 216.729980 111.335938 Z " fill="black" fill-opacity="1.000000"/>
<path d="M 216.892578 111.335938 L 216.892578 110.412109 L 223.729980 110.412109 L 223.729980 111.335938 Z " fill="black" fill-opacity="1.000000"/>
<path d="M 223.892578 111.335938 L 223.892578 110.412109 L 230.729980 110.412109 L 230.729980 111.335938 Z " fill="black" fill-opacity="1.000000"/>
<path d="M 230.892578 111.335938 L 230.892578 110.412109 L 237.729980 110.412109 L 237.729980 111.335938 Z " fill="black" fill-opacity="1.000000"/>
<path d="M 237.892578 111.335938 L 237.892578 110.412109 L 244.729980 110.412109 L 244.729980 111.335938 Z " fill="black" fill-opacity="1.000000"/>
<path d="M 244.892578 111.335938 L 244.892578 110.412109 L 251.729980 110.412109 L 251.729980 111.335938 Z " fill="black" fill-opacity="1.000000"/>
<path d="M 251.892578 111.335938 L 251.892578 110.412109 L 258.729980 110.412109 L 258.729980 111.335938 Z " fill="black" fill-opacity="1.000000"/>
<path d="M 258.892578 111.335938 L 258.892578 110.412109 L 265.729980 110.412109 L 265.729980 111.335938 Z " fill="black" fill-opacity="1.000000"/>
<path d="M 265.892578 111.335938 L 265.892578 110.412109 L 272.729980 110.412109 L 272.729980 111.335938 Z " fill="black" fill-opacity="1.000000"/>
<path d="M 272.892578 111.335938 L 272.892578 110.412109 L 275.878906 110.412109 L 275.878906 103.300781 L 276.738281 103.300781 L 276.738281 110.412109 L 279.729980 110.412109 L 279.729980 111.335938 Z " fill="black" fill-opacity="1.000000"/>
<path d="M 279.892578 111.335938 L 279.892578 110.412109 L 286.729980 110.412109 L 286.729980 111.335938 Z " fill="black" fill-opacity="1.000000"/>
<path d="M 286.892578 111.335938 L 286.892578 110.412109 L 293.729980 110.412109 L 293.729980 111.335938 Z " fill="black" fill-opacity="1.000000"/>
<path d="M 293.892578 111.335938 L 293.892578 110.412109 L 300.729980 110.412109 L 300.729980 111.335938 Z " fill="black" fill-opacity="1.000000"/>
<path d="M 300.892578 111.335938 L 300.892578 110.412109 L 307.729980 110.412109 L 307.729980 111.335938 Z " fill="black" fill-opacity="1.000000"/>
<path d="M 307.892578 111.335938 L 307.892578 110.412109 L 314.729980 110.412109 L 314.729980 111.335938 Z " fill="black" fill-opacity="1.000000"/>
<path d="M 314.892578 111.335938 L 314.892578 110.412109 L 321.729980 110.412109 L 321.729980 111.335938 Z " fill="black" fill-opacity="1.000000"/>
<path d="M 321.892578 111.335938 L 321.892578 110.412109 L 328.729980 110.412109 L 328.729980 111.335938 Z " fill="black" fill-opacity="1.000000"/>
<path d="M 328.892578 111.335938 L 328.892578 110.412109 L 335.729980 110.412109 L 335.729980 111.335938 Z " fill="black" fill-opacity="1.000000"/>
<path d="M 335.892578 111.335938 L 335.892578 110.412109 L 342.729980 110.412109 L 342.729980 111.335938 Z " fill="black" fill-opacity="1.000000"/>
<path d="M 342.892578 111.335938 L 342.892578 110.412109 L 349.729980 110.412109 L 349.729980 111.335938 Z " fill="black" fill-opacity="1.000000"/>
<path d="M 349.892578 111.335938 L 349.892578 110.412109 L 356.729980 110.412109 L 356.729980 111.335938 Z " fill="black" fill-opacity="1.000000"/>
<path d="M 356.892578 111.335938 L 356.892578 110.412109 L 363.729980 110.412109 L 363.729980 111.335938 Z " fill="black" fill-opacity="1.000000"/>
<path d="M 363.892578 111.335938 L 363.892578 110.412109 L 370.729980 110.412109 L 370.729980 111.335938 Z " fill="black" fill-opacity="1.000000"/>
<path d="M 370.892578 111.335938 L 370.892578 110.412109 L 377.729980 110.412109 L 377.729980 111.335938 Z " fill="black" fill-opacity="1.000000"/>
<path d="M 377.892578 111.335938 L 377.892578 110.412109 L 384.729980 110.412109 L 384.729980 111.335938 Z " fill="black" fill-opacity="1.000000"/>
<path d="M 384.892578 111.335938 L 384.892578 110.412109 L 391.729980 110.412109 L 391.729980 111.335938 Z " fill="black" fill-opacity="1.000000"/>
<path d="M 391.892578 111.335938 L 391.892578 110.412109 L 398.729980 110.412109 L 398.729980 111.335938 Z " fill="black" fill-opacity="1.000000"/>
<path d="M 398.892578 111.335938 L 398.892578 110.412109 L 405.729980 110.412109 L 405.729980 111.335938 Z " fill="black" fill-opacity="1.000000"/>
<path d="M 405.892578 111.335938 L 405.892578 110.412109 L 412.729980 110.412109 L 412.729980 111.335938 Z " fill="black" fill-opacity="1.000000"/>
<path d="M 412.892578 111.335938 L 412.892578 110.412109 L 419.729980 110.412109 L 419.729980 111.335938 Z " fill="black" fill-opacity="1.000000"/>
<path d="M 419.892578 111.335938 L 419.892578 110.412109 L 426.729980 110.412109 L 426.729980 111.335938 Z " fill="black" fill-opacity="1.000000"/>
<path d="M 426.892578 111.335938 L 426.892578 110.412109 L 433.729980 110.412109 L 433.729980 111.335938 Z " fill="black" fill-opacity="1.000000"/>
<path d="M 433.892578 111.335938 L 433.892578 110.412109 L 440.729980 110.412109 L 440.729980 111.335938 Z " fill="black" fill-opacity="1.000000"/>
<path d="M 440.892578 111.335938 L 440.892578 110.412109 L 447.729980 110.412109 L 447.729980 111.335938 Z " fill="black" fill-opacity="1.000000"/>
<path d="M 447.892578 111.335938 L 447.892578 110.412109 L 454.729980 110.412109 L 454.729980 111.335938 Z " fill="black" fill-opacity="1.000000"/>
<path d="M 454.892578 111.335938 L 454.892578 110.412109 L 461.729980 110.412109 L 461.729980 111.335938 Z " fill="black" fill-opacity="1.000000"/>
<path d="M 461.892578 111.335938 L 461.892578 110.412109 L 468.729980 110.412109 L 468.729980 111.335938 Z " fill="black" fill-opacity="1.000000"/>
<path d="M 468.892578 111.335938 L 468.892578 110.412109 L 475.729980 110.412109 L 475.729980 111.335938 Z " fill="black" fill-opacity="1.000000"/>
<path d="M 475.892578 111.335938 L 475.892578 110.412109 L 482.729980 110.412109 L 482.729980 111.335938 Z " fill="black" fill-opacity="1.000000"/>
<path d="M 482.892578 111.335938 L 482.892578 110.412109 L 489.729980 110.412109 L 489.729980 111.335938 Z " fill="black" fill-opacity="1.000000"/>
<path d="M 489.892578 111.335938 L 489.892578 110.412109 L 492.878906 110.412109 L 492.878906 103.300781 L 493.738281 103.300781 L 493.738281 111.335938 Z " fill="black" fill-opacity="1.000000"/>
<path d="M 56.735840 92.980957 L 57.826172 92.980957 L 57.826172 96.053223 L 60.796387 96.053223 L 60.796387 92.980957 L 61.886719 92.980957 L 61.886719 101.000000 L 60.796387 101.000000 L 60.796387 96.966309 L 57.826172 96.966309 L 57.826172 101.000000 L 56.735840 101.000000 Z " fill="black" fill-opacity="1.000000"/>
<path d="M 69.015625 97.498047 L 69.015625 97.981445 L 64.734863 97.981445 L 64.734863 98.013672 Q 64.691895 99.243652 65.204834 99.780762 Q 65.717773 100.317871 66.652344 100.317871 Q 67.125000 100.317871 67.640625 100.167480 Q 68.156250 100.017090 68.741699 99.710938 L 68.741699 100.693848 Q 68.177734 100.924805 67.654053 101.040283 Q 67.130371 101.155762 66.641602 101.155762 Q 65.239746 101.155762 64.450195 100.315186 Q 63.660645 99.474609 63.660645 97.997559 Q 63.660645 96.558105 64.434082 95.698730 Q 65.207520 94.839355 66.496582 94.839355 Q 67.645996 94.839355 68.309326 95.618164 Q 68.972656 96.396973 69.015625 97.498047 Z M 68.027344 97.208008 Q 67.962891 96.584961 67.573486 96.131104 Q 67.184082 95.677246 66.453613 95.677246 Q 65.739258 95.677246 65.277344 96.149902 Q 64.815430 96.622559 64.772461 97.213379 Z " fill="black" fill-opacity="1.000000"/>
<path d="M 73.770508 97.976074 L 73.442871 97.976074 Q 72.578125 97.976074 72.140381 98.279541 Q 71.702637 98.583008 71.702637 99.184570 Q 71.702637 99.727051 72.030273 100.027832 Q 72.357910 100.328613 72.937988 100.328613 Q 73.754395 100.328613 74.221680 99.761963 Q 74.688965 99.195312 74.694336 98.196289 L 74.694336 97.976074 Z M 75.687988 97.567871 L 75.687988 101.000000 L 74.694336 101.000000 L 74.694336 100.108398 Q 74.377441 100.645508 73.896729 100.900635 Q 73.416016 101.155762 72.728516 101.155762 Q 71.810059 101.155762 71.262207 100.637451 Q 70.714355 100.119141 70.714355 99.249023 Q 70.714355 98.244629 71.388428 97.723633 Q 72.062500 97.202637 73.367676 97.202637 L 74.694336 97.202637 L 74.694336 97.046875 Q 74.688965 96.327148 74.329102 96.002197 Q 73.969238 95.677246 73.179688 95.677246 Q 72.674805 95.677246 72.159180 95.822266 Q 71.643555 95.967285 71.154785 96.246582 L 71.154785 95.258301 Q 71.702637 95.048828 72.204834 94.944092 Q 72.707031 94.839355 73.179688 94.839355 Q 73.926270 94.839355 74.455322 95.059570 Q 74.984375 95.279785 75.312012 95.720215 Q 75.516113 95.988770 75.602051 96.383545 Q 75.687988 96.778320 75.687988 97.567871 Z " fill="black" fill-opacity="1.000000"/>
<path d="M 81.608398 95.752441 L 81.608398 92.642578 L 82.596680 92.642578 L 82.596680 101.000000 L 81.608398 101.000000 L 81.608398 100.242676 Q 81.361328 100.688477 80.950439 100.922119 Q 80.539551 101.155762 80.002441 101.155762 Q 78.912109 101.155762 78.286377 100.309814 Q 77.660645 99.463867 77.660645 97.976074 Q 77.660645 96.509766 78.289062 95.674561 Q 78.917480 94.839355 80.002441 94.839355 Q 80.544922 94.839355 80.958496 95.072998 Q 81.372070 95.306641 81.608398 95.752441 Z M 78.702637 97.997559 Q 78.702637 99.146973 79.067871 99.732422 Q 79.433105 100.317871 80.147461 100.317871 Q 80.861816 100.317871 81.235107 99.727051 Q 81.608398 99.136230 81.608398 97.997559 Q 81.608398 96.853516 81.235107 96.265381 Q 80.861816 95.677246 80.147461 95.677246 Q 79.433105 95.677246 79.067871 96.262695 Q 78.702637 96.848145 78.702637 97.997559 Z " fill="black" fill-opacity="1.000000"/>
<path d="M 90.015625 97.498047 L 90.015625 97.981445 L 85.734863 97.981445 L 85.734863 98.013672 Q 85.691895 99.243652 86.204834 99.780762 Q 86.717773 100.317871 87.652344 100.317871 Q 88.125000 100.317871 88.640625 100.167480 Q 89.156250 100.017090 89.741699 99.710938 L 89.741699 100.693848 Q 89.177734 100.924805 88.654053 101.040283 Q 88.130371 101.155762 87.641602 101.155762 Q 86.239746 101.155762 85.450195 100.315186 Q 84.660645 99.474609 84.660645 97.997559 Q 84.660645 96.558105 85.434082 95.698730 Q 86.207520 94.839355 87.496582 94.839355 Q 88.645996 94.839355 89.309326 95.618164 Q 89.972656 96.396973 90.015625 97.498047 Z M 89.027344 97.208008 Q 88.962891 96.584961 88.573486 96.131104 Q 88.184082 95.677246 87.453613 95.677246 Q 86.739258 95.677246 86.277344 96.149902 Q 85.815430 96.622559 85.772461 97.213379 Z " fill="black" fill-opacity="1.000000"/>
<path d="M 97.203613 96.225098 Q 96.886719 95.978027 96.559082 95.865234 Q 96.231445 95.752441 95.839355 95.752441 Q 94.915527 95.752441 94.426758 96.332520 Q 93.937988 96.912598 93.937988 98.008301 L 93.937988 101.000000 L 92.944336 101.000000 L 92.944336 94.984375 L 93.937988 94.984375 L 93.937988 96.160645 Q 94.185059 95.521484 94.697998 95.180420 Q 95.210938 94.839355 95.914551 94.839355 Q 96.279785 94.839355 96.596680 94.930664 Q 96.913574 95.021973 97.203613 95.215332 Z " fill="black" fill-opacity="1.000000"/>
<path d="M 149.878906 104.319336 L 149.878906 90.300781 L 150.738281 90.300781 L 150.738281 104.319336 Z " fill="black" fill-opacity="1.000000"/>
<path d="M 197.981934 96.955566 L 197.981934 100.108398 L 199.265625 100.108398 Q 200.210938 100.108398 200.613770 99.778076 Q 201.016602 99.447754 201.016602 98.690430 Q 201.016602 97.691406 200.592285 97.323486 Q 200.167969 96.955566 199.265625 96.955566 Z M 197.981934 93.872559 L 197.981934 96.074707 L 199.244141 96.074707 Q 200.028320 96.074707 200.380127 95.773926 Q 200.731934 95.473145 200.731934 95.016602 Q 200.731934 94.409668 200.385498 94.141113 Q 200.039062 93.872559 199.244141 93.872559 Z M 196.891602 92.980957 L 199.265625 92.980957 Q 200.495605 92.980957 201.161621 93.512695 Q 201.827637 94.044434 201.827637 95.016602 Q 201.827637 95.537598 201.475830 95.961914 Q 201.124023 96.386230 200.420410 96.493652 Q 201.209961 96.611816 201.658447 97.167725 Q 202.106934 97.723633 202.106934 98.797852 Q 202.106934 99.888184 201.392578 100.444092 Q 200.678223 101.000000 199.265625 101.000000 L 196.891602 101.000000 Z " fill="black" fill-opacity="1.000000"/>
<path d="M 206.308594 95.677246 Q 205.556641 95.677246 205.169922 96.262695 Q 204.783203 96.848145 204.783203 97.997559 Q 204.783203 99.141602 205.169922 99.729736 Q 205.556641 100.317871 206.308594 100.317871 Q 207.065918 100.317871 207.452637 99.729736 Q 207.839355 99.141602 207.839355 97.997559 Q 207.839355 96.848145 207.452637 96.262695 Q 207.065918 95.677246 206.308594 95.677246 Z M 206.308594 94.839355 Q 207.560059 94.839355 208.223389 95.650391 Q 208.886719 96.461426 208.886719 97.997559 Q 208.886719 99.539062 208.226074 100.347412 Q 207.565430 101.155762 206.308594 101.155762 Q 205.057129 101.155762 204.396484 100.347412 Q 203.735840 99.539062 203.735840 97.997559 Q 203.735840 96.461426 204.396484 95.650391 Q 205.057129 94.839355 206.308594 94.839355 Z " fill="black" fill-opacity="1.000000"/>
<path d="M 214.608398 95.752441 L 214.608398 92.642578 L 215.596680 92.642578 L 215.596680 101.000000 L 214.608398 101.000000 L 214.608398 100.242676 Q 214.361328 100.688477 213.950439 100.922119 Q 213.539551 101.155762 213.002441 101.155762 Q 211.912109 101.155762 211.286377 100.309814 Q 210.660645 99.463867 210.660645 97.976074 Q 210.660645 96.509766 211.289062 95.674561 Q 211.917480 94.839355 213.002441 94.839355 Q 213.544922 94.839355 213.958496 95.072998 Q 214.372070 95.306641 214.608398 95.752441 Z M 211.702637 97.997559 Q 211.702637 99.146973 212.067871 99.732422 Q 212.433105 100.317871 213.147461 100.317871 Q 213.861816 100.317871 214.235107 99.727051 Q 214.608398 99.136230 214.608398 97.997559 Q 214.608398 96.853516 214.235107 96.265381 Q 213.861816 95.677246 213.147461 95.677246 Q 212.433105 95.677246 212.067871 96.262695 Q 211.702637 96.848145 211.702637 97.997559 Z " fill="black" fill-opacity="1.000000"/>
<path d="M 221.608398 99.066406 Q 221.361328 99.694824 220.979980 100.720703 Q 220.448242 102.138672 220.265625 102.450195 Q 220.018555 102.869141 219.647949 103.078613 Q 219.277344 103.288086 218.783203 103.288086 L 217.988281 103.288086 L 217.988281 102.460938 L 218.573730 102.460938 Q 219.008789 102.460938 219.255859 102.208496 Q 219.502930 101.956055 219.884277 100.903320 L 217.558594 94.984375 L 218.605957 94.984375 L 220.389160 99.689453 L 222.145508 94.984375 L 223.192871 94.984375 Z " fill="black" fill-opacity="1.000000"/>
<path d="M 275.878906 104.319336 L 275.878906 90.300781 L 276.738281 90.300781 L 276.738281 104.319336 Z " fill="black" fill-opacity="1.000000"/>
<path d="M 355.435547 93.254883 L 355.435547 94.355957 Q 354.941406 94.039062 354.444580 93.877930 Q 353.947754 93.716797 353.442871 93.716797 Q 352.674805 93.716797 352.229004 94.073975 Q 351.783203 94.431152 351.783203 95.038086 Q 351.783203 95.569824 352.075928 95.849121 Q 352.368652 96.128418 353.168945 96.316406 L 353.738281 96.445312 Q 354.866211 96.708496 355.381836 97.272461 Q 355.897461 97.836426 355.897461 98.808594 Q 355.897461 99.952637 355.188477 100.554199 Q 354.479492 101.155762 353.125977 101.155762 Q 352.562012 101.155762 351.992676 101.034912 Q 351.423340 100.914062 350.848633 100.672363 L 350.848633 99.517578 Q 351.466309 99.909668 352.016846 100.092285 Q 352.567383 100.274902 353.125977 100.274902 Q 353.947754 100.274902 354.404297 99.906982 Q 354.860840 99.539062 354.860840 98.878418 Q 354.860840 98.276855 354.546631 97.959961 Q 354.232422 97.643066 353.453613 97.471191 L 352.873535 97.336914 Q 351.756348 97.084473 351.251465 96.574219 Q 350.746582 96.063965 350.746582 95.204590 Q 350.746582 94.130371 351.468994 93.483154 Q 352.191406 92.835938 353.389160 92.835938 Q 353.851074 92.835938 354.361328 92.940674 Q 354.871582 93.045410 355.435547 93.254883 Z " fill="black" fill-opacity="1.000000"/>
<path d="M 358.697266 95.005859 L 361.227051 95.005859 L 361.227051 100.231934 L 363.187500 100.231934 L 363.187500 101.000000 L 358.278320 101.000000 L 358.278320 100.231934 L 360.238770 100.231934 L 360.238770 95.773926 L 358.697266 95.773926 Z M 360.238770 92.669434 L 361.227051 92.669434 L 361.227051 93.915527 L 360.238770 93.915527 Z " fill="black" fill-opacity="1.000000"/>
<path d="M 368.608398 97.943848 Q 368.608398 96.832031 368.245850 96.254639 Q 367.883301 95.677246 367.190430 95.677246 Q 366.465332 95.677246 366.083984 96.254639 Q 365.702637 96.832031 365.702637 97.943848 Q 365.702637 99.055664 366.086670 99.638428 Q 366.470703 100.221191 367.201172 100.221191 Q 367.883301 100.221191 368.245850 99.635742 Q 368.608398 99.050293 368.608398 97.943848 Z M 369.596680 100.613281 Q 369.596680 101.966797 368.957520 102.665039 Q 368.318359 103.363281 367.077637 103.363281 Q 366.669434 103.363281 366.223633 103.288086 Q 365.777832 103.212891 365.332031 103.067871 L 365.332031 102.090332 Q 365.858398 102.337402 366.288086 102.455566 Q 366.717773 102.573730 367.077637 102.573730 Q 367.877930 102.573730 368.243164 102.138672 Q 368.608398 101.703613 368.608398 100.758301 L 368.608398 100.715332 L 368.608398 100.043945 Q 368.372070 100.548828 367.963867 100.795898 Q 367.555664 101.042969 366.970215 101.042969 Q 365.917480 101.042969 365.289062 100.199707 Q 364.660645 99.356445 364.660645 97.943848 Q 364.660645 96.525879 365.289062 95.682617 Q 365.917480 94.839355 366.970215 94.839355 Q 367.550293 94.839355 367.953125 95.070312 Q 368.355957 95.301270 368.608398 95.784668 L 368.608398 95.005859 L 369.596680 95.005859 Z " fill="black" fill-opacity="1.000000"/>
<path d="M 376.645020 97.272461 L 376.645020 101.000000 L 375.651367 101.000000 L 375.651367 97.272461 Q 375.651367 96.461426 375.366699 96.080078 Q 375.082031 95.698730 374.475098 95.698730 Q 373.782227 95.698730 373.408936 96.190186 Q 373.035645 96.681641 373.035645 97.600098 L 373.035645 101.000000 L 372.047363 101.000000 L 372.047363 94.984375 L 373.035645 94.984375 L 373.035645 95.886719 Q 373.298828 95.371094 373.750000 95.105225 Q 374.201172 94.839355 374.818848 94.839355 Q 375.737305 94.839355 376.191162 95.443604 Q 376.645020 96.047852 376.645020 97.272461 Z " fill="black" fill-opacity="1.000000"/>
<path d="M 381.770508 97.976074 L 381.442871 97.976074 Q 380.578125 97.976074 380.140381 98.279541 Q 379.702637 98.583008 379.702637 99.184570 Q 379.702637 99.727051 380.030273 100.027832 Q 380.357910 100.328613 380.937988 100.328613 Q 381.754395 100.328613 382.221680 99.761963 Q 382.688965 99.195312 382.694336 98.196289 L 382.694336 97.976074 Z M 383.687988 97.567871 L 383.687988 101.000000 L 382.694336 101.000000 L 382.694336 100.108398 Q 382.377441 100.645508 381.896729 100.900635 Q 381.416016 101.155762 380.728516 101.155762 Q 379.810059 101.155762 379.262207 100.637451 Q 378.714355 100.119141 378.714355 99.249023 Q 378.714355 98.244629 379.388428 97.723633 Q 380.062500 97.202637 381.367676 97.202637 L 382.694336 97.202637 L 382.694336 97.046875 Q 382.688965 96.327148 382.329102 96.002197 Q 381.969238 95.677246 381.179688 95.677246 Q 380.674805 95.677246 380.159180 95.822266 Q 379.643555 95.967285 379.154785 96.246582 L 379.154785 95.258301 Q 379.702637 95.048828 380.204834 94.944092 Q 380.707031 94.839355 381.179688 94.839355 Q 381.926270 94.839355 382.455322 95.059570 Q 382.984375 95.279785 383.312012 95.720215 Q 383.516113 95.988770 383.602051 96.383545 Q 383.687988 96.778320 383.687988 97.567871 Z " fill="black" fill-opacity="1.000000"/>
<path d="M 388.297852 93.276367 L 388.297852 94.984375 L 390.542969 94.984375 L 390.542969 95.752441 L 388.297852 95.752441 L 388.297852 99.018066 Q 388.297852 99.684082 388.550293 99.947266 Q 388.802734 100.210449 389.431152 100.210449 L 390.542969 100.210449 L 390.542969 101.000000 L 389.334473 101.000000 Q 388.222656 101.000000 387.766113 100.554199 Q 387.309570 100.108398 387.309570 99.018066 L 387.309570 95.752441 L 385.703613 95.752441 L 385.703613 94.984375 L 387.309570 94.984375 L 387.309570 93.276367 Z " fill="black" fill-opacity="1.000000"/>
<path d="M 393.047363 98.722656 L 393.047363 94.995117 L 394.035645 94.995117 L 394.035645 98.722656 Q 394.035645 99.533691 394.322998 99.915039 Q 394.610352 100.296387 395.211914 100.296387 Q 395.910156 100.296387 396.280762 99.804932 Q 396.651367 99.313477 396.651367 98.395020 L 396.651367 94.995117 L 397.645020 94.995117 L 397.645020 101.000000 L 396.651367 101.000000 L 396.651367 100.097656 Q 396.388184 100.618652 395.934326 100.887207 Q 395.480469 101.155762 394.873535 101.155762 Q 393.949707 101.155762 393.498535 100.551514 Q 393.047363 99.947266 393.047363 98.722656 Z " fill="black" fill-opacity="1.000000"/>
<path d="M 405.203613 96.225098 Q 404.886719 95.978027 404.559082 95.865234 Q 404.231445 95.752441 403.839355 95.752441 Q 402.915527 95.752441 402.426758 96.332520 Q 401.937988 96.912598 401.937988 98.008301 L 401.937988 101.000000 L 400.944336 101.000000 L 400.944336 94.984375 L 401.937988 94.984375 L 401.937988 96.160645 Q 402.185059 95.521484 402.697998 95.180420 Q 403.210938 94.839355 403.914551 94.839355 Q 404.279785 94.839355 404.596680 94.930664 Q 404.913574 95.021973 405.203613 95.215332 Z " fill="black" fill-opacity="1.000000"/>
<path d="M 412.015625 97.498047 L 412.015625 97.981445 L 407.734863 97.981445 L 407.734863 98.013672 Q 407.691895 99.243652 408.204834 99.780762 Q 408.717773 100.317871 409.652344 100.317871 Q 410.125000 100.317871 410.640625 100.167480 Q 411.156250 100.017090 411.741699 99.710938 L 411.741699 100.693848 Q 411.177734 100.924805 410.654053 101.040283 Q 410.130371 101.155762 409.641602 101.155762 Q 408.239746 101.155762 407.450195 100.315186 Q 406.660645 99.474609 406.660645 97.997559 Q 406.660645 96.558105 407.434082 95.698730 Q 408.207520 94.839355 409.496582 94.839355 Q 410.645996 94.839355 411.309326 95.618164 Q 411.972656 96.396973 412.015625 97.498047 Z M 411.027344 97.208008 Q 410.962891 96.584961 410.573486 96.131104 Q 410.184082 95.677246 409.453613 95.677246 Q 408.739258 95.677246 408.277344 96.149902 Q 407.815430 96.622559 407.772461 97.213379 Z " fill="black" fill-opacity="1.000000"/>
<path d="M 492.878906 104.319336 L 492.878906 90.300781 L 493.738281 90.300781 L 493.738281 104.319336 Z " fill="black" fill-opacity="1.000000"/>
<path d="M 6.892578 72.335938 L 6.892578 71.412109 L 13.729980 71.412109 L 13.729980 72.335938 Z " fill="black" fill-opacity="1.000000"/>
<path d="M 13.892578 72.335938 L 13.892578 71.412109 L 20.729980 71.412109 L 20.729980 72.335938 Z " fill="black" fill-opacity="1.000000"/>
<path d="M 20.892578 72.335938 L 20.892578 71.412109 L 27.729980 71.412109 L 27.729980 72.335938 Z " fill="black" fill-opacity="1.000000"/>
<path d="M 27.892578 72.335938 L 27.892578 71.412109 L 34.729980 71.412109 L 34.729980 72.335938 Z " fill="black" fill-opacity="1.000000"/>
<path d="M 34.892578 72.335938 L 34.892578 71.412109 L 41.729980 71.412109 L 41.729980 72.335938 Z " fill="black" fill-opacity="1.000000"/>
<path d="M 41.892578 72.335938 L 41.892578 71.412109 L 48.729980 71.412109 L 48.729980 72.335938 Z " fill="black" fill-opacity="1.000000"/>
<path d="M 48.892578 72.335938 L 48.892578 71.412109 L 55.729980 71.412109 L 55.729980 72.335938 Z " fill="black" fill-opacity="1.000000"/>
<path d="M 55.892578 72.335938 L 55.892578 71.412109 L 62.729980 71.412109 L 62.729980 72.335938 Z " fill="black" fill-opacity="1.000000"/>
<path d="M 62.892578 72.335938 L 62.892578 71.412109 L 69.729980 71.412109 L 69.729980 72.335938 Z " fill="black" fill-opacity="1.000000"/>
<path d="M 69.892578 72.335938 L 69.892578 71.412109 L 76.729980 71.412109 L 76.729980 72.335938 Z " fill="black" fill-opacity="1.000000"/>
<path d="M 76.892578 72.335938 L 76.892578 71.412109 L 83.729980 71.412109 L 83.729980 72.335938 Z " fill="black" fill-opacity="1.000000"/>
<path d="M 83.892578 72.335938 L 83.892578 71.412109 L 90.729980 71.412109 L 90.729980 72.335938 Z " fill="black" fill-opacity="1.000000"/>
<path d="M 90.892578 72.335938 L 90.892578 71.412109 L 97.729980 71.412109 L 97.729980 72.335938 Z " fill="black" fill-opacity="1.000000"/>
<path d="M 97.892578 72.335938 L 97.892578 71.412109 L 104.729980 71.412109 L 104.729980 72.335938 Z " fill="black" fill-opacity="1.000000"/>
<path d="M 104.892578 72.335938 L 104.892578 71.412109 L 111.729980 71.412109 L 111.729980 72.335938 Z " fill="black" fill-opacity="1.000000"/>
<path d="M 111.892578 72.335938 L 111.892578 71.412109 L 118.729980 71.412109 L 118.729980 72.335938 Z " fill="black" fill-opacity="1.000000"/>
<path d="M 118.892578 72.335938 L 118.892578 71.412109 L 125.729980 71.412109 L 125.729980 72.335938 Z " fill="black" fill-opacity="1.000000"/>
<path d="M 125.892578 72.335938 L 125.892578 71.412109 L 132.729980 71.412109 L 132.729980 72.335938 Z " fill="black" fill-opacity="1.000000"/>
<path d="M 132.892578 72.335938 L 132.892578 71.412109 L 139.729980 71.412109 L 139.729980 72.335938 Z " fill="black" fill-opacity="1.000000"/>
<path d="M 139.892578 72.335938 L 139.892578 71.412109 L 146.729980 71.412109 L 146.729980 72.335938 Z " fill="black" fill-opacity="1.000000"/>
<path d="M 146.892578 72.335938 L 146.892578 71.412109 L 153.729980 71.412109 L 153.729980 72.335938 Z " fill="black" fill-opacity="1.000000"/>
<path d="M 153.892578 72.335938 L 153.892578 71.412109 L 160.729980 71.412109 L 160.729980 72.335938 Z " fill="black" fill-opacity="1.000000"/>
<path d="M 160.892578 72.335938 L 160.892578 71.412109 L 167.729980 71.412109 L 167.729980 72.335938 Z " fill="black" fill-opacity="1.000000"/>
<path d="M 167.892578 72.335938 L 167.892578 71.412109 L 174.729980 71.412109 L 174.729980 72.335938 Z " fill="black" fill-opacity="1.000000"/>
<path d="M 174.892578 72.335938 L 174.892578 71.412109 L 181.729980 71.412109 L 181.729980 72.335938 Z " fill="black" fill-opacity="1.000000"/>
<path d="M 181.892578 72.335938 L 181.892578 71.412109 L 188.729980 71.412109 L 188.729980 72.335938 Z " fill="black" fill-opacity="1.000000"/>
<path d="M 188.892578 72.335938 L 188.892578 71.412109 L 195.729980 71.412109 L 195.729980 72.335938 Z " fill="black" fill-opacity="1.000000"/>
<path d="M 195.892578 72.335938 L 195.892578 71.412109 L 202.729980 71.412109 L 202.729980 72.335938 Z " fill="black" fill-opacity="1.000000"/>
<path d="M 202.892578 72.335938 L 202.892578 71.412109 L 209.729980 71.412109 L 209.729980 72.335938 Z " fill="black" fill-opacity="1.000000"/>
<path d="M 209.892578 72.335938 L 209.892578 71.412109 L 216.729980 71.412109 L 216.729980 72.335938 Z " fill="black" fill-opacity="1.000000"/>
<path d="M 216.892578 72.335938 L 216.892578 71.412109 L 223.729980 71.412109 L 223.729980 72.335938 Z " fill="black" fill-opacity="1.000000"/>
<path d="M 223.892578 72.335938 L 223.892578 71.412109 L 230.729980 71.412109 L 230.729980 72.335938 Z " fill="black" fill-opacity="1.000000"/>
<path d="M 230.892578 72.335938 L 230.892578 71.412109 L 237.729980 71.412109 L 237.729980 72.335938 Z " fill="black" fill-opacity="1.000000"/>
<path d="M 237.892578 72.335938 L 237.892578 71.412109 L 244.729980 71.412109 L 244.729980 72.335938 Z " fill="black" fill-opacity="1.000000"/>
<path d="M 244.892578 72.335938 L 244.892578 71.412109 L 251.729980 71.412109 L 251.729980 72.335938 Z " fill="black" fill-opacity="1.000000"/>
<path d="M 251.892578 72.335938 L 251.892578 71.412109 L 258.729980 71.412109 L 258.729980 72.335938 Z " fill="black" fill-opacity="1.000000"/>
<path d="M 258.892578 72.335938 L 258.892578 71.412109 L 265.729980 71.412109 L 265.729980 72.335938 Z " fill="black" fill-opacity="1.000000"/>
<path d="M 265.892578 72.335938 L 265.892578 71.412109 L 272.729980 71.412109 L 272.729980 72.335938 Z " fill="black" fill-opacity="1.000000"/>
<path d="M 272.892578 72.335938 L 272.892578 71.412109 L 279.729980 71.412109 L 279.729980 72.335938 Z " fill="black" fill-opacity="1.000000"/>
<path d="M 279.892578 72.335938 L 279.892578 71.412109 L 286.729980 71.412109 L 286.729980 72.335938 Z " fill="black" fill-opacity="1.000000"/>
<path d="M 286.892578 72.335938 L 286.892578 71.412109 L 293.729980 71.412109 L 293.729980 72.335938 Z " fill="black" fill-opacity="1.000000"/>
<path d="M 293.892578 72.335938 L 293.892578 71.412109 L 300.729980 71.412109 L 300.729980 72.335938 Z " fill="black" fill-opacity="1.000000"/>
<path d="M 300.892578 72.335938 L 300.892578 71.412109 L 307.729980 71.412109 L 307.729980 72.335938 Z " fill="black" fill-opacity="1.000000"/>
<path d="M 307.892578 72.335938 L 307.892578 71.412109 L 314.729980 71.412109 L 314.729980 72.335938 Z " fill="black" fill-opacity="1.000000"/>
<path d="M 314.892578 72.335938 L 314.892578 71.412109 L 321.729980 71.412109 L 321.729980 72.335938 Z " fill="black" fill-opacity="1.000000"/>
<path d="M 321.892578 72.335938 L 321.892578 71.412109 L 328.729980 71.412109 L 328.729980 72.335938 Z " fill="black" fill-opacity="1.000000"/>
<path d="M 328.892578 72.335938 L 328.892578 71.412109 L 335.729980 71.412109 L 335.729980 72.335938 Z " fill="black" fill-opacity="1.000000"/>
<path d="M 335.892578 72.335938 L 335.892578 71.412109 L 342.729980 71.412109 L 342.729980 72.335938 Z " fill="black" fill-opacity="1.000000"/>
<path d="M 342.892578 72.335938 L 342.892578 71.412109 L 349.729980 71.412109 L 349.729980 72.335938 Z " fill="black" fill-opacity="1.000000"/>
<path d="M 349.892578 72.335938 L 349.892578 71.412109 L 356.729980 71.412109 L 356.729980 72.335938 Z " fill="black" fill-opacity="1.000000"/>
<path d="M 356.892578 72.335938 L 356.892578 71.412109 L 363.729980 71.412109 L 363.729980 72.335938 Z " fill="black" fill-opacity="1.000000"/>
<path d="M 363.892578 72.335938 L 363.892578 71.412109 L 370.729980 71.412109 L 370.729980 72.335938 Z " fill="black" fill-opacity="1.000000"/>
<path d="M 370.892578 72.335938 L 370.892578 71.412109 L 377.729980 71.412109 L 377.729980 72.335938 Z " fill="black" fill-opacity="1.000000"/>
<path d="M 377.892578 72.335938 L 377.892578 71.412109 L 384.729980 71.412109 L 384.729980 72.335938 Z " fill="black" fill-opacity="1.000000"/>
<path d="M 384.892578 72.335938 L 384.892578 71.412109 L 391.729980 71.412109 L 391.729980 72.335938 Z " fill="black" fill-opacity="1.000000"/>
<path d="M 391.892578 72.335938 L 391.892578 71.412109 L 398.729980 71.412109 L 398.729980 72.335938 Z " fill="black" fill-opacity="1.000000"/>
<path d="M 398.892578 72.335938 L 398.892578 71.412109 L 405.729980 71.412109 L 405.729980 72.335938 Z " fill="black" fill-opacity="1.000000"/>
<path d="M 405.892578 72.335938 L 405.892578 71.412109 L 412.729980 71.412109 L 412.729980 72.335938 Z " fill="black" fill-opacity="1.000000"/>
<path d="M 412.892578 72.335938 L 412.892578 71.412109 L 419.729980 71.412109 L 419.729980 72.335938 Z " fill="black" fill-opacity="1.000000"/>
<path d="M 419.892578 72.335938 L 419.892578 71.412109 L 426.729980 71.412109 L 426.729980 72.335938 Z " fill="black" fill-opacity="1.000000"/>
<path d="M 426.892578 72.335938 L 426.892578 71.412109 L 433.729980 71.412109 L 433.729980 72.335938 Z " fill="black" fill-opacity="1.000000"/>
<path d="M 433.892578 72.335938 L 433.892578 71.412109 L 440.729980 71.412109 L 440.729980 72.335938 Z " fill="black" fill-opacity="1.000000"/>
<path d="M 440.892578 72.335938 L 440.892578 71.412109 L 447.729980 71.412109 L 447.729980 72.335938 Z " fill="black" fill-opacity="1.000000"/>
<path d="M 447.892578 72.335938 L 447.892578 71.412109 L 454.729980 71.412109 L 454.729980 72.335938 Z " fill="black" fill-opacity="1.000000"/>
<path d="M 454.892578 72.335938 L 454.892578 71.412109 L 461.729980 71.412109 L 461.729980 72.335938 Z " fill="black" fill-opacity="1.000000"/>
<path d="M 461.892578 72.335938 L 461.892578 71.412109 L 468.729980 71.412109 L 468.729980 72.335938 Z " fill="black" fill-opacity="1.000000"/>
<path d="M 468.892578 72.335938 L 468.892578 71.412109 L 475.729980 71.412109 L 475.729980 72.335938 Z " fill="black" fill-opacity="1.000000"/>
<path d="M 475.892578 72.335938 L 475.892578 71.412109 L 482.729980 71.412109 L 482.729980 72.335938 Z " fill="black" fill-opacity="1.000000"/>
<path d="M 482.892578 72.335938 L 482.892578 71.412109 L 489.729980 71.412109 L 489.729980 72.335938 Z " fill="black" fill-opacity="1.000000"/>
<path d="M 6.892578 85.335938 L 6.892578 84.412109 L 13.729980 84.412109 L 13.729980 85.335938 Z " fill="black" fill-opacity="1.000000"/>
<path d="M 13.892578 85.335938 L 13.892578 84.412109 L 20.729980 84.412109 L 20.729980 85.335938 Z " fill="black" fill-opacity="1.000000"/>
<path d="M 20.892578 85.335938 L 20.892578 84.412109 L 27.729980 84.412109 L 27.729980 85.335938 Z " fill="black" fill-opacity="1.000000"/>
<path d="M 27.892578 85.335938 L 27.892578 84.412109 L 34.729980 84.412109 L 34.729980 85.335938 Z " fill="black" fill-opacity="1.000000"/>
<path d="M 34.892578 85.335938 L 34.892578 84.412109 L 41.729980 84.412109 L 41.729980 85.335938 Z " fill="black" fill-opacity="1.000000"/>
<path d="M 41.892578 85.335938 L 41.892578 84.412109 L 48.729980 84.412109 L 48.729980 85.335938 Z " fill="black" fill-opacity="1.000000"/>
<path d="M 48.892578 85.335938 L 48.892578 84.412109 L 55.729980 84.412109 L 55.729980 85.335938 Z " fill="black" fill-opacity="1.000000"/>
<path d="M 55.892578 85.335938 L 55.892578 84.412109 L 62.729980 84.412109 L 62.729980 85.335938 Z " fill="black" fill-opacity="1.000000"/>
<path d="M 62.892578 85.335938 L 62.892578 84.412109 L 69.729980 84.412109 L 69.729980 85.335938 Z " fill="black" fill-opacity="1.000000"/>
<path d="M 69.892578 85.335938 L 69.892578 84.412109 L 76.729980 84.412109 L 76.729980 85.335938 Z " fill="black" fill-opacity="1.000000"/>
<path d="M 76.892578 85.335938 L 76.892578 84.412109 L 83.729980 84.412109 L 83.729980 85.335938 Z " fill="black" fill-opacity="1.000000"/>
<path d="M 83.892578 85.335938 L 83.892578 84.412109 L 90.729980 84.412109 L 90.729980 85.335938 Z " fill="black" fill-opacity="1.000000"/>
<path d="M 90.892578 85.335938 L 90.892578 84.412109 L 97.729980 84.412109 L 97.729980 85.335938 Z " fill="black" fill-opacity="1.000000"/>
<path d="M 97.892578 85.335938 L 97.892578 84.412109 L 104.729980 84.412109 L 104.729980 85.335938 Z " fill="black" fill-opacity="1.000000"/>
<path d="M 104.892578 85.335938 L 104.892578 84.412109 L 111.729980 84.412109 L 111.729980 85.335938 Z " fill="black" fill-opacity="1.000000"/>
<path d="M 111.892578 85.335938 L 111.892578 84.412109 L 118.729980 84.412109 L 118.729980 85.335938 Z " fill="black" fill-opacity="1.000000"/>
<path d="M 118.892578 85.335938 L 118.892578 84.412109 L 125.729980 84.412109 L 125.729980 85.335938 Z " fill="black" fill-opacity="1.000000"/>
<path d="M 125.892578 85.335938 L 125.892578 84.412109 L 132.729980 84.412109 L 132.729980 85.335938 Z " fill="black" fill-opacity="1.000000"/>
<path d="M 132.892578 85.335938 L 132.892578 84.412109 L 139.729980 84.412109 L 139.729980 85.335938 Z " fill="black" fill-opacity="1.000000"/>
<path d="M 139.892578 85.335938 L 139.892578 84.412109 L 146.729980 84.412109 L 146.729980 85.335938 Z " fill="black" fill-opacity="1.000000"/>
<path d="M 149.878906 91.319336 L 149.878906 85.335938 L 146.892578 85.335938 L 146.892578 84.412109 L 153.729980 84.412109 L 153.729980 85.335938 L 150.738281 85.335938 L 150.738281 91.319336 Z " fill="black" fill-opacity="1.000000"/>
<path d="M 153.892578 85.335938 L 153.892578 84.412109 L 160.729980 84.412109 L 160.729980 85.335938 Z " fill="black" fill-opacity="1.000000"/>
<path d="M 160.892578 85.335938 L 160.892578 84.412109 L 167.729980 84.412109 L 167.729980 85.335938 Z " fill="black" fill-opacity="1.000000"/>
<path d="M 167.892578 85.335938 L 167.892578 84.412109 L 174.729980 84.412109 L 174.729980 85.335938 Z " fill="black" fill-opacity="1.000000"/>
<path d="M 174.892578 85.335938 L 174.892578 84.412109 L 181.729980 84.412109 L 181.729980 85.335938 Z " fill="black" fill-opacity="1.000000"/>
<path d="M 181.892578 85.335938 L 181.892578 84.412109 L 188.729980 84.412109 L 188.729980 85.335938 Z " fill="black" fill-opacity="1.000000"/>
<path d="M 188.892578 85.335938 L 188.892578 84.412109 L 195.729980 84.412109 L 195.729980 85.335938 Z " fill="black" fill-opacity="1.000000"/>
<path d="M 195.892578 85.335938 L 195.892578 84.412109 L 202.729980 84.412109 L 202.729980 85.335938 Z " fill="black" fill-opacity="1.000000"/>
<path d="M 202.892578 85.335938 L 202.892578 84.412109 L 209.729980 84.412109 L 209.729980 85.335938 Z " fill="black" fill-opacity="1.000000"/>
<path d="M 209.892578 85.335938 L 209.892578 84.412109 L 216.729980 84.412109 L 216.729980 85.335938 Z " fill="black" fill-opacity="1.000000"/>
<path d="M 216.892578 85.335938 L 216.892578 84.412109 L 223.729980 84.412109 L 223.729980 85.335938 Z " fill="black" fill-opacity="1.000000"/>
<path d="M 223.892578 85.335938 L 223.892578 84.412109 L 230.729980 84.412109 L 230.729980 85.335938 Z " fill="black" fill-opacity="1.000000"/>
<path d="M 230.892578 85.335938 L 230.892578 84.412109 L 237.729980 84.412109 L 237.729980 85.335938 Z " fill="black" fill-opacity="1.000000"/>
<path d="M 237.892578 85.335938 L 237.892578 84.412109 L 244.729980 84.412109 L 244.729980 85.335938 Z " fill="black" fill-opacity="1.000000"/>
<path d="M 244.892578 85.335938 L 244.892578 84.412109 L 251.729980 84.412109 L 251.729980 85.335938 Z " fill="black" fill-opacity="1.000000"/>
<path d="M 251.892578 85.335938 L 251.892578 84.412109 L 258.729980 84.412109 L 258.729980 85.335938 Z " fill="black" fill-opacity="1.000000"/>
<path d="M 258.892578 85.335938 L 258.892578 84.412109 L 265.729980 84.412109 L 265.729980 85.335938 Z " fill="black" fill-opacity="1.000000"/>
<path d="M 265.892578 85.335938 L 265.892578 84.412109 L 272.729980 84.412109 L 272.729980 85.335938 Z " fill="black" fill-opacity="1.000000"/>
<path d="M 275.878906 91.319336 L 275.878906 85.335938 L 272.892578 85.335938 L 272.892578 84.412109 L 279.729980 84.412109 L 279.729980 85.335938 L 276.738281 85.335938 L 276.738281 91.319336 Z " fill="black" fill-opacity="1.000000"/>
<path d="M 279.892578 85.335938 L 279.892578 84.412109 L 286.729980 84.412109 L 286.729980 85.335938 Z " fill="black" fill-opacity="1.000000"/>
<path d="M 286.892578 85.335938 L 286.892578 84.412109 L 293.729980 84.412109 L 293.729980 85.335938 Z " fill="black" fill-opacity="1.000000"/>
<path d="M 293.892578 85.335938 L 293.892578 84.412109 L 300.729980 84.412109 L 300.729980 85.335938 Z " fill="black" fill-opacity="1.000000"/>
<path d="M 300.892578 85.335938 L 300.892578 84.412109 L 307.729980 84.412109 L 307.729980 85.335938 Z " fill="black" fill-opacity="1.000000"/>
<path d="M 307.892578 85.335938 L 307.892578 84.412109 L 314.729980 84.412109 L 314.729980 85.335938 Z " fill="black" fill-opacity="1.000000"/>
<path d="M 314.892578 85.335938 L 314.892578 84.412109 L 321.729980 84.412109 L 321.729980 85.335938 Z " fill="black" fill-opacity="1.000000"/>
<path d="M 321.892578 85.335938 L 321.892578 84.412109 L 328.729980 84.412109 L 328.729980 85.335938 Z " fill="black" fill-opacity="1.000000"/>
<path d="M 328.892578 85.335938 L 328.892578 84.412109 L 335.729980 84.412109 L 335.729980 85.335938 Z " fill="black" fill-opacity="1.000000"/>
<path d="M 335.892578 85.335938 L 335.892578 84.412109 L 342.729980 84.412109 L 342.729980 85.335938 Z " fill="black" fill-opacity="1.000000"/>
<path d="M 342.892578 85.335938 L 342.892578 84.412109 L 349.729980 84.412109 L 349.729980 85.335938 Z " fill="black" fill-opacity="1.000000"/>
<path d="M 349.892578 85.335938 L 349.892578 84.412109 L 356.729980 84.412109 L 356.729980 85.335938 Z " fill="black" fill-opacity="1.000000"/>
<path d="M 356.892578 85.335938 L 356.892578 84.412109 L 363.729980 84.412109 L 363.729980 85.335938 Z " fill="black" fill-opacity="1.000000"/>
<path d="M 363.892578 85.335938 L 363.892578 84.412109 L 370.729980 84.412109 L 370.729980 85.335938 Z " fill="black" fill-opacity="1.000000"/>
<path d="M 370.892578 85.335938 L 370.892578 84.412109 L 377.729980 84.412109 L 377.729980 85.335938 Z " fill="black" fill-opacity="1.000000"/>
<path d="M 377.892578 85.335938 L 377.892578 84.412109 L 384.729980 84.412109 L 384.729980 85.335938 Z " fill="black" fill-opacity="1.000000"/>
<path d="M 384.892578 85.335938 L 384.892578 84.412109 L 391.729980 84.412109 L 391.729980 85.335938 Z " fill="black" fill-opacity="1.000000"/>
<path d="M 391.892578 85.335938 L 391.892578 84.412109 L 398.729980 84.412109 L 398.729980 85.335938 Z " fill="black" fill-opacity="1.000000"/>
<path d="M 398.892578 85.335938 L 398.892578 84.412109 L 405.729980 84.412109 L 405.729980 85.335938 Z " fill="black" fill-opacity="1.000000"/>
<path d="M 405.892578 85.335938 L 405.892578 84.412109 L 412.729980 84.412109 L 412.729980 85.335938 Z " fill="black" fill-opacity="1.000000"/>
<path d="M 412.892578 85.335938 L 412.892578 84.412109 L 419.729980 84.412109 L 419.729980 85.335938 Z " fill="black" fill-opacity="1.000000"/>
<path d="M 419.892578 85.335938 L 419.892578 84.412109 L 426.729980 84.412109 L 426.729980 85.335938 Z " fill="black" fill-opacity="1.000000"/>
<path d="M 426.892578 85.335938 L 426.892578 84.412109 L 433.729980 84.412109 L 433.729980 85.335938 Z " fill="black" fill-opacity="1.000000"/>
<path d="M 433.892578 85.335938 L 433.892578 84.412109 L 440.729980 84.412109 L 440.729980 85.335938 Z " fill="black" fill-opacity="1.000000"/>
<path d="M 440.892578 85.335938 L 440.892578 84.412109 L 447.729980 84.412109 L 447.729980 85.335938 Z " fill="black" fill-opacity="1.000000"/>
<path d="M 447.892578 85.335938 L 447.892578 84.412109 L 454.729980 84.412109 L 454.729980 85.335938 Z " fill="black" fill-opacity="1.000000"/>
<path d="M 454.892578 85.335938 L 454.892578 84.412109 L 461.729980 84.412109 L 461.729980 85.335938 Z " fill="black" fill-opacity="1.000000"/>
<path d="M 461.892578 85.335938 L 461.892578 84.412109 L 468.729980 84.412109 L 468.729980 85.335938 Z " fill="black" fill-opacity="1.000000"/>
<path d="M 468.892578 85.335938 L 468.892578 84.412109 L 475.729980 84.412109 L 475.729980 85.335938 Z " fill="black" fill-opacity="1.000000"/>
<path d="M 475.892578 85.335938 L 475.892578 84.412109 L 482.729980 84.412109 L 482.729980 85.335938 Z " fill="black" fill-opacity="1.000000"/>
<path d="M 482.892578 85.335938 L 482.892578 84.412109 L 489.729980 84.412109 L 489.729980 85.335938 Z " fill="black" fill-opacity="1.000000"/>
<path d="M 492.878906 91.319336 L 492.878906 85.335938 L 489.892578 85.335938 L 489.892578 84.412109 L 493.738281 84.412109 L 493.738281 91.319336 Z " fill="black" fill-opacity="1.000000"/>
<path d="M 492.878906 78.319336 L 492.878906 72.335938 L 489.892578 72.335938 L 489.892578 71.412109 L 493.738281 71.412109 L 493.738281 78.319336 Z " fill="black" fill-opacity="1.000000"/>
<path d="M 58.878906 13.319336 L 58.878906 6.412109 L 62.729980 6.412109 L 62.729980 7.335938 L 59.738281 7.335938 L 59.738281 13.319336 Z " fill="black" fill-opacity="1.000000"/>
<path d="M 58.878906 26.319336 L 58.878906 12.300781 L 59.738281 12.300781 L 59.738281 26.319336 Z " fill="black" fill-opacity="1.000000"/>
<path d="M 58.878906 33.335938 L 58.878906 25.300781 L 59.738281 25.300781 L 59.738281 32.412109 L 62.729980 32.412109 L 62.729980 33.335938 Z " fill="black" fill-opacity="1.000000"/>
<path d="M 58.878906 46.335938 L 58.878906 38.300781 L 59.738281 38.300781 L 59.738281 45.412109 L 62.729980 45.412109 L 62.729980 46.335938 Z " fill="black" fill-opacity="1.000000"/>
<path d="M 248.308594 62.418945 L 245.032227 55.866211 L 251.590332 55.866211 Z " fill="black" fill-opacity="1.000000"/>
<path d="M 62.892578 33.335938 L 62.892578 32.412109 L 69.729980 32.412109 L 69.729980 33.335938 Z " fill="black" fill-opacity="1.000000"/>
<path d="M 69.892578 33.335938 L 69.892578 32.412109 L 76.729980 32.412109 L 76.729980 33.335938 Z " fill="black" fill-opacity="1.000000"/>
<path d="M 76.892578 33.335938 L 76.892578 32.412109 L 83.729980 32.412109 L 83.729980 33.335938 Z " fill="black" fill-opacity="1.000000"/>
<path d="M 83.892578 33.335938 L 83.892578 32.412109 L 90.729980 32.412109 L 90.729980 33.335938 Z " fill="black" fill-opacity="1.000000"/>
<path d="M 90.892578 33.335938 L 90.892578 32.412109 L 97.729980 32.412109 L 97.729980 33.335938 Z " fill="black" fill-opacity="1.000000"/>
<path d="M 97.892578 33.335938 L 97.892578 32.412109 L 104.729980 32.412109 L 104.729980 33.335938 Z " fill="black" fill-opacity="1.000000"/>
<path d="M 104.892578 33.335938 L 104.892578 32.412109 L 111.729980 32.412109 L 111.729980 33.335938 Z " fill="black" fill-opacity="1.000000"/>
<path d="M 111.892578 33.335938 L 111.892578 32.412109 L 118.729980 32.412109 L 118.729980 33.335938 Z " fill="black" fill-opacity="1.000000"/>
<path d="M 118.892578 33.335938 L 118.892578 32.412109 L 125.729980 32.412109 L 125.729980 33.335938 Z " fill="black" fill-opacity="1.000000"/>
<path d="M 125.892578 33.335938 L 125.892578 32.412109 L 132.729980 32.412109 L 132.729980 33.335938 Z " fill="black" fill-opacity="1.000000"/>
<path d="M 132.892578 33.335938 L 132.892578 32.412109 L 139.729980 32.412109 L 139.729980 33.335938 Z " fill="black" fill-opacity="1.000000"/>
<path d="M 139.892578 33.335938 L 139.892578 32.412109 L 146.729980 32.412109 L 146.729980 33.335938 Z " fill="black" fill-opacity="1.000000"/>
<path d="M 146.892578 33.335938 L 146.892578 32.412109 L 153.729980 32.412109 L 153.729980 33.335938 Z " fill="black" fill-opacity="1.000000"/>
<path d="M 153.892578 33.335938 L 153.892578 32.412109 L 160.729980 32.412109 L 160.729980 33.335938 Z " fill="black" fill-opacity="1.000000"/>
<path d="M 160.892578 33.335938 L 160.892578 32.412109 L 167.729980 32.412109 L 167.729980 33.335938 Z " fill="black" fill-opacity="1.000000"/>
<path d="M 167.892578 33.335938 L 167.892578 32.412109 L 174.729980 32.412109 L 174.729980 33.335938 Z " fill="black" fill-opacity="1.000000"/>
<path d="M 174.892578 33.335938 L 174.892578 32.412109 L 181.729980 32.412109 L 181.729980 33.335938 Z " fill="black" fill-opacity="1.000000"/>
<path d="M 181.892578 33.335938 L 181.892578 32.412109 L 188.729980 32.412109 L 188.729980 33.335938 Z " fill="black" fill-opacity="1.000000"/>
<path d="M 188.892578 33.335938 L 188.892578 32.412109 L 195.729980 32.412109 L 195.729980 33.335938 Z " fill="black" fill-opacity="1.000000"/>
<path d="M 195.892578 33.335938 L 195.892578 32.412109 L 202.729980 32.412109 L 202.729980 33.335938 Z " fill="black" fill-opacity="1.000000"/>
<path d="M 202.892578 33.335938 L 202.892578 32.412109 L 209.729980 32.412109 L 209.729980 33.335938 Z " fill="black" fill-opacity="1.000000"/>
<path d="M 209.892578 33.335938 L 209.892578 32.412109 L 216.729980 32.412109 L 216.729980 33.335938 Z " fill="black" fill-opacity="1.000000"/>
<path d="M 216.892578 33.335938 L 216.892578 32.412109 L 223.729980 32.412109 L 223.729980 33.335938 Z " fill="black" fill-opacity="1.000000"/>
<path d="M 223.892578 33.335938 L 223.892578 32.412109 L 230.729980 32.412109 L 230.729980 33.335938 Z " fill="black" fill-opacity="1.000000"/>
<path d="M 230.892578 33.335938 L 230.892578 32.412109 L 237.729980 32.412109 L 237.729980 33.335938 Z " fill="black" fill-opacity="1.000000"/>
<path d="M 237.892578 33.335938 L 237.892578 32.412109 L 244.729980 32.412109 L 244.729980 33.335938 Z " fill="black" fill-opacity="1.000000"/>
<path d="M 244.892578 33.335938 L 244.892578 32.412109 L 251.729980 32.412109 L 251.729980 33.335938 Z " fill="black" fill-opacity="1.000000"/>
<path d="M 251.892578 33.335938 L 251.892578 32.412109 L 258.729980 32.412109 L 258.729980 33.335938 Z " fill="black" fill-opacity="1.000000"/>
<path d="M 258.892578 33.335938 L 258.892578 32.412109 L 265.729980 32.412109 L 265.729980 33.335938 Z " fill="black" fill-opacity="1.000000"/>
<path d="M 265.892578 33.335938 L 265.892578 32.412109 L 272.729980 32.412109 L 272.729980 33.335938 Z " fill="black" fill-opacity="1.000000"/>
<path d="M 272.892578 33.335938 L 272.892578 32.412109 L 279.729980 32.412109 L 279.729980 33.335938 Z " fill="black" fill-opacity="1.000000"/>
<path d="M 279.892578 33.335938 L 279.892578 32.412109 L 286.729980 32.412109 L 286.729980 33.335938 Z " fill="black" fill-opacity="1.000000"/>
<path d="M 286.892578 33.335938 L 286.892578 32.412109 L 293.729980 32.412109 L 293.729980 33.335938 Z " fill="black" fill-opacity="1.000000"/>
<path d="M 293.892578 33.335938 L 293.892578 32.412109 L 300.729980 32.412109 L 300.729980 33.335938 Z " fill="black" fill-opacity="1.000000"/>
<path d="M 300.892578 33.335938 L 300.892578 32.412109 L 307.729980 32.412109 L 307.729980 33.335938 Z " fill="black" fill-opacity="1.000000"/>
<path d="M 307.892578 33.335938 L 307.892578 32.412109 L 314.729980 32.412109 L 314.729980 33.335938 Z " fill="black" fill-opacity="1.000000"/>
<path d="M 314.892578 33.335938 L 314.892578 32.412109 L 321.729980 32.412109 L 321.729980 33.335938 Z " fill="black" fill-opacity="1.000000"/>
<path d="M 321.892578 33.335938 L 321.892578 32.412109 L 328.729980 32.412109 L 328.729980 33.335938 Z " fill="black" fill-opacity="1.000000"/>
<path d="M 328.892578 33.335938 L 328.892578 32.412109 L 335.729980 32.412109 L 335.729980 33.335938 Z " fill="black" fill-opacity="1.000000"/>
<path d="M 335.892578 33.335938 L 335.892578 32.412109 L 342.729980 32.412109 L 342.729980 33.335938 Z " fill="black" fill-opacity="1.000000"/>
<path d="M 342.892578 33.335938 L 342.892578 32.412109 L 349.729980 32.412109 L 349.729980 33.335938 Z " fill="black" fill-opacity="1.000000"/>
<path d="M 349.892578 33.335938 L 349.892578 32.412109 L 356.729980 32.412109 L 356.729980 33.335938 Z " fill="black" fill-opacity="1.000000"/>
<path d="M 356.892578 33.335938 L 356.892578 32.412109 L 363.729980 32.412109 L 363.729980 33.335938 Z " fill="black" fill-opacity="1.000000"/>
<path d="M 363.892578 33.335938 L 363.892578 32.412109 L 370.729980 32.412109 L 370.729980 33.335938 Z " fill="black" fill-opacity="1.000000"/>
<path d="M 370.892578 33.335938 L 370.892578 32.412109 L 377.729980 32.412109 L 377.729980 33.335938 Z " fill="black" fill-opacity="1.000000"/>
<path d="M 377.892578 33.335938 L 377.892578 32.412109 L 384.729980 32.412109 L 384.729980 33.335938 Z " fill="black" fill-opacity="1.000000"/>
<path d="M 384.892578 33.335938 L 384.892578 32.412109 L 391.729980 32.412109 L 391.729980 33.335938 Z " fill="black" fill-opacity="1.000000"/>
<path d="M 391.892578 33.335938 L 391.892578 32.412109 L 398.729980 32.412109 L 398.729980 33.335938 Z " fill="black" fill-opacity="1.000000"/>
<path d="M 398.892578 33.335938 L 398.892578 32.412109 L 405.729980 32.412109 L 405.729980 33.335938 Z " fill="black" fill-opacity="1.000000"/>
<path d="M 405.892578 33.335938 L 405.892578 32.412109 L 412.729980 32.412109 L 412.729980 33.335938 Z " fill="black" fill-opacity="1.000000"/>
<path d="M 412.892578 33.335938 L 412.892578 32.412109 L 419.729980 32.412109 L 419.729980 33.335938 Z " fill="black" fill-opacity="1.000000"/>
<path d="M 419.892578 33.335938 L 419.892578 32.412109 L 426.729980 32.412109 L 426.729980 33.335938 Z " fill="black" fill-opacity="1.000000"/>
<path d="M 426.892578 33.335938 L 426.892578 32.412109 L 433.729980 32.412109 L 433.729980 33.335938 Z " fill="black" fill-opacity="1.000000"/>
<path d="M 433.892578 33.335938 L 433.892578 32.412109 L 440.729980 32.412109 L 440.729980 33.335938 Z " fill="black" fill-opacity="1.000000"/>
<path d="M 62.892578 46.335938 L 62.892578 45.412109 L 69.729980 45.412109 L 69.729980 46.335938 Z " fill="black" fill-opacity="1.000000"/>
<path d="M 69.892578 46.335938 L 69.892578 45.412109 L 76.729980 45.412109 L 76.729980 46.335938 Z " fill="black" fill-opacity="1.000000"/>
<path d="M 76.892578 46.335938 L 76.892578 45.412109 L 83.729980 45.412109 L 83.729980 46.335938 Z " fill="black" fill-opacity="1.000000"/>
<path d="M 83.892578 46.335938 L 83.892578 45.412109 L 90.729980 45.412109 L 90.729980 46.335938 Z " fill="black" fill-opacity="1.000000"/>
<path d="M 90.892578 46.335938 L 90.892578 45.412109 L 97.729980 45.412109 L 97.729980 46.335938 Z " fill="black" fill-opacity="1.000000"/>
<path d="M 97.892578 46.335938 L 97.892578 45.412109 L 104.729980 45.412109 L 104.729980 46.335938 Z " fill="black" fill-opacity="1.000000"/>
<path d="M 104.892578 46.335938 L 104.892578 45.412109 L 111.729980 45.412109 L 111.729980 46.335938 Z " fill="black" fill-opacity="1.000000"/>
<path d="M 111.892578 46.335938 L 111.892578 45.412109 L 118.729980 45.412109 L 118.729980 46.335938 Z " fill="black" fill-opacity="1.000000"/>
<path d="M 118.892578 46.335938 L 118.892578 45.412109 L 125.729980 45.412109 L 125.729980 46.335938 Z " fill="black" fill-opacity="1.000000"/>
<path d="M 125.892578 46.335938 L 125.892578 45.412109 L 132.729980 45.412109 L 132.729980 46.335938 Z " fill="black" fill-opacity="1.000000"/>
<path d="M 132.892578 46.335938 L 132.892578 45.412109 L 139.729980 45.412109 L 139.729980 46.335938 Z " fill="black" fill-opacity="1.000000"/>
<path d="M 139.892578 46.335938 L 139.892578 45.412109 L 146.729980 45.412109 L 146.729980 46.335938 Z " fill="black" fill-opacity="1.000000"/>
<path d="M 146.892578 46.335938 L 146.892578 45.412109 L 153.729980 45.412109 L 153.729980 46.335938 Z " fill="black" fill-opacity="1.000000"/>
<path d="M 153.892578 46.335938 L 153.892578 45.412109 L 160.729980 45.412109 L 160.729980 46.335938 Z " fill="black" fill-opacity="1.000000"/>
<path d="M 160.892578 46.335938 L 160.892578 45.412109 L 167.729980 45.412109 L 167.729980 46.335938 Z " fill="black" fill-opacity="1.000000"/>
<path d="M 167.892578 46.335938 L 167.892578 45.412109 L 174.729980 45.412109 L 174.729980 46.335938 Z " fill="black" fill-opacity="1.000000"/>
<path d="M 174.892578 46.335938 L 174.892578 45.412109 L 181.729980 45.412109 L 181.729980 46.335938 Z " fill="black" fill-opacity="1.000000"/>
<path d="M 181.892578 46.335938 L 181.892578 45.412109 L 188.729980 45.412109 L 188.729980 46.335938 Z " fill="black" fill-opacity="1.000000"/>
<path d="M 188.892578 46.335938 L 188.892578 45.412109 L 195.729980 45.412109 L 195.729980 46.335938 Z " fill="black" fill-opacity="1.000000"/>
<path d="M 195.892578 46.335938 L 195.892578 45.412109 L 202.729980 45.412109 L 202.729980 46.335938 Z " fill="black" fill-opacity="1.000000"/>
<path d="M 202.892578 46.335938 L 202.892578 45.412109 L 209.729980 45.412109 L 209.729980 46.335938 Z " fill="black" fill-opacity="1.000000"/>
<path d="M 209.892578 46.335938 L 209.892578 45.412109 L 216.729980 45.412109 L 216.729980 46.335938 Z " fill="black" fill-opacity="1.000000"/>
<path d="M 216.892578 46.335938 L 216.892578 45.412109 L 223.729980 45.412109 L 223.729980 46.335938 Z " fill="black" fill-opacity="1.000000"/>
<path d="M 223.892578 46.335938 L 223.892578 45.412109 L 230.729980 45.412109 L 230.729980 46.335938 Z " fill="black" fill-opacity="1.000000"/>
<path d="M 230.892578 46.335938 L 230.892578 45.412109 L 237.729980 45.412109 L 237.729980 46.335938 Z " fill="black" fill-opacity="1.000000"/>
<path d="M 237.892578 46.335938 L 237.892578 45.412109 L 244.729980 45.412109 L 244.729980 46.335938 Z " fill="black" fill-opacity="1.000000"/>
<path d="M 247.878906 52.319336 L 247.878906 46.335938 L 244.892578 46.335938 L 244.892578 45.412109 L 251.729980 45.412109 L 251.729980 46.335938 L 248.738281 46.335938 L 248.738281 52.319336 Z " fill="black" fill-opacity="1.000000"/>
<path d="M 251.892578 46.335938 L 251.892578 45.412109 L 258.729980 45.412109 L 258.729980 46.335938 Z " fill="black" fill-opacity="1.000000"/>
<path d="M 258.892578 46.335938 L 258.892578 45.412109 L 265.729980 45.412109 L 265.729980 46.335938 Z " fill="black" fill-opacity="1.000000"/>
<path d="M 265.892578 46.335938 L 265.892578 45.412109 L 272.729980 45.412109 L 272.729980 46.335938 Z " fill="black" fill-opacity="1.000000"/>
<path d="M 272.892578 46.335938 L 272.892578 45.412109 L 279.729980 45.412109 L 279.729980 46.335938 Z " fill="black" fill-opacity="1.000000"/>
<path d="M 279.892578 46.335938 L 279.892578 45.412109 L 286.729980 45.412109 L 286.729980 46.335938 Z " fill="black" fill-opacity="1.000000"/>
<path d="M 286.892578 46.335938 L 286.892578 45.412109 L 293.729980 45.412109 L 293.729980 46.335938 Z " fill="black" fill-opacity="1.000000"/>
<path d="M 293.892578 46.335938 L 293.892578 45.412109 L 300.729980 45.412109 L 300.729980 46.335938 Z " fill="black" fill-opacity="1.000000"/>
<path d="M 300.892578 46.335938 L 300.892578 45.412109 L 307.729980 45.412109 L 307.729980 46.335938 Z " fill="black" fill-opacity="1.000000"/>
<path d="M 307.892578 46.335938 L 307.892578 45.412109 L 314.729980 45.412109 L 314.729980 46.335938 Z " fill="black" fill-opacity="1.000000"/>
<path d="M 314.892578 46.335938 L 314.892578 45.412109 L 321.729980 45.412109 L 321.729980 46.335938 Z " fill="black" fill-opacity="1.000000"/>
<path d="M 321.892578 46.335938 L 321.892578 45.412109 L 328.729980 45.412109 L 328.729980 46.335938 Z " fill="black" fill-opacity="1.000000"/>
<path d="M 328.892578 46.335938 L 328.892578 45.412109 L 335.729980 45.412109 L 335.729980 46.335938 Z " fill="black" fill-opacity="1.000000"/>
<path d="M 335.892578 46.335938 L 335.892578 45.412109 L 342.729980 45.412109 L 342.729980 46.335938 Z " fill="black" fill-opacity="1.000000"/>
<path d="M 342.892578 46.335938 L 342.892578 45.412109 L 349.729980 45.412109 L 349.729980 46.335938 Z " fill="black" fill-opacity="1.000000"/>
<path d="M 349.892578 46.335938 L 349.892578 45.412109 L 356.729980 45.412109 L 356.729980 46.335938 Z " fill="black" fill-opacity="1.000000"/>
<path d="M 356.892578 46.335938 L 356.892578 45.412109 L 363.729980 45.412109 L 363.729980 46.335938 Z " fill="black" fill-opacity="1.000000"/>
<path d="M 363.892578 46.335938 L 363.892578 45.412109 L 370.729980 45.412109 L 370.729980 46.335938 Z " fill="black" fill-opacity="1.000000"/>
<path d="M 370.892578 46.335938 L 370.892578 45.412109 L 377.729980 45.412109 L 377.729980 46.335938 Z " fill="black" fill-opacity="1.000000"/>
<path d="M 377.892578 46.335938 L 377.892578 45.412109 L 384.729980 45.412109 L 384.729980 46.335938 Z " fill="black" fill-opacity="1.000000"/>
<path d="M 384.892578 46.335938 L 384.892578 45.412109 L 391.729980 45.412109 L 391.729980 46.335938 Z " fill="black" fill-opacity="1.000000"/>
<path d="M 391.892578 46.335938 L 391.892578 45.412109 L 398.729980 45.412109 L 398.729980 46.335938 Z " fill="black" fill-opacity="1.000000"/>
<path d="M 398.892578 46.335938 L 398.892578 45.412109 L 405.729980 45.412109 L 405.729980 46.335938 Z " fill="black" fill-opacity="1.000000"/>
<path d="M 405.892578 46.335938 L 405.892578 45.412109 L 412.729980 45.412109 L 412.729980 46.335938 Z " fill="black" fill-opacity="1.000000"/>
<path d="M 412.892578 46.335938 L 412.892578 45.412109 L 419.729980 45.412109 L 419.729980 46.335938 Z " fill="black" fill-opacity="1.000000"/>
<path d="M 419.892578 46.335938 L 419.892578 45.412109 L 426.729980 45.412109 L 426.729980 46.335938 Z " fill="black" fill-opacity="1.000000"/>
<path d="M 426.892578 46.335938 L 426.892578 45.412109 L 433.729980 45.412109 L 433.729980 46.335938 Z " fill="black" fill-opacity="1.000000"/>
<path d="M 433.892578 46.335938 L 433.892578 45.412109 L 440.729980 45.412109 L 440.729980 46.335938 Z " fill="black" fill-opacity="1.000000"/>
<path d="M 440.892578 46.335938 L 440.892578 45.412109 L 443.878906 45.412109 L 443.878906 38.300781 L 444.738281 38.300781 L 444.738281 46.335938 Z " fill="black" fill-opacity="1.000000"/>
<path d="M 440.892578 33.335938 L 440.892578 32.412109 L 443.878906 32.412109 L 443.878906 25.300781 L 444.738281 25.300781 L 444.738281 33.335938 Z " fill="black" fill-opacity="1.000000"/>
<path d="M 201.435547 15.254883 L 201.435547 16.355957 Q 200.941406 16.039062 200.444580 15.877930 Q 199.947754 15.716797 199.442871 15.716797 Q 198.674805 15.716797 198.229004 16.073975 Q 197.783203 16.431152 197.783203 17.038086 Q 197.783203 17.569824 198.075928 17.849121 Q 198.368652 18.128418 199.168945 18.316406 L 199.738281 18.445312 Q 200.866211 18.708496 201.381836 19.272461 Q 201.897461 19.836426 201.897461 20.808594 Q 201.897461 21.952637 201.188477 22.554199 Q 200.479492 23.155762 199.125977 23.155762 Q 198.562012 23.155762 197.992676 23.034912 Q 197.423340 22.914062 196.848633 22.672363 L 196.848633 21.517578 Q 197.466309 21.909668 198.016846 22.092285 Q 198.567383 22.274902 199.125977 22.274902 Q 199.947754 22.274902 200.404297 21.906982 Q 200.860840 21.539062 200.860840 20.878418 Q 200.860840 20.276855 200.546631 19.959961 Q 200.232422 19.643066 199.453613 19.471191 L 198.873535 19.336914 Q 197.756348 19.084473 197.251465 18.574219 Q 196.746582 18.063965 196.746582 17.204590 Q 196.746582 16.130371 197.468994 15.483154 Q 198.191406 14.835938 199.389160 14.835938 Q 199.851074 14.835938 200.361328 14.940674 Q 200.871582 15.045410 201.435547 15.254883 Z " fill="black" fill-opacity="1.000000"/>
<path d="M 204.697266 17.005859 L 207.227051 17.005859 L 207.227051 22.231934 L 209.187500 22.231934 L 209.187500 23.000000 L 204.278320 23.000000 L 204.278320 22.231934 L 206.238770 22.231934 L 206.238770 17.773926 L 204.697266 17.773926 Z M 206.238770 14.669434 L 207.227051 14.669434 L 207.227051 15.915527 L 206.238770 15.915527 Z " fill="black" fill-opacity="1.000000"/>
<path d="M 214.608398 19.943848 Q 214.608398 18.832031 214.245850 18.254639 Q 213.883301 17.677246 213.190430 17.677246 Q 212.465332 17.677246 212.083984 18.254639 Q 211.702637 18.832031 211.702637 19.943848 Q 211.702637 21.055664 212.086670 21.638428 Q 212.470703 22.221191 213.201172 22.221191 Q 213.883301 22.221191 214.245850 21.635742 Q 214.608398 21.050293 214.608398 19.943848 Z M 215.596680 22.613281 Q 215.596680 23.966797 214.957520 24.665039 Q 214.318359 25.363281 213.077637 25.363281 Q 212.669434 25.363281 212.223633 25.288086 Q 211.777832 25.212891 211.332031 25.067871 L 211.332031 24.090332 Q 211.858398 24.337402 212.288086 24.455566 Q 212.717773 24.573730 213.077637 24.573730 Q 213.877930 24.573730 214.243164 24.138672 Q 214.608398 23.703613 214.608398 22.758301 L 214.608398 22.715332 L 214.608398 22.043945 Q 214.372070 22.548828 213.963867 22.795898 Q 213.555664 23.042969 212.970215 23.042969 Q 211.917480 23.042969 211.289062 22.199707 Q 210.660645 21.356445 210.660645 19.943848 Q 210.660645 18.525879 211.289062 17.682617 Q 211.917480 16.839355 212.970215 16.839355 Q 213.550293 16.839355 213.953125 17.070312 Q 214.355957 17.301270 214.608398 17.784668 L 214.608398 17.005859 L 215.596680 17.005859 Z " fill="black" fill-opacity="1.000000"/>
<path d="M 222.645020 19.272461 L 222.645020 23.000000 L 221.651367 23.000000 L 221.651367 19.272461 Q 221.651367 18.461426 221.366699 18.080078 Q 221.082031 17.698730 220.475098 17.698730 Q 219.782227 17.698730 219.408936 18.190186 Q 219.035645 18.681641 219.035645 19.600098 L 219.035645 23.000000 L 218.047363 23.000000 L 218.047363 16.984375 L 219.035645 16.984375 L 219.035645 17.886719 Q 219.298828 17.371094 219.750000 17.105225 Q 220.201172 16.839355 220.818848 16.839355 Q 221.737305 16.839355 222.191162 17.443604 Q 222.645020 18.047852 222.645020 19.272461 Z " fill="black" fill-opacity="1.000000"/>
<path d="M 230.015625 19.498047 L 230.015625 19.981445 L 225.734863 19.981445 L 225.734863 20.013672 Q 225.691895 21.243652 226.204834 21.780762 Q 226.717773 22.317871 227.652344 22.317871 Q 228.125000 22.317871 228.640625 22.167480 Q 229.156250 22.017090 229.741699 21.710938 L 229.741699 22.693848 Q 229.177734 22.924805 228.654053 23.040283 Q 228.130371 23.155762 227.641602 23.155762 Q 226.239746 23.155762 225.450195 22.315186 Q 224.660645 21.474609 224.660645 19.997559 Q 224.660645 18.558105 225.434082 17.698730 Q 226.207520 16.839355 227.496582 16.839355 Q 228.645996 16.839355 229.309326 17.618164 Q 229.972656 18.396973 230.015625 19.498047 Z M 229.027344 19.208008 Q 228.962891 18.584961 228.573486 18.131104 Q 228.184082 17.677246 227.453613 17.677246 Q 226.739258 17.677246 226.277344 18.149902 Q 225.815430 18.622559 225.772461 19.213379 Z " fill="black" fill-opacity="1.000000"/>
<path d="M 235.608398 17.752441 L 235.608398 14.642578 L 236.596680 14.642578 L 236.596680 23.000000 L 235.608398 23.000000 L 235.608398 22.242676 Q 235.361328 22.688477 234.950439 22.922119 Q 234.539551 23.155762 234.002441 23.155762 Q 232.912109 23.155762 232.286377 22.309814 Q 231.660645 21.463867 231.660645 19.976074 Q 231.660645 18.509766 232.289062 17.674561 Q 232.917480 16.839355 234.002441 16.839355 Q 234.544922 16.839355 234.958496 17.072998 Q 235.372070 17.306641 235.608398 17.752441 Z M 232.702637 19.997559 Q 232.702637 21.146973 233.067871 21.732422 Q 233.433105 22.317871 234.147461 22.317871 Q 234.861816 22.317871 235.235107 21.727051 Q 235.608398 21.136230 235.608398 19.997559 Q 235.608398 18.853516 235.235107 18.265381 Q 234.861816 17.677246 234.147461 17.677246 Q 233.433105 17.677246 233.067871 18.262695 Q 232.702637 18.848145 232.702637 19.997559 Z " fill="black" fill-opacity="1.000000"/>
<path d="M 248.308594 15.937012 L 247.164551 20.040527 L 249.452637 20.040527 Z M 247.653320 14.980957 L 248.969238 14.980957 L 251.423828 23.000000 L 250.301270 23.000000 L 249.710449 20.910645 L 246.901367 20.910645 L 246.321289 23.000000 L 245.198730 23.000000 Z " fill="black" fill-opacity="1.000000"/>
<path d="M 257.435547 15.254883 L 257.435547 16.355957 Q 256.941406 16.039062 256.444580 15.877930 Q 255.947754 15.716797 255.442871 15.716797 Q 254.674805 15.716797 254.229004 16.073975 Q 253.783203 16.431152 253.783203 17.038086 Q 253.783203 17.569824 254.075928 17.849121 Q 254.368652 18.128418 255.168945 18.316406 L 255.738281 18.445312 Q 256.866211 18.708496 257.381836 19.272461 Q 257.897461 19.836426 257.897461 20.808594 Q 257.897461 21.952637 257.188477 22.554199 Q 256.479492 23.155762 255.125977 23.155762 Q 254.562012 23.155762 253.992676 23.034912 Q 253.423340 22.914062 252.848633 22.672363 L 252.848633 21.517578 Q 253.466309 21.909668 254.016846 22.092285 Q 254.567383 22.274902 255.125977 22.274902 Q 255.947754 22.274902 256.404297 21.906982 Q 256.860840 21.539062 256.860840 20.878418 Q 256.860840 20.276855 256.546631 19.959961 Q 256.232422 19.643066 255.453613 19.471191 L 254.873535 19.336914 Q 253.756348 19.084473 253.251465 18.574219 Q 252.746582 18.063965 252.746582 17.204590 Q 252.746582 16.130371 253.468994 15.483154 Q 254.191406 14.835938 255.389160 14.835938 Q 255.851074 14.835938 256.361328 14.940674 Q 256.871582 15.045410 257.435547 15.254883 Z " fill="black" fill-opacity="1.000000"/>
<path d="M 267.058105 14.980957 L 271.816895 14.980957 L 271.816895 15.894043 L 268.143066 15.894043 L 268.143066 18.053223 L 271.655762 18.053223 L 271.655762 18.966309 L 268.143066 18.966309 L 268.143066 22.086914 L 271.918945 22.086914 L 271.918945 23.000000 L 267.058105 23.000000 Z " fill="black" fill-opacity="1.000000"/>
<path d="M 278.645020 19.272461 L 278.645020 23.000000 L 277.651367 23.000000 L 277.651367 19.272461 Q 277.651367 18.461426 277.366699 18.080078 Q 277.082031 17.698730 276.475098 17.698730 Q 275.782227 17.698730 275.408936 18.190186 Q 275.035645 18.681641 275.035645 19.600098 L 275.035645 23.000000 L 274.047363 23.000000 L 274.047363 16.984375 L 275.035645 16.984375 L 275.035645 17.886719 Q 275.298828 17.371094 275.750000 17.105225 Q 276.201172 16.839355 276.818848 16.839355 Q 277.737305 16.839355 278.191162 17.443604 Q 278.645020 18.047852 278.645020 19.272461 Z " fill="black" fill-opacity="1.000000"/>
<path d="M 283.297852 15.276367 L 283.297852 16.984375 L 285.542969 16.984375 L 285.542969 17.752441 L 283.297852 17.752441 L 283.297852 21.018066 Q 283.297852 21.684082 283.550293 21.947266 Q 283.802734 22.210449 284.431152 22.210449 L 285.542969 22.210449 L 285.542969 23.000000 L 284.334473 23.000000 Q 283.222656 23.000000 282.766113 22.554199 Q 282.309570 22.108398 282.309570 21.018066 L 282.309570 17.752441 L 280.703613 17.752441 L 280.703613 16.984375 L 282.309570 16.984375 L 282.309570 15.276367 Z " fill="black" fill-opacity="1.000000"/>
<path d="M 293.203613 18.225098 Q 292.886719 17.978027 292.559082 17.865234 Q 292.231445 17.752441 291.839355 17.752441 Q 290.915527 17.752441 290.426758 18.332520 Q 289.937988 18.912598 289.937988 20.008301 L 289.937988 23.000000 L 288.944336 23.000000 L 288.944336 16.984375 L 289.937988 16.984375 L 289.937988 18.160645 Q 290.185059 17.521484 290.697998 17.180420 Q 291.210938 16.839355 291.914551 16.839355 Q 292.279785 16.839355 292.596680 16.930664 Q 292.913574 17.021973 293.203613 17.215332 Z " fill="black" fill-opacity="1.000000"/>
<path d="M 298.608398 21.066406 Q 298.361328 21.694824 297.979980 22.720703 Q 297.448242 24.138672 297.265625 24.450195 Q 297.018555 24.869141 296.647949 25.078613 Q 296.277344 25.288086 295.783203 25.288086 L 294.988281 25.288086 L 294.988281 24.460938 L 295.573730 24.460938 Q 296.008789 24.460938 296.255859 24.208496 Q 296.502930 23.956055 296.884277 22.903320 L 294.558594 16.984375 L 295.605957 16.984375 L 297.389160 21.689453 L 299.145508 16.984375 L 300.192871 16.984375 Z " fill="black" fill-opacity="1.000000"/>
<path d="M 443.878906 26.319336 L 443.878906 12.300781 L 444.738281 12.300781 L 444.738281 26.319336 Z " fill="black" fill-opacity="1.000000"/>
<path d="M 62.892578 7.335938 L 62.892578 6.412109 L 69.729980 6.412109 L 69.729980 7.335938 Z " fill="black" fill-opacity="1.000000"/>
<path d="M 69.892578 7.335938 L 69.892578 6.412109 L 76.729980 6.412109 L 76.729980 7.335938 Z " fill="black" fill-opacity="1.000000"/>
<path d="M 76.892578 7.335938 L 76.892578 6.412109 L 83.729980 6.412109 L 83.729980 7.335938 Z " fill="black" fill-opacity="1.000000"/>
<path d="M 83.892578 7.335938 L 83.892578 6.412109 L 90.729980 6.412109 L 90.729980 7.335938 Z " fill="black" fill-opacity="1.000000"/>
<path d="M 90.892578 7.335938 L 90.892578 6.412109 L 97.729980 6.412109 L 97.729980 7.335938 Z " fill="black" fill-opacity="1.000000"/>
<path d="M 97.892578 7.335938 L 97.892578 6.412109 L 104.729980 6.412109 L 104.729980 7.335938 Z " fill="black" fill-opacity="1.000000"/>
<path d="M 104.892578 7.335938 L 104.892578 6.412109 L 111.729980 6.412109 L 111.729980 7.335938 Z " fill="black" fill-opacity="1.000000"/>
<path d="M 111.892578 7.335938 L 111.892578 6.412109 L 118.729980 6.412109 L 118.729980 7.335938 Z " fill="black" fill-opacity="1.000000"/>
<path d="M 118.892578 7.335938 L 118.892578 6.412109 L 125.729980 6.412109 L 125.729980 7.335938 Z " fill="black" fill-opacity="1.000000"/>
<path d="M 125.892578 7.335938 L 125.892578 6.412109 L 132.729980 6.412109 L 132.729980 7.335938 Z " fill="black" fill-opacity="1.000000"/>
<path d="M 132.892578 7.335938 L 132.892578 6.412109 L 139.729980 6.412109 L 139.729980 7.335938 Z " fill="black" fill-opacity="1.000000"/>
<path d="M 139.892578 7.335938 L 139.892578 6.412109 L 146.729980 6.412109 L 146.729980 7.335938 Z " fill="black" fill-opacity="1.000000"/>
<path d="M 146.892578 7.335938 L 146.892578 6.412109 L 153.729980 6.412109 L 153.729980 7.335938 Z " fill="black" fill-opacity="1.000000"/>
<path d="M 153.892578 7.335938 L 153.892578 6.412109 L 160.729980 6.412109 L 160.729980 7.335938 Z " fill="black" fill-opacity="1.000000"/>
<path d="M 160.892578 7.335938 L 160.892578 6.412109 L 167.729980 6.412109 L 167.729980 7.335938 Z " fill="black" fill-opacity="1.000000"/>
<path d="M 167.892578 7.335938 L 167.892578 6.412109 L 174.729980 6.412109 L 174.729980 7.335938 Z " fill="black" fill-opacity="1.000000"/>
<path d="M 174.892578 7.335938 L 174.892578 6.412109 L 181.729980 6.412109 L 181.729980 7.335938 Z " fill="black" fill-opacity="1.000000"/>
<path d="M 181.892578 7.335938 L 181.892578 6.412109 L 188.729980 6.412109 L 188.729980 7.335938 Z " fill="black" fill-opacity="1.000000"/>
<path d="M 188.892578 7.335938 L 188.892578 6.412109 L 195.729980 6.412109 L 195.729980 7.335938 Z " fill="black" fill-opacity="1.000000"/>
<path d="M 195.892578 7.335938 L 195.892578 6.412109 L 202.729980 6.412109 L 202.729980 7.335938 Z " fill="black" fill-opacity="1.000000"/>
<path d="M 202.892578 7.335938 L 202.892578 6.412109 L 209.729980 6.412109 L 209.729980 7.335938 Z " fill="black" fill-opacity="1.000000"/>
<path d="M 209.892578 7.335938 L 209.892578 6.412109 L 216.729980 6.412109 L 216.729980 7.335938 Z " fill="black" fill-opacity="1.000000"/>
<path d="M 216.892578 7.335938 L 216.892578 6.412109 L 223.729980 6.412109 L 223.729980 7.335938 Z " fill="black" fill-opacity="1.000000"/>
<path d="M 223.892578 7.335938 L 223.892578 6.412109 L 230.729980 6.412109 L 230.729980 7.335938 Z " fill="black" fill-opacity="1.000000"/>
<path d="M 230.892578 7.335938 L 230.892578 6.412109 L 237.729980 6.412109 L 237.729980 7.335938 Z " fill="black" fill-opacity="1.000000"/>
<path d="M 237.892578 7.335938 L 237.892578 6.412109 L 244.729980 6.412109 L 244.729980 7.335938 Z " fill="black" fill-opacity="1.000000"/>
<path d="M 244.892578 7.335938 L 244.892578 6.412109 L 251.729980 6.412109 L 251.729980 7.335938 Z " fill="black" fill-opacity="1.000000"/>
<path d="M 251.892578 7.335938 L 251.892578 6.412109 L 258.729980 6.412109 L 258.729980 7.335938 Z " fill="black" fill-opacity="1.000000"/>
<path d="M 258.892578 7.335938 L 258.892578 6.412109 L 265.729980 6.412109 L 265.729980 7.335938 Z " fill="black" fill-opacity="1.000000"/>
<path d="M 265.892578 7.335938 L 265.892578 6.412109 L 272.729980 6.412109 L 272.729980 7.335938 Z " fill="black" fill-opacity="1.000000"/>
<path d="M 272.892578 7.335938 L 272.892578 6.412109 L 279.729980 6.412109 L 279.729980 7.335938 Z " fill="black" fill-opacity="1.000000"/>
<path d="M 279.892578 7.335938 L 279.892578 6.412109 L 286.729980 6.412109 L 286.729980 7.335938 Z " fill="black" fill-opacity="1.000000"/>
<path d="M 286.892578 7.335938 L 286.892578 6.412109 L 293.729980 6.412109 L 293.729980 7.335938 Z " fill="black" fill-opacity="1.000000"/>
<path d="M 293.892578 7.335938 L 293.892578 6.412109 L 300.729980 6.412109 L 300.729980 7.335938 Z " fill="black" fill-opacity="1.000000"/>
<path d="M 300.892578 7.335938 L 300.892578 6.412109 L 307.729980 6.412109 L 307.729980 7.335938 Z " fill="black" fill-opacity="1.000000"/>
<path d="M 307.892578 7.335938 L 307.892578 6.412109 L 314.729980 6.412109 L 314.729980 7.335938 Z " fill="black" fill-opacity="1.000000"/>
<path d="M 314.892578 7.335938 L 314.892578 6.412109 L 321.729980 6.412109 L 321.729980 7.335938 Z " fill="black" fill-opacity="1.000000"/>
<path d="M 321.892578 7.335938 L 321.892578 6.412109 L 328.729980 6.412109 L 328.729980 7.335938 Z " fill="black" fill-opacity="1.000000"/>
<path d="M 328.892578 7.335938 L 328.892578 6.412109 L 335.729980 6.412109 L 335.729980 7.335938 Z " fill="black" fill-opacity="1.000000"/>
<path d="M 335.892578 7.335938 L 335.892578 6.412109 L 342.729980 6.412109 L 342.729980 7.335938 Z " fill="black" fill-opacity="1.000000"/>
<path d="M 342.892578 7.335938 L 342.892578 6.412109 L 349.729980 6.412109 L 349.729980 7.335938 Z " fill="black" fill-opacity="1.000000"/>
<path d="M 349.892578 7.335938 L 349.892578 6.412109 L 356.729980 6.412109 L 356.729980 7.335938 Z " fill="black" fill-opacity="1.000000"/>
<path d="M 356.892578 7.335938 L 356.892578 6.412109 L 363.729980 6.412109 L 363.729980 7.335938 Z " fill="black" fill-opacity="1.000000"/>
<path d="M 363.892578 7.335938 L 363.892578 6.412109 L 370.729980 6.412109 L 370.729980 7.335938 Z " fill="black" fill-opacity="1.000000"/>
<path d="M 370.892578 7.335938 L 370.892578 6.412109 L 377.729980 6.412109 L 377.729980 7.335938 Z " fill="black" fill-opacity="1.000000"/>
<path d="M 377.892578 7.335938 L 377.892578 6.412109 L 384.729980 6.412109 L 384.729980 7.335938 Z " fill="black" fill-opacity="1.000000"/>
<path d="M 384.892578 7.335938 L 384.892578 6.412109 L 391.729980 6.412109 L 391.729980 7.335938 Z " fill="black" fill-opacity="1.000000"/>
<path d="M 391.892578 7.335938 L 391.892578 6.412109 L 398.729980 6.412109 L 398.729980 7.335938 Z " fill="black" fill-opacity="1.000000"/>
<path d="M 398.892578 7.335938 L 398.892578 6.412109 L 405.729980 6.412109 L 405.729980 7.335938 Z " fill="black" fill-opacity="1.000000"/>
<path d="M 405.892578 7.335938 L 405.892578 6.412109 L 412.729980 6.412109 L 412.729980 7.335938 Z " fill="black" fill-opacity="1.000000"/>
<path d="M 412.892578 7.335938 L 412.892578 6.412109 L 419.729980 6.412109 L 419.729980 7.335938 Z " fill="black" fill-opacity="1.000000"/>
<path d="M 419.892578 7.335938 L 419.892578 6.412109 L 426.729980 6.412109 L 426.729980 7.335938 Z " fill="black" fill-opacity="1.000000"/>
<path d="M 426.892578 7.335938 L 426.892578 6.412109 L 433.729980 6.412109 L 433.729980 7.335938 Z " fill="black" fill-opacity="1.000000"/>
<path d="M 433.892578 7.335938 L 433.892578 6.412109 L 440.729980 6.412109 L 440.729980 7.335938 Z " fill="black" fill-opacity="1.000000"/>
<path d="M 443.878906 13.319336 L 443.878906 7.335938 L 440.892578 7.335938 L 440.892578 6.412109 L 444.738281 6.412109 L 444.738281 13.319336 Z " fill="black" fill-opacity="1.000000"/>
</svg>
