<?xml version='1.0' encoding='utf-8'?>
<svg xmlns="http://www.w3.org/2000/svg" version="1.1" width="505" height="118" viewBox="0 0 505.0 118.0">
<path d="M 2.878906 78.319336 L 2.878906 71.412109 L 6.729980 71.412109 L 6.729980 72.335938 L 3.738281 72.335938 L 3.738281 78.319336 Z " fill="black" fill-opacity="1.000000"/>
<path d="M 2.878906 91.319336 L 2.878906 84.412109 L 6.729980 84.412109 L 6.729980 85.335938 L 3.738281 85.335938 L 3.738281 91.319336 Z " fill="black" fill-opacity="1.000000"/>
<path d="M 2.878906 104.319336 L 2.878906 90.300781 L 3.738281 90.300781 L 3.738281 104.319336 Z " fill="black" fill-opacity="1.000000"/>
<path d="M 2.878906 111.335938 L 2.878906 103.300781 L 3.738281 103.300781 L 3.738281 110.412109 L 6.729980 110.412109 L 6.729980 111.335938 Z " fill="black" fill-opacity="1.000000"/>
<path d="M 6.892578 111.335938 L 6.892578 110.412109 L 13.729980 110.412109 L 13.729980 111.335938 Z " fill="black" fill-opacity="1.000000"/>
<path d="M 13.892578 111.335938 L 13.892578 110.412109 L 20.729980 110.412109 L 20.729980 111.335938 Z " fill="black" fill-opacity="1.000000"/>
<path d="M 20.892578 111.335938 L 20.892578 110.412109 L 27.729980 110.412109 L 27.729980 111.335938 Z " fill="black" fill-opacity="1.000000"/>
<path d="M 27.892578 111.335938 L 27.892578 110.412109 L 34.729980 110.412109 L 34.729980 111.335938 Z " fill="black" fill-opacity="1.000000"/>
<path d="M 34.892578 111.335938 L 34.892578 110.412109 L 41.729980 110.412109 L 41.729980 111.335938 Z " fill="black" fill-opacity="1.000000"/>
<path d="M 41.892578 111.335938 L 41.892578 110.412109 L 48.729980 110.412109 L 48.729980 111.335938 Z " fill="black" fill-opacity="1.000000"/>
<path d="M 48.892578 111.335938 L 48.892578 110.412109 L 55.729980 110.412109 L 55.729980 111.335938 Z " fill="black" fill-opacity="1.000000"/>
<path d="M 55.892578 111.335938 L 55.892578 110.412109 L 62.729980 110.412109 L 62.729980 111.335938 Z " fill="black" fill-opacity="1.000000"/>
<path d="M 62.892578 111.335938 L 62.892578 110.412109 L 69.729980 110.412109 L 69.729980 111.335938 Z " fill="black" fill-opacity="1.000000"/>
<path d="M 69.892578 111.335938 L 69.892578 110.412109 L 76.729980 110.412109 L 76.729980 111.335938 Z " fill="black" fill-opacity="1.000000"/>
<path d="M 76.892578 111.335938 L 76.892578 110.412109 L 83.729980 110.412109 L 83.729980 111.335938 Z " fill="black" fill-opacity="1.000000"/>
<path d="M 83.892578 111.335938 L 83.892578 110.412109 L 90.729980 110.412109 L 90.729980 111.335938 Z " fill="black" fill-opacity="1.000000"/>
<path d="M 90.892578 111.335938 L 90.892578 110.412109 L 97.729980 110.412109 L 97.729980 111.335938 Z " fill="black" fill-opacity="1.000000"/>
<path d="M 97.892578 111.335938 L 97.892578 110.412109 L 104.729980 110.412109 L 104.729980 111.335938 Z " fill="black" fill-opacity="1.000000"/>
<path d="M 104.892578 111.335938 L 104.892578 110.412109 L 111.729980 110.412109 L 111.729980 111.335938 Z " fill="black" fill-opacity="1.000000"/>
<path d="M 111.892578 111.335938 L 111.892578 110.412109 L 118.729980 110.412109 L 118.729980 111.335938 Z " fill="black" fill-opacity="1.000000"/>
<path d="M 118.892578 111.335938 L 118.892578 110.412109 L 125.729980 110.412109 L 125.729980 111.335938 Z " fill="black" fill-opacity="1.000000"/>
<path d="M 125.892578 111.335938 L 125.892578 110.412109 L 132.729980 110.412109 L 132.729980 111.335938 Z " fill="black" fill-opacity="1.000000"/>
<path d="M 132.892578 111.335938 L 132.892578 110.412109 L 139.729980 110.412109 L 139.729980 111.335938 Z " fill="black" fill-opacity="1.000000"/>
<path d="M 139.892578 111.335938 L 139.892578 110.412109 L 146.729980 110.412109 L 146.729980 111.335938 Z " fill="black" fill-opacity="1.000000"/>
<path d="M 146.892578 111.335938 L 146.892578 110.412109 L 149.878906 110.412109 L 149.878906 103.300781 L 150.738281 103.300781 L 150.738281 110.412109 L 153.729980 110.412109 L 153.729980 111.335938 Z " fill="black" fill-opacity="1.000000"/>
<path d="M 153.892578 111.335938 L 153.892578 110.412109 L 160.729980 110.412109 L 160.729980 111.335938 Z " fill="black" fill-opacity="1.000000"/>
<path d="M 160.892578 111.335938 L 160.892578 110.412109 L 167.729980 110.412109 L 167.729980 111.335938 Z " fill="black" fill-opacity="1.000000"/>
<path d="M 167.892578 111.335938 L 167.892578 110.412109 L 174.729980 110.412109 L 174.729980 111.335938 Z " fill="black" fill-opacity="1.000000"/>
<path d="M 174.892578 111.335938 L 174.892578 110.412109 L 181.729980 110.412109 L 181.729980 111.335938 Z " fill="black" fill-opacity="1.000000"/>
<path d="M 181.892578 111.335938 L 181.892578 110.412109 L 188.729980 110.412109 L 188.729980 111.335938 Z " fill="black" fill-opacity="1.000000"/>
<path d="M 188.892578 111.335938 L 188.892578 110.412109 L 195.729980 110.412109 L 195.729980 111.335938 Z " fill="black" fill-opacity="1.000000"/>
<path d="M 195.892578 111.335938 L 195.892578 110.412109 L 202.729980 110.412109 L 202.729980 111.335938 Z " fill="black" fill-opacity="1.000000"/>
<path d="M 202.892578 111.335938 L 202.892578 110.412109 L 209.729980 110.412109 L 209.729980 111.335938 Z " fill="black" fill-opacity="1.000000"/>
<path d="M 209.892578 111.335938 L 209.892578 110.412109 L 216.729980 110.412109 L 216.729980 111.335938 Z " fill="black" fill-opacity="1.000000"/>
<path d="M 216.892578 111.335938 L 216.892578 110.412109 L 223.729980 110.412109 L 223.729980 111.335938 Z " fill="black" fill-opacity="1.000000"/>
<path d="M 223.892578 111.335938 L 223.892578 110.412109 L 230.729980 110.412109 L 230.729980 111.335938 Z " fill="black" fill-opacity="1.000000"/>
<path d="M 230.892578 111.335938 L 230.892578 110.412109 L 237.729980 110.412109 L 237.729980 111.335938 Z " fill="black" fill-opacity="1.000000"/>
<path d="M 237.892578 111.335938 L 237.892578 110.412109 L 244.729980 110.412109 L 244.729980 111.335938 Z " fill="black" fill-opacity="1.000000"/>
<path d="M 244.892578 111.335938 L 244.892578 110.412109 L 251.729980 110.412109 L 251.729980 111.335938 Z " fill="black" fill-opacity="1.000000"/>
<path d="M 251.892578 111.335938 L 251.892578 110.412109 L 258.729980 110.412109 L 258.729980 111.335938 Z " fill="black" fill-opacity="1.000000"/>
<path d="M 258.892578 111.335938 L 258.892578 110.412109 L 265.729980 110.412109 L 265.729980 111.335938 Z " fill="black" fill-opacity="1.000000"/>
<path d="M 265.892578 111.335938 L 265.892578 110.412109 L 272.729980 110.412109 L 272.729980 111.335938 Z " fill="black" fill-opacity="1.000000"/>
<path d="M 272.892578 111.335938 L 272.892578 110.412109 L 279.729980 110.412109 L 279.729980 111.335938 Z " fill="black" fill-opacity="1.000000"/>
<path d="M 279.892578 111.335938 L 279.892578 110.412109 L 282.878906 110.412109 L 282.878906 103.300781 L 283.738281 103.300781 L 283.738281 110.412109 L 286.729980 110.412109 L 286.729980 111.335938 Z " fill="black" fill-opacity="1.000000"/>
<path d="M 286.892578 111.335938 L 286.892578 110.412109 L 293.729980 110.412109 L 293.729980 111.335938 Z " fill="black" fill-opacity="1.000000"/>
<path d="M 293.892578 111.335938 L 293.892578 110.412109 L 300.729980 110.412109 L 300.729980 111.335938 Z " fill="black" fill-opacity="1.000000"/>
<path d="M 300.892578 111.335938 L 300.892578 110.412109 L 307.729980 110.412109 L 307.729980 111.335938 Z " fill="black" fill-opacity="1.000000"/>
<path d="M 307.892578 111.335938 L 307.892578 110.412109 L 314.729980 110.412109 L 314.729980 111.335938 Z " fill="black" fill-opacity="1.000000"/>
<path d="M 314.892578 111.335938 L 314.892578 110.412109 L 321.729980 110.412109 L 321.729980 111.335938 Z " fill="black" fill-opacity="1.000000"/>
<path d="M 321.892578 111.335938 L 321.892578 110.412109 L 328.729980 110.412109 L 328.729980 111.335938 Z " fill="black" fill-opacity="1.000000"/>
<path d="M 328.892578 111.335938 L 328.892578 110.412109 L 335.729980 110.412109 L 335.729980 111.335938 Z " fill="black" fill-opacity="1.000000"/>
<path d="M 335.892578 111.335938 L 335.892578 110.412109 L 342.729980 110.412109 L 342.729980 111.335938 Z " fill="black" fill-opacity="1.000000"/>
<path d="M 342.892578 111.335938 L 342.892578 110.412109 L 349.729980 110.412109 L 349.729980 111.335938 Z " fill="black" fill-opacity="1.000000"/>
<path d="M 349.892578 111.335938 L 349.892578 110.412109 L 356.729980 110.412109 L 356.729980 111.335938 Z " fill="black" fill-opacity="1.000000"/>
<path d="M 356.892578 111.335938 L 356.892578 110.412109 L 363.729980 110.412109 L 363.729980 111.335938 Z " fill="black" fill-opacity="1.000000"/>
<path d="M 363.892578 111.335938 L 363.892578 110.412109 L 370.729980 110.412109 L 370.729980 111.335938 Z " fill="black" fill-opacity="1.000000"/>
<path d="M 370.892578 111.335938 L 370.892578 110.412109 L 377.729980 110.412109 L 377.729980 111.335938 Z " fill="black" fill-opacity="1.000000"/>
<path d="M 377.892578 111.335938 L 377.892578 110.412109 L 384.729980 110.412109 L 384.729980 111.335938 Z " fill="black" fill-opacity="1.000000"/>
<path d="M 384.892578 111.335938 L 384.892578 110.412109 L 391.729980 110.412109 L 391.729980 111.335938 Z " fill="black" fill-opacity="1.000000"/>
<path d="M 391.892578 111.335938 L 391.892578 110.412109 L 398.729980 110.412109 L 398.729980 111.335938 Z " fill="black" fill-opacity="1.000000"/>
<path d="M 398.892578 111.335938 L 398.892578 110.412109 L 405.729980 110.412109 L 405.729980 111.335938 Z " fill="black" fill-opacity="1.000000"/>
<path d="M 405.892578 111.335938 L 405.892578 110.412109 L 412.729980 110.412109 L 412.729980 111.335938 Z " fill="black" fill-opacity="1.000000"/>
<path d="M 412.892578 111.335938 L 412.892578 110.412109 L 419.729980 110.412109 L 419.729980 111.335938 Z " fill="black" fill-opacity="1.000000"/>
<path d="M 419.892578 111.335938 L 419.892578 110.412109 L 426.729980 110.412109 L 426.729980 111.335938 Z " fill="black" fill-opacity="1.000000"/>
<path d="M 426.892578 111.335938 L 426.892578 110.412109 L 433.729980 110.412109 L 433.729980 111.335938 Z " fill="black" fill-opacity="1.000000"/>
<path d="M 433.892578 111.335938 L 433.892578 110.412109 L 440.729980 110.412109 L 440.729980 111.335938 Z " fill="black" fill-opacity="1.000000"/>
<path d="M 440.892578 111.335938 L 440.892578 110.412109 L 447.729980 110.412109 L 447.729980 111.335938 Z " fill="black" fill-opacity="1.000000"/>
<path d="M 447.892578 111.335938 L 447.892578 110.412109 L 454.729980 110.412109 L 454.729980 111.335938 Z " fill="black" fill-opacity="1.000000"/>
<path d="M 454.892578 111.335938 L 454.892578 110.412109 L 461.729980 110.412109 L 461.729980 111.335938 Z " fill="black" fill-opacity="1.000000"/>
<path d="M 461.892578 111.335938 L 461.892578 110.412109 L 468.729980 110.412109 L 468.729980 111.335938 Z " fill="black" fill-opacity="1.000000"/>
<path d="M 468.892578 111.335938 L 468.892578 110.412109 L 475.729980 110.412109 L 475.729980 111.335938 Z " fill="black" fill-opacity="1.000000"/>
<path d="M 475.892578 111.335938 L 475.892578 110.412109 L 482.729980 110.412109 L 482.729980 111.335938 Z " fill="black" fill-opacity="1.000000"/>
<path d="M 482.892578 111.335938 L 482.892578 110.412109 L 489.729980 110.412109 L 489.729980 111.335938 Z " fill="black" fill-opacity="1.000000"/>
<path d="M 489.892578 111.335938 L 489.892578 110.412109 L 496.729980 110.412109 L 496.729980 111.335938 Z " fill="black" fill-opacity="1.000000"/>
<path d="M 496.892578 111.335938 L 496.892578 110.412109 L 499.878906 110.412109 L 499.878906 103.300781 L 500.738281 103.300781 L 500.738281 111.335938 Z " fill="black" fill-opacity="1.000000"/>
<path d="M 47.435547 93.254883 L 47.435547 94.355957 Q 46.941406 94.039062 46.444580 93.877930 Q 45.947754 93.716797 45.442871 93.716797 Q 44.674805 93.716797 44.229004 94.073975 Q 43.783203 94.431152 43.783203 95.038086 Q 43.783203 95.569824 44.075928 95.849121 Q 44.368652 96.128418 45.168945 96.316406 L 45.738281 96.445312 Q 46.866211 96.708496 47.381836 97.272461 Q 47.897461 97.836426 47.897461 98.808594 Q 47.897461 99.952637 47.188477 100.554199 Q 46.479492 101.155762 45.125977 101.155762 Q 44.562012 101.155762 43.992676 101.034912 Q 43.423340 100.914062 42.848633 100.672363 L 42.848633 99.517578 Q 43.466309 99.909668 44.016846 100.092285 Q 44.567383 100.274902 45.125977 100.274902 Q 45.947754 100.274902 46.404297 99.906982 Q 46.860840 99.539062 46.860840 98.878418 Q 46.860840 98.276855 46.546631 97.959961 Q 46.232422 97.643066 45.453613 97.471191 L 44.873535 97.336914 Q 43.756348 97.084473 43.251465 96.574219 Q 42.746582 96.063965 42.746582 95.204590 Q 42.746582 94.130371 43.468994 93.483154 Q 44.191406 92.835938 45.389160 92.835938 Q 45.851074 92.835938 46.361328 92.940674 Q 46.871582 93.045410 47.435547 93.254883 Z " fill="black" fill-opacity="1.000000"/>
<path d="M 50.697266 95.005859 L 53.227051 95.005859 L 53.227051 100.231934 L 55.187500 100.231934 L 55.187500 101.000000 L 50.278320 101.000000 L 50.278320 100.231934 L 52.238770 100.231934 L 52.238770 95.773926 L 50.697266 95.773926 Z M 52.238770 92.669434 L 53.227051 92.669434 L 53.227051 93.915527 L 52.238770 93.915527 Z " fill="black" fill-opacity="1.000000"/>
<path d="M 60.608398 97.943848 Q 60.608398 96.832031 60.245850 96.254639 Q 59.883301 95.677246 59.190430 95.677246 Q 58.465332 95.677246 58.083984 96.254639 Q 57.702637 96.832031 57.702637 97.943848 Q 57.702637 99.055664 58.086670 99.638428 Q 58.470703 100.221191 59.201172 100.221191 Q 59.883301 100.221191 60.245850 99.635742 Q 60.608398 99.050293 60.608398 97.943848 Z M 61.596680 100.613281 Q 61.596680 101.966797 60.957520 102.665039 Q 60.318359 103.363281 59.077637 103.363281 Q 58.669434 103.363281 58.223633 103.288086 Q 57.777832 103.212891 57.332031 103.067871 L 57.332031 102.090332 Q 57.858398 102.337402 58.288086 102.455566 Q 58.717773 102.573730 59.077637 102.573730 Q 59.877930 102.573730 60.243164 102.138672 Q 60.608398 101.703613 60.608398 100.758301 L 60.608398 100.715332 L 60.608398 100.043945 Q 60.372070 100.548828 59.963867 100.795898 Q 59.555664 101.042969 58.970215 101.042969 Q 57.917480 101.042969 57.289062 100.199707 Q 56.660645 99.356445 56.660645 97.943848 Q 56.660645 96.525879 57.289062 95.682617 Q 57.917480 94.839355 58.970215 94.839355 Q 59.550293 94.839355 59.953125 95.070312 Q 60.355957 95.301270 60.608398 95.784668 L 60.608398 95.005859 L 61.596680 95.005859 Z " fill="black" fill-opacity="1.000000"/>
<path d="M 68.645020 97.272461 L 68.645020 101.000000 L 67.651367 101.000000 L 67.651367 97.272461 Q 67.651367 96.461426 67.366699 96.080078 Q 67.082031 95.698730 66.475098 95.698730 Q 65.782227 95.698730 65.408936 96.190186 Q 65.035645 96.681641 65.035645 97.600098 L 65.035645 101.000000 L 64.047363 101.000000 L 64.047363 94.984375 L 65.035645 94.984375 L 65.035645 95.886719 Q 65.298828 95.371094 65.750000 95.105225 Q 66.201172 94.839355 66.818848 94.839355 Q 67.737305 94.839355 68.191162 95.443604 Q 68.645020 96.047852 68.645020 97.272461 Z " fill="black" fill-opacity="1.000000"/>
<path d="M 73.770508 97.976074 L 73.442871 97.976074 Q 72.578125 97.976074 72.140381 98.279541 Q 71.702637 98.583008 71.702637 99.184570 Q 71.702637 99.727051 72.030273 100.027832 Q 72.357910 100.328613 72.937988 100.328613 Q 73.754395 100.328613 74.221680 99.761963 Q 74.688965 99.195312 74.694336 98.196289 L 74.694336 97.976074 Z M 75.687988 97.567871 L 75.687988 101.000000 L 74.694336 101.000000 L 74.694336 100.108398 Q 74.377441 100.645508 73.896729 100.900635 Q 73.416016 101.155762 72.728516 101.155762 Q 71.810059 101.155762 71.262207 100.637451 Q 70.714355 100.119141 70.714355 99.249023 Q 70.714355 98.244629 71.388428 97.723633 Q 72.062500 97.202637 73.367676 97.202637 L 74.694336 97.202637 L 74.694336 97.046875 Q 74.688965 96.327148 74.329102 96.002197 Q 73.969238 95.677246 73.179688 95.677246 Q 72.674805 95.677246 72.159180 95.822266 Q 71.643555 95.967285 71.154785 96.246582 L 71.154785 95.258301 Q 71.702637 95.048828 72.204834 94.944092 Q 72.707031 94.839355 73.179688 94.839355 Q 73.926270 94.839355 74.455322 95.059570 Q 74.984375 95.279785 75.312012 95.720215 Q 75.516113 95.988770 75.602051 96.383545 Q 75.687988 96.778320 75.687988 97.567871 Z " fill="black" fill-opacity="1.000000"/>
<path d="M 80.297852 93.276367 L 80.297852 94.984375 L 82.542969 94.984375 L 82.542969 95.752441 L 80.297852 95.752441 L 80.297852 99.018066 Q 80.297852 99.684082 80.550293 99.947266 Q 80.802734 100.210449 81.431152 100.210449 L 82.542969 100.210449 L 82.542969 101.000000 L 81.334473 101.000000 Q 80.222656 101.000000 79.766113 100.554199 Q 79.309570 100.108398 79.309570 99.018066 L 79.309570 95.752441 L 77.703613 95.752441 L 77.703613 94.984375 L 79.309570 94.984375 L 79.309570 93.276367 Z " fill="black" fill-opacity="1.000000"/>
<path d="M 85.047363 98.722656 L 85.047363 94.995117 L 86.035645 94.995117 L 86.035645 98.722656 Q 86.035645 99.533691 86.322998 99.915039 Q 86.610352 100.296387 87.211914 100.296387 Q 87.910156 100.296387 88.280762 99.804932 Q 88.651367 99.313477 88.651367 98.395020 L 88.651367 94.995117 L 89.645020 94.995117 L 89.645020 101.000000 L 88.651367 101.000000 L 88.651367 100.097656 Q 88.388184 100.618652 87.934326 100.887207 Q 87.480469 101.155762 86.873535 101.155762 Q 85.949707 101.155762 85.498535 100.551514 Q 85.047363 99.947266 85.047363 98.722656 Z " fill="black" fill-opacity="1.000000"/>
<path d="M 97.203613 96.225098 Q 96.886719 95.978027 96.559082 95.865234 Q 96.231445 95.752441 95.839355 95.752441 Q 94.915527 95.752441 94.426758 96.332520 Q 93.937988 96.912598 93.937988 98.008301 L 93.937988 101.000000 L 92.944336 101.000000 L 92.944336 94.984375 L 93.937988 94.984375 L 93.937988 96.160645 Q 94.185059 95.521484 94.697998 95.180420 Q 95.210938 94.839355 95.914551 94.839355 Q 96.279785 94.839355 96.596680 94.930664 Q 96.913574 95.021973 97.203613 95.215332 Z " fill="black" fill-opacity="1.000000"/>
<path d="M 104.015625 97.498047 L 104.015625 97.981445 L 99.734863 97.981445 L 99.734863 98.013672 Q 99.691895 99.243652 100.204834 99.780762 Q 100.717773 100.317871 101.652344 100.317871 Q 102.125000 100.317871 102.640625 100.167480 Q 103.156250 100.017090 103.741699 99.710938 L 103.741699 100.693848 Q 103.177734 100.924805 102.654053 101.040283 Q 102.130371 101.155762 101.641602 101.155762 Q 100.239746 101.155762 99.450195 100.315186 Q 98.660645 99.474609 98.660645 97.997559 Q 98.660645 96.558105 99.434082 95.698730 Q 100.207520 94.839355 101.496582 94.839355 Q 102.645996 94.839355 103.309326 95.618164 Q 103.972656 96.396973 104.015625 97.498047 Z M 103.027344 97.208008 Q 102.962891 96.584961 102.573486 96.131104 Q 102.184082 95.677246 101.453613 95.677246 Q 100.739258 95.677246 100.277344 96.149902 Q 99.815430 96.622559 99.772461 97.213379 Z " fill="black" fill-opacity="1.000000"/>
<path d="M 149.878906 104.319336 L 149.878906 90.300781 L 150.738281 90.300781 L 150.738281 104.319336 Z " fill="black" fill-opacity="1.000000"/>
<path d="M 196.735840 92.980957 L 197.826172 92.980957 L 197.826172 96.053223 L 200.796387 96.053223 L 200.796387 92.980957 L 201.886719 92.980957 L 201.886719 101.000000 L 200.796387 101.000000 L 200.796387 96.966309 L 197.826172 96.966309 L 197.826172 101.000000 L 196.735840 101.000000 Z " fill="black" fill-opacity="1.000000"/>
<path d="M 209.015625 97.498047 L 209.015625 97.981445 L 204.734863 97.981445 L 204.734863 98.013672 Q 204.691895 99.243652 205.204834 99.780762 Q 205.717773 100.317871 206.652344 100.317871 Q 207.125000 100.317871 207.640625 100.167480 Q 208.156250 100.017090 208.741699 99.710938 L 208.741699 100.693848 Q 208.177734 100.924805 207.654053 101.040283 Q 207.130371 101.155762 206.641602 101.155762 Q 205.239746 101.155762 204.450195 100.315186 Q 203.660645 99.474609 203.660645 97.997559 Q 203.660645 96.558105 204.434082 95.698730 Q 205.207520 94.839355 206.496582 94.839355 Q 207.645996 94.839355 208.309326 95.618164 Q 208.972656 96.396973 209.015625 97.498047 Z M 208.027344 97.208008 Q 207.962891 96.584961 207.573486 96.131104 Q 207.184082 95.677246 206.453613 95.677246 Q 205.739258 95.677246 205.277344 96.149902 Q 204.815430 96.622559 204.772461 97.213379 Z " fill="black" fill-opacity="1.000000"/>
<path d="M 213.770508 97.976074 L 213.442871 97.976074 Q 212.578125 97.976074 212.140381 98.279541 Q 211.702637 98.583008 211.702637 99.184570 Q 211.702637 99.727051 212.030273 100.027832 Q 212.357910 100.328613 212.937988 100.328613 Q 213.754395 100.328613 214.221680 99.761963 Q 214.688965 99.195312 214.694336 98.196289 L 214.694336 97.976074 Z M 215.687988 97.567871 L 215.687988 101.000000 L 214.694336 101.000000 L 214.694336 100.108398 Q 214.377441 100.645508 213.896729 100.900635 Q 213.416016 101.155762 212.728516 101.155762 Q 211.810059 101.155762 211.262207 100.637451 Q 210.714355 100.119141 210.714355 99.249023 Q 210.714355 98.244629 211.388428 97.723633 Q 212.062500 97.202637 213.367676 97.202637 L 214.694336 97.202637 L 214.694336 97.046875 Q 214.688965 96.327148 214.329102 96.002197 Q 213.969238 95.677246 213.179688 95.677246 Q 212.674805 95.677246 212.159180 95.822266 Q 211.643555 95.967285 211.154785 96.246582 L 211.154785 95.258301 Q 211.702637 95.048828 212.204834 94.944092 Q 212.707031 94.839355 213.179688 94.839355 Q 213.926270 94.839355 214.455322 95.059570 Q 214.984375 95.279785 215.312012 95.720215 Q 215.516113 95.988770 215.602051 96.383545 Q 215.687988 96.778320 215.687988 97.567871 Z " fill="black" fill-opacity="1.000000"/>
<path d="M 221.608398 95.752441 L 221.608398 92.642578 L 222.596680 92.642578 L 222.596680 101.000000 L 221.608398 101.000000 L 221.608398 100.242676 Q 221.361328 100.688477 220.950439 100.922119 Q 220.539551 101.155762 220.002441 101.155762 Q 218.912109 101.155762 218.286377 100.309814 Q 217.660645 99.463867 217.660645 97.976074 Q 217.660645 96.509766 218.289062 95.674561 Q 218.917480 94.839355 220.002441 94.839355 Q 220.544922 94.839355 220.958496 95.072998 Q 221.372070 95.306641 221.608398 95.752441 Z M 218.702637 97.997559 Q 218.702637 99.146973 219.067871 99.732422 Q 219.433105 100.317871 220.147461 100.317871 Q 220.861816 100.317871 221.235107 99.727051 Q 221.608398 99.136230 221.608398 97.997559 Q 221.608398 96.853516 221.235107 96.265381 Q 220.861816 95.677246 220.147461 95.677246 Q 219.433105 95.677246 219.067871 96.262695 Q 218.702637 96.848145 218.702637 97.997559 Z " fill="black" fill-opacity="1.000000"/>
<path d="M 230.015625 97.498047 L 230.015625 97.981445 L 225.734863 97.981445 L 225.734863 98.013672 Q 225.691895 99.243652 226.204834 99.780762 Q 226.717773 100.317871 227.652344 100.317871 Q 228.125000 100.317871 228.640625 100.167480 Q 229.156250 100.017090 229.741699 99.710938 L 229.741699 100.693848 Q 229.177734 100.924805 228.654053 101.040283 Q 228.130371 101.155762 227.641602 101.155762 Q 226.239746 101.155762 225.450195 100.315186 Q 224.660645 99.474609 224.660645 97.997559 Q 224.660645 96.558105 225.434082 95.698730 Q 226.207520 94.839355 227.496582 94.839355 Q 228.645996 94.839355 229.309326 95.618164 Q 229.972656 96.396973 230.015625 97.498047 Z M 229.027344 97.208008 Q 228.962891 96.584961 228.573486 96.131104 Q 228.184082 95.677246 227.453613 95.677246 Q 226.739258 95.677246 226.277344 96.149902 Q 225.815430 96.622559 225.772461 97.213379 Z " fill="black" fill-opacity="1.000000"/>
<path d="M 237.203613 96.225098 Q 236.886719 95.978027 236.559082 95.865234 Q 236.231445 95.752441 235.839355 95.752441 Q 234.915527 95.752441 234.426758 96.332520 Q 233.937988 96.912598 233.937988 98.008301 L 233.937988 101.000000 L 232.944336 101.000000 L 232.944336 94.984375 L 233.937988 94.984375 L 233.937988 96.160645 Q 234.185059 95.521484 234.697998 95.180420 Q 235.210938 94.839355 235.914551 94.839355 Q 236.279785 94.839355 236.596680 94.930664 Q 236.913574 95.021973 237.203613 95.215332 Z " fill="black" fill-opacity="1.000000"/>
<path d="M 282.878906 104.319336 L 282.878906 90.300781 L 283.738281 90.300781 L 283.738281 104.319336 Z " fill="black" fill-opacity="1.000000"/>
<path d="M 379.981934 96.955566 L 379.981934 100.108398 L 381.265625 100.108398 Q 382.210938 100.108398 382.613770 99.778076 Q 383.016602 99.447754 383.016602 98.690430 Q 383.016602 97.691406 382.592285 97.323486 Q 382.167969 96.955566 381.265625 96.955566 Z M 379.981934 93.872559 L 379.981934 96.074707 L 381.244141 96.074707 Q 382.028320 96.074707 382.380127 95.773926 Q 382.731934 95.473145 382.731934 95.016602 Q 382.731934 94.409668 382.385498 94.141113 Q 382.039062 93.872559 381.244141 93.872559 Z M 378.891602 92.980957 L 381.265625 92.980957 Q 382.495605 92.980957 383.161621 93.512695 Q 383.827637 94.044434 383.827637 95.016602 Q 383.827637 95.537598 383.475830 95.961914 Q 383.124023 96.386230 382.420410 96.493652 Q 383.209961 96.611816 383.658447 97.167725 Q 384.106934 97.723633 384.106934 98.797852 Q 384.106934 99.888184 383.392578 100.444092 Q 382.678223 101.000000 381.265625 101.000000 L 378.891602 101.000000 Z " fill="black" fill-opacity="1.000000"/>
<path d="M 388.308594 95.677246 Q 387.556641 95.677246 387.169922 96.262695 Q 386.783203 96.848145 386.783203 97.997559 Q 386.783203 99.141602 387.169922 99.729736 Q 387.556641 100.317871 388.308594 100.317871 Q 389.065918 100.317871 389.452637 99.729736 Q 389.839355 99.141602 389.839355 97.997559 Q 389.839355 96.848145 389.452637 96.262695 Q 389.065918 95.677246 388.308594 95.677246 Z M 388.308594 94.839355 Q 389.560059 94.839355 390.223389 95.650391 Q 390.886719 96.461426 390.886719 97.997559 Q 390.886719 99.539062 390.226074 100.347412 Q 389.565430 101.155762 388.308594 101.155762 Q 387.057129 101.155762 386.396484 100.347412 Q 385.735840 99.539062 385.735840 97.997559 Q 385.735840 96.461426 386.396484 95.650391 Q 387.057129 94.839355 388.308594 94.839355 Z " fill="black" fill-opacity="1.000000"/>
<path d="M 396.608398 95.752441 L 396.608398 92.642578 L 397.596680 92.642578 L 397.596680 101.000000 L 396.608398 101.000000 L 396.608398 100.242676 Q 396.361328 100.688477 395.950439 100.922119 Q 395.539551 101.155762 395.002441 101.155762 Q 393.912109 101.155762 393.286377 100.309814 Q 392.660645 99.463867 392.660645 97.976074 Q 392.660645 96.509766 393.289062 95.674561 Q 393.917480 94.839355 395.002441 94.839355 Q 395.544922 94.839355 395.958496 95.072998 Q 396.372070 95.306641 396.608398 95.752441 Z M 393.702637 97.997559 Q 393.702637 99.146973 394.067871 99.732422 Q 394.433105 100.317871 395.147461 100.317871 Q 395.861816 100.317871 396.235107 99.727051 Q 396.608398 99.136230 396.608398 97.997559 Q 396.608398 96.853516 396.235107 96.265381 Q 395.861816 95.677246 395.147461 95.677246 Q 394.433105 95.677246 394.067871 96.262695 Q 393.702637 96.848145 393.702637 97.997559 Z " fill="black" fill-opacity="1.000000"/>
<path d="M 403.608398 99.066406 Q 403.361328 99.694824 402.979980 100.720703 Q 402.448242 102.138672 402.265625 102.450195 Q 402.018555 102.869141 401.647949 103.078613 Q 401.277344 103.288086 400.783203 103.288086 L 399.988281 103.288086 L 399.988281 102.460938 L 400.573730 102.460938 Q 401.008789 102.460938 401.255859 102.208496 Q 401.502930 101.956055 401.884277 100.903320 L 399.558594 94.984375 L 400.605957 94.984375 L 402.389160 99.689453 L 404.145508 94.984375 L 405.192871 94.984375 Z " fill="black" fill-opacity="1.000000"/>
<path d="M 499.878906 104.319336 L 499.878906 90.300781 L 500.738281 90.300781 L 500.738281 104.319336 Z " fill="black" fill-opacity="1.000000"/>
<path d="M 6.892578 72.335938 L 6.892578 71.412109 L 13.729980 71.412109 L 13.729980 72.335938 Z " fill="black" fill-opacity="1.000000"/>
<path d="M 13.892578 72.335938 L 13.892578 71.412109 L 20.729980 71.412109 L 20.729980 72.335938 Z " fill="black" fill-opacity="1.000000"/>
<path d="M 20.892578 72.335938 L 20.892578 71.412109 L 27.729980 71.412109 L 27.729980 72.335938 Z " fill="black" fill-opacity="1.000000"/>
<path d="M 27.892578 72.335938 L 27.892578 71.412109 L 34.729980 71.412109 L 34.729980 72.335938 Z " fill="black" fill-opacity="1.000000"/>
<path d="M 34.892578 72.335938 L 34.892578 71.412109 L 41.729980 71.412109 L 41.729980 72.335938 Z " fill="black" fill-opacity="1.000000"/>
<path d="M 41.892578 72.335938 L 41.892578 71.412109 L 48.729980 71.412109 L 48.729980 72.335938 Z " fill="black" fill-opacity="1.000000"/>
<path d="M 48.892578 72.335938 L 48.892578 71.412109 L 55.729980 71.412109 L 55.729980 72.335938 Z " fill="black" fill-opacity="1.000000"/>
<path d="M 55.892578 72.335938 L 55.892578 71.412109 L 62.729980 71.412109 L 62.729980 72.335938 Z " fill="black" fill-opacity="1.000000"/>
<path d="M 62.892578 72.335938 L 62.892578 71.412109 L 69.729980 71.412109 L 69.729980 72.335938 Z " fill="black" fill-opacity="1.000000"/>
<path d="M 69.892578 72.335938 L 69.892578 71.412109 L 76.729980 71.412109 L 76.729980 72.335938 Z " fill="black" fill-opacity="1.000000"/>
<path d="M 76.892578 72.335938 L 76.892578 71.412109 L 83.729980 71.412109 L 83.729980 72.335938 Z " fill="black" fill-opacity="1.000000"/>
<path d="M 83.892578 72.335938 L 83.892578 71.412109 L 90.729980 71.412109 L 90.729980 72.335938 Z " fill="black" fill-opacity="1.000000"/>
<path d="M 90.892578 72.335938 L 90.892578 71.412109 L 97.729980 71.412109 L 97.729980 72.335938 Z " fill="black" fill-opacity="1.000000"/>
<path d="M 97.892578 72.335938 L 97.892578 71.412109 L 104.729980 71.412109 L 104.729980 72.335938 Z " fill="black" fill-opacity="1.000000"/>
<path d="M 104.892578 72.335938 L 104.892578 71.412109 L 111.729980 71.412109 L 111.729980 72.335938 Z " fill="black" fill-opacity="1.000000"/>
<path d="M 111.892578 72.335938 L 111.892578 71.412109 L 118.729980 71.412109 L 118.729980 72.335938 Z " fill="black" fill-opacity="1.000000"/>
<path d="M 118.892578 72.335938 L 118.892578 71.412109 L 125.729980 71.412109 L 125.729980 72.335938 Z " fill="black" fill-opacity="1.000000"/>
<path d="M 125.892578 72.335938 L 125.892578 71.412109 L 132.729980 71.412109 L 132.729980 72.335938 Z " fill="black" fill-opacity="1.000000"/>
<path d="M 132.892578 72.335938 L 132.892578 71.412109 L 139.729980 71.412109 L 139.729980 72.335938 Z " fill="black" fill-opacity="1.000000"/>
<path d="M 139.892578 72.335938 L 139.892578 71.412109 L 146.729980 71.412109 L 146.729980 72.335938 Z " fill="black" fill-opacity="1.000000"/>
<path d="M 146.892578 72.335938 L 146.892578 71.412109 L 153.729980 71.412109 L 153.729980 72.335938 Z " fill="black" fill-opacity="1.000000"/>
<path d="M 153.892578 72.335938 L 153.892578 71.412109 L 160.729980 71.412109 L 160.729980 72.335938 Z " fill="black" fill-opacity="1.000000"/>
<path d="M 160.892578 72.335938 L 160.892578 71.412109 L 167.729980 71.412109 L 167.729980 72.335938 Z " fill="black" fill-opacity="1.000000"/>
<path d="M 167.892578 72.335938 L 167.892578 71.412109 L 174.729980 71.412109 L 174.729980 72.335938 Z " fill="black" fill-opacity="1.000000"/>
<path d="M 174.892578 72.335938 L 174.892578 71.412109 L 181.729980 71.412109 L 181.729980 72.335938 Z " fill="black" fill-opacity="1.000000"/>
<path d="M 181.892578 72.335938 L 181.892578 71.412109 L 188.729980 71.412109 L 188.729980 72.335938 Z " fill="black" fill-opacity="1.000000"/>
<path d="M 188.892578 72.335938 L 188.892578 71.412109 L 195.729980 71.412109 L 195.729980 72.335938 Z " fill="black" fill-opacity="1.000000"/>
<path d="M 195.892578 72.335938 L 195.892578 71.412109 L 202.729980 71.412109 L 202.729980 72.335938 Z " fill="black" fill-opacity="1.000000"/>
<path d="M 202.892578 72.335938 L 202.892578 71.412109 L 209.729980 71.412109 L 209.729980 72.335938 Z " fill="black" fill-opacity="1.000000"/>
<path d="M 209.892578 72.335938 L 209.892578 71.412109 L 216.729980 71.412109 L 216.729980 72.335938 Z " fill="black" fill-opacity="1.000000"/>
<path d="M 216.892578 72.335938 L 216.892578 71.412109 L 223.729980 71.412109 L 223.729980 72.335938 Z " fill="black" fill-opacity="1.000000"/>
<path d="M 223.892578 72.335938 L 223.892578 71.412109 L 230.729980 71.412109 L 230.729980 72.335938 Z " fill="black" fill-opacity="1.000000"/>
<path d="M 230.892578 72.335938 L 230.892578 71.412109 L 237.729980 71.412109 L 237.729980 72.335938 Z " fill="black" fill-opacity="1.000000"/>
<path d="M 237.892578 72.335938 L 237.892578 71.412109 L 244.729980 71.412109 L 244.729980 72.335938 Z " fill="black" fill-opacity="1.000000"/>
<path d="M 244.892578 72.335938 L 244.892578 71.412109 L 251.729980 71.412109 L 251.729980 72.335938 Z " fill="black" fill-opacity="1.000000"/>
<path d="M 251.892578 72.335938 L 251.892578 71.412109 L 258.729980 71.412109 L 258.729980 72.335938 Z " fill="black" fill-opacity="1.000000"/>
<path d="M 258.892578 72.335938 L 258.892578 71.412109 L 265.729980 71.412109 L 265.729980 72.335938 Z " fill="black" fill-opacity="1.000000"/>
<path d="M 265.892578 72.335938 L 265.892578 71.412109 L 272.729980 71.412109 L 272.729980 72.335938 Z " fill="black" fill-opacity="1.000000"/>
<path d="M 272.892578 72.335938 L 272.892578 71.412109 L 279.729980 71.412109 L 279.729980 72.335938 Z " fill="black" fill-opacity="1.000000"/>
<path d="M 279.892578 72.335938 L 279.892578 71.412109 L 286.729980 71.412109 L 286.729980 72.335938 Z " fill="black" fill-opacity="1.000000"/>
<path d="M 286.892578 72.335938 L 286.892578 71.412109 L 293.729980 71.412109 L 293.729980 72.335938 Z " fill="black" fill-opacity="1.000000"/>
<path d="M 293.892578 72.335938 L 293.892578 71.412109 L 300.729980 71.412109 L 300.729980 72.335938 Z " fill="black" fill-opacity="1.000000"/>
<path d="M 300.892578 72.335938 L 300.892578 71.412109 L 307.729980 71.412109 L 307.729980 72.335938 Z " fill="black" fill-opacity="1.000000"/>
<path d="M 307.892578 72.335938 L 307.892578 71.412109 L 314.729980 71.412109 L 314.729980 72.335938 Z " fill="black" fill-opacity="1.000000"/>
<path d="M 314.892578 72.335938 L 314.892578 71.412109 L 321.729980 71.412109 L 321.729980 72.335938 Z " fill="black" fill-opacity="1.000000"/>
<path d="M 321.892578 72.335938 L 321.892578 71.412109 L 328.729980 71.412109 L 328.729980 72.335938 Z " fill="black" fill-opacity="1.000000"/>
<path d="M 328.892578 72.335938 L 328.892578 71.412109 L 335.729980 71.412109 L 335.729980 72.335938 Z " fill="black" fill-opacity="1.000000"/>
<path d="M 335.892578 72.335938 L 335.892578 71.412109 L 342.729980 71.412109 L 342.729980 72.335938 Z " fill="black" fill-opacity="1.000000"/>
<path d="M 342.892578 72.335938 L 342.892578 71.412109 L 349.729980 71.412109 L 349.729980 72.335938 Z " fill="black" fill-opacity="1.000000"/>
<path d="M 349.892578 72.335938 L 349.892578 71.412109 L 356.729980 71.412109 L 356.729980 72.335938 Z " fill="black" fill-opacity="1.000000"/>
<path d="M 356.892578 72.335938 L 356.892578 71.412109 L 363.729980 71.412109 L 363.729980 72.335938 Z " fill="black" fill-opacity="1.000000"/>
<path d="M 363.892578 72.335938 L 363.892578 71.412109 L 370.729980 71.412109 L 370.729980 72.335938 Z " fill="black" fill-opacity="1.000000"/>
<path d="M 370.892578 72.335938 L 370.892578 71.412109 L 377.729980 71.412109 L 377.729980 72.335938 Z " fill="black" fill-opacity="1.000000"/>
<path d="M 377.892578 72.335938 L 377.892578 71.412109 L 384.729980 71.412109 L 384.729980 72.335938 Z " fill="black" fill-opacity="1.000000"/>
<path d="M 384.892578 72.335938 L 384.892578 71.412109 L 391.729980 71.412109 L 391.729980 72.335938 Z " fill="black" fill-opacity="1.000000"/>
<path d="M 391.892578 72.335938 L 391.892578 71.412109 L 398.729980 71.412109 L 398.729980 72.335938 Z " fill="black" fill-opacity="1.000000"/>
<path d="M 398.892578 72.335938 L 398.892578 71.412109 L 405.729980 71.412109 L 405.729980 72.335938 Z " fill="black" fill-opacity="1.000000"/>
<path d="M 405.892578 72.335938 L 405.892578 71.412109 L 412.729980 71.412109 L 412.729980 72.335938 Z " fill="black" fill-opacity="1.000000"/>
<path d="M 412.892578 72.335938 L 412.892578 71.412109 L 419.729980 71.412109 L 419.729980 72.335938 Z " fill="black" fill-opacity="1.000000"/>
<path d="M 419.892578 72.335938 L 419.892578 71.412109 L 426.729980 71.412109 L 426.729980 72.335938 Z " fill="black" fill-opacity="1.000000"/>
<path d="M 426.892578 72.335938 L 426.892578 71.412109 L 433.729980 71.412109 L 433.729980 72.335938 Z " fill="black" fill-opacity="1.000000"/>
<path d="M 433.892578 72.335938 L 433.892578 71.412109 L 440.729980 71.412109 L 440.729980 72.335938 Z " fill="black" fill-opacity="1.000000"/>
<path d="M 440.892578 72.335938 L 440.892578 71.412109 L 447.729980 71.412109 L 447.729980 72.335938 Z " fill="black" fill-opacity="1.000000"/>
<path d="M 447.892578 72.335938 L 447.892578 71.412109 L 454.729980 71.412109 L 454.729980 72.335938 Z " fill="black" fill-opacity="1.000000"/>
<path d="M 454.892578 72.335938 L 454.892578 71.412109 L 461.729980 71.412109 L 461.729980 72.335938 Z " fill="black" fill-opacity="1.000000"/>
<path d="M 461.892578 72.335938 L 461.892578 71.412109 L 468.729980 71.412109 L 468.729980 72.335938 Z " fill="black" fill-opacity="1.000000"/>
<path d="M 468.892578 72.335938 L 468.892578 71.412109 L 475.729980 71.412109 L 475.729980 72.335938 Z " fill="black" fill-opacity="1.000000"/>
<path d="M 475.892578 72.335938 L 475.892578 71.412109 L 482.729980 71.412109 L 482.729980 72.335938 Z " fill="black" fill-opacity="1.000000"/>
<path d="M 482.892578 72.335938 L 482.892578 71.412109 L 489.729980 71.412109 L 489.729980 72.335938 Z " fill="black" fill-opacity="1.000000"/>
<path d="M 489.892578 72.335938 L 489.892578 71.412109 L 496.729980 71.412109 L 496.729980 72.335938 Z " fill="black" fill-opacity="1.000000"/>
<path d="M 6.892578 85.335938 L 6.892578 84.412109 L 13.729980 84.412109 L 13.729980 85.335938 Z " fill="black" fill-opacity="1.000000"/>
<path d="M 13.892578 85.335938 L 13.892578 84.412109 L 20.729980 84.412109 L 20.729980 85.335938 Z " fill="black" fill-opacity="1.000000"/>
<path d="M 20.892578 85.335938 L 20.892578 84.412109 L 27.729980 84.412109 L 27.729980 85.335938 Z " fill="black" fill-opacity="1.000000"/>
<path d="M 27.892578 85.335938 L 27.892578 84.412109 L 34.729980 84.412109 L 34.729980 85.335938 Z " fill="black" fill-opacity="1.000000"/>
<path d="M 34.892578 85.335938 L 34.892578 84.412109 L 41.729980 84.412109 L 41.729980 85.335938 Z " fill="black" fill-opacity="1.000000"/>
<path d="M 41.892578 85.335938 L 41.892578 84.412109 L 48.729980 84.412109 L 48.729980 85.335938 Z " fill="black" fill-opacity="1.000000"/>
<path d="M 48.892578 85.335938 L 48.892578 84.412109 L 55.729980 84.412109 L 55.729980 85.335938 Z " fill="black" fill-opacity="1.000000"/>
<path d="M 55.892578 85.335938 L 55.892578 84.412109 L 62.729980 84.412109 L 62.729980 85.335938 Z " fill="black" fill-opacity="1.000000"/>
<path d="M 62.892578 85.335938 L 62.892578 84.412109 L 69.729980 84.412109 L 69.729980 85.335938 Z " fill="black" fill-opacity="1.000000"/>
<path d="M 69.892578 85.335938 L 69.892578 84.412109 L 76.729980 84.412109 L 76.729980 85.335938 Z " fill="black" fill-opacity="1.000000"/>
<path d="M 76.892578 85.335938 L 76.892578 84.412109 L 83.729980 84.412109 L 83.729980 85.335938 Z " fill="black" fill-opacity="1.000000"/>
<path d="M 83.892578 85.335938 L 83.892578 84.412109 L 90.729980 84.412109 L 90.729980 85.335938 Z " fill="black" fill-opacity="1.000000"/>
<path d="M 90.892578 85.335938 L 90.892578 84.412109 L 97.729980 84.412109 L 97.729980 85.335938 Z " fill="black" fill-opacity="1.000000"/>
<path d="M 97.892578 85.335938 L 97.892578 84.412109 L 104.729980 84.412109 L 104.729980 85.335938 Z " fill="black" fill-opacity="1.000000"/>
<path d="M 104.892578 85.335938 L 104.892578 84.412109 L 111.729980 84.412109 L 111.729980 85.335938 Z " fill="black" fill-opacity="1.000000"/>
<path d="M 111.892578 85.335938 L 111.892578 84.412109 L 118.729980 84.412109 L 118.729980 85.335938 Z " fill="black" fill-opacity="1.000000"/>
<path d="M 118.892578 85.335938 L 118.892578 84.412109 L 125.729980 84.412109 L 125.729980 85.335938 Z " fill="black" fill-opacity="1.000000"/>
<path d="M 125.892578 85.335938 L 125.892578 84.412109 L 132.729980 84.412109 L 132.729980 85.335938 Z " fill="black" fill-opacity="1.000000"/>
<path d="M 132.892578 85.335938 L 132.892578 84.412109 L 139.729980 84.412109 L 139.729980 85.335938 Z " fill="black" fill-opacity="1.000000"/>
<path d="M 139.892578 85.335938 L 139.892578 84.412109 L 146.729980 84.412109 L 146.729980 85.335938 Z " fill="black" fill-opacity="1.000000"/>
<path d="M 149.878906 91.319336 L 149.878906 85.335938 L 146.892578 85.335938 L 146.892578 84.412109 L 153.729980 84.412109 L 153.729980 85.335938 L 150.738281 85.335938 L 150.738281 91.319336 Z " fill="black" fill-opacity="1.000000"/>
<path d="M 153.892578 85.335938 L 153.892578 84.412109 L 160.729980 84.412109 L 160.729980 85.335938 Z " fill="black" fill-opacity="1.000000"/>
<path d="M 160.892578 85.335938 L 160.892578 84.412109 L 167.729980 84.412109 L 167.729980 85.335938 Z " fill="black" fill-opacity="1.000000"/>
<path d="M 167.892578 85.335938 L 167.892578 84.412109 L 174.729980 84.412109 L 174.729980 85.335938 Z " fill="black" fill-opacity="1.000000"/>
<path d="M 174.892578 85.335938 L 174.892578 84.412109 L 181.729980 84.412109 L 181.729980 85.335938 Z " fill="black" fill-opacity="1.000000"/>
<path d="M 181.892578 85.335938 L 181.892578 84.412109 L 188.729980 84.412109 L 188.729980 85.335938 Z " fill="black" fill-opacity="1.000000"/>
<path d="M 188.892578 85.335938 L 188.892578 84.412109 L 195.729980 84.412109 L 195.729980 85.335938 Z " fill="black" fill-opacity="1.000000"/>
<path d="M 195.892578 85.335938 L 195.892578 84.412109 L 202.729980 84.412109 L 202.729980 85.335938 Z " fill="black" fill-opacity="1.000000"/>
<path d="M 202.892578 85.335938 L 202.892578 84.412109 L 209.729980 84.412109 L 209.729980 85.335938 Z " fill="black" fill-opacity="1.000000"/>
<path d="M 209.892578 85.335938 L 209.892578 84.412109 L 216.729980 84.412109 L 216.729980 85.335938 Z " fill="black" fill-opacity="1.000000"/>
<path d="M 216.892578 85.335938 L 216.892578 84.412109 L 223.729980 84.412109 L 223.729980 85.335938 Z " fill="black" fill-opacity="1.000000"/>
<path d="M 223.892578 85.335938 L 223.892578 84.412109 L 230.729980 84.412109 L 230.729980 85.335938 Z " fill="black" fill-opacity="1.000000"/>
<path d="M 230.892578 85.335938 L 230.892578 84.412109 L 237.729980 84.412109 L 237.729980 85.335938 Z " fill="black" fill-opacity="1.000000"/>
<path d="M 237.892578 85.335938 L 237.892578 84.412109 L 244.729980 84.412109 L 244.729980 85.335938 Z " fill="black" fill-opacity="1.000000"/>
<path d="M 244.892578 85.335938 L 244.892578 84.412109 L 251.729980 84.412109 L 251.729980 85.335938 Z " fill="black" fill-opacity="1.000000"/>
<path d="M 251.892578 85.335938 L 251.892578 84.412109 L 258.729980 84.412109 L 258.729980 85.335938 Z " fill="black" fill-opacity="1.000000"/>
<path d="M 258.892578 85.335938 L 258.892578 84.412109 L 265.729980 84.412109 L 265.729980 85.335938 Z " fill="black" fill-opacity="1.000000"/>
<path d="M 265.892578 85.335938 L 265.892578 84.412109 L 272.729980 84.412109 L 272.729980 85.335938 Z " fill="black" fill-opacity="1.000000"/>
<path d="M 272.892578 85.335938 L 272.892578 84.412109 L 279.729980 84.412109 L 279.729980 85.335938 Z " fill="black" fill-opacity="1.000000"/>
<path d="M 282.878906 91.319336 L 282.878906 85.335938 L 279.892578 85.335938 L 279.892578 84.412109 L 286.729980 84.412109 L 286.729980 85.335938 L 283.738281 85.335938 L 283.738281 91.319336 Z " fill="black" fill-opacity="1.000000"/>
<path d="M 286.892578 85.335938 L 286.892578 84.412109 L 293.729980 84.412109 L 293.729980 85.335938 Z " fill="black" fill-opacity="1.000000"/>
<path d="M 293.892578 85.335938 L 293.892578 84.412109 L 300.729980 84.412109 L 300.729980 85.335938 Z " fill="black" fill-opacity="1.000000"/>
<path d="M 300.892578 85.335938 L 300.892578 84.412109 L 307.729980 84.412109 L 307.729980 85.335938 Z " fill="black" fill-opacity="1.000000"/>
<path d="M 307.892578 85.335938 L 307.892578 84.412109 L 314.729980 84.412109 L 314.729980 85.335938 Z " fill="black" fill-opacity="1.000000"/>
<path d="M 314.892578 85.335938 L 314.892578 84.412109 L 321.729980 84.412109 L 321.729980 85.335938 Z " fill="black" fill-opacity="1.000000"/>
<path d="M 321.892578 85.335938 L 321.892578 84.412109 L 328.729980 84.412109 L 328.729980 85.335938 Z " fill="black" fill-opacity="1.000000"/>
<path d="M 328.892578 85.335938 L 328.892578 84.412109 L 335.729980 84.412109 L 335.729980 85.335938 Z " fill="black" fill-opacity="1.000000"/>
<path d="M 335.892578 85.335938 L 335.892578 84.412109 L 342.729980 84.412109 L 342.729980 85.335938 Z " fill="black" fill-opacity="1.000000"/>
<path d="M 342.892578 85.335938 L 342.892578 84.412109 L 349.729980 84.412109 L 349.729980 85.335938 Z " fill="black" fill-opacity="1.000000"/>
<path d="M 350.547852 84.111328 L 356.241211 84.111328 L 356.241211 85.019043 L 350.547852 85.019043 Z " fill="black" fill-opacity="1.000000"/>
<path d="M 356.892578 85.335938 L 356.892578 84.412109 L 363.729980 84.412109 L 363.729980 85.335938 Z " fill="black" fill-opacity="1.000000"/>
<path d="M 363.892578 85.335938 L 363.892578 84.412109 L 370.729980 84.412109 L 370.729980 85.335938 Z " fill="black" fill-opacity="1.000000"/>
<path d="M 370.892578 85.335938 L 370.892578 84.412109 L 377.729980 84.412109 L 377.729980 85.335938 Z " fill="black" fill-opacity="1.000000"/>
<path d="M 377.892578 85.335938 L 377.892578 84.412109 L 384.729980 84.412109 L 384.729980 85.335938 Z " fill="black" fill-opacity="1.000000"/>
<path d="M 384.892578 85.335938 L 384.892578 84.412109 L 391.729980 84.412109 L 391.729980 85.335938 Z " fill="black" fill-opacity="1.000000"/>
<path d="M 391.892578 85.335938 L 391.892578 84.412109 L 398.729980 84.412109 L 398.729980 85.335938 Z " fill="black" fill-opacity="1.000000"/>
<path d="M 398.892578 85.335938 L 398.892578 84.412109 L 405.729980 84.412109 L 405.729980 85.335938 Z " fill="black" fill-opacity="1.000000"/>
<path d="M 405.892578 85.335938 L 405.892578 84.412109 L 412.729980 84.412109 L 412.729980 85.335938 Z " fill="black" fill-opacity="1.000000"/>
<path d="M 412.892578 85.335938 L 412.892578 84.412109 L 419.729980 84.412109 L 419.729980 85.335938 Z " fill="black" fill-opacity="1.000000"/>
<path d="M 419.892578 85.335938 L 419.892578 84.412109 L 426.729980 84.412109 L 426.729980 85.335938 Z " fill="black" fill-opacity="1.000000"/>
<path d="M 426.892578 85.335938 L 426.892578 84.412109 L 433.729980 84.412109 L 433.729980 85.335938 Z " fill="black" fill-opacity="1.000000"/>
<path d="M 433.892578 85.335938 L 433.892578 84.412109 L 440.729980 84.412109 L 440.729980 85.335938 Z " fill="black" fill-opacity="1.000000"/>
<path d="M 440.892578 85.335938 L 440.892578 84.412109 L 447.729980 84.412109 L 447.729980 85.335938 Z " fill="black" fill-opacity="1.000000"/>
<path d="M 447.892578 85.335938 L 447.892578 84.412109 L 454.729980 84.412109 L 454.729980 85.335938 Z " fill="black" fill-opacity="1.000000"/>
<path d="M 454.892578 85.335938 L 454.892578 84.412109 L 461.729980 84.412109 L 461.729980 85.335938 Z " fill="black" fill-opacity="1.000000"/>
<path d="M 461.892578 85.335938 L 461.892578 84.412109 L 468.729980 84.412109 L 468.729980 85.335938 Z " fill="black" fill-opacity="1.000000"/>
<path d="M 468.892578 85.335938 L 468.892578 84.412109 L 475.729980 84.412109 L 475.729980 85.335938 Z " fill="black" fill-opacity="1.000000"/>
<path d="M 475.892578 85.335938 L 475.892578 84.412109 L 482.729980 84.412109 L 482.729980 85.335938 Z " fill="black" fill-opacity="1.000000"/>
<path d="M 482.892578 85.335938 L 482.892578 84.412109 L 489.729980 84.412109 L 489.729980 85.335938 Z " fill="black" fill-opacity="1.000000"/>
<path d="M 489.892578 85.335938 L 489.892578 84.412109 L 496.729980 84.412109 L 496.729980 85.335938 Z " fill="black" fill-opacity="1.000000"/>
<path d="M 499.878906 91.319336 L 499.878906 85.335938 L 496.892578 85.335938 L 496.892578 84.412109 L 500.738281 84.412109 L 500.738281 91.319336 Z " fill="black" fill-opacity="1.000000"/>
<path d="M 499.878906 78.319336 L 499.878906 72.335938 L 496.892578 72.335938 L 496.892578 71.412109 L 500.738281 71.412109 L 500.738281 78.319336 Z " fill="black" fill-opacity="1.000000"/>
<path d="M 58.878906 13.319336 L 58.878906 6.412109 L 62.729980 6.412109 L 62.729980 7.335938 L 59.738281 7.335938 L 59.738281 13.319336 Z " fill="black" fill-opacity="1.000000"/>
<path d="M 58.878906 26.319336 L 58.878906 12.300781 L 59.738281 12.300781 L 59.738281 26.319336 Z " fill="black" fill-opacity="1.000000"/>
<path d="M 58.878906 33.335938 L 58.878906 25.300781 L 59.738281 25.300781 L 59.738281 32.412109 L 62.729980 32.412109 L 62.729980 33.335938 Z " fill="black" fill-opacity="1.000000"/>
<path d="M 58.878906 46.335938 L 58.878906 38.300781 L 59.738281 38.300781 L 59.738281 45.412109 L 62.729980 45.412109 L 62.729980 46.335938 Z " fill="black" fill-opacity="1.000000"/>
<path d="M 248.308594 62.418945 L 245.032227 55.866211 L 251.590332 55.866211 Z " fill="black" fill-opacity="1.000000"/>
<path d="M 62.892578 33.335938 L 62.892578 32.412109 L 69.729980 32.412109 L 69.729980 33.335938 Z " fill="black" fill-opacity="1.000000"/>
<path d="M 69.892578 33.335938 L 69.892578 32.412109 L 76.729980 32.412109 L 76.729980 33.335938 Z " fill="black" fill-opacity="1.000000"/>
<path d="M 76.892578 33.335938 L 76.892578 32.412109 L 83.729980 32.412109 L 83.729980 33.335938 Z " fill="black" fill-opacity="1.000000"/>
<path d="M 83.892578 33.335938 L 83.892578 32.412109 L 90.729980 32.412109 L 90.729980 33.335938 Z " fill="black" fill-opacity="1.000000"/>
<path d="M 90.892578 33.335938 L 90.892578 32.412109 L 97.729980 32.412109 L 97.729980 33.335938 Z " fill="black" fill-opacity="1.000000"/>
<path d="M 97.892578 33.335938 L 97.892578 32.412109 L 104.729980 32.412109 L 104.729980 33.335938 Z " fill="black" fill-opacity="1.000000"/>
<path d="M 104.892578 33.335938 L 104.892578 32.412109 L 111.729980 32.412109 L 111.729980 33.335938 Z " fill="black" fill-opacity="1.000000"/>
<path d="M 111.892578 33.335938 L 111.892578 32.412109 L 118.729980 32.412109 L 118.729980 33.335938 Z " fill="black" fill-opacity="1.000000"/>
<path d="M 118.892578 33.335938 L 118.892578 32.412109 L 125.729980 32.412109 L 125.729980 33.335938 Z " fill="black" fill-opacity="1.000000"/>
<path d="M 125.892578 33.335938 L 125.892578 32.412109 L 132.729980 32.412109 L 132.729980 33.335938 Z " fill="black" fill-opacity="1.000000"/>
<path d="M 132.892578 33.335938 L 132.892578 32.412109 L 139.729980 32.412109 L 139.729980 33.335938 Z " fill="black" fill-opacity="1.000000"/>
<path d="M 139.892578 33.335938 L 139.892578 32.412109 L 146.729980 32.412109 L 146.729980 33.335938 Z " fill="black" fill-opacity="1.000000"/>
<path d="M 146.892578 33.335938 L 146.892578 32.412109 L 153.729980 32.412109 L 153.729980 33.335938 Z " fill="black" fill-opacity="1.000000"/>
<path d="M 153.892578 33.335938 L 153.892578 32.412109 L 160.729980 32.412109 L 160.729980 33.335938 Z " fill="black" fill-opacity="1.000000"/>
<path d="M 160.892578 33.335938 L 160.892578 32.412109 L 167.729980 32.412109 L 167.729980 33.335938 Z " fill="black" fill-opacity="1.000000"/>
<path d="M 167.892578 33.335938 L 167.892578 32.412109 L 174.729980 32.412109 L 174.729980 33.335938 Z " fill="black" fill-opacity="1.000000"/>
<path d="M 174.892578 33.335938 L 174.892578 32.412109 L 181.729980 32.412109 L 181.729980 33.335938 Z " fill="black" fill-opacity="1.000000"/>
<path d="M 181.892578 33.335938 L 181.892578 32.412109 L 188.729980 32.412109 L 188.729980 33.335938 Z " fill="black" fill-opacity="1.000000"/>
<path d="M 188.892578 33.335938 L 188.892578 32.412109 L 195.729980 32.412109 L 195.729980 33.335938 Z " fill="black" fill-opacity="1.000000"/>
<path d="M 195.892578 33.335938 L 195.892578 32.412109 L 202.729980 32.412109 L 202.729980 33.335938 Z " fill="black" fill-opacity="1.000000"/>
<path d="M 202.892578 33.335938 L 202.892578 32.412109 L 209.729980 32.412109 L 209.729980 33.335938 Z " fill="black" fill-opacity="1.000000"/>
<path d="M 209.892578 33.335938 L 209.892578 32.412109 L 216.729980 32.412109 L 216.729980 33.335938 Z " fill="black" fill-opacity="1.000000"/>
<path d="M 216.892578 33.335938 L 216.892578 32.412109 L 223.729980 32.412109 L 223.729980 33.335938 Z " fill="black" fill-opacity="1.000000"/>
<path d="M 223.892578 33.335938 L 223.892578 32.412109 L 230.729980 32.412109 L 230.729980 33.335938 Z " fill="black" fill-opacity="1.000000"/>
<path d="M 230.892578 33.335938 L 230.892578 32.412109 L 237.729980 32.412109 L 237.729980 33.335938 Z " fill="black" fill-opacity="1.000000"/>
<path d="M 237.892578 33.335938 L 237.892578 32.412109 L 244.729980 32.412109 L 244.729980 33.335938 Z " fill="black" fill-opacity="1.000000"/>
<path d="M 244.892578 33.335938 L 244.892578 32.412109 L 251.729980 32.412109 L 251.729980 33.335938 Z " fill="black" fill-opacity="1.000000"/>
<path d="M 251.892578 33.335938 L 251.892578 32.412109 L 258.729980 32.412109 L 258.729980 33.335938 Z " fill="black" fill-opacity="1.000000"/>
<path d="M 258.892578 33.335938 L 258.892578 32.412109 L 265.729980 32.412109 L 265.729980 33.335938 Z " fill="black" fill-opacity="1.000000"/>
<path d="M 265.892578 33.335938 L 265.892578 32.412109 L 272.729980 32.412109 L 272.729980 33.335938 Z " fill="black" fill-opacity="1.000000"/>
<path d="M 272.892578 33.335938 L 272.892578 32.412109 L 279.729980 32.412109 L 279.729980 33.335938 Z " fill="black" fill-opacity="1.000000"/>
<path d="M 279.892578 33.335938 L 279.892578 32.412109 L 286.729980 32.412109 L 286.729980 33.335938 Z " fill="black" fill-opacity="1.000000"/>
<path d="M 286.892578 33.335938 L 286.892578 32.412109 L 293.729980 32.412109 L 293.729980 33.335938 Z " fill="black" fill-opacity="1.000000"/>
<path d="M 293.892578 33.335938 L 293.892578 32.412109 L 300.729980 32.412109 L 300.729980 33.335938 Z " fill="black" fill-opacity="1.000000"/>
<path d="M 300.892578 33.335938 L 300.892578 32.412109 L 307.729980 32.412109 L 307.729980 33.335938 Z " fill="black" fill-opacity="1.000000"/>
<path d="M 307.892578 33.335938 L 307.892578 32.412109 L 314.729980 32.412109 L 314.729980 33.335938 Z " fill="black" fill-opacity="1.000000"/>
<path d="M 314.892578 33.335938 L 314.892578 32.412109 L 321.729980 32.412109 L 321.729980 33.335938 Z " fill="black" fill-opacity="1.000000"/>
<path d="M 321.892578 33.335938 L 321.892578 32.412109 L 328.729980 32.412109 L 328.729980 33.335938 Z " fill="black" fill-opacity="1.000000"/>
<path d="M 328.892578 33.335938 L 328.892578 32.412109 L 335.729980 32.412109 L 335.729980 33.335938 Z " fill="black" fill-opacity="1.000000"/>
<path d="M 335.892578 33.335938 L 335.892578 32.412109 L 342.729980 32.412109 L 342.729980 33.335938 Z " fill="black" fill-opacity="1.000000"/>
<path d="M 342.892578 33.335938 L 342.892578 32.412109 L 349.729980 32.412109 L 349.729980 33.335938 Z " fill="black" fill-opacity="1.000000"/>
<path d="M 349.892578 33.335938 L 349.892578 32.412109 L 356.729980 32.412109 L 356.729980 33.335938 Z " fill="black" fill-opacity="1.000000"/>
<path d="M 356.892578 33.335938 L 356.892578 32.412109 L 363.729980 32.412109 L 363.729980 33.335938 Z " fill="black" fill-opacity="1.000000"/>
<path d="M 363.892578 33.335938 L 363.892578 32.412109 L 370.729980 32.412109 L 370.729980 33.335938 Z " fill="black" fill-opacity="1.000000"/>
<path d="M 370.892578 33.335938 L 370.892578 32.412109 L 377.729980 32.412109 L 377.729980 33.335938 Z " fill="black" fill-opacity="1.000000"/>
<path d="M 377.892578 33.335938 L 377.892578 32.412109 L 384.729980 32.412109 L 384.729980 33.335938 Z " fill="black" fill-opacity="1.000000"/>
<path d="M 384.892578 33.335938 L 384.892578 32.412109 L 391.729980 32.412109 L 391.729980 33.335938 Z " fill="black" fill-opacity="1.000000"/>
<path d="M 391.892578 33.335938 L 391.892578 32.412109 L 398.729980 32.412109 L 398.729980 33.335938 Z " fill="black" fill-opacity="1.000000"/>
<path d="M 398.892578 33.335938 L 398.892578 32.412109 L 405.729980 32.412109 L 405.729980 33.335938 Z " fill="black" fill-opacity="1.000000"/>
<path d="M 405.892578 33.335938 L 405.892578 32.412109 L 412.729980 32.412109 L 412.729980 33.335938 Z " fill="black" fill-opacity="1.000000"/>
<path d="M 412.892578 33.335938 L 412.892578 32.412109 L 419.729980 32.412109 L 419.729980 33.335938 Z " fill="black" fill-opacity="1.000000"/>
<path d="M 419.892578 33.335938 L 419.892578 32.412109 L 426.729980 32.412109 L 426.729980 33.335938 Z " fill="black" fill-opacity="1.000000"/>
<path d="M 426.892578 33.335938 L 426.892578 32.412109 L 433.729980 32.412109 L 433.729980 33.335938 Z " fill="black" fill-opacity="1.000000"/>
<path d="M 433.892578 33.335938 L 433.892578 32.412109 L 440.729980 32.412109 L 440.729980 33.335938 Z " fill="black" fill-opacity="1.000000"/>
<path d="M 62.892578 46.335938 L 62.892578 45.412109 L 69.729980 45.412109 L 69.729980 46.335938 Z " fill="black" fill-opacity="1.000000"/>
<path d="M 69.892578 46.335938 L 69.892578 45.412109 L 76.729980 45.412109 L 76.729980 46.335938 Z " fill="black" fill-opacity="1.000000"/>
<path d="M 76.892578 46.335938 L 76.892578 45.412109 L 83.729980 45.412109 L 83.729980 46.335938 Z " fill="black" fill-opacity="1.000000"/>
<path d="M 83.892578 46.335938 L 83.892578 45.412109 L 90.729980 45.412109 L 90.729980 46.335938 Z " fill="black" fill-opacity="1.000000"/>
<path d="M 90.892578 46.335938 L 90.892578 45.412109 L 97.729980 45.412109 L 97.729980 46.335938 Z " fill="black" fill-opacity="1.000000"/>
<path d="M 97.892578 46.335938 L 97.892578 45.412109 L 104.729980 45.412109 L 104.729980 46.335938 Z " fill="black" fill-opacity="1.000000"/>
<path d="M 104.892578 46.335938 L 104.892578 45.412109 L 111.729980 45.412109 L 111.729980 46.335938 Z " fill="black" fill-opacity="1.000000"/>
<path d="M 111.892578 46.335938 L 111.892578 45.412109 L 118.729980 45.412109 L 118.729980 46.335938 Z " fill="black" fill-opacity="1.000000"/>
<path d="M 118.892578 46.335938 L 118.892578 45.412109 L 125.729980 45.412109 L 125.729980 46.335938 Z " fill="black" fill-opacity="1.000000"/>
<path d="M 125.892578 46.335938 L 125.892578 45.412109 L 132.729980 45.412109 L 132.729980 46.335938 Z " fill="black" fill-opacity="1.000000"/>
<path d="M 132.892578 46.335938 L 132.892578 45.412109 L 139.729980 45.412109 L 139.729980 46.335938 Z " fill="black" fill-opacity="1.000000"/>
<path d="M 139.892578 46.335938 L 139.892578 45.412109 L 146.729980 45.412109 L 146.729980 46.335938 Z " fill="black" fill-opacity="1.000000"/>
<path d="M 146.892578 46.335938 L 146.892578 45.412109 L 153.729980 45.412109 L 153.729980 46.335938 Z " fill="black" fill-opacity="1.000000"/>
<path d="M 153.892578 46.335938 L 153.892578 45.412109 L 160.729980 45.412109 L 160.729980 46.335938 Z " fill="black" fill-opacity="1.000000"/>
<path d="M 160.892578 46.335938 L 160.892578 45.412109 L 167.729980 45.412109 L 167.729980 46.335938 Z " fill="black" fill-opacity="1.000000"/>
<path d="M 167.892578 46.335938 L 167.892578 45.412109 L 174.729980 45.412109 L 174.729980 46.335938 Z " fill="black" fill-opacity="1.000000"/>
<path d="M 174.892578 46.335938 L 174.892578 45.412109 L 181.729980 45.412109 L 181.729980 46.335938 Z " fill="black" fill-opacity="1.000000"/>
<path d="M 181.892578 46.335938 L 181.892578 45.412109 L 188.729980 45.412109 L 188.729980 46.335938 Z " fill="black" fill-opacity="1.000000"/>
<path d="M 188.892578 46.335938 L 188.892578 45.412109 L 195.729980 45.412109 L 195.729980 46.335938 Z " fill="black" fill-opacity="1.000000"/>
<path d="M 195.892578 46.335938 L 195.892578 45.412109 L 202.729980 45.412109 L 202.729980 46.335938 Z " fill="black" fill-opacity="1.000000"/>
<path d="M 202.892578 46.335938 L 202.892578 45.412109 L 209.729980 45.412109 L 209.729980 46.335938 Z " fill="black" fill-opacity="1.000000"/>
<path d="M 209.892578 46.335938 L 209.892578 45.412109 L 216.729980 45.412109 L 216.729980 46.335938 Z " fill="black" fill-opacity="1.000000"/>
<path d="M 216.892578 46.335938 L 216.892578 45.412109 L 223.729980 45.412109 L 223.729980 46.335938 Z " fill="black" fill-opacity="1.000000"/>
<path d="M 223.892578 46.335938 L 223.892578 45.412109 L 230.729980 45.412109 L 230.729980 46.335938 Z " fill="black" fill-opacity="1.000000"/>
<path d="M 230.892578 46.335938 L 230.892578 45.412109 L 237.729980 45.412109 L 237.729980 46.335938 Z " fill="black" fill-opacity="1.000000"/>
<path d="M 237.892578 46.335938 L 237.892578 45.412109 L 244.729980 45.412109 L 244.729980 46.335938 Z " fill="black" fill-opacity="1.000000"/>
<path d="M 247.878906 52.319336 L 247.878906 46.335938 L 244.892578 46.335938 L 244.892578 45.412109 L 251.729980 45.412109 L 251.729980 46.335938 L 248.738281 46.335938 L 248.738281 52.319336 Z " fill="black" fill-opacity="1.000000"/>
<path d="M 251.892578 46.335938 L 251.892578 45.412109 L 258.729980 45.412109 L 258.729980 46.335938 Z " fill="black" fill-opacity="1.000000"/>
<path d="M 258.892578 46.335938 L 258.892578 45.412109 L 265.729980 45.412109 L 265.729980 46.335938 Z " fill="black" fill-opacity="1.000000"/>
<path d="M 265.892578 46.335938 L 265.892578 45.412109 L 272.729980 45.412109 L 272.729980 46.335938 Z " fill="black" fill-opacity="1.000000"/>
<path d="M 272.892578 46.335938 L 272.892578 45.412109 L 279.729980 45.412109 L 279.729980 46.335938 Z " fill="black" fill-opacity="1.000000"/>
<path d="M 279.892578 46.335938 L 279.892578 45.412109 L 286.729980 45.412109 L 286.729980 46.335938 Z " fill="black" fill-opacity="1.000000"/>
<path d="M 286.892578 46.335938 L 286.892578 45.412109 L 293.729980 45.412109 L 293.729980 46.335938 Z " fill="black" fill-opacity="1.000000"/>
<path d="M 293.892578 46.335938 L 293.892578 45.412109 L 300.729980 45.412109 L 300.729980 46.335938 Z " fill="black" fill-opacity="1.000000"/>
<path d="M 300.892578 46.335938 L 300.892578 45.412109 L 307.729980 45.412109 L 307.729980 46.335938 Z " fill="black" fill-opacity="1.000000"/>
<path d="M 307.892578 46.335938 L 307.892578 45.412109 L 314.729980 45.412109 L 314.729980 46.335938 Z " fill="black" fill-opacity="1.000000"/>
<path d="M 314.892578 46.335938 L 314.892578 45.412109 L 321.729980 45.412109 L 321.729980 46.335938 Z " fill="black" fill-opacity="1.000000"/>
<path d="M 321.892578 46.335938 L 321.892578 45.412109 L 328.729980 45.412109 L 328.729980 46.335938 Z " fill="black" fill-opacity="1.000000"/>
<path d="M 328.892578 46.335938 L 328.892578 45.412109 L 335.729980 45.412109 L 335.729980 46.335938 Z " fill="black" fill-opacity="1.000000"/>
<path d="M 335.892578 46.335938 L 335.892578 45.412109 L 342.729980 45.412109 L 342.729980 46.335938 Z " fill="black" fill-opacity="1.000000"/>
<path d="M 342.892578 46.335938 L 342.892578 45.412109 L 349.729980 45.412109 L 349.729980 46.335938 Z " fill="black" fill-opacity="1.000000"/>
<path d="M 349.892578 46.335938 L 349.892578 45.412109 L 356.729980 45.412109 L 356.729980 46.335938 Z " fill="black" fill-opacity="1.000000"/>
<path d="M 356.892578 46.335938 L 356.892578 45.412109 L 363.729980 45.412109 L 363.729980 46.335938 Z " fill="black" fill-opacity="1.000000"/>
<path d="M 363.892578 46.335938 L 363.892578 45.412109 L 370.729980 45.412109 L 370.729980 46.335938 Z " fill="black" fill-opacity="1.000000"/>
<path d="M 370.892578 46.335938 L 370.892578 45.412109 L 377.729980 45.412109 L 377.729980 46.335938 Z " fill="black" fill-opacity="1.000000"/>
<path d="M 377.892578 46.335938 L 377.892578 45.412109 L 384.729980 45.412109 L 384.729980 46.335938 Z " fill="black" fill-opacity="1.000000"/>
<path d="M 384.892578 46.335938 L 384.892578 45.412109 L 391.729980 45.412109 L 391.729980 46.335938 Z " fill="black" fill-opacity="1.000000"/>
<path d="M 391.892578 46.335938 L 391.892578 45.412109 L 398.729980 45.412109 L 398.729980 46.335938 Z " fill="black" fill-opacity="1.000000"/>
<path d="M 398.892578 46.335938 L 398.892578 45.412109 L 405.729980 45.412109 L 405.729980 46.335938 Z " fill="black" fill-opacity="1.000000"/>
<path d="M 405.892578 46.335938 L 405.892578 45.412109 L 412.729980 45.412109 L 412.729980 46.335938 Z " fill="black" fill-opacity="1.000000"/>
<path d="M 412.892578 46.335938 L 412.892578 45.412109 L 419.729980 45.412109 L 419.729980 46.335938 Z " fill="black" fill-opacity="1.000000"/>
<path d="M 419.892578 46.335938 L 419.892578 45.412109 L 426.729980 45.412109 L 426.729980 46.335938 Z " fill="black" fill-opacity="1.000000"/>
<path d="M 426.892578 46.335938 L 426.892578 45.412109 L 433.729980 45.412109 L 433.729980 46.335938 Z " fill="black" fill-opacity="1.000000"/>
<path d="M 433.892578 46.335938 L 433.892578 45.412109 L 440.729980 45.412109 L 440.729980 46.335938 Z " fill="black" fill-opacity="1.000000"/>
<path d="M 440.892578 46.335938 L 440.892578 45.412109 L 443.878906 45.412109 L 443.878906 38.300781 L 444.738281 38.300781 L 444.738281 46.335938 Z " fill="black" fill-opacity="1.000000"/>
<path d="M 440.892578 33.335938 L 440.892578 32.412109 L 443.878906 32.412109 L 443.878906 25.300781 L 444.738281 25.300781 L 444.738281 33.335938 Z " fill="black" fill-opacity="1.000000"/>
<path d="M 201.435547 15.254883 L 201.435547 16.355957 Q 200.941406 16.039062 200.444580 15.877930 Q 199.947754 15.716797 199.442871 15.716797 Q 198.674805 15.716797 198.229004 16.073975 Q 197.783203 16.431152 197.783203 17.038086 Q 197.783203 17.569824 198.075928 17.849121 Q 198.368652 18.128418 199.168945 18.316406 L 199.738281 18.445312 Q 200.866211 18.708496 201.381836 19.272461 Q 201.897461 19.836426 201.897461 20.808594 Q 201.897461 21.952637 201.188477 22.554199 Q 200.479492 23.155762 199.125977 23.155762 Q 198.562012 23.155762 197.992676 23.034912 Q 197.423340 22.914062 196.848633 22.672363 L 196.848633 21.517578 Q 197.466309 21.909668 198.016846 22.092285 Q 198.567383 22.274902 199.125977 22.274902 Q 199.947754 22.274902 200.404297 21.906982 Q 200.860840 21.539062 200.860840 20.878418 Q 200.860840 20.276855 200.546631 19.959961 Q 200.232422 19.643066 199.453613 19.471191 L 198.873535 19.336914 Q 197.756348 19.084473 197.251465 18.574219 Q 196.746582 18.063965 196.746582 17.204590 Q 196.746582 16.130371 197.468994 15.483154 Q 198.191406 14.835938 199.389160 14.835938 Q 199.851074 14.835938 200.361328 14.940674 Q 200.871582 15.045410 201.435547 15.254883 Z " fill="black" fill-opacity="1.000000"/>
<path d="M 204.697266 17.005859 L 207.227051 17.005859 L 207.227051 22.231934 L 209.187500 22.231934 L 209.187500 23.000000 L 204.278320 23.000000 L 204.278320 22.231934 L 206.238770 22.231934 L 206.238770 17.773926 L 204.697266 17.773926 Z M 206.238770 14.669434 L 207.227051 14.669434 L 207.227051 15.915527 L 206.238770 15.915527 Z " fill="black" fill-opacity="1.000000"/>
<path d="M 214.608398 19.943848 Q 214.608398 18.832031 214.245850 18.254639 Q 213.883301 17.677246 213.190430 17.677246 Q 212.465332 17.677246 212.083984 18.254639 Q 211.702637 18.832031 211.702637 19.943848 Q 211.702637 21.055664 212.086670 21.638428 Q 212.470703 22.221191 213.201172 22.221191 Q 213.883301 22.221191 214.245850 21.635742 Q 214.608398 21.050293 214.608398 19.943848 Z M 215.596680 22.613281 Q 215.596680 23.966797 214.957520 24.665039 Q 214.318359 25.363281 213.077637 25.363281 Q 212.669434 25.363281 212.223633 25.288086 Q 211.777832 25.212891 211.332031 25.067871 L 211.332031 24.090332 Q 211.858398 24.337402 212.288086 24.455566 Q 212.717773 24.573730 213.077637 24.573730 Q 213.877930 24.573730 214.243164 24.138672 Q 214.608398 23.703613 214.608398 22.758301 L 214.608398 22.715332 L 214.608398 22.043945 Q 214.372070 22.548828 213.963867 22.795898 Q 213.555664 23.042969 212.970215 23.042969 Q 211.917480 23.042969 211.289062 22.199707 Q 210.660645 21.356445 210.660645 19.943848 Q 210.660645 18.525879 211.289062 17.682617 Q 211.917480 16.839355 212.970215 16.839355 Q 213.550293 16.839355 213.953125 17.070312 Q 214.355957 17.301270 214.608398 17.784668 L 214.608398 17.005859 L 215.596680 17.005859 Z " fill="black" fill-opacity="1.000000"/>
<path d="M 222.645020 19.272461 L 222.645020 23.000000 L 221.651367 23.000000 L 221.651367 19.272461 Q 221.651367 18.461426 221.366699 18.080078 Q 221.082031 17.698730 220.475098 17.698730 Q 219.782227 17.698730 219.408936 18.190186 Q 219.035645 18.681641 219.035645 19.600098 L 219.035645 23.000000 L 218.047363 23.000000 L 218.047363 16.984375 L 219.035645 16.984375 L 219.035645 17.886719 Q 219.298828 17.371094 219.750000 17.105225 Q 220.201172 16.839355 220.818848 16.839355 Q 221.737305 16.839355 222.191162 17.443604 Q 222.645020 18.047852 222.645020 19.272461 Z " fill="black" fill-opacity="1.000000"/>
<path d="M 230.015625 19.498047 L 230.015625 19.981445 L 225.734863 19.981445 L 225.734863 20.013672 Q 225.691895 21.243652 226.204834 21.780762 Q 226.717773 22.317871 227.652344 22.317871 Q 228.125000 22.317871 228.640625 22.167480 Q 229.156250 22.017090 229.741699 21.710938 L 229.741699 22.693848 Q 229.177734 22.924805 228.654053 23.040283 Q 228.130371 23.155762 227.641602 23.155762 Q 226.239746 23.155762 225.450195 22.315186 Q 224.660645 21.474609 224.660645 19.997559 Q 224.660645 18.558105 225.434082 17.698730 Q 226.207520 16.839355 227.496582 16.839355 Q 228.645996 16.839355 229.309326 17.618164 Q 229.972656 18.396973 230.015625 19.498047 Z M 229.027344 19.208008 Q 228.962891 18.584961 228.573486 18.131104 Q 228.184082 17.677246 227.453613 17.677246 Q 226.739258 17.677246 226.277344 18.149902 Q 225.815430 18.622559 225.772461 19.213379 Z " fill="black" fill-opacity="1.000000"/>
<path d="M 235.608398 17.752441 L 235.608398 14.642578 L 236.596680 14.642578 L 236.596680 23.000000 L 235.608398 23.000000 L 235.608398 22.242676 Q 235.361328 22.688477 234.950439 22.922119 Q 234.539551 23.155762 234.002441 23.155762 Q 232.912109 23.155762 232.286377 22.309814 Q 231.660645 21.463867 231.660645 19.976074 Q 231.660645 18.509766 232.289062 17.674561 Q 232.917480 16.839355 234.002441 16.839355 Q 234.544922 16.839355 234.958496 17.072998 Q 235.372070 17.306641 235.608398 17.752441 Z M 232.702637 19.997559 Q 232.702637 21.146973 233.067871 21.732422 Q 233.433105 22.317871 234.147461 22.317871 Q 234.861816 22.317871 235.235107 21.727051 Q 235.608398 21.136230 235.608398 19.997559 Q 235.608398 18.853516 235.235107 18.265381 Q 234.861816 17.677246 234.147461 17.677246 Q 233.433105 17.677246 233.067871 18.262695 Q 232.702637 18.848145 232.702637 19.997559 Z " fill="black" fill-opacity="1.000000"/>
<path d="M 248.308594 15.937012 L 247.164551 20.040527 L 249.452637 20.040527 Z M 247.653320 14.980957 L 248.969238 14.980957 L 251.423828 23.000000 L 250.301270 23.000000 L 249.710449 20.910645 L 246.901367 20.910645 L 246.321289 23.000000 L 245.198730 23.000000 Z " fill="black" fill-opacity="1.000000"/>
<path d="M 257.435547 15.254883 L 257.435547 16.355957 Q 256.941406 16.039062 256.444580 15.877930 Q 255.947754 15.716797 255.442871 15.716797 Q 254.674805 15.716797 254.229004 16.073975 Q 253.783203 16.431152 253.783203 17.038086 Q 253.783203 17.569824 254.075928 17.849121 Q 254.368652 18.128418 255.168945 18.316406 L 255.738281 18.445312 Q 256.866211 18.708496 257.381836 19.272461 Q 257.897461 19.836426 257.897461 20.808594 Q 257.897461 21.952637 257.188477 22.554199 Q 256.479492 23.155762 255.125977 23.155762 Q 254.562012 23.155762 253.992676 23.034912 Q 253.423340 22.914062 252.848633 22.672363 L 252.848633 21.517578 Q 253.466309 21.909668 254.016846 22.092285 Q 254.567383 22.274902 255.125977 22.274902 Q 255.947754 22.274902 256.404297 21.906982 Q 256.860840 21.539062 256.860840 20.878418 Q 256.860840 20.276855 256.546631 19.959961 Q 256.232422 19.643066 255.453613 19.471191 L 254.873535 19.336914 Q 253.756348 19.084473 253.251465 18.574219 Q 252.746582 18.063965 252.746582 17.204590 Q 252.746582 16.130371 253.468994 15.483154 Q 254.191406 14.835938 255.389160 14.835938 Q 255.851074 14.835938 256.361328 14.940674 Q 256.871582 15.045410 257.435547 15.254883 Z " fill="black" fill-opacity="1.000000"/>
<path d="M 267.058105 14.980957 L 271.816895 14.980957 L 271.816895 15.894043 L 268.143066 15.894043 L 268.143066 18.053223 L 271.655762 18.053223 L 271.655762 18.966309 L 268.143066 18.966309 L 268.143066 22.086914 L 271.918945 22.086914 L 271.918945 23.000000 L 267.058105 23.000000 Z " fill="black" fill-opacity="1.000000"/>
<path d="M 278.645020 19.272461 L 278.645020 23.000000 L 277.651367 23.000000 L 277.651367 19.272461 Q 277.651367 18.461426 277.366699 18.080078 Q 277.082031 17.698730 276.475098 17.698730 Q 275.782227 17.698730 275.408936 18.190186 Q 275.035645 18.681641 275.035645 19.600098 L 275.035645 23.000000 L 274.047363 23.000000 L 274.047363 16.984375 L 275.035645 16.984375 L 275.035645 17.886719 Q 275.298828 17.371094 275.750000 17.105225 Q 276.201172 16.839355 276.818848 16.839355 Q 277.737305 16.839355 278.191162 17.443604 Q 278.645020 18.047852 278.645020 19.272461 Z " fill="black" fill-opacity="1.000000"/>
<path d="M 283.297852 15.276367 L 283.297852 16.984375 L 285.542969 16.984375 L 285.542969 17.752441 L 283.297852 17.752441 L 283.297852 21.018066 Q 283.297852 21.684082 283.550293 21.947266 Q 283.802734 22.210449 284.431152 22.210449 L 285.542969 22.210449 L 285.542969 23.000000 L 284.334473 23.000000 Q 283.222656 23.000000 282.766113 22.554199 Q 282.309570 22.108398 282.309570 21.018066 L 282.309570 17.752441 L 280.703613 17.752441 L 280.703613 16.984375 L 282.309570 16.984375 L 282.309570 15.276367 Z " fill="black" fill-opacity="1.000000"/>
<path d="M 293.203613 18.225098 Q 292.886719 17.978027 292.559082 17.865234 Q 292.231445 17.752441 291.839355 17.752441 Q 290.915527 17.752441 290.426758 18.332520 Q 289.937988 18.912598 289.937988 20.008301 L 289.937988 23.000000 L 288.944336 23.000000 L 288.944336 16.984375 L 289.937988 16.984375 L 289.937988 18.160645 Q 290.185059 17.521484 290.697998 17.180420 Q 291.210938 16.839355 291.914551 16.839355 Q 292.279785 16.839355 292.596680 16.930664 Q 292.913574 17.021973 293.203613 17.215332 Z " fill="black" fill-opacity="1.000000"/>
<path d="M 298.608398 21.066406 Q 298.361328 21.694824 297.979980 22.720703 Q 297.448242 24.138672 297.265625 24.450195 Q 297.018555 24.869141 296.647949 25.078613 Q 296.277344 25.288086 295.783203 25.288086 L 294.988281 25.288086 L 294.988281 24.460938 L 295.573730 24.460938 Q 296.008789 24.460938 296.255859 24.208496 Q 296.502930 23.956055 296.884277 22.903320 L 294.558594 16.984375 L 295.605957 16.984375 L 297.389160 21.689453 L 299.145508 16.984375 L 300.192871 16.984375 Z " fill="black" fill-opacity="1.000000"/>
<path d="M 443.878906 26.319336 L 443.878906 12.300781 L 444.738281 12.300781 L 444.738281 26.319336 Z " fill="black" fill-opacity="1.000000"/>
<path d="M 62.892578 7.335938 L 62.892578 6.412109 L 69.729980 6.412109 L 69.729980 7.335938 Z " fill="black" fill-opacity="1.000000"/>
<path d="M 69.892578 7.335938 L 69.892578 6.412109 L 76.729980 6.412109 L 76.729980 7.335938 Z " fill="black" fill-opacity="1.000000"/>
<path d="M 76.892578 7.335938 L 76.892578 6.412109 L 83.729980 6.412109 L 83.729980 7.335938 Z " fill="black" fill-opacity="1.000000"/>
<path d="M 83.892578 7.335938 L 83.892578 6.412109 L 90.729980 6.412109 L 90.729980 7.335938 Z " fill="black" fill-opacity="1.000000"/>
<path d="M 90.892578 7.335938 L 90.892578 6.412109 L 97.729980 6.412109 L 97.729980 7.335938 Z " fill="black" fill-opacity="1.000000"/>
<path d="M 97.892578 7.335938 L 97.892578 6.412109 L 104.729980 6.412109 L 104.729980 7.335938 Z " fill="black" fill-opacity="1.000000"/>
<path d="M 104.892578 7.335938 L 104.892578 6.412109 L 111.729980 6.412109 L 111.729980 7.335938 Z " fill="black" fill-opacity="1.000000"/>
<path d="M 111.892578 7.335938 L 111.892578 6.412109 L 118.729980 6.412109 L 118.729980 7.335938 Z " fill="black" fill-opacity="1.000000"/>
<path d="M 118.892578 7.335938 L 118.892578 6.412109 L 125.729980 6.412109 L 125.729980 7.335938 Z " fill="black" fill-opacity="1.000000"/>
<path d="M 125.892578 7.335938 L 125.892578 6.412109 L 132.729980 6.412109 L 132.729980 7.335938 Z " fill="black" fill-opacity="1.000000"/>
<path d="M 132.892578 7.335938 L 132.892578 6.412109 L 139.729980 6.412109 L 139.729980 7.335938 Z " fill="black" fill-opacity="1.000000"/>
<path d="M 139.892578 7.335938 L 139.892578 6.412109 L 146.729980 6.412109 L 146.729980 7.335938 Z " fill="black" fill-opacity="1.000000"/>
<path d="M 146.892578 7.335938 L 146.892578 6.412109 L 153.729980 6.412109 L 153.729980 7.335938 Z " fill="black" fill-opacity="1.000000"/>
<path d="M 153.892578 7.335938 L 153.892578 6.412109 L 160.729980 6.412109 L 160.729980 7.335938 Z " fill="black" fill-opacity="1.000000"/>
<path d="M 160.892578 7.335938 L 160.892578 6.412109 L 167.729980 6.412109 L 167.729980 7.335938 Z " fill="black" fill-opacity="1.000000"/>
<path d="M 167.892578 7.335938 L 167.892578 6.412109 L 174.729980 6.412109 L 174.729980 7.335938 Z " fill="black" fill-opacity="1.000000"/>
<path d="M 174.892578 7.335938 L 174.892578 6.412109 L 181.729980 6.412109 L 181.729980 7.335938 Z " fill="black" fill-opacity="1.000000"/>
<path d="M 181.892578 7.335938 L 181.892578 6.412109 L 188.729980 6.412109 L 188.729980 7.335938 Z " fill="black" fill-opacity="1.000000"/>
<path d="M 188.892578 7.335938 L 188.892578 6.412109 L 195.729980 6.412109 L 195.729980 7.335938 Z " fill="black" fill-opacity="1.000000"/>
<path d="M 195.892578 7.335938 L 195.892578 6.412109 L 202.729980 6.412109 L 202.729980 7.335938 Z " fill="black" fill-opacity="1.000000"/>
<path d="M 202.892578 7.335938 L 202.892578 6.412109 L 209.729980 6.412109 L 209.729980 7.335938 Z " fill="black" fill-opacity="1.000000"/>
<path d="M 209.892578 7.335938 L 209.892578 6.412109 L 216.729980 6.412109 L 216.729980 7.335938 Z " fill="black" fill-opacity="1.000000"/>
<path d="M 216.892578 7.335938 L 216.892578 6.412109 L 223.729980 6.412109 L 223.729980 7.335938 Z " fill="black" fill-opacity="1.000000"/>
<path d="M 223.892578 7.335938 L 223.892578 6.412109 L 230.729980 6.412109 L 230.729980 7.335938 Z " fill="black" fill-opacity="1.000000"/>
<path d="M 230.892578 7.335938 L 230.892578 6.412109 L 237.729980 6.412109 L 237.729980 7.335938 Z " fill="black" fill-opacity="1.000000"/>
<path d="M 237.892578 7.335938 L 237.892578 6.412109 L 244.729980 6.412109 L 244.729980 7.335938 Z " fill="black" fill-opacity="1.000000"/>
<path d="M 244.892578 7.335938 L 244.892578 6.412109 L 251.729980 6.412109 L 251.729980 7.335938 Z " fill="black" fill-opacity="1.000000"/>
<path d="M 251.892578 7.335938 L 251.892578 6.412109 L 258.729980 6.412109 L 258.729980 7.335938 Z " fill="black" fill-opacity="1.000000"/>
<path d="M 258.892578 7.335938 L 258.892578 6.412109 L 265.729980 6.412109 L 265.729980 7.335938 Z " fill="black" fill-opacity="1.000000"/>
<path d="M 265.892578 7.335938 L 265.892578 6.412109 L 272.729980 6.412109 L 272.729980 7.335938 Z " fill="black" fill-opacity="1.000000"/>
<path d="M 272.892578 7.335938 L 272.892578 6.412109 L 279.729980 6.412109 L 279.729980 7.335938 Z " fill="black" fill-opacity="1.000000"/>
<path d="M 279.892578 7.335938 L 279.892578 6.412109 L 286.729980 6.412109 L 286.729980 7.335938 Z " fill="black" fill-opacity="1.000000"/>
<path d="M 286.892578 7.335938 L 286.892578 6.412109 L 293.729980 6.412109 L 293.729980 7.335938 Z " fill="black" fill-opacity="1.000000"/>
<path d="M 293.892578 7.335938 L 293.892578 6.412109 L 300.729980 6.412109 L 300.729980 7.335938 Z " fill="black" fill-opacity="1.000000"/>
<path d="M 300.892578 7.335938 L 300.892578 6.412109 L 307.729980 6.412109 L 307.729980 7.335938 Z " fill="black" fill-opacity="1.000000"/>
<path d="M 307.892578 7.335938 L 307.892578 6.412109 L 314.729980 6.412109 L 314.729980 7.335938 Z " fill="black" fill-opacity="1.000000"/>
<path d="M 314.892578 7.335938 L 314.892578 6.412109 L 321.729980 6.412109 L 321.729980 7.335938 Z " fill="black" fill-opacity="1.000000"/>
<path d="M 321.892578 7.335938 L 321.892578 6.412109 L 328.729980 6.412109 L 328.729980 7.335938 Z " fill="black" fill-opacity="1.000000"/>
<path d="M 328.892578 7.335938 L 328.892578 6.412109 L 335.729980 6.412109 L 335.729980 7.335938 Z " fill="black" fill-opacity="1.000000"/>
<path d="M 335.892578 7.335938 L 335.892578 6.412109 L 342.729980 6.412109 L 342.729980 7.335938 Z " fill="black" fill-opacity="1.000000"/>
<path d="M 342.892578 7.335938 L 342.892578 6.412109 L 349.729980 6.412109 L 349.729980 7.335938 Z " fill="black" fill-opacity="1.000000"/>
<path d="M 349.892578 7.335938 L 349.892578 6.412109 L 356.729980 6.412109 L 356.729980 7.335938 Z " fill="black" fill-opacity="1.000000"/>
<path d="M 356.892578 7.335938 L 356.892578 6.412109 L 363.729980 6.412109 L 363.729980 7.335938 Z " fill="black" fill-opacity="1.000000"/>
<path d="M 363.892578 7.335938 L 363.892578 6.412109 L 370.729980 6.412109 L 370.729980 7.335938 Z " fill="black" fill-opacity="1.000000"/>
<path d="M 370.892578 7.335938 L 370.892578 6.412109 L 377.729980 6.412109 L 377.729980 7.335938 Z " fill="black" fill-opacity="1.000000"/>
<path d="M 377.892578 7.335938 L 377.892578 6.412109 L 384.729980 6.412109 L 384.729980 7.335938 Z " fill="black" fill-opacity="1.000000"/>
<path d="M 384.892578 7.335938 L 384.892578 6.412109 L 391.729980 6.412109 L 391.729980 7.335938 Z " fill="black" fill-opacity="1.000000"/>
<path d="M 391.892578 7.335938 L 391.892578 6.412109 L 398.729980 6.412109 L 398.729980 7.335938 Z " fill="black" fill-opacity="1.000000"/>
<path d="M 398.892578 7.335938 L 398.892578 6.412109 L 405.729980 6.412109 L 405.729980 7.335938 Z " fill="black" fill-opacity="1.000000"/>
<path d="M 405.892578 7.335938 L 405.892578 6.412109 L 412.729980 6.412109 L 412.729980 7.335938 Z " fill="black" fill-opacity="1.000000"/>
<path d="M 412.892578 7.335938 L 412.892578 6.412109 L 419.729980 6.412109 L 419.729980 7.335938 Z " fill="black" fill-opacity="1.000000"/>
<path d="M 419.892578 7.335938 L 419.892578 6.412109 L 426.729980 6.412109 L 426.729980 7.335938 Z " fill="black" fill-opacity="1.000000"/>
<path d="M 426.892578 7.335938 L 426.892578 6.412109 L 433.729980 6.412109 L 433.729980 7.335938 Z " fill="black" fill-opacity="1.000000"/>
<path d="M 433.892578 7.335938 L 433.892578 6.412109 L 440.729980 6.412109 L 440.729980 7.335938 Z " fill="black" fill-opacity="1.000000"/>
<path d="M 443.878906 13.319336 L 443.878906 7.335938 L 440.892578 7.335938 L 440.892578 6.412109 L 444.738281 6.412109 L 444.738281 13.319336 Z " fill="black" fill-opacity="1.000000"/>
</svg>
