<?xml version='1.0' encoding='utf-8'?>
<svg xmlns="http://www.w3.org/2000/svg" version="1.1" width="477" height="118" viewBox="0 0 477.0 118.0">
<path d="M 2.878906 78.319336 L 2.878906 71.412109 L 6.729980 71.412109 L 6.729980 72.335938 L 3.738281 72.335938 L 3.738281 78.319336 Z " fill="black" fill-opacity="1.000000"/>
<path d="M 2.878906 91.319336 L 2.878906 84.412109 L 6.729980 84.412109 L 6.729980 85.335938 L 3.738281 85.335938 L 3.738281 91.319336 Z " fill="black" fill-opacity="1.000000"/>
<path d="M 2.878906 104.319336 L 2.878906 90.300781 L 3.738281 90.300781 L 3.738281 104.319336 Z " fill="black" fill-opacity="1.000000"/>
<path d="M 2.878906 111.335938 L 2.878906 103.300781 L 3.738281 103.300781 L 3.738281 110.412109 L 6.729980 110.412109 L 6.729980 111.335938 Z " fill="black" fill-opacity="1.000000"/>
<path d="M 6.892578 111.335938 L 6.892578 110.412109 L 13.729980 110.412109 L 13.729980 111.335938 Z " fill="black" fill-opacity="1.000000"/>
<path d="M 13.892578 111.335938 L 13.892578 110.412109 L 20.729980 110.412109 L 20.729980 111.335938 Z " fill="black" fill-opacity="1.000000"/>
<path d="M 20.892578 111.335938 L 20.892578 110.412109 L 27.729980 110.412109 L 27.729980 111.335938 Z " fill="black" fill-opacity="1.000000"/>
<path d="M 27.892578 111.335938 L 27.892578 110.412109 L 34.729980 110.412109 L 34.729980 111.335938 Z " fill="black" fill-opacity="1.000000"/>
<path d="M 34.892578 111.335938 L 34.892578 110.412109 L 41.729980 110.412109 L 41.729980 111.335938 Z " fill="black" fill-opacity="1.000000"/>
<path d="M 41.892578 111.335938 L 41.892578 110.412109 L 48.729980 110.412109 L 48.729980 111.335938 Z " fill="black" fill-opacity="1.000000"/>
<path d="M 48.892578 111.335938 L 48.892578 110.412109 L 55.729980 110.412109 L 55.729980 111.335938 Z " fill="black" fill-opacity="1.000000"/>
<path d="M 55.892578 111.335938 L 55.892578 110.412109 L 62.729980 110.412109 L 62.729980 111.335938 Z " fill="black" fill-opacity="1.000000"/>
<path d="M 62.892578 111.335938 L 62.892578 110.412109 L 69.729980 110.412109 L 69.729980 111.335938 Z " fill="black" fill-opacity="1.000000"/>
<path d="M 69.892578 111.335938 L 69.892578 110.412109 L 76.729980 110.412109 L 76.729980 111.335938 Z " fill="black" fill-opacity="1.000000"/>
<path d="M 76.892578 111.335938 L 76.892578 110.412109 L 83.729980 110.412109 L 83.729980 111.335938 Z " fill="black" fill-opacity="1.000000"/>
<path d="M 83.892578 111.335938 L 83.892578 110.412109 L 90.729980 110.412109 L 90.729980 111.335938 Z " fill="black" fill-opacity="1.000000"/>
<path d="M 90.892578 111.335938 L 90.892578 110.412109 L 97.729980 110.412109 L 97.729980 111.335938 Z " fill="black" fill-opacity="1.000000"/>
<path d="M 97.892578 111.335938 L 97.892578 110.412109 L 104.729980 110.412109 L 104.729980 111.335938 Z " fill="black" fill-opacity="1.000000"/>
<path d="M 104.892578 111.335938 L 104.892578 110.412109 L 111.729980 110.412109 L 111.729980 111.335938 Z " fill="black" fill-opacity="1.000000"/>
<path d="M 111.892578 111.335938 L 111.892578 110.412109 L 118.729980 110.412109 L 118.729980 111.335938 Z " fill="black" fill-opacity="1.000000"/>
<path d="M 118.892578 111.335938 L 118.892578 110.412109 L 125.729980 110.412109 L 125.729980 111.335938 Z " fill="black" fill-opacity="1.000000"/>
<path d="M 125.892578 111.335938 L 125.892578 110.412109 L 132.729980 110.412109 L 132.729980 111.335938 Z " fill="black" fill-opacity="1.000000"/>
<path d="M 132.892578 111.335938 L 132.892578 110.412109 L 139.729980 110.412109 L 139.729980 111.335938 Z " fill="black" fill-opacity="1.000000"/>
<path d="M 139.892578 111.335938 L 139.892578 110.412109 L 146.729980 110.412109 L 146.729980 111.335938 Z " fill="black" fill-opacity="1.000000"/>
<path d="M 146.892578 111.335938 L 146.892578 110.412109 L 153.729980 110.412109 L 153.729980 111.335938 Z " fill="black" fill-opacity="1.000000"/>
<path d="M 153.892578 111.335938 L 153.892578 110.412109 L 160.729980 110.412109 L 160.729980 111.335938 Z " fill="black" fill-opacity="1.000000"/>
<path d="M 160.892578 111.335938 L 160.892578 110.412109 L 167.729980 110.412109 L 167.729980 111.335938 Z " fill="black" fill-opacity="1.000000"/>
<path d="M 167.892578 111.335938 L 167.892578 110.412109 L 170.878906 110.412109 L 170.878906 103.300781 L 171.738281 103.300781 L 171.738281 110.412109 L 174.729980 110.412109 L 174.729980 111.335938 Z " fill="black" fill-opacity="1.000000"/>
<path d="M 175.547852 110.111328 L 181.241211 110.111328 L 181.241211 111.019043 L 175.547852 111.019043 Z " fill="black" fill-opacity="1.000000"/>
<path d="M 181.892578 111.335938 L 181.892578 110.412109 L 188.729980 110.412109 L 188.729980 111.335938 Z " fill="black" fill-opacity="1.000000"/>
<path d="M 188.892578 111.335938 L 188.892578 110.412109 L 195.729980 110.412109 L 195.729980 111.335938 Z " fill="black" fill-opacity="1.000000"/>
<path d="M 195.892578 111.335938 L 195.892578 110.412109 L 202.729980 110.412109 L 202.729980 111.335938 Z " fill="black" fill-opacity="1.000000"/>
<path d="M 202.892578 111.335938 L 202.892578 110.412109 L 209.729980 110.412109 L 209.729980 111.335938 Z " fill="black" fill-opacity="1.000000"/>
<path d="M 209.892578 111.335938 L 209.892578 110.412109 L 216.729980 110.412109 L 216.729980 111.335938 Z " fill="black" fill-opacity="1.000000"/>
<path d="M 216.892578 111.335938 L 216.892578 110.412109 L 223.729980 110.412109 L 223.729980 111.335938 Z " fill="black" fill-opacity="1.000000"/>
<path d="M 223.892578 111.335938 L 223.892578 110.412109 L 230.729980 110.412109 L 230.729980 111.335938 Z " fill="black" fill-opacity="1.000000"/>
<path d="M 230.892578 111.335938 L 230.892578 110.412109 L 237.729980 110.412109 L 237.729980 111.335938 Z " fill="black" fill-opacity="1.000000"/>
<path d="M 237.892578 111.335938 L 237.892578 110.412109 L 244.729980 110.412109 L 244.729980 111.335938 Z " fill="black" fill-opacity="1.000000"/>
<path d="M 244.892578 111.335938 L 244.892578 110.412109 L 251.729980 110.412109 L 251.729980 111.335938 Z " fill="black" fill-opacity="1.000000"/>
<path d="M 251.892578 111.335938 L 251.892578 110.412109 L 258.729980 110.412109 L 258.729980 111.335938 Z " fill="black" fill-opacity="1.000000"/>
<path d="M 258.892578 111.335938 L 258.892578 110.412109 L 265.729980 110.412109 L 265.729980 111.335938 Z " fill="black" fill-opacity="1.000000"/>
<path d="M 265.892578 111.335938 L 265.892578 110.412109 L 272.729980 110.412109 L 272.729980 111.335938 Z " fill="black" fill-opacity="1.000000"/>
<path d="M 272.892578 111.335938 L 272.892578 110.412109 L 279.729980 110.412109 L 279.729980 111.335938 Z " fill="black" fill-opacity="1.000000"/>
<path d="M 279.892578 111.335938 L 279.892578 110.412109 L 286.729980 110.412109 L 286.729980 111.335938 Z " fill="black" fill-opacity="1.000000"/>
<path d="M 286.892578 111.335938 L 286.892578 110.412109 L 293.729980 110.412109 L 293.729980 111.335938 Z " fill="black" fill-opacity="1.000000"/>
<path d="M 293.892578 111.335938 L 293.892578 110.412109 L 300.729980 110.412109 L 300.729980 111.335938 Z " fill="black" fill-opacity="1.000000"/>
<path d="M 300.892578 111.335938 L 300.892578 110.412109 L 307.729980 110.412109 L 307.729980 111.335938 Z " fill="black" fill-opacity="1.000000"/>
<path d="M 307.892578 111.335938 L 307.892578 110.412109 L 314.729980 110.412109 L 314.729980 111.335938 Z " fill="black" fill-opacity="1.000000"/>
<path d="M 314.892578 111.335938 L 314.892578 110.412109 L 321.729980 110.412109 L 321.729980 111.335938 Z " fill="black" fill-opacity="1.000000"/>
<path d="M 321.892578 111.335938 L 321.892578 110.412109 L 328.729980 110.412109 L 328.729980 111.335938 Z " fill="black" fill-opacity="1.000000"/>
<path d="M 328.892578 111.335938 L 328.892578 110.412109 L 335.729980 110.412109 L 335.729980 111.335938 Z " fill="black" fill-opacity="1.000000"/>
<path d="M 335.892578 111.335938 L 335.892578 110.412109 L 342.729980 110.412109 L 342.729980 111.335938 Z " fill="black" fill-opacity="1.000000"/>
<path d="M 342.892578 111.335938 L 342.892578 110.412109 L 349.729980 110.412109 L 349.729980 111.335938 Z " fill="black" fill-opacity="1.000000"/>
<path d="M 349.892578 111.335938 L 349.892578 110.412109 L 356.729980 110.412109 L 356.729980 111.335938 Z " fill="black" fill-opacity="1.000000"/>
<path d="M 356.892578 111.335938 L 356.892578 110.412109 L 363.729980 110.412109 L 363.729980 111.335938 Z " fill="black" fill-opacity="1.000000"/>
<path d="M 363.892578 111.335938 L 363.892578 110.412109 L 370.729980 110.412109 L 370.729980 111.335938 Z " fill="black" fill-opacity="1.000000"/>
<path d="M 370.892578 111.335938 L 370.892578 110.412109 L 377.729980 110.412109 L 377.729980 111.335938 Z " fill="black" fill-opacity="1.000000"/>
<path d="M 377.892578 111.335938 L 377.892578 110.412109 L 384.729980 110.412109 L 384.729980 111.335938 Z " fill="black" fill-opacity="1.000000"/>
<path d="M 384.892578 111.335938 L 384.892578 110.412109 L 391.729980 110.412109 L 391.729980 111.335938 Z " fill="black" fill-opacity="1.000000"/>
<path d="M 391.892578 111.335938 L 391.892578 110.412109 L 398.729980 110.412109 L 398.729980 111.335938 Z " fill="black" fill-opacity="1.000000"/>
<path d="M 398.892578 111.335938 L 398.892578 110.412109 L 405.729980 110.412109 L 405.729980 111.335938 Z " fill="black" fill-opacity="1.000000"/>
<path d="M 405.892578 111.335938 L 405.892578 110.412109 L 412.729980 110.412109 L 412.729980 111.335938 Z " fill="black" fill-opacity="1.000000"/>
<path d="M 412.892578 111.335938 L 412.892578 110.412109 L 419.729980 110.412109 L 419.729980 111.335938 Z " fill="black" fill-opacity="1.000000"/>
<path d="M 419.892578 111.335938 L 419.892578 110.412109 L 426.729980 110.412109 L 426.729980 111.335938 Z " fill="black" fill-opacity="1.000000"/>
<path d="M 426.892578 111.335938 L 426.892578 110.412109 L 433.729980 110.412109 L 433.729980 111.335938 Z " fill="black" fill-opacity="1.000000"/>
<path d="M 433.892578 111.335938 L 433.892578 110.412109 L 440.729980 110.412109 L 440.729980 111.335938 Z " fill="black" fill-opacity="1.000000"/>
<path d="M 440.892578 111.335938 L 440.892578 110.412109 L 447.729980 110.412109 L 447.729980 111.335938 Z " fill="black" fill-opacity="1.000000"/>
<path d="M 447.892578 111.335938 L 447.892578 110.412109 L 454.729980 110.412109 L 454.729980 111.335938 Z " fill="black" fill-opacity="1.000000"/>
<path d="M 454.892578 111.335938 L 454.892578 110.412109 L 461.729980 110.412109 L 461.729980 111.335938 Z " fill="black" fill-opacity="1.000000"/>
<path d="M 461.892578 111.335938 L 461.892578 110.412109 L 468.729980 110.412109 L 468.729980 111.335938 Z " fill="black" fill-opacity="1.000000"/>
<path d="M 468.892578 111.335938 L 468.892578 110.412109 L 471.878906 110.412109 L 471.878906 103.300781 L 472.738281 103.300781 L 472.738281 111.335938 Z " fill="black" fill-opacity="1.000000"/>
<path d="M 21.789551 97.922363 L 21.789551 92.980957 L 22.879883 92.980957 L 22.879883 98.416504 Q 22.879883 99.001953 22.912109 99.251709 Q 22.944336 99.501465 23.024902 99.635742 Q 23.196777 99.952637 23.521729 100.113770 Q 23.846680 100.274902 24.308594 100.274902 Q 24.775879 100.274902 25.098145 100.113770 Q 25.420410 99.952637 25.597656 99.635742 Q 25.678223 99.501465 25.710449 99.254395 Q 25.742676 99.007324 25.742676 98.427246 L 25.742676 92.980957 L 26.827637 92.980957 L 26.827637 97.922363 Q 26.827637 99.152344 26.674561 99.670654 Q 26.521484 100.188965 26.145508 100.527344 Q 25.791016 100.844238 25.334473 101.000000 Q 24.877930 101.155762 24.308594 101.155762 Q 23.744629 101.155762 23.288086 101.000000 Q 22.831543 100.844238 22.471680 100.527344 Q 22.101074 100.194336 21.945312 99.665283 Q 21.789551 99.136230 21.789551 97.922363 Z " fill="black" fill-opacity="1.000000"/>
<path d="M 33.645020 97.272461 L 33.645020 101.000000 L 32.651367 101.000000 L 32.651367 97.272461 Q 32.651367 96.461426 32.366699 96.080078 Q 32.082031 95.698730 31.475098 95.698730 Q 30.782227 95.698730 30.408936 96.190186 Q 30.035645 96.681641 30.035645 97.600098 L 30.035645 101.000000 L 29.047363 101.000000 L 29.047363 94.984375 L 30.035645 94.984375 L 30.035645 95.886719 Q 30.298828 95.371094 30.750000 95.105225 Q 31.201172 94.839355 31.818848 94.839355 Q 32.737305 94.839355 33.191162 95.443604 Q 33.645020 96.047852 33.645020 97.272461 Z " fill="black" fill-opacity="1.000000"/>
<path d="M 40.226074 95.193848 L 40.226074 96.160645 Q 39.801758 95.913574 39.372070 95.790039 Q 38.942383 95.666504 38.496582 95.666504 Q 37.825195 95.666504 37.494873 95.884033 Q 37.164551 96.101562 37.164551 96.547363 Q 37.164551 96.950195 37.411621 97.148926 Q 37.658691 97.347656 38.641602 97.535645 L 39.039062 97.610840 Q 39.774902 97.750488 40.153564 98.169434 Q 40.532227 98.588379 40.532227 99.259766 Q 40.532227 100.151367 39.898438 100.653564 Q 39.264648 101.155762 38.136719 101.155762 Q 37.690918 101.155762 37.202148 101.061768 Q 36.713379 100.967773 36.144043 100.779785 L 36.144043 99.759277 Q 36.697266 100.043945 37.202148 100.186279 Q 37.707031 100.328613 38.158203 100.328613 Q 38.813477 100.328613 39.173340 100.062744 Q 39.533203 99.796875 39.533203 99.318848 Q 39.533203 98.631348 38.217285 98.368164 L 38.174316 98.357422 L 37.803711 98.282227 Q 36.949707 98.115723 36.557617 97.720947 Q 36.165527 97.326172 36.165527 96.644043 Q 36.165527 95.779297 36.750977 95.309326 Q 37.336426 94.839355 38.421387 94.839355 Q 38.904785 94.839355 39.350586 94.927979 Q 39.796387 95.016602 40.226074 95.193848 Z " fill="black" fill-opacity="1.000000"/>
<path d="M 43.697266 95.005859 L 46.227051 95.005859 L 46.227051 100.231934 L 48.187500 100.231934 L 48.187500 101.000000 L 43.278320 101.000000 L 43.278320 100.231934 L 45.238770 100.231934 L 45.238770 95.773926 L 43.697266 95.773926 Z M 45.238770 92.669434 L 46.227051 92.669434 L 46.227051 93.915527 L 45.238770 93.915527 Z " fill="black" fill-opacity="1.000000"/>
<path d="M 53.608398 97.943848 Q 53.608398 96.832031 53.245850 96.254639 Q 52.883301 95.677246 52.190430 95.677246 Q 51.465332 95.677246 51.083984 96.254639 Q 50.702637 96.832031 50.702637 97.943848 Q 50.702637 99.055664 51.086670 99.638428 Q 51.470703 100.221191 52.201172 100.221191 Q 52.883301 100.221191 53.245850 99.635742 Q 53.608398 99.050293 53.608398 97.943848 Z M 54.596680 100.613281 Q 54.596680 101.966797 53.957520 102.665039 Q 53.318359 103.363281 52.077637 103.363281 Q 51.669434 103.363281 51.223633 103.288086 Q 50.777832 103.212891 50.332031 103.067871 L 50.332031 102.090332 Q 50.858398 102.337402 51.288086 102.455566 Q 51.717773 102.573730 52.077637 102.573730 Q 52.877930 102.573730 53.243164 102.138672 Q 53.608398 101.703613 53.608398 100.758301 L 53.608398 100.715332 L 53.608398 100.043945 Q 53.372070 100.548828 52.963867 100.795898 Q 52.555664 101.042969 51.970215 101.042969 Q 50.917480 101.042969 50.289062 100.199707 Q 49.660645 99.356445 49.660645 97.943848 Q 49.660645 96.525879 50.289062 95.682617 Q 50.917480 94.839355 51.970215 94.839355 Q 52.550293 94.839355 52.953125 95.070312 Q 53.355957 95.301270 53.608398 95.784668 L 53.608398 95.005859 L 54.596680 95.005859 Z " fill="black" fill-opacity="1.000000"/>
<path d="M 61.645020 97.272461 L 61.645020 101.000000 L 60.651367 101.000000 L 60.651367 97.272461 Q 60.651367 96.461426 60.366699 96.080078 Q 60.082031 95.698730 59.475098 95.698730 Q 58.782227 95.698730 58.408936 96.190186 Q 58.035645 96.681641 58.035645 97.600098 L 58.035645 101.000000 L 57.047363 101.000000 L 57.047363 94.984375 L 58.035645 94.984375 L 58.035645 95.886719 Q 58.298828 95.371094 58.750000 95.105225 Q 59.201172 94.839355 59.818848 94.839355 Q 60.737305 94.839355 61.191162 95.443604 Q 61.645020 96.047852 61.645020 97.272461 Z " fill="black" fill-opacity="1.000000"/>
<path d="M 69.015625 97.498047 L 69.015625 97.981445 L 64.734863 97.981445 L 64.734863 98.013672 Q 64.691895 99.243652 65.204834 99.780762 Q 65.717773 100.317871 66.652344 100.317871 Q 67.125000 100.317871 67.640625 100.167480 Q 68.156250 100.017090 68.741699 99.710938 L 68.741699 100.693848 Q 68.177734 100.924805 67.654053 101.040283 Q 67.130371 101.155762 66.641602 101.155762 Q 65.239746 101.155762 64.450195 100.315186 Q 63.660645 99.474609 63.660645 97.997559 Q 63.660645 96.558105 64.434082 95.698730 Q 65.207520 94.839355 66.496582 94.839355 Q 67.645996 94.839355 68.309326 95.618164 Q 68.972656 96.396973 69.015625 97.498047 Z M 68.027344 97.208008 Q 67.962891 96.584961 67.573486 96.131104 Q 67.184082 95.677246 66.453613 95.677246 Q 65.739258 95.677246 65.277344 96.149902 Q 64.815430 96.622559 64.772461 97.213379 Z " fill="black" fill-opacity="1.000000"/>
<path d="M 74.608398 95.752441 L 74.608398 92.642578 L 75.596680 92.642578 L 75.596680 101.000000 L 74.608398 101.000000 L 74.608398 100.242676 Q 74.361328 100.688477 73.950439 100.922119 Q 73.539551 101.155762 73.002441 101.155762 Q 71.912109 101.155762 71.286377 100.309814 Q 70.660645 99.463867 70.660645 97.976074 Q 70.660645 96.509766 71.289062 95.674561 Q 71.917480 94.839355 73.002441 94.839355 Q 73.544922 94.839355 73.958496 95.072998 Q 74.372070 95.306641 74.608398 95.752441 Z M 71.702637 97.997559 Q 71.702637 99.146973 72.067871 99.732422 Q 72.433105 100.317871 73.147461 100.317871 Q 73.861816 100.317871 74.235107 99.727051 Q 74.608398 99.136230 74.608398 97.997559 Q 74.608398 96.853516 74.235107 96.265381 Q 73.861816 95.677246 73.147461 95.677246 Q 72.433105 95.677246 72.067871 96.262695 Q 71.702637 96.848145 71.702637 97.997559 Z " fill="black" fill-opacity="1.000000"/>
<path d="M 85.058105 92.980957 L 89.816895 92.980957 L 89.816895 93.894043 L 86.143066 93.894043 L 86.143066 96.053223 L 89.655762 96.053223 L 89.655762 96.966309 L 86.143066 96.966309 L 86.143066 100.086914 L 89.918945 100.086914 L 89.918945 101.000000 L 85.058105 101.000000 Z " fill="black" fill-opacity="1.000000"/>
<path d="M 97.004883 94.984375 L 94.851074 97.863281 L 97.214355 101.000000 L 96.070312 101.000000 L 94.308594 98.588379 L 92.552246 101.000000 L 91.408203 101.000000 L 93.771484 97.863281 L 91.617676 94.984375 L 92.713379 94.984375 L 94.308594 97.159668 L 95.893066 94.984375 Z " fill="black" fill-opacity="1.000000"/>
<path d="M 101.297852 93.276367 L 101.297852 94.984375 L 103.542969 94.984375 L 103.542969 95.752441 L 101.297852 95.752441 L 101.297852 99.018066 Q 101.297852 99.684082 101.550293 99.947266 Q 101.802734 100.210449 102.431152 100.210449 L 103.542969 100.210449 L 103.542969 101.000000 L 102.334473 101.000000 Q 101.222656 101.000000 100.766113 100.554199 Q 100.309570 100.108398 100.309570 99.018066 L 100.309570 95.752441 L 98.703613 95.752441 L 98.703613 94.984375 L 100.309570 94.984375 L 100.309570 93.276367 Z " fill="black" fill-opacity="1.000000"/>
<path d="M 111.015625 97.498047 L 111.015625 97.981445 L 106.734863 97.981445 L 106.734863 98.013672 Q 106.691895 99.243652 107.204834 99.780762 Q 107.717773 100.317871 108.652344 100.317871 Q 109.125000 100.317871 109.640625 100.167480 Q 110.156250 100.017090 110.741699 99.710938 L 110.741699 100.693848 Q 110.177734 100.924805 109.654053 101.040283 Q 109.130371 101.155762 108.641602 101.155762 Q 107.239746 101.155762 106.450195 100.315186 Q 105.660645 99.474609 105.660645 97.997559 Q 105.660645 96.558105 106.434082 95.698730 Q 107.207520 94.839355 108.496582 94.839355 Q 109.645996 94.839355 110.309326 95.618164 Q 110.972656 96.396973 111.015625 97.498047 Z M 110.027344 97.208008 Q 109.962891 96.584961 109.573486 96.131104 Q 109.184082 95.677246 108.453613 95.677246 Q 107.739258 95.677246 107.277344 96.149902 Q 106.815430 96.622559 106.772461 97.213379 Z " fill="black" fill-opacity="1.000000"/>
<path d="M 117.645020 97.272461 L 117.645020 101.000000 L 116.651367 101.000000 L 116.651367 97.272461 Q 116.651367 96.461426 116.366699 96.080078 Q 116.082031 95.698730 115.475098 95.698730 Q 114.782227 95.698730 114.408936 96.190186 Q 114.035645 96.681641 114.035645 97.600098 L 114.035645 101.000000 L 113.047363 101.000000 L 113.047363 94.984375 L 114.035645 94.984375 L 114.035645 95.886719 Q 114.298828 95.371094 114.750000 95.105225 Q 115.201172 94.839355 115.818848 94.839355 Q 116.737305 94.839355 117.191162 95.443604 Q 117.645020 96.047852 117.645020 97.272461 Z " fill="black" fill-opacity="1.000000"/>
<path d="M 124.226074 95.193848 L 124.226074 96.160645 Q 123.801758 95.913574 123.372070 95.790039 Q 122.942383 95.666504 122.496582 95.666504 Q 121.825195 95.666504 121.494873 95.884033 Q 121.164551 96.101562 121.164551 96.547363 Q 121.164551 96.950195 121.411621 97.148926 Q 121.658691 97.347656 122.641602 97.535645 L 123.039062 97.610840 Q 123.774902 97.750488 124.153564 98.169434 Q 124.532227 98.588379 124.532227 99.259766 Q 124.532227 100.151367 123.898438 100.653564 Q 123.264648 101.155762 122.136719 101.155762 Q 121.690918 101.155762 121.202148 101.061768 Q 120.713379 100.967773 120.144043 100.779785 L 120.144043 99.759277 Q 120.697266 100.043945 121.202148 100.186279 Q 121.707031 100.328613 122.158203 100.328613 Q 122.813477 100.328613 123.173340 100.062744 Q 123.533203 99.796875 123.533203 99.318848 Q 123.533203 98.631348 122.217285 98.368164 L 122.174316 98.357422 L 121.803711 98.282227 Q 120.949707 98.115723 120.557617 97.720947 Q 120.165527 97.326172 120.165527 96.644043 Q 120.165527 95.779297 120.750977 95.309326 Q 121.336426 94.839355 122.421387 94.839355 Q 122.904785 94.839355 123.350586 94.927979 Q 123.796387 95.016602 124.226074 95.193848 Z " fill="black" fill-opacity="1.000000"/>
<path d="M 127.697266 95.005859 L 130.227051 95.005859 L 130.227051 100.231934 L 132.187500 100.231934 L 132.187500 101.000000 L 127.278320 101.000000 L 127.278320 100.231934 L 129.238770 100.231934 L 129.238770 95.773926 L 127.697266 95.773926 Z M 129.238770 92.669434 L 130.227051 92.669434 L 130.227051 93.915527 L 129.238770 93.915527 Z " fill="black" fill-opacity="1.000000"/>
<path d="M 136.308594 95.677246 Q 135.556641 95.677246 135.169922 96.262695 Q 134.783203 96.848145 134.783203 97.997559 Q 134.783203 99.141602 135.169922 99.729736 Q 135.556641 100.317871 136.308594 100.317871 Q 137.065918 100.317871 137.452637 99.729736 Q 137.839355 99.141602 137.839355 97.997559 Q 137.839355 96.848145 137.452637 96.262695 Q 137.065918 95.677246 136.308594 95.677246 Z M 136.308594 94.839355 Q 137.560059 94.839355 138.223389 95.650391 Q 138.886719 96.461426 138.886719 97.997559 Q 138.886719 99.539062 138.226074 100.347412 Q 137.565430 101.155762 136.308594 101.155762 Q 135.057129 101.155762 134.396484 100.347412 Q 133.735840 99.539062 133.735840 97.997559 Q 133.735840 96.461426 134.396484 95.650391 Q 135.057129 94.839355 136.308594 94.839355 Z " fill="black" fill-opacity="1.000000"/>
<path d="M 145.645020 97.272461 L 145.645020 101.000000 L 144.651367 101.000000 L 144.651367 97.272461 Q 144.651367 96.461426 144.366699 96.080078 Q 144.082031 95.698730 143.475098 95.698730 Q 142.782227 95.698730 142.408936 96.190186 Q 142.035645 96.681641 142.035645 97.600098 L 142.035645 101.000000 L 141.047363 101.000000 L 141.047363 94.984375 L 142.035645 94.984375 L 142.035645 95.886719 Q 142.298828 95.371094 142.750000 95.105225 Q 143.201172 94.839355 143.818848 94.839355 Q 144.737305 94.839355 145.191162 95.443604 Q 145.645020 96.047852 145.645020 97.272461 Z " fill="black" fill-opacity="1.000000"/>
<path d="M 170.878906 104.319336 L 170.878906 90.300781 L 171.738281 90.300781 L 171.738281 104.319336 Z " fill="black" fill-opacity="1.000000"/>
<path d="M 271.435547 93.254883 L 271.435547 94.355957 Q 270.941406 94.039062 270.444580 93.877930 Q 269.947754 93.716797 269.442871 93.716797 Q 268.674805 93.716797 268.229004 94.073975 Q 267.783203 94.431152 267.783203 95.038086 Q 267.783203 95.569824 268.075928 95.849121 Q 268.368652 96.128418 269.168945 96.316406 L 269.738281 96.445312 Q 270.866211 96.708496 271.381836 97.272461 Q 271.897461 97.836426 271.897461 98.808594 Q 271.897461 99.952637 271.188477 100.554199 Q 270.479492 101.155762 269.125977 101.155762 Q 268.562012 101.155762 267.992676 101.034912 Q 267.423340 100.914062 266.848633 100.672363 L 266.848633 99.517578 Q 267.466309 99.909668 268.016846 100.092285 Q 268.567383 100.274902 269.125977 100.274902 Q 269.947754 100.274902 270.404297 99.906982 Q 270.860840 99.539062 270.860840 98.878418 Q 270.860840 98.276855 270.546631 97.959961 Q 270.232422 97.643066 269.453613 97.471191 L 268.873535 97.336914 Q 267.756348 97.084473 267.251465 96.574219 Q 266.746582 96.063965 266.746582 95.204590 Q 266.746582 94.130371 267.468994 93.483154 Q 268.191406 92.835938 269.389160 92.835938 Q 269.851074 92.835938 270.361328 92.940674 Q 270.871582 93.045410 271.435547 93.254883 Z " fill="black" fill-opacity="1.000000"/>
<path d="M 274.697266 95.005859 L 277.227051 95.005859 L 277.227051 100.231934 L 279.187500 100.231934 L 279.187500 101.000000 L 274.278320 101.000000 L 274.278320 100.231934 L 276.238770 100.231934 L 276.238770 95.773926 L 274.697266 95.773926 Z M 276.238770 92.669434 L 277.227051 92.669434 L 277.227051 93.915527 L 276.238770 93.915527 Z " fill="black" fill-opacity="1.000000"/>
<path d="M 284.608398 97.943848 Q 284.608398 96.832031 284.245850 96.254639 Q 283.883301 95.677246 283.190430 95.677246 Q 282.465332 95.677246 282.083984 96.254639 Q 281.702637 96.832031 281.702637 97.943848 Q 281.702637 99.055664 282.086670 99.638428 Q 282.470703 100.221191 283.201172 100.221191 Q 283.883301 100.221191 284.245850 99.635742 Q 284.608398 99.050293 284.608398 97.943848 Z M 285.596680 100.613281 Q 285.596680 101.966797 284.957520 102.665039 Q 284.318359 103.363281 283.077637 103.363281 Q 282.669434 103.363281 282.223633 103.288086 Q 281.777832 103.212891 281.332031 103.067871 L 281.332031 102.090332 Q 281.858398 102.337402 282.288086 102.455566 Q 282.717773 102.573730 283.077637 102.573730 Q 283.877930 102.573730 284.243164 102.138672 Q 284.608398 101.703613 284.608398 100.758301 L 284.608398 100.715332 L 284.608398 100.043945 Q 284.372070 100.548828 283.963867 100.795898 Q 283.555664 101.042969 282.970215 101.042969 Q 281.917480 101.042969 281.289062 100.199707 Q 280.660645 99.356445 280.660645 97.943848 Q 280.660645 96.525879 281.289062 95.682617 Q 281.917480 94.839355 282.970215 94.839355 Q 283.550293 94.839355 283.953125 95.070312 Q 284.355957 95.301270 284.608398 95.784668 L 284.608398 95.005859 L 285.596680 95.005859 Z " fill="black" fill-opacity="1.000000"/>
<path d="M 292.645020 97.272461 L 292.645020 101.000000 L 291.651367 101.000000 L 291.651367 97.272461 Q 291.651367 96.461426 291.366699 96.080078 Q 291.082031 95.698730 290.475098 95.698730 Q 289.782227 95.698730 289.408936 96.190186 Q 289.035645 96.681641 289.035645 97.600098 L 289.035645 101.000000 L 288.047363 101.000000 L 288.047363 94.984375 L 289.035645 94.984375 L 289.035645 95.886719 Q 289.298828 95.371094 289.750000 95.105225 Q 290.201172 94.839355 290.818848 94.839355 Q 291.737305 94.839355 292.191162 95.443604 Q 292.645020 96.047852 292.645020 97.272461 Z " fill="black" fill-opacity="1.000000"/>
<path d="M 300.015625 97.498047 L 300.015625 97.981445 L 295.734863 97.981445 L 295.734863 98.013672 Q 295.691895 99.243652 296.204834 99.780762 Q 296.717773 100.317871 297.652344 100.317871 Q 298.125000 100.317871 298.640625 100.167480 Q 299.156250 100.017090 299.741699 99.710938 L 299.741699 100.693848 Q 299.177734 100.924805 298.654053 101.040283 Q 298.130371 101.155762 297.641602 101.155762 Q 296.239746 101.155762 295.450195 100.315186 Q 294.660645 99.474609 294.660645 97.997559 Q 294.660645 96.558105 295.434082 95.698730 Q 296.207520 94.839355 297.496582 94.839355 Q 298.645996 94.839355 299.309326 95.618164 Q 299.972656 96.396973 300.015625 97.498047 Z M 299.027344 97.208008 Q 298.962891 96.584961 298.573486 96.131104 Q 298.184082 95.677246 297.453613 95.677246 Q 296.739258 95.677246 296.277344 96.149902 Q 295.815430 96.622559 295.772461 97.213379 Z " fill="black" fill-opacity="1.000000"/>
<path d="M 305.608398 95.752441 L 305.608398 92.642578 L 306.596680 92.642578 L 306.596680 101.000000 L 305.608398 101.000000 L 305.608398 100.242676 Q 305.361328 100.688477 304.950439 100.922119 Q 304.539551 101.155762 304.002441 101.155762 Q 302.912109 101.155762 302.286377 100.309814 Q 301.660645 99.463867 301.660645 97.976074 Q 301.660645 96.509766 302.289062 95.674561 Q 302.917480 94.839355 304.002441 94.839355 Q 304.544922 94.839355 304.958496 95.072998 Q 305.372070 95.306641 305.608398 95.752441 Z M 302.702637 97.997559 Q 302.702637 99.146973 303.067871 99.732422 Q 303.433105 100.317871 304.147461 100.317871 Q 304.861816 100.317871 305.235107 99.727051 Q 305.608398 99.136230 305.608398 97.997559 Q 305.608398 96.853516 305.235107 96.265381 Q 304.861816 95.677246 304.147461 95.677246 Q 303.433105 95.677246 303.067871 96.262695 Q 302.702637 96.848145 302.702637 97.997559 Z " fill="black" fill-opacity="1.000000"/>
<path d="M 318.308594 93.937012 L 317.164551 98.040527 L 319.452637 98.040527 Z M 317.653320 92.980957 L 318.969238 92.980957 L 321.423828 101.000000 L 320.301270 101.000000 L 319.710449 98.910645 L 316.901367 98.910645 L 316.321289 101.000000 L 315.198730 101.000000 Z " fill="black" fill-opacity="1.000000"/>
<path d="M 327.435547 93.254883 L 327.435547 94.355957 Q 326.941406 94.039062 326.444580 93.877930 Q 325.947754 93.716797 325.442871 93.716797 Q 324.674805 93.716797 324.229004 94.073975 Q 323.783203 94.431152 323.783203 95.038086 Q 323.783203 95.569824 324.075928 95.849121 Q 324.368652 96.128418 325.168945 96.316406 L 325.738281 96.445312 Q 326.866211 96.708496 327.381836 97.272461 Q 327.897461 97.836426 327.897461 98.808594 Q 327.897461 99.952637 327.188477 100.554199 Q 326.479492 101.155762 325.125977 101.155762 Q 324.562012 101.155762 323.992676 101.034912 Q 323.423340 100.914062 322.848633 100.672363 L 322.848633 99.517578 Q 323.466309 99.909668 324.016846 100.092285 Q 324.567383 100.274902 325.125977 100.274902 Q 325.947754 100.274902 326.404297 99.906982 Q 326.860840 99.539062 326.860840 98.878418 Q 326.860840 98.276855 326.546631 97.959961 Q 326.232422 97.643066 325.453613 97.471191 L 324.873535 97.336914 Q 323.756348 97.084473 323.251465 96.574219 Q 322.746582 96.063965 322.746582 95.204590 Q 322.746582 94.130371 323.468994 93.483154 Q 324.191406 92.835938 325.389160 92.835938 Q 325.851074 92.835938 326.361328 92.940674 Q 326.871582 93.045410 327.435547 93.254883 Z " fill="black" fill-opacity="1.000000"/>
<path d="M 337.058105 92.980957 L 341.816895 92.980957 L 341.816895 93.894043 L 338.143066 93.894043 L 338.143066 96.053223 L 341.655762 96.053223 L 341.655762 96.966309 L 338.143066 96.966309 L 338.143066 100.086914 L 341.918945 100.086914 L 341.918945 101.000000 L 337.058105 101.000000 Z " fill="black" fill-opacity="1.000000"/>
<path d="M 348.645020 97.272461 L 348.645020 101.000000 L 347.651367 101.000000 L 347.651367 97.272461 Q 347.651367 96.461426 347.366699 96.080078 Q 347.082031 95.698730 346.475098 95.698730 Q 345.782227 95.698730 345.408936 96.190186 Q 345.035645 96.681641 345.035645 97.600098 L 345.035645 101.000000 L 344.047363 101.000000 L 344.047363 94.984375 L 345.035645 94.984375 L 345.035645 95.886719 Q 345.298828 95.371094 345.750000 95.105225 Q 346.201172 94.839355 346.818848 94.839355 Q 347.737305 94.839355 348.191162 95.443604 Q 348.645020 96.047852 348.645020 97.272461 Z " fill="black" fill-opacity="1.000000"/>
<path d="M 353.297852 93.276367 L 353.297852 94.984375 L 355.542969 94.984375 L 355.542969 95.752441 L 353.297852 95.752441 L 353.297852 99.018066 Q 353.297852 99.684082 353.550293 99.947266 Q 353.802734 100.210449 354.431152 100.210449 L 355.542969 100.210449 L 355.542969 101.000000 L 354.334473 101.000000 Q 353.222656 101.000000 352.766113 100.554199 Q 352.309570 100.108398 352.309570 99.018066 L 352.309570 95.752441 L 350.703613 95.752441 L 350.703613 94.984375 L 352.309570 94.984375 L 352.309570 93.276367 Z " fill="black" fill-opacity="1.000000"/>
<path d="M 363.203613 96.225098 Q 362.886719 95.978027 362.559082 95.865234 Q 362.231445 95.752441 361.839355 95.752441 Q 360.915527 95.752441 360.426758 96.332520 Q 359.937988 96.912598 359.937988 98.008301 L 359.937988 101.000000 L 358.944336 101.000000 L 358.944336 94.984375 L 359.937988 94.984375 L 359.937988 96.160645 Q 360.185059 95.521484 360.697998 95.180420 Q 361.210938 94.839355 361.914551 94.839355 Q 362.279785 94.839355 362.596680 94.930664 Q 362.913574 95.021973 363.203613 95.215332 Z " fill="black" fill-opacity="1.000000"/>
<path d="M 368.608398 99.066406 Q 368.361328 99.694824 367.979980 100.720703 Q 367.448242 102.138672 367.265625 102.450195 Q 367.018555 102.869141 366.647949 103.078613 Q 366.277344 103.288086 365.783203 103.288086 L 364.988281 103.288086 L 364.988281 102.460938 L 365.573730 102.460938 Q 366.008789 102.460938 366.255859 102.208496 Q 366.502930 101.956055 366.884277 100.903320 L 364.558594 94.984375 L 365.605957 94.984375 L 367.389160 99.689453 L 369.145508 94.984375 L 370.192871 94.984375 Z " fill="black" fill-opacity="1.000000"/>
<path d="M 471.878906 104.319336 L 471.878906 90.300781 L 472.738281 90.300781 L 472.738281 104.319336 Z " fill="black" fill-opacity="1.000000"/>
<path d="M 6.892578 72.335938 L 6.892578 71.412109 L 13.729980 71.412109 L 13.729980 72.335938 Z " fill="black" fill-opacity="1.000000"/>
<path d="M 13.892578 72.335938 L 13.892578 71.412109 L 20.729980 71.412109 L 20.729980 72.335938 Z " fill="black" fill-opacity="1.000000"/>
<path d="M 20.892578 72.335938 L 20.892578 71.412109 L 27.729980 71.412109 L 27.729980 72.335938 Z " fill="black" fill-opacity="1.000000"/>
<path d="M 27.892578 72.335938 L 27.892578 71.412109 L 34.729980 71.412109 L 34.729980 72.335938 Z " fill="black" fill-opacity="1.000000"/>
<path d="M 34.892578 72.335938 L 34.892578 71.412109 L 41.729980 71.412109 L 41.729980 72.335938 Z " fill="black" fill-opacity="1.000000"/>
<path d="M 41.892578 72.335938 L 41.892578 71.412109 L 48.729980 71.412109 L 48.729980 72.335938 Z " fill="black" fill-opacity="1.000000"/>
<path d="M 48.892578 72.335938 L 48.892578 71.412109 L 55.729980 71.412109 L 55.729980 72.335938 Z " fill="black" fill-opacity="1.000000"/>
<path d="M 55.892578 72.335938 L 55.892578 71.412109 L 62.729980 71.412109 L 62.729980 72.335938 Z " fill="black" fill-opacity="1.000000"/>
<path d="M 62.892578 72.335938 L 62.892578 71.412109 L 69.729980 71.412109 L 69.729980 72.335938 Z " fill="black" fill-opacity="1.000000"/>
<path d="M 69.892578 72.335938 L 69.892578 71.412109 L 76.729980 71.412109 L 76.729980 72.335938 Z " fill="black" fill-opacity="1.000000"/>
<path d="M 76.892578 72.335938 L 76.892578 71.412109 L 83.729980 71.412109 L 83.729980 72.335938 Z " fill="black" fill-opacity="1.000000"/>
<path d="M 83.892578 72.335938 L 83.892578 71.412109 L 90.729980 71.412109 L 90.729980 72.335938 Z " fill="black" fill-opacity="1.000000"/>
<path d="M 90.892578 72.335938 L 90.892578 71.412109 L 97.729980 71.412109 L 97.729980 72.335938 Z " fill="black" fill-opacity="1.000000"/>
<path d="M 97.892578 72.335938 L 97.892578 71.412109 L 104.729980 71.412109 L 104.729980 72.335938 Z " fill="black" fill-opacity="1.000000"/>
<path d="M 104.892578 72.335938 L 104.892578 71.412109 L 111.729980 71.412109 L 111.729980 72.335938 Z " fill="black" fill-opacity="1.000000"/>
<path d="M 111.892578 72.335938 L 111.892578 71.412109 L 118.729980 71.412109 L 118.729980 72.335938 Z " fill="black" fill-opacity="1.000000"/>
<path d="M 118.892578 72.335938 L 118.892578 71.412109 L 125.729980 71.412109 L 125.729980 72.335938 Z " fill="black" fill-opacity="1.000000"/>
<path d="M 125.892578 72.335938 L 125.892578 71.412109 L 132.729980 71.412109 L 132.729980 72.335938 Z " fill="black" fill-opacity="1.000000"/>
<path d="M 132.892578 72.335938 L 132.892578 71.412109 L 139.729980 71.412109 L 139.729980 72.335938 Z " fill="black" fill-opacity="1.000000"/>
<path d="M 139.892578 72.335938 L 139.892578 71.412109 L 146.729980 71.412109 L 146.729980 72.335938 Z " fill="black" fill-opacity="1.000000"/>
<path d="M 146.892578 72.335938 L 146.892578 71.412109 L 153.729980 71.412109 L 153.729980 72.335938 Z " fill="black" fill-opacity="1.000000"/>
<path d="M 153.892578 72.335938 L 153.892578 71.412109 L 160.729980 71.412109 L 160.729980 72.335938 Z " fill="black" fill-opacity="1.000000"/>
<path d="M 160.892578 72.335938 L 160.892578 71.412109 L 167.729980 71.412109 L 167.729980 72.335938 Z " fill="black" fill-opacity="1.000000"/>
<path d="M 167.892578 72.335938 L 167.892578 71.412109 L 174.729980 71.412109 L 174.729980 72.335938 Z " fill="black" fill-opacity="1.000000"/>
<path d="M 174.892578 72.335938 L 174.892578 71.412109 L 181.729980 71.412109 L 181.729980 72.335938 Z " fill="black" fill-opacity="1.000000"/>
<path d="M 181.892578 72.335938 L 181.892578 71.412109 L 188.729980 71.412109 L 188.729980 72.335938 Z " fill="black" fill-opacity="1.000000"/>
<path d="M 188.892578 72.335938 L 188.892578 71.412109 L 195.729980 71.412109 L 195.729980 72.335938 Z " fill="black" fill-opacity="1.000000"/>
<path d="M 195.892578 72.335938 L 195.892578 71.412109 L 202.729980 71.412109 L 202.729980 72.335938 Z " fill="black" fill-opacity="1.000000"/>
<path d="M 202.892578 72.335938 L 202.892578 71.412109 L 209.729980 71.412109 L 209.729980 72.335938 Z " fill="black" fill-opacity="1.000000"/>
<path d="M 209.892578 72.335938 L 209.892578 71.412109 L 216.729980 71.412109 L 216.729980 72.335938 Z " fill="black" fill-opacity="1.000000"/>
<path d="M 216.892578 72.335938 L 216.892578 71.412109 L 223.729980 71.412109 L 223.729980 72.335938 Z " fill="black" fill-opacity="1.000000"/>
<path d="M 223.892578 72.335938 L 223.892578 71.412109 L 230.729980 71.412109 L 230.729980 72.335938 Z " fill="black" fill-opacity="1.000000"/>
<path d="M 230.892578 72.335938 L 230.892578 71.412109 L 237.729980 71.412109 L 237.729980 72.335938 Z " fill="black" fill-opacity="1.000000"/>
<path d="M 237.892578 72.335938 L 237.892578 71.412109 L 244.729980 71.412109 L 244.729980 72.335938 Z " fill="black" fill-opacity="1.000000"/>
<path d="M 244.892578 72.335938 L 244.892578 71.412109 L 251.729980 71.412109 L 251.729980 72.335938 Z " fill="black" fill-opacity="1.000000"/>
<path d="M 251.892578 72.335938 L 251.892578 71.412109 L 258.729980 71.412109 L 258.729980 72.335938 Z " fill="black" fill-opacity="1.000000"/>
<path d="M 258.892578 72.335938 L 258.892578 71.412109 L 265.729980 71.412109 L 265.729980 72.335938 Z " fill="black" fill-opacity="1.000000"/>
<path d="M 265.892578 72.335938 L 265.892578 71.412109 L 272.729980 71.412109 L 272.729980 72.335938 Z " fill="black" fill-opacity="1.000000"/>
<path d="M 272.892578 72.335938 L 272.892578 71.412109 L 279.729980 71.412109 L 279.729980 72.335938 Z " fill="black" fill-opacity="1.000000"/>
<path d="M 279.892578 72.335938 L 279.892578 71.412109 L 286.729980 71.412109 L 286.729980 72.335938 Z " fill="black" fill-opacity="1.000000"/>
<path d="M 286.892578 72.335938 L 286.892578 71.412109 L 293.729980 71.412109 L 293.729980 72.335938 Z " fill="black" fill-opacity="1.000000"/>
<path d="M 293.892578 72.335938 L 293.892578 71.412109 L 300.729980 71.412109 L 300.729980 72.335938 Z " fill="black" fill-opacity="1.000000"/>
<path d="M 300.892578 72.335938 L 300.892578 71.412109 L 307.729980 71.412109 L 307.729980 72.335938 Z " fill="black" fill-opacity="1.000000"/>
<path d="M 307.892578 72.335938 L 307.892578 71.412109 L 314.729980 71.412109 L 314.729980 72.335938 Z " fill="black" fill-opacity="1.000000"/>
<path d="M 314.892578 72.335938 L 314.892578 71.412109 L 321.729980 71.412109 L 321.729980 72.335938 Z " fill="black" fill-opacity="1.000000"/>
<path d="M 321.892578 72.335938 L 321.892578 71.412109 L 328.729980 71.412109 L 328.729980 72.335938 Z " fill="black" fill-opacity="1.000000"/>
<path d="M 328.892578 72.335938 L 328.892578 71.412109 L 335.729980 71.412109 L 335.729980 72.335938 Z " fill="black" fill-opacity="1.000000"/>
<path d="M 335.892578 72.335938 L 335.892578 71.412109 L 342.729980 71.412109 L 342.729980 72.335938 Z " fill="black" fill-opacity="1.000000"/>
<path d="M 342.892578 72.335938 L 342.892578 71.412109 L 349.729980 71.412109 L 349.729980 72.335938 Z " fill="black" fill-opacity="1.000000"/>
<path d="M 349.892578 72.335938 L 349.892578 71.412109 L 356.729980 71.412109 L 356.729980 72.335938 Z " fill="black" fill-opacity="1.000000"/>
<path d="M 356.892578 72.335938 L 356.892578 71.412109 L 363.729980 71.412109 L 363.729980 72.335938 Z " fill="black" fill-opacity="1.000000"/>
<path d="M 363.892578 72.335938 L 363.892578 71.412109 L 370.729980 71.412109 L 370.729980 72.335938 Z " fill="black" fill-opacity="1.000000"/>
<path d="M 370.892578 72.335938 L 370.892578 71.412109 L 377.729980 71.412109 L 377.729980 72.335938 Z " fill="black" fill-opacity="1.000000"/>
<path d="M 377.892578 72.335938 L 377.892578 71.412109 L 384.729980 71.412109 L 384.729980 72.335938 Z " fill="black" fill-opacity="1.000000"/>
<path d="M 384.892578 72.335938 L 384.892578 71.412109 L 391.729980 71.412109 L 391.729980 72.335938 Z " fill="black" fill-opacity="1.000000"/>
<path d="M 391.892578 72.335938 L 391.892578 71.412109 L 398.729980 71.412109 L 398.729980 72.335938 Z " fill="black" fill-opacity="1.000000"/>
<path d="M 398.892578 72.335938 L 398.892578 71.412109 L 405.729980 71.412109 L 405.729980 72.335938 Z " fill="black" fill-opacity="1.000000"/>
<path d="M 405.892578 72.335938 L 405.892578 71.412109 L 412.729980 71.412109 L 412.729980 72.335938 Z " fill="black" fill-opacity="1.000000"/>
<path d="M 412.892578 72.335938 L 412.892578 71.412109 L 419.729980 71.412109 L 419.729980 72.335938 Z " fill="black" fill-opacity="1.000000"/>
<path d="M 419.892578 72.335938 L 419.892578 71.412109 L 426.729980 71.412109 L 426.729980 72.335938 Z " fill="black" fill-opacity="1.000000"/>
<path d="M 426.892578 72.335938 L 426.892578 71.412109 L 433.729980 71.412109 L 433.729980 72.335938 Z " fill="black" fill-opacity="1.000000"/>
<path d="M 433.892578 72.335938 L 433.892578 71.412109 L 440.729980 71.412109 L 440.729980 72.335938 Z " fill="black" fill-opacity="1.000000"/>
<path d="M 440.892578 72.335938 L 440.892578 71.412109 L 447.729980 71.412109 L 447.729980 72.335938 Z " fill="black" fill-opacity="1.000000"/>
<path d="M 447.892578 72.335938 L 447.892578 71.412109 L 454.729980 71.412109 L 454.729980 72.335938 Z " fill="black" fill-opacity="1.000000"/>
<path d="M 454.892578 72.335938 L 454.892578 71.412109 L 461.729980 71.412109 L 461.729980 72.335938 Z " fill="black" fill-opacity="1.000000"/>
<path d="M 461.892578 72.335938 L 461.892578 71.412109 L 468.729980 71.412109 L 468.729980 72.335938 Z " fill="black" fill-opacity="1.000000"/>
<path d="M 6.892578 85.335938 L 6.892578 84.412109 L 13.729980 84.412109 L 13.729980 85.335938 Z " fill="black" fill-opacity="1.000000"/>
<path d="M 13.892578 85.335938 L 13.892578 84.412109 L 20.729980 84.412109 L 20.729980 85.335938 Z " fill="black" fill-opacity="1.000000"/>
<path d="M 20.892578 85.335938 L 20.892578 84.412109 L 27.729980 84.412109 L 27.729980 85.335938 Z " fill="black" fill-opacity="1.000000"/>
<path d="M 27.892578 85.335938 L 27.892578 84.412109 L 34.729980 84.412109 L 34.729980 85.335938 Z " fill="black" fill-opacity="1.000000"/>
<path d="M 34.892578 85.335938 L 34.892578 84.412109 L 41.729980 84.412109 L 41.729980 85.335938 Z " fill="black" fill-opacity="1.000000"/>
<path d="M 41.892578 85.335938 L 41.892578 84.412109 L 48.729980 84.412109 L 48.729980 85.335938 Z " fill="black" fill-opacity="1.000000"/>
<path d="M 48.892578 85.335938 L 48.892578 84.412109 L 55.729980 84.412109 L 55.729980 85.335938 Z " fill="black" fill-opacity="1.000000"/>
<path d="M 55.892578 85.335938 L 55.892578 84.412109 L 62.729980 84.412109 L 62.729980 85.335938 Z " fill="black" fill-opacity="1.000000"/>
<path d="M 62.892578 85.335938 L 62.892578 84.412109 L 69.729980 84.412109 L 69.729980 85.335938 Z " fill="black" fill-opacity="1.000000"/>
<path d="M 69.892578 85.335938 L 69.892578 84.412109 L 76.729980 84.412109 L 76.729980 85.335938 Z " fill="black" fill-opacity="1.000000"/>
<path d="M 76.892578 85.335938 L 76.892578 84.412109 L 83.729980 84.412109 L 83.729980 85.335938 Z " fill="black" fill-opacity="1.000000"/>
<path d="M 83.892578 85.335938 L 83.892578 84.412109 L 90.729980 84.412109 L 90.729980 85.335938 Z " fill="black" fill-opacity="1.000000"/>
<path d="M 90.892578 85.335938 L 90.892578 84.412109 L 97.729980 84.412109 L 97.729980 85.335938 Z " fill="black" fill-opacity="1.000000"/>
<path d="M 97.892578 85.335938 L 97.892578 84.412109 L 104.729980 84.412109 L 104.729980 85.335938 Z " fill="black" fill-opacity="1.000000"/>
<path d="M 104.892578 85.335938 L 104.892578 84.412109 L 111.729980 84.412109 L 111.729980 85.335938 Z " fill="black" fill-opacity="1.000000"/>
<path d="M 111.892578 85.335938 L 111.892578 84.412109 L 118.729980 84.412109 L 118.729980 85.335938 Z " fill="black" fill-opacity="1.000000"/>
<path d="M 118.892578 85.335938 L 118.892578 84.412109 L 125.729980 84.412109 L 125.729980 85.335938 Z " fill="black" fill-opacity="1.000000"/>
<path d="M 125.892578 85.335938 L 125.892578 84.412109 L 132.729980 84.412109 L 132.729980 85.335938 Z " fill="black" fill-opacity="1.000000"/>
<path d="M 132.892578 85.335938 L 132.892578 84.412109 L 139.729980 84.412109 L 139.729980 85.335938 Z " fill="black" fill-opacity="1.000000"/>
<path d="M 139.892578 85.335938 L 139.892578 84.412109 L 146.729980 84.412109 L 146.729980 85.335938 Z " fill="black" fill-opacity="1.000000"/>
<path d="M 146.892578 85.335938 L 146.892578 84.412109 L 153.729980 84.412109 L 153.729980 85.335938 Z " fill="black" fill-opacity="1.000000"/>
<path d="M 153.892578 85.335938 L 153.892578 84.412109 L 160.729980 84.412109 L 160.729980 85.335938 Z " fill="black" fill-opacity="1.000000"/>
<path d="M 160.892578 85.335938 L 160.892578 84.412109 L 167.729980 84.412109 L 167.729980 85.335938 Z " fill="black" fill-opacity="1.000000"/>
<path d="M 170.878906 91.319336 L 170.878906 85.335938 L 167.892578 85.335938 L 167.892578 84.412109 L 174.729980 84.412109 L 174.729980 85.335938 L 171.738281 85.335938 L 171.738281 91.319336 Z " fill="black" fill-opacity="1.000000"/>
<path d="M 174.892578 85.335938 L 174.892578 84.412109 L 181.729980 84.412109 L 181.729980 85.335938 Z " fill="black" fill-opacity="1.000000"/>
<path d="M 181.892578 85.335938 L 181.892578 84.412109 L 188.729980 84.412109 L 188.729980 85.335938 Z " fill="black" fill-opacity="1.000000"/>
<path d="M 188.892578 85.335938 L 188.892578 84.412109 L 195.729980 84.412109 L 195.729980 85.335938 Z " fill="black" fill-opacity="1.000000"/>
<path d="M 195.892578 85.335938 L 195.892578 84.412109 L 202.729980 84.412109 L 202.729980 85.335938 Z " fill="black" fill-opacity="1.000000"/>
<path d="M 202.892578 85.335938 L 202.892578 84.412109 L 209.729980 84.412109 L 209.729980 85.335938 Z " fill="black" fill-opacity="1.000000"/>
<path d="M 209.892578 85.335938 L 209.892578 84.412109 L 216.729980 84.412109 L 216.729980 85.335938 Z " fill="black" fill-opacity="1.000000"/>
<path d="M 216.892578 85.335938 L 216.892578 84.412109 L 223.729980 84.412109 L 223.729980 85.335938 Z " fill="black" fill-opacity="1.000000"/>
<path d="M 223.892578 85.335938 L 223.892578 84.412109 L 230.729980 84.412109 L 230.729980 85.335938 Z " fill="black" fill-opacity="1.000000"/>
<path d="M 230.892578 85.335938 L 230.892578 84.412109 L 237.729980 84.412109 L 237.729980 85.335938 Z " fill="black" fill-opacity="1.000000"/>
<path d="M 237.892578 85.335938 L 237.892578 84.412109 L 244.729980 84.412109 L 244.729980 85.335938 Z " fill="black" fill-opacity="1.000000"/>
<path d="M 244.892578 85.335938 L 244.892578 84.412109 L 251.729980 84.412109 L 251.729980 85.335938 Z " fill="black" fill-opacity="1.000000"/>
<path d="M 251.892578 85.335938 L 251.892578 84.412109 L 258.729980 84.412109 L 258.729980 85.335938 Z " fill="black" fill-opacity="1.000000"/>
<path d="M 258.892578 85.335938 L 258.892578 84.412109 L 265.729980 84.412109 L 265.729980 85.335938 Z " fill="black" fill-opacity="1.000000"/>
<path d="M 265.892578 85.335938 L 265.892578 84.412109 L 272.729980 84.412109 L 272.729980 85.335938 Z " fill="black" fill-opacity="1.000000"/>
<path d="M 272.892578 85.335938 L 272.892578 84.412109 L 279.729980 84.412109 L 279.729980 85.335938 Z " fill="black" fill-opacity="1.000000"/>
<path d="M 279.892578 85.335938 L 279.892578 84.412109 L 286.729980 84.412109 L 286.729980 85.335938 Z " fill="black" fill-opacity="1.000000"/>
<path d="M 286.892578 85.335938 L 286.892578 84.412109 L 293.729980 84.412109 L 293.729980 85.335938 Z " fill="black" fill-opacity="1.000000"/>
<path d="M 293.892578 85.335938 L 293.892578 84.412109 L 300.729980 84.412109 L 300.729980 85.335938 Z " fill="black" fill-opacity="1.000000"/>
<path d="M 300.892578 85.335938 L 300.892578 84.412109 L 307.729980 84.412109 L 307.729980 85.335938 Z " fill="black" fill-opacity="1.000000"/>
<path d="M 307.892578 85.335938 L 307.892578 84.412109 L 314.729980 84.412109 L 314.729980 85.335938 Z " fill="black" fill-opacity="1.000000"/>
<path d="M 314.892578 85.335938 L 314.892578 84.412109 L 321.729980 84.412109 L 321.729980 85.335938 Z " fill="black" fill-opacity="1.000000"/>
<path d="M 321.892578 85.335938 L 321.892578 84.412109 L 328.729980 84.412109 L 328.729980 85.335938 Z " fill="black" fill-opacity="1.000000"/>
<path d="M 328.892578 85.335938 L 328.892578 84.412109 L 335.729980 84.412109 L 335.729980 85.335938 Z " fill="black" fill-opacity="1.000000"/>
<path d="M 335.892578 85.335938 L 335.892578 84.412109 L 342.729980 84.412109 L 342.729980 85.335938 Z " fill="black" fill-opacity="1.000000"/>
<path d="M 342.892578 85.335938 L 342.892578 84.412109 L 349.729980 84.412109 L 349.729980 85.335938 Z " fill="black" fill-opacity="1.000000"/>
<path d="M 349.892578 85.335938 L 349.892578 84.412109 L 356.729980 84.412109 L 356.729980 85.335938 Z " fill="black" fill-opacity="1.000000"/>
<path d="M 356.892578 85.335938 L 356.892578 84.412109 L 363.729980 84.412109 L 363.729980 85.335938 Z " fill="black" fill-opacity="1.000000"/>
<path d="M 363.892578 85.335938 L 363.892578 84.412109 L 370.729980 84.412109 L 370.729980 85.335938 Z " fill="black" fill-opacity="1.000000"/>
<path d="M 370.892578 85.335938 L 370.892578 84.412109 L 377.729980 84.412109 L 377.729980 85.335938 Z " fill="black" fill-opacity="1.000000"/>
<path d="M 377.892578 85.335938 L 377.892578 84.412109 L 384.729980 84.412109 L 384.729980 85.335938 Z " fill="black" fill-opacity="1.000000"/>
<path d="M 384.892578 85.335938 L 384.892578 84.412109 L 391.729980 84.412109 L 391.729980 85.335938 Z " fill="black" fill-opacity="1.000000"/>
<path d="M 391.892578 85.335938 L 391.892578 84.412109 L 398.729980 84.412109 L 398.729980 85.335938 Z " fill="black" fill-opacity="1.000000"/>
<path d="M 398.892578 85.335938 L 398.892578 84.412109 L 405.729980 84.412109 L 405.729980 85.335938 Z " fill="black" fill-opacity="1.000000"/>
<path d="M 405.892578 85.335938 L 405.892578 84.412109 L 412.729980 84.412109 L 412.729980 85.335938 Z " fill="black" fill-opacity="1.000000"/>
<path d="M 412.892578 85.335938 L 412.892578 84.412109 L 419.729980 84.412109 L 419.729980 85.335938 Z " fill="black" fill-opacity="1.000000"/>
<path d="M 419.892578 85.335938 L 419.892578 84.412109 L 426.729980 84.412109 L 426.729980 85.335938 Z " fill="black" fill-opacity="1.000000"/>
<path d="M 426.892578 85.335938 L 426.892578 84.412109 L 433.729980 84.412109 L 433.729980 85.335938 Z " fill="black" fill-opacity="1.000000"/>
<path d="M 433.892578 85.335938 L 433.892578 84.412109 L 440.729980 84.412109 L 440.729980 85.335938 Z " fill="black" fill-opacity="1.000000"/>
<path d="M 440.892578 85.335938 L 440.892578 84.412109 L 447.729980 84.412109 L 447.729980 85.335938 Z " fill="black" fill-opacity="1.000000"/>
<path d="M 447.892578 85.335938 L 447.892578 84.412109 L 454.729980 84.412109 L 454.729980 85.335938 Z " fill="black" fill-opacity="1.000000"/>
<path d="M 454.892578 85.335938 L 454.892578 84.412109 L 461.729980 84.412109 L 461.729980 85.335938 Z " fill="black" fill-opacity="1.000000"/>
<path d="M 461.892578 85.335938 L 461.892578 84.412109 L 468.729980 84.412109 L 468.729980 85.335938 Z " fill="black" fill-opacity="1.000000"/>
<path d="M 471.878906 91.319336 L 471.878906 85.335938 L 468.892578 85.335938 L 468.892578 84.412109 L 472.738281 84.412109 L 472.738281 91.319336 Z " fill="black" fill-opacity="1.000000"/>
<path d="M 471.878906 78.319336 L 471.878906 72.335938 L 468.892578 72.335938 L 468.892578 71.412109 L 472.738281 71.412109 L 472.738281 78.319336 Z " fill="black" fill-opacity="1.000000"/>
<path d="M 191.878906 13.319336 L 191.878906 6.412109 L 195.729980 6.412109 L 195.729980 7.335938 L 192.738281 7.335938 L 192.738281 13.319336 Z " fill="black" fill-opacity="1.000000"/>
<path d="M 191.878906 26.319336 L 191.878906 12.300781 L 192.738281 12.300781 L 192.738281 26.319336 Z " fill="black" fill-opacity="1.000000"/>
<path d="M 191.878906 33.335938 L 191.878906 25.300781 L 192.738281 25.300781 L 192.738281 32.412109 L 195.729980 32.412109 L 195.729980 33.335938 Z " fill="black" fill-opacity="1.000000"/>
<path d="M 191.878906 46.335938 L 191.878906 38.300781 L 192.738281 38.300781 L 192.738281 45.412109 L 195.729980 45.412109 L 195.729980 46.335938 Z " fill="black" fill-opacity="1.000000"/>
<path d="M 241.308594 62.418945 L 238.032227 55.866211 L 244.590332 55.866211 Z " fill="black" fill-opacity="1.000000"/>
<path d="M 195.892578 33.335938 L 195.892578 32.412109 L 202.729980 32.412109 L 202.729980 33.335938 Z " fill="black" fill-opacity="1.000000"/>
<path d="M 202.892578 33.335938 L 202.892578 32.412109 L 209.729980 32.412109 L 209.729980 33.335938 Z " fill="black" fill-opacity="1.000000"/>
<path d="M 209.892578 33.335938 L 209.892578 32.412109 L 216.729980 32.412109 L 216.729980 33.335938 Z " fill="black" fill-opacity="1.000000"/>
<path d="M 216.892578 33.335938 L 216.892578 32.412109 L 223.729980 32.412109 L 223.729980 33.335938 Z " fill="black" fill-opacity="1.000000"/>
<path d="M 223.892578 33.335938 L 223.892578 32.412109 L 230.729980 32.412109 L 230.729980 33.335938 Z " fill="black" fill-opacity="1.000000"/>
<path d="M 230.892578 33.335938 L 230.892578 32.412109 L 237.729980 32.412109 L 237.729980 33.335938 Z " fill="black" fill-opacity="1.000000"/>
<path d="M 237.892578 33.335938 L 237.892578 32.412109 L 244.729980 32.412109 L 244.729980 33.335938 Z " fill="black" fill-opacity="1.000000"/>
<path d="M 244.892578 33.335938 L 244.892578 32.412109 L 251.729980 32.412109 L 251.729980 33.335938 Z " fill="black" fill-opacity="1.000000"/>
<path d="M 251.892578 33.335938 L 251.892578 32.412109 L 258.729980 32.412109 L 258.729980 33.335938 Z " fill="black" fill-opacity="1.000000"/>
<path d="M 258.892578 33.335938 L 258.892578 32.412109 L 265.729980 32.412109 L 265.729980 33.335938 Z " fill="black" fill-opacity="1.000000"/>
<path d="M 265.892578 33.335938 L 265.892578 32.412109 L 272.729980 32.412109 L 272.729980 33.335938 Z " fill="black" fill-opacity="1.000000"/>
<path d="M 272.892578 33.335938 L 272.892578 32.412109 L 279.729980 32.412109 L 279.729980 33.335938 Z " fill="black" fill-opacity="1.000000"/>
<path d="M 279.892578 33.335938 L 279.892578 32.412109 L 286.729980 32.412109 L 286.729980 33.335938 Z " fill="black" fill-opacity="1.000000"/>
<path d="M 286.892578 33.335938 L 286.892578 32.412109 L 293.729980 32.412109 L 293.729980 33.335938 Z " fill="black" fill-opacity="1.000000"/>
<path d="M 195.892578 46.335938 L 195.892578 45.412109 L 202.729980 45.412109 L 202.729980 46.335938 Z " fill="black" fill-opacity="1.000000"/>
<path d="M 202.892578 46.335938 L 202.892578 45.412109 L 209.729980 45.412109 L 209.729980 46.335938 Z " fill="black" fill-opacity="1.000000"/>
<path d="M 209.892578 46.335938 L 209.892578 45.412109 L 216.729980 45.412109 L 216.729980 46.335938 Z " fill="black" fill-opacity="1.000000"/>
<path d="M 216.892578 46.335938 L 216.892578 45.412109 L 223.729980 45.412109 L 223.729980 46.335938 Z " fill="black" fill-opacity="1.000000"/>
<path d="M 223.892578 46.335938 L 223.892578 45.412109 L 230.729980 45.412109 L 230.729980 46.335938 Z " fill="black" fill-opacity="1.000000"/>
<path d="M 230.892578 46.335938 L 230.892578 45.412109 L 237.729980 45.412109 L 237.729980 46.335938 Z " fill="black" fill-opacity="1.000000"/>
<path d="M 240.878906 52.319336 L 240.878906 46.335938 L 237.892578 46.335938 L 237.892578 45.412109 L 244.729980 45.412109 L 244.729980 46.335938 L 241.738281 46.335938 L 241.738281 52.319336 Z " fill="black" fill-opacity="1.000000"/>
<path d="M 244.892578 46.335938 L 244.892578 45.412109 L 251.729980 45.412109 L 251.729980 46.335938 Z " fill="black" fill-opacity="1.000000"/>
<path d="M 251.892578 46.335938 L 251.892578 45.412109 L 258.729980 45.412109 L 258.729980 46.335938 Z " fill="black" fill-opacity="1.000000"/>
<path d="M 258.892578 46.335938 L 258.892578 45.412109 L 265.729980 45.412109 L 265.729980 46.335938 Z " fill="black" fill-opacity="1.000000"/>
<path d="M 265.892578 46.335938 L 265.892578 45.412109 L 272.729980 45.412109 L 272.729980 46.335938 Z " fill="black" fill-opacity="1.000000"/>
<path d="M 272.892578 46.335938 L 272.892578 45.412109 L 279.729980 45.412109 L 279.729980 46.335938 Z " fill="black" fill-opacity="1.000000"/>
<path d="M 279.892578 46.335938 L 279.892578 45.412109 L 286.729980 45.412109 L 286.729980 46.335938 Z " fill="black" fill-opacity="1.000000"/>
<path d="M 286.892578 46.335938 L 286.892578 45.412109 L 293.729980 45.412109 L 293.729980 46.335938 Z " fill="black" fill-opacity="1.000000"/>
<path d="M 293.892578 46.335938 L 293.892578 45.412109 L 296.878906 45.412109 L 296.878906 38.300781 L 297.738281 38.300781 L 297.738281 46.335938 Z " fill="black" fill-opacity="1.000000"/>
<path d="M 293.892578 33.335938 L 293.892578 32.412109 L 296.878906 32.412109 L 296.878906 25.300781 L 297.738281 25.300781 L 297.738281 33.335938 Z " fill="black" fill-opacity="1.000000"/>
<path d="M 220.308594 15.937012 L 219.164551 20.040527 L 221.452637 20.040527 Z M 219.653320 14.980957 L 220.969238 14.980957 L 223.423828 23.000000 L 222.301270 23.000000 L 221.710449 20.910645 L 218.901367 20.910645 L 218.321289 23.000000 L 217.198730 23.000000 Z " fill="black" fill-opacity="1.000000"/>
<path d="M 229.435547 15.254883 L 229.435547 16.355957 Q 228.941406 16.039062 228.444580 15.877930 Q 227.947754 15.716797 227.442871 15.716797 Q 226.674805 15.716797 226.229004 16.073975 Q 225.783203 16.431152 225.783203 17.038086 Q 225.783203 17.569824 226.075928 17.849121 Q 226.368652 18.128418 227.168945 18.316406 L 227.738281 18.445312 Q 228.866211 18.708496 229.381836 19.272461 Q 229.897461 19.836426 229.897461 20.808594 Q 229.897461 21.952637 229.188477 22.554199 Q 228.479492 23.155762 227.125977 23.155762 Q 226.562012 23.155762 225.992676 23.034912 Q 225.423340 22.914062 224.848633 22.672363 L 224.848633 21.517578 Q 225.466309 21.909668 226.016846 22.092285 Q 226.567383 22.274902 227.125977 22.274902 Q 227.947754 22.274902 228.404297 21.906982 Q 228.860840 21.539062 228.860840 20.878418 Q 228.860840 20.276855 228.546631 19.959961 Q 228.232422 19.643066 227.453613 19.471191 L 226.873535 19.336914 Q 225.756348 19.084473 225.251465 18.574219 Q 224.746582 18.063965 224.746582 17.204590 Q 224.746582 16.130371 225.468994 15.483154 Q 226.191406 14.835938 227.389160 14.835938 Q 227.851074 14.835938 228.361328 14.940674 Q 228.871582 15.045410 229.435547 15.254883 Z " fill="black" fill-opacity="1.000000"/>
<path d="M 239.058105 14.980957 L 243.816895 14.980957 L 243.816895 15.894043 L 240.143066 15.894043 L 240.143066 18.053223 L 243.655762 18.053223 L 243.655762 18.966309 L 240.143066 18.966309 L 240.143066 22.086914 L 243.918945 22.086914 L 243.918945 23.000000 L 239.058105 23.000000 Z " fill="black" fill-opacity="1.000000"/>
<path d="M 250.645020 19.272461 L 250.645020 23.000000 L 249.651367 23.000000 L 249.651367 19.272461 Q 249.651367 18.461426 249.366699 18.080078 Q 249.082031 17.698730 248.475098 17.698730 Q 247.782227 17.698730 247.408936 18.190186 Q 247.035645 18.681641 247.035645 19.600098 L 247.035645 23.000000 L 246.047363 23.000000 L 246.047363 16.984375 L 247.035645 16.984375 L 247.035645 17.886719 Q 247.298828 17.371094 247.750000 17.105225 Q 248.201172 16.839355 248.818848 16.839355 Q 249.737305 16.839355 250.191162 17.443604 Q 250.645020 18.047852 250.645020 19.272461 Z " fill="black" fill-opacity="1.000000"/>
<path d="M 255.297852 15.276367 L 255.297852 16.984375 L 257.542969 16.984375 L 257.542969 17.752441 L 255.297852 17.752441 L 255.297852 21.018066 Q 255.297852 21.684082 255.550293 21.947266 Q 255.802734 22.210449 256.431152 22.210449 L 257.542969 22.210449 L 257.542969 23.000000 L 256.334473 23.000000 Q 255.222656 23.000000 254.766113 22.554199 Q 254.309570 22.108398 254.309570 21.018066 L 254.309570 17.752441 L 252.703613 17.752441 L 252.703613 16.984375 L 254.309570 16.984375 L 254.309570 15.276367 Z " fill="black" fill-opacity="1.000000"/>
<path d="M 265.203613 18.225098 Q 264.886719 17.978027 264.559082 17.865234 Q 264.231445 17.752441 263.839355 17.752441 Q 262.915527 17.752441 262.426758 18.332520 Q 261.937988 18.912598 261.937988 20.008301 L 261.937988 23.000000 L 260.944336 23.000000 L 260.944336 16.984375 L 261.937988 16.984375 L 261.937988 18.160645 Q 262.185059 17.521484 262.697998 17.180420 Q 263.210938 16.839355 263.914551 16.839355 Q 264.279785 16.839355 264.596680 16.930664 Q 264.913574 17.021973 265.203613 17.215332 Z " fill="black" fill-opacity="1.000000"/>
<path d="M 270.608398 21.066406 Q 270.361328 21.694824 269.979980 22.720703 Q 269.448242 24.138672 269.265625 24.450195 Q 269.018555 24.869141 268.647949 25.078613 Q 268.277344 25.288086 267.783203 25.288086 L 266.988281 25.288086 L 266.988281 24.460938 L 267.573730 24.460938 Q 268.008789 24.460938 268.255859 24.208496 Q 268.502930 23.956055 268.884277 22.903320 L 266.558594 16.984375 L 267.605957 16.984375 L 269.389160 21.689453 L 271.145508 16.984375 L 272.192871 16.984375 Z " fill="black" fill-opacity="1.000000"/>
<path d="M 296.878906 26.319336 L 296.878906 12.300781 L 297.738281 12.300781 L 297.738281 26.319336 Z " fill="black" fill-opacity="1.000000"/>
<path d="M 195.892578 7.335938 L 195.892578 6.412109 L 202.729980 6.412109 L 202.729980 7.335938 Z " fill="black" fill-opacity="1.000000"/>
<path d="M 202.892578 7.335938 L 202.892578 6.412109 L 209.729980 6.412109 L 209.729980 7.335938 Z " fill="black" fill-opacity="1.000000"/>
<path d="M 209.892578 7.335938 L 209.892578 6.412109 L 216.729980 6.412109 L 216.729980 7.335938 Z " fill="black" fill-opacity="1.000000"/>
<path d="M 216.892578 7.335938 L 216.892578 6.412109 L 223.729980 6.412109 L 223.729980 7.335938 Z " fill="black" fill-opacity="1.000000"/>
<path d="M 223.892578 7.335938 L 223.892578 6.412109 L 230.729980 6.412109 L 230.729980 7.335938 Z " fill="black" fill-opacity="1.000000"/>
<path d="M 230.892578 7.335938 L 230.892578 6.412109 L 237.729980 6.412109 L 237.729980 7.335938 Z " fill="black" fill-opacity="1.000000"/>
<path d="M 237.892578 7.335938 L 237.892578 6.412109 L 244.729980 6.412109 L 244.729980 7.335938 Z " fill="black" fill-opacity="1.000000"/>
<path d="M 244.892578 7.335938 L 244.892578 6.412109 L 251.729980 6.412109 L 251.729980 7.335938 Z " fill="black" fill-opacity="1.000000"/>
<path d="M 251.892578 7.335938 L 251.892578 6.412109 L 258.729980 6.412109 L 258.729980 7.335938 Z " fill="black" fill-opacity="1.000000"/>
<path d="M 258.892578 7.335938 L 258.892578 6.412109 L 265.729980 6.412109 L 265.729980 7.335938 Z " fill="black" fill-opacity="1.000000"/>
<path d="M 265.892578 7.335938 L 265.892578 6.412109 L 272.729980 6.412109 L 272.729980 7.335938 Z " fill="black" fill-opacity="1.000000"/>
<path d="M 272.892578 7.335938 L 272.892578 6.412109 L 279.729980 6.412109 L 279.729980 7.335938 Z " fill="black" fill-opacity="1.000000"/>
<path d="M 279.892578 7.335938 L 279.892578 6.412109 L 286.729980 6.412109 L 286.729980 7.335938 Z " fill="black" fill-opacity="1.000000"/>
<path d="M 286.892578 7.335938 L 286.892578 6.412109 L 293.729980 6.412109 L 293.729980 7.335938 Z " fill="black" fill-opacity="1.000000"/>
<path d="M 296.878906 13.319336 L 296.878906 7.335938 L 293.892578 7.335938 L 293.892578 6.412109 L 297.738281 6.412109 L 297.738281 13.319336 Z " fill="black" fill-opacity="1.000000"/>
</svg>
