<?xml version='1.0' encoding='utf-8'?>
<svg xmlns="http://www.w3.org/2000/svg" version="1.1" width="421" height="118" viewBox="0 0 421.0 118.0">
<path d="M 2.878906 78.319336 L 2.878906 71.412109 L 6.729980 71.412109 L 6.729980 72.335938 L 3.738281 72.335938 L 3.738281 78.319336 Z " fill="black" fill-opacity="1.000000"/>
<path d="M 2.878906 91.319336 L 2.878906 84.412109 L 6.729980 84.412109 L 6.729980 85.335938 L 3.738281 85.335938 L 3.738281 91.319336 Z " fill="black" fill-opacity="1.000000"/>
<path d="M 2.878906 104.319336 L 2.878906 90.300781 L 3.738281 90.300781 L 3.738281 104.319336 Z " fill="black" fill-opacity="1.000000"/>
<path d="M 2.878906 111.335938 L 2.878906 103.300781 L 3.738281 103.300781 L 3.738281 110.412109 L 6.729980 110.412109 L 6.729980 111.335938 Z " fill="black" fill-opacity="1.000000"/>
<path d="M 6.892578 111.335938 L 6.892578 110.412109 L 13.729980 110.412109 L 13.729980 111.335938 Z " fill="black" fill-opacity="1.000000"/>
<path d="M 13.892578 111.335938 L 13.892578 110.412109 L 20.729980 110.412109 L 20.729980 111.335938 Z " fill="black" fill-opacity="1.000000"/>
<path d="M 20.892578 111.335938 L 20.892578 110.412109 L 27.729980 110.412109 L 27.729980 111.335938 Z " fill="black" fill-opacity="1.000000"/>
<path d="M 27.892578 111.335938 L 27.892578 110.412109 L 34.729980 110.412109 L 34.729980 111.335938 Z " fill="black" fill-opacity="1.000000"/>
<path d="M 34.892578 111.335938 L 34.892578 110.412109 L 41.729980 110.412109 L 41.729980 111.335938 Z " fill="black" fill-opacity="1.000000"/>
<path d="M 41.892578 111.335938 L 41.892578 110.412109 L 48.729980 110.412109 L 48.729980 111.335938 Z " fill="black" fill-opacity="1.000000"/>
<path d="M 48.892578 111.335938 L 48.892578 110.412109 L 55.729980 110.412109 L 55.729980 111.335938 Z " fill="black" fill-opacity="1.000000"/>
<path d="M 55.892578 111.335938 L 55.892578 110.412109 L 62.729980 110.412109 L 62.729980 111.335938 Z " fill="black" fill-opacity="1.000000"/>
<path d="M 62.892578 111.335938 L 62.892578 110.412109 L 69.729980 110.412109 L 69.729980 111.335938 Z " fill="black" fill-opacity="1.000000"/>
<path d="M 69.892578 111.335938 L 69.892578 110.412109 L 76.729980 110.412109 L 76.729980 111.335938 Z " fill="black" fill-opacity="1.000000"/>
<path d="M 76.892578 111.335938 L 76.892578 110.412109 L 83.729980 110.412109 L 83.729980 111.335938 Z " fill="black" fill-opacity="1.000000"/>
<path d="M 83.892578 111.335938 L 83.892578 110.412109 L 90.729980 110.412109 L 90.729980 111.335938 Z " fill="black" fill-opacity="1.000000"/>
<path d="M 90.892578 111.335938 L 90.892578 110.412109 L 97.729980 110.412109 L 97.729980 111.335938 Z " fill="black" fill-opacity="1.000000"/>
<path d="M 97.892578 111.335938 L 97.892578 110.412109 L 100.878906 110.412109 L 100.878906 103.300781 L 101.738281 103.300781 L 101.738281 110.412109 L 104.729980 110.412109 L 104.729980 111.335938 Z " fill="black" fill-opacity="1.000000"/>
<path d="M 104.892578 111.335938 L 104.892578 110.412109 L 111.729980 110.412109 L 111.729980 111.335938 Z " fill="black" fill-opacity="1.000000"/>
<path d="M 111.892578 111.335938 L 111.892578 110.412109 L 118.729980 110.412109 L 118.729980 111.335938 Z " fill="black" fill-opacity="1.000000"/>
<path d="M 118.892578 111.335938 L 118.892578 110.412109 L 125.729980 110.412109 L 125.729980 111.335938 Z " fill="black" fill-opacity="1.000000"/>
<path d="M 125.892578 111.335938 L 125.892578 110.412109 L 132.729980 110.412109 L 132.729980 111.335938 Z " fill="black" fill-opacity="1.000000"/>
<path d="M 132.892578 111.335938 L 132.892578 110.412109 L 139.729980 110.412109 L 139.729980 111.335938 Z " fill="black" fill-opacity="1.000000"/>
<path d="M 139.892578 111.335938 L 139.892578 110.412109 L 146.729980 110.412109 L 146.729980 111.335938 Z " fill="black" fill-opacity="1.000000"/>
<path d="M 146.892578 111.335938 L 146.892578 110.412109 L 153.729980 110.412109 L 153.729980 111.335938 Z " fill="black" fill-opacity="1.000000"/>
<path d="M 153.892578 111.335938 L 153.892578 110.412109 L 160.729980 110.412109 L 160.729980 111.335938 Z " fill="black" fill-opacity="1.000000"/>
<path d="M 160.892578 111.335938 L 160.892578 110.412109 L 167.729980 110.412109 L 167.729980 111.335938 Z " fill="black" fill-opacity="1.000000"/>
<path d="M 167.892578 111.335938 L 167.892578 110.412109 L 174.729980 110.412109 L 174.729980 111.335938 Z " fill="black" fill-opacity="1.000000"/>
<path d="M 174.892578 111.335938 L 174.892578 110.412109 L 181.729980 110.412109 L 181.729980 111.335938 Z " fill="black" fill-opacity="1.000000"/>
<path d="M 181.892578 111.335938 L 181.892578 110.412109 L 188.729980 110.412109 L 188.729980 111.335938 Z " fill="black" fill-opacity="1.000000"/>
<path d="M 188.892578 111.335938 L 188.892578 110.412109 L 195.729980 110.412109 L 195.729980 111.335938 Z " fill="black" fill-opacity="1.000000"/>
<path d="M 195.892578 111.335938 L 195.892578 110.412109 L 198.878906 110.412109 L 198.878906 103.300781 L 199.738281 103.300781 L 199.738281 110.412109 L 202.729980 110.412109 L 202.729980 111.335938 Z " fill="black" fill-opacity="1.000000"/>
<path d="M 202.892578 111.335938 L 202.892578 110.412109 L 209.729980 110.412109 L 209.729980 111.335938 Z " fill="black" fill-opacity="1.000000"/>
<path d="M 209.892578 111.335938 L 209.892578 110.412109 L 216.729980 110.412109 L 216.729980 111.335938 Z " fill="black" fill-opacity="1.000000"/>
<path d="M 216.892578 111.335938 L 216.892578 110.412109 L 223.729980 110.412109 L 223.729980 111.335938 Z " fill="black" fill-opacity="1.000000"/>
<path d="M 223.892578 111.335938 L 223.892578 110.412109 L 230.729980 110.412109 L 230.729980 111.335938 Z " fill="black" fill-opacity="1.000000"/>
<path d="M 230.892578 111.335938 L 230.892578 110.412109 L 237.729980 110.412109 L 237.729980 111.335938 Z " fill="black" fill-opacity="1.000000"/>
<path d="M 237.892578 111.335938 L 237.892578 110.412109 L 244.729980 110.412109 L 244.729980 111.335938 Z " fill="black" fill-opacity="1.000000"/>
<path d="M 244.892578 111.335938 L 244.892578 110.412109 L 251.729980 110.412109 L 251.729980 111.335938 Z " fill="black" fill-opacity="1.000000"/>
<path d="M 251.892578 111.335938 L 251.892578 110.412109 L 258.729980 110.412109 L 258.729980 111.335938 Z " fill="black" fill-opacity="1.000000"/>
<path d="M 258.892578 111.335938 L 258.892578 110.412109 L 265.729980 110.412109 L 265.729980 111.335938 Z " fill="black" fill-opacity="1.000000"/>
<path d="M 265.892578 111.335938 L 265.892578 110.412109 L 272.729980 110.412109 L 272.729980 111.335938 Z " fill="black" fill-opacity="1.000000"/>
<path d="M 272.892578 111.335938 L 272.892578 110.412109 L 279.729980 110.412109 L 279.729980 111.335938 Z " fill="black" fill-opacity="1.000000"/>
<path d="M 279.892578 111.335938 L 279.892578 110.412109 L 286.729980 110.412109 L 286.729980 111.335938 Z " fill="black" fill-opacity="1.000000"/>
<path d="M 286.892578 111.335938 L 286.892578 110.412109 L 293.729980 110.412109 L 293.729980 111.335938 Z " fill="black" fill-opacity="1.000000"/>
<path d="M 293.892578 111.335938 L 293.892578 110.412109 L 300.729980 110.412109 L 300.729980 111.335938 Z " fill="black" fill-opacity="1.000000"/>
<path d="M 300.892578 111.335938 L 300.892578 110.412109 L 307.729980 110.412109 L 307.729980 111.335938 Z " fill="black" fill-opacity="1.000000"/>
<path d="M 307.892578 111.335938 L 307.892578 110.412109 L 314.729980 110.412109 L 314.729980 111.335938 Z " fill="black" fill-opacity="1.000000"/>
<path d="M 314.892578 111.335938 L 314.892578 110.412109 L 321.729980 110.412109 L 321.729980 111.335938 Z " fill="black" fill-opacity="1.000000"/>
<path d="M 321.892578 111.335938 L 321.892578 110.412109 L 328.729980 110.412109 L 328.729980 111.335938 Z " fill="black" fill-opacity="1.000000"/>
<path d="M 328.892578 111.335938 L 328.892578 110.412109 L 335.729980 110.412109 L 335.729980 111.335938 Z " fill="black" fill-opacity="1.000000"/>
<path d="M 335.892578 111.335938 L 335.892578 110.412109 L 338.878906 110.412109 L 338.878906 103.300781 L 339.738281 103.300781 L 339.738281 110.412109 L 342.729980 110.412109 L 342.729980 111.335938 Z " fill="black" fill-opacity="1.000000"/>
<path d="M 342.892578 111.335938 L 342.892578 110.412109 L 349.729980 110.412109 L 349.729980 111.335938 Z " fill="black" fill-opacity="1.000000"/>
<path d="M 349.892578 111.335938 L 349.892578 110.412109 L 356.729980 110.412109 L 356.729980 111.335938 Z " fill="black" fill-opacity="1.000000"/>
<path d="M 356.892578 111.335938 L 356.892578 110.412109 L 363.729980 110.412109 L 363.729980 111.335938 Z " fill="black" fill-opacity="1.000000"/>
<path d="M 363.892578 111.335938 L 363.892578 110.412109 L 370.729980 110.412109 L 370.729980 111.335938 Z " fill="black" fill-opacity="1.000000"/>
<path d="M 370.892578 111.335938 L 370.892578 110.412109 L 377.729980 110.412109 L 377.729980 111.335938 Z " fill="black" fill-opacity="1.000000"/>
<path d="M 377.892578 111.335938 L 377.892578 110.412109 L 384.729980 110.412109 L 384.729980 111.335938 Z " fill="black" fill-opacity="1.000000"/>
<path d="M 384.892578 111.335938 L 384.892578 110.412109 L 391.729980 110.412109 L 391.729980 111.335938 Z " fill="black" fill-opacity="1.000000"/>
<path d="M 391.892578 111.335938 L 391.892578 110.412109 L 398.729980 110.412109 L 398.729980 111.335938 Z " fill="black" fill-opacity="1.000000"/>
<path d="M 398.892578 111.335938 L 398.892578 110.412109 L 405.729980 110.412109 L 405.729980 111.335938 Z " fill="black" fill-opacity="1.000000"/>
<path d="M 405.892578 111.335938 L 405.892578 110.412109 L 412.729980 110.412109 L 412.729980 111.335938 Z " fill="black" fill-opacity="1.000000"/>
<path d="M 412.892578 111.335938 L 412.892578 110.412109 L 415.878906 110.412109 L 415.878906 103.300781 L 416.738281 103.300781 L 416.738281 111.335938 Z " fill="black" fill-opacity="1.000000"/>
<path d="M 29.079590 92.980957 L 33.532227 92.980957 L 33.532227 93.894043 L 31.851074 93.894043 L 31.851074 100.086914 L 33.532227 100.086914 L 33.532227 101.000000 L 29.079590 101.000000 L 29.079590 100.086914 L 30.760742 100.086914 L 30.760742 93.894043 L 29.079590 93.894043 Z " fill="black" fill-opacity="1.000000"/>
<path d="M 40.645020 97.272461 L 40.645020 101.000000 L 39.651367 101.000000 L 39.651367 97.272461 Q 39.651367 96.461426 39.366699 96.080078 Q 39.082031 95.698730 38.475098 95.698730 Q 37.782227 95.698730 37.408936 96.190186 Q 37.035645 96.681641 37.035645 97.600098 L 37.035645 101.000000 L 36.047363 101.000000 L 36.047363 94.984375 L 37.035645 94.984375 L 37.035645 95.886719 Q 37.298828 95.371094 37.750000 95.105225 Q 38.201172 94.839355 38.818848 94.839355 Q 39.737305 94.839355 40.191162 95.443604 Q 40.645020 96.047852 40.645020 97.272461 Z " fill="black" fill-opacity="1.000000"/>
<path d="M 46.608398 97.943848 Q 46.608398 96.832031 46.245850 96.254639 Q 45.883301 95.677246 45.190430 95.677246 Q 44.465332 95.677246 44.083984 96.254639 Q 43.702637 96.832031 43.702637 97.943848 Q 43.702637 99.055664 44.086670 99.638428 Q 44.470703 100.221191 45.201172 100.221191 Q 45.883301 100.221191 46.245850 99.635742 Q 46.608398 99.050293 46.608398 97.943848 Z M 47.596680 100.613281 Q 47.596680 101.966797 46.957520 102.665039 Q 46.318359 103.363281 45.077637 103.363281 Q 44.669434 103.363281 44.223633 103.288086 Q 43.777832 103.212891 43.332031 103.067871 L 43.332031 102.090332 Q 43.858398 102.337402 44.288086 102.455566 Q 44.717773 102.573730 45.077637 102.573730 Q 45.877930 102.573730 46.243164 102.138672 Q 46.608398 101.703613 46.608398 100.758301 L 46.608398 100.715332 L 46.608398 100.043945 Q 46.372070 100.548828 45.963867 100.795898 Q 45.555664 101.042969 44.970215 101.042969 Q 43.917480 101.042969 43.289062 100.199707 Q 42.660645 99.356445 42.660645 97.943848 Q 42.660645 96.525879 43.289062 95.682617 Q 43.917480 94.839355 44.970215 94.839355 Q 45.550293 94.839355 45.953125 95.070312 Q 46.355957 95.301270 46.608398 95.784668 L 46.608398 95.005859 L 47.596680 95.005859 Z " fill="black" fill-opacity="1.000000"/>
<path d="M 55.203613 96.225098 Q 54.886719 95.978027 54.559082 95.865234 Q 54.231445 95.752441 53.839355 95.752441 Q 52.915527 95.752441 52.426758 96.332520 Q 51.937988 96.912598 51.937988 98.008301 L 51.937988 101.000000 L 50.944336 101.000000 L 50.944336 94.984375 L 51.937988 94.984375 L 51.937988 96.160645 Q 52.185059 95.521484 52.697998 95.180420 Q 53.210938 94.839355 53.914551 94.839355 Q 54.279785 94.839355 54.596680 94.930664 Q 54.913574 95.021973 55.203613 95.215332 Z " fill="black" fill-opacity="1.000000"/>
<path d="M 62.015625 97.498047 L 62.015625 97.981445 L 57.734863 97.981445 L 57.734863 98.013672 Q 57.691895 99.243652 58.204834 99.780762 Q 58.717773 100.317871 59.652344 100.317871 Q 60.125000 100.317871 60.640625 100.167480 Q 61.156250 100.017090 61.741699 99.710938 L 61.741699 100.693848 Q 61.177734 100.924805 60.654053 101.040283 Q 60.130371 101.155762 59.641602 101.155762 Q 58.239746 101.155762 57.450195 100.315186 Q 56.660645 99.474609 56.660645 97.997559 Q 56.660645 96.558105 57.434082 95.698730 Q 58.207520 94.839355 59.496582 94.839355 Q 60.645996 94.839355 61.309326 95.618164 Q 61.972656 96.396973 62.015625 97.498047 Z M 61.027344 97.208008 Q 60.962891 96.584961 60.573486 96.131104 Q 60.184082 95.677246 59.453613 95.677246 Q 58.739258 95.677246 58.277344 96.149902 Q 57.815430 96.622559 57.772461 97.213379 Z " fill="black" fill-opacity="1.000000"/>
<path d="M 68.226074 95.193848 L 68.226074 96.160645 Q 67.801758 95.913574 67.372070 95.790039 Q 66.942383 95.666504 66.496582 95.666504 Q 65.825195 95.666504 65.494873 95.884033 Q 65.164551 96.101562 65.164551 96.547363 Q 65.164551 96.950195 65.411621 97.148926 Q 65.658691 97.347656 66.641602 97.535645 L 67.039062 97.610840 Q 67.774902 97.750488 68.153564 98.169434 Q 68.532227 98.588379 68.532227 99.259766 Q 68.532227 100.151367 67.898438 100.653564 Q 67.264648 101.155762 66.136719 101.155762 Q 65.690918 101.155762 65.202148 101.061768 Q 64.713379 100.967773 64.144043 100.779785 L 64.144043 99.759277 Q 64.697266 100.043945 65.202148 100.186279 Q 65.707031 100.328613 66.158203 100.328613 Q 66.813477 100.328613 67.173340 100.062744 Q 67.533203 99.796875 67.533203 99.318848 Q 67.533203 98.631348 66.217285 98.368164 L 66.174316 98.357422 L 65.803711 98.282227 Q 64.949707 98.115723 64.557617 97.720947 Q 64.165527 97.326172 64.165527 96.644043 Q 64.165527 95.779297 64.750977 95.309326 Q 65.336426 94.839355 66.421387 94.839355 Q 66.904785 94.839355 67.350586 94.927979 Q 67.796387 95.016602 68.226074 95.193848 Z " fill="black" fill-opacity="1.000000"/>
<path d="M 75.226074 95.193848 L 75.226074 96.160645 Q 74.801758 95.913574 74.372070 95.790039 Q 73.942383 95.666504 73.496582 95.666504 Q 72.825195 95.666504 72.494873 95.884033 Q 72.164551 96.101562 72.164551 96.547363 Q 72.164551 96.950195 72.411621 97.148926 Q 72.658691 97.347656 73.641602 97.535645 L 74.039062 97.610840 Q 74.774902 97.750488 75.153564 98.169434 Q 75.532227 98.588379 75.532227 99.259766 Q 75.532227 100.151367 74.898438 100.653564 Q 74.264648 101.155762 73.136719 101.155762 Q 72.690918 101.155762 72.202148 101.061768 Q 71.713379 100.967773 71.144043 100.779785 L 71.144043 99.759277 Q 71.697266 100.043945 72.202148 100.186279 Q 72.707031 100.328613 73.158203 100.328613 Q 73.813477 100.328613 74.173340 100.062744 Q 74.533203 99.796875 74.533203 99.318848 Q 74.533203 98.631348 73.217285 98.368164 L 73.174316 98.357422 L 72.803711 98.282227 Q 71.949707 98.115723 71.557617 97.720947 Q 71.165527 97.326172 71.165527 96.644043 Q 71.165527 95.779297 71.750977 95.309326 Q 72.336426 94.839355 73.421387 94.839355 Q 73.904785 94.839355 74.350586 94.927979 Q 74.796387 95.016602 75.226074 95.193848 Z " fill="black" fill-opacity="1.000000"/>
<path d="M 100.878906 104.319336 L 100.878906 90.300781 L 101.738281 90.300781 L 101.738281 104.319336 Z " fill="black" fill-opacity="1.000000"/>
<path d="M 134.058105 92.980957 L 138.816895 92.980957 L 138.816895 93.894043 L 135.143066 93.894043 L 135.143066 96.053223 L 138.655762 96.053223 L 138.655762 96.966309 L 135.143066 96.966309 L 135.143066 100.086914 L 138.918945 100.086914 L 138.918945 101.000000 L 134.058105 101.000000 Z " fill="black" fill-opacity="1.000000"/>
<path d="M 144.608398 97.943848 Q 144.608398 96.832031 144.245850 96.254639 Q 143.883301 95.677246 143.190430 95.677246 Q 142.465332 95.677246 142.083984 96.254639 Q 141.702637 96.832031 141.702637 97.943848 Q 141.702637 99.055664 142.086670 99.638428 Q 142.470703 100.221191 143.201172 100.221191 Q 143.883301 100.221191 144.245850 99.635742 Q 144.608398 99.050293 144.608398 97.943848 Z M 145.596680 100.613281 Q 145.596680 101.966797 144.957520 102.665039 Q 144.318359 103.363281 143.077637 103.363281 Q 142.669434 103.363281 142.223633 103.288086 Q 141.777832 103.212891 141.332031 103.067871 L 141.332031 102.090332 Q 141.858398 102.337402 142.288086 102.455566 Q 142.717773 102.573730 143.077637 102.573730 Q 143.877930 102.573730 144.243164 102.138672 Q 144.608398 101.703613 144.608398 100.758301 L 144.608398 100.715332 L 144.608398 100.043945 Q 144.372070 100.548828 143.963867 100.795898 Q 143.555664 101.042969 142.970215 101.042969 Q 141.917480 101.042969 141.289062 100.199707 Q 140.660645 99.356445 140.660645 97.943848 Q 140.660645 96.525879 141.289062 95.682617 Q 141.917480 94.839355 142.970215 94.839355 Q 143.550293 94.839355 143.953125 95.070312 Q 144.355957 95.301270 144.608398 95.784668 L 144.608398 95.005859 L 145.596680 95.005859 Z " fill="black" fill-opacity="1.000000"/>
<path d="M 153.203613 96.225098 Q 152.886719 95.978027 152.559082 95.865234 Q 152.231445 95.752441 151.839355 95.752441 Q 150.915527 95.752441 150.426758 96.332520 Q 149.937988 96.912598 149.937988 98.008301 L 149.937988 101.000000 L 148.944336 101.000000 L 148.944336 94.984375 L 149.937988 94.984375 L 149.937988 96.160645 Q 150.185059 95.521484 150.697998 95.180420 Q 151.210938 94.839355 151.914551 94.839355 Q 152.279785 94.839355 152.596680 94.930664 Q 152.913574 95.021973 153.203613 95.215332 Z " fill="black" fill-opacity="1.000000"/>
<path d="M 160.015625 97.498047 L 160.015625 97.981445 L 155.734863 97.981445 L 155.734863 98.013672 Q 155.691895 99.243652 156.204834 99.780762 Q 156.717773 100.317871 157.652344 100.317871 Q 158.125000 100.317871 158.640625 100.167480 Q 159.156250 100.017090 159.741699 99.710938 L 159.741699 100.693848 Q 159.177734 100.924805 158.654053 101.040283 Q 158.130371 101.155762 157.641602 101.155762 Q 156.239746 101.155762 155.450195 100.315186 Q 154.660645 99.474609 154.660645 97.997559 Q 154.660645 96.558105 155.434082 95.698730 Q 156.207520 94.839355 157.496582 94.839355 Q 158.645996 94.839355 159.309326 95.618164 Q 159.972656 96.396973 160.015625 97.498047 Z M 159.027344 97.208008 Q 158.962891 96.584961 158.573486 96.131104 Q 158.184082 95.677246 157.453613 95.677246 Q 156.739258 95.677246 156.277344 96.149902 Q 155.815430 96.622559 155.772461 97.213379 Z " fill="black" fill-opacity="1.000000"/>
<path d="M 166.226074 95.193848 L 166.226074 96.160645 Q 165.801758 95.913574 165.372070 95.790039 Q 164.942383 95.666504 164.496582 95.666504 Q 163.825195 95.666504 163.494873 95.884033 Q 163.164551 96.101562 163.164551 96.547363 Q 163.164551 96.950195 163.411621 97.148926 Q 163.658691 97.347656 164.641602 97.535645 L 165.039062 97.610840 Q 165.774902 97.750488 166.153564 98.169434 Q 166.532227 98.588379 166.532227 99.259766 Q 166.532227 100.151367 165.898438 100.653564 Q 165.264648 101.155762 164.136719 101.155762 Q 163.690918 101.155762 163.202148 101.061768 Q 162.713379 100.967773 162.144043 100.779785 L 162.144043 99.759277 Q 162.697266 100.043945 163.202148 100.186279 Q 163.707031 100.328613 164.158203 100.328613 Q 164.813477 100.328613 165.173340 100.062744 Q 165.533203 99.796875 165.533203 99.318848 Q 165.533203 98.631348 164.217285 98.368164 L 164.174316 98.357422 L 163.803711 98.282227 Q 162.949707 98.115723 162.557617 97.720947 Q 162.165527 97.326172 162.165527 96.644043 Q 162.165527 95.779297 162.750977 95.309326 Q 163.336426 94.839355 164.421387 94.839355 Q 164.904785 94.839355 165.350586 94.927979 Q 165.796387 95.016602 166.226074 95.193848 Z " fill="black" fill-opacity="1.000000"/>
<path d="M 173.226074 95.193848 L 173.226074 96.160645 Q 172.801758 95.913574 172.372070 95.790039 Q 171.942383 95.666504 171.496582 95.666504 Q 170.825195 95.666504 170.494873 95.884033 Q 170.164551 96.101562 170.164551 96.547363 Q 170.164551 96.950195 170.411621 97.148926 Q 170.658691 97.347656 171.641602 97.535645 L 172.039062 97.610840 Q 172.774902 97.750488 173.153564 98.169434 Q 173.532227 98.588379 173.532227 99.259766 Q 173.532227 100.151367 172.898438 100.653564 Q 172.264648 101.155762 171.136719 101.155762 Q 170.690918 101.155762 170.202148 101.061768 Q 169.713379 100.967773 169.144043 100.779785 L 169.144043 99.759277 Q 169.697266 100.043945 170.202148 100.186279 Q 170.707031 100.328613 171.158203 100.328613 Q 171.813477 100.328613 172.173340 100.062744 Q 172.533203 99.796875 172.533203 99.318848 Q 172.533203 98.631348 171.217285 98.368164 L 171.174316 98.357422 L 170.803711 98.282227 Q 169.949707 98.115723 169.557617 97.720947 Q 169.165527 97.326172 169.165527 96.644043 Q 169.165527 95.779297 169.750977 95.309326 Q 170.336426 94.839355 171.421387 94.839355 Q 171.904785 94.839355 172.350586 94.927979 Q 172.796387 95.016602 173.226074 95.193848 Z " fill="black" fill-opacity="1.000000"/>
<path d="M 198.878906 104.319336 L 198.878906 90.300781 L 199.738281 90.300781 L 199.738281 104.319336 Z " fill="black" fill-opacity="1.000000"/>
<path d="M 218.058105 92.980957 L 222.816895 92.980957 L 222.816895 93.894043 L 219.143066 93.894043 L 219.143066 96.053223 L 222.655762 96.053223 L 222.655762 96.966309 L 219.143066 96.966309 L 219.143066 100.086914 L 222.918945 100.086914 L 222.918945 101.000000 L 218.058105 101.000000 Z " fill="black" fill-opacity="1.000000"/>
<path d="M 230.004883 94.984375 L 227.851074 97.863281 L 230.214355 101.000000 L 229.070312 101.000000 L 227.308594 98.588379 L 225.552246 101.000000 L 224.408203 101.000000 L 226.771484 97.863281 L 224.617676 94.984375 L 225.713379 94.984375 L 227.308594 97.159668 L 228.893066 94.984375 Z " fill="black" fill-opacity="1.000000"/>
<path d="M 233.014160 100.242676 L 233.014160 103.288086 L 232.020508 103.288086 L 232.020508 94.984375 L 233.014160 94.984375 L 233.014160 95.752441 Q 233.261230 95.306641 233.672119 95.072998 Q 234.083008 94.839355 234.620117 94.839355 Q 235.710449 94.839355 236.330811 95.682617 Q 236.951172 96.525879 236.951172 98.019043 Q 236.951172 99.485352 236.328125 100.320557 Q 235.705078 101.155762 234.620117 101.155762 Q 234.072266 101.155762 233.661377 100.922119 Q 233.250488 100.688477 233.014160 100.242676 Z M 235.914551 97.997559 Q 235.914551 96.848145 235.552002 96.262695 Q 235.189453 95.677246 234.475098 95.677246 Q 233.755371 95.677246 233.384766 96.265381 Q 233.014160 96.853516 233.014160 97.997559 Q 233.014160 99.136230 233.384766 99.727051 Q 233.755371 100.317871 234.475098 100.317871 Q 235.189453 100.317871 235.552002 99.732422 Q 235.914551 99.146973 235.914551 97.997559 Z " fill="black" fill-opacity="1.000000"/>
<path d="M 239.697266 95.005859 L 242.227051 95.005859 L 242.227051 100.231934 L 244.187500 100.231934 L 244.187500 101.000000 L 239.278320 101.000000 L 239.278320 100.231934 L 241.238770 100.231934 L 241.238770 95.773926 L 239.697266 95.773926 Z M 241.238770 92.669434 L 242.227051 92.669434 L 242.227051 93.915527 L 241.238770 93.915527 Z " fill="black" fill-opacity="1.000000"/>
<path d="M 251.203613 96.225098 Q 250.886719 95.978027 250.559082 95.865234 Q 250.231445 95.752441 249.839355 95.752441 Q 248.915527 95.752441 248.426758 96.332520 Q 247.937988 96.912598 247.937988 98.008301 L 247.937988 101.000000 L 246.944336 101.000000 L 246.944336 94.984375 L 247.937988 94.984375 L 247.937988 96.160645 Q 248.185059 95.521484 248.697998 95.180420 Q 249.210938 94.839355 249.914551 94.839355 Q 250.279785 94.839355 250.596680 94.930664 Q 250.913574 95.021973 251.203613 95.215332 Z " fill="black" fill-opacity="1.000000"/>
<path d="M 255.770508 97.976074 L 255.442871 97.976074 Q 254.578125 97.976074 254.140381 98.279541 Q 253.702637 98.583008 253.702637 99.184570 Q 253.702637 99.727051 254.030273 100.027832 Q 254.357910 100.328613 254.937988 100.328613 Q 255.754395 100.328613 256.221680 99.761963 Q 256.688965 99.195312 256.694336 98.196289 L 256.694336 97.976074 Z M 257.687988 97.567871 L 257.687988 101.000000 L 256.694336 101.000000 L 256.694336 100.108398 Q 256.377441 100.645508 255.896729 100.900635 Q 255.416016 101.155762 254.728516 101.155762 Q 253.810059 101.155762 253.262207 100.637451 Q 252.714355 100.119141 252.714355 99.249023 Q 252.714355 98.244629 253.388428 97.723633 Q 254.062500 97.202637 255.367676 97.202637 L 256.694336 97.202637 L 256.694336 97.046875 Q 256.688965 96.327148 256.329102 96.002197 Q 255.969238 95.677246 255.179688 95.677246 Q 254.674805 95.677246 254.159180 95.822266 Q 253.643555 95.967285 253.154785 96.246582 L 253.154785 95.258301 Q 253.702637 95.048828 254.204834 94.944092 Q 254.707031 94.839355 255.179688 94.839355 Q 255.926270 94.839355 256.455322 95.059570 Q 256.984375 95.279785 257.312012 95.720215 Q 257.516113 95.988770 257.602051 96.383545 Q 257.687988 96.778320 257.687988 97.567871 Z " fill="black" fill-opacity="1.000000"/>
<path d="M 262.297852 93.276367 L 262.297852 94.984375 L 264.542969 94.984375 L 264.542969 95.752441 L 262.297852 95.752441 L 262.297852 99.018066 Q 262.297852 99.684082 262.550293 99.947266 Q 262.802734 100.210449 263.431152 100.210449 L 264.542969 100.210449 L 264.542969 101.000000 L 263.334473 101.000000 Q 262.222656 101.000000 261.766113 100.554199 Q 261.309570 100.108398 261.309570 99.018066 L 261.309570 95.752441 L 259.703613 95.752441 L 259.703613 94.984375 L 261.309570 94.984375 L 261.309570 93.276367 Z " fill="black" fill-opacity="1.000000"/>
<path d="M 267.697266 95.005859 L 270.227051 95.005859 L 270.227051 100.231934 L 272.187500 100.231934 L 272.187500 101.000000 L 267.278320 101.000000 L 267.278320 100.231934 L 269.238770 100.231934 L 269.238770 95.773926 L 267.697266 95.773926 Z M 269.238770 92.669434 L 270.227051 92.669434 L 270.227051 93.915527 L 269.238770 93.915527 Z " fill="black" fill-opacity="1.000000"/>
<path d="M 276.308594 95.677246 Q 275.556641 95.677246 275.169922 96.262695 Q 274.783203 96.848145 274.783203 97.997559 Q 274.783203 99.141602 275.169922 99.729736 Q 275.556641 100.317871 276.308594 100.317871 Q 277.065918 100.317871 277.452637 99.729736 Q 277.839355 99.141602 277.839355 97.997559 Q 277.839355 96.848145 277.452637 96.262695 Q 277.065918 95.677246 276.308594 95.677246 Z M 276.308594 94.839355 Q 277.560059 94.839355 278.223389 95.650391 Q 278.886719 96.461426 278.886719 97.997559 Q 278.886719 99.539062 278.226074 100.347412 Q 277.565430 101.155762 276.308594 101.155762 Q 275.057129 101.155762 274.396484 100.347412 Q 273.735840 99.539062 273.735840 97.997559 Q 273.735840 96.461426 274.396484 95.650391 Q 275.057129 94.839355 276.308594 94.839355 Z " fill="black" fill-opacity="1.000000"/>
<path d="M 285.645020 97.272461 L 285.645020 101.000000 L 284.651367 101.000000 L 284.651367 97.272461 Q 284.651367 96.461426 284.366699 96.080078 Q 284.082031 95.698730 283.475098 95.698730 Q 282.782227 95.698730 282.408936 96.190186 Q 282.035645 96.681641 282.035645 97.600098 L 282.035645 101.000000 L 281.047363 101.000000 L 281.047363 94.984375 L 282.035645 94.984375 L 282.035645 95.886719 Q 282.298828 95.371094 282.750000 95.105225 Q 283.201172 94.839355 283.818848 94.839355 Q 284.737305 94.839355 285.191162 95.443604 Q 285.645020 96.047852 285.645020 97.272461 Z " fill="black" fill-opacity="1.000000"/>
<path d="M 294.252441 92.980957 L 300.370117 92.980957 L 300.370117 93.894043 L 297.861816 93.894043 L 297.861816 101.000000 L 296.771484 101.000000 L 296.771484 93.894043 L 294.252441 93.894043 Z " fill="black" fill-opacity="1.000000"/>
<path d="M 302.697266 95.005859 L 305.227051 95.005859 L 305.227051 100.231934 L 307.187500 100.231934 L 307.187500 101.000000 L 302.278320 101.000000 L 302.278320 100.231934 L 304.238770 100.231934 L 304.238770 95.773926 L 302.697266 95.773926 Z M 304.238770 92.669434 L 305.227051 92.669434 L 305.227051 93.915527 L 304.238770 93.915527 Z " fill="black" fill-opacity="1.000000"/>
<path d="M 311.630859 95.596680 Q 311.813477 95.209961 312.095459 95.024658 Q 312.377441 94.839355 312.774902 94.839355 Q 313.500000 94.839355 313.798096 95.400635 Q 314.096191 95.961914 314.096191 97.514160 L 314.096191 101.000000 L 313.193848 101.000000 L 313.193848 97.557129 Q 313.193848 96.284180 313.051514 95.975342 Q 312.909180 95.666504 312.533203 95.666504 Q 312.103516 95.666504 311.945068 95.996826 Q 311.786621 96.327148 311.786621 97.557129 L 311.786621 101.000000 L 310.884277 101.000000 L 310.884277 97.557129 Q 310.884277 96.268066 310.731201 95.967285 Q 310.578125 95.666504 310.180664 95.666504 Q 309.788574 95.666504 309.635498 95.996826 Q 309.482422 96.327148 309.482422 97.557129 L 309.482422 101.000000 L 308.585449 101.000000 L 308.585449 94.984375 L 309.482422 94.984375 L 309.482422 95.500000 Q 309.659668 95.177734 309.925537 95.008545 Q 310.191406 94.839355 310.529785 94.839355 Q 310.937988 94.839355 311.209229 95.027344 Q 311.480469 95.215332 311.630859 95.596680 Z " fill="black" fill-opacity="1.000000"/>
<path d="M 321.015625 97.498047 L 321.015625 97.981445 L 316.734863 97.981445 L 316.734863 98.013672 Q 316.691895 99.243652 317.204834 99.780762 Q 317.717773 100.317871 318.652344 100.317871 Q 319.125000 100.317871 319.640625 100.167480 Q 320.156250 100.017090 320.741699 99.710938 L 320.741699 100.693848 Q 320.177734 100.924805 319.654053 101.040283 Q 319.130371 101.155762 318.641602 101.155762 Q 317.239746 101.155762 316.450195 100.315186 Q 315.660645 99.474609 315.660645 97.997559 Q 315.660645 96.558105 316.434082 95.698730 Q 317.207520 94.839355 318.496582 94.839355 Q 319.645996 94.839355 320.309326 95.618164 Q 320.972656 96.396973 321.015625 97.498047 Z M 320.027344 97.208008 Q 319.962891 96.584961 319.573486 96.131104 Q 319.184082 95.677246 318.453613 95.677246 Q 317.739258 95.677246 317.277344 96.149902 Q 316.815430 96.622559 316.772461 97.213379 Z " fill="black" fill-opacity="1.000000"/>
<path d="M 338.878906 104.319336 L 338.878906 90.300781 L 339.738281 90.300781 L 339.738281 104.319336 Z " fill="black" fill-opacity="1.000000"/>
<path d="M 364.193359 93.007812 L 365.643555 93.007812 L 367.029297 97.079102 L 368.425781 93.007812 L 369.881348 93.007812 L 369.881348 101.000000 L 368.876953 101.000000 L 368.876953 93.937012 L 367.448242 98.147949 L 366.626465 98.147949 L 365.192383 93.937012 L 365.192383 101.000000 L 364.193359 101.000000 Z " fill="black" fill-opacity="1.000000"/>
<path d="M 374.308594 93.937012 L 373.164551 98.040527 L 375.452637 98.040527 Z M 373.653320 92.980957 L 374.969238 92.980957 L 377.423828 101.000000 L 376.301270 101.000000 L 375.710449 98.910645 L 372.901367 98.910645 L 372.321289 101.000000 L 371.198730 101.000000 Z " fill="black" fill-opacity="1.000000"/>
<path d="M 383.763184 100.715332 Q 383.349609 100.935547 382.914551 101.045654 Q 382.479492 101.155762 381.990723 101.155762 Q 380.449219 101.155762 379.597900 100.065430 Q 378.746582 98.975098 378.746582 96.998535 Q 378.746582 95.032715 379.603271 93.934326 Q 380.459961 92.835938 381.990723 92.835938 Q 382.479492 92.835938 382.914551 92.946045 Q 383.349609 93.056152 383.763184 93.276367 L 383.763184 94.388184 Q 383.365723 94.060547 382.909180 93.888672 Q 382.452637 93.716797 381.990723 93.716797 Q 380.932617 93.716797 380.406250 94.533203 Q 379.879883 95.349609 379.879883 96.998535 Q 379.879883 98.642090 380.406250 99.458496 Q 380.932617 100.274902 381.990723 100.274902 Q 382.463379 100.274902 382.917236 100.103027 Q 383.371094 99.931152 383.763184 99.603516 Z " fill="black" fill-opacity="1.000000"/>
<path d="M 415.878906 104.319336 L 415.878906 90.300781 L 416.738281 90.300781 L 416.738281 104.319336 Z " fill="black" fill-opacity="1.000000"/>
<path d="M 6.892578 72.335938 L 6.892578 71.412109 L 13.729980 71.412109 L 13.729980 72.335938 Z " fill="black" fill-opacity="1.000000"/>
<path d="M 13.892578 72.335938 L 13.892578 71.412109 L 20.729980 71.412109 L 20.729980 72.335938 Z " fill="black" fill-opacity="1.000000"/>
<path d="M 20.892578 72.335938 L 20.892578 71.412109 L 27.729980 71.412109 L 27.729980 72.335938 Z " fill="black" fill-opacity="1.000000"/>
<path d="M 27.892578 72.335938 L 27.892578 71.412109 L 34.729980 71.412109 L 34.729980 72.335938 Z " fill="black" fill-opacity="1.000000"/>
<path d="M 34.892578 72.335938 L 34.892578 71.412109 L 41.729980 71.412109 L 41.729980 72.335938 Z " fill="black" fill-opacity="1.000000"/>
<path d="M 41.892578 72.335938 L 41.892578 71.412109 L 48.729980 71.412109 L 48.729980 72.335938 Z " fill="black" fill-opacity="1.000000"/>
<path d="M 48.892578 72.335938 L 48.892578 71.412109 L 55.729980 71.412109 L 55.729980 72.335938 Z " fill="black" fill-opacity="1.000000"/>
<path d="M 55.892578 72.335938 L 55.892578 71.412109 L 62.729980 71.412109 L 62.729980 72.335938 Z " fill="black" fill-opacity="1.000000"/>
<path d="M 62.892578 72.335938 L 62.892578 71.412109 L 69.729980 71.412109 L 69.729980 72.335938 Z " fill="black" fill-opacity="1.000000"/>
<path d="M 69.892578 72.335938 L 69.892578 71.412109 L 76.729980 71.412109 L 76.729980 72.335938 Z " fill="black" fill-opacity="1.000000"/>
<path d="M 76.892578 72.335938 L 76.892578 71.412109 L 83.729980 71.412109 L 83.729980 72.335938 Z " fill="black" fill-opacity="1.000000"/>
<path d="M 83.892578 72.335938 L 83.892578 71.412109 L 90.729980 71.412109 L 90.729980 72.335938 Z " fill="black" fill-opacity="1.000000"/>
<path d="M 90.892578 72.335938 L 90.892578 71.412109 L 97.729980 71.412109 L 97.729980 72.335938 Z " fill="black" fill-opacity="1.000000"/>
<path d="M 97.892578 72.335938 L 97.892578 71.412109 L 104.729980 71.412109 L 104.729980 72.335938 Z " fill="black" fill-opacity="1.000000"/>
<path d="M 104.892578 72.335938 L 104.892578 71.412109 L 111.729980 71.412109 L 111.729980 72.335938 Z " fill="black" fill-opacity="1.000000"/>
<path d="M 111.892578 72.335938 L 111.892578 71.412109 L 118.729980 71.412109 L 118.729980 72.335938 Z " fill="black" fill-opacity="1.000000"/>
<path d="M 118.892578 72.335938 L 118.892578 71.412109 L 125.729980 71.412109 L 125.729980 72.335938 Z " fill="black" fill-opacity="1.000000"/>
<path d="M 125.892578 72.335938 L 125.892578 71.412109 L 132.729980 71.412109 L 132.729980 72.335938 Z " fill="black" fill-opacity="1.000000"/>
<path d="M 132.892578 72.335938 L 132.892578 71.412109 L 139.729980 71.412109 L 139.729980 72.335938 Z " fill="black" fill-opacity="1.000000"/>
<path d="M 139.892578 72.335938 L 139.892578 71.412109 L 146.729980 71.412109 L 146.729980 72.335938 Z " fill="black" fill-opacity="1.000000"/>
<path d="M 146.892578 72.335938 L 146.892578 71.412109 L 153.729980 71.412109 L 153.729980 72.335938 Z " fill="black" fill-opacity="1.000000"/>
<path d="M 153.892578 72.335938 L 153.892578 71.412109 L 160.729980 71.412109 L 160.729980 72.335938 Z " fill="black" fill-opacity="1.000000"/>
<path d="M 160.892578 72.335938 L 160.892578 71.412109 L 167.729980 71.412109 L 167.729980 72.335938 Z " fill="black" fill-opacity="1.000000"/>
<path d="M 167.892578 72.335938 L 167.892578 71.412109 L 174.729980 71.412109 L 174.729980 72.335938 Z " fill="black" fill-opacity="1.000000"/>
<path d="M 174.892578 72.335938 L 174.892578 71.412109 L 181.729980 71.412109 L 181.729980 72.335938 Z " fill="black" fill-opacity="1.000000"/>
<path d="M 181.892578 72.335938 L 181.892578 71.412109 L 188.729980 71.412109 L 188.729980 72.335938 Z " fill="black" fill-opacity="1.000000"/>
<path d="M 188.892578 72.335938 L 188.892578 71.412109 L 195.729980 71.412109 L 195.729980 72.335938 Z " fill="black" fill-opacity="1.000000"/>
<path d="M 195.892578 72.335938 L 195.892578 71.412109 L 202.729980 71.412109 L 202.729980 72.335938 Z " fill="black" fill-opacity="1.000000"/>
<path d="M 202.892578 72.335938 L 202.892578 71.412109 L 209.729980 71.412109 L 209.729980 72.335938 Z " fill="black" fill-opacity="1.000000"/>
<path d="M 209.892578 72.335938 L 209.892578 71.412109 L 216.729980 71.412109 L 216.729980 72.335938 Z " fill="black" fill-opacity="1.000000"/>
<path d="M 216.892578 72.335938 L 216.892578 71.412109 L 223.729980 71.412109 L 223.729980 72.335938 Z " fill="black" fill-opacity="1.000000"/>
<path d="M 223.892578 72.335938 L 223.892578 71.412109 L 230.729980 71.412109 L 230.729980 72.335938 Z " fill="black" fill-opacity="1.000000"/>
<path d="M 230.892578 72.335938 L 230.892578 71.412109 L 237.729980 71.412109 L 237.729980 72.335938 Z " fill="black" fill-opacity="1.000000"/>
<path d="M 237.892578 72.335938 L 237.892578 71.412109 L 244.729980 71.412109 L 244.729980 72.335938 Z " fill="black" fill-opacity="1.000000"/>
<path d="M 244.892578 72.335938 L 244.892578 71.412109 L 251.729980 71.412109 L 251.729980 72.335938 Z " fill="black" fill-opacity="1.000000"/>
<path d="M 251.892578 72.335938 L 251.892578 71.412109 L 258.729980 71.412109 L 258.729980 72.335938 Z " fill="black" fill-opacity="1.000000"/>
<path d="M 258.892578 72.335938 L 258.892578 71.412109 L 265.729980 71.412109 L 265.729980 72.335938 Z " fill="black" fill-opacity="1.000000"/>
<path d="M 265.892578 72.335938 L 265.892578 71.412109 L 272.729980 71.412109 L 272.729980 72.335938 Z " fill="black" fill-opacity="1.000000"/>
<path d="M 272.892578 72.335938 L 272.892578 71.412109 L 279.729980 71.412109 L 279.729980 72.335938 Z " fill="black" fill-opacity="1.000000"/>
<path d="M 279.892578 72.335938 L 279.892578 71.412109 L 286.729980 71.412109 L 286.729980 72.335938 Z " fill="black" fill-opacity="1.000000"/>
<path d="M 286.892578 72.335938 L 286.892578 71.412109 L 293.729980 71.412109 L 293.729980 72.335938 Z " fill="black" fill-opacity="1.000000"/>
<path d="M 293.892578 72.335938 L 293.892578 71.412109 L 300.729980 71.412109 L 300.729980 72.335938 Z " fill="black" fill-opacity="1.000000"/>
<path d="M 300.892578 72.335938 L 300.892578 71.412109 L 307.729980 71.412109 L 307.729980 72.335938 Z " fill="black" fill-opacity="1.000000"/>
<path d="M 307.892578 72.335938 L 307.892578 71.412109 L 314.729980 71.412109 L 314.729980 72.335938 Z " fill="black" fill-opacity="1.000000"/>
<path d="M 314.892578 72.335938 L 314.892578 71.412109 L 321.729980 71.412109 L 321.729980 72.335938 Z " fill="black" fill-opacity="1.000000"/>
<path d="M 321.892578 72.335938 L 321.892578 71.412109 L 328.729980 71.412109 L 328.729980 72.335938 Z " fill="black" fill-opacity="1.000000"/>
<path d="M 328.892578 72.335938 L 328.892578 71.412109 L 335.729980 71.412109 L 335.729980 72.335938 Z " fill="black" fill-opacity="1.000000"/>
<path d="M 335.892578 72.335938 L 335.892578 71.412109 L 342.729980 71.412109 L 342.729980 72.335938 Z " fill="black" fill-opacity="1.000000"/>
<path d="M 342.892578 72.335938 L 342.892578 71.412109 L 349.729980 71.412109 L 349.729980 72.335938 Z " fill="black" fill-opacity="1.000000"/>
<path d="M 349.892578 72.335938 L 349.892578 71.412109 L 356.729980 71.412109 L 356.729980 72.335938 Z " fill="black" fill-opacity="1.000000"/>
<path d="M 356.892578 72.335938 L 356.892578 71.412109 L 363.729980 71.412109 L 363.729980 72.335938 Z " fill="black" fill-opacity="1.000000"/>
<path d="M 363.892578 72.335938 L 363.892578 71.412109 L 370.729980 71.412109 L 370.729980 72.335938 Z " fill="black" fill-opacity="1.000000"/>
<path d="M 370.892578 72.335938 L 370.892578 71.412109 L 377.729980 71.412109 L 377.729980 72.335938 Z " fill="black" fill-opacity="1.000000"/>
<path d="M 377.892578 72.335938 L 377.892578 71.412109 L 384.729980 71.412109 L 384.729980 72.335938 Z " fill="black" fill-opacity="1.000000"/>
<path d="M 384.892578 72.335938 L 384.892578 71.412109 L 391.729980 71.412109 L 391.729980 72.335938 Z " fill="black" fill-opacity="1.000000"/>
<path d="M 391.892578 72.335938 L 391.892578 71.412109 L 398.729980 71.412109 L 398.729980 72.335938 Z " fill="black" fill-opacity="1.000000"/>
<path d="M 398.892578 72.335938 L 398.892578 71.412109 L 405.729980 71.412109 L 405.729980 72.335938 Z " fill="black" fill-opacity="1.000000"/>
<path d="M 405.892578 72.335938 L 405.892578 71.412109 L 412.729980 71.412109 L 412.729980 72.335938 Z " fill="black" fill-opacity="1.000000"/>
<path d="M 6.892578 85.335938 L 6.892578 84.412109 L 13.729980 84.412109 L 13.729980 85.335938 Z " fill="black" fill-opacity="1.000000"/>
<path d="M 13.892578 85.335938 L 13.892578 84.412109 L 20.729980 84.412109 L 20.729980 85.335938 Z " fill="black" fill-opacity="1.000000"/>
<path d="M 20.892578 85.335938 L 20.892578 84.412109 L 27.729980 84.412109 L 27.729980 85.335938 Z " fill="black" fill-opacity="1.000000"/>
<path d="M 27.892578 85.335938 L 27.892578 84.412109 L 34.729980 84.412109 L 34.729980 85.335938 Z " fill="black" fill-opacity="1.000000"/>
<path d="M 34.892578 85.335938 L 34.892578 84.412109 L 41.729980 84.412109 L 41.729980 85.335938 Z " fill="black" fill-opacity="1.000000"/>
<path d="M 41.892578 85.335938 L 41.892578 84.412109 L 48.729980 84.412109 L 48.729980 85.335938 Z " fill="black" fill-opacity="1.000000"/>
<path d="M 48.892578 85.335938 L 48.892578 84.412109 L 55.729980 84.412109 L 55.729980 85.335938 Z " fill="black" fill-opacity="1.000000"/>
<path d="M 55.892578 85.335938 L 55.892578 84.412109 L 62.729980 84.412109 L 62.729980 85.335938 Z " fill="black" fill-opacity="1.000000"/>
<path d="M 62.892578 85.335938 L 62.892578 84.412109 L 69.729980 84.412109 L 69.729980 85.335938 Z " fill="black" fill-opacity="1.000000"/>
<path d="M 69.892578 85.335938 L 69.892578 84.412109 L 76.729980 84.412109 L 76.729980 85.335938 Z " fill="black" fill-opacity="1.000000"/>
<path d="M 76.892578 85.335938 L 76.892578 84.412109 L 83.729980 84.412109 L 83.729980 85.335938 Z " fill="black" fill-opacity="1.000000"/>
<path d="M 83.892578 85.335938 L 83.892578 84.412109 L 90.729980 84.412109 L 90.729980 85.335938 Z " fill="black" fill-opacity="1.000000"/>
<path d="M 90.892578 85.335938 L 90.892578 84.412109 L 97.729980 84.412109 L 97.729980 85.335938 Z " fill="black" fill-opacity="1.000000"/>
<path d="M 100.878906 91.319336 L 100.878906 85.335938 L 97.892578 85.335938 L 97.892578 84.412109 L 104.729980 84.412109 L 104.729980 85.335938 L 101.738281 85.335938 L 101.738281 91.319336 Z " fill="black" fill-opacity="1.000000"/>
<path d="M 104.892578 85.335938 L 104.892578 84.412109 L 111.729980 84.412109 L 111.729980 85.335938 Z " fill="black" fill-opacity="1.000000"/>
<path d="M 111.892578 85.335938 L 111.892578 84.412109 L 118.729980 84.412109 L 118.729980 85.335938 Z " fill="black" fill-opacity="1.000000"/>
<path d="M 118.892578 85.335938 L 118.892578 84.412109 L 125.729980 84.412109 L 125.729980 85.335938 Z " fill="black" fill-opacity="1.000000"/>
<path d="M 125.892578 85.335938 L 125.892578 84.412109 L 132.729980 84.412109 L 132.729980 85.335938 Z " fill="black" fill-opacity="1.000000"/>
<path d="M 132.892578 85.335938 L 132.892578 84.412109 L 139.729980 84.412109 L 139.729980 85.335938 Z " fill="black" fill-opacity="1.000000"/>
<path d="M 139.892578 85.335938 L 139.892578 84.412109 L 146.729980 84.412109 L 146.729980 85.335938 Z " fill="black" fill-opacity="1.000000"/>
<path d="M 146.892578 85.335938 L 146.892578 84.412109 L 153.729980 84.412109 L 153.729980 85.335938 Z " fill="black" fill-opacity="1.000000"/>
<path d="M 153.892578 85.335938 L 153.892578 84.412109 L 160.729980 84.412109 L 160.729980 85.335938 Z " fill="black" fill-opacity="1.000000"/>
<path d="M 160.892578 85.335938 L 160.892578 84.412109 L 167.729980 84.412109 L 167.729980 85.335938 Z " fill="black" fill-opacity="1.000000"/>
<path d="M 167.892578 85.335938 L 167.892578 84.412109 L 174.729980 84.412109 L 174.729980 85.335938 Z " fill="black" fill-opacity="1.000000"/>
<path d="M 174.892578 85.335938 L 174.892578 84.412109 L 181.729980 84.412109 L 181.729980 85.335938 Z " fill="black" fill-opacity="1.000000"/>
<path d="M 181.892578 85.335938 L 181.892578 84.412109 L 188.729980 84.412109 L 188.729980 85.335938 Z " fill="black" fill-opacity="1.000000"/>
<path d="M 188.892578 85.335938 L 188.892578 84.412109 L 195.729980 84.412109 L 195.729980 85.335938 Z " fill="black" fill-opacity="1.000000"/>
<path d="M 198.878906 91.319336 L 198.878906 85.335938 L 195.892578 85.335938 L 195.892578 84.412109 L 202.729980 84.412109 L 202.729980 85.335938 L 199.738281 85.335938 L 199.738281 91.319336 Z " fill="black" fill-opacity="1.000000"/>
<path d="M 202.892578 85.335938 L 202.892578 84.412109 L 209.729980 84.412109 L 209.729980 85.335938 Z " fill="black" fill-opacity="1.000000"/>
<path d="M 209.892578 85.335938 L 209.892578 84.412109 L 216.729980 84.412109 L 216.729980 85.335938 Z " fill="black" fill-opacity="1.000000"/>
<path d="M 216.892578 85.335938 L 216.892578 84.412109 L 223.729980 84.412109 L 223.729980 85.335938 Z " fill="black" fill-opacity="1.000000"/>
<path d="M 223.892578 85.335938 L 223.892578 84.412109 L 230.729980 84.412109 L 230.729980 85.335938 Z " fill="black" fill-opacity="1.000000"/>
<path d="M 230.892578 85.335938 L 230.892578 84.412109 L 237.729980 84.412109 L 237.729980 85.335938 Z " fill="black" fill-opacity="1.000000"/>
<path d="M 237.892578 85.335938 L 237.892578 84.412109 L 244.729980 84.412109 L 244.729980 85.335938 Z " fill="black" fill-opacity="1.000000"/>
<path d="M 244.892578 85.335938 L 244.892578 84.412109 L 251.729980 84.412109 L 251.729980 85.335938 Z " fill="black" fill-opacity="1.000000"/>
<path d="M 251.892578 85.335938 L 251.892578 84.412109 L 258.729980 84.412109 L 258.729980 85.335938 Z " fill="black" fill-opacity="1.000000"/>
<path d="M 258.892578 85.335938 L 258.892578 84.412109 L 265.729980 84.412109 L 265.729980 85.335938 Z " fill="black" fill-opacity="1.000000"/>
<path d="M 265.892578 85.335938 L 265.892578 84.412109 L 272.729980 84.412109 L 272.729980 85.335938 Z " fill="black" fill-opacity="1.000000"/>
<path d="M 272.892578 85.335938 L 272.892578 84.412109 L 279.729980 84.412109 L 279.729980 85.335938 Z " fill="black" fill-opacity="1.000000"/>
<path d="M 279.892578 85.335938 L 279.892578 84.412109 L 286.729980 84.412109 L 286.729980 85.335938 Z " fill="black" fill-opacity="1.000000"/>
<path d="M 286.892578 85.335938 L 286.892578 84.412109 L 293.729980 84.412109 L 293.729980 85.335938 Z " fill="black" fill-opacity="1.000000"/>
<path d="M 293.892578 85.335938 L 293.892578 84.412109 L 300.729980 84.412109 L 300.729980 85.335938 Z " fill="black" fill-opacity="1.000000"/>
<path d="M 300.892578 85.335938 L 300.892578 84.412109 L 307.729980 84.412109 L 307.729980 85.335938 Z " fill="black" fill-opacity="1.000000"/>
<path d="M 307.892578 85.335938 L 307.892578 84.412109 L 314.729980 84.412109 L 314.729980 85.335938 Z " fill="black" fill-opacity="1.000000"/>
<path d="M 314.892578 85.335938 L 314.892578 84.412109 L 321.729980 84.412109 L 321.729980 85.335938 Z " fill="black" fill-opacity="1.000000"/>
<path d="M 321.892578 85.335938 L 321.892578 84.412109 L 328.729980 84.412109 L 328.729980 85.335938 Z " fill="black" fill-opacity="1.000000"/>
<path d="M 328.892578 85.335938 L 328.892578 84.412109 L 335.729980 84.412109 L 335.729980 85.335938 Z " fill="black" fill-opacity="1.000000"/>
<path d="M 338.878906 91.319336 L 338.878906 85.335938 L 335.892578 85.335938 L 335.892578 84.412109 L 342.729980 84.412109 L 342.729980 85.335938 L 339.738281 85.335938 L 339.738281 91.319336 Z " fill="black" fill-opacity="1.000000"/>
<path d="M 342.892578 85.335938 L 342.892578 84.412109 L 349.729980 84.412109 L 349.729980 85.335938 Z " fill="black" fill-opacity="1.000000"/>
<path d="M 349.892578 85.335938 L 349.892578 84.412109 L 356.729980 84.412109 L 356.729980 85.335938 Z " fill="black" fill-opacity="1.000000"/>
<path d="M 356.892578 85.335938 L 356.892578 84.412109 L 363.729980 84.412109 L 363.729980 85.335938 Z " fill="black" fill-opacity="1.000000"/>
<path d="M 363.892578 85.335938 L 363.892578 84.412109 L 370.729980 84.412109 L 370.729980 85.335938 Z " fill="black" fill-opacity="1.000000"/>
<path d="M 370.892578 85.335938 L 370.892578 84.412109 L 377.729980 84.412109 L 377.729980 85.335938 Z " fill="black" fill-opacity="1.000000"/>
<path d="M 377.892578 85.335938 L 377.892578 84.412109 L 384.729980 84.412109 L 384.729980 85.335938 Z " fill="black" fill-opacity="1.000000"/>
<path d="M 384.892578 85.335938 L 384.892578 84.412109 L 391.729980 84.412109 L 391.729980 85.335938 Z " fill="black" fill-opacity="1.000000"/>
<path d="M 391.892578 85.335938 L 391.892578 84.412109 L 398.729980 84.412109 L 398.729980 85.335938 Z " fill="black" fill-opacity="1.000000"/>
<path d="M 398.892578 85.335938 L 398.892578 84.412109 L 405.729980 84.412109 L 405.729980 85.335938 Z " fill="black" fill-opacity="1.000000"/>
<path d="M 405.892578 85.335938 L 405.892578 84.412109 L 412.729980 84.412109 L 412.729980 85.335938 Z " fill="black" fill-opacity="1.000000"/>
<path d="M 415.878906 91.319336 L 415.878906 85.335938 L 412.892578 85.335938 L 412.892578 84.412109 L 416.738281 84.412109 L 416.738281 91.319336 Z " fill="black" fill-opacity="1.000000"/>
<path d="M 415.878906 78.319336 L 415.878906 72.335938 L 412.892578 72.335938 L 412.892578 71.412109 L 416.738281 71.412109 L 416.738281 78.319336 Z " fill="black" fill-opacity="1.000000"/>
<path d="M 156.878906 13.319336 L 156.878906 6.412109 L 160.729980 6.412109 L 160.729980 7.335938 L 157.738281 7.335938 L 157.738281 13.319336 Z " fill="black" fill-opacity="1.000000"/>
<path d="M 156.878906 26.319336 L 156.878906 12.300781 L 157.738281 12.300781 L 157.738281 26.319336 Z " fill="black" fill-opacity="1.000000"/>
<path d="M 156.878906 33.335938 L 156.878906 25.300781 L 157.738281 25.300781 L 157.738281 32.412109 L 160.729980 32.412109 L 160.729980 33.335938 Z " fill="black" fill-opacity="1.000000"/>
<path d="M 156.878906 46.335938 L 156.878906 38.300781 L 157.738281 38.300781 L 157.738281 45.412109 L 160.729980 45.412109 L 160.729980 46.335938 Z " fill="black" fill-opacity="1.000000"/>
<path d="M 199.308594 62.418945 L 196.032227 55.866211 L 202.590332 55.866211 Z " fill="black" fill-opacity="1.000000"/>
<path d="M 160.892578 33.335938 L 160.892578 32.412109 L 167.729980 32.412109 L 167.729980 33.335938 Z " fill="black" fill-opacity="1.000000"/>
<path d="M 167.892578 33.335938 L 167.892578 32.412109 L 174.729980 32.412109 L 174.729980 33.335938 Z " fill="black" fill-opacity="1.000000"/>
<path d="M 174.892578 33.335938 L 174.892578 32.412109 L 181.729980 32.412109 L 181.729980 33.335938 Z " fill="black" fill-opacity="1.000000"/>
<path d="M 181.892578 33.335938 L 181.892578 32.412109 L 188.729980 32.412109 L 188.729980 33.335938 Z " fill="black" fill-opacity="1.000000"/>
<path d="M 188.892578 33.335938 L 188.892578 32.412109 L 195.729980 32.412109 L 195.729980 33.335938 Z " fill="black" fill-opacity="1.000000"/>
<path d="M 195.892578 33.335938 L 195.892578 32.412109 L 202.729980 32.412109 L 202.729980 33.335938 Z " fill="black" fill-opacity="1.000000"/>
<path d="M 202.892578 33.335938 L 202.892578 32.412109 L 209.729980 32.412109 L 209.729980 33.335938 Z " fill="black" fill-opacity="1.000000"/>
<path d="M 209.892578 33.335938 L 209.892578 32.412109 L 216.729980 32.412109 L 216.729980 33.335938 Z " fill="black" fill-opacity="1.000000"/>
<path d="M 216.892578 33.335938 L 216.892578 32.412109 L 223.729980 32.412109 L 223.729980 33.335938 Z " fill="black" fill-opacity="1.000000"/>
<path d="M 223.892578 33.335938 L 223.892578 32.412109 L 230.729980 32.412109 L 230.729980 33.335938 Z " fill="black" fill-opacity="1.000000"/>
<path d="M 230.892578 33.335938 L 230.892578 32.412109 L 237.729980 32.412109 L 237.729980 33.335938 Z " fill="black" fill-opacity="1.000000"/>
<path d="M 160.892578 46.335938 L 160.892578 45.412109 L 167.729980 45.412109 L 167.729980 46.335938 Z " fill="black" fill-opacity="1.000000"/>
<path d="M 167.892578 46.335938 L 167.892578 45.412109 L 174.729980 45.412109 L 174.729980 46.335938 Z " fill="black" fill-opacity="1.000000"/>
<path d="M 174.892578 46.335938 L 174.892578 45.412109 L 181.729980 45.412109 L 181.729980 46.335938 Z " fill="black" fill-opacity="1.000000"/>
<path d="M 181.892578 46.335938 L 181.892578 45.412109 L 188.729980 45.412109 L 188.729980 46.335938 Z " fill="black" fill-opacity="1.000000"/>
<path d="M 188.892578 46.335938 L 188.892578 45.412109 L 195.729980 45.412109 L 195.729980 46.335938 Z " fill="black" fill-opacity="1.000000"/>
<path d="M 198.878906 52.319336 L 198.878906 46.335938 L 195.892578 46.335938 L 195.892578 45.412109 L 202.729980 45.412109 L 202.729980 46.335938 L 199.738281 46.335938 L 199.738281 52.319336 Z " fill="black" fill-opacity="1.000000"/>
<path d="M 202.892578 46.335938 L 202.892578 45.412109 L 209.729980 45.412109 L 209.729980 46.335938 Z " fill="black" fill-opacity="1.000000"/>
<path d="M 209.892578 46.335938 L 209.892578 45.412109 L 216.729980 45.412109 L 216.729980 46.335938 Z " fill="black" fill-opacity="1.000000"/>
<path d="M 216.892578 46.335938 L 216.892578 45.412109 L 223.729980 45.412109 L 223.729980 46.335938 Z " fill="black" fill-opacity="1.000000"/>
<path d="M 223.892578 46.335938 L 223.892578 45.412109 L 230.729980 45.412109 L 230.729980 46.335938 Z " fill="black" fill-opacity="1.000000"/>
<path d="M 230.892578 46.335938 L 230.892578 45.412109 L 237.729980 45.412109 L 237.729980 46.335938 Z " fill="black" fill-opacity="1.000000"/>
<path d="M 237.892578 46.335938 L 237.892578 45.412109 L 240.878906 45.412109 L 240.878906 38.300781 L 241.738281 38.300781 L 241.738281 46.335938 Z " fill="black" fill-opacity="1.000000"/>
<path d="M 237.892578 33.335938 L 237.892578 32.412109 L 240.878906 32.412109 L 240.878906 25.300781 L 241.738281 25.300781 L 241.738281 33.335938 Z " fill="black" fill-opacity="1.000000"/>
<path d="M 168.735840 14.980957 L 169.826172 14.980957 L 169.826172 18.053223 L 172.796387 18.053223 L 172.796387 14.980957 L 173.886719 14.980957 L 173.886719 23.000000 L 172.796387 23.000000 L 172.796387 18.966309 L 169.826172 18.966309 L 169.826172 23.000000 L 168.735840 23.000000 Z " fill="black" fill-opacity="1.000000"/>
<path d="M 178.308594 17.677246 Q 177.556641 17.677246 177.169922 18.262695 Q 176.783203 18.848145 176.783203 19.997559 Q 176.783203 21.141602 177.169922 21.729736 Q 177.556641 22.317871 178.308594 22.317871 Q 179.065918 22.317871 179.452637 21.729736 Q 179.839355 21.141602 179.839355 19.997559 Q 179.839355 18.848145 179.452637 18.262695 Q 179.065918 17.677246 178.308594 17.677246 Z M 178.308594 16.839355 Q 179.560059 16.839355 180.223389 17.650391 Q 180.886719 18.461426 180.886719 19.997559 Q 180.886719 21.539062 180.226074 22.347412 Q 179.565430 23.155762 178.308594 23.155762 Q 177.057129 23.155762 176.396484 22.347412 Q 175.735840 21.539062 175.735840 19.997559 Q 175.735840 18.461426 176.396484 17.650391 Q 177.057129 16.839355 178.308594 16.839355 Z " fill="black" fill-opacity="1.000000"/>
<path d="M 184.014160 22.242676 L 184.014160 25.288086 L 183.020508 25.288086 L 183.020508 16.984375 L 184.014160 16.984375 L 184.014160 17.752441 Q 184.261230 17.306641 184.672119 17.072998 Q 185.083008 16.839355 185.620117 16.839355 Q 186.710449 16.839355 187.330811 17.682617 Q 187.951172 18.525879 187.951172 20.019043 Q 187.951172 21.485352 187.328125 22.320557 Q 186.705078 23.155762 185.620117 23.155762 Q 185.072266 23.155762 184.661377 22.922119 Q 184.250488 22.688477 184.014160 22.242676 Z M 186.914551 19.997559 Q 186.914551 18.848145 186.552002 18.262695 Q 186.189453 17.677246 185.475098 17.677246 Q 184.755371 17.677246 184.384766 18.265381 Q 184.014160 18.853516 184.014160 19.997559 Q 184.014160 21.136230 184.384766 21.727051 Q 184.755371 22.317871 185.475098 22.317871 Q 186.189453 22.317871 186.552002 21.732422 Q 186.914551 21.146973 186.914551 19.997559 Z " fill="black" fill-opacity="1.000000"/>
<path d="M 197.058105 14.980957 L 201.816895 14.980957 L 201.816895 15.894043 L 198.143066 15.894043 L 198.143066 18.053223 L 201.655762 18.053223 L 201.655762 18.966309 L 198.143066 18.966309 L 198.143066 22.086914 L 201.918945 22.086914 L 201.918945 23.000000 L 197.058105 23.000000 Z " fill="black" fill-opacity="1.000000"/>
<path d="M 208.645020 19.272461 L 208.645020 23.000000 L 207.651367 23.000000 L 207.651367 19.272461 Q 207.651367 18.461426 207.366699 18.080078 Q 207.082031 17.698730 206.475098 17.698730 Q 205.782227 17.698730 205.408936 18.190186 Q 205.035645 18.681641 205.035645 19.600098 L 205.035645 23.000000 L 204.047363 23.000000 L 204.047363 16.984375 L 205.035645 16.984375 L 205.035645 17.886719 Q 205.298828 17.371094 205.750000 17.105225 Q 206.201172 16.839355 206.818848 16.839355 Q 207.737305 16.839355 208.191162 17.443604 Q 208.645020 18.047852 208.645020 19.272461 Z " fill="black" fill-opacity="1.000000"/>
<path d="M 213.297852 15.276367 L 213.297852 16.984375 L 215.542969 16.984375 L 215.542969 17.752441 L 213.297852 17.752441 L 213.297852 21.018066 Q 213.297852 21.684082 213.550293 21.947266 Q 213.802734 22.210449 214.431152 22.210449 L 215.542969 22.210449 L 215.542969 23.000000 L 214.334473 23.000000 Q 213.222656 23.000000 212.766113 22.554199 Q 212.309570 22.108398 212.309570 21.018066 L 212.309570 17.752441 L 210.703613 17.752441 L 210.703613 16.984375 L 212.309570 16.984375 L 212.309570 15.276367 Z " fill="black" fill-opacity="1.000000"/>
<path d="M 223.203613 18.225098 Q 222.886719 17.978027 222.559082 17.865234 Q 222.231445 17.752441 221.839355 17.752441 Q 220.915527 17.752441 220.426758 18.332520 Q 219.937988 18.912598 219.937988 20.008301 L 219.937988 23.000000 L 218.944336 23.000000 L 218.944336 16.984375 L 219.937988 16.984375 L 219.937988 18.160645 Q 220.185059 17.521484 220.697998 17.180420 Q 221.210938 16.839355 221.914551 16.839355 Q 222.279785 16.839355 222.596680 16.930664 Q 222.913574 17.021973 223.203613 17.215332 Z " fill="black" fill-opacity="1.000000"/>
<path d="M 228.608398 21.066406 Q 228.361328 21.694824 227.979980 22.720703 Q 227.448242 24.138672 227.265625 24.450195 Q 227.018555 24.869141 226.647949 25.078613 Q 226.277344 25.288086 225.783203 25.288086 L 224.988281 25.288086 L 224.988281 24.460938 L 225.573730 24.460938 Q 226.008789 24.460938 226.255859 24.208496 Q 226.502930 23.956055 226.884277 22.903320 L 224.558594 16.984375 L 225.605957 16.984375 L 227.389160 21.689453 L 229.145508 16.984375 L 230.192871 16.984375 Z " fill="black" fill-opacity="1.000000"/>
<path d="M 240.878906 26.319336 L 240.878906 12.300781 L 241.738281 12.300781 L 241.738281 26.319336 Z " fill="black" fill-opacity="1.000000"/>
<path d="M 160.892578 7.335938 L 160.892578 6.412109 L 167.729980 6.412109 L 167.729980 7.335938 Z " fill="black" fill-opacity="1.000000"/>
<path d="M 167.892578 7.335938 L 167.892578 6.412109 L 174.729980 6.412109 L 174.729980 7.335938 Z " fill="black" fill-opacity="1.000000"/>
<path d="M 174.892578 7.335938 L 174.892578 6.412109 L 181.729980 6.412109 L 181.729980 7.335938 Z " fill="black" fill-opacity="1.000000"/>
<path d="M 181.892578 7.335938 L 181.892578 6.412109 L 188.729980 6.412109 L 188.729980 7.335938 Z " fill="black" fill-opacity="1.000000"/>
<path d="M 188.892578 7.335938 L 188.892578 6.412109 L 195.729980 6.412109 L 195.729980 7.335938 Z " fill="black" fill-opacity="1.000000"/>
<path d="M 195.892578 7.335938 L 195.892578 6.412109 L 202.729980 6.412109 L 202.729980 7.335938 Z " fill="black" fill-opacity="1.000000"/>
<path d="M 202.892578 7.335938 L 202.892578 6.412109 L 209.729980 6.412109 L 209.729980 7.335938 Z " fill="black" fill-opacity="1.000000"/>
<path d="M 209.892578 7.335938 L 209.892578 6.412109 L 216.729980 6.412109 L 216.729980 7.335938 Z " fill="black" fill-opacity="1.000000"/>
<path d="M 216.892578 7.335938 L 216.892578 6.412109 L 223.729980 6.412109 L 223.729980 7.335938 Z " fill="black" fill-opacity="1.000000"/>
<path d="M 223.892578 7.335938 L 223.892578 6.412109 L 230.729980 6.412109 L 230.729980 7.335938 Z " fill="black" fill-opacity="1.000000"/>
<path d="M 230.892578 7.335938 L 230.892578 6.412109 L 237.729980 6.412109 L 237.729980 7.335938 Z " fill="black" fill-opacity="1.000000"/>
<path d="M 240.878906 13.319336 L 240.878906 7.335938 L 237.892578 7.335938 L 237.892578 6.412109 L 241.738281 6.412109 L 241.738281 13.319336 Z " fill="black" fill-opacity="1.000000"/>
</svg>
