<?xml version='1.0' encoding='utf-8'?>
<svg xmlns="http://www.w3.org/2000/svg" version="1.1" width="204" height="118" viewBox="0 0 204.0 118.0">
<path d="M 2.878906 78.319336 L 2.878906 71.412109 L 6.729980 71.412109 L 6.729980 72.335938 L 3.738281 72.335938 L 3.738281 78.319336 Z " fill="black" fill-opacity="1.000000"/>
<path d="M 2.878906 91.319336 L 2.878906 84.412109 L 6.729980 84.412109 L 6.729980 85.335938 L 3.738281 85.335938 L 3.738281 91.319336 Z " fill="black" fill-opacity="1.000000"/>
<path d="M 2.878906 104.319336 L 2.878906 90.300781 L 3.738281 90.300781 L 3.738281 104.319336 Z " fill="black" fill-opacity="1.000000"/>
<path d="M 2.878906 111.335938 L 2.878906 103.300781 L 3.738281 103.300781 L 3.738281 110.412109 L 6.729980 110.412109 L 6.729980 111.335938 Z " fill="black" fill-opacity="1.000000"/>
<path d="M 6.892578 111.335938 L 6.892578 110.412109 L 13.729980 110.412109 L 13.729980 111.335938 Z " fill="black" fill-opacity="1.000000"/>
<path d="M 13.892578 111.335938 L 13.892578 110.412109 L 20.729980 110.412109 L 20.729980 111.335938 Z " fill="black" fill-opacity="1.000000"/>
<path d="M 20.892578 111.335938 L 20.892578 110.412109 L 27.729980 110.412109 L 27.729980 111.335938 Z " fill="black" fill-opacity="1.000000"/>
<path d="M 27.892578 111.335938 L 27.892578 110.412109 L 34.729980 110.412109 L 34.729980 111.335938 Z " fill="black" fill-opacity="1.000000"/>
<path d="M 34.892578 111.335938 L 34.892578 110.412109 L 41.729980 110.412109 L 41.729980 111.335938 Z " fill="black" fill-opacity="1.000000"/>
<path d="M 41.892578 111.335938 L 41.892578 110.412109 L 48.729980 110.412109 L 48.729980 111.335938 Z " fill="black" fill-opacity="1.000000"/>
<path d="M 48.892578 111.335938 L 48.892578 110.412109 L 55.729980 110.412109 L 55.729980 111.335938 Z " fill="black" fill-opacity="1.000000"/>
<path d="M 55.892578 111.335938 L 55.892578 110.412109 L 62.729980 110.412109 L 62.729980 111.335938 Z " fill="black" fill-opacity="1.000000"/>
<path d="M 62.892578 111.335938 L 62.892578 110.412109 L 69.729980 110.412109 L 69.729980 111.335938 Z " fill="black" fill-opacity="1.000000"/>
<path d="M 69.892578 111.335938 L 69.892578 110.412109 L 76.729980 110.412109 L 76.729980 111.335938 Z " fill="black" fill-opacity="1.000000"/>
<path d="M 76.892578 111.335938 L 76.892578 110.412109 L 83.729980 110.412109 L 83.729980 111.335938 Z " fill="black" fill-opacity="1.000000"/>
<path d="M 83.892578 111.335938 L 83.892578 110.412109 L 90.729980 110.412109 L 90.729980 111.335938 Z " fill="black" fill-opacity="1.000000"/>
<path d="M 90.892578 111.335938 L 90.892578 110.412109 L 97.729980 110.412109 L 97.729980 111.335938 Z " fill="black" fill-opacity="1.000000"/>
<path d="M 97.892578 111.335938 L 97.892578 110.412109 L 100.878906 110.412109 L 100.878906 103.300781 L 101.738281 103.300781 L 101.738281 110.412109 L 104.729980 110.412109 L 104.729980 111.335938 Z " fill="black" fill-opacity="1.000000"/>
<path d="M 104.892578 111.335938 L 104.892578 110.412109 L 111.729980 110.412109 L 111.729980 111.335938 Z " fill="black" fill-opacity="1.000000"/>
<path d="M 111.892578 111.335938 L 111.892578 110.412109 L 118.729980 110.412109 L 118.729980 111.335938 Z " fill="black" fill-opacity="1.000000"/>
<path d="M 118.892578 111.335938 L 118.892578 110.412109 L 125.729980 110.412109 L 125.729980 111.335938 Z " fill="black" fill-opacity="1.000000"/>
<path d="M 125.892578 111.335938 L 125.892578 110.412109 L 132.729980 110.412109 L 132.729980 111.335938 Z " fill="black" fill-opacity="1.000000"/>
<path d="M 132.892578 111.335938 L 132.892578 110.412109 L 139.729980 110.412109 L 139.729980 111.335938 Z " fill="black" fill-opacity="1.000000"/>
<path d="M 139.892578 111.335938 L 139.892578 110.412109 L 146.729980 110.412109 L 146.729980 111.335938 Z " fill="black" fill-opacity="1.000000"/>
<path d="M 146.892578 111.335938 L 146.892578 110.412109 L 153.729980 110.412109 L 153.729980 111.335938 Z " fill="black" fill-opacity="1.000000"/>
<path d="M 153.892578 111.335938 L 153.892578 110.412109 L 160.729980 110.412109 L 160.729980 111.335938 Z " fill="black" fill-opacity="1.000000"/>
<path d="M 160.892578 111.335938 L 160.892578 110.412109 L 167.729980 110.412109 L 167.729980 111.335938 Z " fill="black" fill-opacity="1.000000"/>
<path d="M 167.892578 111.335938 L 167.892578 110.412109 L 174.729980 110.412109 L 174.729980 111.335938 Z " fill="black" fill-opacity="1.000000"/>
<path d="M 174.892578 111.335938 L 174.892578 110.412109 L 181.729980 110.412109 L 181.729980 111.335938 Z " fill="black" fill-opacity="1.000000"/>
<path d="M 181.892578 111.335938 L 181.892578 110.412109 L 188.729980 110.412109 L 188.729980 111.335938 Z " fill="black" fill-opacity="1.000000"/>
<path d="M 188.892578 111.335938 L 188.892578 110.412109 L 195.729980 110.412109 L 195.729980 111.335938 Z " fill="black" fill-opacity="1.000000"/>
<path d="M 195.892578 111.335938 L 195.892578 110.412109 L 198.878906 110.412109 L 198.878906 103.300781 L 199.738281 103.300781 L 199.738281 111.335938 Z " fill="black" fill-opacity="1.000000"/>
<path d="M 15.079590 92.980957 L 19.532227 92.980957 L 19.532227 93.894043 L 17.851074 93.894043 L 17.851074 100.086914 L 19.532227 100.086914 L 19.532227 101.000000 L 15.079590 101.000000 L 15.079590 100.086914 L 16.760742 100.086914 L 16.760742 93.894043 L 15.079590 93.894043 Z " fill="black" fill-opacity="1.000000"/>
<path d="M 26.645020 97.272461 L 26.645020 101.000000 L 25.651367 101.000000 L 25.651367 97.272461 Q 25.651367 96.461426 25.366699 96.080078 Q 25.082031 95.698730 24.475098 95.698730 Q 23.782227 95.698730 23.408936 96.190186 Q 23.035645 96.681641 23.035645 97.600098 L 23.035645 101.000000 L 22.047363 101.000000 L 22.047363 94.984375 L 23.035645 94.984375 L 23.035645 95.886719 Q 23.298828 95.371094 23.750000 95.105225 Q 24.201172 94.839355 24.818848 94.839355 Q 25.737305 94.839355 26.191162 95.443604 Q 26.645020 96.047852 26.645020 97.272461 Z " fill="black" fill-opacity="1.000000"/>
<path d="M 32.608398 97.943848 Q 32.608398 96.832031 32.245850 96.254639 Q 31.883301 95.677246 31.190430 95.677246 Q 30.465332 95.677246 30.083984 96.254639 Q 29.702637 96.832031 29.702637 97.943848 Q 29.702637 99.055664 30.086670 99.638428 Q 30.470703 100.221191 31.201172 100.221191 Q 31.883301 100.221191 32.245850 99.635742 Q 32.608398 99.050293 32.608398 97.943848 Z M 33.596680 100.613281 Q 33.596680 101.966797 32.957520 102.665039 Q 32.318359 103.363281 31.077637 103.363281 Q 30.669434 103.363281 30.223633 103.288086 Q 29.777832 103.212891 29.332031 103.067871 L 29.332031 102.090332 Q 29.858398 102.337402 30.288086 102.455566 Q 30.717773 102.573730 31.077637 102.573730 Q 31.877930 102.573730 32.243164 102.138672 Q 32.608398 101.703613 32.608398 100.758301 L 32.608398 100.715332 L 32.608398 100.043945 Q 32.372070 100.548828 31.963867 100.795898 Q 31.555664 101.042969 30.970215 101.042969 Q 29.917480 101.042969 29.289062 100.199707 Q 28.660645 99.356445 28.660645 97.943848 Q 28.660645 96.525879 29.289062 95.682617 Q 29.917480 94.839355 30.970215 94.839355 Q 31.550293 94.839355 31.953125 95.070312 Q 32.355957 95.301270 32.608398 95.784668 L 32.608398 95.005859 L 33.596680 95.005859 Z " fill="black" fill-opacity="1.000000"/>
<path d="M 41.203613 96.225098 Q 40.886719 95.978027 40.559082 95.865234 Q 40.231445 95.752441 39.839355 95.752441 Q 38.915527 95.752441 38.426758 96.332520 Q 37.937988 96.912598 37.937988 98.008301 L 37.937988 101.000000 L 36.944336 101.000000 L 36.944336 94.984375 L 37.937988 94.984375 L 37.937988 96.160645 Q 38.185059 95.521484 38.697998 95.180420 Q 39.210938 94.839355 39.914551 94.839355 Q 40.279785 94.839355 40.596680 94.930664 Q 40.913574 95.021973 41.203613 95.215332 Z " fill="black" fill-opacity="1.000000"/>
<path d="M 48.015625 97.498047 L 48.015625 97.981445 L 43.734863 97.981445 L 43.734863 98.013672 Q 43.691895 99.243652 44.204834 99.780762 Q 44.717773 100.317871 45.652344 100.317871 Q 46.125000 100.317871 46.640625 100.167480 Q 47.156250 100.017090 47.741699 99.710938 L 47.741699 100.693848 Q 47.177734 100.924805 46.654053 101.040283 Q 46.130371 101.155762 45.641602 101.155762 Q 44.239746 101.155762 43.450195 100.315186 Q 42.660645 99.474609 42.660645 97.997559 Q 42.660645 96.558105 43.434082 95.698730 Q 44.207520 94.839355 45.496582 94.839355 Q 46.645996 94.839355 47.309326 95.618164 Q 47.972656 96.396973 48.015625 97.498047 Z M 47.027344 97.208008 Q 46.962891 96.584961 46.573486 96.131104 Q 46.184082 95.677246 45.453613 95.677246 Q 44.739258 95.677246 44.277344 96.149902 Q 43.815430 96.622559 43.772461 97.213379 Z " fill="black" fill-opacity="1.000000"/>
<path d="M 54.226074 95.193848 L 54.226074 96.160645 Q 53.801758 95.913574 53.372070 95.790039 Q 52.942383 95.666504 52.496582 95.666504 Q 51.825195 95.666504 51.494873 95.884033 Q 51.164551 96.101562 51.164551 96.547363 Q 51.164551 96.950195 51.411621 97.148926 Q 51.658691 97.347656 52.641602 97.535645 L 53.039062 97.610840 Q 53.774902 97.750488 54.153564 98.169434 Q 54.532227 98.588379 54.532227 99.259766 Q 54.532227 100.151367 53.898438 100.653564 Q 53.264648 101.155762 52.136719 101.155762 Q 51.690918 101.155762 51.202148 101.061768 Q 50.713379 100.967773 50.144043 100.779785 L 50.144043 99.759277 Q 50.697266 100.043945 51.202148 100.186279 Q 51.707031 100.328613 52.158203 100.328613 Q 52.813477 100.328613 53.173340 100.062744 Q 53.533203 99.796875 53.533203 99.318848 Q 53.533203 98.631348 52.217285 98.368164 L 52.174316 98.357422 L 51.803711 98.282227 Q 50.949707 98.115723 50.557617 97.720947 Q 50.165527 97.326172 50.165527 96.644043 Q 50.165527 95.779297 50.750977 95.309326 Q 51.336426 94.839355 52.421387 94.839355 Q 52.904785 94.839355 53.350586 94.927979 Q 53.796387 95.016602 54.226074 95.193848 Z " fill="black" fill-opacity="1.000000"/>
<path d="M 61.226074 95.193848 L 61.226074 96.160645 Q 60.801758 95.913574 60.372070 95.790039 Q 59.942383 95.666504 59.496582 95.666504 Q 58.825195 95.666504 58.494873 95.884033 Q 58.164551 96.101562 58.164551 96.547363 Q 58.164551 96.950195 58.411621 97.148926 Q 58.658691 97.347656 59.641602 97.535645 L 60.039062 97.610840 Q 60.774902 97.750488 61.153564 98.169434 Q 61.532227 98.588379 61.532227 99.259766 Q 61.532227 100.151367 60.898438 100.653564 Q 60.264648 101.155762 59.136719 101.155762 Q 58.690918 101.155762 58.202148 101.061768 Q 57.713379 100.967773 57.144043 100.779785 L 57.144043 99.759277 Q 57.697266 100.043945 58.202148 100.186279 Q 58.707031 100.328613 59.158203 100.328613 Q 59.813477 100.328613 60.173340 100.062744 Q 60.533203 99.796875 60.533203 99.318848 Q 60.533203 98.631348 59.217285 98.368164 L 59.174316 98.357422 L 58.803711 98.282227 Q 57.949707 98.115723 57.557617 97.720947 Q 57.165527 97.326172 57.165527 96.644043 Q 57.165527 95.779297 57.750977 95.309326 Q 58.336426 94.839355 59.421387 94.839355 Q 59.904785 94.839355 60.350586 94.927979 Q 60.796387 95.016602 61.226074 95.193848 Z " fill="black" fill-opacity="1.000000"/>
<path d="M 70.193359 93.007812 L 71.643555 93.007812 L 73.029297 97.079102 L 74.425781 93.007812 L 75.881348 93.007812 L 75.881348 101.000000 L 74.876953 101.000000 L 74.876953 93.937012 L 73.448242 98.147949 L 72.626465 98.147949 L 71.192383 93.937012 L 71.192383 101.000000 L 70.193359 101.000000 Z " fill="black" fill-opacity="1.000000"/>
<path d="M 77.252441 92.980957 L 83.370117 92.980957 L 83.370117 93.894043 L 80.861816 93.894043 L 80.861816 101.000000 L 79.771484 101.000000 L 79.771484 93.894043 L 77.252441 93.894043 Z " fill="black" fill-opacity="1.000000"/>
<path d="M 84.789551 97.922363 L 84.789551 92.980957 L 85.879883 92.980957 L 85.879883 98.416504 Q 85.879883 99.001953 85.912109 99.251709 Q 85.944336 99.501465 86.024902 99.635742 Q 86.196777 99.952637 86.521729 100.113770 Q 86.846680 100.274902 87.308594 100.274902 Q 87.775879 100.274902 88.098145 100.113770 Q 88.420410 99.952637 88.597656 99.635742 Q 88.678223 99.501465 88.710449 99.254395 Q 88.742676 99.007324 88.742676 98.427246 L 88.742676 92.980957 L 89.827637 92.980957 L 89.827637 97.922363 Q 89.827637 99.152344 89.674561 99.670654 Q 89.521484 100.188965 89.145508 100.527344 Q 88.791016 100.844238 88.334473 101.000000 Q 87.877930 101.155762 87.308594 101.155762 Q 86.744629 101.155762 86.288086 101.000000 Q 85.831543 100.844238 85.471680 100.527344 Q 85.101074 100.194336 84.945312 99.665283 Q 84.789551 99.136230 84.789551 97.922363 Z " fill="black" fill-opacity="1.000000"/>
<path d="M 100.878906 104.319336 L 100.878906 90.300781 L 101.738281 90.300781 L 101.738281 104.319336 Z " fill="black" fill-opacity="1.000000"/>
<path d="M 119.735840 92.980957 L 120.826172 92.980957 L 120.826172 96.053223 L 123.796387 96.053223 L 123.796387 92.980957 L 124.886719 92.980957 L 124.886719 101.000000 L 123.796387 101.000000 L 123.796387 96.966309 L 120.826172 96.966309 L 120.826172 101.000000 L 119.735840 101.000000 Z " fill="black" fill-opacity="1.000000"/>
<path d="M 129.308594 95.677246 Q 128.556641 95.677246 128.169922 96.262695 Q 127.783203 96.848145 127.783203 97.997559 Q 127.783203 99.141602 128.169922 99.729736 Q 128.556641 100.317871 129.308594 100.317871 Q 130.065918 100.317871 130.452637 99.729736 Q 130.839355 99.141602 130.839355 97.997559 Q 130.839355 96.848145 130.452637 96.262695 Q 130.065918 95.677246 129.308594 95.677246 Z M 129.308594 94.839355 Q 130.560059 94.839355 131.223389 95.650391 Q 131.886719 96.461426 131.886719 97.997559 Q 131.886719 99.539062 131.226074 100.347412 Q 130.565430 101.155762 129.308594 101.155762 Q 128.057129 101.155762 127.396484 100.347412 Q 126.735840 99.539062 126.735840 97.997559 Q 126.735840 96.461426 127.396484 95.650391 Q 128.057129 94.839355 129.308594 94.839355 Z " fill="black" fill-opacity="1.000000"/>
<path d="M 135.014160 100.242676 L 135.014160 103.288086 L 134.020508 103.288086 L 134.020508 94.984375 L 135.014160 94.984375 L 135.014160 95.752441 Q 135.261230 95.306641 135.672119 95.072998 Q 136.083008 94.839355 136.620117 94.839355 Q 137.710449 94.839355 138.330811 95.682617 Q 138.951172 96.525879 138.951172 98.019043 Q 138.951172 99.485352 138.328125 100.320557 Q 137.705078 101.155762 136.620117 101.155762 Q 136.072266 101.155762 135.661377 100.922119 Q 135.250488 100.688477 135.014160 100.242676 Z M 137.914551 97.997559 Q 137.914551 96.848145 137.552002 96.262695 Q 137.189453 95.677246 136.475098 95.677246 Q 135.755371 95.677246 135.384766 96.265381 Q 135.014160 96.853516 135.014160 97.997559 Q 135.014160 99.136230 135.384766 99.727051 Q 135.755371 100.317871 136.475098 100.317871 Q 137.189453 100.317871 137.552002 99.732422 Q 137.914551 99.146973 137.914551 97.997559 Z " fill="black" fill-opacity="1.000000"/>
<path d="M 148.251465 92.980957 L 152.972656 92.980957 L 152.972656 93.894043 L 149.341797 93.894043 L 149.341797 96.042480 L 152.634277 96.042480 L 152.634277 96.955566 L 149.341797 96.955566 L 149.341797 101.000000 L 148.251465 101.000000 Z " fill="black" fill-opacity="1.000000"/>
<path d="M 155.697266 95.005859 L 158.227051 95.005859 L 158.227051 100.231934 L 160.187500 100.231934 L 160.187500 101.000000 L 155.278320 101.000000 L 155.278320 100.231934 L 157.238770 100.231934 L 157.238770 95.773926 L 155.697266 95.773926 Z M 157.238770 92.669434 L 158.227051 92.669434 L 158.227051 93.915527 L 157.238770 93.915527 Z " fill="black" fill-opacity="1.000000"/>
<path d="M 167.015625 97.498047 L 167.015625 97.981445 L 162.734863 97.981445 L 162.734863 98.013672 Q 162.691895 99.243652 163.204834 99.780762 Q 163.717773 100.317871 164.652344 100.317871 Q 165.125000 100.317871 165.640625 100.167480 Q 166.156250 100.017090 166.741699 99.710938 L 166.741699 100.693848 Q 166.177734 100.924805 165.654053 101.040283 Q 165.130371 101.155762 164.641602 101.155762 Q 163.239746 101.155762 162.450195 100.315186 Q 161.660645 99.474609 161.660645 97.997559 Q 161.660645 96.558105 162.434082 95.698730 Q 163.207520 94.839355 164.496582 94.839355 Q 165.645996 94.839355 166.309326 95.618164 Q 166.972656 96.396973 167.015625 97.498047 Z M 166.027344 97.208008 Q 165.962891 96.584961 165.573486 96.131104 Q 165.184082 95.677246 164.453613 95.677246 Q 163.739258 95.677246 163.277344 96.149902 Q 162.815430 96.622559 162.772461 97.213379 Z " fill="black" fill-opacity="1.000000"/>
<path d="M 171.861816 98.824707 Q 171.861816 99.490723 172.106201 99.829102 Q 172.350586 100.167480 172.828613 100.167480 L 173.983398 100.167480 L 173.983398 101.000000 L 172.731934 101.000000 Q 171.845703 101.000000 171.359619 100.433350 Q 170.873535 99.866699 170.873535 98.824707 L 170.873535 93.383789 L 169.289062 93.383789 L 169.289062 92.610352 L 171.861816 92.610352 Z " fill="black" fill-opacity="1.000000"/>
<path d="M 179.608398 95.752441 L 179.608398 92.642578 L 180.596680 92.642578 L 180.596680 101.000000 L 179.608398 101.000000 L 179.608398 100.242676 Q 179.361328 100.688477 178.950439 100.922119 Q 178.539551 101.155762 178.002441 101.155762 Q 176.912109 101.155762 176.286377 100.309814 Q 175.660645 99.463867 175.660645 97.976074 Q 175.660645 96.509766 176.289062 95.674561 Q 176.917480 94.839355 178.002441 94.839355 Q 178.544922 94.839355 178.958496 95.072998 Q 179.372070 95.306641 179.608398 95.752441 Z M 176.702637 97.997559 Q 176.702637 99.146973 177.067871 99.732422 Q 177.433105 100.317871 178.147461 100.317871 Q 178.861816 100.317871 179.235107 99.727051 Q 179.608398 99.136230 179.608398 97.997559 Q 179.608398 96.853516 179.235107 96.265381 Q 178.861816 95.677246 178.147461 95.677246 Q 177.433105 95.677246 177.067871 96.262695 Q 176.702637 96.848145 176.702637 97.997559 Z " fill="black" fill-opacity="1.000000"/>
<path d="M 198.878906 104.319336 L 198.878906 90.300781 L 199.738281 90.300781 L 199.738281 104.319336 Z " fill="black" fill-opacity="1.000000"/>
<path d="M 6.892578 72.335938 L 6.892578 71.412109 L 13.729980 71.412109 L 13.729980 72.335938 Z " fill="black" fill-opacity="1.000000"/>
<path d="M 13.892578 72.335938 L 13.892578 71.412109 L 20.729980 71.412109 L 20.729980 72.335938 Z " fill="black" fill-opacity="1.000000"/>
<path d="M 20.892578 72.335938 L 20.892578 71.412109 L 27.729980 71.412109 L 27.729980 72.335938 Z " fill="black" fill-opacity="1.000000"/>
<path d="M 27.892578 72.335938 L 27.892578 71.412109 L 34.729980 71.412109 L 34.729980 72.335938 Z " fill="black" fill-opacity="1.000000"/>
<path d="M 34.892578 72.335938 L 34.892578 71.412109 L 41.729980 71.412109 L 41.729980 72.335938 Z " fill="black" fill-opacity="1.000000"/>
<path d="M 41.892578 72.335938 L 41.892578 71.412109 L 48.729980 71.412109 L 48.729980 72.335938 Z " fill="black" fill-opacity="1.000000"/>
<path d="M 48.892578 72.335938 L 48.892578 71.412109 L 55.729980 71.412109 L 55.729980 72.335938 Z " fill="black" fill-opacity="1.000000"/>
<path d="M 55.892578 72.335938 L 55.892578 71.412109 L 62.729980 71.412109 L 62.729980 72.335938 Z " fill="black" fill-opacity="1.000000"/>
<path d="M 62.892578 72.335938 L 62.892578 71.412109 L 69.729980 71.412109 L 69.729980 72.335938 Z " fill="black" fill-opacity="1.000000"/>
<path d="M 69.892578 72.335938 L 69.892578 71.412109 L 76.729980 71.412109 L 76.729980 72.335938 Z " fill="black" fill-opacity="1.000000"/>
<path d="M 76.892578 72.335938 L 76.892578 71.412109 L 83.729980 71.412109 L 83.729980 72.335938 Z " fill="black" fill-opacity="1.000000"/>
<path d="M 83.892578 72.335938 L 83.892578 71.412109 L 90.729980 71.412109 L 90.729980 72.335938 Z " fill="black" fill-opacity="1.000000"/>
<path d="M 90.892578 72.335938 L 90.892578 71.412109 L 97.729980 71.412109 L 97.729980 72.335938 Z " fill="black" fill-opacity="1.000000"/>
<path d="M 97.892578 72.335938 L 97.892578 71.412109 L 104.729980 71.412109 L 104.729980 72.335938 Z " fill="black" fill-opacity="1.000000"/>
<path d="M 104.892578 72.335938 L 104.892578 71.412109 L 111.729980 71.412109 L 111.729980 72.335938 Z " fill="black" fill-opacity="1.000000"/>
<path d="M 111.892578 72.335938 L 111.892578 71.412109 L 118.729980 71.412109 L 118.729980 72.335938 Z " fill="black" fill-opacity="1.000000"/>
<path d="M 118.892578 72.335938 L 118.892578 71.412109 L 125.729980 71.412109 L 125.729980 72.335938 Z " fill="black" fill-opacity="1.000000"/>
<path d="M 125.892578 72.335938 L 125.892578 71.412109 L 132.729980 71.412109 L 132.729980 72.335938 Z " fill="black" fill-opacity="1.000000"/>
<path d="M 132.892578 72.335938 L 132.892578 71.412109 L 139.729980 71.412109 L 139.729980 72.335938 Z " fill="black" fill-opacity="1.000000"/>
<path d="M 139.892578 72.335938 L 139.892578 71.412109 L 146.729980 71.412109 L 146.729980 72.335938 Z " fill="black" fill-opacity="1.000000"/>
<path d="M 146.892578 72.335938 L 146.892578 71.412109 L 153.729980 71.412109 L 153.729980 72.335938 Z " fill="black" fill-opacity="1.000000"/>
<path d="M 153.892578 72.335938 L 153.892578 71.412109 L 160.729980 71.412109 L 160.729980 72.335938 Z " fill="black" fill-opacity="1.000000"/>
<path d="M 160.892578 72.335938 L 160.892578 71.412109 L 167.729980 71.412109 L 167.729980 72.335938 Z " fill="black" fill-opacity="1.000000"/>
<path d="M 167.892578 72.335938 L 167.892578 71.412109 L 174.729980 71.412109 L 174.729980 72.335938 Z " fill="black" fill-opacity="1.000000"/>
<path d="M 174.892578 72.335938 L 174.892578 71.412109 L 181.729980 71.412109 L 181.729980 72.335938 Z " fill="black" fill-opacity="1.000000"/>
<path d="M 181.892578 72.335938 L 181.892578 71.412109 L 188.729980 71.412109 L 188.729980 72.335938 Z " fill="black" fill-opacity="1.000000"/>
<path d="M 188.892578 72.335938 L 188.892578 71.412109 L 195.729980 71.412109 L 195.729980 72.335938 Z " fill="black" fill-opacity="1.000000"/>
<path d="M 6.892578 85.335938 L 6.892578 84.412109 L 13.729980 84.412109 L 13.729980 85.335938 Z " fill="black" fill-opacity="1.000000"/>
<path d="M 13.892578 85.335938 L 13.892578 84.412109 L 20.729980 84.412109 L 20.729980 85.335938 Z " fill="black" fill-opacity="1.000000"/>
<path d="M 20.892578 85.335938 L 20.892578 84.412109 L 27.729980 84.412109 L 27.729980 85.335938 Z " fill="black" fill-opacity="1.000000"/>
<path d="M 27.892578 85.335938 L 27.892578 84.412109 L 34.729980 84.412109 L 34.729980 85.335938 Z " fill="black" fill-opacity="1.000000"/>
<path d="M 34.892578 85.335938 L 34.892578 84.412109 L 41.729980 84.412109 L 41.729980 85.335938 Z " fill="black" fill-opacity="1.000000"/>
<path d="M 41.892578 85.335938 L 41.892578 84.412109 L 48.729980 84.412109 L 48.729980 85.335938 Z " fill="black" fill-opacity="1.000000"/>
<path d="M 48.892578 85.335938 L 48.892578 84.412109 L 55.729980 84.412109 L 55.729980 85.335938 Z " fill="black" fill-opacity="1.000000"/>
<path d="M 55.892578 85.335938 L 55.892578 84.412109 L 62.729980 84.412109 L 62.729980 85.335938 Z " fill="black" fill-opacity="1.000000"/>
<path d="M 62.892578 85.335938 L 62.892578 84.412109 L 69.729980 84.412109 L 69.729980 85.335938 Z " fill="black" fill-opacity="1.000000"/>
<path d="M 69.892578 85.335938 L 69.892578 84.412109 L 76.729980 84.412109 L 76.729980 85.335938 Z " fill="black" fill-opacity="1.000000"/>
<path d="M 76.892578 85.335938 L 76.892578 84.412109 L 83.729980 84.412109 L 83.729980 85.335938 Z " fill="black" fill-opacity="1.000000"/>
<path d="M 83.892578 85.335938 L 83.892578 84.412109 L 90.729980 84.412109 L 90.729980 85.335938 Z " fill="black" fill-opacity="1.000000"/>
<path d="M 90.892578 85.335938 L 90.892578 84.412109 L 97.729980 84.412109 L 97.729980 85.335938 Z " fill="black" fill-opacity="1.000000"/>
<path d="M 100.878906 91.319336 L 100.878906 85.335938 L 97.892578 85.335938 L 97.892578 84.412109 L 104.729980 84.412109 L 104.729980 85.335938 L 101.738281 85.335938 L 101.738281 91.319336 Z " fill="black" fill-opacity="1.000000"/>
<path d="M 104.892578 85.335938 L 104.892578 84.412109 L 111.729980 84.412109 L 111.729980 85.335938 Z " fill="black" fill-opacity="1.000000"/>
<path d="M 111.892578 85.335938 L 111.892578 84.412109 L 118.729980 84.412109 L 118.729980 85.335938 Z " fill="black" fill-opacity="1.000000"/>
<path d="M 118.892578 85.335938 L 118.892578 84.412109 L 125.729980 84.412109 L 125.729980 85.335938 Z " fill="black" fill-opacity="1.000000"/>
<path d="M 125.892578 85.335938 L 125.892578 84.412109 L 132.729980 84.412109 L 132.729980 85.335938 Z " fill="black" fill-opacity="1.000000"/>
<path d="M 132.892578 85.335938 L 132.892578 84.412109 L 139.729980 84.412109 L 139.729980 85.335938 Z " fill="black" fill-opacity="1.000000"/>
<path d="M 139.892578 85.335938 L 139.892578 84.412109 L 146.729980 84.412109 L 146.729980 85.335938 Z " fill="black" fill-opacity="1.000000"/>
<path d="M 146.892578 85.335938 L 146.892578 84.412109 L 153.729980 84.412109 L 153.729980 85.335938 Z " fill="black" fill-opacity="1.000000"/>
<path d="M 153.892578 85.335938 L 153.892578 84.412109 L 160.729980 84.412109 L 160.729980 85.335938 Z " fill="black" fill-opacity="1.000000"/>
<path d="M 160.892578 85.335938 L 160.892578 84.412109 L 167.729980 84.412109 L 167.729980 85.335938 Z " fill="black" fill-opacity="1.000000"/>
<path d="M 167.892578 85.335938 L 167.892578 84.412109 L 174.729980 84.412109 L 174.729980 85.335938 Z " fill="black" fill-opacity="1.000000"/>
<path d="M 174.892578 85.335938 L 174.892578 84.412109 L 181.729980 84.412109 L 181.729980 85.335938 Z " fill="black" fill-opacity="1.000000"/>
<path d="M 181.892578 85.335938 L 181.892578 84.412109 L 188.729980 84.412109 L 188.729980 85.335938 Z " fill="black" fill-opacity="1.000000"/>
<path d="M 188.892578 85.335938 L 188.892578 84.412109 L 195.729980 84.412109 L 195.729980 85.335938 Z " fill="black" fill-opacity="1.000000"/>
<path d="M 198.878906 91.319336 L 198.878906 85.335938 L 195.892578 85.335938 L 195.892578 84.412109 L 199.738281 84.412109 L 199.738281 91.319336 Z " fill="black" fill-opacity="1.000000"/>
<path d="M 198.878906 78.319336 L 198.878906 72.335938 L 195.892578 72.335938 L 195.892578 71.412109 L 199.738281 71.412109 L 199.738281 78.319336 Z " fill="black" fill-opacity="1.000000"/>
<path d="M 58.878906 13.319336 L 58.878906 6.412109 L 62.729980 6.412109 L 62.729980 7.335938 L 59.738281 7.335938 L 59.738281 13.319336 Z " fill="black" fill-opacity="1.000000"/>
<path d="M 58.878906 26.319336 L 58.878906 12.300781 L 59.738281 12.300781 L 59.738281 26.319336 Z " fill="black" fill-opacity="1.000000"/>
<path d="M 58.878906 33.335938 L 58.878906 25.300781 L 59.738281 25.300781 L 59.738281 32.412109 L 62.729980 32.412109 L 62.729980 33.335938 Z " fill="black" fill-opacity="1.000000"/>
<path d="M 58.878906 46.335938 L 58.878906 38.300781 L 59.738281 38.300781 L 59.738281 45.412109 L 62.729980 45.412109 L 62.729980 46.335938 Z " fill="black" fill-opacity="1.000000"/>
<path d="M 101.308594 62.418945 L 98.032227 55.866211 L 104.590332 55.866211 Z " fill="black" fill-opacity="1.000000"/>
<path d="M 62.892578 33.335938 L 62.892578 32.412109 L 69.729980 32.412109 L 69.729980 33.335938 Z " fill="black" fill-opacity="1.000000"/>
<path d="M 69.892578 33.335938 L 69.892578 32.412109 L 76.729980 32.412109 L 76.729980 33.335938 Z " fill="black" fill-opacity="1.000000"/>
<path d="M 76.892578 33.335938 L 76.892578 32.412109 L 83.729980 32.412109 L 83.729980 33.335938 Z " fill="black" fill-opacity="1.000000"/>
<path d="M 83.892578 33.335938 L 83.892578 32.412109 L 90.729980 32.412109 L 90.729980 33.335938 Z " fill="black" fill-opacity="1.000000"/>
<path d="M 90.892578 33.335938 L 90.892578 32.412109 L 97.729980 32.412109 L 97.729980 33.335938 Z " fill="black" fill-opacity="1.000000"/>
<path d="M 97.892578 33.335938 L 97.892578 32.412109 L 104.729980 32.412109 L 104.729980 33.335938 Z " fill="black" fill-opacity="1.000000"/>
<path d="M 104.892578 33.335938 L 104.892578 32.412109 L 111.729980 32.412109 L 111.729980 33.335938 Z " fill="black" fill-opacity="1.000000"/>
<path d="M 111.892578 33.335938 L 111.892578 32.412109 L 118.729980 32.412109 L 118.729980 33.335938 Z " fill="black" fill-opacity="1.000000"/>
<path d="M 118.892578 33.335938 L 118.892578 32.412109 L 125.729980 32.412109 L 125.729980 33.335938 Z " fill="black" fill-opacity="1.000000"/>
<path d="M 125.892578 33.335938 L 125.892578 32.412109 L 132.729980 32.412109 L 132.729980 33.335938 Z " fill="black" fill-opacity="1.000000"/>
<path d="M 132.892578 33.335938 L 132.892578 32.412109 L 139.729980 32.412109 L 139.729980 33.335938 Z " fill="black" fill-opacity="1.000000"/>
<path d="M 62.892578 46.335938 L 62.892578 45.412109 L 69.729980 45.412109 L 69.729980 46.335938 Z " fill="black" fill-opacity="1.000000"/>
<path d="M 69.892578 46.335938 L 69.892578 45.412109 L 76.729980 45.412109 L 76.729980 46.335938 Z " fill="black" fill-opacity="1.000000"/>
<path d="M 76.892578 46.335938 L 76.892578 45.412109 L 83.729980 45.412109 L 83.729980 46.335938 Z " fill="black" fill-opacity="1.000000"/>
<path d="M 83.892578 46.335938 L 83.892578 45.412109 L 90.729980 45.412109 L 90.729980 46.335938 Z " fill="black" fill-opacity="1.000000"/>
<path d="M 90.892578 46.335938 L 90.892578 45.412109 L 97.729980 45.412109 L 97.729980 46.335938 Z " fill="black" fill-opacity="1.000000"/>
<path d="M 100.878906 52.319336 L 100.878906 46.335938 L 97.892578 46.335938 L 97.892578 45.412109 L 104.729980 45.412109 L 104.729980 46.335938 L 101.738281 46.335938 L 101.738281 52.319336 Z " fill="black" fill-opacity="1.000000"/>
<path d="M 104.892578 46.335938 L 104.892578 45.412109 L 111.729980 45.412109 L 111.729980 46.335938 Z " fill="black" fill-opacity="1.000000"/>
<path d="M 111.892578 46.335938 L 111.892578 45.412109 L 118.729980 45.412109 L 118.729980 46.335938 Z " fill="black" fill-opacity="1.000000"/>
<path d="M 118.892578 46.335938 L 118.892578 45.412109 L 125.729980 45.412109 L 125.729980 46.335938 Z " fill="black" fill-opacity="1.000000"/>
<path d="M 125.892578 46.335938 L 125.892578 45.412109 L 132.729980 45.412109 L 132.729980 46.335938 Z " fill="black" fill-opacity="1.000000"/>
<path d="M 132.892578 46.335938 L 132.892578 45.412109 L 139.729980 45.412109 L 139.729980 46.335938 Z " fill="black" fill-opacity="1.000000"/>
<path d="M 139.892578 46.335938 L 139.892578 45.412109 L 142.878906 45.412109 L 142.878906 38.300781 L 143.738281 38.300781 L 143.738281 46.335938 Z " fill="black" fill-opacity="1.000000"/>
<path d="M 139.892578 33.335938 L 139.892578 32.412109 L 142.878906 32.412109 L 142.878906 25.300781 L 143.738281 25.300781 L 143.738281 33.335938 Z " fill="black" fill-opacity="1.000000"/>
<path d="M 70.735840 14.980957 L 71.826172 14.980957 L 71.826172 18.053223 L 74.796387 18.053223 L 74.796387 14.980957 L 75.886719 14.980957 L 75.886719 23.000000 L 74.796387 23.000000 L 74.796387 18.966309 L 71.826172 18.966309 L 71.826172 23.000000 L 70.735840 23.000000 Z " fill="black" fill-opacity="1.000000"/>
<path d="M 80.308594 17.677246 Q 79.556641 17.677246 79.169922 18.262695 Q 78.783203 18.848145 78.783203 19.997559 Q 78.783203 21.141602 79.169922 21.729736 Q 79.556641 22.317871 80.308594 22.317871 Q 81.065918 22.317871 81.452637 21.729736 Q 81.839355 21.141602 81.839355 19.997559 Q 81.839355 18.848145 81.452637 18.262695 Q 81.065918 17.677246 80.308594 17.677246 Z M 80.308594 16.839355 Q 81.560059 16.839355 82.223389 17.650391 Q 82.886719 18.461426 82.886719 19.997559 Q 82.886719 21.539062 82.226074 22.347412 Q 81.565430 23.155762 80.308594 23.155762 Q 79.057129 23.155762 78.396484 22.347412 Q 77.735840 21.539062 77.735840 19.997559 Q 77.735840 18.461426 78.396484 17.650391 Q 79.057129 16.839355 80.308594 16.839355 Z " fill="black" fill-opacity="1.000000"/>
<path d="M 86.014160 22.242676 L 86.014160 25.288086 L 85.020508 25.288086 L 85.020508 16.984375 L 86.014160 16.984375 L 86.014160 17.752441 Q 86.261230 17.306641 86.672119 17.072998 Q 87.083008 16.839355 87.620117 16.839355 Q 88.710449 16.839355 89.330811 17.682617 Q 89.951172 18.525879 89.951172 20.019043 Q 89.951172 21.485352 89.328125 22.320557 Q 88.705078 23.155762 87.620117 23.155762 Q 87.072266 23.155762 86.661377 22.922119 Q 86.250488 22.688477 86.014160 22.242676 Z M 88.914551 19.997559 Q 88.914551 18.848145 88.552002 18.262695 Q 88.189453 17.677246 87.475098 17.677246 Q 86.755371 17.677246 86.384766 18.265381 Q 86.014160 18.853516 86.014160 19.997559 Q 86.014160 21.136230 86.384766 21.727051 Q 86.755371 22.317871 87.475098 22.317871 Q 88.189453 22.317871 88.552002 21.732422 Q 88.914551 21.146973 88.914551 19.997559 Z " fill="black" fill-opacity="1.000000"/>
<path d="M 99.058105 14.980957 L 103.816895 14.980957 L 103.816895 15.894043 L 100.143066 15.894043 L 100.143066 18.053223 L 103.655762 18.053223 L 103.655762 18.966309 L 100.143066 18.966309 L 100.143066 22.086914 L 103.918945 22.086914 L 103.918945 23.000000 L 99.058105 23.000000 Z " fill="black" fill-opacity="1.000000"/>
<path d="M 110.645020 19.272461 L 110.645020 23.000000 L 109.651367 23.000000 L 109.651367 19.272461 Q 109.651367 18.461426 109.366699 18.080078 Q 109.082031 17.698730 108.475098 17.698730 Q 107.782227 17.698730 107.408936 18.190186 Q 107.035645 18.681641 107.035645 19.600098 L 107.035645 23.000000 L 106.047363 23.000000 L 106.047363 16.984375 L 107.035645 16.984375 L 107.035645 17.886719 Q 107.298828 17.371094 107.750000 17.105225 Q 108.201172 16.839355 108.818848 16.839355 Q 109.737305 16.839355 110.191162 17.443604 Q 110.645020 18.047852 110.645020 19.272461 Z " fill="black" fill-opacity="1.000000"/>
<path d="M 115.297852 15.276367 L 115.297852 16.984375 L 117.542969 16.984375 L 117.542969 17.752441 L 115.297852 17.752441 L 115.297852 21.018066 Q 115.297852 21.684082 115.550293 21.947266 Q 115.802734 22.210449 116.431152 22.210449 L 117.542969 22.210449 L 117.542969 23.000000 L 116.334473 23.000000 Q 115.222656 23.000000 114.766113 22.554199 Q 114.309570 22.108398 114.309570 21.018066 L 114.309570 17.752441 L 112.703613 17.752441 L 112.703613 16.984375 L 114.309570 16.984375 L 114.309570 15.276367 Z " fill="black" fill-opacity="1.000000"/>
<path d="M 125.203613 18.225098 Q 124.886719 17.978027 124.559082 17.865234 Q 124.231445 17.752441 123.839355 17.752441 Q 122.915527 17.752441 122.426758 18.332520 Q 121.937988 18.912598 121.937988 20.008301 L 121.937988 23.000000 L 120.944336 23.000000 L 120.944336 16.984375 L 121.937988 16.984375 L 121.937988 18.160645 Q 122.185059 17.521484 122.697998 17.180420 Q 123.210938 16.839355 123.914551 16.839355 Q 124.279785 16.839355 124.596680 16.930664 Q 124.913574 17.021973 125.203613 17.215332 Z " fill="black" fill-opacity="1.000000"/>
<path d="M 130.608398 21.066406 Q 130.361328 21.694824 129.979980 22.720703 Q 129.448242 24.138672 129.265625 24.450195 Q 129.018555 24.869141 128.647949 25.078613 Q 128.277344 25.288086 127.783203 25.288086 L 126.988281 25.288086 L 126.988281 24.460938 L 127.573730 24.460938 Q 128.008789 24.460938 128.255859 24.208496 Q 128.502930 23.956055 128.884277 22.903320 L 126.558594 16.984375 L 127.605957 16.984375 L 129.389160 21.689453 L 131.145508 16.984375 L 132.192871 16.984375 Z " fill="black" fill-opacity="1.000000"/>
<path d="M 142.878906 26.319336 L 142.878906 12.300781 L 143.738281 12.300781 L 143.738281 26.319336 Z " fill="black" fill-opacity="1.000000"/>
<path d="M 62.892578 7.335938 L 62.892578 6.412109 L 69.729980 6.412109 L 69.729980 7.335938 Z " fill="black" fill-opacity="1.000000"/>
<path d="M 69.892578 7.335938 L 69.892578 6.412109 L 76.729980 6.412109 L 76.729980 7.335938 Z " fill="black" fill-opacity="1.000000"/>
<path d="M 76.892578 7.335938 L 76.892578 6.412109 L 83.729980 6.412109 L 83.729980 7.335938 Z " fill="black" fill-opacity="1.000000"/>
<path d="M 83.892578 7.335938 L 83.892578 6.412109 L 90.729980 6.412109 L 90.729980 7.335938 Z " fill="black" fill-opacity="1.000000"/>
<path d="M 90.892578 7.335938 L 90.892578 6.412109 L 97.729980 6.412109 L 97.729980 7.335938 Z " fill="black" fill-opacity="1.000000"/>
<path d="M 97.892578 7.335938 L 97.892578 6.412109 L 104.729980 6.412109 L 104.729980 7.335938 Z " fill="black" fill-opacity="1.000000"/>
<path d="M 104.892578 7.335938 L 104.892578 6.412109 L 111.729980 6.412109 L 111.729980 7.335938 Z " fill="black" fill-opacity="1.000000"/>
<path d="M 111.892578 7.335938 L 111.892578 6.412109 L 118.729980 6.412109 L 118.729980 7.335938 Z " fill="black" fill-opacity="1.000000"/>
<path d="M 118.892578 7.335938 L 118.892578 6.412109 L 125.729980 6.412109 L 125.729980 7.335938 Z " fill="black" fill-opacity="1.000000"/>
<path d="M 125.892578 7.335938 L 125.892578 6.412109 L 132.729980 6.412109 L 132.729980 7.335938 Z " fill="black" fill-opacity="1.000000"/>
<path d="M 132.892578 7.335938 L 132.892578 6.412109 L 139.729980 6.412109 L 139.729980 7.335938 Z " fill="black" fill-opacity="1.000000"/>
<path d="M 142.878906 13.319336 L 142.878906 7.335938 L 139.892578 7.335938 L 139.892578 6.412109 L 143.738281 6.412109 L 143.738281 13.319336 Z " fill="black" fill-opacity="1.000000"/>
</svg>
