<?xml version='1.0' encoding='utf-8'?>
<svg xmlns="http://www.w3.org/2000/svg" version="1.1" width="407" height="183" viewBox="0 0 407.0 183.0">
<path d="M 79.878906 78.319336 L 79.878906 71.412109 L 83.729980 71.412109 L 83.729980 72.335938 L 80.738281 72.335938 L 80.738281 78.319336 Z " fill="black" fill-opacity="1.000000"/>
<path d="M 79.878906 91.319336 L 79.878906 77.300781 L 80.738281 77.300781 L 80.738281 91.319336 Z " fill="black" fill-opacity="1.000000"/>
<path d="M 79.878906 104.319336 L 79.878906 90.300781 L 80.738281 90.300781 L 80.738281 96.950195 L 83.729980 96.950195 L 83.729980 98.797852 L 80.738281 98.797852 L 80.738281 104.319336 Z " fill="black" fill-opacity="1.000000"/>
<path d="M 79.878906 117.319336 L 79.878906 103.300781 L 80.738281 103.300781 L 80.738281 117.319336 Z " fill="black" fill-opacity="1.000000"/>
<path d="M 79.878906 130.319336 L 79.878906 116.300781 L 80.738281 116.300781 L 80.738281 130.319336 Z " fill="black" fill-opacity="1.000000"/>
<path d="M 79.878906 137.335938 L 79.878906 129.300781 L 80.738281 129.300781 L 80.738281 136.412109 L 83.729980 136.412109 L 83.729980 137.335938 Z " fill="black" fill-opacity="1.000000"/>
<path d="M 191.878906 169.319336 L 191.878906 162.412109 L 195.729980 162.412109 L 195.729980 163.335938 L 192.738281 163.335938 L 192.738281 169.319336 Z " fill="black" fill-opacity="1.000000"/>
<path d="M 191.878906 182.319336 L 191.878906 168.300781 L 192.738281 168.300781 L 192.738281 182.319336 Z " fill="black" fill-opacity="1.000000"/>
<path d="M 227.308594 171.937012 L 226.164551 176.040527 L 228.452637 176.040527 Z M 226.653320 170.980957 L 227.969238 170.980957 L 230.423828 179.000000 L 229.301270 179.000000 L 228.710449 176.910645 L 225.901367 176.910645 L 225.321289 179.000000 L 224.198730 179.000000 Z " fill="black" fill-opacity="1.000000"/>
<path d="M 236.435547 171.254883 L 236.435547 172.355957 Q 235.941406 172.039062 235.444580 171.877930 Q 234.947754 171.716797 234.442871 171.716797 Q 233.674805 171.716797 233.229004 172.073975 Q 232.783203 172.431152 232.783203 173.038086 Q 232.783203 173.569824 233.075928 173.849121 Q 233.368652 174.128418 234.168945 174.316406 L 234.738281 174.445312 Q 235.866211 174.708496 236.381836 175.272461 Q 236.897461 175.836426 236.897461 176.808594 Q 236.897461 177.952637 236.188477 178.554199 Q 235.479492 179.155762 234.125977 179.155762 Q 233.562012 179.155762 232.992676 179.034912 Q 232.423340 178.914062 231.848633 178.672363 L 231.848633 177.517578 Q 232.466309 177.909668 233.016846 178.092285 Q 233.567383 178.274902 234.125977 178.274902 Q 234.947754 178.274902 235.404297 177.906982 Q 235.860840 177.539062 235.860840 176.878418 Q 235.860840 176.276855 235.546631 175.959961 Q 235.232422 175.643066 234.453613 175.471191 L 233.873535 175.336914 Q 232.756348 175.084473 232.251465 174.574219 Q 231.746582 174.063965 231.746582 173.204590 Q 231.746582 172.130371 232.468994 171.483154 Q 233.191406 170.835938 234.389160 170.835938 Q 234.851074 170.835938 235.361328 170.940674 Q 235.871582 171.045410 236.435547 171.254883 Z " fill="black" fill-opacity="1.000000"/>
<path d="M 245.198730 170.980957 L 246.353516 170.980957 L 248.308594 174.520508 L 250.258301 170.980957 L 251.423828 170.980957 L 248.851074 175.401367 L 248.851074 179.000000 L 247.760742 179.000000 L 247.760742 175.401367 Z " fill="black" fill-opacity="1.000000"/>
<path d="M 289.878906 182.319336 L 289.878906 168.300781 L 290.738281 168.300781 L 290.738281 182.319336 Z " fill="black" fill-opacity="1.000000"/>
<path d="M 195.892578 163.335938 L 195.892578 162.412109 L 202.729980 162.412109 L 202.729980 163.335938 Z " fill="black" fill-opacity="1.000000"/>
<path d="M 202.892578 163.335938 L 202.892578 162.412109 L 209.729980 162.412109 L 209.729980 163.335938 Z " fill="black" fill-opacity="1.000000"/>
<path d="M 209.892578 163.335938 L 209.892578 162.412109 L 216.729980 162.412109 L 216.729980 163.335938 Z " fill="black" fill-opacity="1.000000"/>
<path d="M 216.892578 163.335938 L 216.892578 162.412109 L 223.729980 162.412109 L 223.729980 163.335938 Z " fill="black" fill-opacity="1.000000"/>
<path d="M 223.892578 163.335938 L 223.892578 162.412109 L 226.878906 162.412109 L 226.878906 155.300781 L 227.738281 155.300781 L 227.738281 162.412109 L 230.729980 162.412109 L 230.729980 163.335938 Z " fill="black" fill-opacity="1.000000"/>
<path d="M 230.892578 163.335938 L 230.892578 162.412109 L 237.729980 162.412109 L 237.729980 163.335938 Z " fill="black" fill-opacity="1.000000"/>
<path d="M 237.892578 163.335938 L 237.892578 162.412109 L 244.729980 162.412109 L 244.729980 163.335938 Z " fill="black" fill-opacity="1.000000"/>
<path d="M 244.892578 163.335938 L 244.892578 162.412109 L 251.729980 162.412109 L 251.729980 163.335938 Z " fill="black" fill-opacity="1.000000"/>
<path d="M 251.892578 163.335938 L 251.892578 162.412109 L 254.878906 162.412109 L 254.878906 155.300781 L 255.738281 155.300781 L 255.738281 162.412109 L 258.729980 162.412109 L 258.729980 163.335938 Z " fill="black" fill-opacity="1.000000"/>
<path d="M 258.892578 163.335938 L 258.892578 162.412109 L 265.729980 162.412109 L 265.729980 163.335938 Z " fill="black" fill-opacity="1.000000"/>
<path d="M 265.892578 163.335938 L 265.892578 162.412109 L 272.729980 162.412109 L 272.729980 163.335938 Z " fill="black" fill-opacity="1.000000"/>
<path d="M 272.892578 163.335938 L 272.892578 162.412109 L 279.729980 162.412109 L 279.729980 163.335938 Z " fill="black" fill-opacity="1.000000"/>
<path d="M 279.892578 163.335938 L 279.892578 162.412109 L 286.729980 162.412109 L 286.729980 163.335938 Z " fill="black" fill-opacity="1.000000"/>
<path d="M 289.878906 169.319336 L 289.878906 163.335938 L 286.892578 163.335938 L 286.892578 162.412109 L 290.738281 162.412109 L 290.738281 169.319336 Z " fill="black" fill-opacity="1.000000"/>
<path d="M 230.332520 148.321777 L 227.947754 149.610840 L 230.332520 150.905273 L 229.956543 151.560547 L 227.711426 150.212402 L 227.711426 152.715332 L 226.943359 152.715332 L 226.943359 150.212402 L 224.698242 151.560547 L 224.322266 150.905273 L 226.712402 149.610840 L 224.322266 148.321777 L 224.698242 147.661133 L 226.943359 149.009277 L 226.943359 146.506348 L 227.711426 146.506348 L 227.711426 149.009277 L 229.956543 147.661133 Z " fill="black" fill-opacity="1.000000"/>
<path d="M 258.332520 148.321777 L 255.947754 149.610840 L 258.332520 150.905273 L 257.956543 151.560547 L 255.711426 150.212402 L 255.711426 152.715332 L 254.943359 152.715332 L 254.943359 150.212402 L 252.698242 151.560547 L 252.322266 150.905273 L 254.712402 149.610840 L 252.322266 148.321777 L 252.698242 147.661133 L 254.943359 149.009277 L 254.943359 146.506348 L 255.711426 146.506348 L 255.711426 149.009277 L 257.956543 147.661133 Z " fill="black" fill-opacity="1.000000"/>
<path d="M 83.892578 137.335938 L 83.892578 136.412109 L 90.729980 136.412109 L 90.729980 137.335938 Z " fill="black" fill-opacity="1.000000"/>
<path d="M 90.892578 137.335938 L 90.892578 136.412109 L 97.729980 136.412109 L 97.729980 137.335938 Z " fill="black" fill-opacity="1.000000"/>
<path d="M 97.892578 137.335938 L 97.892578 136.412109 L 104.729980 136.412109 L 104.729980 137.335938 Z " fill="black" fill-opacity="1.000000"/>
<path d="M 104.892578 137.335938 L 104.892578 136.412109 L 111.729980 136.412109 L 111.729980 137.335938 Z " fill="black" fill-opacity="1.000000"/>
<path d="M 111.892578 137.335938 L 111.892578 136.412109 L 118.729980 136.412109 L 118.729980 137.335938 Z " fill="black" fill-opacity="1.000000"/>
<path d="M 118.892578 137.335938 L 118.892578 136.412109 L 125.729980 136.412109 L 125.729980 137.335938 Z " fill="black" fill-opacity="1.000000"/>
<path d="M 125.892578 137.335938 L 125.892578 136.412109 L 132.729980 136.412109 L 132.729980 137.335938 Z " fill="black" fill-opacity="1.000000"/>
<path d="M 132.892578 137.335938 L 132.892578 136.412109 L 139.729980 136.412109 L 139.729980 137.335938 Z " fill="black" fill-opacity="1.000000"/>
<path d="M 139.892578 137.335938 L 139.892578 136.412109 L 142.878906 136.412109 L 142.878906 129.300781 L 143.738281 129.300781 L 143.738281 137.335938 Z " fill="black" fill-opacity="1.000000"/>
<path d="M 146.892578 137.335938 L 146.892578 136.412109 L 149.878906 136.412109 L 149.878906 129.300781 L 150.738281 129.300781 L 150.738281 137.335938 Z " fill="black" fill-opacity="1.000000"/>
<path d="M 192.308594 140.418945 L 189.032227 133.866211 L 195.590332 133.866211 Z " fill="black" fill-opacity="1.000000"/>
<path d="M 226.878906 143.319336 L 226.878906 129.300781 L 227.738281 129.300781 L 227.738281 143.319336 Z " fill="black" fill-opacity="1.000000"/>
<path d="M 254.878906 143.319336 L 254.878906 129.300781 L 255.738281 129.300781 L 255.738281 143.319336 Z " fill="black" fill-opacity="1.000000"/>
<path d="M 290.308594 140.418945 L 287.032227 133.866211 L 293.590332 133.866211 Z " fill="black" fill-opacity="1.000000"/>
<path d="M 331.878906 137.335938 L 331.878906 129.300781 L 332.738281 129.300781 L 332.738281 136.412109 L 335.729980 136.412109 L 335.729980 137.335938 Z " fill="black" fill-opacity="1.000000"/>
<path d="M 338.878906 137.335938 L 338.878906 129.300781 L 339.738281 129.300781 L 339.738281 136.412109 L 342.729980 136.412109 L 342.729980 137.335938 Z " fill="black" fill-opacity="1.000000"/>
<path d="M 342.892578 137.335938 L 342.892578 136.412109 L 349.729980 136.412109 L 349.729980 137.335938 Z " fill="black" fill-opacity="1.000000"/>
<path d="M 349.892578 137.335938 L 349.892578 136.412109 L 356.729980 136.412109 L 356.729980 137.335938 Z " fill="black" fill-opacity="1.000000"/>
<path d="M 356.892578 137.335938 L 356.892578 136.412109 L 363.729980 136.412109 L 363.729980 137.335938 Z " fill="black" fill-opacity="1.000000"/>
<path d="M 363.892578 137.335938 L 363.892578 136.412109 L 370.729980 136.412109 L 370.729980 137.335938 Z " fill="black" fill-opacity="1.000000"/>
<path d="M 370.892578 137.335938 L 370.892578 136.412109 L 377.729980 136.412109 L 377.729980 137.335938 Z " fill="black" fill-opacity="1.000000"/>
<path d="M 377.892578 137.335938 L 377.892578 136.412109 L 384.729980 136.412109 L 384.729980 137.335938 Z " fill="black" fill-opacity="1.000000"/>
<path d="M 384.892578 137.335938 L 384.892578 136.412109 L 391.729980 136.412109 L 391.729980 137.335938 Z " fill="black" fill-opacity="1.000000"/>
<path d="M 391.892578 137.335938 L 391.892578 136.412109 L 398.729980 136.412109 L 398.729980 137.335938 Z " fill="black" fill-opacity="1.000000"/>
<path d="M 398.892578 137.335938 L 398.892578 136.412109 L 401.878906 136.412109 L 401.878906 129.300781 L 402.738281 129.300781 L 402.738281 137.335938 Z " fill="black" fill-opacity="1.000000"/>
<path d="M 84.547852 123.111328 L 90.241211 123.111328 L 90.241211 124.019043 L 84.547852 124.019043 Z " fill="black" fill-opacity="1.000000"/>
<path d="M 102.860840 122.998535 Q 102.860840 121.231445 102.498291 120.474121 Q 102.135742 119.716797 101.308594 119.716797 Q 100.486816 119.716797 100.124268 120.474121 Q 99.761719 121.231445 99.761719 122.998535 Q 99.761719 124.760254 100.124268 125.517578 Q 100.486816 126.274902 101.308594 126.274902 Q 102.135742 126.274902 102.498291 125.520264 Q 102.860840 124.765625 102.860840 122.998535 Z M 103.994141 122.998535 Q 103.994141 125.093262 103.330811 126.124512 Q 102.667480 127.155762 101.308594 127.155762 Q 99.949707 127.155762 99.289062 126.129883 Q 98.628418 125.104004 98.628418 122.998535 Q 98.628418 120.898438 99.291748 119.867188 Q 99.955078 118.835938 101.308594 118.835938 Q 102.667480 118.835938 103.330811 119.867188 Q 103.994141 120.898438 103.994141 122.998535 Z " fill="black" fill-opacity="1.000000"/>
<path d="M 106.047363 124.722656 L 106.047363 120.995117 L 107.035645 120.995117 L 107.035645 124.722656 Q 107.035645 125.533691 107.322998 125.915039 Q 107.610352 126.296387 108.211914 126.296387 Q 108.910156 126.296387 109.280762 125.804932 Q 109.651367 125.313477 109.651367 124.395020 L 109.651367 120.995117 L 110.645020 120.995117 L 110.645020 127.000000 L 109.651367 127.000000 L 109.651367 126.097656 Q 109.388184 126.618652 108.934326 126.887207 Q 108.480469 127.155762 107.873535 127.155762 Q 106.949707 127.155762 106.498535 126.551514 Q 106.047363 125.947266 106.047363 124.722656 Z " fill="black" fill-opacity="1.000000"/>
<path d="M 115.297852 119.276367 L 115.297852 120.984375 L 117.542969 120.984375 L 117.542969 121.752441 L 115.297852 121.752441 L 115.297852 125.018066 Q 115.297852 125.684082 115.550293 125.947266 Q 115.802734 126.210449 116.431152 126.210449 L 117.542969 126.210449 L 117.542969 127.000000 L 116.334473 127.000000 Q 115.222656 127.000000 114.766113 126.554199 Q 114.309570 126.108398 114.309570 125.018066 L 114.309570 121.752441 L 112.703613 121.752441 L 112.703613 120.984375 L 114.309570 120.984375 L 114.309570 119.276367 Z " fill="black" fill-opacity="1.000000"/>
<path d="M 121.304199 120.989746 L 122.979980 120.989746 L 122.979980 122.928711 L 121.304199 122.928711 Z M 121.304199 125.044922 L 122.979980 125.044922 L 122.979980 127.000000 L 121.304199 127.000000 Z " fill="black" fill-opacity="1.000000"/>
<path d="M 128.003418 126.086914 L 131.687988 126.086914 L 131.687988 127.000000 L 126.816406 127.000000 L 126.816406 126.086914 Q 127.820801 125.028809 128.572754 124.217773 Q 129.324707 123.406738 129.609375 123.073730 Q 130.146484 122.418457 130.334473 122.012939 Q 130.522461 121.607422 130.522461 121.183105 Q 130.522461 120.511719 130.127686 120.130371 Q 129.732910 119.749023 129.045410 119.749023 Q 128.556641 119.749023 128.019531 119.926270 Q 127.482422 120.103516 126.880859 120.463379 L 126.880859 119.367676 Q 127.434082 119.104492 127.968506 118.970215 Q 128.502930 118.835938 129.023926 118.835938 Q 130.200195 118.835938 130.917236 119.461670 Q 131.634277 120.087402 131.634277 121.102539 Q 131.634277 121.618164 131.395264 122.133789 Q 131.156250 122.649414 130.619141 123.272461 Q 130.318359 123.621582 129.746338 124.239258 Q 129.174316 124.856934 128.003418 126.086914 Z " fill="black" fill-opacity="1.000000"/>
<path d="M 142.878906 130.319336 L 142.878906 116.300781 L 143.738281 116.300781 L 143.738281 130.319336 Z " fill="black" fill-opacity="1.000000"/>
<path d="M 149.878906 130.319336 L 149.878906 116.300781 L 150.738281 116.300781 L 150.738281 130.319336 Z " fill="black" fill-opacity="1.000000"/>
<path d="M 191.878906 130.319336 L 191.878906 116.300781 L 192.738281 116.300781 L 192.738281 130.319336 Z " fill="black" fill-opacity="1.000000"/>
<path d="M 226.878906 130.319336 L 226.878906 116.300781 L 227.738281 116.300781 L 227.738281 130.319336 Z " fill="black" fill-opacity="1.000000"/>
<path d="M 254.878906 130.319336 L 254.878906 116.300781 L 255.738281 116.300781 L 255.738281 130.319336 Z " fill="black" fill-opacity="1.000000"/>
<path d="M 289.878906 130.319336 L 289.878906 116.300781 L 290.738281 116.300781 L 290.738281 130.319336 Z " fill="black" fill-opacity="1.000000"/>
<path d="M 331.878906 130.319336 L 331.878906 116.300781 L 332.738281 116.300781 L 332.738281 130.319336 Z " fill="black" fill-opacity="1.000000"/>
<path d="M 338.878906 130.319336 L 338.878906 116.300781 L 339.738281 116.300781 L 339.738281 130.319336 Z " fill="black" fill-opacity="1.000000"/>
<path d="M 343.547852 123.111328 L 349.241211 123.111328 L 349.241211 124.019043 L 343.547852 124.019043 Z " fill="black" fill-opacity="1.000000"/>
<path d="M 361.860840 122.998535 Q 361.860840 121.231445 361.498291 120.474121 Q 361.135742 119.716797 360.308594 119.716797 Q 359.486816 119.716797 359.124268 120.474121 Q 358.761719 121.231445 358.761719 122.998535 Q 358.761719 124.760254 359.124268 125.517578 Q 359.486816 126.274902 360.308594 126.274902 Q 361.135742 126.274902 361.498291 125.520264 Q 361.860840 124.765625 361.860840 122.998535 Z M 362.994141 122.998535 Q 362.994141 125.093262 362.330811 126.124512 Q 361.667480 127.155762 360.308594 127.155762 Q 358.949707 127.155762 358.289062 126.129883 Q 357.628418 125.104004 357.628418 122.998535 Q 357.628418 120.898438 358.291748 119.867188 Q 358.955078 118.835938 360.308594 118.835938 Q 361.667480 118.835938 362.330811 119.867188 Q 362.994141 120.898438 362.994141 122.998535 Z " fill="black" fill-opacity="1.000000"/>
<path d="M 365.047363 124.722656 L 365.047363 120.995117 L 366.035645 120.995117 L 366.035645 124.722656 Q 366.035645 125.533691 366.322998 125.915039 Q 366.610352 126.296387 367.211914 126.296387 Q 367.910156 126.296387 368.280762 125.804932 Q 368.651367 125.313477 368.651367 124.395020 L 368.651367 120.995117 L 369.645020 120.995117 L 369.645020 127.000000 L 368.651367 127.000000 L 368.651367 126.097656 Q 368.388184 126.618652 367.934326 126.887207 Q 367.480469 127.155762 366.873535 127.155762 Q 365.949707 127.155762 365.498535 126.551514 Q 365.047363 125.947266 365.047363 124.722656 Z " fill="black" fill-opacity="1.000000"/>
<path d="M 374.297852 119.276367 L 374.297852 120.984375 L 376.542969 120.984375 L 376.542969 121.752441 L 374.297852 121.752441 L 374.297852 125.018066 Q 374.297852 125.684082 374.550293 125.947266 Q 374.802734 126.210449 375.431152 126.210449 L 376.542969 126.210449 L 376.542969 127.000000 L 375.334473 127.000000 Q 374.222656 127.000000 373.766113 126.554199 Q 373.309570 126.108398 373.309570 125.018066 L 373.309570 121.752441 L 371.703613 121.752441 L 371.703613 120.984375 L 373.309570 120.984375 L 373.309570 119.276367 Z " fill="black" fill-opacity="1.000000"/>
<path d="M 380.304199 120.989746 L 381.979980 120.989746 L 381.979980 122.928711 L 380.304199 122.928711 Z M 380.304199 125.044922 L 381.979980 125.044922 L 381.979980 127.000000 L 380.304199 127.000000 Z " fill="black" fill-opacity="1.000000"/>
<path d="M 386.450195 126.092285 L 388.136719 126.092285 L 388.136719 120.033691 L 386.117188 121.005859 L 386.117188 119.963867 L 388.125977 119.007812 L 389.210938 119.007812 L 389.210938 126.092285 L 390.875977 126.092285 L 390.875977 127.000000 L 386.450195 127.000000 Z " fill="black" fill-opacity="1.000000"/>
<path d="M 401.878906 130.319336 L 401.878906 116.300781 L 402.738281 116.300781 L 402.738281 130.319336 Z " fill="black" fill-opacity="1.000000"/>
<path d="M 96.763184 113.715332 Q 96.349609 113.935547 95.914551 114.045654 Q 95.479492 114.155762 94.990723 114.155762 Q 93.449219 114.155762 92.597900 113.065430 Q 91.746582 111.975098 91.746582 109.998535 Q 91.746582 108.032715 92.603271 106.934326 Q 93.459961 105.835938 94.990723 105.835938 Q 95.479492 105.835938 95.914551 105.946045 Q 96.349609 106.056152 96.763184 106.276367 L 96.763184 107.388184 Q 96.365723 107.060547 95.909180 106.888672 Q 95.452637 106.716797 94.990723 106.716797 Q 93.932617 106.716797 93.406250 107.533203 Q 92.879883 108.349609 92.879883 109.998535 Q 92.879883 111.642090 93.406250 112.458496 Q 93.932617 113.274902 94.990723 113.274902 Q 95.463379 113.274902 95.917236 113.103027 Q 96.371094 112.931152 96.763184 112.603516 Z " fill="black" fill-opacity="1.000000"/>
<path d="M 101.308594 108.677246 Q 100.556641 108.677246 100.169922 109.262695 Q 99.783203 109.848145 99.783203 110.997559 Q 99.783203 112.141602 100.169922 112.729736 Q 100.556641 113.317871 101.308594 113.317871 Q 102.065918 113.317871 102.452637 112.729736 Q 102.839355 112.141602 102.839355 110.997559 Q 102.839355 109.848145 102.452637 109.262695 Q 102.065918 108.677246 101.308594 108.677246 Z M 101.308594 107.839355 Q 102.560059 107.839355 103.223389 108.650391 Q 103.886719 109.461426 103.886719 110.997559 Q 103.886719 112.539062 103.226074 113.347412 Q 102.565430 114.155762 101.308594 114.155762 Q 100.057129 114.155762 99.396484 113.347412 Q 98.735840 112.539062 98.735840 110.997559 Q 98.735840 109.461426 99.396484 108.650391 Q 100.057129 107.839355 101.308594 107.839355 Z " fill="black" fill-opacity="1.000000"/>
<path d="M 111.203613 109.225098 Q 110.886719 108.978027 110.559082 108.865234 Q 110.231445 108.752441 109.839355 108.752441 Q 108.915527 108.752441 108.426758 109.332520 Q 107.937988 109.912598 107.937988 111.008301 L 107.937988 114.000000 L 106.944336 114.000000 L 106.944336 107.984375 L 107.937988 107.984375 L 107.937988 109.160645 Q 108.185059 108.521484 108.697998 108.180420 Q 109.210938 107.839355 109.914551 107.839355 Q 110.279785 107.839355 110.596680 107.930664 Q 110.913574 108.021973 111.203613 108.215332 Z " fill="black" fill-opacity="1.000000"/>
<path d="M 118.015625 110.498047 L 118.015625 110.981445 L 113.734863 110.981445 L 113.734863 111.013672 Q 113.691895 112.243652 114.204834 112.780762 Q 114.717773 113.317871 115.652344 113.317871 Q 116.125000 113.317871 116.640625 113.167480 Q 117.156250 113.017090 117.741699 112.710938 L 117.741699 113.693848 Q 117.177734 113.924805 116.654053 114.040283 Q 116.130371 114.155762 115.641602 114.155762 Q 114.239746 114.155762 113.450195 113.315186 Q 112.660645 112.474609 112.660645 110.997559 Q 112.660645 109.558105 113.434082 108.698730 Q 114.207520 107.839355 115.496582 107.839355 Q 116.645996 107.839355 117.309326 108.618164 Q 117.972656 109.396973 118.015625 110.498047 Z M 117.027344 110.208008 Q 116.962891 109.584961 116.573486 109.131104 Q 116.184082 108.677246 115.453613 108.677246 Q 114.739258 108.677246 114.277344 109.149902 Q 113.815430 109.622559 113.772461 110.213379 Z " fill="black" fill-opacity="1.000000"/>
<path d="M 142.878906 117.319336 L 142.878906 103.300781 L 143.738281 103.300781 L 143.738281 117.319336 Z " fill="black" fill-opacity="1.000000"/>
<path d="M 149.878906 117.319336 L 149.878906 103.300781 L 150.738281 103.300781 L 150.738281 117.319336 Z " fill="black" fill-opacity="1.000000"/>
<path d="M 170.878906 111.335938 L 170.878906 103.300781 L 171.738281 103.300781 L 171.738281 110.412109 L 174.729980 110.412109 L 174.729980 111.335938 Z " fill="black" fill-opacity="1.000000"/>
<path d="M 174.892578 111.335938 L 174.892578 110.412109 L 181.729980 110.412109 L 181.729980 111.335938 Z " fill="black" fill-opacity="1.000000"/>
<path d="M 181.892578 111.335938 L 181.892578 110.412109 L 188.729980 110.412109 L 188.729980 111.335938 Z " fill="black" fill-opacity="1.000000"/>
<path d="M 191.878906 117.319336 L 191.878906 111.335938 L 188.892578 111.335938 L 188.892578 110.412109 L 195.729980 110.412109 L 195.729980 111.335938 L 192.738281 111.335938 L 192.738281 117.319336 Z " fill="black" fill-opacity="1.000000"/>
<path d="M 195.892578 111.335938 L 195.892578 110.412109 L 202.729980 110.412109 L 202.729980 111.335938 Z " fill="black" fill-opacity="1.000000"/>
<path d="M 202.892578 111.335938 L 202.892578 110.412109 L 209.729980 110.412109 L 209.729980 111.335938 Z " fill="black" fill-opacity="1.000000"/>
<path d="M 209.892578 111.335938 L 209.892578 110.412109 L 212.878906 110.412109 L 212.878906 103.300781 L 213.738281 103.300781 L 213.738281 111.335938 Z " fill="black" fill-opacity="1.000000"/>
<path d="M 226.878906 117.319336 L 226.878906 103.300781 L 227.738281 103.300781 L 227.738281 117.319336 Z " fill="black" fill-opacity="1.000000"/>
<path d="M 254.878906 117.319336 L 254.878906 103.300781 L 255.738281 103.300781 L 255.738281 117.319336 Z " fill="black" fill-opacity="1.000000"/>
<path d="M 268.878906 111.335938 L 268.878906 103.300781 L 269.738281 103.300781 L 269.738281 110.412109 L 272.729980 110.412109 L 272.729980 111.335938 Z " fill="black" fill-opacity="1.000000"/>
<path d="M 272.892578 111.335938 L 272.892578 110.412109 L 279.729980 110.412109 L 279.729980 111.335938 Z " fill="black" fill-opacity="1.000000"/>
<path d="M 279.892578 111.335938 L 279.892578 110.412109 L 286.729980 110.412109 L 286.729980 111.335938 Z " fill="black" fill-opacity="1.000000"/>
<path d="M 289.878906 117.319336 L 289.878906 111.335938 L 286.892578 111.335938 L 286.892578 110.412109 L 293.729980 110.412109 L 293.729980 111.335938 L 290.738281 111.335938 L 290.738281 117.319336 Z " fill="black" fill-opacity="1.000000"/>
<path d="M 293.892578 111.335938 L 293.892578 110.412109 L 300.729980 110.412109 L 300.729980 111.335938 Z " fill="black" fill-opacity="1.000000"/>
<path d="M 300.892578 111.335938 L 300.892578 110.412109 L 307.729980 110.412109 L 307.729980 111.335938 Z " fill="black" fill-opacity="1.000000"/>
<path d="M 307.892578 111.335938 L 307.892578 110.412109 L 310.878906 110.412109 L 310.878906 103.300781 L 311.738281 103.300781 L 311.738281 111.335938 Z " fill="black" fill-opacity="1.000000"/>
<path d="M 331.878906 117.319336 L 331.878906 103.300781 L 332.738281 103.300781 L 332.738281 117.319336 Z " fill="black" fill-opacity="1.000000"/>
<path d="M 338.878906 117.319336 L 338.878906 103.300781 L 339.738281 103.300781 L 339.738281 117.319336 Z " fill="black" fill-opacity="1.000000"/>
<path d="M 348.763184 113.715332 Q 348.349609 113.935547 347.914551 114.045654 Q 347.479492 114.155762 346.990723 114.155762 Q 345.449219 114.155762 344.597900 113.065430 Q 343.746582 111.975098 343.746582 109.998535 Q 343.746582 108.032715 344.603271 106.934326 Q 345.459961 105.835938 346.990723 105.835938 Q 347.479492 105.835938 347.914551 105.946045 Q 348.349609 106.056152 348.763184 106.276367 L 348.763184 107.388184 Q 348.365723 107.060547 347.909180 106.888672 Q 347.452637 106.716797 346.990723 106.716797 Q 345.932617 106.716797 345.406250 107.533203 Q 344.879883 108.349609 344.879883 109.998535 Q 344.879883 111.642090 345.406250 112.458496 Q 345.932617 113.274902 346.990723 113.274902 Q 347.463379 113.274902 347.917236 113.103027 Q 348.371094 112.931152 348.763184 112.603516 Z " fill="black" fill-opacity="1.000000"/>
<path d="M 353.308594 108.677246 Q 352.556641 108.677246 352.169922 109.262695 Q 351.783203 109.848145 351.783203 110.997559 Q 351.783203 112.141602 352.169922 112.729736 Q 352.556641 113.317871 353.308594 113.317871 Q 354.065918 113.317871 354.452637 112.729736 Q 354.839355 112.141602 354.839355 110.997559 Q 354.839355 109.848145 354.452637 109.262695 Q 354.065918 108.677246 353.308594 108.677246 Z M 353.308594 107.839355 Q 354.560059 107.839355 355.223389 108.650391 Q 355.886719 109.461426 355.886719 110.997559 Q 355.886719 112.539062 355.226074 113.347412 Q 354.565430 114.155762 353.308594 114.155762 Q 352.057129 114.155762 351.396484 113.347412 Q 350.735840 112.539062 350.735840 110.997559 Q 350.735840 109.461426 351.396484 108.650391 Q 352.057129 107.839355 353.308594 107.839355 Z " fill="black" fill-opacity="1.000000"/>
<path d="M 363.203613 109.225098 Q 362.886719 108.978027 362.559082 108.865234 Q 362.231445 108.752441 361.839355 108.752441 Q 360.915527 108.752441 360.426758 109.332520 Q 359.937988 109.912598 359.937988 111.008301 L 359.937988 114.000000 L 358.944336 114.000000 L 358.944336 107.984375 L 359.937988 107.984375 L 359.937988 109.160645 Q 360.185059 108.521484 360.697998 108.180420 Q 361.210938 107.839355 361.914551 107.839355 Q 362.279785 107.839355 362.596680 107.930664 Q 362.913574 108.021973 363.203613 108.215332 Z " fill="black" fill-opacity="1.000000"/>
<path d="M 370.015625 110.498047 L 370.015625 110.981445 L 365.734863 110.981445 L 365.734863 111.013672 Q 365.691895 112.243652 366.204834 112.780762 Q 366.717773 113.317871 367.652344 113.317871 Q 368.125000 113.317871 368.640625 113.167480 Q 369.156250 113.017090 369.741699 112.710938 L 369.741699 113.693848 Q 369.177734 113.924805 368.654053 114.040283 Q 368.130371 114.155762 367.641602 114.155762 Q 366.239746 114.155762 365.450195 113.315186 Q 364.660645 112.474609 364.660645 110.997559 Q 364.660645 109.558105 365.434082 108.698730 Q 366.207520 107.839355 367.496582 107.839355 Q 368.645996 107.839355 369.309326 108.618164 Q 369.972656 109.396973 370.015625 110.498047 Z M 369.027344 110.208008 Q 368.962891 109.584961 368.573486 109.131104 Q 368.184082 108.677246 367.453613 108.677246 Q 366.739258 108.677246 366.277344 109.149902 Q 365.815430 109.622559 365.772461 110.213379 Z " fill="black" fill-opacity="1.000000"/>
<path d="M 401.878906 117.319336 L 401.878906 103.300781 L 402.738281 103.300781 L 402.738281 117.319336 Z " fill="black" fill-opacity="1.000000"/>
<path d="M 83.892578 98.797852 L 83.892578 96.950195 L 90.729980 96.950195 L 90.729980 98.797852 Z " fill="black" fill-opacity="1.000000"/>
<path d="M 90.892578 98.797852 L 90.892578 96.950195 L 97.729980 96.950195 L 97.729980 98.797852 Z " fill="black" fill-opacity="1.000000"/>
<path d="M 97.892578 98.797852 L 97.892578 96.950195 L 104.729980 96.950195 L 104.729980 98.797852 Z " fill="black" fill-opacity="1.000000"/>
<path d="M 104.892578 98.797852 L 104.892578 96.950195 L 111.729980 96.950195 L 111.729980 98.797852 Z " fill="black" fill-opacity="1.000000"/>
<path d="M 111.892578 98.797852 L 111.892578 96.950195 L 118.729980 96.950195 L 118.729980 98.797852 Z " fill="black" fill-opacity="1.000000"/>
<path d="M 118.892578 98.797852 L 118.892578 96.950195 L 125.729980 96.950195 L 125.729980 98.797852 Z " fill="black" fill-opacity="1.000000"/>
<path d="M 125.892578 98.797852 L 125.892578 96.950195 L 132.729980 96.950195 L 132.729980 98.797852 Z " fill="black" fill-opacity="1.000000"/>
<path d="M 132.892578 98.797852 L 132.892578 96.950195 L 139.729980 96.950195 L 139.729980 98.797852 Z " fill="black" fill-opacity="1.000000"/>
<path d="M 142.878906 104.319336 L 142.878906 98.797852 L 139.892578 98.797852 L 139.892578 96.950195 L 142.878906 96.950195 L 142.878906 90.300781 L 143.738281 90.300781 L 143.738281 104.319336 Z " fill="black" fill-opacity="1.000000"/>
<path d="M 149.878906 104.319336 L 149.878906 90.300781 L 150.738281 90.300781 L 150.738281 104.319336 Z " fill="black" fill-opacity="1.000000"/>
<path d="M 154.032227 98.142578 L 160.590332 94.866211 L 160.590332 101.418945 Z " fill="black" fill-opacity="1.000000"/>
<path d="M 160.892578 98.335938 L 160.892578 97.412109 L 167.729980 97.412109 L 167.729980 98.335938 Z " fill="black" fill-opacity="1.000000"/>
<path d="M 170.878906 104.319336 L 170.878906 98.335938 L 167.892578 98.335938 L 167.892578 97.412109 L 170.878906 97.412109 L 170.878906 90.300781 L 171.738281 90.300781 L 171.738281 104.319336 Z " fill="black" fill-opacity="1.000000"/>
<path d="M 177.143066 93.872559 L 177.143066 96.885742 L 178.399902 96.885742 Q 179.151855 96.885742 179.573486 96.488281 Q 179.995117 96.090820 179.995117 95.376465 Q 179.995117 94.662109 179.576172 94.267334 Q 179.157227 93.872559 178.399902 93.872559 Z M 176.058105 92.980957 L 178.399902 92.980957 Q 179.742676 92.980957 180.435547 93.590576 Q 181.128418 94.200195 181.128418 95.376465 Q 181.128418 96.563477 180.438232 97.170410 Q 179.748047 97.777344 178.399902 97.777344 L 177.143066 97.777344 L 177.143066 101.000000 L 176.058105 101.000000 Z " fill="black" fill-opacity="1.000000"/>
<path d="M 187.763184 100.715332 Q 187.349609 100.935547 186.914551 101.045654 Q 186.479492 101.155762 185.990723 101.155762 Q 184.449219 101.155762 183.597900 100.065430 Q 182.746582 98.975098 182.746582 96.998535 Q 182.746582 95.032715 183.603271 93.934326 Q 184.459961 92.835938 185.990723 92.835938 Q 186.479492 92.835938 186.914551 92.946045 Q 187.349609 93.056152 187.763184 93.276367 L 187.763184 94.388184 Q 187.365723 94.060547 186.909180 93.888672 Q 186.452637 93.716797 185.990723 93.716797 Q 184.932617 93.716797 184.406250 94.533203 Q 183.879883 95.349609 183.879883 96.998535 Q 183.879883 98.642090 184.406250 99.458496 Q 184.932617 100.274902 185.990723 100.274902 Q 186.463379 100.274902 186.917236 100.103027 Q 187.371094 99.931152 187.763184 99.603516 Z " fill="black" fill-opacity="1.000000"/>
<path d="M 190.981934 96.955566 L 190.981934 100.108398 L 192.265625 100.108398 Q 193.210938 100.108398 193.613770 99.778076 Q 194.016602 99.447754 194.016602 98.690430 Q 194.016602 97.691406 193.592285 97.323486 Q 193.167969 96.955566 192.265625 96.955566 Z M 190.981934 93.872559 L 190.981934 96.074707 L 192.244141 96.074707 Q 193.028320 96.074707 193.380127 95.773926 Q 193.731934 95.473145 193.731934 95.016602 Q 193.731934 94.409668 193.385498 94.141113 Q 193.039062 93.872559 192.244141 93.872559 Z M 189.891602 92.980957 L 192.265625 92.980957 Q 193.495605 92.980957 194.161621 93.512695 Q 194.827637 94.044434 194.827637 95.016602 Q 194.827637 95.537598 194.475830 95.961914 Q 194.124023 96.386230 193.420410 96.493652 Q 194.209961 96.611816 194.658447 97.167725 Q 195.106934 97.723633 195.106934 98.797852 Q 195.106934 99.888184 194.392578 100.444092 Q 193.678223 101.000000 192.265625 101.000000 L 189.891602 101.000000 Z " fill="black" fill-opacity="1.000000"/>
<path d="M 206.770508 97.976074 L 206.442871 97.976074 Q 205.578125 97.976074 205.140381 98.279541 Q 204.702637 98.583008 204.702637 99.184570 Q 204.702637 99.727051 205.030273 100.027832 Q 205.357910 100.328613 205.937988 100.328613 Q 206.754395 100.328613 207.221680 99.761963 Q 207.688965 99.195312 207.694336 98.196289 L 207.694336 97.976074 Z M 208.687988 97.567871 L 208.687988 101.000000 L 207.694336 101.000000 L 207.694336 100.108398 Q 207.377441 100.645508 206.896729 100.900635 Q 206.416016 101.155762 205.728516 101.155762 Q 204.810059 101.155762 204.262207 100.637451 Q 203.714355 100.119141 203.714355 99.249023 Q 203.714355 98.244629 204.388428 97.723633 Q 205.062500 97.202637 206.367676 97.202637 L 207.694336 97.202637 L 207.694336 97.046875 Q 207.688965 96.327148 207.329102 96.002197 Q 206.969238 95.677246 206.179688 95.677246 Q 205.674805 95.677246 205.159180 95.822266 Q 204.643555 95.967285 204.154785 96.246582 L 204.154785 95.258301 Q 204.702637 95.048828 205.204834 94.944092 Q 205.707031 94.839355 206.179688 94.839355 Q 206.926270 94.839355 207.455322 95.059570 Q 207.984375 95.279785 208.312012 95.720215 Q 208.516113 95.988770 208.602051 96.383545 Q 208.687988 96.778320 208.687988 97.567871 Z " fill="black" fill-opacity="1.000000"/>
<path d="M 212.878906 104.319336 L 212.878906 90.300781 L 213.738281 90.300781 L 213.738281 104.319336 Z " fill="black" fill-opacity="1.000000"/>
<path d="M 226.878906 104.319336 L 226.878906 90.300781 L 227.738281 90.300781 L 227.738281 104.319336 Z " fill="black" fill-opacity="1.000000"/>
<path d="M 254.878906 104.319336 L 254.878906 90.300781 L 255.738281 90.300781 L 255.738281 104.319336 Z " fill="black" fill-opacity="1.000000"/>
<path d="M 268.878906 104.319336 L 268.878906 90.300781 L 269.738281 90.300781 L 269.738281 104.319336 Z " fill="black" fill-opacity="1.000000"/>
<path d="M 275.143066 93.872559 L 275.143066 96.885742 L 276.399902 96.885742 Q 277.151855 96.885742 277.573486 96.488281 Q 277.995117 96.090820 277.995117 95.376465 Q 277.995117 94.662109 277.576172 94.267334 Q 277.157227 93.872559 276.399902 93.872559 Z M 274.058105 92.980957 L 276.399902 92.980957 Q 277.742676 92.980957 278.435547 93.590576 Q 279.128418 94.200195 279.128418 95.376465 Q 279.128418 96.563477 278.438232 97.170410 Q 277.748047 97.777344 276.399902 97.777344 L 275.143066 97.777344 L 275.143066 101.000000 L 274.058105 101.000000 Z " fill="black" fill-opacity="1.000000"/>
<path d="M 285.763184 100.715332 Q 285.349609 100.935547 284.914551 101.045654 Q 284.479492 101.155762 283.990723 101.155762 Q 282.449219 101.155762 281.597900 100.065430 Q 280.746582 98.975098 280.746582 96.998535 Q 280.746582 95.032715 281.603271 93.934326 Q 282.459961 92.835938 283.990723 92.835938 Q 284.479492 92.835938 284.914551 92.946045 Q 285.349609 93.056152 285.763184 93.276367 L 285.763184 94.388184 Q 285.365723 94.060547 284.909180 93.888672 Q 284.452637 93.716797 283.990723 93.716797 Q 282.932617 93.716797 282.406250 94.533203 Q 281.879883 95.349609 281.879883 96.998535 Q 281.879883 98.642090 282.406250 99.458496 Q 282.932617 100.274902 283.990723 100.274902 Q 284.463379 100.274902 284.917236 100.103027 Q 285.371094 99.931152 285.763184 99.603516 Z " fill="black" fill-opacity="1.000000"/>
<path d="M 288.981934 96.955566 L 288.981934 100.108398 L 290.265625 100.108398 Q 291.210938 100.108398 291.613770 99.778076 Q 292.016602 99.447754 292.016602 98.690430 Q 292.016602 97.691406 291.592285 97.323486 Q 291.167969 96.955566 290.265625 96.955566 Z M 288.981934 93.872559 L 288.981934 96.074707 L 290.244141 96.074707 Q 291.028320 96.074707 291.380127 95.773926 Q 291.731934 95.473145 291.731934 95.016602 Q 291.731934 94.409668 291.385498 94.141113 Q 291.039062 93.872559 290.244141 93.872559 Z M 287.891602 92.980957 L 290.265625 92.980957 Q 291.495605 92.980957 292.161621 93.512695 Q 292.827637 94.044434 292.827637 95.016602 Q 292.827637 95.537598 292.475830 95.961914 Q 292.124023 96.386230 291.420410 96.493652 Q 292.209961 96.611816 292.658447 97.167725 Q 293.106934 97.723633 293.106934 98.797852 Q 293.106934 99.888184 292.392578 100.444092 Q 291.678223 101.000000 290.265625 101.000000 L 287.891602 101.000000 Z " fill="black" fill-opacity="1.000000"/>
<path d="M 305.930664 97.997559 Q 305.930664 96.848145 305.565430 96.262695 Q 305.200195 95.677246 304.485840 95.677246 Q 303.766113 95.677246 303.395508 96.265381 Q 303.024902 96.853516 303.024902 97.997559 Q 303.024902 99.136230 303.395508 99.727051 Q 303.766113 100.317871 304.485840 100.317871 Q 305.200195 100.317871 305.565430 99.732422 Q 305.930664 99.146973 305.930664 97.997559 Z M 303.024902 95.752441 Q 303.261230 95.312012 303.677490 95.075684 Q 304.093750 94.839355 304.641602 94.839355 Q 305.726562 94.839355 306.349609 95.674561 Q 306.972656 96.509766 306.972656 97.976074 Q 306.972656 99.463867 306.346924 100.309814 Q 305.721191 101.155762 304.630859 101.155762 Q 304.093750 101.155762 303.682861 100.922119 Q 303.271973 100.688477 303.024902 100.242676 L 303.024902 101.000000 L 302.036621 101.000000 L 302.036621 92.642578 L 303.024902 92.642578 Z " fill="black" fill-opacity="1.000000"/>
<path d="M 310.878906 104.319336 L 310.878906 90.300781 L 311.738281 90.300781 L 311.738281 97.412109 L 314.729980 97.412109 L 314.729980 98.335938 L 311.738281 98.335938 L 311.738281 104.319336 Z " fill="black" fill-opacity="1.000000"/>
<path d="M 314.892578 98.335938 L 314.892578 97.412109 L 321.729980 97.412109 L 321.729980 98.335938 Z " fill="black" fill-opacity="1.000000"/>
<path d="M 322.032227 101.418945 L 322.032227 94.866211 L 328.590332 98.142578 Z " fill="black" fill-opacity="1.000000"/>
<path d="M 331.878906 104.319336 L 331.878906 90.300781 L 332.738281 90.300781 L 332.738281 104.319336 Z " fill="black" fill-opacity="1.000000"/>
<path d="M 338.878906 104.319336 L 338.878906 90.300781 L 339.738281 90.300781 L 339.738281 96.950195 L 342.729980 96.950195 L 342.729980 98.797852 L 339.738281 98.797852 L 339.738281 104.319336 Z " fill="black" fill-opacity="1.000000"/>
<path d="M 342.892578 98.797852 L 342.892578 96.950195 L 349.729980 96.950195 L 349.729980 98.797852 Z " fill="black" fill-opacity="1.000000"/>
<path d="M 349.892578 98.797852 L 349.892578 96.950195 L 356.729980 96.950195 L 356.729980 98.797852 Z " fill="black" fill-opacity="1.000000"/>
<path d="M 356.892578 98.797852 L 356.892578 96.950195 L 363.729980 96.950195 L 363.729980 98.797852 Z " fill="black" fill-opacity="1.000000"/>
<path d="M 363.892578 98.797852 L 363.892578 96.950195 L 370.729980 96.950195 L 370.729980 98.797852 Z " fill="black" fill-opacity="1.000000"/>
<path d="M 370.892578 98.797852 L 370.892578 96.950195 L 377.729980 96.950195 L 377.729980 98.797852 Z " fill="black" fill-opacity="1.000000"/>
<path d="M 377.892578 98.797852 L 377.892578 96.950195 L 384.729980 96.950195 L 384.729980 98.797852 Z " fill="black" fill-opacity="1.000000"/>
<path d="M 384.892578 98.797852 L 384.892578 96.950195 L 391.729980 96.950195 L 391.729980 98.797852 Z " fill="black" fill-opacity="1.000000"/>
<path d="M 391.892578 98.797852 L 391.892578 96.950195 L 398.729980 96.950195 L 398.729980 98.797852 Z " fill="black" fill-opacity="1.000000"/>
<path d="M 401.878906 104.319336 L 401.878906 98.797852 L 398.892578 98.797852 L 398.892578 96.950195 L 401.878906 96.950195 L 401.878906 90.300781 L 402.738281 90.300781 L 402.738281 104.319336 Z " fill="black" fill-opacity="1.000000"/>
<path d="M 93.143066 80.872559 L 93.143066 83.885742 L 94.399902 83.885742 Q 95.151855 83.885742 95.573486 83.488281 Q 95.995117 83.090820 95.995117 82.376465 Q 95.995117 81.662109 95.576172 81.267334 Q 95.157227 80.872559 94.399902 80.872559 Z M 92.058105 79.980957 L 94.399902 79.980957 Q 95.742676 79.980957 96.435547 80.590576 Q 97.128418 81.200195 97.128418 82.376465 Q 97.128418 83.563477 96.438232 84.170410 Q 95.748047 84.777344 94.399902 84.777344 L 93.143066 84.777344 L 93.143066 88.000000 L 92.058105 88.000000 Z " fill="black" fill-opacity="1.000000"/>
<path d="M 103.763184 87.715332 Q 103.349609 87.935547 102.914551 88.045654 Q 102.479492 88.155762 101.990723 88.155762 Q 100.449219 88.155762 99.597900 87.065430 Q 98.746582 85.975098 98.746582 83.998535 Q 98.746582 82.032715 99.603271 80.934326 Q 100.459961 79.835938 101.990723 79.835938 Q 102.479492 79.835938 102.914551 79.946045 Q 103.349609 80.056152 103.763184 80.276367 L 103.763184 81.388184 Q 103.365723 81.060547 102.909180 80.888672 Q 102.452637 80.716797 101.990723 80.716797 Q 100.932617 80.716797 100.406250 81.533203 Q 99.879883 82.349609 99.879883 83.998535 Q 99.879883 85.642090 100.406250 86.458496 Q 100.932617 87.274902 101.990723 87.274902 Q 102.463379 87.274902 102.917236 87.103027 Q 103.371094 86.931152 103.763184 86.603516 Z " fill="black" fill-opacity="1.000000"/>
<path d="M 106.981934 83.955566 L 106.981934 87.108398 L 108.265625 87.108398 Q 109.210938 87.108398 109.613770 86.778076 Q 110.016602 86.447754 110.016602 85.690430 Q 110.016602 84.691406 109.592285 84.323486 Q 109.167969 83.955566 108.265625 83.955566 Z M 106.981934 80.872559 L 106.981934 83.074707 L 108.244141 83.074707 Q 109.028320 83.074707 109.380127 82.773926 Q 109.731934 82.473145 109.731934 82.016602 Q 109.731934 81.409668 109.385498 81.141113 Q 109.039062 80.872559 108.244141 80.872559 Z M 105.891602 79.980957 L 108.265625 79.980957 Q 109.495605 79.980957 110.161621 80.512695 Q 110.827637 81.044434 110.827637 82.016602 Q 110.827637 82.537598 110.475830 82.961914 Q 110.124023 83.386230 109.420410 83.493652 Q 110.209961 83.611816 110.658447 84.167725 Q 111.106934 84.723633 111.106934 85.797852 Q 111.106934 86.888184 110.392578 87.444092 Q 109.678223 88.000000 108.265625 88.000000 L 105.891602 88.000000 Z " fill="black" fill-opacity="1.000000"/>
<path d="M 122.770508 84.976074 L 122.442871 84.976074 Q 121.578125 84.976074 121.140381 85.279541 Q 120.702637 85.583008 120.702637 86.184570 Q 120.702637 86.727051 121.030273 87.027832 Q 121.357910 87.328613 121.937988 87.328613 Q 122.754395 87.328613 123.221680 86.761963 Q 123.688965 86.195312 123.694336 85.196289 L 123.694336 84.976074 Z M 124.687988 84.567871 L 124.687988 88.000000 L 123.694336 88.000000 L 123.694336 87.108398 Q 123.377441 87.645508 122.896729 87.900635 Q 122.416016 88.155762 121.728516 88.155762 Q 120.810059 88.155762 120.262207 87.637451 Q 119.714355 87.119141 119.714355 86.249023 Q 119.714355 85.244629 120.388428 84.723633 Q 121.062500 84.202637 122.367676 84.202637 L 123.694336 84.202637 L 123.694336 84.046875 Q 123.688965 83.327148 123.329102 83.002197 Q 122.969238 82.677246 122.179688 82.677246 Q 121.674805 82.677246 121.159180 82.822266 Q 120.643555 82.967285 120.154785 83.246582 L 120.154785 82.258301 Q 120.702637 82.048828 121.204834 81.944092 Q 121.707031 81.839355 122.179688 81.839355 Q 122.926270 81.839355 123.455322 82.059570 Q 123.984375 82.279785 124.312012 82.720215 Q 124.516113 82.988770 124.602051 83.383545 Q 124.687988 83.778320 124.687988 84.567871 Z " fill="black" fill-opacity="1.000000"/>
<path d="M 142.878906 91.319336 L 142.878906 77.300781 L 143.738281 77.300781 L 143.738281 91.319336 Z " fill="black" fill-opacity="1.000000"/>
<path d="M 149.878906 91.319336 L 149.878906 77.300781 L 150.738281 77.300781 L 150.738281 91.319336 Z " fill="black" fill-opacity="1.000000"/>
<path d="M 170.878906 91.319336 L 170.878906 84.412109 L 174.729980 84.412109 L 174.729980 85.335938 L 171.738281 85.335938 L 171.738281 91.319336 Z " fill="black" fill-opacity="1.000000"/>
<path d="M 174.892578 85.335938 L 174.892578 84.412109 L 181.729980 84.412109 L 181.729980 85.335938 Z " fill="black" fill-opacity="1.000000"/>
<path d="M 181.892578 85.335938 L 181.892578 84.412109 L 188.729980 84.412109 L 188.729980 85.335938 Z " fill="black" fill-opacity="1.000000"/>
<path d="M 188.892578 85.335938 L 188.892578 84.412109 L 195.729980 84.412109 L 195.729980 85.335938 Z " fill="black" fill-opacity="1.000000"/>
<path d="M 195.892578 85.335938 L 195.892578 84.412109 L 202.729980 84.412109 L 202.729980 85.335938 Z " fill="black" fill-opacity="1.000000"/>
<path d="M 202.892578 85.335938 L 202.892578 84.412109 L 209.729980 84.412109 L 209.729980 85.335938 Z " fill="black" fill-opacity="1.000000"/>
<path d="M 212.878906 91.319336 L 212.878906 85.335938 L 209.892578 85.335938 L 209.892578 84.412109 L 213.738281 84.412109 L 213.738281 91.319336 Z " fill="black" fill-opacity="1.000000"/>
<path d="M 226.878906 91.319336 L 226.878906 77.300781 L 227.738281 77.300781 L 227.738281 91.319336 Z " fill="black" fill-opacity="1.000000"/>
<path d="M 254.878906 91.319336 L 254.878906 77.300781 L 255.738281 77.300781 L 255.738281 91.319336 Z " fill="black" fill-opacity="1.000000"/>
<path d="M 268.878906 91.319336 L 268.878906 84.412109 L 272.729980 84.412109 L 272.729980 85.335938 L 269.738281 85.335938 L 269.738281 91.319336 Z " fill="black" fill-opacity="1.000000"/>
<path d="M 272.892578 85.335938 L 272.892578 84.412109 L 279.729980 84.412109 L 279.729980 85.335938 Z " fill="black" fill-opacity="1.000000"/>
<path d="M 279.892578 85.335938 L 279.892578 84.412109 L 286.729980 84.412109 L 286.729980 85.335938 Z " fill="black" fill-opacity="1.000000"/>
<path d="M 286.892578 85.335938 L 286.892578 84.412109 L 293.729980 84.412109 L 293.729980 85.335938 Z " fill="black" fill-opacity="1.000000"/>
<path d="M 293.892578 85.335938 L 293.892578 84.412109 L 300.729980 84.412109 L 300.729980 85.335938 Z " fill="black" fill-opacity="1.000000"/>
<path d="M 300.892578 85.335938 L 300.892578 84.412109 L 307.729980 84.412109 L 307.729980 85.335938 Z " fill="black" fill-opacity="1.000000"/>
<path d="M 310.878906 91.319336 L 310.878906 85.335938 L 307.892578 85.335938 L 307.892578 84.412109 L 311.738281 84.412109 L 311.738281 91.319336 Z " fill="black" fill-opacity="1.000000"/>
<path d="M 331.878906 91.319336 L 331.878906 77.300781 L 332.738281 77.300781 L 332.738281 91.319336 Z " fill="black" fill-opacity="1.000000"/>
<path d="M 338.878906 91.319336 L 338.878906 77.300781 L 339.738281 77.300781 L 339.738281 91.319336 Z " fill="black" fill-opacity="1.000000"/>
<path d="M 352.143066 80.872559 L 352.143066 83.885742 L 353.399902 83.885742 Q 354.151855 83.885742 354.573486 83.488281 Q 354.995117 83.090820 354.995117 82.376465 Q 354.995117 81.662109 354.576172 81.267334 Q 354.157227 80.872559 353.399902 80.872559 Z M 351.058105 79.980957 L 353.399902 79.980957 Q 354.742676 79.980957 355.435547 80.590576 Q 356.128418 81.200195 356.128418 82.376465 Q 356.128418 83.563477 355.438232 84.170410 Q 354.748047 84.777344 353.399902 84.777344 L 352.143066 84.777344 L 352.143066 88.000000 L 351.058105 88.000000 Z " fill="black" fill-opacity="1.000000"/>
<path d="M 362.763184 87.715332 Q 362.349609 87.935547 361.914551 88.045654 Q 361.479492 88.155762 360.990723 88.155762 Q 359.449219 88.155762 358.597900 87.065430 Q 357.746582 85.975098 357.746582 83.998535 Q 357.746582 82.032715 358.603271 80.934326 Q 359.459961 79.835938 360.990723 79.835938 Q 361.479492 79.835938 361.914551 79.946045 Q 362.349609 80.056152 362.763184 80.276367 L 362.763184 81.388184 Q 362.365723 81.060547 361.909180 80.888672 Q 361.452637 80.716797 360.990723 80.716797 Q 359.932617 80.716797 359.406250 81.533203 Q 358.879883 82.349609 358.879883 83.998535 Q 358.879883 85.642090 359.406250 86.458496 Q 359.932617 87.274902 360.990723 87.274902 Q 361.463379 87.274902 361.917236 87.103027 Q 362.371094 86.931152 362.763184 86.603516 Z " fill="black" fill-opacity="1.000000"/>
<path d="M 365.981934 83.955566 L 365.981934 87.108398 L 367.265625 87.108398 Q 368.210938 87.108398 368.613770 86.778076 Q 369.016602 86.447754 369.016602 85.690430 Q 369.016602 84.691406 368.592285 84.323486 Q 368.167969 83.955566 367.265625 83.955566 Z M 365.981934 80.872559 L 365.981934 83.074707 L 367.244141 83.074707 Q 368.028320 83.074707 368.380127 82.773926 Q 368.731934 82.473145 368.731934 82.016602 Q 368.731934 81.409668 368.385498 81.141113 Q 368.039062 80.872559 367.244141 80.872559 Z M 364.891602 79.980957 L 367.265625 79.980957 Q 368.495605 79.980957 369.161621 80.512695 Q 369.827637 81.044434 369.827637 82.016602 Q 369.827637 82.537598 369.475830 82.961914 Q 369.124023 83.386230 368.420410 83.493652 Q 369.209961 83.611816 369.658447 84.167725 Q 370.106934 84.723633 370.106934 85.797852 Q 370.106934 86.888184 369.392578 87.444092 Q 368.678223 88.000000 367.265625 88.000000 L 364.891602 88.000000 Z " fill="black" fill-opacity="1.000000"/>
<path d="M 382.930664 84.997559 Q 382.930664 83.848145 382.565430 83.262695 Q 382.200195 82.677246 381.485840 82.677246 Q 380.766113 82.677246 380.395508 83.265381 Q 380.024902 83.853516 380.024902 84.997559 Q 380.024902 86.136230 380.395508 86.727051 Q 380.766113 87.317871 381.485840 87.317871 Q 382.200195 87.317871 382.565430 86.732422 Q 382.930664 86.146973 382.930664 84.997559 Z M 380.024902 82.752441 Q 380.261230 82.312012 380.677490 82.075684 Q 381.093750 81.839355 381.641602 81.839355 Q 382.726562 81.839355 383.349609 82.674561 Q 383.972656 83.509766 383.972656 84.976074 Q 383.972656 86.463867 383.346924 87.309814 Q 382.721191 88.155762 381.630859 88.155762 Q 381.093750 88.155762 380.682861 87.922119 Q 380.271973 87.688477 380.024902 87.242676 L 380.024902 88.000000 L 379.036621 88.000000 L 379.036621 79.642578 L 380.024902 79.642578 Z " fill="black" fill-opacity="1.000000"/>
<path d="M 401.878906 91.319336 L 401.878906 77.300781 L 402.738281 77.300781 L 402.738281 91.319336 Z " fill="black" fill-opacity="1.000000"/>
<path d="M 83.892578 72.335938 L 83.892578 71.412109 L 90.729980 71.412109 L 90.729980 72.335938 Z " fill="black" fill-opacity="1.000000"/>
<path d="M 90.892578 72.335938 L 90.892578 71.412109 L 97.729980 71.412109 L 97.729980 72.335938 Z " fill="black" fill-opacity="1.000000"/>
<path d="M 97.892578 72.335938 L 97.892578 71.412109 L 104.729980 71.412109 L 104.729980 72.335938 Z " fill="black" fill-opacity="1.000000"/>
<path d="M 104.892578 72.335938 L 104.892578 71.412109 L 111.729980 71.412109 L 111.729980 72.335938 Z " fill="black" fill-opacity="1.000000"/>
<path d="M 111.892578 72.335938 L 111.892578 71.412109 L 118.729980 71.412109 L 118.729980 72.335938 Z " fill="black" fill-opacity="1.000000"/>
<path d="M 118.892578 72.335938 L 118.892578 71.412109 L 125.729980 71.412109 L 125.729980 72.335938 Z " fill="black" fill-opacity="1.000000"/>
<path d="M 125.892578 72.335938 L 125.892578 71.412109 L 132.729980 71.412109 L 132.729980 72.335938 Z " fill="black" fill-opacity="1.000000"/>
<path d="M 132.892578 72.335938 L 132.892578 71.412109 L 139.729980 71.412109 L 139.729980 72.335938 Z " fill="black" fill-opacity="1.000000"/>
<path d="M 142.878906 78.319336 L 142.878906 72.335938 L 139.892578 72.335938 L 139.892578 71.412109 L 143.738281 71.412109 L 143.738281 78.319336 Z " fill="black" fill-opacity="1.000000"/>
<path d="M 149.878906 78.319336 L 149.878906 72.335938 L 146.892578 72.335938 L 146.892578 71.412109 L 150.738281 71.412109 L 150.738281 78.319336 Z " fill="black" fill-opacity="1.000000"/>
<path d="M 227.673828 67.131348 L 227.190430 69.032715 L 228.506348 69.032715 L 228.995117 67.131348 L 229.854492 67.131348 L 229.365723 69.032715 L 230.676270 69.032715 L 230.676270 69.854492 L 229.166992 69.854492 L 228.640625 71.965332 L 229.983398 71.965332 L 229.983398 72.787109 L 228.431152 72.787109 L 227.872559 75.000000 L 227.013184 75.000000 L 227.577148 72.787109 L 226.255859 72.787109 L 225.691895 75.000000 L 224.837891 75.000000 L 225.396484 72.787109 L 224.010742 72.787109 L 224.010742 71.965332 L 225.605957 71.965332 L 226.132324 69.854492 L 224.703613 69.854492 L 224.703613 69.032715 L 226.331055 69.032715 L 226.814453 67.131348 Z M 228.307617 69.854492 L 226.991699 69.854492 L 226.465332 71.965332 L 227.786621 71.965332 Z " fill="black" fill-opacity="1.000000"/>
<path d="M 255.673828 67.131348 L 255.190430 69.032715 L 256.506348 69.032715 L 256.995117 67.131348 L 257.854492 67.131348 L 257.365723 69.032715 L 258.676270 69.032715 L 258.676270 69.854492 L 257.166992 69.854492 L 256.640625 71.965332 L 257.983398 71.965332 L 257.983398 72.787109 L 256.431152 72.787109 L 255.872559 75.000000 L 255.013184 75.000000 L 255.577148 72.787109 L 254.255859 72.787109 L 253.691895 75.000000 L 252.837891 75.000000 L 253.396484 72.787109 L 252.010742 72.787109 L 252.010742 71.965332 L 253.605957 71.965332 L 254.132324 69.854492 L 252.703613 69.854492 L 252.703613 69.032715 L 254.331055 69.032715 L 254.814453 67.131348 Z M 256.307617 69.854492 L 254.991699 69.854492 L 254.465332 71.965332 L 255.786621 71.965332 Z " fill="black" fill-opacity="1.000000"/>
<path d="M 331.878906 78.319336 L 331.878906 71.412109 L 335.729980 71.412109 L 335.729980 72.335938 L 332.738281 72.335938 L 332.738281 78.319336 Z " fill="black" fill-opacity="1.000000"/>
<path d="M 338.878906 78.319336 L 338.878906 71.412109 L 342.729980 71.412109 L 342.729980 72.335938 L 339.738281 72.335938 L 339.738281 78.319336 Z " fill="black" fill-opacity="1.000000"/>
<path d="M 342.892578 72.335938 L 342.892578 71.412109 L 349.729980 71.412109 L 349.729980 72.335938 Z " fill="black" fill-opacity="1.000000"/>
<path d="M 349.892578 72.335938 L 349.892578 71.412109 L 356.729980 71.412109 L 356.729980 72.335938 Z " fill="black" fill-opacity="1.000000"/>
<path d="M 356.892578 72.335938 L 356.892578 71.412109 L 363.729980 71.412109 L 363.729980 72.335938 Z " fill="black" fill-opacity="1.000000"/>
<path d="M 363.892578 72.335938 L 363.892578 71.412109 L 370.729980 71.412109 L 370.729980 72.335938 Z " fill="black" fill-opacity="1.000000"/>
<path d="M 370.892578 72.335938 L 370.892578 71.412109 L 377.729980 71.412109 L 377.729980 72.335938 Z " fill="black" fill-opacity="1.000000"/>
<path d="M 377.892578 72.335938 L 377.892578 71.412109 L 384.729980 71.412109 L 384.729980 72.335938 Z " fill="black" fill-opacity="1.000000"/>
<path d="M 384.892578 72.335938 L 384.892578 71.412109 L 391.729980 71.412109 L 391.729980 72.335938 Z " fill="black" fill-opacity="1.000000"/>
<path d="M 391.892578 72.335938 L 391.892578 71.412109 L 398.729980 71.412109 L 398.729980 72.335938 Z " fill="black" fill-opacity="1.000000"/>
<path d="M 401.878906 78.319336 L 401.878906 72.335938 L 398.892578 72.335938 L 398.892578 71.412109 L 402.738281 71.412109 L 402.738281 78.319336 Z " fill="black" fill-opacity="1.000000"/>
<path d="M 191.878906 13.319336 L 191.878906 6.412109 L 195.729980 6.412109 L 195.729980 7.335938 L 192.738281 7.335938 L 192.738281 13.319336 Z " fill="black" fill-opacity="1.000000"/>
<path d="M 191.878906 26.319336 L 191.878906 12.300781 L 192.738281 12.300781 L 192.738281 26.319336 Z " fill="black" fill-opacity="1.000000"/>
<path d="M 191.878906 39.319336 L 191.878906 25.300781 L 192.738281 25.300781 L 192.738281 39.319336 Z " fill="black" fill-opacity="1.000000"/>
<path d="M 191.878906 52.319336 L 191.878906 38.300781 L 192.738281 38.300781 L 192.738281 52.319336 Z " fill="black" fill-opacity="1.000000"/>
<path d="M 191.878906 59.335938 L 191.878906 51.300781 L 192.738281 51.300781 L 192.738281 58.412109 L 195.729980 58.412109 L 195.729980 59.335938 Z " fill="black" fill-opacity="1.000000"/>
<path d="M 195.892578 59.335938 L 195.892578 58.412109 L 202.729980 58.412109 L 202.729980 59.335938 Z " fill="black" fill-opacity="1.000000"/>
<path d="M 202.892578 59.335938 L 202.892578 58.412109 L 209.729980 58.412109 L 209.729980 59.335938 Z " fill="black" fill-opacity="1.000000"/>
<path d="M 209.892578 59.335938 L 209.892578 58.412109 L 216.729980 58.412109 L 216.729980 59.335938 Z " fill="black" fill-opacity="1.000000"/>
<path d="M 216.892578 59.335938 L 216.892578 58.412109 L 223.729980 58.412109 L 223.729980 59.335938 Z " fill="black" fill-opacity="1.000000"/>
<path d="M 226.878906 65.319336 L 226.878906 59.335938 L 223.892578 59.335938 L 223.892578 58.412109 L 230.729980 58.412109 L 230.729980 59.335938 L 227.738281 59.335938 L 227.738281 65.319336 Z " fill="black" fill-opacity="1.000000"/>
<path d="M 230.892578 59.335938 L 230.892578 58.412109 L 237.729980 58.412109 L 237.729980 59.335938 Z " fill="black" fill-opacity="1.000000"/>
<path d="M 237.892578 59.335938 L 237.892578 58.412109 L 244.729980 58.412109 L 244.729980 59.335938 Z " fill="black" fill-opacity="1.000000"/>
<path d="M 244.892578 59.335938 L 244.892578 58.412109 L 251.729980 58.412109 L 251.729980 59.335938 Z " fill="black" fill-opacity="1.000000"/>
<path d="M 254.878906 65.319336 L 254.878906 59.335938 L 251.892578 59.335938 L 251.892578 58.412109 L 258.729980 58.412109 L 258.729980 59.335938 L 255.738281 59.335938 L 255.738281 65.319336 Z " fill="black" fill-opacity="1.000000"/>
<path d="M 258.892578 59.335938 L 258.892578 58.412109 L 265.729980 58.412109 L 265.729980 59.335938 Z " fill="black" fill-opacity="1.000000"/>
<path d="M 265.892578 59.335938 L 265.892578 58.412109 L 272.729980 58.412109 L 272.729980 59.335938 Z " fill="black" fill-opacity="1.000000"/>
<path d="M 272.892578 59.335938 L 272.892578 58.412109 L 279.729980 58.412109 L 279.729980 59.335938 Z " fill="black" fill-opacity="1.000000"/>
<path d="M 279.892578 59.335938 L 279.892578 58.412109 L 286.729980 58.412109 L 286.729980 59.335938 Z " fill="black" fill-opacity="1.000000"/>
<path d="M 286.892578 59.335938 L 286.892578 58.412109 L 289.878906 58.412109 L 289.878906 51.300781 L 290.738281 51.300781 L 290.738281 59.335938 Z " fill="black" fill-opacity="1.000000"/>
<path d="M 215.763184 22.715332 Q 215.349609 22.935547 214.914551 23.045654 Q 214.479492 23.155762 213.990723 23.155762 Q 212.449219 23.155762 211.597900 22.065430 Q 210.746582 20.975098 210.746582 18.998535 Q 210.746582 17.032715 211.603271 15.934326 Q 212.459961 14.835938 213.990723 14.835938 Q 214.479492 14.835938 214.914551 14.946045 Q 215.349609 15.056152 215.763184 15.276367 L 215.763184 16.388184 Q 215.365723 16.060547 214.909180 15.888672 Q 214.452637 15.716797 213.990723 15.716797 Q 212.932617 15.716797 212.406250 16.533203 Q 211.879883 17.349609 211.879883 18.998535 Q 211.879883 20.642090 212.406250 21.458496 Q 212.932617 22.274902 213.990723 22.274902 Q 214.463379 22.274902 214.917236 22.103027 Q 215.371094 21.931152 215.763184 21.603516 Z " fill="black" fill-opacity="1.000000"/>
<path d="M 226.003418 48.086914 L 229.687988 48.086914 L 229.687988 49.000000 L 224.816406 49.000000 L 224.816406 48.086914 Q 225.820801 47.028809 226.572754 46.217773 Q 227.324707 45.406738 227.609375 45.073730 Q 228.146484 44.418457 228.334473 44.012939 Q 228.522461 43.607422 228.522461 43.183105 Q 228.522461 42.511719 228.127686 42.130371 Q 227.732910 41.749023 227.045410 41.749023 Q 226.556641 41.749023 226.019531 41.926270 Q 225.482422 42.103516 224.880859 42.463379 L 224.880859 41.367676 Q 225.434082 41.104492 225.968506 40.970215 Q 226.502930 40.835938 227.023926 40.835938 Q 228.200195 40.835938 228.917236 41.461670 Q 229.634277 42.087402 229.634277 43.102539 Q 229.634277 43.618164 229.395264 44.133789 Q 229.156250 44.649414 228.619141 45.272461 Q 228.318359 45.621582 227.746338 46.239258 Q 227.174316 46.856934 226.003418 48.086914 Z " fill="black" fill-opacity="1.000000"/>
<path d="M 253.450195 48.092285 L 255.136719 48.092285 L 255.136719 42.033691 L 253.117188 43.005859 L 253.117188 41.963867 L 255.125977 41.007812 L 256.210938 41.007812 L 256.210938 48.092285 L 257.875977 48.092285 L 257.875977 49.000000 L 253.450195 49.000000 Z " fill="black" fill-opacity="1.000000"/>
<path d="M 289.878906 52.319336 L 289.878906 38.300781 L 290.738281 38.300781 L 290.738281 52.319336 Z " fill="black" fill-opacity="1.000000"/>
<path d="M 289.878906 39.319336 L 289.878906 25.300781 L 290.738281 25.300781 L 290.738281 39.319336 Z " fill="black" fill-opacity="1.000000"/>
<path d="M 220.308594 17.677246 Q 219.556641 17.677246 219.169922 18.262695 Q 218.783203 18.848145 218.783203 19.997559 Q 218.783203 21.141602 219.169922 21.729736 Q 219.556641 22.317871 220.308594 22.317871 Q 221.065918 22.317871 221.452637 21.729736 Q 221.839355 21.141602 221.839355 19.997559 Q 221.839355 18.848145 221.452637 18.262695 Q 221.065918 17.677246 220.308594 17.677246 Z M 220.308594 16.839355 Q 221.560059 16.839355 222.223389 17.650391 Q 222.886719 18.461426 222.886719 19.997559 Q 222.886719 21.539062 222.226074 22.347412 Q 221.565430 23.155762 220.308594 23.155762 Q 219.057129 23.155762 218.396484 22.347412 Q 217.735840 21.539062 217.735840 19.997559 Q 217.735840 18.461426 218.396484 17.650391 Q 219.057129 16.839355 220.308594 16.839355 Z " fill="black" fill-opacity="1.000000"/>
<path d="M 230.203613 18.225098 Q 229.886719 17.978027 229.559082 17.865234 Q 229.231445 17.752441 228.839355 17.752441 Q 227.915527 17.752441 227.426758 18.332520 Q 226.937988 18.912598 226.937988 20.008301 L 226.937988 23.000000 L 225.944336 23.000000 L 225.944336 16.984375 L 226.937988 16.984375 L 226.937988 18.160645 Q 227.185059 17.521484 227.697998 17.180420 Q 228.210938 16.839355 228.914551 16.839355 Q 229.279785 16.839355 229.596680 16.930664 Q 229.913574 17.021973 230.203613 17.215332 Z " fill="black" fill-opacity="1.000000"/>
<path d="M 237.015625 19.498047 L 237.015625 19.981445 L 232.734863 19.981445 L 232.734863 20.013672 Q 232.691895 21.243652 233.204834 21.780762 Q 233.717773 22.317871 234.652344 22.317871 Q 235.125000 22.317871 235.640625 22.167480 Q 236.156250 22.017090 236.741699 21.710938 L 236.741699 22.693848 Q 236.177734 22.924805 235.654053 23.040283 Q 235.130371 23.155762 234.641602 23.155762 Q 233.239746 23.155762 232.450195 22.315186 Q 231.660645 21.474609 231.660645 19.997559 Q 231.660645 18.558105 232.434082 17.698730 Q 233.207520 16.839355 234.496582 16.839355 Q 235.645996 16.839355 236.309326 17.618164 Q 236.972656 18.396973 237.015625 19.498047 Z M 236.027344 19.208008 Q 235.962891 18.584961 235.573486 18.131104 Q 235.184082 17.677246 234.453613 17.677246 Q 233.739258 17.677246 233.277344 18.149902 Q 232.815430 18.622559 232.772461 19.213379 Z " fill="black" fill-opacity="1.000000"/>
<path d="M 248.308594 15.937012 L 247.164551 20.040527 L 249.452637 20.040527 Z M 247.653320 14.980957 L 248.969238 14.980957 L 251.423828 23.000000 L 250.301270 23.000000 L 249.710449 20.910645 L 246.901367 20.910645 L 246.321289 23.000000 L 245.198730 23.000000 Z " fill="black" fill-opacity="1.000000"/>
<path d="M 257.435547 15.254883 L 257.435547 16.355957 Q 256.941406 16.039062 256.444580 15.877930 Q 255.947754 15.716797 255.442871 15.716797 Q 254.674805 15.716797 254.229004 16.073975 Q 253.783203 16.431152 253.783203 17.038086 Q 253.783203 17.569824 254.075928 17.849121 Q 254.368652 18.128418 255.168945 18.316406 L 255.738281 18.445312 Q 256.866211 18.708496 257.381836 19.272461 Q 257.897461 19.836426 257.897461 20.808594 Q 257.897461 21.952637 257.188477 22.554199 Q 256.479492 23.155762 255.125977 23.155762 Q 254.562012 23.155762 253.992676 23.034912 Q 253.423340 22.914062 252.848633 22.672363 L 252.848633 21.517578 Q 253.466309 21.909668 254.016846 22.092285 Q 254.567383 22.274902 255.125977 22.274902 Q 255.947754 22.274902 256.404297 21.906982 Q 256.860840 21.539062 256.860840 20.878418 Q 256.860840 20.276855 256.546631 19.959961 Q 256.232422 19.643066 255.453613 19.471191 L 254.873535 19.336914 Q 253.756348 19.084473 253.251465 18.574219 Q 252.746582 18.063965 252.746582 17.204590 Q 252.746582 16.130371 253.468994 15.483154 Q 254.191406 14.835938 255.389160 14.835938 Q 255.851074 14.835938 256.361328 14.940674 Q 256.871582 15.045410 257.435547 15.254883 Z " fill="black" fill-opacity="1.000000"/>
<path d="M 266.461914 14.980957 L 267.627441 14.980957 L 269.389160 18.004883 L 271.183105 14.980957 L 272.348633 14.980957 L 269.947754 18.751465 L 272.520508 23.000000 L 271.354980 23.000000 L 269.389160 19.546387 L 267.267578 23.000000 L 266.096680 23.000000 L 268.782227 18.751465 Z " fill="black" fill-opacity="1.000000"/>
<path d="M 289.878906 26.319336 L 289.878906 12.300781 L 290.738281 12.300781 L 290.738281 26.319336 Z " fill="black" fill-opacity="1.000000"/>
<path d="M 195.892578 7.335938 L 195.892578 6.412109 L 202.729980 6.412109 L 202.729980 7.335938 Z " fill="black" fill-opacity="1.000000"/>
<path d="M 202.892578 7.335938 L 202.892578 6.412109 L 209.729980 6.412109 L 209.729980 7.335938 Z " fill="black" fill-opacity="1.000000"/>
<path d="M 209.892578 7.335938 L 209.892578 6.412109 L 216.729980 6.412109 L 216.729980 7.335938 Z " fill="black" fill-opacity="1.000000"/>
<path d="M 216.892578 7.335938 L 216.892578 6.412109 L 223.729980 6.412109 L 223.729980 7.335938 Z " fill="black" fill-opacity="1.000000"/>
<path d="M 223.892578 7.335938 L 223.892578 6.412109 L 230.729980 6.412109 L 230.729980 7.335938 Z " fill="black" fill-opacity="1.000000"/>
<path d="M 230.892578 7.335938 L 230.892578 6.412109 L 237.729980 6.412109 L 237.729980 7.335938 Z " fill="black" fill-opacity="1.000000"/>
<path d="M 237.892578 7.335938 L 237.892578 6.412109 L 244.729980 6.412109 L 244.729980 7.335938 Z " fill="black" fill-opacity="1.000000"/>
<path d="M 244.892578 7.335938 L 244.892578 6.412109 L 251.729980 6.412109 L 251.729980 7.335938 Z " fill="black" fill-opacity="1.000000"/>
<path d="M 251.892578 7.335938 L 251.892578 6.412109 L 258.729980 6.412109 L 258.729980 7.335938 Z " fill="black" fill-opacity="1.000000"/>
<path d="M 258.892578 7.335938 L 258.892578 6.412109 L 265.729980 6.412109 L 265.729980 7.335938 Z " fill="black" fill-opacity="1.000000"/>
<path d="M 265.892578 7.335938 L 265.892578 6.412109 L 272.729980 6.412109 L 272.729980 7.335938 Z " fill="black" fill-opacity="1.000000"/>
<path d="M 272.892578 7.335938 L 272.892578 6.412109 L 279.729980 6.412109 L 279.729980 7.335938 Z " fill="black" fill-opacity="1.000000"/>
<path d="M 279.892578 7.335938 L 279.892578 6.412109 L 286.729980 6.412109 L 286.729980 7.335938 Z " fill="black" fill-opacity="1.000000"/>
<path d="M 289.878906 13.319336 L 289.878906 7.335938 L 286.892578 7.335938 L 286.892578 6.412109 L 290.738281 6.412109 L 290.738281 13.319336 Z " fill="black" fill-opacity="1.000000"/>
</svg>
