<?xml version='1.0' encoding='utf-8'?>
<svg xmlns="http://www.w3.org/2000/svg" version="1.1" width="421" height="40" viewBox="0 0 421.0 40.0">
<path d="M 2.878906 13.319336 L 2.878906 6.412109 L 6.729980 6.412109 L 6.729980 7.335938 L 3.738281 7.335938 L 3.738281 13.319336 Z " fill="black" fill-opacity="1.000000"/>
<path d="M 2.878906 26.319336 L 2.878906 12.300781 L 3.738281 12.300781 L 3.738281 26.319336 Z " fill="black" fill-opacity="1.000000"/>
<path d="M 2.878906 33.335938 L 2.878906 25.300781 L 3.738281 25.300781 L 3.738281 32.412109 L 6.729980 32.412109 L 6.729980 33.335938 Z " fill="black" fill-opacity="1.000000"/>
<path d="M 6.892578 33.335938 L 6.892578 32.412109 L 13.729980 32.412109 L 13.729980 33.335938 Z " fill="black" fill-opacity="1.000000"/>
<path d="M 13.892578 33.335938 L 13.892578 32.412109 L 20.729980 32.412109 L 20.729980 33.335938 Z " fill="black" fill-opacity="1.000000"/>
<path d="M 20.892578 33.335938 L 20.892578 32.412109 L 27.729980 32.412109 L 27.729980 33.335938 Z " fill="black" fill-opacity="1.000000"/>
<path d="M 27.892578 33.335938 L 27.892578 32.412109 L 34.729980 32.412109 L 34.729980 33.335938 Z " fill="black" fill-opacity="1.000000"/>
<path d="M 34.892578 33.335938 L 34.892578 32.412109 L 41.729980 32.412109 L 41.729980 33.335938 Z " fill="black" fill-opacity="1.000000"/>
<path d="M 41.892578 33.335938 L 41.892578 32.412109 L 48.729980 32.412109 L 48.729980 33.335938 Z " fill="black" fill-opacity="1.000000"/>
<path d="M 48.892578 33.335938 L 48.892578 32.412109 L 55.729980 32.412109 L 55.729980 33.335938 Z " fill="black" fill-opacity="1.000000"/>
<path d="M 55.892578 33.335938 L 55.892578 32.412109 L 62.729980 32.412109 L 62.729980 33.335938 Z " fill="black" fill-opacity="1.000000"/>
<path d="M 62.892578 33.335938 L 62.892578 32.412109 L 69.729980 32.412109 L 69.729980 33.335938 Z " fill="black" fill-opacity="1.000000"/>
<path d="M 69.892578 33.335938 L 69.892578 32.412109 L 76.729980 32.412109 L 76.729980 33.335938 Z " fill="black" fill-opacity="1.000000"/>
<path d="M 76.892578 33.335938 L 76.892578 32.412109 L 83.729980 32.412109 L 83.729980 33.335938 Z " fill="black" fill-opacity="1.000000"/>
<path d="M 83.892578 33.335938 L 83.892578 32.412109 L 90.729980 32.412109 L 90.729980 33.335938 Z " fill="black" fill-opacity="1.000000"/>
<path d="M 90.892578 33.335938 L 90.892578 32.412109 L 97.729980 32.412109 L 97.729980 33.335938 Z " fill="black" fill-opacity="1.000000"/>
<path d="M 97.892578 33.335938 L 97.892578 32.412109 L 100.878906 32.412109 L 100.878906 25.300781 L 101.738281 25.300781 L 101.738281 32.412109 L 104.729980 32.412109 L 104.729980 33.335938 Z " fill="black" fill-opacity="1.000000"/>
<path d="M 104.892578 33.335938 L 104.892578 32.412109 L 111.729980 32.412109 L 111.729980 33.335938 Z " fill="black" fill-opacity="1.000000"/>
<path d="M 111.892578 33.335938 L 111.892578 32.412109 L 118.729980 32.412109 L 118.729980 33.335938 Z " fill="black" fill-opacity="1.000000"/>
<path d="M 118.892578 33.335938 L 118.892578 32.412109 L 125.729980 32.412109 L 125.729980 33.335938 Z " fill="black" fill-opacity="1.000000"/>
<path d="M 125.892578 33.335938 L 125.892578 32.412109 L 132.729980 32.412109 L 132.729980 33.335938 Z " fill="black" fill-opacity="1.000000"/>
<path d="M 132.892578 33.335938 L 132.892578 32.412109 L 139.729980 32.412109 L 139.729980 33.335938 Z " fill="black" fill-opacity="1.000000"/>
<path d="M 139.892578 33.335938 L 139.892578 32.412109 L 146.729980 32.412109 L 146.729980 33.335938 Z " fill="black" fill-opacity="1.000000"/>
<path d="M 146.892578 33.335938 L 146.892578 32.412109 L 153.729980 32.412109 L 153.729980 33.335938 Z " fill="black" fill-opacity="1.000000"/>
<path d="M 153.892578 33.335938 L 153.892578 32.412109 L 160.729980 32.412109 L 160.729980 33.335938 Z " fill="black" fill-opacity="1.000000"/>
<path d="M 160.892578 33.335938 L 160.892578 32.412109 L 167.729980 32.412109 L 167.729980 33.335938 Z " fill="black" fill-opacity="1.000000"/>
<path d="M 167.892578 33.335938 L 167.892578 32.412109 L 174.729980 32.412109 L 174.729980 33.335938 Z " fill="black" fill-opacity="1.000000"/>
<path d="M 174.892578 33.335938 L 174.892578 32.412109 L 181.729980 32.412109 L 181.729980 33.335938 Z " fill="black" fill-opacity="1.000000"/>
<path d="M 181.892578 33.335938 L 181.892578 32.412109 L 188.729980 32.412109 L 188.729980 33.335938 Z " fill="black" fill-opacity="1.000000"/>
<path d="M 188.892578 33.335938 L 188.892578 32.412109 L 191.878906 32.412109 L 191.878906 25.300781 L 192.738281 25.300781 L 192.738281 32.412109 L 195.729980 32.412109 L 195.729980 33.335938 Z " fill="black" fill-opacity="1.000000"/>
<path d="M 196.547852 32.111328 L 202.241211 32.111328 L 202.241211 33.019043 L 196.547852 33.019043 Z " fill="black" fill-opacity="1.000000"/>
<path d="M 202.892578 33.335938 L 202.892578 32.412109 L 209.729980 32.412109 L 209.729980 33.335938 Z " fill="black" fill-opacity="1.000000"/>
<path d="M 209.892578 33.335938 L 209.892578 32.412109 L 216.729980 32.412109 L 216.729980 33.335938 Z " fill="black" fill-opacity="1.000000"/>
<path d="M 216.892578 33.335938 L 216.892578 32.412109 L 223.729980 32.412109 L 223.729980 33.335938 Z " fill="black" fill-opacity="1.000000"/>
<path d="M 223.892578 33.335938 L 223.892578 32.412109 L 230.729980 32.412109 L 230.729980 33.335938 Z " fill="black" fill-opacity="1.000000"/>
<path d="M 230.892578 33.335938 L 230.892578 32.412109 L 237.729980 32.412109 L 237.729980 33.335938 Z " fill="black" fill-opacity="1.000000"/>
<path d="M 237.892578 33.335938 L 237.892578 32.412109 L 244.729980 32.412109 L 244.729980 33.335938 Z " fill="black" fill-opacity="1.000000"/>
<path d="M 244.892578 33.335938 L 244.892578 32.412109 L 251.729980 32.412109 L 251.729980 33.335938 Z " fill="black" fill-opacity="1.000000"/>
<path d="M 251.892578 33.335938 L 251.892578 32.412109 L 258.729980 32.412109 L 258.729980 33.335938 Z " fill="black" fill-opacity="1.000000"/>
<path d="M 258.892578 33.335938 L 258.892578 32.412109 L 265.729980 32.412109 L 265.729980 33.335938 Z " fill="black" fill-opacity="1.000000"/>
<path d="M 265.892578 33.335938 L 265.892578 32.412109 L 272.729980 32.412109 L 272.729980 33.335938 Z " fill="black" fill-opacity="1.000000"/>
<path d="M 272.892578 33.335938 L 272.892578 32.412109 L 279.729980 32.412109 L 279.729980 33.335938 Z " fill="black" fill-opacity="1.000000"/>
<path d="M 279.892578 33.335938 L 279.892578 32.412109 L 282.878906 32.412109 L 282.878906 25.300781 L 283.738281 25.300781 L 283.738281 32.412109 L 286.729980 32.412109 L 286.729980 33.335938 Z " fill="black" fill-opacity="1.000000"/>
<path d="M 286.892578 33.335938 L 286.892578 32.412109 L 293.729980 32.412109 L 293.729980 33.335938 Z " fill="black" fill-opacity="1.000000"/>
<path d="M 293.892578 33.335938 L 293.892578 32.412109 L 300.729980 32.412109 L 300.729980 33.335938 Z " fill="black" fill-opacity="1.000000"/>
<path d="M 300.892578 33.335938 L 300.892578 32.412109 L 307.729980 32.412109 L 307.729980 33.335938 Z " fill="black" fill-opacity="1.000000"/>
<path d="M 307.892578 33.335938 L 307.892578 32.412109 L 314.729980 32.412109 L 314.729980 33.335938 Z " fill="black" fill-opacity="1.000000"/>
<path d="M 314.892578 33.335938 L 314.892578 32.412109 L 321.729980 32.412109 L 321.729980 33.335938 Z " fill="black" fill-opacity="1.000000"/>
<path d="M 321.892578 33.335938 L 321.892578 32.412109 L 324.878906 32.412109 L 324.878906 25.300781 L 325.738281 25.300781 L 325.738281 32.412109 L 328.729980 32.412109 L 328.729980 33.335938 Z " fill="black" fill-opacity="1.000000"/>
<path d="M 329.547852 32.111328 L 335.241211 32.111328 L 335.241211 33.019043 L 329.547852 33.019043 Z " fill="black" fill-opacity="1.000000"/>
<path d="M 335.892578 33.335938 L 335.892578 32.412109 L 342.729980 32.412109 L 342.729980 33.335938 Z " fill="black" fill-opacity="1.000000"/>
<path d="M 342.892578 33.335938 L 342.892578 32.412109 L 349.729980 32.412109 L 349.729980 33.335938 Z " fill="black" fill-opacity="1.000000"/>
<path d="M 349.892578 33.335938 L 349.892578 32.412109 L 356.729980 32.412109 L 356.729980 33.335938 Z " fill="black" fill-opacity="1.000000"/>
<path d="M 356.892578 33.335938 L 356.892578 32.412109 L 363.729980 32.412109 L 363.729980 33.335938 Z " fill="black" fill-opacity="1.000000"/>
<path d="M 363.892578 33.335938 L 363.892578 32.412109 L 370.729980 32.412109 L 370.729980 33.335938 Z " fill="black" fill-opacity="1.000000"/>
<path d="M 370.892578 33.335938 L 370.892578 32.412109 L 377.729980 32.412109 L 377.729980 33.335938 Z " fill="black" fill-opacity="1.000000"/>
<path d="M 377.892578 33.335938 L 377.892578 32.412109 L 384.729980 32.412109 L 384.729980 33.335938 Z " fill="black" fill-opacity="1.000000"/>
<path d="M 384.892578 33.335938 L 384.892578 32.412109 L 391.729980 32.412109 L 391.729980 33.335938 Z " fill="black" fill-opacity="1.000000"/>
<path d="M 391.892578 33.335938 L 391.892578 32.412109 L 398.729980 32.412109 L 398.729980 33.335938 Z " fill="black" fill-opacity="1.000000"/>
<path d="M 398.892578 33.335938 L 398.892578 32.412109 L 405.729980 32.412109 L 405.729980 33.335938 Z " fill="black" fill-opacity="1.000000"/>
<path d="M 405.892578 33.335938 L 405.892578 32.412109 L 412.729980 32.412109 L 412.729980 33.335938 Z " fill="black" fill-opacity="1.000000"/>
<path d="M 412.892578 33.335938 L 412.892578 32.412109 L 415.878906 32.412109 L 415.878906 25.300781 L 416.738281 25.300781 L 416.738281 33.335938 Z " fill="black" fill-opacity="1.000000"/>
<path d="M 12.435547 15.254883 L 12.435547 16.355957 Q 11.941406 16.039062 11.444580 15.877930 Q 10.947754 15.716797 10.442871 15.716797 Q 9.674805 15.716797 9.229004 16.073975 Q 8.783203 16.431152 8.783203 17.038086 Q 8.783203 17.569824 9.075928 17.849121 Q 9.368652 18.128418 10.168945 18.316406 L 10.738281 18.445312 Q 11.866211 18.708496 12.381836 19.272461 Q 12.897461 19.836426 12.897461 20.808594 Q 12.897461 21.952637 12.188477 22.554199 Q 11.479492 23.155762 10.125977 23.155762 Q 9.562012 23.155762 8.992676 23.034912 Q 8.423340 22.914062 7.848633 22.672363 L 7.848633 21.517578 Q 8.466309 21.909668 9.016846 22.092285 Q 9.567383 22.274902 10.125977 22.274902 Q 10.947754 22.274902 11.404297 21.906982 Q 11.860840 21.539062 11.860840 20.878418 Q 11.860840 20.276855 11.546631 19.959961 Q 11.232422 19.643066 10.453613 19.471191 L 9.873535 19.336914 Q 8.756348 19.084473 8.251465 18.574219 Q 7.746582 18.063965 7.746582 17.204590 Q 7.746582 16.130371 8.468994 15.483154 Q 9.191406 14.835938 10.389160 14.835938 Q 10.851074 14.835938 11.361328 14.940674 Q 11.871582 15.045410 12.435547 15.254883 Z " fill="black" fill-opacity="1.000000"/>
<path d="M 20.015625 19.498047 L 20.015625 19.981445 L 15.734863 19.981445 L 15.734863 20.013672 Q 15.691895 21.243652 16.204834 21.780762 Q 16.717773 22.317871 17.652344 22.317871 Q 18.125000 22.317871 18.640625 22.167480 Q 19.156250 22.017090 19.741699 21.710938 L 19.741699 22.693848 Q 19.177734 22.924805 18.654053 23.040283 Q 18.130371 23.155762 17.641602 23.155762 Q 16.239746 23.155762 15.450195 22.315186 Q 14.660645 21.474609 14.660645 19.997559 Q 14.660645 18.558105 15.434082 17.698730 Q 16.207520 16.839355 17.496582 16.839355 Q 18.645996 16.839355 19.309326 17.618164 Q 19.972656 18.396973 20.015625 19.498047 Z M 19.027344 19.208008 Q 18.962891 18.584961 18.573486 18.131104 Q 18.184082 17.677246 17.453613 17.677246 Q 16.739258 17.677246 16.277344 18.149902 Q 15.815430 18.622559 15.772461 19.213379 Z " fill="black" fill-opacity="1.000000"/>
<path d="M 25.608398 19.943848 Q 25.608398 18.832031 25.245850 18.254639 Q 24.883301 17.677246 24.190430 17.677246 Q 23.465332 17.677246 23.083984 18.254639 Q 22.702637 18.832031 22.702637 19.943848 Q 22.702637 21.055664 23.086670 21.638428 Q 23.470703 22.221191 24.201172 22.221191 Q 24.883301 22.221191 25.245850 21.635742 Q 25.608398 21.050293 25.608398 19.943848 Z M 26.596680 22.613281 Q 26.596680 23.966797 25.957520 24.665039 Q 25.318359 25.363281 24.077637 25.363281 Q 23.669434 25.363281 23.223633 25.288086 Q 22.777832 25.212891 22.332031 25.067871 L 22.332031 24.090332 Q 22.858398 24.337402 23.288086 24.455566 Q 23.717773 24.573730 24.077637 24.573730 Q 24.877930 24.573730 25.243164 24.138672 Q 25.608398 23.703613 25.608398 22.758301 L 25.608398 22.715332 L 25.608398 22.043945 Q 25.372070 22.548828 24.963867 22.795898 Q 24.555664 23.042969 23.970215 23.042969 Q 22.917480 23.042969 22.289062 22.199707 Q 21.660645 21.356445 21.660645 19.943848 Q 21.660645 18.525879 22.289062 17.682617 Q 22.917480 16.839355 23.970215 16.839355 Q 24.550293 16.839355 24.953125 17.070312 Q 25.355957 17.301270 25.608398 17.784668 L 25.608398 17.005859 L 26.596680 17.005859 Z " fill="black" fill-opacity="1.000000"/>
<path d="M 31.630859 17.596680 Q 31.813477 17.209961 32.095459 17.024658 Q 32.377441 16.839355 32.774902 16.839355 Q 33.500000 16.839355 33.798096 17.400635 Q 34.096191 17.961914 34.096191 19.514160 L 34.096191 23.000000 L 33.193848 23.000000 L 33.193848 19.557129 Q 33.193848 18.284180 33.051514 17.975342 Q 32.909180 17.666504 32.533203 17.666504 Q 32.103516 17.666504 31.945068 17.996826 Q 31.786621 18.327148 31.786621 19.557129 L 31.786621 23.000000 L 30.884277 23.000000 L 30.884277 19.557129 Q 30.884277 18.268066 30.731201 17.967285 Q 30.578125 17.666504 30.180664 17.666504 Q 29.788574 17.666504 29.635498 17.996826 Q 29.482422 18.327148 29.482422 19.557129 L 29.482422 23.000000 L 28.585449 23.000000 L 28.585449 16.984375 L 29.482422 16.984375 L 29.482422 17.500000 Q 29.659668 17.177734 29.925537 17.008545 Q 30.191406 16.839355 30.529785 16.839355 Q 30.937988 16.839355 31.209229 17.027344 Q 31.480469 17.215332 31.630859 17.596680 Z " fill="black" fill-opacity="1.000000"/>
<path d="M 41.015625 19.498047 L 41.015625 19.981445 L 36.734863 19.981445 L 36.734863 20.013672 Q 36.691895 21.243652 37.204834 21.780762 Q 37.717773 22.317871 38.652344 22.317871 Q 39.125000 22.317871 39.640625 22.167480 Q 40.156250 22.017090 40.741699 21.710938 L 40.741699 22.693848 Q 40.177734 22.924805 39.654053 23.040283 Q 39.130371 23.155762 38.641602 23.155762 Q 37.239746 23.155762 36.450195 22.315186 Q 35.660645 21.474609 35.660645 19.997559 Q 35.660645 18.558105 36.434082 17.698730 Q 37.207520 16.839355 38.496582 16.839355 Q 39.645996 16.839355 40.309326 17.618164 Q 40.972656 18.396973 41.015625 19.498047 Z M 40.027344 19.208008 Q 39.962891 18.584961 39.573486 18.131104 Q 39.184082 17.677246 38.453613 17.677246 Q 37.739258 17.677246 37.277344 18.149902 Q 36.815430 18.622559 36.772461 19.213379 Z " fill="black" fill-opacity="1.000000"/>
<path d="M 47.645020 19.272461 L 47.645020 23.000000 L 46.651367 23.000000 L 46.651367 19.272461 Q 46.651367 18.461426 46.366699 18.080078 Q 46.082031 17.698730 45.475098 17.698730 Q 44.782227 17.698730 44.408936 18.190186 Q 44.035645 18.681641 44.035645 19.600098 L 44.035645 23.000000 L 43.047363 23.000000 L 43.047363 16.984375 L 44.035645 16.984375 L 44.035645 17.886719 Q 44.298828 17.371094 44.750000 17.105225 Q 45.201172 16.839355 45.818848 16.839355 Q 46.737305 16.839355 47.191162 17.443604 Q 47.645020 18.047852 47.645020 19.272461 Z " fill="black" fill-opacity="1.000000"/>
<path d="M 52.297852 15.276367 L 52.297852 16.984375 L 54.542969 16.984375 L 54.542969 17.752441 L 52.297852 17.752441 L 52.297852 21.018066 Q 52.297852 21.684082 52.550293 21.947266 Q 52.802734 22.210449 53.431152 22.210449 L 54.542969 22.210449 L 54.542969 23.000000 L 53.334473 23.000000 Q 52.222656 23.000000 51.766113 22.554199 Q 51.309570 22.108398 51.309570 21.018066 L 51.309570 17.752441 L 49.703613 17.752441 L 49.703613 16.984375 L 51.309570 16.984375 L 51.309570 15.276367 Z " fill="black" fill-opacity="1.000000"/>
<path d="M 64.079590 14.980957 L 68.532227 14.980957 L 68.532227 15.894043 L 66.851074 15.894043 L 66.851074 22.086914 L 68.532227 22.086914 L 68.532227 23.000000 L 64.079590 23.000000 L 64.079590 22.086914 L 65.760742 22.086914 L 65.760742 15.894043 L 64.079590 15.894043 Z " fill="black" fill-opacity="1.000000"/>
<path d="M 75.645020 19.272461 L 75.645020 23.000000 L 74.651367 23.000000 L 74.651367 19.272461 Q 74.651367 18.461426 74.366699 18.080078 Q 74.082031 17.698730 73.475098 17.698730 Q 72.782227 17.698730 72.408936 18.190186 Q 72.035645 18.681641 72.035645 19.600098 L 72.035645 23.000000 L 71.047363 23.000000 L 71.047363 16.984375 L 72.035645 16.984375 L 72.035645 17.886719 Q 72.298828 17.371094 72.750000 17.105225 Q 73.201172 16.839355 73.818848 16.839355 Q 74.737305 16.839355 75.191162 17.443604 Q 75.645020 18.047852 75.645020 19.272461 Z " fill="black" fill-opacity="1.000000"/>
<path d="M 82.709473 14.642578 L 82.709473 15.464355 L 81.586914 15.464355 Q 81.055176 15.464355 80.848389 15.681885 Q 80.641602 15.899414 80.641602 16.452637 L 80.641602 16.984375 L 82.709473 16.984375 L 82.709473 17.752441 L 80.641602 17.752441 L 80.641602 23.000000 L 79.653320 23.000000 L 79.653320 17.752441 L 78.047363 17.752441 L 78.047363 16.984375 L 79.653320 16.984375 L 79.653320 16.565430 Q 79.653320 15.577148 80.107178 15.109863 Q 80.561035 14.642578 81.522461 14.642578 Z " fill="black" fill-opacity="1.000000"/>
<path d="M 87.308594 17.677246 Q 86.556641 17.677246 86.169922 18.262695 Q 85.783203 18.848145 85.783203 19.997559 Q 85.783203 21.141602 86.169922 21.729736 Q 86.556641 22.317871 87.308594 22.317871 Q 88.065918 22.317871 88.452637 21.729736 Q 88.839355 21.141602 88.839355 19.997559 Q 88.839355 18.848145 88.452637 18.262695 Q 88.065918 17.677246 87.308594 17.677246 Z M 87.308594 16.839355 Q 88.560059 16.839355 89.223389 17.650391 Q 89.886719 18.461426 89.886719 19.997559 Q 89.886719 21.539062 89.226074 22.347412 Q 88.565430 23.155762 87.308594 23.155762 Q 86.057129 23.155762 85.396484 22.347412 Q 84.735840 21.539062 84.735840 19.997559 Q 84.735840 18.461426 85.396484 17.650391 Q 86.057129 16.839355 87.308594 16.839355 Z " fill="black" fill-opacity="1.000000"/>
<path d="M 100.878906 26.319336 L 100.878906 12.300781 L 101.738281 12.300781 L 101.738281 26.319336 Z " fill="black" fill-opacity="1.000000"/>
<path d="M 115.308594 15.937012 L 114.164551 20.040527 L 116.452637 20.040527 Z M 114.653320 14.980957 L 115.969238 14.980957 L 118.423828 23.000000 L 117.301270 23.000000 L 116.710449 20.910645 L 113.901367 20.910645 L 113.321289 23.000000 L 112.198730 23.000000 Z " fill="black" fill-opacity="1.000000"/>
<path d="M 124.435547 15.254883 L 124.435547 16.355957 Q 123.941406 16.039062 123.444580 15.877930 Q 122.947754 15.716797 122.442871 15.716797 Q 121.674805 15.716797 121.229004 16.073975 Q 120.783203 16.431152 120.783203 17.038086 Q 120.783203 17.569824 121.075928 17.849121 Q 121.368652 18.128418 122.168945 18.316406 L 122.738281 18.445312 Q 123.866211 18.708496 124.381836 19.272461 Q 124.897461 19.836426 124.897461 20.808594 Q 124.897461 21.952637 124.188477 22.554199 Q 123.479492 23.155762 122.125977 23.155762 Q 121.562012 23.155762 120.992676 23.034912 Q 120.423340 22.914062 119.848633 22.672363 L 119.848633 21.517578 Q 120.466309 21.909668 121.016846 22.092285 Q 121.567383 22.274902 122.125977 22.274902 Q 122.947754 22.274902 123.404297 21.906982 Q 123.860840 21.539062 123.860840 20.878418 Q 123.860840 20.276855 123.546631 19.959961 Q 123.232422 19.643066 122.453613 19.471191 L 121.873535 19.336914 Q 120.756348 19.084473 120.251465 18.574219 Q 119.746582 18.063965 119.746582 17.204590 Q 119.746582 16.130371 120.468994 15.483154 Q 121.191406 14.835938 122.389160 14.835938 Q 122.851074 14.835938 123.361328 14.940674 Q 123.871582 15.045410 124.435547 15.254883 Z " fill="black" fill-opacity="1.000000"/>
<path d="M 134.058105 14.980957 L 138.816895 14.980957 L 138.816895 15.894043 L 135.143066 15.894043 L 135.143066 18.053223 L 138.655762 18.053223 L 138.655762 18.966309 L 135.143066 18.966309 L 135.143066 22.086914 L 138.918945 22.086914 L 138.918945 23.000000 L 134.058105 23.000000 Z " fill="black" fill-opacity="1.000000"/>
<path d="M 145.645020 19.272461 L 145.645020 23.000000 L 144.651367 23.000000 L 144.651367 19.272461 Q 144.651367 18.461426 144.366699 18.080078 Q 144.082031 17.698730 143.475098 17.698730 Q 142.782227 17.698730 142.408936 18.190186 Q 142.035645 18.681641 142.035645 19.600098 L 142.035645 23.000000 L 141.047363 23.000000 L 141.047363 16.984375 L 142.035645 16.984375 L 142.035645 17.886719 Q 142.298828 17.371094 142.750000 17.105225 Q 143.201172 16.839355 143.818848 16.839355 Q 144.737305 16.839355 145.191162 17.443604 Q 145.645020 18.047852 145.645020 19.272461 Z " fill="black" fill-opacity="1.000000"/>
<path d="M 150.297852 15.276367 L 150.297852 16.984375 L 152.542969 16.984375 L 152.542969 17.752441 L 150.297852 17.752441 L 150.297852 21.018066 Q 150.297852 21.684082 150.550293 21.947266 Q 150.802734 22.210449 151.431152 22.210449 L 152.542969 22.210449 L 152.542969 23.000000 L 151.334473 23.000000 Q 150.222656 23.000000 149.766113 22.554199 Q 149.309570 22.108398 149.309570 21.018066 L 149.309570 17.752441 L 147.703613 17.752441 L 147.703613 16.984375 L 149.309570 16.984375 L 149.309570 15.276367 Z " fill="black" fill-opacity="1.000000"/>
<path d="M 160.203613 18.225098 Q 159.886719 17.978027 159.559082 17.865234 Q 159.231445 17.752441 158.839355 17.752441 Q 157.915527 17.752441 157.426758 18.332520 Q 156.937988 18.912598 156.937988 20.008301 L 156.937988 23.000000 L 155.944336 23.000000 L 155.944336 16.984375 L 156.937988 16.984375 L 156.937988 18.160645 Q 157.185059 17.521484 157.697998 17.180420 Q 158.210938 16.839355 158.914551 16.839355 Q 159.279785 16.839355 159.596680 16.930664 Q 159.913574 17.021973 160.203613 17.215332 Z " fill="black" fill-opacity="1.000000"/>
<path d="M 165.608398 21.066406 Q 165.361328 21.694824 164.979980 22.720703 Q 164.448242 24.138672 164.265625 24.450195 Q 164.018555 24.869141 163.647949 25.078613 Q 163.277344 25.288086 162.783203 25.288086 L 161.988281 25.288086 L 161.988281 24.460938 L 162.573730 24.460938 Q 163.008789 24.460938 163.255859 24.208496 Q 163.502930 23.956055 163.884277 22.903320 L 161.558594 16.984375 L 162.605957 16.984375 L 164.389160 21.689453 L 166.145508 16.984375 L 167.192871 16.984375 Z " fill="black" fill-opacity="1.000000"/>
<path d="M 178.308594 14.862793 Q 179.592285 14.862793 180.250244 15.910156 Q 180.908203 16.957520 180.908203 19.009277 Q 180.908203 21.061035 180.250244 22.108398 Q 179.592285 23.155762 178.308594 23.155762 Q 177.024902 23.155762 176.369629 22.108398 Q 175.714355 21.061035 175.714355 19.009277 Q 175.714355 16.957520 176.369629 15.910156 Q 177.024902 14.862793 178.308594 14.862793 Z M 178.308594 22.296387 Q 179.071289 22.296387 179.444580 21.485352 Q 179.817871 20.674316 179.817871 19.009277 Q 179.817871 18.123047 179.710449 17.408691 L 177.153809 21.410156 Q 177.556641 22.296387 178.308594 22.296387 Z M 178.308594 15.722168 Q 177.551270 15.722168 177.177979 16.533203 Q 176.804688 17.344238 176.804688 19.009277 Q 176.804688 19.766602 176.906738 20.427246 L 179.409668 16.436523 Q 179.001465 15.722168 178.308594 15.722168 Z " fill="black" fill-opacity="1.000000"/>
<path d="M 191.878906 26.319336 L 191.878906 12.300781 L 192.738281 12.300781 L 192.738281 26.319336 Z " fill="black" fill-opacity="1.000000"/>
<path d="M 206.308594 15.937012 L 205.164551 20.040527 L 207.452637 20.040527 Z M 205.653320 14.980957 L 206.969238 14.980957 L 209.423828 23.000000 L 208.301270 23.000000 L 207.710449 20.910645 L 204.901367 20.910645 L 204.321289 23.000000 L 203.198730 23.000000 Z " fill="black" fill-opacity="1.000000"/>
<path d="M 215.435547 15.254883 L 215.435547 16.355957 Q 214.941406 16.039062 214.444580 15.877930 Q 213.947754 15.716797 213.442871 15.716797 Q 212.674805 15.716797 212.229004 16.073975 Q 211.783203 16.431152 211.783203 17.038086 Q 211.783203 17.569824 212.075928 17.849121 Q 212.368652 18.128418 213.168945 18.316406 L 213.738281 18.445312 Q 214.866211 18.708496 215.381836 19.272461 Q 215.897461 19.836426 215.897461 20.808594 Q 215.897461 21.952637 215.188477 22.554199 Q 214.479492 23.155762 213.125977 23.155762 Q 212.562012 23.155762 211.992676 23.034912 Q 211.423340 22.914062 210.848633 22.672363 L 210.848633 21.517578 Q 211.466309 21.909668 212.016846 22.092285 Q 212.567383 22.274902 213.125977 22.274902 Q 213.947754 22.274902 214.404297 21.906982 Q 214.860840 21.539062 214.860840 20.878418 Q 214.860840 20.276855 214.546631 19.959961 Q 214.232422 19.643066 213.453613 19.471191 L 212.873535 19.336914 Q 211.756348 19.084473 211.251465 18.574219 Q 210.746582 18.063965 210.746582 17.204590 Q 210.746582 16.130371 211.468994 15.483154 Q 212.191406 14.835938 213.389160 14.835938 Q 213.851074 14.835938 214.361328 14.940674 Q 214.871582 15.045410 215.435547 15.254883 Z " fill="black" fill-opacity="1.000000"/>
<path d="M 225.058105 14.980957 L 229.816895 14.980957 L 229.816895 15.894043 L 226.143066 15.894043 L 226.143066 18.053223 L 229.655762 18.053223 L 229.655762 18.966309 L 226.143066 18.966309 L 226.143066 22.086914 L 229.918945 22.086914 L 229.918945 23.000000 L 225.058105 23.000000 Z " fill="black" fill-opacity="1.000000"/>
<path d="M 236.645020 19.272461 L 236.645020 23.000000 L 235.651367 23.000000 L 235.651367 19.272461 Q 235.651367 18.461426 235.366699 18.080078 Q 235.082031 17.698730 234.475098 17.698730 Q 233.782227 17.698730 233.408936 18.190186 Q 233.035645 18.681641 233.035645 19.600098 L 233.035645 23.000000 L 232.047363 23.000000 L 232.047363 16.984375 L 233.035645 16.984375 L 233.035645 17.886719 Q 233.298828 17.371094 233.750000 17.105225 Q 234.201172 16.839355 234.818848 16.839355 Q 235.737305 16.839355 236.191162 17.443604 Q 236.645020 18.047852 236.645020 19.272461 Z " fill="black" fill-opacity="1.000000"/>
<path d="M 241.297852 15.276367 L 241.297852 16.984375 L 243.542969 16.984375 L 243.542969 17.752441 L 241.297852 17.752441 L 241.297852 21.018066 Q 241.297852 21.684082 241.550293 21.947266 Q 241.802734 22.210449 242.431152 22.210449 L 243.542969 22.210449 L 243.542969 23.000000 L 242.334473 23.000000 Q 241.222656 23.000000 240.766113 22.554199 Q 240.309570 22.108398 240.309570 21.018066 L 240.309570 17.752441 L 238.703613 17.752441 L 238.703613 16.984375 L 240.309570 16.984375 L 240.309570 15.276367 Z " fill="black" fill-opacity="1.000000"/>
<path d="M 251.203613 18.225098 Q 250.886719 17.978027 250.559082 17.865234 Q 250.231445 17.752441 249.839355 17.752441 Q 248.915527 17.752441 248.426758 18.332520 Q 247.937988 18.912598 247.937988 20.008301 L 247.937988 23.000000 L 246.944336 23.000000 L 246.944336 16.984375 L 247.937988 16.984375 L 247.937988 18.160645 Q 248.185059 17.521484 248.697998 17.180420 Q 249.210938 16.839355 249.914551 16.839355 Q 250.279785 16.839355 250.596680 16.930664 Q 250.913574 17.021973 251.203613 17.215332 Z " fill="black" fill-opacity="1.000000"/>
<path d="M 256.608398 21.066406 Q 256.361328 21.694824 255.979980 22.720703 Q 255.448242 24.138672 255.265625 24.450195 Q 255.018555 24.869141 254.647949 25.078613 Q 254.277344 25.288086 253.783203 25.288086 L 252.988281 25.288086 L 252.988281 24.460938 L 253.573730 24.460938 Q 254.008789 24.460938 254.255859 24.208496 Q 254.502930 23.956055 254.884277 22.903320 L 252.558594 16.984375 L 253.605957 16.984375 L 255.389160 21.689453 L 257.145508 16.984375 L 258.192871 16.984375 Z " fill="black" fill-opacity="1.000000"/>
<path d="M 267.450195 22.092285 L 269.136719 22.092285 L 269.136719 16.033691 L 267.117188 17.005859 L 267.117188 15.963867 L 269.125977 15.007812 L 270.210938 15.007812 L 270.210938 22.092285 L 271.875977 22.092285 L 271.875977 23.000000 L 267.450195 23.000000 Z " fill="black" fill-opacity="1.000000"/>
<path d="M 282.878906 26.319336 L 282.878906 12.300781 L 283.738281 12.300781 L 283.738281 26.319336 Z " fill="black" fill-opacity="1.000000"/>
<path d="M 296.089355 20.830078 L 297.979980 20.830078 L 297.979980 23.000000 L 296.089355 23.000000 Z " fill="black" fill-opacity="1.000000"/>
<path d="M 303.089355 20.830078 L 304.979980 20.830078 L 304.979980 23.000000 L 303.089355 23.000000 Z " fill="black" fill-opacity="1.000000"/>
<path d="M 310.089355 20.830078 L 311.979980 20.830078 L 311.979980 23.000000 L 310.089355 23.000000 Z " fill="black" fill-opacity="1.000000"/>
<path d="M 324.878906 26.319336 L 324.878906 12.300781 L 325.738281 12.300781 L 325.738281 26.319336 Z " fill="black" fill-opacity="1.000000"/>
<path d="M 339.308594 15.937012 L 338.164551 20.040527 L 340.452637 20.040527 Z M 338.653320 14.980957 L 339.969238 14.980957 L 342.423828 23.000000 L 341.301270 23.000000 L 340.710449 20.910645 L 337.901367 20.910645 L 337.321289 23.000000 L 336.198730 23.000000 Z " fill="black" fill-opacity="1.000000"/>
<path d="M 348.435547 15.254883 L 348.435547 16.355957 Q 347.941406 16.039062 347.444580 15.877930 Q 346.947754 15.716797 346.442871 15.716797 Q 345.674805 15.716797 345.229004 16.073975 Q 344.783203 16.431152 344.783203 17.038086 Q 344.783203 17.569824 345.075928 17.849121 Q 345.368652 18.128418 346.168945 18.316406 L 346.738281 18.445312 Q 347.866211 18.708496 348.381836 19.272461 Q 348.897461 19.836426 348.897461 20.808594 Q 348.897461 21.952637 348.188477 22.554199 Q 347.479492 23.155762 346.125977 23.155762 Q 345.562012 23.155762 344.992676 23.034912 Q 344.423340 22.914062 343.848633 22.672363 L 343.848633 21.517578 Q 344.466309 21.909668 345.016846 22.092285 Q 345.567383 22.274902 346.125977 22.274902 Q 346.947754 22.274902 347.404297 21.906982 Q 347.860840 21.539062 347.860840 20.878418 Q 347.860840 20.276855 347.546631 19.959961 Q 347.232422 19.643066 346.453613 19.471191 L 345.873535 19.336914 Q 344.756348 19.084473 344.251465 18.574219 Q 343.746582 18.063965 343.746582 17.204590 Q 343.746582 16.130371 344.468994 15.483154 Q 345.191406 14.835938 346.389160 14.835938 Q 346.851074 14.835938 347.361328 14.940674 Q 347.871582 15.045410 348.435547 15.254883 Z " fill="black" fill-opacity="1.000000"/>
<path d="M 358.058105 14.980957 L 362.816895 14.980957 L 362.816895 15.894043 L 359.143066 15.894043 L 359.143066 18.053223 L 362.655762 18.053223 L 362.655762 18.966309 L 359.143066 18.966309 L 359.143066 22.086914 L 362.918945 22.086914 L 362.918945 23.000000 L 358.058105 23.000000 Z " fill="black" fill-opacity="1.000000"/>
<path d="M 369.645020 19.272461 L 369.645020 23.000000 L 368.651367 23.000000 L 368.651367 19.272461 Q 368.651367 18.461426 368.366699 18.080078 Q 368.082031 17.698730 367.475098 17.698730 Q 366.782227 17.698730 366.408936 18.190186 Q 366.035645 18.681641 366.035645 19.600098 L 366.035645 23.000000 L 365.047363 23.000000 L 365.047363 16.984375 L 366.035645 16.984375 L 366.035645 17.886719 Q 366.298828 17.371094 366.750000 17.105225 Q 367.201172 16.839355 367.818848 16.839355 Q 368.737305 16.839355 369.191162 17.443604 Q 369.645020 18.047852 369.645020 19.272461 Z " fill="black" fill-opacity="1.000000"/>
<path d="M 374.297852 15.276367 L 374.297852 16.984375 L 376.542969 16.984375 L 376.542969 17.752441 L 374.297852 17.752441 L 374.297852 21.018066 Q 374.297852 21.684082 374.550293 21.947266 Q 374.802734 22.210449 375.431152 22.210449 L 376.542969 22.210449 L 376.542969 23.000000 L 375.334473 23.000000 Q 374.222656 23.000000 373.766113 22.554199 Q 373.309570 22.108398 373.309570 21.018066 L 373.309570 17.752441 L 371.703613 17.752441 L 371.703613 16.984375 L 373.309570 16.984375 L 373.309570 15.276367 Z " fill="black" fill-opacity="1.000000"/>
<path d="M 384.203613 18.225098 Q 383.886719 17.978027 383.559082 17.865234 Q 383.231445 17.752441 382.839355 17.752441 Q 381.915527 17.752441 381.426758 18.332520 Q 380.937988 18.912598 380.937988 20.008301 L 380.937988 23.000000 L 379.944336 23.000000 L 379.944336 16.984375 L 380.937988 16.984375 L 380.937988 18.160645 Q 381.185059 17.521484 381.697998 17.180420 Q 382.210938 16.839355 382.914551 16.839355 Q 383.279785 16.839355 383.596680 16.930664 Q 383.913574 17.021973 384.203613 17.215332 Z " fill="black" fill-opacity="1.000000"/>
<path d="M 389.608398 21.066406 Q 389.361328 21.694824 388.979980 22.720703 Q 388.448242 24.138672 388.265625 24.450195 Q 388.018555 24.869141 387.647949 25.078613 Q 387.277344 25.288086 386.783203 25.288086 L 385.988281 25.288086 L 385.988281 24.460938 L 386.573730 24.460938 Q 387.008789 24.460938 387.255859 24.208496 Q 387.502930 23.956055 387.884277 22.903320 L 385.558594 16.984375 L 386.605957 16.984375 L 388.389160 21.689453 L 390.145508 16.984375 L 391.192871 16.984375 Z " fill="black" fill-opacity="1.000000"/>
<path d="M 399.102051 15.007812 L 400.584473 15.007812 L 403.721191 21.587402 L 403.721191 15.007812 L 404.875977 15.007812 L 404.875977 23.000000 L 403.393555 23.000000 L 400.256836 16.420410 L 400.256836 23.000000 L 399.102051 23.000000 Z " fill="black" fill-opacity="1.000000"/>
<path d="M 415.878906 26.319336 L 415.878906 12.300781 L 416.738281 12.300781 L 416.738281 26.319336 Z " fill="black" fill-opacity="1.000000"/>
<path d="M 6.892578 7.335938 L 6.892578 6.412109 L 13.729980 6.412109 L 13.729980 7.335938 Z " fill="black" fill-opacity="1.000000"/>
<path d="M 13.892578 7.335938 L 13.892578 6.412109 L 20.729980 6.412109 L 20.729980 7.335938 Z " fill="black" fill-opacity="1.000000"/>
<path d="M 20.892578 7.335938 L 20.892578 6.412109 L 27.729980 6.412109 L 27.729980 7.335938 Z " fill="black" fill-opacity="1.000000"/>
<path d="M 27.892578 7.335938 L 27.892578 6.412109 L 34.729980 6.412109 L 34.729980 7.335938 Z " fill="black" fill-opacity="1.000000"/>
<path d="M 34.892578 7.335938 L 34.892578 6.412109 L 41.729980 6.412109 L 41.729980 7.335938 Z " fill="black" fill-opacity="1.000000"/>
<path d="M 41.892578 7.335938 L 41.892578 6.412109 L 48.729980 6.412109 L 48.729980 7.335938 Z " fill="black" fill-opacity="1.000000"/>
<path d="M 48.892578 7.335938 L 48.892578 6.412109 L 55.729980 6.412109 L 55.729980 7.335938 Z " fill="black" fill-opacity="1.000000"/>
<path d="M 55.892578 7.335938 L 55.892578 6.412109 L 62.729980 6.412109 L 62.729980 7.335938 Z " fill="black" fill-opacity="1.000000"/>
<path d="M 62.892578 7.335938 L 62.892578 6.412109 L 69.729980 6.412109 L 69.729980 7.335938 Z " fill="black" fill-opacity="1.000000"/>
<path d="M 69.892578 7.335938 L 69.892578 6.412109 L 76.729980 6.412109 L 76.729980 7.335938 Z " fill="black" fill-opacity="1.000000"/>
<path d="M 76.892578 7.335938 L 76.892578 6.412109 L 83.729980 6.412109 L 83.729980 7.335938 Z " fill="black" fill-opacity="1.000000"/>
<path d="M 83.892578 7.335938 L 83.892578 6.412109 L 90.729980 6.412109 L 90.729980 7.335938 Z " fill="black" fill-opacity="1.000000"/>
<path d="M 90.892578 7.335938 L 90.892578 6.412109 L 97.729980 6.412109 L 97.729980 7.335938 Z " fill="black" fill-opacity="1.000000"/>
<path d="M 100.878906 13.319336 L 100.878906 7.335938 L 97.892578 7.335938 L 97.892578 6.412109 L 104.729980 6.412109 L 104.729980 7.335938 L 101.738281 7.335938 L 101.738281 13.319336 Z " fill="black" fill-opacity="1.000000"/>
<path d="M 104.892578 7.335938 L 104.892578 6.412109 L 111.729980 6.412109 L 111.729980 7.335938 Z " fill="black" fill-opacity="1.000000"/>
<path d="M 111.892578 7.335938 L 111.892578 6.412109 L 118.729980 6.412109 L 118.729980 7.335938 Z " fill="black" fill-opacity="1.000000"/>
<path d="M 118.892578 7.335938 L 118.892578 6.412109 L 125.729980 6.412109 L 125.729980 7.335938 Z " fill="black" fill-opacity="1.000000"/>
<path d="M 125.892578 7.335938 L 125.892578 6.412109 L 132.729980 6.412109 L 132.729980 7.335938 Z " fill="black" fill-opacity="1.000000"/>
<path d="M 132.892578 7.335938 L 132.892578 6.412109 L 139.729980 6.412109 L 139.729980 7.335938 Z " fill="black" fill-opacity="1.000000"/>
<path d="M 139.892578 7.335938 L 139.892578 6.412109 L 146.729980 6.412109 L 146.729980 7.335938 Z " fill="black" fill-opacity="1.000000"/>
<path d="M 146.892578 7.335938 L 146.892578 6.412109 L 153.729980 6.412109 L 153.729980 7.335938 Z " fill="black" fill-opacity="1.000000"/>
<path d="M 153.892578 7.335938 L 153.892578 6.412109 L 160.729980 6.412109 L 160.729980 7.335938 Z " fill="black" fill-opacity="1.000000"/>
<path d="M 160.892578 7.335938 L 160.892578 6.412109 L 167.729980 6.412109 L 167.729980 7.335938 Z " fill="black" fill-opacity="1.000000"/>
<path d="M 167.892578 7.335938 L 167.892578 6.412109 L 174.729980 6.412109 L 174.729980 7.335938 Z " fill="black" fill-opacity="1.000000"/>
<path d="M 174.892578 7.335938 L 174.892578 6.412109 L 181.729980 6.412109 L 181.729980 7.335938 Z " fill="black" fill-opacity="1.000000"/>
<path d="M 181.892578 7.335938 L 181.892578 6.412109 L 188.729980 6.412109 L 188.729980 7.335938 Z " fill="black" fill-opacity="1.000000"/>
<path d="M 191.878906 13.319336 L 191.878906 7.335938 L 188.892578 7.335938 L 188.892578 6.412109 L 195.729980 6.412109 L 195.729980 7.335938 L 192.738281 7.335938 L 192.738281 13.319336 Z " fill="black" fill-opacity="1.000000"/>
<path d="M 195.892578 7.335938 L 195.892578 6.412109 L 202.729980 6.412109 L 202.729980 7.335938 Z " fill="black" fill-opacity="1.000000"/>
<path d="M 202.892578 7.335938 L 202.892578 6.412109 L 209.729980 6.412109 L 209.729980 7.335938 Z " fill="black" fill-opacity="1.000000"/>
<path d="M 209.892578 7.335938 L 209.892578 6.412109 L 216.729980 6.412109 L 216.729980 7.335938 Z " fill="black" fill-opacity="1.000000"/>
<path d="M 216.892578 7.335938 L 216.892578 6.412109 L 223.729980 6.412109 L 223.729980 7.335938 Z " fill="black" fill-opacity="1.000000"/>
<path d="M 223.892578 7.335938 L 223.892578 6.412109 L 230.729980 6.412109 L 230.729980 7.335938 Z " fill="black" fill-opacity="1.000000"/>
<path d="M 230.892578 7.335938 L 230.892578 6.412109 L 237.729980 6.412109 L 237.729980 7.335938 Z " fill="black" fill-opacity="1.000000"/>
<path d="M 237.892578 7.335938 L 237.892578 6.412109 L 244.729980 6.412109 L 244.729980 7.335938 Z " fill="black" fill-opacity="1.000000"/>
<path d="M 244.892578 7.335938 L 244.892578 6.412109 L 251.729980 6.412109 L 251.729980 7.335938 Z " fill="black" fill-opacity="1.000000"/>
<path d="M 251.892578 7.335938 L 251.892578 6.412109 L 258.729980 6.412109 L 258.729980 7.335938 Z " fill="black" fill-opacity="1.000000"/>
<path d="M 258.892578 7.335938 L 258.892578 6.412109 L 265.729980 6.412109 L 265.729980 7.335938 Z " fill="black" fill-opacity="1.000000"/>
<path d="M 265.892578 7.335938 L 265.892578 6.412109 L 272.729980 6.412109 L 272.729980 7.335938 Z " fill="black" fill-opacity="1.000000"/>
<path d="M 272.892578 7.335938 L 272.892578 6.412109 L 279.729980 6.412109 L 279.729980 7.335938 Z " fill="black" fill-opacity="1.000000"/>
<path d="M 282.878906 13.319336 L 282.878906 7.335938 L 279.892578 7.335938 L 279.892578 6.412109 L 286.729980 6.412109 L 286.729980 7.335938 L 283.738281 7.335938 L 283.738281 13.319336 Z " fill="black" fill-opacity="1.000000"/>
<path d="M 286.892578 7.335938 L 286.892578 6.412109 L 293.729980 6.412109 L 293.729980 7.335938 Z " fill="black" fill-opacity="1.000000"/>
<path d="M 293.892578 7.335938 L 293.892578 6.412109 L 300.729980 6.412109 L 300.729980 7.335938 Z " fill="black" fill-opacity="1.000000"/>
<path d="M 300.892578 7.335938 L 300.892578 6.412109 L 307.729980 6.412109 L 307.729980 7.335938 Z " fill="black" fill-opacity="1.000000"/>
<path d="M 307.892578 7.335938 L 307.892578 6.412109 L 314.729980 6.412109 L 314.729980 7.335938 Z " fill="black" fill-opacity="1.000000"/>
<path d="M 314.892578 7.335938 L 314.892578 6.412109 L 321.729980 6.412109 L 321.729980 7.335938 Z " fill="black" fill-opacity="1.000000"/>
<path d="M 324.878906 13.319336 L 324.878906 7.335938 L 321.892578 7.335938 L 321.892578 6.412109 L 328.729980 6.412109 L 328.729980 7.335938 L 325.738281 7.335938 L 325.738281 13.319336 Z " fill="black" fill-opacity="1.000000"/>
<path d="M 328.892578 7.335938 L 328.892578 6.412109 L 335.729980 6.412109 L 335.729980 7.335938 Z " fill="black" fill-opacity="1.000000"/>
<path d="M 335.892578 7.335938 L 335.892578 6.412109 L 342.729980 6.412109 L 342.729980 7.335938 Z " fill="black" fill-opacity="1.000000"/>
<path d="M 342.892578 7.335938 L 342.892578 6.412109 L 349.729980 6.412109 L 349.729980 7.335938 Z " fill="black" fill-opacity="1.000000"/>
<path d="M 349.892578 7.335938 L 349.892578 6.412109 L 356.729980 6.412109 L 356.729980 7.335938 Z " fill="black" fill-opacity="1.000000"/>
<path d="M 356.892578 7.335938 L 356.892578 6.412109 L 363.729980 6.412109 L 363.729980 7.335938 Z " fill="black" fill-opacity="1.000000"/>
<path d="M 363.892578 7.335938 L 363.892578 6.412109 L 370.729980 6.412109 L 370.729980 7.335938 Z " fill="black" fill-opacity="1.000000"/>
<path d="M 370.892578 7.335938 L 370.892578 6.412109 L 377.729980 6.412109 L 377.729980 7.335938 Z " fill="black" fill-opacity="1.000000"/>
<path d="M 377.892578 7.335938 L 377.892578 6.412109 L 384.729980 6.412109 L 384.729980 7.335938 Z " fill="black" fill-opacity="1.000000"/>
<path d="M 384.892578 7.335938 L 384.892578 6.412109 L 391.729980 6.412109 L 391.729980 7.335938 Z " fill="black" fill-opacity="1.000000"/>
<path d="M 391.892578 7.335938 L 391.892578 6.412109 L 398.729980 6.412109 L 398.729980 7.335938 Z " fill="black" fill-opacity="1.000000"/>
<path d="M 398.892578 7.335938 L 398.892578 6.412109 L 405.729980 6.412109 L 405.729980 7.335938 Z " fill="black" fill-opacity="1.000000"/>
<path d="M 405.892578 7.335938 L 405.892578 6.412109 L 412.729980 6.412109 L 412.729980 7.335938 Z " fill="black" fill-opacity="1.000000"/>
<path d="M 415.878906 13.319336 L 415.878906 7.335938 L 412.892578 7.335938 L 412.892578 6.412109 L 416.738281 6.412109 L 416.738281 13.319336 Z " fill="black" fill-opacity="1.000000"/>
</svg>
