<?xml version='1.0' encoding='utf-8'?>
<svg xmlns="http://www.w3.org/2000/svg" version="1.1" width="421" height="118" viewBox="0 0 421.0 118.0">
<path d="M 2.878906 78.319336 L 2.878906 71.412109 L 6.729980 71.412109 L 6.729980 72.335938 L 3.738281 72.335938 L 3.738281 78.319336 Z " fill="black" fill-opacity="1.000000"/>
<path d="M 2.878906 91.319336 L 2.878906 84.412109 L 6.729980 84.412109 L 6.729980 85.335938 L 3.738281 85.335938 L 3.738281 91.319336 Z " fill="black" fill-opacity="1.000000"/>
<path d="M 2.878906 104.319336 L 2.878906 90.300781 L 3.738281 90.300781 L 3.738281 104.319336 Z " fill="black" fill-opacity="1.000000"/>
<path d="M 2.878906 111.335938 L 2.878906 103.300781 L 3.738281 103.300781 L 3.738281 110.412109 L 6.729980 110.412109 L 6.729980 111.335938 Z " fill="black" fill-opacity="1.000000"/>
<path d="M 6.892578 111.335938 L 6.892578 110.412109 L 13.729980 110.412109 L 13.729980 111.335938 Z " fill="black" fill-opacity="1.000000"/>
<path d="M 13.892578 111.335938 L 13.892578 110.412109 L 20.729980 110.412109 L 20.729980 111.335938 Z " fill="black" fill-opacity="1.000000"/>
<path d="M 20.892578 111.335938 L 20.892578 110.412109 L 27.729980 110.412109 L 27.729980 111.335938 Z " fill="black" fill-opacity="1.000000"/>
<path d="M 27.892578 111.335938 L 27.892578 110.412109 L 34.729980 110.412109 L 34.729980 111.335938 Z " fill="black" fill-opacity="1.000000"/>
<path d="M 34.892578 111.335938 L 34.892578 110.412109 L 41.729980 110.412109 L 41.729980 111.335938 Z " fill="black" fill-opacity="1.000000"/>
<path d="M 41.892578 111.335938 L 41.892578 110.412109 L 48.729980 110.412109 L 48.729980 111.335938 Z " fill="black" fill-opacity="1.000000"/>
<path d="M 48.892578 111.335938 L 48.892578 110.412109 L 55.729980 110.412109 L 55.729980 111.335938 Z " fill="black" fill-opacity="1.000000"/>
<path d="M 55.892578 111.335938 L 55.892578 110.412109 L 62.729980 110.412109 L 62.729980 111.335938 Z " fill="black" fill-opacity="1.000000"/>
<path d="M 62.892578 111.335938 L 62.892578 110.412109 L 69.729980 110.412109 L 69.729980 111.335938 Z " fill="black" fill-opacity="1.000000"/>
<path d="M 69.892578 111.335938 L 69.892578 110.412109 L 76.729980 110.412109 L 76.729980 111.335938 Z " fill="black" fill-opacity="1.000000"/>
<path d="M 76.892578 111.335938 L 76.892578 110.412109 L 83.729980 110.412109 L 83.729980 111.335938 Z " fill="black" fill-opacity="1.000000"/>
<path d="M 83.892578 111.335938 L 83.892578 110.412109 L 90.729980 110.412109 L 90.729980 111.335938 Z " fill="black" fill-opacity="1.000000"/>
<path d="M 90.892578 111.335938 L 90.892578 110.412109 L 97.729980 110.412109 L 97.729980 111.335938 Z " fill="black" fill-opacity="1.000000"/>
<path d="M 97.892578 111.335938 L 97.892578 110.412109 L 100.878906 110.412109 L 100.878906 103.300781 L 101.738281 103.300781 L 101.738281 110.412109 L 104.729980 110.412109 L 104.729980 111.335938 Z " fill="black" fill-opacity="1.000000"/>
<path d="M 104.892578 111.335938 L 104.892578 110.412109 L 111.729980 110.412109 L 111.729980 111.335938 Z " fill="black" fill-opacity="1.000000"/>
<path d="M 111.892578 111.335938 L 111.892578 110.412109 L 118.729980 110.412109 L 118.729980 111.335938 Z " fill="black" fill-opacity="1.000000"/>
<path d="M 118.892578 111.335938 L 118.892578 110.412109 L 125.729980 110.412109 L 125.729980 111.335938 Z " fill="black" fill-opacity="1.000000"/>
<path d="M 125.892578 111.335938 L 125.892578 110.412109 L 132.729980 110.412109 L 132.729980 111.335938 Z " fill="black" fill-opacity="1.000000"/>
<path d="M 132.892578 111.335938 L 132.892578 110.412109 L 139.729980 110.412109 L 139.729980 111.335938 Z " fill="black" fill-opacity="1.000000"/>
<path d="M 139.892578 111.335938 L 139.892578 110.412109 L 146.729980 110.412109 L 146.729980 111.335938 Z " fill="black" fill-opacity="1.000000"/>
<path d="M 146.892578 111.335938 L 146.892578 110.412109 L 153.729980 110.412109 L 153.729980 111.335938 Z " fill="black" fill-opacity="1.000000"/>
<path d="M 153.892578 111.335938 L 153.892578 110.412109 L 160.729980 110.412109 L 160.729980 111.335938 Z " fill="black" fill-opacity="1.000000"/>
<path d="M 160.892578 111.335938 L 160.892578 110.412109 L 167.729980 110.412109 L 167.729980 111.335938 Z " fill="black" fill-opacity="1.000000"/>
<path d="M 167.892578 111.335938 L 167.892578 110.412109 L 174.729980 110.412109 L 174.729980 111.335938 Z " fill="black" fill-opacity="1.000000"/>
<path d="M 174.892578 111.335938 L 174.892578 110.412109 L 181.729980 110.412109 L 181.729980 111.335938 Z " fill="black" fill-opacity="1.000000"/>
<path d="M 181.892578 111.335938 L 181.892578 110.412109 L 188.729980 110.412109 L 188.729980 111.335938 Z " fill="black" fill-opacity="1.000000"/>
<path d="M 188.892578 111.335938 L 188.892578 110.412109 L 191.878906 110.412109 L 191.878906 103.300781 L 192.738281 103.300781 L 192.738281 110.412109 L 195.729980 110.412109 L 195.729980 111.335938 Z " fill="black" fill-opacity="1.000000"/>
<path d="M 195.892578 111.335938 L 195.892578 110.412109 L 202.729980 110.412109 L 202.729980 111.335938 Z " fill="black" fill-opacity="1.000000"/>
<path d="M 202.892578 111.335938 L 202.892578 110.412109 L 209.729980 110.412109 L 209.729980 111.335938 Z " fill="black" fill-opacity="1.000000"/>
<path d="M 209.892578 111.335938 L 209.892578 110.412109 L 216.729980 110.412109 L 216.729980 111.335938 Z " fill="black" fill-opacity="1.000000"/>
<path d="M 216.892578 111.335938 L 216.892578 110.412109 L 223.729980 110.412109 L 223.729980 111.335938 Z " fill="black" fill-opacity="1.000000"/>
<path d="M 223.892578 111.335938 L 223.892578 110.412109 L 230.729980 110.412109 L 230.729980 111.335938 Z " fill="black" fill-opacity="1.000000"/>
<path d="M 230.892578 111.335938 L 230.892578 110.412109 L 237.729980 110.412109 L 237.729980 111.335938 Z " fill="black" fill-opacity="1.000000"/>
<path d="M 237.892578 111.335938 L 237.892578 110.412109 L 244.729980 110.412109 L 244.729980 111.335938 Z " fill="black" fill-opacity="1.000000"/>
<path d="M 244.892578 111.335938 L 244.892578 110.412109 L 251.729980 110.412109 L 251.729980 111.335938 Z " fill="black" fill-opacity="1.000000"/>
<path d="M 251.892578 111.335938 L 251.892578 110.412109 L 258.729980 110.412109 L 258.729980 111.335938 Z " fill="black" fill-opacity="1.000000"/>
<path d="M 258.892578 111.335938 L 258.892578 110.412109 L 265.729980 110.412109 L 265.729980 111.335938 Z " fill="black" fill-opacity="1.000000"/>
<path d="M 265.892578 111.335938 L 265.892578 110.412109 L 272.729980 110.412109 L 272.729980 111.335938 Z " fill="black" fill-opacity="1.000000"/>
<path d="M 272.892578 111.335938 L 272.892578 110.412109 L 279.729980 110.412109 L 279.729980 111.335938 Z " fill="black" fill-opacity="1.000000"/>
<path d="M 279.892578 111.335938 L 279.892578 110.412109 L 286.729980 110.412109 L 286.729980 111.335938 Z " fill="black" fill-opacity="1.000000"/>
<path d="M 286.892578 111.335938 L 286.892578 110.412109 L 293.729980 110.412109 L 293.729980 111.335938 Z " fill="black" fill-opacity="1.000000"/>
<path d="M 293.892578 111.335938 L 293.892578 110.412109 L 296.878906 110.412109 L 296.878906 103.300781 L 297.738281 103.300781 L 297.738281 110.412109 L 300.729980 110.412109 L 300.729980 111.335938 Z " fill="black" fill-opacity="1.000000"/>
<path d="M 300.892578 111.335938 L 300.892578 110.412109 L 307.729980 110.412109 L 307.729980 111.335938 Z " fill="black" fill-opacity="1.000000"/>
<path d="M 307.892578 111.335938 L 307.892578 110.412109 L 314.729980 110.412109 L 314.729980 111.335938 Z " fill="black" fill-opacity="1.000000"/>
<path d="M 314.892578 111.335938 L 314.892578 110.412109 L 321.729980 110.412109 L 321.729980 111.335938 Z " fill="black" fill-opacity="1.000000"/>
<path d="M 321.892578 111.335938 L 321.892578 110.412109 L 328.729980 110.412109 L 328.729980 111.335938 Z " fill="black" fill-opacity="1.000000"/>
<path d="M 328.892578 111.335938 L 328.892578 110.412109 L 335.729980 110.412109 L 335.729980 111.335938 Z " fill="black" fill-opacity="1.000000"/>
<path d="M 335.892578 111.335938 L 335.892578 110.412109 L 342.729980 110.412109 L 342.729980 111.335938 Z " fill="black" fill-opacity="1.000000"/>
<path d="M 342.892578 111.335938 L 342.892578 110.412109 L 349.729980 110.412109 L 349.729980 111.335938 Z " fill="black" fill-opacity="1.000000"/>
<path d="M 349.892578 111.335938 L 349.892578 110.412109 L 356.729980 110.412109 L 356.729980 111.335938 Z " fill="black" fill-opacity="1.000000"/>
<path d="M 356.892578 111.335938 L 356.892578 110.412109 L 363.729980 110.412109 L 363.729980 111.335938 Z " fill="black" fill-opacity="1.000000"/>
<path d="M 363.892578 111.335938 L 363.892578 110.412109 L 370.729980 110.412109 L 370.729980 111.335938 Z " fill="black" fill-opacity="1.000000"/>
<path d="M 370.892578 111.335938 L 370.892578 110.412109 L 377.729980 110.412109 L 377.729980 111.335938 Z " fill="black" fill-opacity="1.000000"/>
<path d="M 377.892578 111.335938 L 377.892578 110.412109 L 384.729980 110.412109 L 384.729980 111.335938 Z " fill="black" fill-opacity="1.000000"/>
<path d="M 384.892578 111.335938 L 384.892578 110.412109 L 391.729980 110.412109 L 391.729980 111.335938 Z " fill="black" fill-opacity="1.000000"/>
<path d="M 391.892578 111.335938 L 391.892578 110.412109 L 398.729980 110.412109 L 398.729980 111.335938 Z " fill="black" fill-opacity="1.000000"/>
<path d="M 398.892578 111.335938 L 398.892578 110.412109 L 405.729980 110.412109 L 405.729980 111.335938 Z " fill="black" fill-opacity="1.000000"/>
<path d="M 405.892578 111.335938 L 405.892578 110.412109 L 412.729980 110.412109 L 412.729980 111.335938 Z " fill="black" fill-opacity="1.000000"/>
<path d="M 412.892578 111.335938 L 412.892578 110.412109 L 415.878906 110.412109 L 415.878906 103.300781 L 416.738281 103.300781 L 416.738281 111.335938 Z " fill="black" fill-opacity="1.000000"/>
<path d="M 21.735840 92.980957 L 22.826172 92.980957 L 22.826172 96.053223 L 25.796387 96.053223 L 25.796387 92.980957 L 26.886719 92.980957 L 26.886719 101.000000 L 25.796387 101.000000 L 25.796387 96.966309 L 22.826172 96.966309 L 22.826172 101.000000 L 21.735840 101.000000 Z " fill="black" fill-opacity="1.000000"/>
<path d="M 31.308594 95.677246 Q 30.556641 95.677246 30.169922 96.262695 Q 29.783203 96.848145 29.783203 97.997559 Q 29.783203 99.141602 30.169922 99.729736 Q 30.556641 100.317871 31.308594 100.317871 Q 32.065918 100.317871 32.452637 99.729736 Q 32.839355 99.141602 32.839355 97.997559 Q 32.839355 96.848145 32.452637 96.262695 Q 32.065918 95.677246 31.308594 95.677246 Z M 31.308594 94.839355 Q 32.560059 94.839355 33.223389 95.650391 Q 33.886719 96.461426 33.886719 97.997559 Q 33.886719 99.539062 33.226074 100.347412 Q 32.565430 101.155762 31.308594 101.155762 Q 30.057129 101.155762 29.396484 100.347412 Q 28.735840 99.539062 28.735840 97.997559 Q 28.735840 96.461426 29.396484 95.650391 Q 30.057129 94.839355 31.308594 94.839355 Z " fill="black" fill-opacity="1.000000"/>
<path d="M 37.014160 100.242676 L 37.014160 103.288086 L 36.020508 103.288086 L 36.020508 94.984375 L 37.014160 94.984375 L 37.014160 95.752441 Q 37.261230 95.306641 37.672119 95.072998 Q 38.083008 94.839355 38.620117 94.839355 Q 39.710449 94.839355 40.330811 95.682617 Q 40.951172 96.525879 40.951172 98.019043 Q 40.951172 99.485352 40.328125 100.320557 Q 39.705078 101.155762 38.620117 101.155762 Q 38.072266 101.155762 37.661377 100.922119 Q 37.250488 100.688477 37.014160 100.242676 Z M 39.914551 97.997559 Q 39.914551 96.848145 39.552002 96.262695 Q 39.189453 95.677246 38.475098 95.677246 Q 37.755371 95.677246 37.384766 96.265381 Q 37.014160 96.853516 37.014160 97.997559 Q 37.014160 99.136230 37.384766 99.727051 Q 37.755371 100.317871 38.475098 100.317871 Q 39.189453 100.317871 39.552002 99.732422 Q 39.914551 99.146973 39.914551 97.997559 Z " fill="black" fill-opacity="1.000000"/>
<path d="M 50.251465 92.980957 L 54.972656 92.980957 L 54.972656 93.894043 L 51.341797 93.894043 L 51.341797 96.042480 L 54.634277 96.042480 L 54.634277 96.955566 L 51.341797 96.955566 L 51.341797 101.000000 L 50.251465 101.000000 Z " fill="black" fill-opacity="1.000000"/>
<path d="M 57.697266 95.005859 L 60.227051 95.005859 L 60.227051 100.231934 L 62.187500 100.231934 L 62.187500 101.000000 L 57.278320 101.000000 L 57.278320 100.231934 L 59.238770 100.231934 L 59.238770 95.773926 L 57.697266 95.773926 Z M 59.238770 92.669434 L 60.227051 92.669434 L 60.227051 93.915527 L 59.238770 93.915527 Z " fill="black" fill-opacity="1.000000"/>
<path d="M 69.015625 97.498047 L 69.015625 97.981445 L 64.734863 97.981445 L 64.734863 98.013672 Q 64.691895 99.243652 65.204834 99.780762 Q 65.717773 100.317871 66.652344 100.317871 Q 67.125000 100.317871 67.640625 100.167480 Q 68.156250 100.017090 68.741699 99.710938 L 68.741699 100.693848 Q 68.177734 100.924805 67.654053 101.040283 Q 67.130371 101.155762 66.641602 101.155762 Q 65.239746 101.155762 64.450195 100.315186 Q 63.660645 99.474609 63.660645 97.997559 Q 63.660645 96.558105 64.434082 95.698730 Q 65.207520 94.839355 66.496582 94.839355 Q 67.645996 94.839355 68.309326 95.618164 Q 68.972656 96.396973 69.015625 97.498047 Z M 68.027344 97.208008 Q 67.962891 96.584961 67.573486 96.131104 Q 67.184082 95.677246 66.453613 95.677246 Q 65.739258 95.677246 65.277344 96.149902 Q 64.815430 96.622559 64.772461 97.213379 Z " fill="black" fill-opacity="1.000000"/>
<path d="M 73.861816 98.824707 Q 73.861816 99.490723 74.106201 99.829102 Q 74.350586 100.167480 74.828613 100.167480 L 75.983398 100.167480 L 75.983398 101.000000 L 74.731934 101.000000 Q 73.845703 101.000000 73.359619 100.433350 Q 72.873535 99.866699 72.873535 98.824707 L 72.873535 93.383789 L 71.289062 93.383789 L 71.289062 92.610352 L 73.861816 92.610352 Z " fill="black" fill-opacity="1.000000"/>
<path d="M 81.608398 95.752441 L 81.608398 92.642578 L 82.596680 92.642578 L 82.596680 101.000000 L 81.608398 101.000000 L 81.608398 100.242676 Q 81.361328 100.688477 80.950439 100.922119 Q 80.539551 101.155762 80.002441 101.155762 Q 78.912109 101.155762 78.286377 100.309814 Q 77.660645 99.463867 77.660645 97.976074 Q 77.660645 96.509766 78.289062 95.674561 Q 78.917480 94.839355 80.002441 94.839355 Q 80.544922 94.839355 80.958496 95.072998 Q 81.372070 95.306641 81.608398 95.752441 Z M 78.702637 97.997559 Q 78.702637 99.146973 79.067871 99.732422 Q 79.433105 100.317871 80.147461 100.317871 Q 80.861816 100.317871 81.235107 99.727051 Q 81.608398 99.136230 81.608398 97.997559 Q 81.608398 96.853516 81.235107 96.265381 Q 80.861816 95.677246 80.147461 95.677246 Q 79.433105 95.677246 79.067871 96.262695 Q 78.702637 96.848145 78.702637 97.997559 Z " fill="black" fill-opacity="1.000000"/>
<path d="M 100.878906 104.319336 L 100.878906 90.300781 L 101.738281 90.300781 L 101.738281 104.319336 Z " fill="black" fill-opacity="1.000000"/>
<path d="M 121.143066 93.872559 L 121.143066 96.885742 L 122.399902 96.885742 Q 123.151855 96.885742 123.573486 96.488281 Q 123.995117 96.090820 123.995117 95.376465 Q 123.995117 94.662109 123.576172 94.267334 Q 123.157227 93.872559 122.399902 93.872559 Z M 120.058105 92.980957 L 122.399902 92.980957 Q 123.742676 92.980957 124.435547 93.590576 Q 125.128418 94.200195 125.128418 95.376465 Q 125.128418 96.563477 124.438232 97.170410 Q 123.748047 97.777344 122.399902 97.777344 L 121.143066 97.777344 L 121.143066 101.000000 L 120.058105 101.000000 Z " fill="black" fill-opacity="1.000000"/>
<path d="M 132.015625 97.498047 L 132.015625 97.981445 L 127.734863 97.981445 L 127.734863 98.013672 Q 127.691895 99.243652 128.204834 99.780762 Q 128.717773 100.317871 129.652344 100.317871 Q 130.125000 100.317871 130.640625 100.167480 Q 131.156250 100.017090 131.741699 99.710938 L 131.741699 100.693848 Q 131.177734 100.924805 130.654053 101.040283 Q 130.130371 101.155762 129.641602 101.155762 Q 128.239746 101.155762 127.450195 100.315186 Q 126.660645 99.474609 126.660645 97.997559 Q 126.660645 96.558105 127.434082 95.698730 Q 128.207520 94.839355 129.496582 94.839355 Q 130.645996 94.839355 131.309326 95.618164 Q 131.972656 96.396973 132.015625 97.498047 Z M 131.027344 97.208008 Q 130.962891 96.584961 130.573486 96.131104 Q 130.184082 95.677246 129.453613 95.677246 Q 128.739258 95.677246 128.277344 96.149902 Q 127.815430 96.622559 127.772461 97.213379 Z " fill="black" fill-opacity="1.000000"/>
<path d="M 139.015625 97.498047 L 139.015625 97.981445 L 134.734863 97.981445 L 134.734863 98.013672 Q 134.691895 99.243652 135.204834 99.780762 Q 135.717773 100.317871 136.652344 100.317871 Q 137.125000 100.317871 137.640625 100.167480 Q 138.156250 100.017090 138.741699 99.710938 L 138.741699 100.693848 Q 138.177734 100.924805 137.654053 101.040283 Q 137.130371 101.155762 136.641602 101.155762 Q 135.239746 101.155762 134.450195 100.315186 Q 133.660645 99.474609 133.660645 97.997559 Q 133.660645 96.558105 134.434082 95.698730 Q 135.207520 94.839355 136.496582 94.839355 Q 137.645996 94.839355 138.309326 95.618164 Q 138.972656 96.396973 139.015625 97.498047 Z M 138.027344 97.208008 Q 137.962891 96.584961 137.573486 96.131104 Q 137.184082 95.677246 136.453613 95.677246 Q 135.739258 95.677246 135.277344 96.149902 Q 134.815430 96.622559 134.772461 97.213379 Z " fill="black" fill-opacity="1.000000"/>
<path d="M 146.203613 96.225098 Q 145.886719 95.978027 145.559082 95.865234 Q 145.231445 95.752441 144.839355 95.752441 Q 143.915527 95.752441 143.426758 96.332520 Q 142.937988 96.912598 142.937988 98.008301 L 142.937988 101.000000 L 141.944336 101.000000 L 141.944336 94.984375 L 142.937988 94.984375 L 142.937988 96.160645 Q 143.185059 95.521484 143.697998 95.180420 Q 144.210938 94.839355 144.914551 94.839355 Q 145.279785 94.839355 145.596680 94.930664 Q 145.913574 95.021973 146.203613 95.215332 Z " fill="black" fill-opacity="1.000000"/>
<path d="M 154.193359 93.007812 L 155.643555 93.007812 L 157.029297 97.079102 L 158.425781 93.007812 L 159.881348 93.007812 L 159.881348 101.000000 L 158.876953 101.000000 L 158.876953 93.937012 L 157.448242 98.147949 L 156.626465 98.147949 L 155.192383 93.937012 L 155.192383 101.000000 L 154.193359 101.000000 Z " fill="black" fill-opacity="1.000000"/>
<path d="M 161.252441 92.980957 L 167.370117 92.980957 L 167.370117 93.894043 L 164.861816 93.894043 L 164.861816 101.000000 L 163.771484 101.000000 L 163.771484 93.894043 L 161.252441 93.894043 Z " fill="black" fill-opacity="1.000000"/>
<path d="M 168.789551 97.922363 L 168.789551 92.980957 L 169.879883 92.980957 L 169.879883 98.416504 Q 169.879883 99.001953 169.912109 99.251709 Q 169.944336 99.501465 170.024902 99.635742 Q 170.196777 99.952637 170.521729 100.113770 Q 170.846680 100.274902 171.308594 100.274902 Q 171.775879 100.274902 172.098145 100.113770 Q 172.420410 99.952637 172.597656 99.635742 Q 172.678223 99.501465 172.710449 99.254395 Q 172.742676 99.007324 172.742676 98.427246 L 172.742676 92.980957 L 173.827637 92.980957 L 173.827637 97.922363 Q 173.827637 99.152344 173.674561 99.670654 Q 173.521484 100.188965 173.145508 100.527344 Q 172.791016 100.844238 172.334473 101.000000 Q 171.877930 101.155762 171.308594 101.155762 Q 170.744629 101.155762 170.288086 101.000000 Q 169.831543 100.844238 169.471680 100.527344 Q 169.101074 100.194336 168.945312 99.665283 Q 168.789551 99.136230 168.789551 97.922363 Z " fill="black" fill-opacity="1.000000"/>
<path d="M 191.878906 104.319336 L 191.878906 90.300781 L 192.738281 90.300781 L 192.738281 104.319336 Z " fill="black" fill-opacity="1.000000"/>
<path d="M 205.143066 93.872559 L 205.143066 96.885742 L 206.399902 96.885742 Q 207.151855 96.885742 207.573486 96.488281 Q 207.995117 96.090820 207.995117 95.376465 Q 207.995117 94.662109 207.576172 94.267334 Q 207.157227 93.872559 206.399902 93.872559 Z M 204.058105 92.980957 L 206.399902 92.980957 Q 207.742676 92.980957 208.435547 93.590576 Q 209.128418 94.200195 209.128418 95.376465 Q 209.128418 96.563477 208.438232 97.170410 Q 207.748047 97.777344 206.399902 97.777344 L 205.143066 97.777344 L 205.143066 101.000000 L 204.058105 101.000000 Z " fill="black" fill-opacity="1.000000"/>
<path d="M 216.015625 97.498047 L 216.015625 97.981445 L 211.734863 97.981445 L 211.734863 98.013672 Q 211.691895 99.243652 212.204834 99.780762 Q 212.717773 100.317871 213.652344 100.317871 Q 214.125000 100.317871 214.640625 100.167480 Q 215.156250 100.017090 215.741699 99.710938 L 215.741699 100.693848 Q 215.177734 100.924805 214.654053 101.040283 Q 214.130371 101.155762 213.641602 101.155762 Q 212.239746 101.155762 211.450195 100.315186 Q 210.660645 99.474609 210.660645 97.997559 Q 210.660645 96.558105 211.434082 95.698730 Q 212.207520 94.839355 213.496582 94.839355 Q 214.645996 94.839355 215.309326 95.618164 Q 215.972656 96.396973 216.015625 97.498047 Z M 215.027344 97.208008 Q 214.962891 96.584961 214.573486 96.131104 Q 214.184082 95.677246 213.453613 95.677246 Q 212.739258 95.677246 212.277344 96.149902 Q 211.815430 96.622559 211.772461 97.213379 Z " fill="black" fill-opacity="1.000000"/>
<path d="M 223.015625 97.498047 L 223.015625 97.981445 L 218.734863 97.981445 L 218.734863 98.013672 Q 218.691895 99.243652 219.204834 99.780762 Q 219.717773 100.317871 220.652344 100.317871 Q 221.125000 100.317871 221.640625 100.167480 Q 222.156250 100.017090 222.741699 99.710938 L 222.741699 100.693848 Q 222.177734 100.924805 221.654053 101.040283 Q 221.130371 101.155762 220.641602 101.155762 Q 219.239746 101.155762 218.450195 100.315186 Q 217.660645 99.474609 217.660645 97.997559 Q 217.660645 96.558105 218.434082 95.698730 Q 219.207520 94.839355 220.496582 94.839355 Q 221.645996 94.839355 222.309326 95.618164 Q 222.972656 96.396973 223.015625 97.498047 Z M 222.027344 97.208008 Q 221.962891 96.584961 221.573486 96.131104 Q 221.184082 95.677246 220.453613 95.677246 Q 219.739258 95.677246 219.277344 96.149902 Q 218.815430 96.622559 218.772461 97.213379 Z " fill="black" fill-opacity="1.000000"/>
<path d="M 230.203613 96.225098 Q 229.886719 95.978027 229.559082 95.865234 Q 229.231445 95.752441 228.839355 95.752441 Q 227.915527 95.752441 227.426758 96.332520 Q 226.937988 96.912598 226.937988 98.008301 L 226.937988 101.000000 L 225.944336 101.000000 L 225.944336 94.984375 L 226.937988 94.984375 L 226.937988 96.160645 Q 227.185059 95.521484 227.697998 95.180420 Q 228.210938 94.839355 228.914551 94.839355 Q 229.279785 94.839355 229.596680 94.930664 Q 229.913574 95.021973 230.203613 95.215332 Z " fill="black" fill-opacity="1.000000"/>
<path d="M 239.079590 92.980957 L 243.532227 92.980957 L 243.532227 93.894043 L 241.851074 93.894043 L 241.851074 100.086914 L 243.532227 100.086914 L 243.532227 101.000000 L 239.079590 101.000000 L 239.079590 100.086914 L 240.760742 100.086914 L 240.760742 93.894043 L 239.079590 93.894043 Z " fill="black" fill-opacity="1.000000"/>
<path d="M 250.435547 93.254883 L 250.435547 94.355957 Q 249.941406 94.039062 249.444580 93.877930 Q 248.947754 93.716797 248.442871 93.716797 Q 247.674805 93.716797 247.229004 94.073975 Q 246.783203 94.431152 246.783203 95.038086 Q 246.783203 95.569824 247.075928 95.849121 Q 247.368652 96.128418 248.168945 96.316406 L 248.738281 96.445312 Q 249.866211 96.708496 250.381836 97.272461 Q 250.897461 97.836426 250.897461 98.808594 Q 250.897461 99.952637 250.188477 100.554199 Q 249.479492 101.155762 248.125977 101.155762 Q 247.562012 101.155762 246.992676 101.034912 Q 246.423340 100.914062 245.848633 100.672363 L 245.848633 99.517578 Q 246.466309 99.909668 247.016846 100.092285 Q 247.567383 100.274902 248.125977 100.274902 Q 248.947754 100.274902 249.404297 99.906982 Q 249.860840 99.539062 249.860840 98.878418 Q 249.860840 98.276855 249.546631 97.959961 Q 249.232422 97.643066 248.453613 97.471191 L 247.873535 97.336914 Q 246.756348 97.084473 246.251465 96.574219 Q 245.746582 96.063965 245.746582 95.204590 Q 245.746582 94.130371 246.468994 93.483154 Q 247.191406 92.835938 248.389160 92.835938 Q 248.851074 92.835938 249.361328 92.940674 Q 249.871582 93.045410 250.435547 93.254883 Z " fill="black" fill-opacity="1.000000"/>
<path d="M 254.341797 100.108398 Q 255.711426 100.108398 256.253906 99.434326 Q 256.796387 98.760254 256.796387 96.998535 Q 256.796387 95.220703 256.256592 94.546631 Q 255.716797 93.872559 254.341797 93.872559 L 253.826172 93.872559 L 253.826172 100.108398 Z M 254.363281 92.980957 Q 256.200195 92.980957 257.070312 93.958496 Q 257.940430 94.936035 257.940430 96.998535 Q 257.940430 99.050293 257.070312 100.025146 Q 256.200195 101.000000 254.363281 101.000000 L 252.735840 101.000000 L 252.735840 92.980957 Z " fill="black" fill-opacity="1.000000"/>
<path d="M 259.547852 97.111328 L 265.241211 97.111328 L 265.241211 98.019043 L 259.547852 98.019043 Z " fill="black" fill-opacity="1.000000"/>
<path d="M 269.308594 93.937012 L 268.164551 98.040527 L 270.452637 98.040527 Z M 268.653320 92.980957 L 269.969238 92.980957 L 272.423828 101.000000 L 271.301270 101.000000 L 270.710449 98.910645 L 267.901367 98.910645 L 267.321289 101.000000 L 266.198730 101.000000 Z " fill="black" fill-opacity="1.000000"/>
<path d="M 278.435547 93.254883 L 278.435547 94.355957 Q 277.941406 94.039062 277.444580 93.877930 Q 276.947754 93.716797 276.442871 93.716797 Q 275.674805 93.716797 275.229004 94.073975 Q 274.783203 94.431152 274.783203 95.038086 Q 274.783203 95.569824 275.075928 95.849121 Q 275.368652 96.128418 276.168945 96.316406 L 276.738281 96.445312 Q 277.866211 96.708496 278.381836 97.272461 Q 278.897461 97.836426 278.897461 98.808594 Q 278.897461 99.952637 278.188477 100.554199 Q 277.479492 101.155762 276.125977 101.155762 Q 275.562012 101.155762 274.992676 101.034912 Q 274.423340 100.914062 273.848633 100.672363 L 273.848633 99.517578 Q 274.466309 99.909668 275.016846 100.092285 Q 275.567383 100.274902 276.125977 100.274902 Q 276.947754 100.274902 277.404297 99.906982 Q 277.860840 99.539062 277.860840 98.878418 Q 277.860840 98.276855 277.546631 97.959961 Q 277.232422 97.643066 276.453613 97.471191 L 275.873535 97.336914 Q 274.756348 97.084473 274.251465 96.574219 Q 273.746582 96.063965 273.746582 95.204590 Q 273.746582 94.130371 274.468994 93.483154 Q 275.191406 92.835938 276.389160 92.835938 Q 276.851074 92.835938 277.361328 92.940674 Q 277.871582 93.045410 278.435547 93.254883 Z " fill="black" fill-opacity="1.000000"/>
<path d="M 296.878906 104.319336 L 296.878906 90.300781 L 297.738281 90.300781 L 297.738281 104.319336 Z " fill="black" fill-opacity="1.000000"/>
<path d="M 310.143066 93.872559 L 310.143066 96.885742 L 311.399902 96.885742 Q 312.151855 96.885742 312.573486 96.488281 Q 312.995117 96.090820 312.995117 95.376465 Q 312.995117 94.662109 312.576172 94.267334 Q 312.157227 93.872559 311.399902 93.872559 Z M 309.058105 92.980957 L 311.399902 92.980957 Q 312.742676 92.980957 313.435547 93.590576 Q 314.128418 94.200195 314.128418 95.376465 Q 314.128418 96.563477 313.438232 97.170410 Q 312.748047 97.777344 311.399902 97.777344 L 310.143066 97.777344 L 310.143066 101.000000 L 309.058105 101.000000 Z " fill="black" fill-opacity="1.000000"/>
<path d="M 321.015625 97.498047 L 321.015625 97.981445 L 316.734863 97.981445 L 316.734863 98.013672 Q 316.691895 99.243652 317.204834 99.780762 Q 317.717773 100.317871 318.652344 100.317871 Q 319.125000 100.317871 319.640625 100.167480 Q 320.156250 100.017090 320.741699 99.710938 L 320.741699 100.693848 Q 320.177734 100.924805 319.654053 101.040283 Q 319.130371 101.155762 318.641602 101.155762 Q 317.239746 101.155762 316.450195 100.315186 Q 315.660645 99.474609 315.660645 97.997559 Q 315.660645 96.558105 316.434082 95.698730 Q 317.207520 94.839355 318.496582 94.839355 Q 319.645996 94.839355 320.309326 95.618164 Q 320.972656 96.396973 321.015625 97.498047 Z M 320.027344 97.208008 Q 319.962891 96.584961 319.573486 96.131104 Q 319.184082 95.677246 318.453613 95.677246 Q 317.739258 95.677246 317.277344 96.149902 Q 316.815430 96.622559 316.772461 97.213379 Z " fill="black" fill-opacity="1.000000"/>
<path d="M 328.015625 97.498047 L 328.015625 97.981445 L 323.734863 97.981445 L 323.734863 98.013672 Q 323.691895 99.243652 324.204834 99.780762 Q 324.717773 100.317871 325.652344 100.317871 Q 326.125000 100.317871 326.640625 100.167480 Q 327.156250 100.017090 327.741699 99.710938 L 327.741699 100.693848 Q 327.177734 100.924805 326.654053 101.040283 Q 326.130371 101.155762 325.641602 101.155762 Q 324.239746 101.155762 323.450195 100.315186 Q 322.660645 99.474609 322.660645 97.997559 Q 322.660645 96.558105 323.434082 95.698730 Q 324.207520 94.839355 325.496582 94.839355 Q 326.645996 94.839355 327.309326 95.618164 Q 327.972656 96.396973 328.015625 97.498047 Z M 327.027344 97.208008 Q 326.962891 96.584961 326.573486 96.131104 Q 326.184082 95.677246 325.453613 95.677246 Q 324.739258 95.677246 324.277344 96.149902 Q 323.815430 96.622559 323.772461 97.213379 Z " fill="black" fill-opacity="1.000000"/>
<path d="M 335.203613 96.225098 Q 334.886719 95.978027 334.559082 95.865234 Q 334.231445 95.752441 333.839355 95.752441 Q 332.915527 95.752441 332.426758 96.332520 Q 331.937988 96.912598 331.937988 98.008301 L 331.937988 101.000000 L 330.944336 101.000000 L 330.944336 94.984375 L 331.937988 94.984375 L 331.937988 96.160645 Q 332.185059 95.521484 332.697998 95.180420 Q 333.210938 94.839355 333.914551 94.839355 Q 334.279785 94.839355 334.596680 94.930664 Q 334.913574 95.021973 335.203613 95.215332 Z " fill="black" fill-opacity="1.000000"/>
<path d="M 344.079590 92.980957 L 348.532227 92.980957 L 348.532227 93.894043 L 346.851074 93.894043 L 346.851074 100.086914 L 348.532227 100.086914 L 348.532227 101.000000 L 344.079590 101.000000 L 344.079590 100.086914 L 345.760742 100.086914 L 345.760742 93.894043 L 344.079590 93.894043 Z " fill="black" fill-opacity="1.000000"/>
<path d="M 355.645020 97.272461 L 355.645020 101.000000 L 354.651367 101.000000 L 354.651367 97.272461 Q 354.651367 96.461426 354.366699 96.080078 Q 354.082031 95.698730 353.475098 95.698730 Q 352.782227 95.698730 352.408936 96.190186 Q 352.035645 96.681641 352.035645 97.600098 L 352.035645 101.000000 L 351.047363 101.000000 L 351.047363 94.984375 L 352.035645 94.984375 L 352.035645 95.886719 Q 352.298828 95.371094 352.750000 95.105225 Q 353.201172 94.839355 353.818848 94.839355 Q 354.737305 94.839355 355.191162 95.443604 Q 355.645020 96.047852 355.645020 97.272461 Z " fill="black" fill-opacity="1.000000"/>
<path d="M 360.297852 93.276367 L 360.297852 94.984375 L 362.542969 94.984375 L 362.542969 95.752441 L 360.297852 95.752441 L 360.297852 99.018066 Q 360.297852 99.684082 360.550293 99.947266 Q 360.802734 100.210449 361.431152 100.210449 L 362.542969 100.210449 L 362.542969 101.000000 L 361.334473 101.000000 Q 360.222656 101.000000 359.766113 100.554199 Q 359.309570 100.108398 359.309570 99.018066 L 359.309570 95.752441 L 357.703613 95.752441 L 357.703613 94.984375 L 359.309570 94.984375 L 359.309570 93.276367 Z " fill="black" fill-opacity="1.000000"/>
<path d="M 370.015625 97.498047 L 370.015625 97.981445 L 365.734863 97.981445 L 365.734863 98.013672 Q 365.691895 99.243652 366.204834 99.780762 Q 366.717773 100.317871 367.652344 100.317871 Q 368.125000 100.317871 368.640625 100.167480 Q 369.156250 100.017090 369.741699 99.710938 L 369.741699 100.693848 Q 369.177734 100.924805 368.654053 101.040283 Q 368.130371 101.155762 367.641602 101.155762 Q 366.239746 101.155762 365.450195 100.315186 Q 364.660645 99.474609 364.660645 97.997559 Q 364.660645 96.558105 365.434082 95.698730 Q 366.207520 94.839355 367.496582 94.839355 Q 368.645996 94.839355 369.309326 95.618164 Q 369.972656 96.396973 370.015625 97.498047 Z M 369.027344 97.208008 Q 368.962891 96.584961 368.573486 96.131104 Q 368.184082 95.677246 367.453613 95.677246 Q 366.739258 95.677246 366.277344 96.149902 Q 365.815430 96.622559 365.772461 97.213379 Z " fill="black" fill-opacity="1.000000"/>
<path d="M 377.203613 96.225098 Q 376.886719 95.978027 376.559082 95.865234 Q 376.231445 95.752441 375.839355 95.752441 Q 374.915527 95.752441 374.426758 96.332520 Q 373.937988 96.912598 373.937988 98.008301 L 373.937988 101.000000 L 372.944336 101.000000 L 372.944336 94.984375 L 373.937988 94.984375 L 373.937988 96.160645 Q 374.185059 95.521484 374.697998 95.180420 Q 375.210938 94.839355 375.914551 94.839355 Q 376.279785 94.839355 376.596680 94.930664 Q 376.913574 95.021973 377.203613 95.215332 Z " fill="black" fill-opacity="1.000000"/>
<path d="M 383.709473 92.642578 L 383.709473 93.464355 L 382.586914 93.464355 Q 382.055176 93.464355 381.848389 93.681885 Q 381.641602 93.899414 381.641602 94.452637 L 381.641602 94.984375 L 383.709473 94.984375 L 383.709473 95.752441 L 381.641602 95.752441 L 381.641602 101.000000 L 380.653320 101.000000 L 380.653320 95.752441 L 379.047363 95.752441 L 379.047363 94.984375 L 380.653320 94.984375 L 380.653320 94.565430 Q 380.653320 93.577148 381.107178 93.109863 Q 381.561035 92.642578 382.522461 92.642578 Z " fill="black" fill-opacity="1.000000"/>
<path d="M 388.770508 97.976074 L 388.442871 97.976074 Q 387.578125 97.976074 387.140381 98.279541 Q 386.702637 98.583008 386.702637 99.184570 Q 386.702637 99.727051 387.030273 100.027832 Q 387.357910 100.328613 387.937988 100.328613 Q 388.754395 100.328613 389.221680 99.761963 Q 389.688965 99.195312 389.694336 98.196289 L 389.694336 97.976074 Z M 390.687988 97.567871 L 390.687988 101.000000 L 389.694336 101.000000 L 389.694336 100.108398 Q 389.377441 100.645508 388.896729 100.900635 Q 388.416016 101.155762 387.728516 101.155762 Q 386.810059 101.155762 386.262207 100.637451 Q 385.714355 100.119141 385.714355 99.249023 Q 385.714355 98.244629 386.388428 97.723633 Q 387.062500 97.202637 388.367676 97.202637 L 389.694336 97.202637 L 389.694336 97.046875 Q 389.688965 96.327148 389.329102 96.002197 Q 388.969238 95.677246 388.179688 95.677246 Q 387.674805 95.677246 387.159180 95.822266 Q 386.643555 95.967285 386.154785 96.246582 L 386.154785 95.258301 Q 386.702637 95.048828 387.204834 94.944092 Q 387.707031 94.839355 388.179688 94.839355 Q 388.926270 94.839355 389.455322 95.059570 Q 389.984375 95.279785 390.312012 95.720215 Q 390.516113 95.988770 390.602051 96.383545 Q 390.687988 96.778320 390.687988 97.567871 Z " fill="black" fill-opacity="1.000000"/>
<path d="M 397.698730 100.693848 Q 397.301270 100.924805 396.879639 101.040283 Q 396.458008 101.155762 396.017578 101.155762 Q 394.621094 101.155762 393.834229 100.317871 Q 393.047363 99.479980 393.047363 97.997559 Q 393.047363 96.515137 393.834229 95.677246 Q 394.621094 94.839355 396.017578 94.839355 Q 396.452637 94.839355 396.866211 94.952148 Q 397.279785 95.064941 397.698730 95.301270 L 397.698730 96.337891 Q 397.306641 95.988770 396.911865 95.833008 Q 396.517090 95.677246 396.017578 95.677246 Q 395.088379 95.677246 394.588867 96.278809 Q 394.089355 96.880371 394.089355 97.997559 Q 394.089355 99.109375 394.591553 99.713623 Q 395.093750 100.317871 396.017578 100.317871 Q 396.533203 100.317871 396.941406 100.159424 Q 397.349609 100.000977 397.698730 99.667969 Z " fill="black" fill-opacity="1.000000"/>
<path d="M 405.015625 97.498047 L 405.015625 97.981445 L 400.734863 97.981445 L 400.734863 98.013672 Q 400.691895 99.243652 401.204834 99.780762 Q 401.717773 100.317871 402.652344 100.317871 Q 403.125000 100.317871 403.640625 100.167480 Q 404.156250 100.017090 404.741699 99.710938 L 404.741699 100.693848 Q 404.177734 100.924805 403.654053 101.040283 Q 403.130371 101.155762 402.641602 101.155762 Q 401.239746 101.155762 400.450195 100.315186 Q 399.660645 99.474609 399.660645 97.997559 Q 399.660645 96.558105 400.434082 95.698730 Q 401.207520 94.839355 402.496582 94.839355 Q 403.645996 94.839355 404.309326 95.618164 Q 404.972656 96.396973 405.015625 97.498047 Z M 404.027344 97.208008 Q 403.962891 96.584961 403.573486 96.131104 Q 403.184082 95.677246 402.453613 95.677246 Q 401.739258 95.677246 401.277344 96.149902 Q 400.815430 96.622559 400.772461 97.213379 Z " fill="black" fill-opacity="1.000000"/>
<path d="M 415.878906 104.319336 L 415.878906 90.300781 L 416.738281 90.300781 L 416.738281 104.319336 Z " fill="black" fill-opacity="1.000000"/>
<path d="M 6.892578 72.335938 L 6.892578 71.412109 L 13.729980 71.412109 L 13.729980 72.335938 Z " fill="black" fill-opacity="1.000000"/>
<path d="M 13.892578 72.335938 L 13.892578 71.412109 L 20.729980 71.412109 L 20.729980 72.335938 Z " fill="black" fill-opacity="1.000000"/>
<path d="M 20.892578 72.335938 L 20.892578 71.412109 L 27.729980 71.412109 L 27.729980 72.335938 Z " fill="black" fill-opacity="1.000000"/>
<path d="M 27.892578 72.335938 L 27.892578 71.412109 L 34.729980 71.412109 L 34.729980 72.335938 Z " fill="black" fill-opacity="1.000000"/>
<path d="M 34.892578 72.335938 L 34.892578 71.412109 L 41.729980 71.412109 L 41.729980 72.335938 Z " fill="black" fill-opacity="1.000000"/>
<path d="M 41.892578 72.335938 L 41.892578 71.412109 L 48.729980 71.412109 L 48.729980 72.335938 Z " fill="black" fill-opacity="1.000000"/>
<path d="M 48.892578 72.335938 L 48.892578 71.412109 L 55.729980 71.412109 L 55.729980 72.335938 Z " fill="black" fill-opacity="1.000000"/>
<path d="M 55.892578 72.335938 L 55.892578 71.412109 L 62.729980 71.412109 L 62.729980 72.335938 Z " fill="black" fill-opacity="1.000000"/>
<path d="M 62.892578 72.335938 L 62.892578 71.412109 L 69.729980 71.412109 L 69.729980 72.335938 Z " fill="black" fill-opacity="1.000000"/>
<path d="M 69.892578 72.335938 L 69.892578 71.412109 L 76.729980 71.412109 L 76.729980 72.335938 Z " fill="black" fill-opacity="1.000000"/>
<path d="M 76.892578 72.335938 L 76.892578 71.412109 L 83.729980 71.412109 L 83.729980 72.335938 Z " fill="black" fill-opacity="1.000000"/>
<path d="M 83.892578 72.335938 L 83.892578 71.412109 L 90.729980 71.412109 L 90.729980 72.335938 Z " fill="black" fill-opacity="1.000000"/>
<path d="M 90.892578 72.335938 L 90.892578 71.412109 L 97.729980 71.412109 L 97.729980 72.335938 Z " fill="black" fill-opacity="1.000000"/>
<path d="M 97.892578 72.335938 L 97.892578 71.412109 L 104.729980 71.412109 L 104.729980 72.335938 Z " fill="black" fill-opacity="1.000000"/>
<path d="M 104.892578 72.335938 L 104.892578 71.412109 L 111.729980 71.412109 L 111.729980 72.335938 Z " fill="black" fill-opacity="1.000000"/>
<path d="M 111.892578 72.335938 L 111.892578 71.412109 L 118.729980 71.412109 L 118.729980 72.335938 Z " fill="black" fill-opacity="1.000000"/>
<path d="M 118.892578 72.335938 L 118.892578 71.412109 L 125.729980 71.412109 L 125.729980 72.335938 Z " fill="black" fill-opacity="1.000000"/>
<path d="M 125.892578 72.335938 L 125.892578 71.412109 L 132.729980 71.412109 L 132.729980 72.335938 Z " fill="black" fill-opacity="1.000000"/>
<path d="M 132.892578 72.335938 L 132.892578 71.412109 L 139.729980 71.412109 L 139.729980 72.335938 Z " fill="black" fill-opacity="1.000000"/>
<path d="M 139.892578 72.335938 L 139.892578 71.412109 L 146.729980 71.412109 L 146.729980 72.335938 Z " fill="black" fill-opacity="1.000000"/>
<path d="M 146.892578 72.335938 L 146.892578 71.412109 L 153.729980 71.412109 L 153.729980 72.335938 Z " fill="black" fill-opacity="1.000000"/>
<path d="M 153.892578 72.335938 L 153.892578 71.412109 L 160.729980 71.412109 L 160.729980 72.335938 Z " fill="black" fill-opacity="1.000000"/>
<path d="M 160.892578 72.335938 L 160.892578 71.412109 L 167.729980 71.412109 L 167.729980 72.335938 Z " fill="black" fill-opacity="1.000000"/>
<path d="M 167.892578 72.335938 L 167.892578 71.412109 L 174.729980 71.412109 L 174.729980 72.335938 Z " fill="black" fill-opacity="1.000000"/>
<path d="M 174.892578 72.335938 L 174.892578 71.412109 L 181.729980 71.412109 L 181.729980 72.335938 Z " fill="black" fill-opacity="1.000000"/>
<path d="M 181.892578 72.335938 L 181.892578 71.412109 L 188.729980 71.412109 L 188.729980 72.335938 Z " fill="black" fill-opacity="1.000000"/>
<path d="M 188.892578 72.335938 L 188.892578 71.412109 L 195.729980 71.412109 L 195.729980 72.335938 Z " fill="black" fill-opacity="1.000000"/>
<path d="M 195.892578 72.335938 L 195.892578 71.412109 L 202.729980 71.412109 L 202.729980 72.335938 Z " fill="black" fill-opacity="1.000000"/>
<path d="M 202.892578 72.335938 L 202.892578 71.412109 L 209.729980 71.412109 L 209.729980 72.335938 Z " fill="black" fill-opacity="1.000000"/>
<path d="M 209.892578 72.335938 L 209.892578 71.412109 L 216.729980 71.412109 L 216.729980 72.335938 Z " fill="black" fill-opacity="1.000000"/>
<path d="M 216.892578 72.335938 L 216.892578 71.412109 L 223.729980 71.412109 L 223.729980 72.335938 Z " fill="black" fill-opacity="1.000000"/>
<path d="M 223.892578 72.335938 L 223.892578 71.412109 L 230.729980 71.412109 L 230.729980 72.335938 Z " fill="black" fill-opacity="1.000000"/>
<path d="M 230.892578 72.335938 L 230.892578 71.412109 L 237.729980 71.412109 L 237.729980 72.335938 Z " fill="black" fill-opacity="1.000000"/>
<path d="M 237.892578 72.335938 L 237.892578 71.412109 L 244.729980 71.412109 L 244.729980 72.335938 Z " fill="black" fill-opacity="1.000000"/>
<path d="M 244.892578 72.335938 L 244.892578 71.412109 L 251.729980 71.412109 L 251.729980 72.335938 Z " fill="black" fill-opacity="1.000000"/>
<path d="M 251.892578 72.335938 L 251.892578 71.412109 L 258.729980 71.412109 L 258.729980 72.335938 Z " fill="black" fill-opacity="1.000000"/>
<path d="M 258.892578 72.335938 L 258.892578 71.412109 L 265.729980 71.412109 L 265.729980 72.335938 Z " fill="black" fill-opacity="1.000000"/>
<path d="M 265.892578 72.335938 L 265.892578 71.412109 L 272.729980 71.412109 L 272.729980 72.335938 Z " fill="black" fill-opacity="1.000000"/>
<path d="M 272.892578 72.335938 L 272.892578 71.412109 L 279.729980 71.412109 L 279.729980 72.335938 Z " fill="black" fill-opacity="1.000000"/>
<path d="M 279.892578 72.335938 L 279.892578 71.412109 L 286.729980 71.412109 L 286.729980 72.335938 Z " fill="black" fill-opacity="1.000000"/>
<path d="M 286.892578 72.335938 L 286.892578 71.412109 L 293.729980 71.412109 L 293.729980 72.335938 Z " fill="black" fill-opacity="1.000000"/>
<path d="M 293.892578 72.335938 L 293.892578 71.412109 L 300.729980 71.412109 L 300.729980 72.335938 Z " fill="black" fill-opacity="1.000000"/>
<path d="M 300.892578 72.335938 L 300.892578 71.412109 L 307.729980 71.412109 L 307.729980 72.335938 Z " fill="black" fill-opacity="1.000000"/>
<path d="M 307.892578 72.335938 L 307.892578 71.412109 L 314.729980 71.412109 L 314.729980 72.335938 Z " fill="black" fill-opacity="1.000000"/>
<path d="M 314.892578 72.335938 L 314.892578 71.412109 L 321.729980 71.412109 L 321.729980 72.335938 Z " fill="black" fill-opacity="1.000000"/>
<path d="M 321.892578 72.335938 L 321.892578 71.412109 L 328.729980 71.412109 L 328.729980 72.335938 Z " fill="black" fill-opacity="1.000000"/>
<path d="M 328.892578 72.335938 L 328.892578 71.412109 L 335.729980 71.412109 L 335.729980 72.335938 Z " fill="black" fill-opacity="1.000000"/>
<path d="M 335.892578 72.335938 L 335.892578 71.412109 L 342.729980 71.412109 L 342.729980 72.335938 Z " fill="black" fill-opacity="1.000000"/>
<path d="M 342.892578 72.335938 L 342.892578 71.412109 L 349.729980 71.412109 L 349.729980 72.335938 Z " fill="black" fill-opacity="1.000000"/>
<path d="M 349.892578 72.335938 L 349.892578 71.412109 L 356.729980 71.412109 L 356.729980 72.335938 Z " fill="black" fill-opacity="1.000000"/>
<path d="M 356.892578 72.335938 L 356.892578 71.412109 L 363.729980 71.412109 L 363.729980 72.335938 Z " fill="black" fill-opacity="1.000000"/>
<path d="M 363.892578 72.335938 L 363.892578 71.412109 L 370.729980 71.412109 L 370.729980 72.335938 Z " fill="black" fill-opacity="1.000000"/>
<path d="M 370.892578 72.335938 L 370.892578 71.412109 L 377.729980 71.412109 L 377.729980 72.335938 Z " fill="black" fill-opacity="1.000000"/>
<path d="M 377.892578 72.335938 L 377.892578 71.412109 L 384.729980 71.412109 L 384.729980 72.335938 Z " fill="black" fill-opacity="1.000000"/>
<path d="M 384.892578 72.335938 L 384.892578 71.412109 L 391.729980 71.412109 L 391.729980 72.335938 Z " fill="black" fill-opacity="1.000000"/>
<path d="M 391.892578 72.335938 L 391.892578 71.412109 L 398.729980 71.412109 L 398.729980 72.335938 Z " fill="black" fill-opacity="1.000000"/>
<path d="M 398.892578 72.335938 L 398.892578 71.412109 L 405.729980 71.412109 L 405.729980 72.335938 Z " fill="black" fill-opacity="1.000000"/>
<path d="M 405.892578 72.335938 L 405.892578 71.412109 L 412.729980 71.412109 L 412.729980 72.335938 Z " fill="black" fill-opacity="1.000000"/>
<path d="M 6.892578 85.335938 L 6.892578 84.412109 L 13.729980 84.412109 L 13.729980 85.335938 Z " fill="black" fill-opacity="1.000000"/>
<path d="M 13.892578 85.335938 L 13.892578 84.412109 L 20.729980 84.412109 L 20.729980 85.335938 Z " fill="black" fill-opacity="1.000000"/>
<path d="M 20.892578 85.335938 L 20.892578 84.412109 L 27.729980 84.412109 L 27.729980 85.335938 Z " fill="black" fill-opacity="1.000000"/>
<path d="M 27.892578 85.335938 L 27.892578 84.412109 L 34.729980 84.412109 L 34.729980 85.335938 Z " fill="black" fill-opacity="1.000000"/>
<path d="M 34.892578 85.335938 L 34.892578 84.412109 L 41.729980 84.412109 L 41.729980 85.335938 Z " fill="black" fill-opacity="1.000000"/>
<path d="M 41.892578 85.335938 L 41.892578 84.412109 L 48.729980 84.412109 L 48.729980 85.335938 Z " fill="black" fill-opacity="1.000000"/>
<path d="M 48.892578 85.335938 L 48.892578 84.412109 L 55.729980 84.412109 L 55.729980 85.335938 Z " fill="black" fill-opacity="1.000000"/>
<path d="M 55.892578 85.335938 L 55.892578 84.412109 L 62.729980 84.412109 L 62.729980 85.335938 Z " fill="black" fill-opacity="1.000000"/>
<path d="M 62.892578 85.335938 L 62.892578 84.412109 L 69.729980 84.412109 L 69.729980 85.335938 Z " fill="black" fill-opacity="1.000000"/>
<path d="M 69.892578 85.335938 L 69.892578 84.412109 L 76.729980 84.412109 L 76.729980 85.335938 Z " fill="black" fill-opacity="1.000000"/>
<path d="M 76.892578 85.335938 L 76.892578 84.412109 L 83.729980 84.412109 L 83.729980 85.335938 Z " fill="black" fill-opacity="1.000000"/>
<path d="M 83.892578 85.335938 L 83.892578 84.412109 L 90.729980 84.412109 L 90.729980 85.335938 Z " fill="black" fill-opacity="1.000000"/>
<path d="M 90.892578 85.335938 L 90.892578 84.412109 L 97.729980 84.412109 L 97.729980 85.335938 Z " fill="black" fill-opacity="1.000000"/>
<path d="M 100.878906 91.319336 L 100.878906 85.335938 L 97.892578 85.335938 L 97.892578 84.412109 L 104.729980 84.412109 L 104.729980 85.335938 L 101.738281 85.335938 L 101.738281 91.319336 Z " fill="black" fill-opacity="1.000000"/>
<path d="M 104.892578 85.335938 L 104.892578 84.412109 L 111.729980 84.412109 L 111.729980 85.335938 Z " fill="black" fill-opacity="1.000000"/>
<path d="M 111.892578 85.335938 L 111.892578 84.412109 L 118.729980 84.412109 L 118.729980 85.335938 Z " fill="black" fill-opacity="1.000000"/>
<path d="M 118.892578 85.335938 L 118.892578 84.412109 L 125.729980 84.412109 L 125.729980 85.335938 Z " fill="black" fill-opacity="1.000000"/>
<path d="M 125.892578 85.335938 L 125.892578 84.412109 L 132.729980 84.412109 L 132.729980 85.335938 Z " fill="black" fill-opacity="1.000000"/>
<path d="M 132.892578 85.335938 L 132.892578 84.412109 L 139.729980 84.412109 L 139.729980 85.335938 Z " fill="black" fill-opacity="1.000000"/>
<path d="M 139.892578 85.335938 L 139.892578 84.412109 L 146.729980 84.412109 L 146.729980 85.335938 Z " fill="black" fill-opacity="1.000000"/>
<path d="M 146.892578 85.335938 L 146.892578 84.412109 L 153.729980 84.412109 L 153.729980 85.335938 Z " fill="black" fill-opacity="1.000000"/>
<path d="M 153.892578 85.335938 L 153.892578 84.412109 L 160.729980 84.412109 L 160.729980 85.335938 Z " fill="black" fill-opacity="1.000000"/>
<path d="M 160.892578 85.335938 L 160.892578 84.412109 L 167.729980 84.412109 L 167.729980 85.335938 Z " fill="black" fill-opacity="1.000000"/>
<path d="M 167.892578 85.335938 L 167.892578 84.412109 L 174.729980 84.412109 L 174.729980 85.335938 Z " fill="black" fill-opacity="1.000000"/>
<path d="M 174.892578 85.335938 L 174.892578 84.412109 L 181.729980 84.412109 L 181.729980 85.335938 Z " fill="black" fill-opacity="1.000000"/>
<path d="M 181.892578 85.335938 L 181.892578 84.412109 L 188.729980 84.412109 L 188.729980 85.335938 Z " fill="black" fill-opacity="1.000000"/>
<path d="M 191.878906 91.319336 L 191.878906 85.335938 L 188.892578 85.335938 L 188.892578 84.412109 L 195.729980 84.412109 L 195.729980 85.335938 L 192.738281 85.335938 L 192.738281 91.319336 Z " fill="black" fill-opacity="1.000000"/>
<path d="M 195.892578 85.335938 L 195.892578 84.412109 L 202.729980 84.412109 L 202.729980 85.335938 Z " fill="black" fill-opacity="1.000000"/>
<path d="M 202.892578 85.335938 L 202.892578 84.412109 L 209.729980 84.412109 L 209.729980 85.335938 Z " fill="black" fill-opacity="1.000000"/>
<path d="M 209.892578 85.335938 L 209.892578 84.412109 L 216.729980 84.412109 L 216.729980 85.335938 Z " fill="black" fill-opacity="1.000000"/>
<path d="M 216.892578 85.335938 L 216.892578 84.412109 L 223.729980 84.412109 L 223.729980 85.335938 Z " fill="black" fill-opacity="1.000000"/>
<path d="M 223.892578 85.335938 L 223.892578 84.412109 L 230.729980 84.412109 L 230.729980 85.335938 Z " fill="black" fill-opacity="1.000000"/>
<path d="M 230.892578 85.335938 L 230.892578 84.412109 L 237.729980 84.412109 L 237.729980 85.335938 Z " fill="black" fill-opacity="1.000000"/>
<path d="M 237.892578 85.335938 L 237.892578 84.412109 L 244.729980 84.412109 L 244.729980 85.335938 Z " fill="black" fill-opacity="1.000000"/>
<path d="M 244.892578 85.335938 L 244.892578 84.412109 L 251.729980 84.412109 L 251.729980 85.335938 Z " fill="black" fill-opacity="1.000000"/>
<path d="M 251.892578 85.335938 L 251.892578 84.412109 L 258.729980 84.412109 L 258.729980 85.335938 Z " fill="black" fill-opacity="1.000000"/>
<path d="M 258.892578 85.335938 L 258.892578 84.412109 L 265.729980 84.412109 L 265.729980 85.335938 Z " fill="black" fill-opacity="1.000000"/>
<path d="M 265.892578 85.335938 L 265.892578 84.412109 L 272.729980 84.412109 L 272.729980 85.335938 Z " fill="black" fill-opacity="1.000000"/>
<path d="M 272.892578 85.335938 L 272.892578 84.412109 L 279.729980 84.412109 L 279.729980 85.335938 Z " fill="black" fill-opacity="1.000000"/>
<path d="M 279.892578 85.335938 L 279.892578 84.412109 L 286.729980 84.412109 L 286.729980 85.335938 Z " fill="black" fill-opacity="1.000000"/>
<path d="M 286.892578 85.335938 L 286.892578 84.412109 L 293.729980 84.412109 L 293.729980 85.335938 Z " fill="black" fill-opacity="1.000000"/>
<path d="M 296.878906 91.319336 L 296.878906 85.335938 L 293.892578 85.335938 L 293.892578 84.412109 L 300.729980 84.412109 L 300.729980 85.335938 L 297.738281 85.335938 L 297.738281 91.319336 Z " fill="black" fill-opacity="1.000000"/>
<path d="M 300.892578 85.335938 L 300.892578 84.412109 L 307.729980 84.412109 L 307.729980 85.335938 Z " fill="black" fill-opacity="1.000000"/>
<path d="M 307.892578 85.335938 L 307.892578 84.412109 L 314.729980 84.412109 L 314.729980 85.335938 Z " fill="black" fill-opacity="1.000000"/>
<path d="M 314.892578 85.335938 L 314.892578 84.412109 L 321.729980 84.412109 L 321.729980 85.335938 Z " fill="black" fill-opacity="1.000000"/>
<path d="M 321.892578 85.335938 L 321.892578 84.412109 L 328.729980 84.412109 L 328.729980 85.335938 Z " fill="black" fill-opacity="1.000000"/>
<path d="M 328.892578 85.335938 L 328.892578 84.412109 L 335.729980 84.412109 L 335.729980 85.335938 Z " fill="black" fill-opacity="1.000000"/>
<path d="M 335.892578 85.335938 L 335.892578 84.412109 L 342.729980 84.412109 L 342.729980 85.335938 Z " fill="black" fill-opacity="1.000000"/>
<path d="M 342.892578 85.335938 L 342.892578 84.412109 L 349.729980 84.412109 L 349.729980 85.335938 Z " fill="black" fill-opacity="1.000000"/>
<path d="M 349.892578 85.335938 L 349.892578 84.412109 L 356.729980 84.412109 L 356.729980 85.335938 Z " fill="black" fill-opacity="1.000000"/>
<path d="M 356.892578 85.335938 L 356.892578 84.412109 L 363.729980 84.412109 L 363.729980 85.335938 Z " fill="black" fill-opacity="1.000000"/>
<path d="M 363.892578 85.335938 L 363.892578 84.412109 L 370.729980 84.412109 L 370.729980 85.335938 Z " fill="black" fill-opacity="1.000000"/>
<path d="M 370.892578 85.335938 L 370.892578 84.412109 L 377.729980 84.412109 L 377.729980 85.335938 Z " fill="black" fill-opacity="1.000000"/>
<path d="M 377.892578 85.335938 L 377.892578 84.412109 L 384.729980 84.412109 L 384.729980 85.335938 Z " fill="black" fill-opacity="1.000000"/>
<path d="M 384.892578 85.335938 L 384.892578 84.412109 L 391.729980 84.412109 L 391.729980 85.335938 Z " fill="black" fill-opacity="1.000000"/>
<path d="M 391.892578 85.335938 L 391.892578 84.412109 L 398.729980 84.412109 L 398.729980 85.335938 Z " fill="black" fill-opacity="1.000000"/>
<path d="M 398.892578 85.335938 L 398.892578 84.412109 L 405.729980 84.412109 L 405.729980 85.335938 Z " fill="black" fill-opacity="1.000000"/>
<path d="M 405.892578 85.335938 L 405.892578 84.412109 L 412.729980 84.412109 L 412.729980 85.335938 Z " fill="black" fill-opacity="1.000000"/>
<path d="M 415.878906 91.319336 L 415.878906 85.335938 L 412.892578 85.335938 L 412.892578 84.412109 L 416.738281 84.412109 L 416.738281 91.319336 Z " fill="black" fill-opacity="1.000000"/>
<path d="M 415.878906 78.319336 L 415.878906 72.335938 L 412.892578 72.335938 L 412.892578 71.412109 L 416.738281 71.412109 L 416.738281 78.319336 Z " fill="black" fill-opacity="1.000000"/>
<path d="M 156.878906 13.319336 L 156.878906 6.412109 L 160.729980 6.412109 L 160.729980 7.335938 L 157.738281 7.335938 L 157.738281 13.319336 Z " fill="black" fill-opacity="1.000000"/>
<path d="M 156.878906 26.319336 L 156.878906 12.300781 L 157.738281 12.300781 L 157.738281 26.319336 Z " fill="black" fill-opacity="1.000000"/>
<path d="M 156.878906 33.335938 L 156.878906 25.300781 L 157.738281 25.300781 L 157.738281 32.412109 L 160.729980 32.412109 L 160.729980 33.335938 Z " fill="black" fill-opacity="1.000000"/>
<path d="M 156.878906 46.335938 L 156.878906 38.300781 L 157.738281 38.300781 L 157.738281 45.412109 L 160.729980 45.412109 L 160.729980 46.335938 Z " fill="black" fill-opacity="1.000000"/>
<path d="M 213.308594 62.418945 L 210.032227 55.866211 L 216.590332 55.866211 Z " fill="black" fill-opacity="1.000000"/>
<path d="M 160.892578 33.335938 L 160.892578 32.412109 L 167.729980 32.412109 L 167.729980 33.335938 Z " fill="black" fill-opacity="1.000000"/>
<path d="M 167.892578 33.335938 L 167.892578 32.412109 L 174.729980 32.412109 L 174.729980 33.335938 Z " fill="black" fill-opacity="1.000000"/>
<path d="M 174.892578 33.335938 L 174.892578 32.412109 L 181.729980 32.412109 L 181.729980 33.335938 Z " fill="black" fill-opacity="1.000000"/>
<path d="M 181.892578 33.335938 L 181.892578 32.412109 L 188.729980 32.412109 L 188.729980 33.335938 Z " fill="black" fill-opacity="1.000000"/>
<path d="M 188.892578 33.335938 L 188.892578 32.412109 L 195.729980 32.412109 L 195.729980 33.335938 Z " fill="black" fill-opacity="1.000000"/>
<path d="M 195.892578 33.335938 L 195.892578 32.412109 L 202.729980 32.412109 L 202.729980 33.335938 Z " fill="black" fill-opacity="1.000000"/>
<path d="M 202.892578 33.335938 L 202.892578 32.412109 L 209.729980 32.412109 L 209.729980 33.335938 Z " fill="black" fill-opacity="1.000000"/>
<path d="M 209.892578 33.335938 L 209.892578 32.412109 L 216.729980 32.412109 L 216.729980 33.335938 Z " fill="black" fill-opacity="1.000000"/>
<path d="M 216.892578 33.335938 L 216.892578 32.412109 L 223.729980 32.412109 L 223.729980 33.335938 Z " fill="black" fill-opacity="1.000000"/>
<path d="M 223.892578 33.335938 L 223.892578 32.412109 L 230.729980 32.412109 L 230.729980 33.335938 Z " fill="black" fill-opacity="1.000000"/>
<path d="M 230.892578 33.335938 L 230.892578 32.412109 L 237.729980 32.412109 L 237.729980 33.335938 Z " fill="black" fill-opacity="1.000000"/>
<path d="M 237.892578 33.335938 L 237.892578 32.412109 L 244.729980 32.412109 L 244.729980 33.335938 Z " fill="black" fill-opacity="1.000000"/>
<path d="M 244.892578 33.335938 L 244.892578 32.412109 L 251.729980 32.412109 L 251.729980 33.335938 Z " fill="black" fill-opacity="1.000000"/>
<path d="M 251.892578 33.335938 L 251.892578 32.412109 L 258.729980 32.412109 L 258.729980 33.335938 Z " fill="black" fill-opacity="1.000000"/>
<path d="M 160.892578 46.335938 L 160.892578 45.412109 L 167.729980 45.412109 L 167.729980 46.335938 Z " fill="black" fill-opacity="1.000000"/>
<path d="M 167.892578 46.335938 L 167.892578 45.412109 L 174.729980 45.412109 L 174.729980 46.335938 Z " fill="black" fill-opacity="1.000000"/>
<path d="M 174.892578 46.335938 L 174.892578 45.412109 L 181.729980 45.412109 L 181.729980 46.335938 Z " fill="black" fill-opacity="1.000000"/>
<path d="M 181.892578 46.335938 L 181.892578 45.412109 L 188.729980 45.412109 L 188.729980 46.335938 Z " fill="black" fill-opacity="1.000000"/>
<path d="M 188.892578 46.335938 L 188.892578 45.412109 L 195.729980 45.412109 L 195.729980 46.335938 Z " fill="black" fill-opacity="1.000000"/>
<path d="M 195.892578 46.335938 L 195.892578 45.412109 L 202.729980 45.412109 L 202.729980 46.335938 Z " fill="black" fill-opacity="1.000000"/>
<path d="M 202.892578 46.335938 L 202.892578 45.412109 L 209.729980 45.412109 L 209.729980 46.335938 Z " fill="black" fill-opacity="1.000000"/>
<path d="M 212.878906 52.319336 L 212.878906 46.335938 L 209.892578 46.335938 L 209.892578 45.412109 L 216.729980 45.412109 L 216.729980 46.335938 L 213.738281 46.335938 L 213.738281 52.319336 Z " fill="black" fill-opacity="1.000000"/>
<path d="M 216.892578 46.335938 L 216.892578 45.412109 L 223.729980 45.412109 L 223.729980 46.335938 Z " fill="black" fill-opacity="1.000000"/>
<path d="M 223.892578 46.335938 L 223.892578 45.412109 L 230.729980 45.412109 L 230.729980 46.335938 Z " fill="black" fill-opacity="1.000000"/>
<path d="M 230.892578 46.335938 L 230.892578 45.412109 L 237.729980 45.412109 L 237.729980 46.335938 Z " fill="black" fill-opacity="1.000000"/>
<path d="M 237.892578 46.335938 L 237.892578 45.412109 L 244.729980 45.412109 L 244.729980 46.335938 Z " fill="black" fill-opacity="1.000000"/>
<path d="M 244.892578 46.335938 L 244.892578 45.412109 L 251.729980 45.412109 L 251.729980 46.335938 Z " fill="black" fill-opacity="1.000000"/>
<path d="M 251.892578 46.335938 L 251.892578 45.412109 L 258.729980 45.412109 L 258.729980 46.335938 Z " fill="black" fill-opacity="1.000000"/>
<path d="M 258.892578 46.335938 L 258.892578 45.412109 L 261.878906 45.412109 L 261.878906 38.300781 L 262.738281 38.300781 L 262.738281 46.335938 Z " fill="black" fill-opacity="1.000000"/>
<path d="M 258.892578 33.335938 L 258.892578 32.412109 L 261.878906 32.412109 L 261.878906 25.300781 L 262.738281 25.300781 L 262.738281 33.335938 Z " fill="black" fill-opacity="1.000000"/>
<path d="M 177.143066 15.872559 L 177.143066 18.885742 L 178.399902 18.885742 Q 179.151855 18.885742 179.573486 18.488281 Q 179.995117 18.090820 179.995117 17.376465 Q 179.995117 16.662109 179.576172 16.267334 Q 179.157227 15.872559 178.399902 15.872559 Z M 176.058105 14.980957 L 178.399902 14.980957 Q 179.742676 14.980957 180.435547 15.590576 Q 181.128418 16.200195 181.128418 17.376465 Q 181.128418 18.563477 180.438232 19.170410 Q 179.748047 19.777344 178.399902 19.777344 L 177.143066 19.777344 L 177.143066 23.000000 L 176.058105 23.000000 Z " fill="black" fill-opacity="1.000000"/>
<path d="M 188.015625 19.498047 L 188.015625 19.981445 L 183.734863 19.981445 L 183.734863 20.013672 Q 183.691895 21.243652 184.204834 21.780762 Q 184.717773 22.317871 185.652344 22.317871 Q 186.125000 22.317871 186.640625 22.167480 Q 187.156250 22.017090 187.741699 21.710938 L 187.741699 22.693848 Q 187.177734 22.924805 186.654053 23.040283 Q 186.130371 23.155762 185.641602 23.155762 Q 184.239746 23.155762 183.450195 22.315186 Q 182.660645 21.474609 182.660645 19.997559 Q 182.660645 18.558105 183.434082 17.698730 Q 184.207520 16.839355 185.496582 16.839355 Q 186.645996 16.839355 187.309326 17.618164 Q 187.972656 18.396973 188.015625 19.498047 Z M 187.027344 19.208008 Q 186.962891 18.584961 186.573486 18.131104 Q 186.184082 17.677246 185.453613 17.677246 Q 184.739258 17.677246 184.277344 18.149902 Q 183.815430 18.622559 183.772461 19.213379 Z " fill="black" fill-opacity="1.000000"/>
<path d="M 195.015625 19.498047 L 195.015625 19.981445 L 190.734863 19.981445 L 190.734863 20.013672 Q 190.691895 21.243652 191.204834 21.780762 Q 191.717773 22.317871 192.652344 22.317871 Q 193.125000 22.317871 193.640625 22.167480 Q 194.156250 22.017090 194.741699 21.710938 L 194.741699 22.693848 Q 194.177734 22.924805 193.654053 23.040283 Q 193.130371 23.155762 192.641602 23.155762 Q 191.239746 23.155762 190.450195 22.315186 Q 189.660645 21.474609 189.660645 19.997559 Q 189.660645 18.558105 190.434082 17.698730 Q 191.207520 16.839355 192.496582 16.839355 Q 193.645996 16.839355 194.309326 17.618164 Q 194.972656 18.396973 195.015625 19.498047 Z M 194.027344 19.208008 Q 193.962891 18.584961 193.573486 18.131104 Q 193.184082 17.677246 192.453613 17.677246 Q 191.739258 17.677246 191.277344 18.149902 Q 190.815430 18.622559 190.772461 19.213379 Z " fill="black" fill-opacity="1.000000"/>
<path d="M 202.203613 18.225098 Q 201.886719 17.978027 201.559082 17.865234 Q 201.231445 17.752441 200.839355 17.752441 Q 199.915527 17.752441 199.426758 18.332520 Q 198.937988 18.912598 198.937988 20.008301 L 198.937988 23.000000 L 197.944336 23.000000 L 197.944336 16.984375 L 198.937988 16.984375 L 198.937988 18.160645 Q 199.185059 17.521484 199.697998 17.180420 Q 200.210938 16.839355 200.914551 16.839355 Q 201.279785 16.839355 201.596680 16.930664 Q 201.913574 17.021973 202.203613 17.215332 Z " fill="black" fill-opacity="1.000000"/>
<path d="M 211.058105 14.980957 L 215.816895 14.980957 L 215.816895 15.894043 L 212.143066 15.894043 L 212.143066 18.053223 L 215.655762 18.053223 L 215.655762 18.966309 L 212.143066 18.966309 L 212.143066 22.086914 L 215.918945 22.086914 L 215.918945 23.000000 L 211.058105 23.000000 Z " fill="black" fill-opacity="1.000000"/>
<path d="M 222.645020 19.272461 L 222.645020 23.000000 L 221.651367 23.000000 L 221.651367 19.272461 Q 221.651367 18.461426 221.366699 18.080078 Q 221.082031 17.698730 220.475098 17.698730 Q 219.782227 17.698730 219.408936 18.190186 Q 219.035645 18.681641 219.035645 19.600098 L 219.035645 23.000000 L 218.047363 23.000000 L 218.047363 16.984375 L 219.035645 16.984375 L 219.035645 17.886719 Q 219.298828 17.371094 219.750000 17.105225 Q 220.201172 16.839355 220.818848 16.839355 Q 221.737305 16.839355 222.191162 17.443604 Q 222.645020 18.047852 222.645020 19.272461 Z " fill="black" fill-opacity="1.000000"/>
<path d="M 227.297852 15.276367 L 227.297852 16.984375 L 229.542969 16.984375 L 229.542969 17.752441 L 227.297852 17.752441 L 227.297852 21.018066 Q 227.297852 21.684082 227.550293 21.947266 Q 227.802734 22.210449 228.431152 22.210449 L 229.542969 22.210449 L 229.542969 23.000000 L 228.334473 23.000000 Q 227.222656 23.000000 226.766113 22.554199 Q 226.309570 22.108398 226.309570 21.018066 L 226.309570 17.752441 L 224.703613 17.752441 L 224.703613 16.984375 L 226.309570 16.984375 L 226.309570 15.276367 Z " fill="black" fill-opacity="1.000000"/>
<path d="M 237.203613 18.225098 Q 236.886719 17.978027 236.559082 17.865234 Q 236.231445 17.752441 235.839355 17.752441 Q 234.915527 17.752441 234.426758 18.332520 Q 233.937988 18.912598 233.937988 20.008301 L 233.937988 23.000000 L 232.944336 23.000000 L 232.944336 16.984375 L 233.937988 16.984375 L 233.937988 18.160645 Q 234.185059 17.521484 234.697998 17.180420 Q 235.210938 16.839355 235.914551 16.839355 Q 236.279785 16.839355 236.596680 16.930664 Q 236.913574 17.021973 237.203613 17.215332 Z " fill="black" fill-opacity="1.000000"/>
<path d="M 242.608398 21.066406 Q 242.361328 21.694824 241.979980 22.720703 Q 241.448242 24.138672 241.265625 24.450195 Q 241.018555 24.869141 240.647949 25.078613 Q 240.277344 25.288086 239.783203 25.288086 L 238.988281 25.288086 L 238.988281 24.460938 L 239.573730 24.460938 Q 240.008789 24.460938 240.255859 24.208496 Q 240.502930 23.956055 240.884277 22.903320 L 238.558594 16.984375 L 239.605957 16.984375 L 241.389160 21.689453 L 243.145508 16.984375 L 244.192871 16.984375 Z " fill="black" fill-opacity="1.000000"/>
<path d="M 261.878906 26.319336 L 261.878906 12.300781 L 262.738281 12.300781 L 262.738281 26.319336 Z " fill="black" fill-opacity="1.000000"/>
<path d="M 160.892578 7.335938 L 160.892578 6.412109 L 167.729980 6.412109 L 167.729980 7.335938 Z " fill="black" fill-opacity="1.000000"/>
<path d="M 167.892578 7.335938 L 167.892578 6.412109 L 174.729980 6.412109 L 174.729980 7.335938 Z " fill="black" fill-opacity="1.000000"/>
<path d="M 174.892578 7.335938 L 174.892578 6.412109 L 181.729980 6.412109 L 181.729980 7.335938 Z " fill="black" fill-opacity="1.000000"/>
<path d="M 181.892578 7.335938 L 181.892578 6.412109 L 188.729980 6.412109 L 188.729980 7.335938 Z " fill="black" fill-opacity="1.000000"/>
<path d="M 188.892578 7.335938 L 188.892578 6.412109 L 195.729980 6.412109 L 195.729980 7.335938 Z " fill="black" fill-opacity="1.000000"/>
<path d="M 195.892578 7.335938 L 195.892578 6.412109 L 202.729980 6.412109 L 202.729980 7.335938 Z " fill="black" fill-opacity="1.000000"/>
<path d="M 202.892578 7.335938 L 202.892578 6.412109 L 209.729980 6.412109 L 209.729980 7.335938 Z " fill="black" fill-opacity="1.000000"/>
<path d="M 209.892578 7.335938 L 209.892578 6.412109 L 216.729980 6.412109 L 216.729980 7.335938 Z " fill="black" fill-opacity="1.000000"/>
<path d="M 216.892578 7.335938 L 216.892578 6.412109 L 223.729980 6.412109 L 223.729980 7.335938 Z " fill="black" fill-opacity="1.000000"/>
<path d="M 223.892578 7.335938 L 223.892578 6.412109 L 230.729980 6.412109 L 230.729980 7.335938 Z " fill="black" fill-opacity="1.000000"/>
<path d="M 230.892578 7.335938 L 230.892578 6.412109 L 237.729980 6.412109 L 237.729980 7.335938 Z " fill="black" fill-opacity="1.000000"/>
<path d="M 237.892578 7.335938 L 237.892578 6.412109 L 244.729980 6.412109 L 244.729980 7.335938 Z " fill="black" fill-opacity="1.000000"/>
<path d="M 244.892578 7.335938 L 244.892578 6.412109 L 251.729980 6.412109 L 251.729980 7.335938 Z " fill="black" fill-opacity="1.000000"/>
<path d="M 251.892578 7.335938 L 251.892578 6.412109 L 258.729980 6.412109 L 258.729980 7.335938 Z " fill="black" fill-opacity="1.000000"/>
<path d="M 261.878906 13.319336 L 261.878906 7.335938 L 258.892578 7.335938 L 258.892578 6.412109 L 262.738281 6.412109 L 262.738281 13.319336 Z " fill="black" fill-opacity="1.000000"/>
</svg>
