<svg xmlns="http://www.w3.org/2000/svg" version="1.1" width="372" height="248">
<path d="M 2.878906 13.319336 L 2.878906 6.412109 L 6.729980 6.412109 L 6.729980 7.335938 L 3.738281 7.335938 L 3.738281 13.319336 Z " fill="rgb(0, 0, 0)" fill-opacity="1.000000" />
<path d="M 2.878906 26.319336 L 2.878906 22.129883 L 3.738281 22.129883 L 3.738281 26.319336 Z M 2.878906 21.163086 L 2.878906 17.457031 L 3.738281 17.457031 L 3.738281 21.163086 Z M 2.878906 16.490234 L 2.878906 12.300781 L 3.738281 12.300781 L 3.738281 16.490234 Z " fill="rgb(0, 0, 0)" fill-opacity="1.000000" />
<path d="M 2.878906 39.319336 L 2.878906 35.129883 L 3.738281 35.129883 L 3.738281 39.319336 Z M 2.878906 34.163086 L 2.878906 30.457031 L 3.738281 30.457031 L 3.738281 34.163086 Z M 2.878906 29.490234 L 2.878906 25.300781 L 3.738281 25.300781 L 3.738281 29.490234 Z " fill="rgb(0, 0, 0)" fill-opacity="1.000000" />
<path d="M 2.878906 52.319336 L 2.878906 48.129883 L 3.738281 48.129883 L 3.738281 52.319336 Z M 2.878906 47.163086 L 2.878906 43.457031 L 3.738281 43.457031 L 3.738281 47.163086 Z M 2.878906 42.490234 L 2.878906 38.300781 L 3.738281 38.300781 L 3.738281 42.490234 Z " fill="rgb(0, 0, 0)" fill-opacity="1.000000" />
<path d="M 2.878906 65.319336 L 2.878906 61.129883 L 3.738281 61.129883 L 3.738281 65.319336 Z M 2.878906 60.163086 L 2.878906 56.457031 L 3.738281 56.457031 L 3.738281 60.163086 Z M 2.878906 55.490234 L 2.878906 51.300781 L 3.738281 51.300781 L 3.738281 55.490234 Z " fill="rgb(0, 0, 0)" fill-opacity="1.000000" />
<path d="M 2.878906 78.319336 L 2.878906 74.129883 L 3.738281 74.129883 L 3.738281 78.319336 Z M 2.878906 73.163086 L 2.878906 69.457031 L 3.738281 69.457031 L 3.738281 73.163086 Z M 2.878906 68.490234 L 2.878906 64.300781 L 3.738281 64.300781 L 3.738281 68.490234 Z " fill="rgb(0, 0, 0)" fill-opacity="1.000000" />
<path d="M 2.878906 91.319336 L 2.878906 87.129883 L 3.738281 87.129883 L 3.738281 91.319336 Z M 2.878906 86.163086 L 2.878906 82.457031 L 3.738281 82.457031 L 3.738281 86.163086 Z M 2.878906 81.490234 L 2.878906 77.300781 L 3.738281 77.300781 L 3.738281 81.490234 Z " fill="rgb(0, 0, 0)" fill-opacity="1.000000" />
<path d="M 2.878906 98.335938 L 2.878906 90.300781 L 3.738281 90.300781 L 3.738281 97.412109 L 6.729980 97.412109 L 6.729980 98.335938 Z " fill="rgb(0, 0, 0)" fill-opacity="1.000000" />
<path d="M 16.878906 143.319336 L 16.878906 136.412109 L 20.729980 136.412109 L 20.729980 137.335938 L 17.738281 137.335938 L 17.738281 143.319336 Z " fill="rgb(0, 0, 0)" fill-opacity="1.000000" />
<path d="M 16.878906 156.319336 L 16.878906 142.300781 L 17.738281 142.300781 L 17.738281 156.319336 Z " fill="rgb(0, 0, 0)" fill-opacity="1.000000" />
<path d="M 16.878906 163.335938 L 16.878906 155.300781 L 17.738281 155.300781 L 17.738281 162.412109 L 20.729980 162.412109 L 20.729980 163.335938 Z " fill="rgb(0, 0, 0)" fill-opacity="1.000000" />
<path d="M 16.878906 221.319336 L 16.878906 214.412109 L 20.729980 214.412109 L 20.729980 215.335938 L 17.738281 215.335938 L 17.738281 221.319336 Z " fill="rgb(0, 0, 0)" fill-opacity="1.000000" />
<path d="M 16.878906 234.319336 L 16.878906 220.300781 L 17.738281 220.300781 L 17.738281 234.319336 Z " fill="rgb(0, 0, 0)" fill-opacity="1.000000" />
<path d="M 16.878906 241.335938 L 16.878906 233.300781 L 17.738281 233.300781 L 17.738281 240.412109 L 20.729980 240.412109 L 20.729980 241.335938 Z " fill="rgb(0, 0, 0)" fill-opacity="1.000000" />
<path d="M 20.892578 241.335938 L 20.892578 240.412109 L 27.729980 240.412109 L 27.729980 241.335938 Z " fill="rgb(0, 0, 0)" fill-opacity="1.000000" />
<path d="M 27.892578 241.335938 L 27.892578 240.412109 L 34.729980 240.412109 L 34.729980 241.335938 Z " fill="rgb(0, 0, 0)" fill-opacity="1.000000" />
<path d="M 34.892578 241.335938 L 34.892578 240.412109 L 41.729980 240.412109 L 41.729980 241.335938 Z " fill="rgb(0, 0, 0)" fill-opacity="1.000000" />
<path d="M 41.892578 241.335938 L 41.892578 240.412109 L 48.729980 240.412109 L 48.729980 241.335938 Z " fill="rgb(0, 0, 0)" fill-opacity="1.000000" />
<path d="M 48.892578 241.335938 L 48.892578 240.412109 L 55.729980 240.412109 L 55.729980 241.335938 Z " fill="rgb(0, 0, 0)" fill-opacity="1.000000" />
<path d="M 55.892578 241.335938 L 55.892578 240.412109 L 58.878906 240.412109 L 58.878906 233.300781 L 59.738281 233.300781 L 59.738281 241.335938 Z " fill="rgb(0, 0, 0)" fill-opacity="1.000000" />
<path d="M 128.878906 241.335938 L 128.878906 233.300781 L 129.738281 233.300781 L 129.738281 240.412109 L 132.729980 240.412109 L 132.729980 241.335938 Z " fill="rgb(0, 0, 0)" fill-opacity="1.000000" />
<path d="M 132.892578 241.335938 L 132.892578 240.412109 L 139.729980 240.412109 L 139.729980 241.335938 Z " fill="rgb(0, 0, 0)" fill-opacity="1.000000" />
<path d="M 139.892578 241.335938 L 139.892578 240.412109 L 146.729980 240.412109 L 146.729980 241.335938 Z " fill="rgb(0, 0, 0)" fill-opacity="1.000000" />
<path d="M 146.892578 241.335938 L 146.892578 240.412109 L 153.729980 240.412109 L 153.729980 241.335938 Z " fill="rgb(0, 0, 0)" fill-opacity="1.000000" />
<path d="M 153.892578 241.335938 L 153.892578 240.412109 L 160.729980 240.412109 L 160.729980 241.335938 Z " fill="rgb(0, 0, 0)" fill-opacity="1.000000" />
<path d="M 160.892578 241.335938 L 160.892578 240.412109 L 167.729980 240.412109 L 167.729980 241.335938 Z " fill="rgb(0, 0, 0)" fill-opacity="1.000000" />
<path d="M 167.892578 241.335938 L 167.892578 240.412109 L 170.878906 240.412109 L 170.878906 233.300781 L 171.738281 233.300781 L 171.738281 241.335938 Z " fill="rgb(0, 0, 0)" fill-opacity="1.000000" />
<path d="M 24.308594 223.937012 L 23.164551 228.040527 L 25.452637 228.040527 Z M 23.653320 222.980957 L 24.969238 222.980957 L 27.423828 231.000000 L 26.301270 231.000000 L 25.710449 228.910645 L 22.901367 228.910645 L 22.321289 231.000000 L 21.198730 231.000000 Z " fill="rgb(0, 0, 0)" fill-opacity="1.000000" />
<path d="M 33.435547 223.254883 L 33.435547 224.355957 Q 32.941406 224.039062 32.444580 223.877930 Q 31.947754 223.716797 31.442871 223.716797 Q 30.674805 223.716797 30.229004 224.073975 Q 29.783203 224.431152 29.783203 225.038086 Q 29.783203 225.569824 30.075928 225.849121 Q 30.368652 226.128418 31.168945 226.316406 L 31.738281 226.445312 Q 32.866211 226.708496 33.381836 227.272461 Q 33.897461 227.836426 33.897461 228.808594 Q 33.897461 229.952637 33.188477 230.554199 Q 32.479492 231.155762 31.125977 231.155762 Q 30.562012 231.155762 29.992676 231.034912 Q 29.423340 230.914062 28.848633 230.672363 L 28.848633 229.517578 Q 29.466309 229.909668 30.016846 230.092285 Q 30.567383 230.274902 31.125977 230.274902 Q 31.947754 230.274902 32.404297 229.906982 Q 32.860840 229.539062 32.860840 228.878418 Q 32.860840 228.276855 32.546631 227.959961 Q 32.232422 227.643066 31.453613 227.471191 L 30.873535 227.336914 Q 29.756348 227.084473 29.251465 226.574219 Q 28.746582 226.063965 28.746582 225.204590 Q 28.746582 224.130371 29.468994 223.483154 Q 30.191406 222.835938 31.389160 222.835938 Q 31.851074 222.835938 32.361328 222.940674 Q 32.871582 223.045410 33.435547 223.254883 Z " fill="rgb(0, 0, 0)" fill-opacity="1.000000" />
<path d="M 47.929688 230.339355 Q 47.494629 230.742188 46.949463 230.948975 Q 46.404297 231.155762 45.770508 231.155762 Q 44.245117 231.155762 43.396484 230.062744 Q 42.547852 228.969727 42.547852 226.998535 Q 42.547852 225.032715 43.407227 223.934326 Q 44.266602 222.835938 45.797363 222.835938 Q 46.302246 222.835938 46.764160 222.978271 Q 47.226074 223.120605 47.655762 223.410645 L 47.655762 224.522461 Q 47.220703 224.108887 46.764160 223.912842 Q 46.307617 223.716797 45.797363 223.716797 Q 44.739258 223.716797 44.210205 224.535889 Q 43.681152 225.354980 43.681152 226.998535 Q 43.681152 228.668945 44.194092 229.471924 Q 44.707031 230.274902 45.770508 230.274902 Q 46.130371 230.274902 46.401611 230.191650 Q 46.672852 230.108398 46.893066 229.931152 L 46.893066 227.777344 L 45.727539 227.777344 L 45.727539 226.885742 L 47.929688 226.885742 Z " fill="rgb(0, 0, 0)" fill-opacity="1.000000" />
<path d="M 58.878906 234.319336 L 58.878906 220.300781 L 59.738281 220.300781 L 59.738281 234.319336 Z " fill="rgb(0, 0, 0)" fill-opacity="1.000000" />
<path d="M 128.878906 234.319336 L 128.878906 220.300781 L 129.738281 220.300781 L 129.738281 234.319336 Z " fill="rgb(0, 0, 0)" fill-opacity="1.000000" />
<path d="M 136.308594 223.937012 L 135.164551 228.040527 L 137.452637 228.040527 Z M 135.653320 222.980957 L 136.969238 222.980957 L 139.423828 231.000000 L 138.301270 231.000000 L 137.710449 228.910645 L 134.901367 228.910645 L 134.321289 231.000000 L 133.198730 231.000000 Z " fill="rgb(0, 0, 0)" fill-opacity="1.000000" />
<path d="M 145.435547 223.254883 L 145.435547 224.355957 Q 144.941406 224.039062 144.444580 223.877930 Q 143.947754 223.716797 143.442871 223.716797 Q 142.674805 223.716797 142.229004 224.073975 Q 141.783203 224.431152 141.783203 225.038086 Q 141.783203 225.569824 142.075928 225.849121 Q 142.368652 226.128418 143.168945 226.316406 L 143.738281 226.445312 Q 144.866211 226.708496 145.381836 227.272461 Q 145.897461 227.836426 145.897461 228.808594 Q 145.897461 229.952637 145.188477 230.554199 Q 144.479492 231.155762 143.125977 231.155762 Q 142.562012 231.155762 141.992676 231.034912 Q 141.423340 230.914062 140.848633 230.672363 L 140.848633 229.517578 Q 141.466309 229.909668 142.016846 230.092285 Q 142.567383 230.274902 143.125977 230.274902 Q 143.947754 230.274902 144.404297 229.906982 Q 144.860840 229.539062 144.860840 228.878418 Q 144.860840 228.276855 144.546631 227.959961 Q 144.232422 227.643066 143.453613 227.471191 L 142.873535 227.336914 Q 141.756348 227.084473 141.251465 226.574219 Q 140.746582 226.063965 140.746582 225.204590 Q 140.746582 224.130371 141.468994 223.483154 Q 142.191406 222.835938 143.389160 222.835938 Q 143.851074 222.835938 144.361328 222.940674 Q 144.871582 223.045410 145.435547 223.254883 Z " fill="rgb(0, 0, 0)" fill-opacity="1.000000" />
<path d="M 155.251465 222.980957 L 159.972656 222.980957 L 159.972656 223.894043 L 156.341797 223.894043 L 156.341797 226.042480 L 159.634277 226.042480 L 159.634277 226.955566 L 156.341797 226.955566 L 156.341797 231.000000 L 155.251465 231.000000 Z " fill="rgb(0, 0, 0)" fill-opacity="1.000000" />
<path d="M 170.878906 234.319336 L 170.878906 220.300781 L 171.738281 220.300781 L 171.738281 234.319336 Z " fill="rgb(0, 0, 0)" fill-opacity="1.000000" />
<path d="M 20.892578 215.335938 L 20.892578 214.412109 L 27.729980 214.412109 L 27.729980 215.335938 Z " fill="rgb(0, 0, 0)" fill-opacity="1.000000" />
<path d="M 27.892578 215.335938 L 27.892578 214.412109 L 34.729980 214.412109 L 34.729980 215.335938 Z " fill="rgb(0, 0, 0)" fill-opacity="1.000000" />
<path d="M 34.892578 215.335938 L 34.892578 214.412109 L 37.878906 214.412109 L 37.878906 207.300781 L 38.738281 207.300781 L 38.738281 214.412109 L 41.729980 214.412109 L 41.729980 215.335938 Z " fill="rgb(0, 0, 0)" fill-opacity="1.000000" />
<path d="M 41.892578 215.335938 L 41.892578 214.412109 L 48.729980 214.412109 L 48.729980 215.335938 Z " fill="rgb(0, 0, 0)" fill-opacity="1.000000" />
<path d="M 48.892578 215.335938 L 48.892578 214.412109 L 55.729980 214.412109 L 55.729980 215.335938 Z " fill="rgb(0, 0, 0)" fill-opacity="1.000000" />
<path d="M 58.878906 221.319336 L 58.878906 215.335938 L 55.892578 215.335938 L 55.892578 214.412109 L 59.738281 214.412109 L 59.738281 221.319336 Z " fill="rgb(0, 0, 0)" fill-opacity="1.000000" />
<path d="M 128.878906 221.319336 L 128.878906 214.412109 L 132.729980 214.412109 L 132.729980 215.335938 L 129.738281 215.335938 L 129.738281 221.319336 Z " fill="rgb(0, 0, 0)" fill-opacity="1.000000" />
<path d="M 132.892578 215.335938 L 132.892578 214.412109 L 139.729980 214.412109 L 139.729980 215.335938 Z " fill="rgb(0, 0, 0)" fill-opacity="1.000000" />
<path d="M 139.892578 215.335938 L 139.892578 214.412109 L 146.729980 214.412109 L 146.729980 215.335938 Z " fill="rgb(0, 0, 0)" fill-opacity="1.000000" />
<path d="M 146.892578 215.335938 L 146.892578 214.412109 L 149.878906 214.412109 L 149.878906 207.300781 L 150.738281 207.300781 L 150.738281 214.412109 L 153.729980 214.412109 L 153.729980 215.335938 Z " fill="rgb(0, 0, 0)" fill-opacity="1.000000" />
<path d="M 153.892578 215.335938 L 153.892578 214.412109 L 160.729980 214.412109 L 160.729980 215.335938 Z " fill="rgb(0, 0, 0)" fill-opacity="1.000000" />
<path d="M 160.892578 215.335938 L 160.892578 214.412109 L 167.729980 214.412109 L 167.729980 215.335938 Z " fill="rgb(0, 0, 0)" fill-opacity="1.000000" />
<path d="M 170.878906 221.319336 L 170.878906 215.335938 L 167.892578 215.335938 L 167.892578 214.412109 L 171.738281 214.412109 L 171.738281 221.319336 Z " fill="rgb(0, 0, 0)" fill-opacity="1.000000" />
<path d="M 38.673828 171.131348 L 38.190430 173.032715 L 39.506348 173.032715 L 39.995117 171.131348 L 40.854492 171.131348 L 40.365723 173.032715 L 41.676270 173.032715 L 41.676270 173.854492 L 40.166992 173.854492 L 39.640625 175.965332 L 40.983398 175.965332 L 40.983398 176.787109 L 39.431152 176.787109 L 38.872559 179.000000 L 38.013184 179.000000 L 38.577148 176.787109 L 37.255859 176.787109 L 36.691895 179.000000 L 35.837891 179.000000 L 36.396484 176.787109 L 35.010742 176.787109 L 35.010742 175.965332 L 36.605957 175.965332 L 37.132324 173.854492 L 35.703613 173.854492 L 35.703613 173.032715 L 37.331055 173.032715 L 37.814453 171.131348 Z M 39.307617 173.854492 L 37.991699 173.854492 L 37.465332 175.965332 L 38.786621 175.965332 Z " fill="rgb(0, 0, 0)" fill-opacity="1.000000" />
<path d="M 37.878906 195.319336 L 37.878906 181.300781 L 38.738281 181.300781 L 38.738281 195.319336 Z " fill="rgb(0, 0, 0)" fill-opacity="1.000000" />
<path d="M 41.332520 200.321777 L 38.947754 201.610840 L 41.332520 202.905273 L 40.956543 203.560547 L 38.711426 202.212402 L 38.711426 204.715332 L 37.943359 204.715332 L 37.943359 202.212402 L 35.698242 203.560547 L 35.322266 202.905273 L 37.712402 201.610840 L 35.322266 200.321777 L 35.698242 199.661133 L 37.943359 201.009277 L 37.943359 198.506348 L 38.711426 198.506348 L 38.711426 201.009277 L 40.956543 199.661133 Z " fill="rgb(0, 0, 0)" fill-opacity="1.000000" />
<path d="M 153.332520 200.321777 L 150.947754 201.610840 L 153.332520 202.905273 L 152.956543 203.560547 L 150.711426 202.212402 L 150.711426 204.715332 L 149.943359 204.715332 L 149.943359 202.212402 L 147.698242 203.560547 L 147.322266 202.905273 L 149.712402 201.610840 L 147.322266 200.321777 L 147.698242 199.661133 L 149.943359 201.009277 L 149.943359 198.506348 L 150.711426 198.506348 L 150.711426 201.009277 L 152.956543 199.661133 Z " fill="rgb(0, 0, 0)" fill-opacity="1.000000" />
<path d="M 149.878906 195.319336 L 149.878906 181.300781 L 150.738281 181.300781 L 150.738281 195.319336 Z " fill="rgb(0, 0, 0)" fill-opacity="1.000000" />
<path d="M 150.673828 171.131348 L 150.190430 173.032715 L 151.506348 173.032715 L 151.995117 171.131348 L 152.854492 171.131348 L 152.365723 173.032715 L 153.676270 173.032715 L 153.676270 173.854492 L 152.166992 173.854492 L 151.640625 175.965332 L 152.983398 175.965332 L 152.983398 176.787109 L 151.431152 176.787109 L 150.872559 179.000000 L 150.013184 179.000000 L 150.577148 176.787109 L 149.255859 176.787109 L 148.691895 179.000000 L 147.837891 179.000000 L 148.396484 176.787109 L 147.010742 176.787109 L 147.010742 175.965332 L 148.605957 175.965332 L 149.132324 173.854492 L 147.703613 173.854492 L 147.703613 173.032715 L 149.331055 173.032715 L 149.814453 171.131348 Z M 151.307617 173.854492 L 149.991699 173.854492 L 149.465332 175.965332 L 150.786621 175.965332 Z " fill="rgb(0, 0, 0)" fill-opacity="1.000000" />
<path d="M 20.892578 163.335938 L 20.892578 162.412109 L 27.729980 162.412109 L 27.729980 163.335938 Z " fill="rgb(0, 0, 0)" fill-opacity="1.000000" />
<path d="M 27.892578 163.335938 L 27.892578 162.412109 L 34.729980 162.412109 L 34.729980 163.335938 Z " fill="rgb(0, 0, 0)" fill-opacity="1.000000" />
<path d="M 37.878906 169.319336 L 37.878906 163.335938 L 34.892578 163.335938 L 34.892578 162.412109 L 41.729980 162.412109 L 41.729980 163.335938 L 38.738281 163.335938 L 38.738281 169.319336 Z " fill="rgb(0, 0, 0)" fill-opacity="1.000000" />
<path d="M 41.892578 163.335938 L 41.892578 162.412109 L 48.729980 162.412109 L 48.729980 163.335938 Z " fill="rgb(0, 0, 0)" fill-opacity="1.000000" />
<path d="M 48.892578 163.335938 L 48.892578 162.412109 L 55.729980 162.412109 L 55.729980 163.335938 Z " fill="rgb(0, 0, 0)" fill-opacity="1.000000" />
<path d="M 55.892578 163.335938 L 55.892578 162.412109 L 58.878906 162.412109 L 58.878906 155.300781 L 59.738281 155.300781 L 59.738281 163.335938 Z " fill="rgb(0, 0, 0)" fill-opacity="1.000000" />
<path d="M 128.878906 163.335938 L 128.878906 155.300781 L 129.738281 155.300781 L 129.738281 162.412109 L 132.729980 162.412109 L 132.729980 163.335938 Z " fill="rgb(0, 0, 0)" fill-opacity="1.000000" />
<path d="M 132.892578 163.335938 L 132.892578 162.412109 L 139.729980 162.412109 L 139.729980 163.335938 Z " fill="rgb(0, 0, 0)" fill-opacity="1.000000" />
<path d="M 139.892578 163.335938 L 139.892578 162.412109 L 146.729980 162.412109 L 146.729980 163.335938 Z " fill="rgb(0, 0, 0)" fill-opacity="1.000000" />
<path d="M 149.878906 169.319336 L 149.878906 163.335938 L 146.892578 163.335938 L 146.892578 162.412109 L 153.729980 162.412109 L 153.729980 163.335938 L 150.738281 163.335938 L 150.738281 169.319336 Z " fill="rgb(0, 0, 0)" fill-opacity="1.000000" />
<path d="M 153.892578 163.335938 L 153.892578 162.412109 L 160.729980 162.412109 L 160.729980 163.335938 Z " fill="rgb(0, 0, 0)" fill-opacity="1.000000" />
<path d="M 160.892578 163.335938 L 160.892578 162.412109 L 167.729980 162.412109 L 167.729980 163.335938 Z " fill="rgb(0, 0, 0)" fill-opacity="1.000000" />
<path d="M 167.892578 163.335938 L 167.892578 162.412109 L 170.878906 162.412109 L 170.878906 155.300781 L 171.738281 155.300781 L 171.738281 163.335938 Z " fill="rgb(0, 0, 0)" fill-opacity="1.000000" />
<path d="M 24.308594 145.937012 L 23.164551 150.040527 L 25.452637 150.040527 Z M 23.653320 144.980957 L 24.969238 144.980957 L 27.423828 153.000000 L 26.301270 153.000000 L 25.710449 150.910645 L 22.901367 150.910645 L 22.321289 153.000000 L 21.198730 153.000000 Z " fill="rgb(0, 0, 0)" fill-opacity="1.000000" />
<path d="M 33.435547 145.254883 L 33.435547 146.355957 Q 32.941406 146.039062 32.444580 145.877930 Q 31.947754 145.716797 31.442871 145.716797 Q 30.674805 145.716797 30.229004 146.073975 Q 29.783203 146.431152 29.783203 147.038086 Q 29.783203 147.569824 30.075928 147.849121 Q 30.368652 148.128418 31.168945 148.316406 L 31.738281 148.445312 Q 32.866211 148.708496 33.381836 149.272461 Q 33.897461 149.836426 33.897461 150.808594 Q 33.897461 151.952637 33.188477 152.554199 Q 32.479492 153.155762 31.125977 153.155762 Q 30.562012 153.155762 29.992676 153.034912 Q 29.423340 152.914062 28.848633 152.672363 L 28.848633 151.517578 Q 29.466309 151.909668 30.016846 152.092285 Q 30.567383 152.274902 31.125977 152.274902 Q 31.947754 152.274902 32.404297 151.906982 Q 32.860840 151.539062 32.860840 150.878418 Q 32.860840 150.276855 32.546631 149.959961 Q 32.232422 149.643066 31.453613 149.471191 L 30.873535 149.336914 Q 29.756348 149.084473 29.251465 148.574219 Q 28.746582 148.063965 28.746582 147.204590 Q 28.746582 146.130371 29.468994 145.483154 Q 30.191406 144.835938 31.389160 144.835938 Q 31.851074 144.835938 32.361328 144.940674 Q 32.871582 145.045410 33.435547 145.254883 Z " fill="rgb(0, 0, 0)" fill-opacity="1.000000" />
<path d="M 44.341797 152.108398 Q 45.711426 152.108398 46.253906 151.434326 Q 46.796387 150.760254 46.796387 148.998535 Q 46.796387 147.220703 46.256592 146.546631 Q 45.716797 145.872559 44.341797 145.872559 L 43.826172 145.872559 L 43.826172 152.108398 Z M 44.363281 144.980957 Q 46.200195 144.980957 47.070312 145.958496 Q 47.940430 146.936035 47.940430 148.998535 Q 47.940430 151.050293 47.070312 152.025146 Q 46.200195 153.000000 44.363281 153.000000 L 42.735840 153.000000 L 42.735840 144.980957 Z " fill="rgb(0, 0, 0)" fill-opacity="1.000000" />
<path d="M 58.878906 156.319336 L 58.878906 142.300781 L 59.738281 142.300781 L 59.738281 149.412109 L 62.729980 149.412109 L 62.729980 150.335938 L 59.738281 150.335938 L 59.738281 156.319336 Z " fill="rgb(0, 0, 0)" fill-opacity="1.000000" />
<path d="M 65.014160 152.242676 L 65.014160 155.288086 L 64.020508 155.288086 L 64.020508 146.984375 L 65.014160 146.984375 L 65.014160 147.752441 Q 65.261230 147.306641 65.672119 147.072998 Q 66.083008 146.839355 66.620117 146.839355 Q 67.710449 146.839355 68.330811 147.682617 Q 68.951172 148.525879 68.951172 150.019043 Q 68.951172 151.485352 68.328125 152.320557 Q 67.705078 153.155762 66.620117 153.155762 Q 66.072266 153.155762 65.661377 152.922119 Q 65.250488 152.688477 65.014160 152.242676 Z M 67.914551 149.997559 Q 67.914551 148.848145 67.552002 148.262695 Q 67.189453 147.677246 66.475098 147.677246 Q 65.755371 147.677246 65.384766 148.265381 Q 65.014160 148.853516 65.014160 149.997559 Q 65.014160 151.136230 65.384766 151.727051 Q 65.755371 152.317871 66.475098 152.317871 Q 67.189453 152.317871 67.552002 151.732422 Q 67.914551 151.146973 67.914551 149.997559 Z " fill="rgb(0, 0, 0)" fill-opacity="1.000000" />
<path d="M 77.547852 149.111328 L 83.241211 149.111328 L 83.241211 150.019043 L 77.547852 150.019043 Z " fill="rgb(0, 0, 0)" fill-opacity="1.000000" />
<path d="M 91.547852 149.111328 L 97.241211 149.111328 L 97.241211 150.019043 L 91.547852 150.019043 Z " fill="rgb(0, 0, 0)" fill-opacity="1.000000" />
<path d="M 105.547852 149.111328 L 111.241211 149.111328 L 111.241211 150.019043 L 105.547852 150.019043 Z " fill="rgb(0, 0, 0)" fill-opacity="1.000000" />
<path d="M 121.014160 152.242676 L 121.014160 155.288086 L 120.020508 155.288086 L 120.020508 146.984375 L 121.014160 146.984375 L 121.014160 147.752441 Q 121.261230 147.306641 121.672119 147.072998 Q 122.083008 146.839355 122.620117 146.839355 Q 123.710449 146.839355 124.330811 147.682617 Q 124.951172 148.525879 124.951172 150.019043 Q 124.951172 151.485352 124.328125 152.320557 Q 123.705078 153.155762 122.620117 153.155762 Q 122.072266 153.155762 121.661377 152.922119 Q 121.250488 152.688477 121.014160 152.242676 Z M 123.914551 149.997559 Q 123.914551 148.848145 123.552002 148.262695 Q 123.189453 147.677246 122.475098 147.677246 Q 121.755371 147.677246 121.384766 148.265381 Q 121.014160 148.853516 121.014160 149.997559 Q 121.014160 151.136230 121.384766 151.727051 Q 121.755371 152.317871 122.475098 152.317871 Q 123.189453 152.317871 123.552002 151.732422 Q 123.914551 151.146973 123.914551 149.997559 Z " fill="rgb(0, 0, 0)" fill-opacity="1.000000" />
<path d="M 128.878906 156.319336 L 128.878906 150.335938 L 125.892578 150.335938 L 125.892578 149.412109 L 128.878906 149.412109 L 128.878906 142.300781 L 129.738281 142.300781 L 129.738281 156.319336 Z " fill="rgb(0, 0, 0)" fill-opacity="1.000000" />
<path d="M 136.308594 145.937012 L 135.164551 150.040527 L 137.452637 150.040527 Z M 135.653320 144.980957 L 136.969238 144.980957 L 139.423828 153.000000 L 138.301270 153.000000 L 137.710449 150.910645 L 134.901367 150.910645 L 134.321289 153.000000 L 133.198730 153.000000 Z " fill="rgb(0, 0, 0)" fill-opacity="1.000000" />
<path d="M 145.435547 145.254883 L 145.435547 146.355957 Q 144.941406 146.039062 144.444580 145.877930 Q 143.947754 145.716797 143.442871 145.716797 Q 142.674805 145.716797 142.229004 146.073975 Q 141.783203 146.431152 141.783203 147.038086 Q 141.783203 147.569824 142.075928 147.849121 Q 142.368652 148.128418 143.168945 148.316406 L 143.738281 148.445312 Q 144.866211 148.708496 145.381836 149.272461 Q 145.897461 149.836426 145.897461 150.808594 Q 145.897461 151.952637 145.188477 152.554199 Q 144.479492 153.155762 143.125977 153.155762 Q 142.562012 153.155762 141.992676 153.034912 Q 141.423340 152.914062 140.848633 152.672363 L 140.848633 151.517578 Q 141.466309 151.909668 142.016846 152.092285 Q 142.567383 152.274902 143.125977 152.274902 Q 143.947754 152.274902 144.404297 151.906982 Q 144.860840 151.539062 144.860840 150.878418 Q 144.860840 150.276855 144.546631 149.959961 Q 144.232422 149.643066 143.453613 149.471191 L 142.873535 149.336914 Q 141.756348 149.084473 141.251465 148.574219 Q 140.746582 148.063965 140.746582 147.204590 Q 140.746582 146.130371 141.468994 145.483154 Q 142.191406 144.835938 143.389160 144.835938 Q 143.851074 144.835938 144.361328 144.940674 Q 144.871582 145.045410 145.435547 145.254883 Z " fill="rgb(0, 0, 0)" fill-opacity="1.000000" />
<path d="M 155.058105 144.980957 L 159.816895 144.980957 L 159.816895 145.894043 L 156.143066 145.894043 L 156.143066 148.053223 L 159.655762 148.053223 L 159.655762 148.966309 L 156.143066 148.966309 L 156.143066 152.086914 L 159.918945 152.086914 L 159.918945 153.000000 L 155.058105 153.000000 Z " fill="rgb(0, 0, 0)" fill-opacity="1.000000" />
<path d="M 170.878906 156.319336 L 170.878906 142.300781 L 171.738281 142.300781 L 171.738281 156.319336 Z " fill="rgb(0, 0, 0)" fill-opacity="1.000000" />
<path d="M 20.892578 137.335938 L 20.892578 136.412109 L 27.729980 136.412109 L 27.729980 137.335938 Z " fill="rgb(0, 0, 0)" fill-opacity="1.000000" />
<path d="M 27.892578 137.335938 L 27.892578 136.412109 L 34.729980 136.412109 L 34.729980 137.335938 Z " fill="rgb(0, 0, 0)" fill-opacity="1.000000" />
<path d="M 34.892578 137.335938 L 34.892578 136.412109 L 37.878906 136.412109 L 37.878906 129.300781 L 38.738281 129.300781 L 38.738281 136.412109 L 41.729980 136.412109 L 41.729980 137.335938 Z " fill="rgb(0, 0, 0)" fill-opacity="1.000000" />
<path d="M 41.892578 137.335938 L 41.892578 136.412109 L 48.729980 136.412109 L 48.729980 137.335938 Z " fill="rgb(0, 0, 0)" fill-opacity="1.000000" />
<path d="M 48.892578 137.335938 L 48.892578 136.412109 L 55.729980 136.412109 L 55.729980 137.335938 Z " fill="rgb(0, 0, 0)" fill-opacity="1.000000" />
<path d="M 58.878906 143.319336 L 58.878906 137.335938 L 55.892578 137.335938 L 55.892578 136.412109 L 59.738281 136.412109 L 59.738281 143.319336 Z " fill="rgb(0, 0, 0)" fill-opacity="1.000000" />
<path d="M 128.878906 143.319336 L 128.878906 136.412109 L 132.729980 136.412109 L 132.729980 137.335938 L 129.738281 137.335938 L 129.738281 143.319336 Z " fill="rgb(0, 0, 0)" fill-opacity="1.000000" />
<path d="M 132.892578 137.335938 L 132.892578 136.412109 L 139.729980 136.412109 L 139.729980 137.335938 Z " fill="rgb(0, 0, 0)" fill-opacity="1.000000" />
<path d="M 139.892578 137.335938 L 139.892578 136.412109 L 146.729980 136.412109 L 146.729980 137.335938 Z " fill="rgb(0, 0, 0)" fill-opacity="1.000000" />
<path d="M 146.892578 137.335938 L 146.892578 136.412109 L 149.878906 136.412109 L 149.878906 129.300781 L 150.738281 129.300781 L 150.738281 136.412109 L 153.729980 136.412109 L 153.729980 137.335938 Z " fill="rgb(0, 0, 0)" fill-opacity="1.000000" />
<path d="M 153.892578 137.335938 L 153.892578 136.412109 L 160.729980 136.412109 L 160.729980 137.335938 Z " fill="rgb(0, 0, 0)" fill-opacity="1.000000" />
<path d="M 160.892578 137.335938 L 160.892578 136.412109 L 167.729980 136.412109 L 167.729980 137.335938 Z " fill="rgb(0, 0, 0)" fill-opacity="1.000000" />
<path d="M 170.878906 143.319336 L 170.878906 137.335938 L 167.892578 137.335938 L 167.892578 136.412109 L 171.738281 136.412109 L 171.738281 143.319336 Z " fill="rgb(0, 0, 0)" fill-opacity="1.000000" />
<path d="M 37.878906 117.319336 L 37.878906 103.300781 L 38.738281 103.300781 L 38.738281 117.319336 Z " fill="rgb(0, 0, 0)" fill-opacity="1.000000" />
<path d="M 41.332520 122.321777 L 38.947754 123.610840 L 41.332520 124.905273 L 40.956543 125.560547 L 38.711426 124.212402 L 38.711426 126.715332 L 37.943359 126.715332 L 37.943359 124.212402 L 35.698242 125.560547 L 35.322266 124.905273 L 37.712402 123.610840 L 35.322266 122.321777 L 35.698242 121.661133 L 37.943359 123.009277 L 37.943359 120.506348 L 38.711426 120.506348 L 38.711426 123.009277 L 40.956543 121.661133 Z " fill="rgb(0, 0, 0)" fill-opacity="1.000000" />
<path d="M 153.332520 122.321777 L 150.947754 123.610840 L 153.332520 124.905273 L 152.956543 125.560547 L 150.711426 124.212402 L 150.711426 126.715332 L 149.943359 126.715332 L 149.943359 124.212402 L 147.698242 125.560547 L 147.322266 124.905273 L 149.712402 123.610840 L 147.322266 122.321777 L 147.698242 121.661133 L 149.943359 123.009277 L 149.943359 120.506348 L 150.711426 120.506348 L 150.711426 123.009277 L 152.956543 121.661133 Z " fill="rgb(0, 0, 0)" fill-opacity="1.000000" />
<path d="M 212.014160 126.242676 L 212.014160 129.288086 L 211.020508 129.288086 L 211.020508 120.984375 L 212.014160 120.984375 L 212.014160 121.752441 Q 212.261230 121.306641 212.672119 121.072998 Q 213.083008 120.839355 213.620117 120.839355 Q 214.710449 120.839355 215.330811 121.682617 Q 215.951172 122.525879 215.951172 124.019043 Q 215.951172 125.485352 215.328125 126.320557 Q 214.705078 127.155762 213.620117 127.155762 Q 213.072266 127.155762 212.661377 126.922119 Q 212.250488 126.688477 212.014160 126.242676 Z M 214.914551 123.997559 Q 214.914551 122.848145 214.552002 122.262695 Q 214.189453 121.677246 213.475098 121.677246 Q 212.755371 121.677246 212.384766 122.265381 Q 212.014160 122.853516 212.014160 123.997559 Q 212.014160 125.136230 212.384766 125.727051 Q 212.755371 126.317871 213.475098 126.317871 Q 214.189453 126.317871 214.552002 125.732422 Q 214.914551 125.146973 214.914551 123.997559 Z " fill="rgb(0, 0, 0)" fill-opacity="1.000000" />
<path d="M 224.547852 123.111328 L 230.241211 123.111328 L 230.241211 124.019043 L 224.547852 124.019043 Z " fill="rgb(0, 0, 0)" fill-opacity="1.000000" />
<path d="M 238.547852 123.111328 L 244.241211 123.111328 L 244.241211 124.019043 L 238.547852 124.019043 Z " fill="rgb(0, 0, 0)" fill-opacity="1.000000" />
<path d="M 252.547852 123.111328 L 258.241211 123.111328 L 258.241211 124.019043 L 252.547852 124.019043 Z " fill="rgb(0, 0, 0)" fill-opacity="1.000000" />
<path d="M 268.014160 126.242676 L 268.014160 129.288086 L 267.020508 129.288086 L 267.020508 120.984375 L 268.014160 120.984375 L 268.014160 121.752441 Q 268.261230 121.306641 268.672119 121.072998 Q 269.083008 120.839355 269.620117 120.839355 Q 270.710449 120.839355 271.330811 121.682617 Q 271.951172 122.525879 271.951172 124.019043 Q 271.951172 125.485352 271.328125 126.320557 Q 270.705078 127.155762 269.620117 127.155762 Q 269.072266 127.155762 268.661377 126.922119 Q 268.250488 126.688477 268.014160 126.242676 Z M 270.914551 123.997559 Q 270.914551 122.848145 270.552002 122.262695 Q 270.189453 121.677246 269.475098 121.677246 Q 268.755371 121.677246 268.384766 122.265381 Q 268.014160 122.853516 268.014160 123.997559 Q 268.014160 125.136230 268.384766 125.727051 Q 268.755371 126.317871 269.475098 126.317871 Q 270.189453 126.317871 270.552002 125.732422 Q 270.914551 125.146973 270.914551 123.997559 Z " fill="rgb(0, 0, 0)" fill-opacity="1.000000" />
<path d="M 289.014160 126.242676 L 289.014160 129.288086 L 288.020508 129.288086 L 288.020508 120.984375 L 289.014160 120.984375 L 289.014160 121.752441 Q 289.261230 121.306641 289.672119 121.072998 Q 290.083008 120.839355 290.620117 120.839355 Q 291.710449 120.839355 292.330811 121.682617 Q 292.951172 122.525879 292.951172 124.019043 Q 292.951172 125.485352 292.328125 126.320557 Q 291.705078 127.155762 290.620117 127.155762 Q 290.072266 127.155762 289.661377 126.922119 Q 289.250488 126.688477 289.014160 126.242676 Z M 291.914551 123.997559 Q 291.914551 122.848145 291.552002 122.262695 Q 291.189453 121.677246 290.475098 121.677246 Q 289.755371 121.677246 289.384766 122.265381 Q 289.014160 122.853516 289.014160 123.997559 Q 289.014160 125.136230 289.384766 125.727051 Q 289.755371 126.317871 290.475098 126.317871 Q 291.189453 126.317871 291.552002 125.732422 Q 291.914551 125.146973 291.914551 123.997559 Z " fill="rgb(0, 0, 0)" fill-opacity="1.000000" />
<path d="M 300.015625 123.498047 L 300.015625 123.981445 L 295.734863 123.981445 L 295.734863 124.013672 Q 295.691895 125.243652 296.204834 125.780762 Q 296.717773 126.317871 297.652344 126.317871 Q 298.125000 126.317871 298.640625 126.167480 Q 299.156250 126.017090 299.741699 125.710938 L 299.741699 126.693848 Q 299.177734 126.924805 298.654053 127.040283 Q 298.130371 127.155762 297.641602 127.155762 Q 296.239746 127.155762 295.450195 126.315186 Q 294.660645 125.474609 294.660645 123.997559 Q 294.660645 122.558105 295.434082 121.698730 Q 296.207520 120.839355 297.496582 120.839355 Q 298.645996 120.839355 299.309326 121.618164 Q 299.972656 122.396973 300.015625 123.498047 Z M 299.027344 123.208008 Q 298.962891 122.584961 298.573486 122.131104 Q 298.184082 121.677246 297.453613 121.677246 Q 296.739258 121.677246 296.277344 122.149902 Q 295.815430 122.622559 295.772461 123.213379 Z " fill="rgb(0, 0, 0)" fill-opacity="1.000000" />
<path d="M 307.015625 123.498047 L 307.015625 123.981445 L 302.734863 123.981445 L 302.734863 124.013672 Q 302.691895 125.243652 303.204834 125.780762 Q 303.717773 126.317871 304.652344 126.317871 Q 305.125000 126.317871 305.640625 126.167480 Q 306.156250 126.017090 306.741699 125.710938 L 306.741699 126.693848 Q 306.177734 126.924805 305.654053 127.040283 Q 305.130371 127.155762 304.641602 127.155762 Q 303.239746 127.155762 302.450195 126.315186 Q 301.660645 125.474609 301.660645 123.997559 Q 301.660645 122.558105 302.434082 121.698730 Q 303.207520 120.839355 304.496582 120.839355 Q 305.645996 120.839355 306.309326 121.618164 Q 306.972656 122.396973 307.015625 123.498047 Z M 306.027344 123.208008 Q 305.962891 122.584961 305.573486 122.131104 Q 305.184082 121.677246 304.453613 121.677246 Q 303.739258 121.677246 303.277344 122.149902 Q 302.815430 122.622559 302.772461 123.213379 Z " fill="rgb(0, 0, 0)" fill-opacity="1.000000" />
<path d="M 314.203613 122.225098 Q 313.886719 121.978027 313.559082 121.865234 Q 313.231445 121.752441 312.839355 121.752441 Q 311.915527 121.752441 311.426758 122.332520 Q 310.937988 122.912598 310.937988 124.008301 L 310.937988 127.000000 L 309.944336 127.000000 L 309.944336 120.984375 L 310.937988 120.984375 L 310.937988 122.160645 Q 311.185059 121.521484 311.697998 121.180420 Q 312.210938 120.839355 312.914551 120.839355 Q 313.279785 120.839355 313.596680 120.930664 Q 313.913574 121.021973 314.203613 121.215332 Z " fill="rgb(0, 0, 0)" fill-opacity="1.000000" />
<path d="M 316.697266 121.005859 L 319.227051 121.005859 L 319.227051 126.231934 L 321.187500 126.231934 L 321.187500 127.000000 L 316.278320 127.000000 L 316.278320 126.231934 L 318.238770 126.231934 L 318.238770 121.773926 L 316.697266 121.773926 Z M 318.238770 118.669434 L 319.227051 118.669434 L 319.227051 119.915527 L 318.238770 119.915527 Z " fill="rgb(0, 0, 0)" fill-opacity="1.000000" />
<path d="M 327.645020 123.272461 L 327.645020 127.000000 L 326.651367 127.000000 L 326.651367 123.272461 Q 326.651367 122.461426 326.366699 122.080078 Q 326.082031 121.698730 325.475098 121.698730 Q 324.782227 121.698730 324.408936 122.190186 Q 324.035645 122.681641 324.035645 123.600098 L 324.035645 127.000000 L 323.047363 127.000000 L 323.047363 120.984375 L 324.035645 120.984375 L 324.035645 121.886719 Q 324.298828 121.371094 324.750000 121.105225 Q 325.201172 120.839355 325.818848 120.839355 Q 326.737305 120.839355 327.191162 121.443604 Q 327.645020 122.047852 327.645020 123.272461 Z " fill="rgb(0, 0, 0)" fill-opacity="1.000000" />
<path d="M 333.608398 123.943848 Q 333.608398 122.832031 333.245850 122.254639 Q 332.883301 121.677246 332.190430 121.677246 Q 331.465332 121.677246 331.083984 122.254639 Q 330.702637 122.832031 330.702637 123.943848 Q 330.702637 125.055664 331.086670 125.638428 Q 331.470703 126.221191 332.201172 126.221191 Q 332.883301 126.221191 333.245850 125.635742 Q 333.608398 125.050293 333.608398 123.943848 Z M 334.596680 126.613281 Q 334.596680 127.966797 333.957520 128.665039 Q 333.318359 129.363281 332.077637 129.363281 Q 331.669434 129.363281 331.223633 129.288086 Q 330.777832 129.212891 330.332031 129.067871 L 330.332031 128.090332 Q 330.858398 128.337402 331.288086 128.455566 Q 331.717773 128.573730 332.077637 128.573730 Q 332.877930 128.573730 333.243164 128.138672 Q 333.608398 127.703613 333.608398 126.758301 L 333.608398 126.715332 L 333.608398 126.043945 Q 333.372070 126.548828 332.963867 126.795898 Q 332.555664 127.042969 331.970215 127.042969 Q 330.917480 127.042969 330.289062 126.199707 Q 329.660645 125.356445 329.660645 123.943848 Q 329.660645 122.525879 330.289062 121.682617 Q 330.917480 120.839355 331.970215 120.839355 Q 332.550293 120.839355 332.953125 121.070312 Q 333.355957 121.301270 333.608398 121.784668 L 333.608398 121.005859 L 334.596680 121.005859 Z " fill="rgb(0, 0, 0)" fill-opacity="1.000000" />
<path d="M 346.861816 124.824707 Q 346.861816 125.490723 347.106201 125.829102 Q 347.350586 126.167480 347.828613 126.167480 L 348.983398 126.167480 L 348.983398 127.000000 L 347.731934 127.000000 Q 346.845703 127.000000 346.359619 126.433350 Q 345.873535 125.866699 345.873535 124.824707 L 345.873535 119.383789 L 344.289062 119.383789 L 344.289062 118.610352 L 346.861816 118.610352 Z " fill="rgb(0, 0, 0)" fill-opacity="1.000000" />
<path d="M 351.697266 121.005859 L 354.227051 121.005859 L 354.227051 126.231934 L 356.187500 126.231934 L 356.187500 127.000000 L 351.278320 127.000000 L 351.278320 126.231934 L 353.238770 126.231934 L 353.238770 121.773926 L 351.697266 121.773926 Z M 353.238770 118.669434 L 354.227051 118.669434 L 354.227051 119.915527 L 353.238770 119.915527 Z " fill="rgb(0, 0, 0)" fill-opacity="1.000000" />
<path d="M 362.645020 123.272461 L 362.645020 127.000000 L 361.651367 127.000000 L 361.651367 123.272461 Q 361.651367 122.461426 361.366699 122.080078 Q 361.082031 121.698730 360.475098 121.698730 Q 359.782227 121.698730 359.408936 122.190186 Q 359.035645 122.681641 359.035645 123.600098 L 359.035645 127.000000 L 358.047363 127.000000 L 358.047363 120.984375 L 359.035645 120.984375 L 359.035645 121.886719 Q 359.298828 121.371094 359.750000 121.105225 Q 360.201172 120.839355 360.818848 120.839355 Q 361.737305 120.839355 362.191162 121.443604 Q 362.645020 122.047852 362.645020 123.272461 Z " fill="rgb(0, 0, 0)" fill-opacity="1.000000" />
<path d="M 365.267578 118.642578 L 366.288086 118.642578 L 366.288086 123.481934 L 368.882324 120.984375 L 370.085449 120.984375 L 367.716797 123.250977 L 370.456055 127.000000 L 369.247559 127.000000 L 367.023926 123.895508 L 366.288086 124.588379 L 366.288086 127.000000 L 365.267578 127.000000 Z " fill="rgb(0, 0, 0)" fill-opacity="1.000000" />
<path d="M 149.878906 117.319336 L 149.878906 103.300781 L 150.738281 103.300781 L 150.738281 117.319336 Z " fill="rgb(0, 0, 0)" fill-opacity="1.000000" />
<path d="M 12.075684 98.335938 L 12.075684 97.412109 L 13.729980 97.412109 L 13.729980 98.335938 Z M 9.513672 98.335938 L 9.513672 97.412109 L 11.108887 97.412109 L 11.108887 98.335938 Z M 6.892578 98.335938 L 6.892578 97.412109 L 8.546875 97.412109 L 8.546875 98.335938 Z " fill="rgb(0, 0, 0)" fill-opacity="1.000000" />
<path d="M 19.075684 98.335938 L 19.075684 97.412109 L 20.729980 97.412109 L 20.729980 98.335938 Z M 16.513672 98.335938 L 16.513672 97.412109 L 18.108887 97.412109 L 18.108887 98.335938 Z M 13.892578 98.335938 L 13.892578 97.412109 L 15.546875 97.412109 L 15.546875 98.335938 Z " fill="rgb(0, 0, 0)" fill-opacity="1.000000" />
<path d="M 26.075684 98.335938 L 26.075684 97.412109 L 27.729980 97.412109 L 27.729980 98.335938 Z M 23.513672 98.335938 L 23.513672 97.412109 L 25.108887 97.412109 L 25.108887 98.335938 Z M 20.892578 98.335938 L 20.892578 97.412109 L 22.546875 97.412109 L 22.546875 98.335938 Z " fill="rgb(0, 0, 0)" fill-opacity="1.000000" />
<path d="M 33.075684 98.335938 L 33.075684 97.412109 L 34.729980 97.412109 L 34.729980 98.335938 Z M 30.513672 98.335938 L 30.513672 97.412109 L 32.108887 97.412109 L 32.108887 98.335938 Z M 27.892578 98.335938 L 27.892578 97.412109 L 29.546875 97.412109 L 29.546875 98.335938 Z " fill="rgb(0, 0, 0)" fill-opacity="1.000000" />
<path d="M 37.878906 104.319336 L 37.878906 90.300781 L 38.738281 90.300781 L 38.738281 104.319336 Z " fill="rgb(0, 0, 0)" fill-opacity="1.000000" />
<path d="M 47.075684 98.335938 L 47.075684 97.412109 L 48.729980 97.412109 L 48.729980 98.335938 Z M 44.513672 98.335938 L 44.513672 97.412109 L 46.108887 97.412109 L 46.108887 98.335938 Z M 41.892578 98.335938 L 41.892578 97.412109 L 43.546875 97.412109 L 43.546875 98.335938 Z " fill="rgb(0, 0, 0)" fill-opacity="1.000000" />
<path d="M 54.075684 98.335938 L 54.075684 97.412109 L 55.729980 97.412109 L 55.729980 98.335938 Z M 51.513672 98.335938 L 51.513672 97.412109 L 53.108887 97.412109 L 53.108887 98.335938 Z M 48.892578 98.335938 L 48.892578 97.412109 L 50.546875 97.412109 L 50.546875 98.335938 Z " fill="rgb(0, 0, 0)" fill-opacity="1.000000" />
<path d="M 61.075684 98.335938 L 61.075684 97.412109 L 62.729980 97.412109 L 62.729980 98.335938 Z M 58.513672 98.335938 L 58.513672 97.412109 L 60.108887 97.412109 L 60.108887 98.335938 Z M 55.892578 98.335938 L 55.892578 97.412109 L 57.546875 97.412109 L 57.546875 98.335938 Z " fill="rgb(0, 0, 0)" fill-opacity="1.000000" />
<path d="M 68.075684 98.335938 L 68.075684 97.412109 L 69.729980 97.412109 L 69.729980 98.335938 Z M 65.513672 98.335938 L 65.513672 97.412109 L 67.108887 97.412109 L 67.108887 98.335938 Z M 62.892578 98.335938 L 62.892578 97.412109 L 64.546875 97.412109 L 64.546875 98.335938 Z " fill="rgb(0, 0, 0)" fill-opacity="1.000000" />
<path d="M 75.075684 98.335938 L 75.075684 97.412109 L 76.729980 97.412109 L 76.729980 98.335938 Z M 72.513672 98.335938 L 72.513672 97.412109 L 74.108887 97.412109 L 74.108887 98.335938 Z M 69.892578 98.335938 L 69.892578 97.412109 L 71.546875 97.412109 L 71.546875 98.335938 Z " fill="rgb(0, 0, 0)" fill-opacity="1.000000" />
<path d="M 82.075684 98.335938 L 82.075684 97.412109 L 83.729980 97.412109 L 83.729980 98.335938 Z M 79.513672 98.335938 L 79.513672 97.412109 L 81.108887 97.412109 L 81.108887 98.335938 Z M 76.892578 98.335938 L 76.892578 97.412109 L 78.546875 97.412109 L 78.546875 98.335938 Z " fill="rgb(0, 0, 0)" fill-opacity="1.000000" />
<path d="M 89.075684 98.335938 L 89.075684 97.412109 L 90.729980 97.412109 L 90.729980 98.335938 Z M 86.513672 98.335938 L 86.513672 97.412109 L 88.108887 97.412109 L 88.108887 98.335938 Z M 83.892578 98.335938 L 83.892578 97.412109 L 85.546875 97.412109 L 85.546875 98.335938 Z " fill="rgb(0, 0, 0)" fill-opacity="1.000000" />
<path d="M 96.075684 98.335938 L 96.075684 97.412109 L 97.729980 97.412109 L 97.729980 98.335938 Z M 93.513672 98.335938 L 93.513672 97.412109 L 95.108887 97.412109 L 95.108887 98.335938 Z M 90.892578 98.335938 L 90.892578 97.412109 L 92.546875 97.412109 L 92.546875 98.335938 Z " fill="rgb(0, 0, 0)" fill-opacity="1.000000" />
<path d="M 103.075684 98.335938 L 103.075684 97.412109 L 104.729980 97.412109 L 104.729980 98.335938 Z M 100.513672 98.335938 L 100.513672 97.412109 L 102.108887 97.412109 L 102.108887 98.335938 Z M 97.892578 98.335938 L 97.892578 97.412109 L 99.546875 97.412109 L 99.546875 98.335938 Z " fill="rgb(0, 0, 0)" fill-opacity="1.000000" />
<path d="M 110.075684 98.335938 L 110.075684 97.412109 L 111.729980 97.412109 L 111.729980 98.335938 Z M 107.513672 98.335938 L 107.513672 97.412109 L 109.108887 97.412109 L 109.108887 98.335938 Z M 104.892578 98.335938 L 104.892578 97.412109 L 106.546875 97.412109 L 106.546875 98.335938 Z " fill="rgb(0, 0, 0)" fill-opacity="1.000000" />
<path d="M 117.075684 98.335938 L 117.075684 97.412109 L 118.729980 97.412109 L 118.729980 98.335938 Z M 114.513672 98.335938 L 114.513672 97.412109 L 116.108887 97.412109 L 116.108887 98.335938 Z M 111.892578 98.335938 L 111.892578 97.412109 L 113.546875 97.412109 L 113.546875 98.335938 Z " fill="rgb(0, 0, 0)" fill-opacity="1.000000" />
<path d="M 124.075684 98.335938 L 124.075684 97.412109 L 125.729980 97.412109 L 125.729980 98.335938 Z M 121.513672 98.335938 L 121.513672 97.412109 L 123.108887 97.412109 L 123.108887 98.335938 Z M 118.892578 98.335938 L 118.892578 97.412109 L 120.546875 97.412109 L 120.546875 98.335938 Z " fill="rgb(0, 0, 0)" fill-opacity="1.000000" />
<path d="M 131.075684 98.335938 L 131.075684 97.412109 L 132.729980 97.412109 L 132.729980 98.335938 Z M 128.513672 98.335938 L 128.513672 97.412109 L 130.108887 97.412109 L 130.108887 98.335938 Z M 125.892578 98.335938 L 125.892578 97.412109 L 127.546875 97.412109 L 127.546875 98.335938 Z " fill="rgb(0, 0, 0)" fill-opacity="1.000000" />
<path d="M 138.075684 98.335938 L 138.075684 97.412109 L 139.729980 97.412109 L 139.729980 98.335938 Z M 135.513672 98.335938 L 135.513672 97.412109 L 137.108887 97.412109 L 137.108887 98.335938 Z M 132.892578 98.335938 L 132.892578 97.412109 L 134.546875 97.412109 L 134.546875 98.335938 Z " fill="rgb(0, 0, 0)" fill-opacity="1.000000" />
<path d="M 145.075684 98.335938 L 145.075684 97.412109 L 146.729980 97.412109 L 146.729980 98.335938 Z M 142.513672 98.335938 L 142.513672 97.412109 L 144.108887 97.412109 L 144.108887 98.335938 Z M 139.892578 98.335938 L 139.892578 97.412109 L 141.546875 97.412109 L 141.546875 98.335938 Z " fill="rgb(0, 0, 0)" fill-opacity="1.000000" />
<path d="M 149.878906 104.319336 L 149.878906 90.300781 L 150.738281 90.300781 L 150.738281 104.319336 Z " fill="rgb(0, 0, 0)" fill-opacity="1.000000" />
<path d="M 159.075684 98.335938 L 159.075684 97.412109 L 160.729980 97.412109 L 160.729980 98.335938 Z M 156.513672 98.335938 L 156.513672 97.412109 L 158.108887 97.412109 L 158.108887 98.335938 Z M 153.892578 98.335938 L 153.892578 97.412109 L 155.546875 97.412109 L 155.546875 98.335938 Z " fill="rgb(0, 0, 0)" fill-opacity="1.000000" />
<path d="M 166.075684 98.335938 L 166.075684 97.412109 L 167.729980 97.412109 L 167.729980 98.335938 Z M 163.513672 98.335938 L 163.513672 97.412109 L 165.108887 97.412109 L 165.108887 98.335938 Z M 160.892578 98.335938 L 160.892578 97.412109 L 162.546875 97.412109 L 162.546875 98.335938 Z " fill="rgb(0, 0, 0)" fill-opacity="1.000000" />
<path d="M 173.075684 98.335938 L 173.075684 97.412109 L 174.729980 97.412109 L 174.729980 98.335938 Z M 170.513672 98.335938 L 170.513672 97.412109 L 172.108887 97.412109 L 172.108887 98.335938 Z M 167.892578 98.335938 L 167.892578 97.412109 L 169.546875 97.412109 L 169.546875 98.335938 Z " fill="rgb(0, 0, 0)" fill-opacity="1.000000" />
<path d="M 180.075684 98.335938 L 180.075684 97.412109 L 181.729980 97.412109 L 181.729980 98.335938 Z M 177.513672 98.335938 L 177.513672 97.412109 L 179.108887 97.412109 L 179.108887 98.335938 Z M 174.892578 98.335938 L 174.892578 97.412109 L 176.546875 97.412109 L 176.546875 98.335938 Z " fill="rgb(0, 0, 0)" fill-opacity="1.000000" />
<path d="M 181.892578 98.335938 L 181.892578 97.412109 L 184.878906 97.412109 L 184.878906 90.300781 L 185.738281 90.300781 L 185.738281 98.335938 Z " fill="rgb(0, 0, 0)" fill-opacity="1.000000" />
<path d="M 215.698730 100.693848 Q 215.301270 100.924805 214.879639 101.040283 Q 214.458008 101.155762 214.017578 101.155762 Q 212.621094 101.155762 211.834229 100.317871 Q 211.047363 99.479980 211.047363 97.997559 Q 211.047363 96.515137 211.834229 95.677246 Q 212.621094 94.839355 214.017578 94.839355 Q 214.452637 94.839355 214.866211 94.952148 Q 215.279785 95.064941 215.698730 95.301270 L 215.698730 96.337891 Q 215.306641 95.988770 214.911865 95.833008 Q 214.517090 95.677246 214.017578 95.677246 Q 213.088379 95.677246 212.588867 96.278809 Q 212.089355 96.880371 212.089355 97.997559 Q 212.089355 99.109375 212.591553 99.713623 Q 213.093750 100.317871 214.017578 100.317871 Q 214.533203 100.317871 214.941406 100.159424 Q 215.349609 100.000977 215.698730 99.667969 Z " fill="rgb(0, 0, 0)" fill-opacity="1.000000" />
<path d="M 216.892578 98.335938 L 216.892578 97.412109 L 223.729980 97.412109 L 223.729980 98.335938 Z " fill="rgb(0, 0, 0)" fill-opacity="1.000000" />
<path d="M 223.892578 98.335938 L 223.892578 97.412109 L 230.729980 97.412109 L 230.729980 98.335938 Z " fill="rgb(0, 0, 0)" fill-opacity="1.000000" />
<path d="M 230.892578 98.335938 L 230.892578 97.412109 L 237.729980 97.412109 L 237.729980 98.335938 Z " fill="rgb(0, 0, 0)" fill-opacity="1.000000" />
<path d="M 237.892578 98.335938 L 237.892578 97.412109 L 244.729980 97.412109 L 244.729980 98.335938 Z " fill="rgb(0, 0, 0)" fill-opacity="1.000000" />
<path d="M 244.892578 98.335938 L 244.892578 97.412109 L 251.729980 97.412109 L 251.729980 98.335938 Z " fill="rgb(0, 0, 0)" fill-opacity="1.000000" />
<path d="M 251.892578 98.335938 L 251.892578 97.412109 L 258.729980 97.412109 L 258.729980 98.335938 Z " fill="rgb(0, 0, 0)" fill-opacity="1.000000" />
<path d="M 258.892578 98.335938 L 258.892578 97.412109 L 265.729980 97.412109 L 265.729980 98.335938 Z " fill="rgb(0, 0, 0)" fill-opacity="1.000000" />
<path d="M 271.698730 100.693848 Q 271.301270 100.924805 270.879639 101.040283 Q 270.458008 101.155762 270.017578 101.155762 Q 268.621094 101.155762 267.834229 100.317871 Q 267.047363 99.479980 267.047363 97.997559 Q 267.047363 96.515137 267.834229 95.677246 Q 268.621094 94.839355 270.017578 94.839355 Q 270.452637 94.839355 270.866211 94.952148 Q 271.279785 95.064941 271.698730 95.301270 L 271.698730 96.337891 Q 271.306641 95.988770 270.911865 95.833008 Q 270.517090 95.677246 270.017578 95.677246 Q 269.088379 95.677246 268.588867 96.278809 Q 268.089355 96.880371 268.089355 97.997559 Q 268.089355 99.109375 268.591553 99.713623 Q 269.093750 100.317871 270.017578 100.317871 Q 270.533203 100.317871 270.941406 100.159424 Q 271.349609 100.000977 271.698730 99.667969 Z " fill="rgb(0, 0, 0)" fill-opacity="1.000000" />
<path d="M 292.698730 100.693848 Q 292.301270 100.924805 291.879639 101.040283 Q 291.458008 101.155762 291.017578 101.155762 Q 289.621094 101.155762 288.834229 100.317871 Q 288.047363 99.479980 288.047363 97.997559 Q 288.047363 96.515137 288.834229 95.677246 Q 289.621094 94.839355 291.017578 94.839355 Q 291.452637 94.839355 291.866211 94.952148 Q 292.279785 95.064941 292.698730 95.301270 L 292.698730 96.337891 Q 292.306641 95.988770 291.911865 95.833008 Q 291.517090 95.677246 291.017578 95.677246 Q 290.088379 95.677246 289.588867 96.278809 Q 289.089355 96.880371 289.089355 97.997559 Q 289.089355 99.109375 289.591553 99.713623 Q 290.093750 100.317871 291.017578 100.317871 Q 291.533203 100.317871 291.941406 100.159424 Q 292.349609 100.000977 292.698730 99.667969 Z " fill="rgb(0, 0, 0)" fill-opacity="1.000000" />
<path d="M 297.308594 95.677246 Q 296.556641 95.677246 296.169922 96.262695 Q 295.783203 96.848145 295.783203 97.997559 Q 295.783203 99.141602 296.169922 99.729736 Q 296.556641 100.317871 297.308594 100.317871 Q 298.065918 100.317871 298.452637 99.729736 Q 298.839355 99.141602 298.839355 97.997559 Q 298.839355 96.848145 298.452637 96.262695 Q 298.065918 95.677246 297.308594 95.677246 Z M 297.308594 94.839355 Q 298.560059 94.839355 299.223389 95.650391 Q 299.886719 96.461426 299.886719 97.997559 Q 299.886719 99.539062 299.226074 100.347412 Q 298.565430 101.155762 297.308594 101.155762 Q 296.057129 101.155762 295.396484 100.347412 Q 294.735840 99.539062 294.735840 97.997559 Q 294.735840 96.461426 295.396484 95.650391 Q 296.057129 94.839355 297.308594 94.839355 Z " fill="rgb(0, 0, 0)" fill-opacity="1.000000" />
<path d="M 307.203613 96.225098 Q 306.886719 95.978027 306.559082 95.865234 Q 306.231445 95.752441 305.839355 95.752441 Q 304.915527 95.752441 304.426758 96.332520 Q 303.937988 96.912598 303.937988 98.008301 L 303.937988 101.000000 L 302.944336 101.000000 L 302.944336 94.984375 L 303.937988 94.984375 L 303.937988 96.160645 Q 304.185059 95.521484 304.697998 95.180420 Q 305.210938 94.839355 305.914551 94.839355 Q 306.279785 94.839355 306.596680 94.930664 Q 306.913574 95.021973 307.203613 95.215332 Z " fill="rgb(0, 0, 0)" fill-opacity="1.000000" />
<path d="M 314.015625 97.498047 L 314.015625 97.981445 L 309.734863 97.981445 L 309.734863 98.013672 Q 309.691895 99.243652 310.204834 99.780762 Q 310.717773 100.317871 311.652344 100.317871 Q 312.125000 100.317871 312.640625 100.167480 Q 313.156250 100.017090 313.741699 99.710938 L 313.741699 100.693848 Q 313.177734 100.924805 312.654053 101.040283 Q 312.130371 101.155762 311.641602 101.155762 Q 310.239746 101.155762 309.450195 100.315186 Q 308.660645 99.474609 308.660645 97.997559 Q 308.660645 96.558105 309.434082 95.698730 Q 310.207520 94.839355 311.496582 94.839355 Q 312.645996 94.839355 313.309326 95.618164 Q 313.972656 96.396973 314.015625 97.498047 Z M 313.027344 97.208008 Q 312.962891 96.584961 312.573486 96.131104 Q 312.184082 95.677246 311.453613 95.677246 Q 310.739258 95.677246 310.277344 96.149902 Q 309.815430 96.622559 309.772461 97.213379 Z " fill="rgb(0, 0, 0)" fill-opacity="1.000000" />
<path d="M 325.861816 98.824707 Q 325.861816 99.490723 326.106201 99.829102 Q 326.350586 100.167480 326.828613 100.167480 L 327.983398 100.167480 L 327.983398 101.000000 L 326.731934 101.000000 Q 325.845703 101.000000 325.359619 100.433350 Q 324.873535 99.866699 324.873535 98.824707 L 324.873535 93.383789 L 323.289062 93.383789 L 323.289062 92.610352 L 325.861816 92.610352 Z " fill="rgb(0, 0, 0)" fill-opacity="1.000000" />
<path d="M 330.697266 95.005859 L 333.227051 95.005859 L 333.227051 100.231934 L 335.187500 100.231934 L 335.187500 101.000000 L 330.278320 101.000000 L 330.278320 100.231934 L 332.238770 100.231934 L 332.238770 95.773926 L 330.697266 95.773926 Z M 332.238770 92.669434 L 333.227051 92.669434 L 333.227051 93.915527 L 332.238770 93.915527 Z " fill="rgb(0, 0, 0)" fill-opacity="1.000000" />
<path d="M 341.645020 97.272461 L 341.645020 101.000000 L 340.651367 101.000000 L 340.651367 97.272461 Q 340.651367 96.461426 340.366699 96.080078 Q 340.082031 95.698730 339.475098 95.698730 Q 338.782227 95.698730 338.408936 96.190186 Q 338.035645 96.681641 338.035645 97.600098 L 338.035645 101.000000 L 337.047363 101.000000 L 337.047363 94.984375 L 338.035645 94.984375 L 338.035645 95.886719 Q 338.298828 95.371094 338.750000 95.105225 Q 339.201172 94.839355 339.818848 94.839355 Q 340.737305 94.839355 341.191162 95.443604 Q 341.645020 96.047852 341.645020 97.272461 Z " fill="rgb(0, 0, 0)" fill-opacity="1.000000" />
<path d="M 344.267578 92.642578 L 345.288086 92.642578 L 345.288086 97.481934 L 347.882324 94.984375 L 349.085449 94.984375 L 346.716797 97.250977 L 349.456055 101.000000 L 348.247559 101.000000 L 346.023926 97.895508 L 345.288086 98.588379 L 345.288086 101.000000 L 344.267578 101.000000 Z " fill="rgb(0, 0, 0)" fill-opacity="1.000000" />
<path d="M 16.878906 52.319336 L 16.878906 45.412109 L 20.729980 45.412109 L 20.729980 46.335938 L 17.738281 46.335938 L 17.738281 52.319336 Z " fill="rgb(0, 0, 0)" fill-opacity="1.000000" />
<path d="M 16.878906 65.319336 L 16.878906 51.300781 L 17.738281 51.300781 L 17.738281 65.319336 Z " fill="rgb(0, 0, 0)" fill-opacity="1.000000" />
<path d="M 16.878906 72.335938 L 16.878906 64.300781 L 17.738281 64.300781 L 17.738281 71.412109 L 20.729980 71.412109 L 20.729980 72.335938 Z " fill="rgb(0, 0, 0)" fill-opacity="1.000000" />
<path d="M 38.673828 80.131348 L 38.190430 82.032715 L 39.506348 82.032715 L 39.995117 80.131348 L 40.854492 80.131348 L 40.365723 82.032715 L 41.676270 82.032715 L 41.676270 82.854492 L 40.166992 82.854492 L 39.640625 84.965332 L 40.983398 84.965332 L 40.983398 85.787109 L 39.431152 85.787109 L 38.872559 88.000000 L 38.013184 88.000000 L 38.577148 85.787109 L 37.255859 85.787109 L 36.691895 88.000000 L 35.837891 88.000000 L 36.396484 85.787109 L 35.010742 85.787109 L 35.010742 84.965332 L 36.605957 84.965332 L 37.132324 82.854492 L 35.703613 82.854492 L 35.703613 82.032715 L 37.331055 82.032715 L 37.814453 80.131348 Z M 39.307617 82.854492 L 37.991699 82.854492 L 37.465332 84.965332 L 38.786621 84.965332 Z " fill="rgb(0, 0, 0)" fill-opacity="1.000000" />
<path d="M 150.673828 80.131348 L 150.190430 82.032715 L 151.506348 82.032715 L 151.995117 80.131348 L 152.854492 80.131348 L 152.365723 82.032715 L 153.676270 82.032715 L 153.676270 82.854492 L 152.166992 82.854492 L 151.640625 84.965332 L 152.983398 84.965332 L 152.983398 85.787109 L 151.431152 85.787109 L 150.872559 88.000000 L 150.013184 88.000000 L 150.577148 85.787109 L 149.255859 85.787109 L 148.691895 88.000000 L 147.837891 88.000000 L 148.396484 85.787109 L 147.010742 85.787109 L 147.010742 84.965332 L 148.605957 84.965332 L 149.132324 82.854492 L 147.703613 82.854492 L 147.703613 82.032715 L 149.331055 82.032715 L 149.814453 80.131348 Z M 151.307617 82.854492 L 149.991699 82.854492 L 149.465332 84.965332 L 150.786621 84.965332 Z " fill="rgb(0, 0, 0)" fill-opacity="1.000000" />
<path d="M 184.878906 91.319336 L 184.878906 87.129883 L 185.738281 87.129883 L 185.738281 91.319336 Z M 184.878906 86.163086 L 184.878906 82.457031 L 185.738281 82.457031 L 185.738281 86.163086 Z M 184.878906 81.490234 L 184.878906 77.300781 L 185.738281 77.300781 L 185.738281 81.490234 Z " fill="rgb(0, 0, 0)" fill-opacity="1.000000" />
<path d="M 20.892578 72.335938 L 20.892578 71.412109 L 27.729980 71.412109 L 27.729980 72.335938 Z " fill="rgb(0, 0, 0)" fill-opacity="1.000000" />
<path d="M 27.892578 72.335938 L 27.892578 71.412109 L 34.729980 71.412109 L 34.729980 72.335938 Z " fill="rgb(0, 0, 0)" fill-opacity="1.000000" />
<path d="M 37.878906 78.319336 L 37.878906 72.335938 L 34.892578 72.335938 L 34.892578 71.412109 L 41.729980 71.412109 L 41.729980 72.335938 L 38.738281 72.335938 L 38.738281 78.319336 Z " fill="rgb(0, 0, 0)" fill-opacity="1.000000" />
<path d="M 41.892578 72.335938 L 41.892578 71.412109 L 48.729980 71.412109 L 48.729980 72.335938 Z " fill="rgb(0, 0, 0)" fill-opacity="1.000000" />
<path d="M 48.892578 72.335938 L 48.892578 71.412109 L 55.729980 71.412109 L 55.729980 72.335938 Z " fill="rgb(0, 0, 0)" fill-opacity="1.000000" />
<path d="M 55.892578 72.335938 L 55.892578 71.412109 L 58.878906 71.412109 L 58.878906 64.300781 L 59.738281 64.300781 L 59.738281 72.335938 Z " fill="rgb(0, 0, 0)" fill-opacity="1.000000" />
<path d="M 128.878906 72.335938 L 128.878906 64.300781 L 129.738281 64.300781 L 129.738281 71.412109 L 132.729980 71.412109 L 132.729980 72.335938 Z " fill="rgb(0, 0, 0)" fill-opacity="1.000000" />
<path d="M 132.892578 72.335938 L 132.892578 71.412109 L 139.729980 71.412109 L 139.729980 72.335938 Z " fill="rgb(0, 0, 0)" fill-opacity="1.000000" />
<path d="M 139.892578 72.335938 L 139.892578 71.412109 L 146.729980 71.412109 L 146.729980 72.335938 Z " fill="rgb(0, 0, 0)" fill-opacity="1.000000" />
<path d="M 149.878906 78.319336 L 149.878906 72.335938 L 146.892578 72.335938 L 146.892578 71.412109 L 153.729980 71.412109 L 153.729980 72.335938 L 150.738281 72.335938 L 150.738281 78.319336 Z " fill="rgb(0, 0, 0)" fill-opacity="1.000000" />
<path d="M 153.892578 72.335938 L 153.892578 71.412109 L 160.729980 71.412109 L 160.729980 72.335938 Z " fill="rgb(0, 0, 0)" fill-opacity="1.000000" />
<path d="M 160.892578 72.335938 L 160.892578 71.412109 L 167.729980 71.412109 L 167.729980 72.335938 Z " fill="rgb(0, 0, 0)" fill-opacity="1.000000" />
<path d="M 167.892578 72.335938 L 167.892578 71.412109 L 170.878906 71.412109 L 170.878906 64.300781 L 171.738281 64.300781 L 171.738281 72.335938 Z " fill="rgb(0, 0, 0)" fill-opacity="1.000000" />
<path d="M 184.878906 78.319336 L 184.878906 74.129883 L 185.738281 74.129883 L 185.738281 78.319336 Z M 184.878906 73.163086 L 184.878906 69.457031 L 185.738281 69.457031 L 185.738281 73.163086 Z M 184.878906 68.490234 L 184.878906 64.300781 L 185.738281 64.300781 L 185.738281 68.490234 Z " fill="rgb(0, 0, 0)" fill-opacity="1.000000" />
<path d="M 244.332520 70.321777 L 241.947754 71.610840 L 244.332520 72.905273 L 243.956543 73.560547 L 241.711426 72.212402 L 241.711426 74.715332 L 240.943359 74.715332 L 240.943359 72.212402 L 238.698242 73.560547 L 238.322266 72.905273 L 240.712402 71.610840 L 238.322266 70.321777 L 238.698242 69.661133 L 240.943359 71.009277 L 240.943359 68.506348 L 241.711426 68.506348 L 241.711426 71.009277 L 243.956543 69.661133 Z " fill="rgb(0, 0, 0)" fill-opacity="1.000000" />
<path d="M 24.308594 54.937012 L 23.164551 59.040527 L 25.452637 59.040527 Z M 23.653320 53.980957 L 24.969238 53.980957 L 27.423828 62.000000 L 26.301270 62.000000 L 25.710449 59.910645 L 22.901367 59.910645 L 22.321289 62.000000 L 21.198730 62.000000 Z " fill="rgb(0, 0, 0)" fill-opacity="1.000000" />
<path d="M 33.435547 54.254883 L 33.435547 55.355957 Q 32.941406 55.039062 32.444580 54.877930 Q 31.947754 54.716797 31.442871 54.716797 Q 30.674805 54.716797 30.229004 55.073975 Q 29.783203 55.431152 29.783203 56.038086 Q 29.783203 56.569824 30.075928 56.849121 Q 30.368652 57.128418 31.168945 57.316406 L 31.738281 57.445312 Q 32.866211 57.708496 33.381836 58.272461 Q 33.897461 58.836426 33.897461 59.808594 Q 33.897461 60.952637 33.188477 61.554199 Q 32.479492 62.155762 31.125977 62.155762 Q 30.562012 62.155762 29.992676 62.034912 Q 29.423340 61.914062 28.848633 61.672363 L 28.848633 60.517578 Q 29.466309 60.909668 30.016846 61.092285 Q 30.567383 61.274902 31.125977 61.274902 Q 31.947754 61.274902 32.404297 60.906982 Q 32.860840 60.539062 32.860840 59.878418 Q 32.860840 59.276855 32.546631 58.959961 Q 32.232422 58.643066 31.453613 58.471191 L 30.873535 58.336914 Q 29.756348 58.084473 29.251465 57.574219 Q 28.746582 57.063965 28.746582 56.204590 Q 28.746582 55.130371 29.468994 54.483154 Q 30.191406 53.835938 31.389160 53.835938 Q 31.851074 53.835938 32.361328 53.940674 Q 32.871582 54.045410 33.435547 54.254883 Z " fill="rgb(0, 0, 0)" fill-opacity="1.000000" />
<path d="M 45.308594 54.937012 L 44.164551 59.040527 L 46.452637 59.040527 Z M 44.653320 53.980957 L 45.969238 53.980957 L 48.423828 62.000000 L 47.301270 62.000000 L 46.710449 59.910645 L 43.901367 59.910645 L 43.321289 62.000000 L 42.198730 62.000000 Z " fill="rgb(0, 0, 0)" fill-opacity="1.000000" />
<path d="M 58.878906 65.319336 L 58.878906 51.300781 L 59.738281 51.300781 L 59.738281 58.412109 L 62.729980 58.412109 L 62.729980 59.335938 L 59.738281 59.335938 L 59.738281 65.319336 Z " fill="rgb(0, 0, 0)" fill-opacity="1.000000" />
<path d="M 68.698730 61.693848 Q 68.301270 61.924805 67.879639 62.040283 Q 67.458008 62.155762 67.017578 62.155762 Q 65.621094 62.155762 64.834229 61.317871 Q 64.047363 60.479980 64.047363 58.997559 Q 64.047363 57.515137 64.834229 56.677246 Q 65.621094 55.839355 67.017578 55.839355 Q 67.452637 55.839355 67.866211 55.952148 Q 68.279785 56.064941 68.698730 56.301270 L 68.698730 57.337891 Q 68.306641 56.988770 67.911865 56.833008 Q 67.517090 56.677246 67.017578 56.677246 Q 66.088379 56.677246 65.588867 57.278809 Q 65.089355 57.880371 65.089355 58.997559 Q 65.089355 60.109375 65.591553 60.713623 Q 66.093750 61.317871 67.017578 61.317871 Q 67.533203 61.317871 67.941406 61.159424 Q 68.349609 61.000977 68.698730 60.667969 Z " fill="rgb(0, 0, 0)" fill-opacity="1.000000" />
<path d="M 69.892578 59.335938 L 69.892578 58.412109 L 76.729980 58.412109 L 76.729980 59.335938 Z " fill="rgb(0, 0, 0)" fill-opacity="1.000000" />
<path d="M 76.892578 59.335938 L 76.892578 58.412109 L 83.729980 58.412109 L 83.729980 59.335938 Z " fill="rgb(0, 0, 0)" fill-opacity="1.000000" />
<path d="M 83.892578 59.335938 L 83.892578 58.412109 L 90.729980 58.412109 L 90.729980 59.335938 Z " fill="rgb(0, 0, 0)" fill-opacity="1.000000" />
<path d="M 90.892578 59.335938 L 90.892578 58.412109 L 97.729980 58.412109 L 97.729980 59.335938 Z " fill="rgb(0, 0, 0)" fill-opacity="1.000000" />
<path d="M 97.892578 59.335938 L 97.892578 58.412109 L 104.729980 58.412109 L 104.729980 59.335938 Z " fill="rgb(0, 0, 0)" fill-opacity="1.000000" />
<path d="M 104.892578 59.335938 L 104.892578 58.412109 L 111.729980 58.412109 L 111.729980 59.335938 Z " fill="rgb(0, 0, 0)" fill-opacity="1.000000" />
<path d="M 111.892578 59.335938 L 111.892578 58.412109 L 118.729980 58.412109 L 118.729980 59.335938 Z " fill="rgb(0, 0, 0)" fill-opacity="1.000000" />
<path d="M 124.698730 61.693848 Q 124.301270 61.924805 123.879639 62.040283 Q 123.458008 62.155762 123.017578 62.155762 Q 121.621094 62.155762 120.834229 61.317871 Q 120.047363 60.479980 120.047363 58.997559 Q 120.047363 57.515137 120.834229 56.677246 Q 121.621094 55.839355 123.017578 55.839355 Q 123.452637 55.839355 123.866211 55.952148 Q 124.279785 56.064941 124.698730 56.301270 L 124.698730 57.337891 Q 124.306641 56.988770 123.911865 56.833008 Q 123.517090 56.677246 123.017578 56.677246 Q 122.088379 56.677246 121.588867 57.278809 Q 121.089355 57.880371 121.089355 58.997559 Q 121.089355 60.109375 121.591553 60.713623 Q 122.093750 61.317871 123.017578 61.317871 Q 123.533203 61.317871 123.941406 61.159424 Q 124.349609 61.000977 124.698730 60.667969 Z " fill="rgb(0, 0, 0)" fill-opacity="1.000000" />
<path d="M 128.878906 65.319336 L 128.878906 59.335938 L 125.892578 59.335938 L 125.892578 58.412109 L 128.878906 58.412109 L 128.878906 51.300781 L 129.738281 51.300781 L 129.738281 65.319336 Z " fill="rgb(0, 0, 0)" fill-opacity="1.000000" />
<path d="M 136.308594 54.937012 L 135.164551 59.040527 L 137.452637 59.040527 Z M 135.653320 53.980957 L 136.969238 53.980957 L 139.423828 62.000000 L 138.301270 62.000000 L 137.710449 59.910645 L 134.901367 59.910645 L 134.321289 62.000000 L 133.198730 62.000000 Z " fill="rgb(0, 0, 0)" fill-opacity="1.000000" />
<path d="M 145.435547 54.254883 L 145.435547 55.355957 Q 144.941406 55.039062 144.444580 54.877930 Q 143.947754 54.716797 143.442871 54.716797 Q 142.674805 54.716797 142.229004 55.073975 Q 141.783203 55.431152 141.783203 56.038086 Q 141.783203 56.569824 142.075928 56.849121 Q 142.368652 57.128418 143.168945 57.316406 L 143.738281 57.445312 Q 144.866211 57.708496 145.381836 58.272461 Q 145.897461 58.836426 145.897461 59.808594 Q 145.897461 60.952637 145.188477 61.554199 Q 144.479492 62.155762 143.125977 62.155762 Q 142.562012 62.155762 141.992676 62.034912 Q 141.423340 61.914062 140.848633 61.672363 L 140.848633 60.517578 Q 141.466309 60.909668 142.016846 61.092285 Q 142.567383 61.274902 143.125977 61.274902 Q 143.947754 61.274902 144.404297 60.906982 Q 144.860840 60.539062 144.860840 59.878418 Q 144.860840 59.276855 144.546631 58.959961 Q 144.232422 58.643066 143.453613 58.471191 L 142.873535 58.336914 Q 141.756348 58.084473 141.251465 57.574219 Q 140.746582 57.063965 140.746582 56.204590 Q 140.746582 55.130371 141.468994 54.483154 Q 142.191406 53.835938 143.389160 53.835938 Q 143.851074 53.835938 144.361328 53.940674 Q 144.871582 54.045410 145.435547 54.254883 Z " fill="rgb(0, 0, 0)" fill-opacity="1.000000" />
<path d="M 159.763184 61.715332 Q 159.349609 61.935547 158.914551 62.045654 Q 158.479492 62.155762 157.990723 62.155762 Q 156.449219 62.155762 155.597900 61.065430 Q 154.746582 59.975098 154.746582 57.998535 Q 154.746582 56.032715 155.603271 54.934326 Q 156.459961 53.835938 157.990723 53.835938 Q 158.479492 53.835938 158.914551 53.946045 Q 159.349609 54.056152 159.763184 54.276367 L 159.763184 55.388184 Q 159.365723 55.060547 158.909180 54.888672 Q 158.452637 54.716797 157.990723 54.716797 Q 156.932617 54.716797 156.406250 55.533203 Q 155.879883 56.349609 155.879883 57.998535 Q 155.879883 59.642090 156.406250 60.458496 Q 156.932617 61.274902 157.990723 61.274902 Q 158.463379 61.274902 158.917236 61.103027 Q 159.371094 60.931152 159.763184 60.603516 Z " fill="rgb(0, 0, 0)" fill-opacity="1.000000" />
<path d="M 170.878906 65.319336 L 170.878906 51.300781 L 171.738281 51.300781 L 171.738281 65.319336 Z " fill="rgb(0, 0, 0)" fill-opacity="1.000000" />
<path d="M 184.878906 65.319336 L 184.878906 61.129883 L 185.738281 61.129883 L 185.738281 65.319336 Z M 184.878906 60.163086 L 184.878906 56.457031 L 185.738281 56.457031 L 185.738281 60.163086 Z M 184.878906 55.490234 L 184.878906 51.300781 L 185.738281 51.300781 L 185.738281 55.490234 Z " fill="rgb(0, 0, 0)" fill-opacity="1.000000" />
<path d="M 240.878906 65.319336 L 240.878906 51.300781 L 241.738281 51.300781 L 241.738281 65.319336 Z " fill="rgb(0, 0, 0)" fill-opacity="1.000000" />
<path d="M 20.892578 46.335938 L 20.892578 45.412109 L 27.729980 45.412109 L 27.729980 46.335938 Z " fill="rgb(0, 0, 0)" fill-opacity="1.000000" />
<path d="M 27.892578 46.335938 L 27.892578 45.412109 L 34.729980 45.412109 L 34.729980 46.335938 Z " fill="rgb(0, 0, 0)" fill-opacity="1.000000" />
<path d="M 34.892578 46.335938 L 34.892578 45.412109 L 41.729980 45.412109 L 41.729980 46.335938 Z " fill="rgb(0, 0, 0)" fill-opacity="1.000000" />
<path d="M 41.892578 46.335938 L 41.892578 45.412109 L 48.729980 45.412109 L 48.729980 46.335938 Z " fill="rgb(0, 0, 0)" fill-opacity="1.000000" />
<path d="M 48.892578 46.335938 L 48.892578 45.412109 L 55.729980 45.412109 L 55.729980 46.335938 Z " fill="rgb(0, 0, 0)" fill-opacity="1.000000" />
<path d="M 58.878906 52.319336 L 58.878906 46.335938 L 55.892578 46.335938 L 55.892578 45.412109 L 59.738281 45.412109 L 59.738281 52.319336 Z " fill="rgb(0, 0, 0)" fill-opacity="1.000000" />
<path d="M 128.878906 52.319336 L 128.878906 45.412109 L 132.729980 45.412109 L 132.729980 46.335938 L 129.738281 46.335938 L 129.738281 52.319336 Z " fill="rgb(0, 0, 0)" fill-opacity="1.000000" />
<path d="M 132.892578 46.335938 L 132.892578 45.412109 L 139.729980 45.412109 L 139.729980 46.335938 Z " fill="rgb(0, 0, 0)" fill-opacity="1.000000" />
<path d="M 139.892578 46.335938 L 139.892578 45.412109 L 146.729980 45.412109 L 146.729980 46.335938 Z " fill="rgb(0, 0, 0)" fill-opacity="1.000000" />
<path d="M 146.892578 46.335938 L 146.892578 45.412109 L 153.729980 45.412109 L 153.729980 46.335938 Z " fill="rgb(0, 0, 0)" fill-opacity="1.000000" />
<path d="M 153.892578 46.335938 L 153.892578 45.412109 L 160.729980 45.412109 L 160.729980 46.335938 Z " fill="rgb(0, 0, 0)" fill-opacity="1.000000" />
<path d="M 160.892578 46.335938 L 160.892578 45.412109 L 167.729980 45.412109 L 167.729980 46.335938 Z " fill="rgb(0, 0, 0)" fill-opacity="1.000000" />
<path d="M 170.878906 52.319336 L 170.878906 46.335938 L 167.892578 46.335938 L 167.892578 45.412109 L 171.738281 45.412109 L 171.738281 52.319336 Z " fill="rgb(0, 0, 0)" fill-opacity="1.000000" />
<path d="M 184.878906 52.319336 L 184.878906 48.129883 L 185.738281 48.129883 L 185.738281 52.319336 Z M 184.878906 47.163086 L 184.878906 43.457031 L 185.738281 43.457031 L 185.738281 47.163086 Z M 184.878906 42.490234 L 184.878906 38.300781 L 185.738281 38.300781 L 185.738281 42.490234 Z " fill="rgb(0, 0, 0)" fill-opacity="1.000000" />
<path d="M 240.878906 52.319336 L 240.878906 38.300781 L 241.738281 38.300781 L 241.738281 52.319336 Z " fill="rgb(0, 0, 0)" fill-opacity="1.000000" />
<path d="M 290.861816 46.824707 Q 290.861816 47.490723 291.106201 47.829102 Q 291.350586 48.167480 291.828613 48.167480 L 292.983398 48.167480 L 292.983398 49.000000 L 291.731934 49.000000 Q 290.845703 49.000000 290.359619 48.433350 Q 289.873535 47.866699 289.873535 46.824707 L 289.873535 41.383789 L 288.289062 41.383789 L 288.289062 40.610352 L 290.861816 40.610352 Z " fill="rgb(0, 0, 0)" fill-opacity="1.000000" />
<path d="M 295.697266 43.005859 L 298.227051 43.005859 L 298.227051 48.231934 L 300.187500 48.231934 L 300.187500 49.000000 L 295.278320 49.000000 L 295.278320 48.231934 L 297.238770 48.231934 L 297.238770 43.773926 L 295.697266 43.773926 Z M 297.238770 40.669434 L 298.227051 40.669434 L 298.227051 41.915527 L 297.238770 41.915527 Z " fill="rgb(0, 0, 0)" fill-opacity="1.000000" />
<path d="M 306.645020 45.272461 L 306.645020 49.000000 L 305.651367 49.000000 L 305.651367 45.272461 Q 305.651367 44.461426 305.366699 44.080078 Q 305.082031 43.698730 304.475098 43.698730 Q 303.782227 43.698730 303.408936 44.190186 Q 303.035645 44.681641 303.035645 45.600098 L 303.035645 49.000000 L 302.047363 49.000000 L 302.047363 42.984375 L 303.035645 42.984375 L 303.035645 43.886719 Q 303.298828 43.371094 303.750000 43.105225 Q 304.201172 42.839355 304.818848 42.839355 Q 305.737305 42.839355 306.191162 43.443604 Q 306.645020 44.047852 306.645020 45.272461 Z " fill="rgb(0, 0, 0)" fill-opacity="1.000000" />
<path d="M 309.267578 40.642578 L 310.288086 40.642578 L 310.288086 45.481934 L 312.882324 42.984375 L 314.085449 42.984375 L 311.716797 45.250977 L 314.456055 49.000000 L 313.247559 49.000000 L 311.023926 45.895508 L 310.288086 46.588379 L 310.288086 49.000000 L 309.267578 49.000000 Z " fill="rgb(0, 0, 0)" fill-opacity="1.000000" />
<path d="M 64.079590 27.980957 L 68.532227 27.980957 L 68.532227 28.894043 L 66.851074 28.894043 L 66.851074 35.086914 L 68.532227 35.086914 L 68.532227 36.000000 L 64.079590 36.000000 L 64.079590 35.086914 L 65.760742 35.086914 L 65.760742 28.894043 L 64.079590 28.894043 Z " fill="rgb(0, 0, 0)" fill-opacity="1.000000" />
<path d="M 75.435547 28.254883 L 75.435547 29.355957 Q 74.941406 29.039062 74.444580 28.877930 Q 73.947754 28.716797 73.442871 28.716797 Q 72.674805 28.716797 72.229004 29.073975 Q 71.783203 29.431152 71.783203 30.038086 Q 71.783203 30.569824 72.075928 30.849121 Q 72.368652 31.128418 73.168945 31.316406 L 73.738281 31.445312 Q 74.866211 31.708496 75.381836 32.272461 Q 75.897461 32.836426 75.897461 33.808594 Q 75.897461 34.952637 75.188477 35.554199 Q 74.479492 36.155762 73.125977 36.155762 Q 72.562012 36.155762 71.992676 36.034912 Q 71.423340 35.914062 70.848633 35.672363 L 70.848633 34.517578 Q 71.466309 34.909668 72.016846 35.092285 Q 72.567383 35.274902 73.125977 35.274902 Q 73.947754 35.274902 74.404297 34.906982 Q 74.860840 34.539062 74.860840 33.878418 Q 74.860840 33.276855 74.546631 32.959961 Q 74.232422 32.643066 73.453613 32.471191 L 72.873535 32.336914 Q 71.756348 32.084473 71.251465 31.574219 Q 70.746582 31.063965 70.746582 30.204590 Q 70.746582 29.130371 71.468994 28.483154 Q 72.191406 27.835938 73.389160 27.835938 Q 73.851074 27.835938 74.361328 27.940674 Q 74.871582 28.045410 75.435547 28.254883 Z " fill="rgb(0, 0, 0)" fill-opacity="1.000000" />
<path d="M 79.341797 35.108398 Q 80.711426 35.108398 81.253906 34.434326 Q 81.796387 33.760254 81.796387 31.998535 Q 81.796387 30.220703 81.256592 29.546631 Q 80.716797 28.872559 79.341797 28.872559 L 78.826172 28.872559 L 78.826172 35.108398 Z M 79.363281 27.980957 Q 81.200195 27.980957 82.070312 28.958496 Q 82.940430 29.936035 82.940430 31.998535 Q 82.940430 34.050293 82.070312 35.025146 Q 81.200195 36.000000 79.363281 36.000000 L 77.735840 36.000000 L 77.735840 27.980957 Z " fill="rgb(0, 0, 0)" fill-opacity="1.000000" />
<path d="M 96.763184 35.715332 Q 96.349609 35.935547 95.914551 36.045654 Q 95.479492 36.155762 94.990723 36.155762 Q 93.449219 36.155762 92.597900 35.065430 Q 91.746582 33.975098 91.746582 31.998535 Q 91.746582 30.032715 92.603271 28.934326 Q 93.459961 27.835938 94.990723 27.835938 Q 95.479492 27.835938 95.914551 27.946045 Q 96.349609 28.056152 96.763184 28.276367 L 96.763184 29.388184 Q 96.365723 29.060547 95.909180 28.888672 Q 95.452637 28.716797 94.990723 28.716797 Q 93.932617 28.716797 93.406250 29.533203 Q 92.879883 30.349609 92.879883 31.998535 Q 92.879883 33.642090 93.406250 34.458496 Q 93.932617 35.274902 94.990723 35.274902 Q 95.463379 35.274902 95.917236 35.103027 Q 96.371094 34.931152 96.763184 34.603516 Z " fill="rgb(0, 0, 0)" fill-opacity="1.000000" />
<path d="M 101.308594 30.677246 Q 100.556641 30.677246 100.169922 31.262695 Q 99.783203 31.848145 99.783203 32.997559 Q 99.783203 34.141602 100.169922 34.729736 Q 100.556641 35.317871 101.308594 35.317871 Q 102.065918 35.317871 102.452637 34.729736 Q 102.839355 34.141602 102.839355 32.997559 Q 102.839355 31.848145 102.452637 31.262695 Q 102.065918 30.677246 101.308594 30.677246 Z M 101.308594 29.839355 Q 102.560059 29.839355 103.223389 30.650391 Q 103.886719 31.461426 103.886719 32.997559 Q 103.886719 34.539062 103.226074 35.347412 Q 102.565430 36.155762 101.308594 36.155762 Q 100.057129 36.155762 99.396484 35.347412 Q 98.735840 34.539062 98.735840 32.997559 Q 98.735840 31.461426 99.396484 30.650391 Q 100.057129 29.839355 101.308594 29.839355 Z " fill="rgb(0, 0, 0)" fill-opacity="1.000000" />
<path d="M 111.203613 31.225098 Q 110.886719 30.978027 110.559082 30.865234 Q 110.231445 30.752441 109.839355 30.752441 Q 108.915527 30.752441 108.426758 31.332520 Q 107.937988 31.912598 107.937988 33.008301 L 107.937988 36.000000 L 106.944336 36.000000 L 106.944336 29.984375 L 107.937988 29.984375 L 107.937988 31.160645 Q 108.185059 30.521484 108.697998 30.180420 Q 109.210938 29.839355 109.914551 29.839355 Q 110.279785 29.839355 110.596680 29.930664 Q 110.913574 30.021973 111.203613 30.215332 Z " fill="rgb(0, 0, 0)" fill-opacity="1.000000" />
<path d="M 118.015625 32.498047 L 118.015625 32.981445 L 113.734863 32.981445 L 113.734863 33.013672 Q 113.691895 34.243652 114.204834 34.780762 Q 114.717773 35.317871 115.652344 35.317871 Q 116.125000 35.317871 116.640625 35.167480 Q 117.156250 35.017090 117.741699 34.710938 L 117.741699 35.693848 Q 117.177734 35.924805 116.654053 36.040283 Q 116.130371 36.155762 115.641602 36.155762 Q 114.239746 36.155762 113.450195 35.315186 Q 112.660645 34.474609 112.660645 32.997559 Q 112.660645 31.558105 113.434082 30.698730 Q 114.207520 29.839355 115.496582 29.839355 Q 116.645996 29.839355 117.309326 30.618164 Q 117.972656 31.396973 118.015625 32.498047 Z M 117.027344 32.208008 Q 116.962891 31.584961 116.573486 31.131104 Q 116.184082 30.677246 115.453613 30.677246 Q 114.739258 30.677246 114.277344 31.149902 Q 113.815430 31.622559 113.772461 32.213379 Z " fill="rgb(0, 0, 0)" fill-opacity="1.000000" />
<path d="M 184.878906 39.319336 L 184.878906 35.129883 L 185.738281 35.129883 L 185.738281 39.319336 Z M 184.878906 34.163086 L 184.878906 30.457031 L 185.738281 30.457031 L 185.738281 34.163086 Z M 184.878906 29.490234 L 184.878906 25.300781 L 185.738281 25.300781 L 185.738281 29.490234 Z " fill="rgb(0, 0, 0)" fill-opacity="1.000000" />
<path d="M 240.878906 39.319336 L 240.878906 25.300781 L 241.738281 25.300781 L 241.738281 39.319336 Z " fill="rgb(0, 0, 0)" fill-opacity="1.000000" />
<path d="M 289.014160 35.242676 L 289.014160 38.288086 L 288.020508 38.288086 L 288.020508 29.984375 L 289.014160 29.984375 L 289.014160 30.752441 Q 289.261230 30.306641 289.672119 30.072998 Q 290.083008 29.839355 290.620117 29.839355 Q 291.710449 29.839355 292.330811 30.682617 Q 292.951172 31.525879 292.951172 33.019043 Q 292.951172 34.485352 292.328125 35.320557 Q 291.705078 36.155762 290.620117 36.155762 Q 290.072266 36.155762 289.661377 35.922119 Q 289.250488 35.688477 289.014160 35.242676 Z M 291.914551 32.997559 Q 291.914551 31.848145 291.552002 31.262695 Q 291.189453 30.677246 290.475098 30.677246 Q 289.755371 30.677246 289.384766 31.265381 Q 289.014160 31.853516 289.014160 32.997559 Q 289.014160 34.136230 289.384766 34.727051 Q 289.755371 35.317871 290.475098 35.317871 Q 291.189453 35.317871 291.552002 34.732422 Q 291.914551 34.146973 291.914551 32.997559 Z " fill="rgb(0, 0, 0)" fill-opacity="1.000000" />
<path d="M 297.770508 32.976074 L 297.442871 32.976074 Q 296.578125 32.976074 296.140381 33.279541 Q 295.702637 33.583008 295.702637 34.184570 Q 295.702637 34.727051 296.030273 35.027832 Q 296.357910 35.328613 296.937988 35.328613 Q 297.754395 35.328613 298.221680 34.761963 Q 298.688965 34.195312 298.694336 33.196289 L 298.694336 32.976074 Z M 299.687988 32.567871 L 299.687988 36.000000 L 298.694336 36.000000 L 298.694336 35.108398 Q 298.377441 35.645508 297.896729 35.900635 Q 297.416016 36.155762 296.728516 36.155762 Q 295.810059 36.155762 295.262207 35.637451 Q 294.714355 35.119141 294.714355 34.249023 Q 294.714355 33.244629 295.388428 32.723633 Q 296.062500 32.202637 297.367676 32.202637 L 298.694336 32.202637 L 298.694336 32.046875 Q 298.688965 31.327148 298.329102 31.002197 Q 297.969238 30.677246 297.179688 30.677246 Q 296.674805 30.677246 296.159180 30.822266 Q 295.643555 30.967285 295.154785 31.246582 L 295.154785 30.258301 Q 295.702637 30.048828 296.204834 29.944092 Q 296.707031 29.839355 297.179688 29.839355 Q 297.926270 29.839355 298.455322 30.059570 Q 298.984375 30.279785 299.312012 30.720215 Q 299.516113 30.988770 299.602051 31.383545 Q 299.687988 31.778320 299.687988 32.567871 Z " fill="rgb(0, 0, 0)" fill-opacity="1.000000" />
<path d="M 307.203613 31.225098 Q 306.886719 30.978027 306.559082 30.865234 Q 306.231445 30.752441 305.839355 30.752441 Q 304.915527 30.752441 304.426758 31.332520 Q 303.937988 31.912598 303.937988 33.008301 L 303.937988 36.000000 L 302.944336 36.000000 L 302.944336 29.984375 L 303.937988 29.984375 L 303.937988 31.160645 Q 304.185059 30.521484 304.697998 30.180420 Q 305.210938 29.839355 305.914551 29.839355 Q 306.279785 29.839355 306.596680 29.930664 Q 306.913574 30.021973 307.203613 30.215332 Z " fill="rgb(0, 0, 0)" fill-opacity="1.000000" />
<path d="M 314.015625 32.498047 L 314.015625 32.981445 L 309.734863 32.981445 L 309.734863 33.013672 Q 309.691895 34.243652 310.204834 34.780762 Q 310.717773 35.317871 311.652344 35.317871 Q 312.125000 35.317871 312.640625 35.167480 Q 313.156250 35.017090 313.741699 34.710938 L 313.741699 35.693848 Q 313.177734 35.924805 312.654053 36.040283 Q 312.130371 36.155762 311.641602 36.155762 Q 310.239746 36.155762 309.450195 35.315186 Q 308.660645 34.474609 308.660645 32.997559 Q 308.660645 31.558105 309.434082 30.698730 Q 310.207520 29.839355 311.496582 29.839355 Q 312.645996 29.839355 313.309326 30.618164 Q 313.972656 31.396973 314.015625 32.498047 Z M 313.027344 32.208008 Q 312.962891 31.584961 312.573486 31.131104 Q 312.184082 30.677246 311.453613 30.677246 Q 310.739258 30.677246 310.277344 31.149902 Q 309.815430 31.622559 309.772461 32.213379 Z " fill="rgb(0, 0, 0)" fill-opacity="1.000000" />
<path d="M 320.645020 32.272461 L 320.645020 36.000000 L 319.651367 36.000000 L 319.651367 32.272461 Q 319.651367 31.461426 319.366699 31.080078 Q 319.082031 30.698730 318.475098 30.698730 Q 317.782227 30.698730 317.408936 31.190186 Q 317.035645 31.681641 317.035645 32.600098 L 317.035645 36.000000 L 316.047363 36.000000 L 316.047363 29.984375 L 317.035645 29.984375 L 317.035645 30.886719 Q 317.298828 30.371094 317.750000 30.105225 Q 318.201172 29.839355 318.818848 29.839355 Q 319.737305 29.839355 320.191162 30.443604 Q 320.645020 31.047852 320.645020 32.272461 Z " fill="rgb(0, 0, 0)" fill-opacity="1.000000" />
<path d="M 325.297852 28.276367 L 325.297852 29.984375 L 327.542969 29.984375 L 327.542969 30.752441 L 325.297852 30.752441 L 325.297852 34.018066 Q 325.297852 34.684082 325.550293 34.947266 Q 325.802734 35.210449 326.431152 35.210449 L 327.542969 35.210449 L 327.542969 36.000000 L 326.334473 36.000000 Q 325.222656 36.000000 324.766113 35.554199 Q 324.309570 35.108398 324.309570 34.018066 L 324.309570 30.752441 L 322.703613 30.752441 L 322.703613 29.984375 L 324.309570 29.984375 L 324.309570 28.276367 Z " fill="rgb(0, 0, 0)" fill-opacity="1.000000" />
<path d="M 329.547852 32.111328 L 335.241211 32.111328 L 335.241211 33.019043 L 329.547852 33.019043 Z " fill="rgb(0, 0, 0)" fill-opacity="1.000000" />
<path d="M 341.698730 35.693848 Q 341.301270 35.924805 340.879639 36.040283 Q 340.458008 36.155762 340.017578 36.155762 Q 338.621094 36.155762 337.834229 35.317871 Q 337.047363 34.479980 337.047363 32.997559 Q 337.047363 31.515137 337.834229 30.677246 Q 338.621094 29.839355 340.017578 29.839355 Q 340.452637 29.839355 340.866211 29.952148 Q 341.279785 30.064941 341.698730 30.301270 L 341.698730 31.337891 Q 341.306641 30.988770 340.911865 30.833008 Q 340.517090 30.677246 340.017578 30.677246 Q 339.088379 30.677246 338.588867 31.278809 Q 338.089355 31.880371 338.089355 32.997559 Q 338.089355 34.109375 338.591553 34.713623 Q 339.093750 35.317871 340.017578 35.317871 Q 340.533203 35.317871 340.941406 35.159424 Q 341.349609 35.000977 341.698730 34.667969 Z " fill="rgb(0, 0, 0)" fill-opacity="1.000000" />
<path d="M 348.645020 32.272461 L 348.645020 36.000000 L 347.651367 36.000000 L 347.651367 32.272461 Q 347.651367 31.461426 347.366699 31.080078 Q 347.082031 30.698730 346.475098 30.698730 Q 345.782227 30.698730 345.408936 31.190186 Q 345.035645 31.681641 345.035645 32.600098 L 345.035645 36.000000 L 344.047363 36.000000 L 344.047363 27.642578 L 345.035645 27.642578 L 345.035645 30.886719 Q 345.298828 30.371094 345.750000 30.105225 Q 346.201172 29.839355 346.818848 29.839355 Q 347.737305 29.839355 348.191162 30.443604 Q 348.645020 31.047852 348.645020 32.272461 Z " fill="rgb(0, 0, 0)" fill-opacity="1.000000" />
<path d="M 351.697266 30.005859 L 354.227051 30.005859 L 354.227051 35.231934 L 356.187500 35.231934 L 356.187500 36.000000 L 351.278320 36.000000 L 351.278320 35.231934 L 353.238770 35.231934 L 353.238770 30.773926 L 351.697266 30.773926 Z M 353.238770 27.669434 L 354.227051 27.669434 L 354.227051 28.915527 L 353.238770 28.915527 Z " fill="rgb(0, 0, 0)" fill-opacity="1.000000" />
<path d="M 360.861816 33.824707 Q 360.861816 34.490723 361.106201 34.829102 Q 361.350586 35.167480 361.828613 35.167480 L 362.983398 35.167480 L 362.983398 36.000000 L 361.731934 36.000000 Q 360.845703 36.000000 360.359619 35.433350 Q 359.873535 34.866699 359.873535 33.824707 L 359.873535 28.383789 L 358.289062 28.383789 L 358.289062 27.610352 L 360.861816 27.610352 Z " fill="rgb(0, 0, 0)" fill-opacity="1.000000" />
<path d="M 368.608398 30.752441 L 368.608398 27.642578 L 369.596680 27.642578 L 369.596680 36.000000 L 368.608398 36.000000 L 368.608398 35.242676 Q 368.361328 35.688477 367.950439 35.922119 Q 367.539551 36.155762 367.002441 36.155762 Q 365.912109 36.155762 365.286377 35.309814 Q 364.660645 34.463867 364.660645 32.976074 Q 364.660645 31.509766 365.289062 30.674561 Q 365.917480 29.839355 367.002441 29.839355 Q 367.544922 29.839355 367.958496 30.072998 Q 368.372070 30.306641 368.608398 30.752441 Z M 365.702637 32.997559 Q 365.702637 34.146973 366.067871 34.732422 Q 366.433105 35.317871 367.147461 35.317871 Q 367.861816 35.317871 368.235107 34.727051 Q 368.608398 34.136230 368.608398 32.997559 Q 368.608398 31.853516 368.235107 31.265381 Q 367.861816 30.677246 367.147461 30.677246 Q 366.433105 30.677246 366.067871 31.262695 Q 365.702637 31.848145 365.702637 32.997559 Z " fill="rgb(0, 0, 0)" fill-opacity="1.000000" />
<path d="M 184.878906 26.319336 L 184.878906 22.129883 L 185.738281 22.129883 L 185.738281 26.319336 Z M 184.878906 21.163086 L 184.878906 17.457031 L 185.738281 17.457031 L 185.738281 21.163086 Z M 184.878906 16.490234 L 184.878906 12.300781 L 185.738281 12.300781 L 185.738281 16.490234 Z " fill="rgb(0, 0, 0)" fill-opacity="1.000000" />
<path d="M 241.673828 15.131348 L 241.190430 17.032715 L 242.506348 17.032715 L 242.995117 15.131348 L 243.854492 15.131348 L 243.365723 17.032715 L 244.676270 17.032715 L 244.676270 17.854492 L 243.166992 17.854492 L 242.640625 19.965332 L 243.983398 19.965332 L 243.983398 20.787109 L 242.431152 20.787109 L 241.872559 23.000000 L 241.013184 23.000000 L 241.577148 20.787109 L 240.255859 20.787109 L 239.691895 23.000000 L 238.837891 23.000000 L 239.396484 20.787109 L 238.010742 20.787109 L 238.010742 19.965332 L 239.605957 19.965332 L 240.132324 17.854492 L 238.703613 17.854492 L 238.703613 17.032715 L 240.331055 17.032715 L 240.814453 15.131348 Z M 242.307617 17.854492 L 240.991699 17.854492 L 240.465332 19.965332 L 241.786621 19.965332 Z " fill="rgb(0, 0, 0)" fill-opacity="1.000000" />
<path d="M 12.075684 7.335938 L 12.075684 6.412109 L 13.729980 6.412109 L 13.729980 7.335938 Z M 9.513672 7.335938 L 9.513672 6.412109 L 11.108887 6.412109 L 11.108887 7.335938 Z M 6.892578 7.335938 L 6.892578 6.412109 L 8.546875 6.412109 L 8.546875 7.335938 Z " fill="rgb(0, 0, 0)" fill-opacity="1.000000" />
<path d="M 19.075684 7.335938 L 19.075684 6.412109 L 20.729980 6.412109 L 20.729980 7.335938 Z M 16.513672 7.335938 L 16.513672 6.412109 L 18.108887 6.412109 L 18.108887 7.335938 Z M 13.892578 7.335938 L 13.892578 6.412109 L 15.546875 6.412109 L 15.546875 7.335938 Z " fill="rgb(0, 0, 0)" fill-opacity="1.000000" />
<path d="M 26.075684 7.335938 L 26.075684 6.412109 L 27.729980 6.412109 L 27.729980 7.335938 Z M 23.513672 7.335938 L 23.513672 6.412109 L 25.108887 6.412109 L 25.108887 7.335938 Z M 20.892578 7.335938 L 20.892578 6.412109 L 22.546875 6.412109 L 22.546875 7.335938 Z " fill="rgb(0, 0, 0)" fill-opacity="1.000000" />
<path d="M 33.075684 7.335938 L 33.075684 6.412109 L 34.729980 6.412109 L 34.729980 7.335938 Z M 30.513672 7.335938 L 30.513672 6.412109 L 32.108887 6.412109 L 32.108887 7.335938 Z M 27.892578 7.335938 L 27.892578 6.412109 L 29.546875 6.412109 L 29.546875 7.335938 Z " fill="rgb(0, 0, 0)" fill-opacity="1.000000" />
<path d="M 40.075684 7.335938 L 40.075684 6.412109 L 41.729980 6.412109 L 41.729980 7.335938 Z M 37.513672 7.335938 L 37.513672 6.412109 L 39.108887 6.412109 L 39.108887 7.335938 Z M 34.892578 7.335938 L 34.892578 6.412109 L 36.546875 6.412109 L 36.546875 7.335938 Z " fill="rgb(0, 0, 0)" fill-opacity="1.000000" />
<path d="M 47.075684 7.335938 L 47.075684 6.412109 L 48.729980 6.412109 L 48.729980 7.335938 Z M 44.513672 7.335938 L 44.513672 6.412109 L 46.108887 6.412109 L 46.108887 7.335938 Z M 41.892578 7.335938 L 41.892578 6.412109 L 43.546875 6.412109 L 43.546875 7.335938 Z " fill="rgb(0, 0, 0)" fill-opacity="1.000000" />
<path d="M 54.075684 7.335938 L 54.075684 6.412109 L 55.729980 6.412109 L 55.729980 7.335938 Z M 51.513672 7.335938 L 51.513672 6.412109 L 53.108887 6.412109 L 53.108887 7.335938 Z M 48.892578 7.335938 L 48.892578 6.412109 L 50.546875 6.412109 L 50.546875 7.335938 Z " fill="rgb(0, 0, 0)" fill-opacity="1.000000" />
<path d="M 61.075684 7.335938 L 61.075684 6.412109 L 62.729980 6.412109 L 62.729980 7.335938 Z M 58.513672 7.335938 L 58.513672 6.412109 L 60.108887 6.412109 L 60.108887 7.335938 Z M 55.892578 7.335938 L 55.892578 6.412109 L 57.546875 6.412109 L 57.546875 7.335938 Z " fill="rgb(0, 0, 0)" fill-opacity="1.000000" />
<path d="M 68.075684 7.335938 L 68.075684 6.412109 L 69.729980 6.412109 L 69.729980 7.335938 Z M 65.513672 7.335938 L 65.513672 6.412109 L 67.108887 6.412109 L 67.108887 7.335938 Z M 62.892578 7.335938 L 62.892578 6.412109 L 64.546875 6.412109 L 64.546875 7.335938 Z " fill="rgb(0, 0, 0)" fill-opacity="1.000000" />
<path d="M 75.075684 7.335938 L 75.075684 6.412109 L 76.729980 6.412109 L 76.729980 7.335938 Z M 72.513672 7.335938 L 72.513672 6.412109 L 74.108887 6.412109 L 74.108887 7.335938 Z M 69.892578 7.335938 L 69.892578 6.412109 L 71.546875 6.412109 L 71.546875 7.335938 Z " fill="rgb(0, 0, 0)" fill-opacity="1.000000" />
<path d="M 82.075684 7.335938 L 82.075684 6.412109 L 83.729980 6.412109 L 83.729980 7.335938 Z M 79.513672 7.335938 L 79.513672 6.412109 L 81.108887 6.412109 L 81.108887 7.335938 Z M 76.892578 7.335938 L 76.892578 6.412109 L 78.546875 6.412109 L 78.546875 7.335938 Z " fill="rgb(0, 0, 0)" fill-opacity="1.000000" />
<path d="M 89.075684 7.335938 L 89.075684 6.412109 L 90.729980 6.412109 L 90.729980 7.335938 Z M 86.513672 7.335938 L 86.513672 6.412109 L 88.108887 6.412109 L 88.108887 7.335938 Z M 83.892578 7.335938 L 83.892578 6.412109 L 85.546875 6.412109 L 85.546875 7.335938 Z " fill="rgb(0, 0, 0)" fill-opacity="1.000000" />
<path d="M 96.075684 7.335938 L 96.075684 6.412109 L 97.729980 6.412109 L 97.729980 7.335938 Z M 93.513672 7.335938 L 93.513672 6.412109 L 95.108887 6.412109 L 95.108887 7.335938 Z M 90.892578 7.335938 L 90.892578 6.412109 L 92.546875 6.412109 L 92.546875 7.335938 Z " fill="rgb(0, 0, 0)" fill-opacity="1.000000" />
<path d="M 103.075684 7.335938 L 103.075684 6.412109 L 104.729980 6.412109 L 104.729980 7.335938 Z M 100.513672 7.335938 L 100.513672 6.412109 L 102.108887 6.412109 L 102.108887 7.335938 Z M 97.892578 7.335938 L 97.892578 6.412109 L 99.546875 6.412109 L 99.546875 7.335938 Z " fill="rgb(0, 0, 0)" fill-opacity="1.000000" />
<path d="M 110.075684 7.335938 L 110.075684 6.412109 L 111.729980 6.412109 L 111.729980 7.335938 Z M 107.513672 7.335938 L 107.513672 6.412109 L 109.108887 6.412109 L 109.108887 7.335938 Z M 104.892578 7.335938 L 104.892578 6.412109 L 106.546875 6.412109 L 106.546875 7.335938 Z " fill="rgb(0, 0, 0)" fill-opacity="1.000000" />
<path d="M 117.075684 7.335938 L 117.075684 6.412109 L 118.729980 6.412109 L 118.729980 7.335938 Z M 114.513672 7.335938 L 114.513672 6.412109 L 116.108887 6.412109 L 116.108887 7.335938 Z M 111.892578 7.335938 L 111.892578 6.412109 L 113.546875 6.412109 L 113.546875 7.335938 Z " fill="rgb(0, 0, 0)" fill-opacity="1.000000" />
<path d="M 124.075684 7.335938 L 124.075684 6.412109 L 125.729980 6.412109 L 125.729980 7.335938 Z M 121.513672 7.335938 L 121.513672 6.412109 L 123.108887 6.412109 L 123.108887 7.335938 Z M 118.892578 7.335938 L 118.892578 6.412109 L 120.546875 6.412109 L 120.546875 7.335938 Z " fill="rgb(0, 0, 0)" fill-opacity="1.000000" />
<path d="M 131.075684 7.335938 L 131.075684 6.412109 L 132.729980 6.412109 L 132.729980 7.335938 Z M 128.513672 7.335938 L 128.513672 6.412109 L 130.108887 6.412109 L 130.108887 7.335938 Z M 125.892578 7.335938 L 125.892578 6.412109 L 127.546875 6.412109 L 127.546875 7.335938 Z " fill="rgb(0, 0, 0)" fill-opacity="1.000000" />
<path d="M 138.075684 7.335938 L 138.075684 6.412109 L 139.729980 6.412109 L 139.729980 7.335938 Z M 135.513672 7.335938 L 135.513672 6.412109 L 137.108887 6.412109 L 137.108887 7.335938 Z M 132.892578 7.335938 L 132.892578 6.412109 L 134.546875 6.412109 L 134.546875 7.335938 Z " fill="rgb(0, 0, 0)" fill-opacity="1.000000" />
<path d="M 145.075684 7.335938 L 145.075684 6.412109 L 146.729980 6.412109 L 146.729980 7.335938 Z M 142.513672 7.335938 L 142.513672 6.412109 L 144.108887 6.412109 L 144.108887 7.335938 Z M 139.892578 7.335938 L 139.892578 6.412109 L 141.546875 6.412109 L 141.546875 7.335938 Z " fill="rgb(0, 0, 0)" fill-opacity="1.000000" />
<path d="M 152.075684 7.335938 L 152.075684 6.412109 L 153.729980 6.412109 L 153.729980 7.335938 Z M 149.513672 7.335938 L 149.513672 6.412109 L 151.108887 6.412109 L 151.108887 7.335938 Z M 146.892578 7.335938 L 146.892578 6.412109 L 148.546875 6.412109 L 148.546875 7.335938 Z " fill="rgb(0, 0, 0)" fill-opacity="1.000000" />
<path d="M 159.075684 7.335938 L 159.075684 6.412109 L 160.729980 6.412109 L 160.729980 7.335938 Z M 156.513672 7.335938 L 156.513672 6.412109 L 158.108887 6.412109 L 158.108887 7.335938 Z M 153.892578 7.335938 L 153.892578 6.412109 L 155.546875 6.412109 L 155.546875 7.335938 Z " fill="rgb(0, 0, 0)" fill-opacity="1.000000" />
<path d="M 166.075684 7.335938 L 166.075684 6.412109 L 167.729980 6.412109 L 167.729980 7.335938 Z M 163.513672 7.335938 L 163.513672 6.412109 L 165.108887 6.412109 L 165.108887 7.335938 Z M 160.892578 7.335938 L 160.892578 6.412109 L 162.546875 6.412109 L 162.546875 7.335938 Z " fill="rgb(0, 0, 0)" fill-opacity="1.000000" />
<path d="M 173.075684 7.335938 L 173.075684 6.412109 L 174.729980 6.412109 L 174.729980 7.335938 Z M 170.513672 7.335938 L 170.513672 6.412109 L 172.108887 6.412109 L 172.108887 7.335938 Z M 167.892578 7.335938 L 167.892578 6.412109 L 169.546875 6.412109 L 169.546875 7.335938 Z " fill="rgb(0, 0, 0)" fill-opacity="1.000000" />
<path d="M 180.075684 7.335938 L 180.075684 6.412109 L 181.729980 6.412109 L 181.729980 7.335938 Z M 177.513672 7.335938 L 177.513672 6.412109 L 179.108887 6.412109 L 179.108887 7.335938 Z M 174.892578 7.335938 L 174.892578 6.412109 L 176.546875 6.412109 L 176.546875 7.335938 Z " fill="rgb(0, 0, 0)" fill-opacity="1.000000" />
<path d="M 184.878906 13.319336 L 184.878906 7.335938 L 181.892578 7.335938 L 181.892578 6.412109 L 185.738281 6.412109 L 185.738281 13.319336 Z " fill="rgb(0, 0, 0)" fill-opacity="1.000000" />
</svg>