<?xml version='1.0' encoding='utf-8'?>
<svg xmlns="http://www.w3.org/2000/svg" version="1.1" width="211" height="118" viewBox="0 0 211.0 118.0">
<path d="M 2.878906 13.319336 L 2.878906 6.412109 L 6.729980 6.412109 L 6.729980 7.335938 L 3.738281 7.335938 L 3.738281 13.319336 Z " fill="black" fill-opacity="1.000000"/>
<path d="M 2.878906 26.319336 L 2.878906 12.300781 L 3.738281 12.300781 L 3.738281 26.319336 Z " fill="black" fill-opacity="1.000000"/>
<path d="M 2.878906 33.335938 L 2.878906 25.300781 L 3.738281 25.300781 L 3.738281 32.412109 L 6.729980 32.412109 L 6.729980 33.335938 Z " fill="black" fill-opacity="1.000000"/>
<path d="M 2.878906 46.335938 L 2.878906 38.300781 L 3.738281 38.300781 L 3.738281 45.412109 L 6.729980 45.412109 L 6.729980 46.335938 Z " fill="black" fill-opacity="1.000000"/>
<path d="M 2.878906 78.319336 L 2.878906 71.412109 L 6.729980 71.412109 L 6.729980 72.335938 L 3.738281 72.335938 L 3.738281 78.319336 Z " fill="black" fill-opacity="1.000000"/>
<path d="M 2.878906 91.319336 L 2.878906 84.412109 L 6.729980 84.412109 L 6.729980 85.335938 L 3.738281 85.335938 L 3.738281 91.319336 Z " fill="black" fill-opacity="1.000000"/>
<path d="M 2.878906 104.319336 L 2.878906 90.300781 L 3.738281 90.300781 L 3.738281 104.319336 Z " fill="black" fill-opacity="1.000000"/>
<path d="M 2.878906 111.335938 L 2.878906 103.300781 L 3.738281 103.300781 L 3.738281 110.412109 L 6.729980 110.412109 L 6.729980 111.335938 Z " fill="black" fill-opacity="1.000000"/>
<path d="M 6.892578 111.335938 L 6.892578 110.412109 L 13.729980 110.412109 L 13.729980 111.335938 Z " fill="black" fill-opacity="1.000000"/>
<path d="M 13.892578 111.335938 L 13.892578 110.412109 L 20.729980 110.412109 L 20.729980 111.335938 Z " fill="black" fill-opacity="1.000000"/>
<path d="M 20.892578 111.335938 L 20.892578 110.412109 L 27.729980 110.412109 L 27.729980 111.335938 Z " fill="black" fill-opacity="1.000000"/>
<path d="M 27.892578 111.335938 L 27.892578 110.412109 L 34.729980 110.412109 L 34.729980 111.335938 Z " fill="black" fill-opacity="1.000000"/>
<path d="M 34.892578 111.335938 L 34.892578 110.412109 L 41.729980 110.412109 L 41.729980 111.335938 Z " fill="black" fill-opacity="1.000000"/>
<path d="M 41.892578 111.335938 L 41.892578 110.412109 L 48.729980 110.412109 L 48.729980 111.335938 Z " fill="black" fill-opacity="1.000000"/>
<path d="M 48.892578 111.335938 L 48.892578 110.412109 L 55.729980 110.412109 L 55.729980 111.335938 Z " fill="black" fill-opacity="1.000000"/>
<path d="M 55.892578 111.335938 L 55.892578 110.412109 L 62.729980 110.412109 L 62.729980 111.335938 Z " fill="black" fill-opacity="1.000000"/>
<path d="M 62.892578 111.335938 L 62.892578 110.412109 L 69.729980 110.412109 L 69.729980 111.335938 Z " fill="black" fill-opacity="1.000000"/>
<path d="M 69.892578 111.335938 L 69.892578 110.412109 L 76.729980 110.412109 L 76.729980 111.335938 Z " fill="black" fill-opacity="1.000000"/>
<path d="M 76.892578 111.335938 L 76.892578 110.412109 L 83.729980 110.412109 L 83.729980 111.335938 Z " fill="black" fill-opacity="1.000000"/>
<path d="M 83.892578 111.335938 L 83.892578 110.412109 L 90.729980 110.412109 L 90.729980 111.335938 Z " fill="black" fill-opacity="1.000000"/>
<path d="M 90.892578 111.335938 L 90.892578 110.412109 L 97.729980 110.412109 L 97.729980 111.335938 Z " fill="black" fill-opacity="1.000000"/>
<path d="M 97.892578 111.335938 L 97.892578 110.412109 L 100.878906 110.412109 L 100.878906 103.300781 L 101.738281 103.300781 L 101.738281 110.412109 L 104.729980 110.412109 L 104.729980 111.335938 Z " fill="black" fill-opacity="1.000000"/>
<path d="M 104.892578 111.335938 L 104.892578 110.412109 L 111.729980 110.412109 L 111.729980 111.335938 Z " fill="black" fill-opacity="1.000000"/>
<path d="M 111.892578 111.335938 L 111.892578 110.412109 L 118.729980 110.412109 L 118.729980 111.335938 Z " fill="black" fill-opacity="1.000000"/>
<path d="M 118.892578 111.335938 L 118.892578 110.412109 L 125.729980 110.412109 L 125.729980 111.335938 Z " fill="black" fill-opacity="1.000000"/>
<path d="M 125.892578 111.335938 L 125.892578 110.412109 L 132.729980 110.412109 L 132.729980 111.335938 Z " fill="black" fill-opacity="1.000000"/>
<path d="M 132.892578 111.335938 L 132.892578 110.412109 L 139.729980 110.412109 L 139.729980 111.335938 Z " fill="black" fill-opacity="1.000000"/>
<path d="M 139.892578 111.335938 L 139.892578 110.412109 L 146.729980 110.412109 L 146.729980 111.335938 Z " fill="black" fill-opacity="1.000000"/>
<path d="M 146.892578 111.335938 L 146.892578 110.412109 L 153.729980 110.412109 L 153.729980 111.335938 Z " fill="black" fill-opacity="1.000000"/>
<path d="M 153.892578 111.335938 L 153.892578 110.412109 L 160.729980 110.412109 L 160.729980 111.335938 Z " fill="black" fill-opacity="1.000000"/>
<path d="M 160.892578 111.335938 L 160.892578 110.412109 L 167.729980 110.412109 L 167.729980 111.335938 Z " fill="black" fill-opacity="1.000000"/>
<path d="M 167.892578 111.335938 L 167.892578 110.412109 L 174.729980 110.412109 L 174.729980 111.335938 Z " fill="black" fill-opacity="1.000000"/>
<path d="M 174.892578 111.335938 L 174.892578 110.412109 L 181.729980 110.412109 L 181.729980 111.335938 Z " fill="black" fill-opacity="1.000000"/>
<path d="M 181.892578 111.335938 L 181.892578 110.412109 L 188.729980 110.412109 L 188.729980 111.335938 Z " fill="black" fill-opacity="1.000000"/>
<path d="M 188.892578 111.335938 L 188.892578 110.412109 L 195.729980 110.412109 L 195.729980 111.335938 Z " fill="black" fill-opacity="1.000000"/>
<path d="M 195.892578 111.335938 L 195.892578 110.412109 L 202.729980 110.412109 L 202.729980 111.335938 Z " fill="black" fill-opacity="1.000000"/>
<path d="M 202.892578 111.335938 L 202.892578 110.412109 L 205.878906 110.412109 L 205.878906 103.300781 L 206.738281 103.300781 L 206.738281 111.335938 Z " fill="black" fill-opacity="1.000000"/>
<path d="M 21.252441 92.980957 L 27.370117 92.980957 L 27.370117 93.894043 L 24.861816 93.894043 L 24.861816 101.000000 L 23.771484 101.000000 L 23.771484 93.894043 L 21.252441 93.894043 Z " fill="black" fill-opacity="1.000000"/>
<path d="M 29.697266 95.005859 L 32.227051 95.005859 L 32.227051 100.231934 L 34.187500 100.231934 L 34.187500 101.000000 L 29.278320 101.000000 L 29.278320 100.231934 L 31.238770 100.231934 L 31.238770 95.773926 L 29.697266 95.773926 Z M 31.238770 92.669434 L 32.227051 92.669434 L 32.227051 93.915527 L 31.238770 93.915527 Z " fill="black" fill-opacity="1.000000"/>
<path d="M 38.630859 95.596680 Q 38.813477 95.209961 39.095459 95.024658 Q 39.377441 94.839355 39.774902 94.839355 Q 40.500000 94.839355 40.798096 95.400635 Q 41.096191 95.961914 41.096191 97.514160 L 41.096191 101.000000 L 40.193848 101.000000 L 40.193848 97.557129 Q 40.193848 96.284180 40.051514 95.975342 Q 39.909180 95.666504 39.533203 95.666504 Q 39.103516 95.666504 38.945068 95.996826 Q 38.786621 96.327148 38.786621 97.557129 L 38.786621 101.000000 L 37.884277 101.000000 L 37.884277 97.557129 Q 37.884277 96.268066 37.731201 95.967285 Q 37.578125 95.666504 37.180664 95.666504 Q 36.788574 95.666504 36.635498 95.996826 Q 36.482422 96.327148 36.482422 97.557129 L 36.482422 101.000000 L 35.585449 101.000000 L 35.585449 94.984375 L 36.482422 94.984375 L 36.482422 95.500000 Q 36.659668 95.177734 36.925537 95.008545 Q 37.191406 94.839355 37.529785 94.839355 Q 37.937988 94.839355 38.209229 95.027344 Q 38.480469 95.215332 38.630859 95.596680 Z " fill="black" fill-opacity="1.000000"/>
<path d="M 48.015625 97.498047 L 48.015625 97.981445 L 43.734863 97.981445 L 43.734863 98.013672 Q 43.691895 99.243652 44.204834 99.780762 Q 44.717773 100.317871 45.652344 100.317871 Q 46.125000 100.317871 46.640625 100.167480 Q 47.156250 100.017090 47.741699 99.710938 L 47.741699 100.693848 Q 47.177734 100.924805 46.654053 101.040283 Q 46.130371 101.155762 45.641602 101.155762 Q 44.239746 101.155762 43.450195 100.315186 Q 42.660645 99.474609 42.660645 97.997559 Q 42.660645 96.558105 43.434082 95.698730 Q 44.207520 94.839355 45.496582 94.839355 Q 46.645996 94.839355 47.309326 95.618164 Q 47.972656 96.396973 48.015625 97.498047 Z M 47.027344 97.208008 Q 46.962891 96.584961 46.573486 96.131104 Q 46.184082 95.677246 45.453613 95.677246 Q 44.739258 95.677246 44.277344 96.149902 Q 43.815430 96.622559 43.772461 97.213379 Z " fill="black" fill-opacity="1.000000"/>
<path d="M 54.226074 95.193848 L 54.226074 96.160645 Q 53.801758 95.913574 53.372070 95.790039 Q 52.942383 95.666504 52.496582 95.666504 Q 51.825195 95.666504 51.494873 95.884033 Q 51.164551 96.101562 51.164551 96.547363 Q 51.164551 96.950195 51.411621 97.148926 Q 51.658691 97.347656 52.641602 97.535645 L 53.039062 97.610840 Q 53.774902 97.750488 54.153564 98.169434 Q 54.532227 98.588379 54.532227 99.259766 Q 54.532227 100.151367 53.898438 100.653564 Q 53.264648 101.155762 52.136719 101.155762 Q 51.690918 101.155762 51.202148 101.061768 Q 50.713379 100.967773 50.144043 100.779785 L 50.144043 99.759277 Q 50.697266 100.043945 51.202148 100.186279 Q 51.707031 100.328613 52.158203 100.328613 Q 52.813477 100.328613 53.173340 100.062744 Q 53.533203 99.796875 53.533203 99.318848 Q 53.533203 98.631348 52.217285 98.368164 L 52.174316 98.357422 L 51.803711 98.282227 Q 50.949707 98.115723 50.557617 97.720947 Q 50.165527 97.326172 50.165527 96.644043 Q 50.165527 95.779297 50.750977 95.309326 Q 51.336426 94.839355 52.421387 94.839355 Q 52.904785 94.839355 53.350586 94.927979 Q 53.796387 95.016602 54.226074 95.193848 Z " fill="black" fill-opacity="1.000000"/>
<path d="M 59.297852 93.276367 L 59.297852 94.984375 L 61.542969 94.984375 L 61.542969 95.752441 L 59.297852 95.752441 L 59.297852 99.018066 Q 59.297852 99.684082 59.550293 99.947266 Q 59.802734 100.210449 60.431152 100.210449 L 61.542969 100.210449 L 61.542969 101.000000 L 60.334473 101.000000 Q 59.222656 101.000000 58.766113 100.554199 Q 58.309570 100.108398 58.309570 99.018066 L 58.309570 95.752441 L 56.703613 95.752441 L 56.703613 94.984375 L 58.309570 94.984375 L 58.309570 93.276367 Z " fill="black" fill-opacity="1.000000"/>
<path d="M 66.770508 97.976074 L 66.442871 97.976074 Q 65.578125 97.976074 65.140381 98.279541 Q 64.702637 98.583008 64.702637 99.184570 Q 64.702637 99.727051 65.030273 100.027832 Q 65.357910 100.328613 65.937988 100.328613 Q 66.754395 100.328613 67.221680 99.761963 Q 67.688965 99.195312 67.694336 98.196289 L 67.694336 97.976074 Z M 68.687988 97.567871 L 68.687988 101.000000 L 67.694336 101.000000 L 67.694336 100.108398 Q 67.377441 100.645508 66.896729 100.900635 Q 66.416016 101.155762 65.728516 101.155762 Q 64.810059 101.155762 64.262207 100.637451 Q 63.714355 100.119141 63.714355 99.249023 Q 63.714355 98.244629 64.388428 97.723633 Q 65.062500 97.202637 66.367676 97.202637 L 67.694336 97.202637 L 67.694336 97.046875 Q 67.688965 96.327148 67.329102 96.002197 Q 66.969238 95.677246 66.179688 95.677246 Q 65.674805 95.677246 65.159180 95.822266 Q 64.643555 95.967285 64.154785 96.246582 L 64.154785 95.258301 Q 64.702637 95.048828 65.204834 94.944092 Q 65.707031 94.839355 66.179688 94.839355 Q 66.926270 94.839355 67.455322 95.059570 Q 67.984375 95.279785 68.312012 95.720215 Q 68.516113 95.988770 68.602051 96.383545 Q 68.687988 96.778320 68.687988 97.567871 Z " fill="black" fill-opacity="1.000000"/>
<path d="M 73.630859 95.596680 Q 73.813477 95.209961 74.095459 95.024658 Q 74.377441 94.839355 74.774902 94.839355 Q 75.500000 94.839355 75.798096 95.400635 Q 76.096191 95.961914 76.096191 97.514160 L 76.096191 101.000000 L 75.193848 101.000000 L 75.193848 97.557129 Q 75.193848 96.284180 75.051514 95.975342 Q 74.909180 95.666504 74.533203 95.666504 Q 74.103516 95.666504 73.945068 95.996826 Q 73.786621 96.327148 73.786621 97.557129 L 73.786621 101.000000 L 72.884277 101.000000 L 72.884277 97.557129 Q 72.884277 96.268066 72.731201 95.967285 Q 72.578125 95.666504 72.180664 95.666504 Q 71.788574 95.666504 71.635498 95.996826 Q 71.482422 96.327148 71.482422 97.557129 L 71.482422 101.000000 L 70.585449 101.000000 L 70.585449 94.984375 L 71.482422 94.984375 L 71.482422 95.500000 Q 71.659668 95.177734 71.925537 95.008545 Q 72.191406 94.839355 72.529785 94.839355 Q 72.937988 94.839355 73.209229 95.027344 Q 73.480469 95.215332 73.630859 95.596680 Z " fill="black" fill-opacity="1.000000"/>
<path d="M 79.014160 100.242676 L 79.014160 103.288086 L 78.020508 103.288086 L 78.020508 94.984375 L 79.014160 94.984375 L 79.014160 95.752441 Q 79.261230 95.306641 79.672119 95.072998 Q 80.083008 94.839355 80.620117 94.839355 Q 81.710449 94.839355 82.330811 95.682617 Q 82.951172 96.525879 82.951172 98.019043 Q 82.951172 99.485352 82.328125 100.320557 Q 81.705078 101.155762 80.620117 101.155762 Q 80.072266 101.155762 79.661377 100.922119 Q 79.250488 100.688477 79.014160 100.242676 Z M 81.914551 97.997559 Q 81.914551 96.848145 81.552002 96.262695 Q 81.189453 95.677246 80.475098 95.677246 Q 79.755371 95.677246 79.384766 96.265381 Q 79.014160 96.853516 79.014160 97.997559 Q 79.014160 99.136230 79.384766 99.727051 Q 79.755371 100.317871 80.475098 100.317871 Q 81.189453 100.317871 81.552002 99.732422 Q 81.914551 99.146973 81.914551 97.997559 Z " fill="black" fill-opacity="1.000000"/>
<path d="M 100.878906 104.319336 L 100.878906 90.300781 L 101.738281 90.300781 L 101.738281 104.319336 Z " fill="black" fill-opacity="1.000000"/>
<path d="M 138.435547 93.254883 L 138.435547 94.355957 Q 137.941406 94.039062 137.444580 93.877930 Q 136.947754 93.716797 136.442871 93.716797 Q 135.674805 93.716797 135.229004 94.073975 Q 134.783203 94.431152 134.783203 95.038086 Q 134.783203 95.569824 135.075928 95.849121 Q 135.368652 96.128418 136.168945 96.316406 L 136.738281 96.445312 Q 137.866211 96.708496 138.381836 97.272461 Q 138.897461 97.836426 138.897461 98.808594 Q 138.897461 99.952637 138.188477 100.554199 Q 137.479492 101.155762 136.125977 101.155762 Q 135.562012 101.155762 134.992676 101.034912 Q 134.423340 100.914062 133.848633 100.672363 L 133.848633 99.517578 Q 134.466309 99.909668 135.016846 100.092285 Q 135.567383 100.274902 136.125977 100.274902 Q 136.947754 100.274902 137.404297 99.906982 Q 137.860840 99.539062 137.860840 98.878418 Q 137.860840 98.276855 137.546631 97.959961 Q 137.232422 97.643066 136.453613 97.471191 L 135.873535 97.336914 Q 134.756348 97.084473 134.251465 96.574219 Q 133.746582 96.063965 133.746582 95.204590 Q 133.746582 94.130371 134.468994 93.483154 Q 135.191406 92.835938 136.389160 92.835938 Q 136.851074 92.835938 137.361328 92.940674 Q 137.871582 93.045410 138.435547 93.254883 Z " fill="black" fill-opacity="1.000000"/>
<path d="M 146.015625 97.498047 L 146.015625 97.981445 L 141.734863 97.981445 L 141.734863 98.013672 Q 141.691895 99.243652 142.204834 99.780762 Q 142.717773 100.317871 143.652344 100.317871 Q 144.125000 100.317871 144.640625 100.167480 Q 145.156250 100.017090 145.741699 99.710938 L 145.741699 100.693848 Q 145.177734 100.924805 144.654053 101.040283 Q 144.130371 101.155762 143.641602 101.155762 Q 142.239746 101.155762 141.450195 100.315186 Q 140.660645 99.474609 140.660645 97.997559 Q 140.660645 96.558105 141.434082 95.698730 Q 142.207520 94.839355 143.496582 94.839355 Q 144.645996 94.839355 145.309326 95.618164 Q 145.972656 96.396973 146.015625 97.498047 Z M 145.027344 97.208008 Q 144.962891 96.584961 144.573486 96.131104 Q 144.184082 95.677246 143.453613 95.677246 Q 142.739258 95.677246 142.277344 96.149902 Q 141.815430 96.622559 141.772461 97.213379 Z " fill="black" fill-opacity="1.000000"/>
<path d="M 151.608398 97.943848 Q 151.608398 96.832031 151.245850 96.254639 Q 150.883301 95.677246 150.190430 95.677246 Q 149.465332 95.677246 149.083984 96.254639 Q 148.702637 96.832031 148.702637 97.943848 Q 148.702637 99.055664 149.086670 99.638428 Q 149.470703 100.221191 150.201172 100.221191 Q 150.883301 100.221191 151.245850 99.635742 Q 151.608398 99.050293 151.608398 97.943848 Z M 152.596680 100.613281 Q 152.596680 101.966797 151.957520 102.665039 Q 151.318359 103.363281 150.077637 103.363281 Q 149.669434 103.363281 149.223633 103.288086 Q 148.777832 103.212891 148.332031 103.067871 L 148.332031 102.090332 Q 148.858398 102.337402 149.288086 102.455566 Q 149.717773 102.573730 150.077637 102.573730 Q 150.877930 102.573730 151.243164 102.138672 Q 151.608398 101.703613 151.608398 100.758301 L 151.608398 100.715332 L 151.608398 100.043945 Q 151.372070 100.548828 150.963867 100.795898 Q 150.555664 101.042969 149.970215 101.042969 Q 148.917480 101.042969 148.289062 100.199707 Q 147.660645 99.356445 147.660645 97.943848 Q 147.660645 96.525879 148.289062 95.682617 Q 148.917480 94.839355 149.970215 94.839355 Q 150.550293 94.839355 150.953125 95.070312 Q 151.355957 95.301270 151.608398 95.784668 L 151.608398 95.005859 L 152.596680 95.005859 Z " fill="black" fill-opacity="1.000000"/>
<path d="M 162.079590 92.980957 L 166.532227 92.980957 L 166.532227 93.894043 L 164.851074 93.894043 L 164.851074 100.086914 L 166.532227 100.086914 L 166.532227 101.000000 L 162.079590 101.000000 L 162.079590 100.086914 L 163.760742 100.086914 L 163.760742 93.894043 L 162.079590 93.894043 Z " fill="black" fill-opacity="1.000000"/>
<path d="M 170.341797 100.108398 Q 171.711426 100.108398 172.253906 99.434326 Q 172.796387 98.760254 172.796387 96.998535 Q 172.796387 95.220703 172.256592 94.546631 Q 171.716797 93.872559 170.341797 93.872559 L 169.826172 93.872559 L 169.826172 100.108398 Z M 170.363281 92.980957 Q 172.200195 92.980957 173.070312 93.958496 Q 173.940430 94.936035 173.940430 96.998535 Q 173.940430 99.050293 173.070312 100.025146 Q 172.200195 101.000000 170.363281 101.000000 L 168.735840 101.000000 L 168.735840 92.980957 Z " fill="black" fill-opacity="1.000000"/>
<path d="M 205.878906 104.319336 L 205.878906 90.300781 L 206.738281 90.300781 L 206.738281 104.319336 Z " fill="black" fill-opacity="1.000000"/>
<path d="M 6.892578 72.335938 L 6.892578 71.412109 L 13.729980 71.412109 L 13.729980 72.335938 Z " fill="black" fill-opacity="1.000000"/>
<path d="M 13.892578 72.335938 L 13.892578 71.412109 L 20.729980 71.412109 L 20.729980 72.335938 Z " fill="black" fill-opacity="1.000000"/>
<path d="M 20.892578 72.335938 L 20.892578 71.412109 L 27.729980 71.412109 L 27.729980 72.335938 Z " fill="black" fill-opacity="1.000000"/>
<path d="M 27.892578 72.335938 L 27.892578 71.412109 L 34.729980 71.412109 L 34.729980 72.335938 Z " fill="black" fill-opacity="1.000000"/>
<path d="M 34.892578 72.335938 L 34.892578 71.412109 L 41.729980 71.412109 L 41.729980 72.335938 Z " fill="black" fill-opacity="1.000000"/>
<path d="M 41.892578 72.335938 L 41.892578 71.412109 L 48.729980 71.412109 L 48.729980 72.335938 Z " fill="black" fill-opacity="1.000000"/>
<path d="M 48.892578 72.335938 L 48.892578 71.412109 L 55.729980 71.412109 L 55.729980 72.335938 Z " fill="black" fill-opacity="1.000000"/>
<path d="M 55.892578 72.335938 L 55.892578 71.412109 L 62.729980 71.412109 L 62.729980 72.335938 Z " fill="black" fill-opacity="1.000000"/>
<path d="M 62.892578 72.335938 L 62.892578 71.412109 L 69.729980 71.412109 L 69.729980 72.335938 Z " fill="black" fill-opacity="1.000000"/>
<path d="M 69.892578 72.335938 L 69.892578 71.412109 L 76.729980 71.412109 L 76.729980 72.335938 Z " fill="black" fill-opacity="1.000000"/>
<path d="M 76.892578 72.335938 L 76.892578 71.412109 L 83.729980 71.412109 L 83.729980 72.335938 Z " fill="black" fill-opacity="1.000000"/>
<path d="M 83.892578 72.335938 L 83.892578 71.412109 L 90.729980 71.412109 L 90.729980 72.335938 Z " fill="black" fill-opacity="1.000000"/>
<path d="M 90.892578 72.335938 L 90.892578 71.412109 L 97.729980 71.412109 L 97.729980 72.335938 Z " fill="black" fill-opacity="1.000000"/>
<path d="M 97.892578 72.335938 L 97.892578 71.412109 L 104.729980 71.412109 L 104.729980 72.335938 Z " fill="black" fill-opacity="1.000000"/>
<path d="M 104.892578 72.335938 L 104.892578 71.412109 L 111.729980 71.412109 L 111.729980 72.335938 Z " fill="black" fill-opacity="1.000000"/>
<path d="M 111.892578 72.335938 L 111.892578 71.412109 L 118.729980 71.412109 L 118.729980 72.335938 Z " fill="black" fill-opacity="1.000000"/>
<path d="M 118.892578 72.335938 L 118.892578 71.412109 L 125.729980 71.412109 L 125.729980 72.335938 Z " fill="black" fill-opacity="1.000000"/>
<path d="M 125.892578 72.335938 L 125.892578 71.412109 L 132.729980 71.412109 L 132.729980 72.335938 Z " fill="black" fill-opacity="1.000000"/>
<path d="M 132.892578 72.335938 L 132.892578 71.412109 L 139.729980 71.412109 L 139.729980 72.335938 Z " fill="black" fill-opacity="1.000000"/>
<path d="M 139.892578 72.335938 L 139.892578 71.412109 L 146.729980 71.412109 L 146.729980 72.335938 Z " fill="black" fill-opacity="1.000000"/>
<path d="M 146.892578 72.335938 L 146.892578 71.412109 L 153.729980 71.412109 L 153.729980 72.335938 Z " fill="black" fill-opacity="1.000000"/>
<path d="M 153.892578 72.335938 L 153.892578 71.412109 L 160.729980 71.412109 L 160.729980 72.335938 Z " fill="black" fill-opacity="1.000000"/>
<path d="M 160.892578 72.335938 L 160.892578 71.412109 L 167.729980 71.412109 L 167.729980 72.335938 Z " fill="black" fill-opacity="1.000000"/>
<path d="M 167.892578 72.335938 L 167.892578 71.412109 L 174.729980 71.412109 L 174.729980 72.335938 Z " fill="black" fill-opacity="1.000000"/>
<path d="M 174.892578 72.335938 L 174.892578 71.412109 L 181.729980 71.412109 L 181.729980 72.335938 Z " fill="black" fill-opacity="1.000000"/>
<path d="M 181.892578 72.335938 L 181.892578 71.412109 L 188.729980 71.412109 L 188.729980 72.335938 Z " fill="black" fill-opacity="1.000000"/>
<path d="M 188.892578 72.335938 L 188.892578 71.412109 L 195.729980 71.412109 L 195.729980 72.335938 Z " fill="black" fill-opacity="1.000000"/>
<path d="M 195.892578 72.335938 L 195.892578 71.412109 L 202.729980 71.412109 L 202.729980 72.335938 Z " fill="black" fill-opacity="1.000000"/>
<path d="M 6.892578 85.335938 L 6.892578 84.412109 L 13.729980 84.412109 L 13.729980 85.335938 Z " fill="black" fill-opacity="1.000000"/>
<path d="M 13.892578 85.335938 L 13.892578 84.412109 L 20.729980 84.412109 L 20.729980 85.335938 Z " fill="black" fill-opacity="1.000000"/>
<path d="M 20.892578 85.335938 L 20.892578 84.412109 L 27.729980 84.412109 L 27.729980 85.335938 Z " fill="black" fill-opacity="1.000000"/>
<path d="M 27.892578 85.335938 L 27.892578 84.412109 L 34.729980 84.412109 L 34.729980 85.335938 Z " fill="black" fill-opacity="1.000000"/>
<path d="M 34.892578 85.335938 L 34.892578 84.412109 L 41.729980 84.412109 L 41.729980 85.335938 Z " fill="black" fill-opacity="1.000000"/>
<path d="M 41.892578 85.335938 L 41.892578 84.412109 L 48.729980 84.412109 L 48.729980 85.335938 Z " fill="black" fill-opacity="1.000000"/>
<path d="M 48.892578 85.335938 L 48.892578 84.412109 L 55.729980 84.412109 L 55.729980 85.335938 Z " fill="black" fill-opacity="1.000000"/>
<path d="M 55.892578 85.335938 L 55.892578 84.412109 L 62.729980 84.412109 L 62.729980 85.335938 Z " fill="black" fill-opacity="1.000000"/>
<path d="M 62.892578 85.335938 L 62.892578 84.412109 L 69.729980 84.412109 L 69.729980 85.335938 Z " fill="black" fill-opacity="1.000000"/>
<path d="M 69.892578 85.335938 L 69.892578 84.412109 L 76.729980 84.412109 L 76.729980 85.335938 Z " fill="black" fill-opacity="1.000000"/>
<path d="M 76.892578 85.335938 L 76.892578 84.412109 L 83.729980 84.412109 L 83.729980 85.335938 Z " fill="black" fill-opacity="1.000000"/>
<path d="M 83.892578 85.335938 L 83.892578 84.412109 L 90.729980 84.412109 L 90.729980 85.335938 Z " fill="black" fill-opacity="1.000000"/>
<path d="M 90.892578 85.335938 L 90.892578 84.412109 L 97.729980 84.412109 L 97.729980 85.335938 Z " fill="black" fill-opacity="1.000000"/>
<path d="M 100.878906 91.319336 L 100.878906 85.335938 L 97.892578 85.335938 L 97.892578 84.412109 L 104.729980 84.412109 L 104.729980 85.335938 L 101.738281 85.335938 L 101.738281 91.319336 Z " fill="black" fill-opacity="1.000000"/>
<path d="M 104.892578 85.335938 L 104.892578 84.412109 L 111.729980 84.412109 L 111.729980 85.335938 Z " fill="black" fill-opacity="1.000000"/>
<path d="M 111.892578 85.335938 L 111.892578 84.412109 L 118.729980 84.412109 L 118.729980 85.335938 Z " fill="black" fill-opacity="1.000000"/>
<path d="M 118.892578 85.335938 L 118.892578 84.412109 L 125.729980 84.412109 L 125.729980 85.335938 Z " fill="black" fill-opacity="1.000000"/>
<path d="M 125.892578 85.335938 L 125.892578 84.412109 L 132.729980 84.412109 L 132.729980 85.335938 Z " fill="black" fill-opacity="1.000000"/>
<path d="M 132.892578 85.335938 L 132.892578 84.412109 L 139.729980 84.412109 L 139.729980 85.335938 Z " fill="black" fill-opacity="1.000000"/>
<path d="M 139.892578 85.335938 L 139.892578 84.412109 L 146.729980 84.412109 L 146.729980 85.335938 Z " fill="black" fill-opacity="1.000000"/>
<path d="M 146.892578 85.335938 L 146.892578 84.412109 L 153.729980 84.412109 L 153.729980 85.335938 Z " fill="black" fill-opacity="1.000000"/>
<path d="M 153.892578 85.335938 L 153.892578 84.412109 L 160.729980 84.412109 L 160.729980 85.335938 Z " fill="black" fill-opacity="1.000000"/>
<path d="M 160.892578 85.335938 L 160.892578 84.412109 L 167.729980 84.412109 L 167.729980 85.335938 Z " fill="black" fill-opacity="1.000000"/>
<path d="M 167.892578 85.335938 L 167.892578 84.412109 L 174.729980 84.412109 L 174.729980 85.335938 Z " fill="black" fill-opacity="1.000000"/>
<path d="M 174.892578 85.335938 L 174.892578 84.412109 L 181.729980 84.412109 L 181.729980 85.335938 Z " fill="black" fill-opacity="1.000000"/>
<path d="M 181.892578 85.335938 L 181.892578 84.412109 L 188.729980 84.412109 L 188.729980 85.335938 Z " fill="black" fill-opacity="1.000000"/>
<path d="M 188.892578 85.335938 L 188.892578 84.412109 L 195.729980 84.412109 L 195.729980 85.335938 Z " fill="black" fill-opacity="1.000000"/>
<path d="M 195.892578 85.335938 L 195.892578 84.412109 L 202.729980 84.412109 L 202.729980 85.335938 Z " fill="black" fill-opacity="1.000000"/>
<path d="M 205.878906 91.319336 L 205.878906 85.335938 L 202.892578 85.335938 L 202.892578 84.412109 L 206.738281 84.412109 L 206.738281 91.319336 Z " fill="black" fill-opacity="1.000000"/>
<path d="M 205.878906 78.319336 L 205.878906 72.335938 L 202.892578 72.335938 L 202.892578 71.412109 L 206.738281 71.412109 L 206.738281 78.319336 Z " fill="black" fill-opacity="1.000000"/>
<path d="M 101.308594 62.418945 L 98.032227 55.866211 L 104.590332 55.866211 Z " fill="black" fill-opacity="1.000000"/>
<path d="M 6.892578 33.335938 L 6.892578 32.412109 L 13.729980 32.412109 L 13.729980 33.335938 Z " fill="black" fill-opacity="1.000000"/>
<path d="M 13.892578 33.335938 L 13.892578 32.412109 L 20.729980 32.412109 L 20.729980 33.335938 Z " fill="black" fill-opacity="1.000000"/>
<path d="M 20.892578 33.335938 L 20.892578 32.412109 L 27.729980 32.412109 L 27.729980 33.335938 Z " fill="black" fill-opacity="1.000000"/>
<path d="M 27.892578 33.335938 L 27.892578 32.412109 L 34.729980 32.412109 L 34.729980 33.335938 Z " fill="black" fill-opacity="1.000000"/>
<path d="M 34.892578 33.335938 L 34.892578 32.412109 L 41.729980 32.412109 L 41.729980 33.335938 Z " fill="black" fill-opacity="1.000000"/>
<path d="M 41.892578 33.335938 L 41.892578 32.412109 L 48.729980 32.412109 L 48.729980 33.335938 Z " fill="black" fill-opacity="1.000000"/>
<path d="M 48.892578 33.335938 L 48.892578 32.412109 L 55.729980 32.412109 L 55.729980 33.335938 Z " fill="black" fill-opacity="1.000000"/>
<path d="M 55.892578 33.335938 L 55.892578 32.412109 L 62.729980 32.412109 L 62.729980 33.335938 Z " fill="black" fill-opacity="1.000000"/>
<path d="M 62.892578 33.335938 L 62.892578 32.412109 L 69.729980 32.412109 L 69.729980 33.335938 Z " fill="black" fill-opacity="1.000000"/>
<path d="M 69.892578 33.335938 L 69.892578 32.412109 L 76.729980 32.412109 L 76.729980 33.335938 Z " fill="black" fill-opacity="1.000000"/>
<path d="M 76.892578 33.335938 L 76.892578 32.412109 L 83.729980 32.412109 L 83.729980 33.335938 Z " fill="black" fill-opacity="1.000000"/>
<path d="M 83.892578 33.335938 L 83.892578 32.412109 L 90.729980 32.412109 L 90.729980 33.335938 Z " fill="black" fill-opacity="1.000000"/>
<path d="M 90.892578 33.335938 L 90.892578 32.412109 L 97.729980 32.412109 L 97.729980 33.335938 Z " fill="black" fill-opacity="1.000000"/>
<path d="M 97.892578 33.335938 L 97.892578 32.412109 L 104.729980 32.412109 L 104.729980 33.335938 Z " fill="black" fill-opacity="1.000000"/>
<path d="M 104.892578 33.335938 L 104.892578 32.412109 L 111.729980 32.412109 L 111.729980 33.335938 Z " fill="black" fill-opacity="1.000000"/>
<path d="M 111.892578 33.335938 L 111.892578 32.412109 L 118.729980 32.412109 L 118.729980 33.335938 Z " fill="black" fill-opacity="1.000000"/>
<path d="M 118.892578 33.335938 L 118.892578 32.412109 L 125.729980 32.412109 L 125.729980 33.335938 Z " fill="black" fill-opacity="1.000000"/>
<path d="M 125.892578 33.335938 L 125.892578 32.412109 L 132.729980 32.412109 L 132.729980 33.335938 Z " fill="black" fill-opacity="1.000000"/>
<path d="M 132.892578 33.335938 L 132.892578 32.412109 L 139.729980 32.412109 L 139.729980 33.335938 Z " fill="black" fill-opacity="1.000000"/>
<path d="M 139.892578 33.335938 L 139.892578 32.412109 L 146.729980 32.412109 L 146.729980 33.335938 Z " fill="black" fill-opacity="1.000000"/>
<path d="M 146.892578 33.335938 L 146.892578 32.412109 L 153.729980 32.412109 L 153.729980 33.335938 Z " fill="black" fill-opacity="1.000000"/>
<path d="M 153.892578 33.335938 L 153.892578 32.412109 L 160.729980 32.412109 L 160.729980 33.335938 Z " fill="black" fill-opacity="1.000000"/>
<path d="M 160.892578 33.335938 L 160.892578 32.412109 L 167.729980 32.412109 L 167.729980 33.335938 Z " fill="black" fill-opacity="1.000000"/>
<path d="M 167.892578 33.335938 L 167.892578 32.412109 L 174.729980 32.412109 L 174.729980 33.335938 Z " fill="black" fill-opacity="1.000000"/>
<path d="M 174.892578 33.335938 L 174.892578 32.412109 L 181.729980 32.412109 L 181.729980 33.335938 Z " fill="black" fill-opacity="1.000000"/>
<path d="M 181.892578 33.335938 L 181.892578 32.412109 L 188.729980 32.412109 L 188.729980 33.335938 Z " fill="black" fill-opacity="1.000000"/>
<path d="M 188.892578 33.335938 L 188.892578 32.412109 L 195.729980 32.412109 L 195.729980 33.335938 Z " fill="black" fill-opacity="1.000000"/>
<path d="M 195.892578 33.335938 L 195.892578 32.412109 L 202.729980 32.412109 L 202.729980 33.335938 Z " fill="black" fill-opacity="1.000000"/>
<path d="M 6.892578 46.335938 L 6.892578 45.412109 L 13.729980 45.412109 L 13.729980 46.335938 Z " fill="black" fill-opacity="1.000000"/>
<path d="M 13.892578 46.335938 L 13.892578 45.412109 L 20.729980 45.412109 L 20.729980 46.335938 Z " fill="black" fill-opacity="1.000000"/>
<path d="M 20.892578 46.335938 L 20.892578 45.412109 L 27.729980 45.412109 L 27.729980 46.335938 Z " fill="black" fill-opacity="1.000000"/>
<path d="M 27.892578 46.335938 L 27.892578 45.412109 L 34.729980 45.412109 L 34.729980 46.335938 Z " fill="black" fill-opacity="1.000000"/>
<path d="M 34.892578 46.335938 L 34.892578 45.412109 L 41.729980 45.412109 L 41.729980 46.335938 Z " fill="black" fill-opacity="1.000000"/>
<path d="M 41.892578 46.335938 L 41.892578 45.412109 L 48.729980 45.412109 L 48.729980 46.335938 Z " fill="black" fill-opacity="1.000000"/>
<path d="M 48.892578 46.335938 L 48.892578 45.412109 L 55.729980 45.412109 L 55.729980 46.335938 Z " fill="black" fill-opacity="1.000000"/>
<path d="M 55.892578 46.335938 L 55.892578 45.412109 L 62.729980 45.412109 L 62.729980 46.335938 Z " fill="black" fill-opacity="1.000000"/>
<path d="M 62.892578 46.335938 L 62.892578 45.412109 L 69.729980 45.412109 L 69.729980 46.335938 Z " fill="black" fill-opacity="1.000000"/>
<path d="M 69.892578 46.335938 L 69.892578 45.412109 L 76.729980 45.412109 L 76.729980 46.335938 Z " fill="black" fill-opacity="1.000000"/>
<path d="M 76.892578 46.335938 L 76.892578 45.412109 L 83.729980 45.412109 L 83.729980 46.335938 Z " fill="black" fill-opacity="1.000000"/>
<path d="M 83.892578 46.335938 L 83.892578 45.412109 L 90.729980 45.412109 L 90.729980 46.335938 Z " fill="black" fill-opacity="1.000000"/>
<path d="M 90.892578 46.335938 L 90.892578 45.412109 L 97.729980 45.412109 L 97.729980 46.335938 Z " fill="black" fill-opacity="1.000000"/>
<path d="M 100.878906 52.319336 L 100.878906 46.335938 L 97.892578 46.335938 L 97.892578 45.412109 L 104.729980 45.412109 L 104.729980 46.335938 L 101.738281 46.335938 L 101.738281 52.319336 Z " fill="black" fill-opacity="1.000000"/>
<path d="M 104.892578 46.335938 L 104.892578 45.412109 L 111.729980 45.412109 L 111.729980 46.335938 Z " fill="black" fill-opacity="1.000000"/>
<path d="M 111.892578 46.335938 L 111.892578 45.412109 L 118.729980 45.412109 L 118.729980 46.335938 Z " fill="black" fill-opacity="1.000000"/>
<path d="M 118.892578 46.335938 L 118.892578 45.412109 L 125.729980 45.412109 L 125.729980 46.335938 Z " fill="black" fill-opacity="1.000000"/>
<path d="M 125.892578 46.335938 L 125.892578 45.412109 L 132.729980 45.412109 L 132.729980 46.335938 Z " fill="black" fill-opacity="1.000000"/>
<path d="M 132.892578 46.335938 L 132.892578 45.412109 L 139.729980 45.412109 L 139.729980 46.335938 Z " fill="black" fill-opacity="1.000000"/>
<path d="M 139.892578 46.335938 L 139.892578 45.412109 L 146.729980 45.412109 L 146.729980 46.335938 Z " fill="black" fill-opacity="1.000000"/>
<path d="M 146.892578 46.335938 L 146.892578 45.412109 L 153.729980 45.412109 L 153.729980 46.335938 Z " fill="black" fill-opacity="1.000000"/>
<path d="M 153.892578 46.335938 L 153.892578 45.412109 L 160.729980 45.412109 L 160.729980 46.335938 Z " fill="black" fill-opacity="1.000000"/>
<path d="M 160.892578 46.335938 L 160.892578 45.412109 L 167.729980 45.412109 L 167.729980 46.335938 Z " fill="black" fill-opacity="1.000000"/>
<path d="M 167.892578 46.335938 L 167.892578 45.412109 L 174.729980 45.412109 L 174.729980 46.335938 Z " fill="black" fill-opacity="1.000000"/>
<path d="M 174.892578 46.335938 L 174.892578 45.412109 L 181.729980 45.412109 L 181.729980 46.335938 Z " fill="black" fill-opacity="1.000000"/>
<path d="M 181.892578 46.335938 L 181.892578 45.412109 L 188.729980 45.412109 L 188.729980 46.335938 Z " fill="black" fill-opacity="1.000000"/>
<path d="M 188.892578 46.335938 L 188.892578 45.412109 L 195.729980 45.412109 L 195.729980 46.335938 Z " fill="black" fill-opacity="1.000000"/>
<path d="M 195.892578 46.335938 L 195.892578 45.412109 L 202.729980 45.412109 L 202.729980 46.335938 Z " fill="black" fill-opacity="1.000000"/>
<path d="M 202.892578 46.335938 L 202.892578 45.412109 L 205.878906 45.412109 L 205.878906 38.300781 L 206.738281 38.300781 L 206.738281 46.335938 Z " fill="black" fill-opacity="1.000000"/>
<path d="M 202.892578 33.335938 L 202.892578 32.412109 L 205.878906 32.412109 L 205.878906 25.300781 L 206.738281 25.300781 L 206.738281 33.335938 Z " fill="black" fill-opacity="1.000000"/>
<path d="M 75.435547 15.254883 L 75.435547 16.355957 Q 74.941406 16.039062 74.444580 15.877930 Q 73.947754 15.716797 73.442871 15.716797 Q 72.674805 15.716797 72.229004 16.073975 Q 71.783203 16.431152 71.783203 17.038086 Q 71.783203 17.569824 72.075928 17.849121 Q 72.368652 18.128418 73.168945 18.316406 L 73.738281 18.445312 Q 74.866211 18.708496 75.381836 19.272461 Q 75.897461 19.836426 75.897461 20.808594 Q 75.897461 21.952637 75.188477 22.554199 Q 74.479492 23.155762 73.125977 23.155762 Q 72.562012 23.155762 71.992676 23.034912 Q 71.423340 22.914062 70.848633 22.672363 L 70.848633 21.517578 Q 71.466309 21.909668 72.016846 22.092285 Q 72.567383 22.274902 73.125977 22.274902 Q 73.947754 22.274902 74.404297 21.906982 Q 74.860840 21.539062 74.860840 20.878418 Q 74.860840 20.276855 74.546631 19.959961 Q 74.232422 19.643066 73.453613 19.471191 L 72.873535 19.336914 Q 71.756348 19.084473 71.251465 18.574219 Q 70.746582 18.063965 70.746582 17.204590 Q 70.746582 16.130371 71.468994 15.483154 Q 72.191406 14.835938 73.389160 14.835938 Q 73.851074 14.835938 74.361328 14.940674 Q 74.871582 15.045410 75.435547 15.254883 Z " fill="black" fill-opacity="1.000000"/>
<path d="M 83.015625 19.498047 L 83.015625 19.981445 L 78.734863 19.981445 L 78.734863 20.013672 Q 78.691895 21.243652 79.204834 21.780762 Q 79.717773 22.317871 80.652344 22.317871 Q 81.125000 22.317871 81.640625 22.167480 Q 82.156250 22.017090 82.741699 21.710938 L 82.741699 22.693848 Q 82.177734 22.924805 81.654053 23.040283 Q 81.130371 23.155762 80.641602 23.155762 Q 79.239746 23.155762 78.450195 22.315186 Q 77.660645 21.474609 77.660645 19.997559 Q 77.660645 18.558105 78.434082 17.698730 Q 79.207520 16.839355 80.496582 16.839355 Q 81.645996 16.839355 82.309326 17.618164 Q 82.972656 18.396973 83.015625 19.498047 Z M 82.027344 19.208008 Q 81.962891 18.584961 81.573486 18.131104 Q 81.184082 17.677246 80.453613 17.677246 Q 79.739258 17.677246 79.277344 18.149902 Q 78.815430 18.622559 78.772461 19.213379 Z " fill="black" fill-opacity="1.000000"/>
<path d="M 88.608398 19.943848 Q 88.608398 18.832031 88.245850 18.254639 Q 87.883301 17.677246 87.190430 17.677246 Q 86.465332 17.677246 86.083984 18.254639 Q 85.702637 18.832031 85.702637 19.943848 Q 85.702637 21.055664 86.086670 21.638428 Q 86.470703 22.221191 87.201172 22.221191 Q 87.883301 22.221191 88.245850 21.635742 Q 88.608398 21.050293 88.608398 19.943848 Z M 89.596680 22.613281 Q 89.596680 23.966797 88.957520 24.665039 Q 88.318359 25.363281 87.077637 25.363281 Q 86.669434 25.363281 86.223633 25.288086 Q 85.777832 25.212891 85.332031 25.067871 L 85.332031 24.090332 Q 85.858398 24.337402 86.288086 24.455566 Q 86.717773 24.573730 87.077637 24.573730 Q 87.877930 24.573730 88.243164 24.138672 Q 88.608398 23.703613 88.608398 22.758301 L 88.608398 22.715332 L 88.608398 22.043945 Q 88.372070 22.548828 87.963867 22.795898 Q 87.555664 23.042969 86.970215 23.042969 Q 85.917480 23.042969 85.289062 22.199707 Q 84.660645 21.356445 84.660645 19.943848 Q 84.660645 18.525879 85.289062 17.682617 Q 85.917480 16.839355 86.970215 16.839355 Q 87.550293 16.839355 87.953125 17.070312 Q 88.355957 17.301270 88.608398 17.784668 L 88.608398 17.005859 L 89.596680 17.005859 Z " fill="black" fill-opacity="1.000000"/>
<path d="M 94.630859 17.596680 Q 94.813477 17.209961 95.095459 17.024658 Q 95.377441 16.839355 95.774902 16.839355 Q 96.500000 16.839355 96.798096 17.400635 Q 97.096191 17.961914 97.096191 19.514160 L 97.096191 23.000000 L 96.193848 23.000000 L 96.193848 19.557129 Q 96.193848 18.284180 96.051514 17.975342 Q 95.909180 17.666504 95.533203 17.666504 Q 95.103516 17.666504 94.945068 17.996826 Q 94.786621 18.327148 94.786621 19.557129 L 94.786621 23.000000 L 93.884277 23.000000 L 93.884277 19.557129 Q 93.884277 18.268066 93.731201 17.967285 Q 93.578125 17.666504 93.180664 17.666504 Q 92.788574 17.666504 92.635498 17.996826 Q 92.482422 18.327148 92.482422 19.557129 L 92.482422 23.000000 L 91.585449 23.000000 L 91.585449 16.984375 L 92.482422 16.984375 L 92.482422 17.500000 Q 92.659668 17.177734 92.925537 17.008545 Q 93.191406 16.839355 93.529785 16.839355 Q 93.937988 16.839355 94.209229 17.027344 Q 94.480469 17.215332 94.630859 17.596680 Z " fill="black" fill-opacity="1.000000"/>
<path d="M 104.015625 19.498047 L 104.015625 19.981445 L 99.734863 19.981445 L 99.734863 20.013672 Q 99.691895 21.243652 100.204834 21.780762 Q 100.717773 22.317871 101.652344 22.317871 Q 102.125000 22.317871 102.640625 22.167480 Q 103.156250 22.017090 103.741699 21.710938 L 103.741699 22.693848 Q 103.177734 22.924805 102.654053 23.040283 Q 102.130371 23.155762 101.641602 23.155762 Q 100.239746 23.155762 99.450195 22.315186 Q 98.660645 21.474609 98.660645 19.997559 Q 98.660645 18.558105 99.434082 17.698730 Q 100.207520 16.839355 101.496582 16.839355 Q 102.645996 16.839355 103.309326 17.618164 Q 103.972656 18.396973 104.015625 19.498047 Z M 103.027344 19.208008 Q 102.962891 18.584961 102.573486 18.131104 Q 102.184082 17.677246 101.453613 17.677246 Q 100.739258 17.677246 100.277344 18.149902 Q 99.815430 18.622559 99.772461 19.213379 Z " fill="black" fill-opacity="1.000000"/>
<path d="M 110.645020 19.272461 L 110.645020 23.000000 L 109.651367 23.000000 L 109.651367 19.272461 Q 109.651367 18.461426 109.366699 18.080078 Q 109.082031 17.698730 108.475098 17.698730 Q 107.782227 17.698730 107.408936 18.190186 Q 107.035645 18.681641 107.035645 19.600098 L 107.035645 23.000000 L 106.047363 23.000000 L 106.047363 16.984375 L 107.035645 16.984375 L 107.035645 17.886719 Q 107.298828 17.371094 107.750000 17.105225 Q 108.201172 16.839355 108.818848 16.839355 Q 109.737305 16.839355 110.191162 17.443604 Q 110.645020 18.047852 110.645020 19.272461 Z " fill="black" fill-opacity="1.000000"/>
<path d="M 115.297852 15.276367 L 115.297852 16.984375 L 117.542969 16.984375 L 117.542969 17.752441 L 115.297852 17.752441 L 115.297852 21.018066 Q 115.297852 21.684082 115.550293 21.947266 Q 115.802734 22.210449 116.431152 22.210449 L 117.542969 22.210449 L 117.542969 23.000000 L 116.334473 23.000000 Q 115.222656 23.000000 114.766113 22.554199 Q 114.309570 22.108398 114.309570 21.018066 L 114.309570 17.752441 L 112.703613 17.752441 L 112.703613 16.984375 L 114.309570 16.984375 L 114.309570 15.276367 Z " fill="black" fill-opacity="1.000000"/>
<path d="M 127.079590 14.980957 L 131.532227 14.980957 L 131.532227 15.894043 L 129.851074 15.894043 L 129.851074 22.086914 L 131.532227 22.086914 L 131.532227 23.000000 L 127.079590 23.000000 L 127.079590 22.086914 L 128.760742 22.086914 L 128.760742 15.894043 L 127.079590 15.894043 Z " fill="black" fill-opacity="1.000000"/>
<path d="M 138.645020 19.272461 L 138.645020 23.000000 L 137.651367 23.000000 L 137.651367 19.272461 Q 137.651367 18.461426 137.366699 18.080078 Q 137.082031 17.698730 136.475098 17.698730 Q 135.782227 17.698730 135.408936 18.190186 Q 135.035645 18.681641 135.035645 19.600098 L 135.035645 23.000000 L 134.047363 23.000000 L 134.047363 16.984375 L 135.035645 16.984375 L 135.035645 17.886719 Q 135.298828 17.371094 135.750000 17.105225 Q 136.201172 16.839355 136.818848 16.839355 Q 137.737305 16.839355 138.191162 17.443604 Q 138.645020 18.047852 138.645020 19.272461 Z " fill="black" fill-opacity="1.000000"/>
<path d="M 145.709473 14.642578 L 145.709473 15.464355 L 144.586914 15.464355 Q 144.055176 15.464355 143.848389 15.681885 Q 143.641602 15.899414 143.641602 16.452637 L 143.641602 16.984375 L 145.709473 16.984375 L 145.709473 17.752441 L 143.641602 17.752441 L 143.641602 23.000000 L 142.653320 23.000000 L 142.653320 17.752441 L 141.047363 17.752441 L 141.047363 16.984375 L 142.653320 16.984375 L 142.653320 16.565430 Q 142.653320 15.577148 143.107178 15.109863 Q 143.561035 14.642578 144.522461 14.642578 Z " fill="black" fill-opacity="1.000000"/>
<path d="M 150.308594 17.677246 Q 149.556641 17.677246 149.169922 18.262695 Q 148.783203 18.848145 148.783203 19.997559 Q 148.783203 21.141602 149.169922 21.729736 Q 149.556641 22.317871 150.308594 22.317871 Q 151.065918 22.317871 151.452637 21.729736 Q 151.839355 21.141602 151.839355 19.997559 Q 151.839355 18.848145 151.452637 18.262695 Q 151.065918 17.677246 150.308594 17.677246 Z M 150.308594 16.839355 Q 151.560059 16.839355 152.223389 17.650391 Q 152.886719 18.461426 152.886719 19.997559 Q 152.886719 21.539062 152.226074 22.347412 Q 151.565430 23.155762 150.308594 23.155762 Q 149.057129 23.155762 148.396484 22.347412 Q 147.735840 21.539062 147.735840 19.997559 Q 147.735840 18.461426 148.396484 17.650391 Q 149.057129 16.839355 150.308594 16.839355 Z " fill="black" fill-opacity="1.000000"/>
<path d="M 205.878906 26.319336 L 205.878906 12.300781 L 206.738281 12.300781 L 206.738281 26.319336 Z " fill="black" fill-opacity="1.000000"/>
<path d="M 6.892578 7.335938 L 6.892578 6.412109 L 13.729980 6.412109 L 13.729980 7.335938 Z " fill="black" fill-opacity="1.000000"/>
<path d="M 13.892578 7.335938 L 13.892578 6.412109 L 20.729980 6.412109 L 20.729980 7.335938 Z " fill="black" fill-opacity="1.000000"/>
<path d="M 20.892578 7.335938 L 20.892578 6.412109 L 27.729980 6.412109 L 27.729980 7.335938 Z " fill="black" fill-opacity="1.000000"/>
<path d="M 27.892578 7.335938 L 27.892578 6.412109 L 34.729980 6.412109 L 34.729980 7.335938 Z " fill="black" fill-opacity="1.000000"/>
<path d="M 34.892578 7.335938 L 34.892578 6.412109 L 41.729980 6.412109 L 41.729980 7.335938 Z " fill="black" fill-opacity="1.000000"/>
<path d="M 41.892578 7.335938 L 41.892578 6.412109 L 48.729980 6.412109 L 48.729980 7.335938 Z " fill="black" fill-opacity="1.000000"/>
<path d="M 48.892578 7.335938 L 48.892578 6.412109 L 55.729980 6.412109 L 55.729980 7.335938 Z " fill="black" fill-opacity="1.000000"/>
<path d="M 55.892578 7.335938 L 55.892578 6.412109 L 62.729980 6.412109 L 62.729980 7.335938 Z " fill="black" fill-opacity="1.000000"/>
<path d="M 62.892578 7.335938 L 62.892578 6.412109 L 69.729980 6.412109 L 69.729980 7.335938 Z " fill="black" fill-opacity="1.000000"/>
<path d="M 69.892578 7.335938 L 69.892578 6.412109 L 76.729980 6.412109 L 76.729980 7.335938 Z " fill="black" fill-opacity="1.000000"/>
<path d="M 76.892578 7.335938 L 76.892578 6.412109 L 83.729980 6.412109 L 83.729980 7.335938 Z " fill="black" fill-opacity="1.000000"/>
<path d="M 83.892578 7.335938 L 83.892578 6.412109 L 90.729980 6.412109 L 90.729980 7.335938 Z " fill="black" fill-opacity="1.000000"/>
<path d="M 90.892578 7.335938 L 90.892578 6.412109 L 97.729980 6.412109 L 97.729980 7.335938 Z " fill="black" fill-opacity="1.000000"/>
<path d="M 97.892578 7.335938 L 97.892578 6.412109 L 104.729980 6.412109 L 104.729980 7.335938 Z " fill="black" fill-opacity="1.000000"/>
<path d="M 104.892578 7.335938 L 104.892578 6.412109 L 111.729980 6.412109 L 111.729980 7.335938 Z " fill="black" fill-opacity="1.000000"/>
<path d="M 111.892578 7.335938 L 111.892578 6.412109 L 118.729980 6.412109 L 118.729980 7.335938 Z " fill="black" fill-opacity="1.000000"/>
<path d="M 118.892578 7.335938 L 118.892578 6.412109 L 125.729980 6.412109 L 125.729980 7.335938 Z " fill="black" fill-opacity="1.000000"/>
<path d="M 125.892578 7.335938 L 125.892578 6.412109 L 132.729980 6.412109 L 132.729980 7.335938 Z " fill="black" fill-opacity="1.000000"/>
<path d="M 132.892578 7.335938 L 132.892578 6.412109 L 139.729980 6.412109 L 139.729980 7.335938 Z " fill="black" fill-opacity="1.000000"/>
<path d="M 139.892578 7.335938 L 139.892578 6.412109 L 146.729980 6.412109 L 146.729980 7.335938 Z " fill="black" fill-opacity="1.000000"/>
<path d="M 146.892578 7.335938 L 146.892578 6.412109 L 153.729980 6.412109 L 153.729980 7.335938 Z " fill="black" fill-opacity="1.000000"/>
<path d="M 153.892578 7.335938 L 153.892578 6.412109 L 160.729980 6.412109 L 160.729980 7.335938 Z " fill="black" fill-opacity="1.000000"/>
<path d="M 160.892578 7.335938 L 160.892578 6.412109 L 167.729980 6.412109 L 167.729980 7.335938 Z " fill="black" fill-opacity="1.000000"/>
<path d="M 167.892578 7.335938 L 167.892578 6.412109 L 174.729980 6.412109 L 174.729980 7.335938 Z " fill="black" fill-opacity="1.000000"/>
<path d="M 174.892578 7.335938 L 174.892578 6.412109 L 181.729980 6.412109 L 181.729980 7.335938 Z " fill="black" fill-opacity="1.000000"/>
<path d="M 181.892578 7.335938 L 181.892578 6.412109 L 188.729980 6.412109 L 188.729980 7.335938 Z " fill="black" fill-opacity="1.000000"/>
<path d="M 188.892578 7.335938 L 188.892578 6.412109 L 195.729980 6.412109 L 195.729980 7.335938 Z " fill="black" fill-opacity="1.000000"/>
<path d="M 195.892578 7.335938 L 195.892578 6.412109 L 202.729980 6.412109 L 202.729980 7.335938 Z " fill="black" fill-opacity="1.000000"/>
<path d="M 205.878906 13.319336 L 205.878906 7.335938 L 202.892578 7.335938 L 202.892578 6.412109 L 206.738281 6.412109 L 206.738281 13.319336 Z " fill="black" fill-opacity="1.000000"/>
</svg>
